G04 Layer_Color=8388736*
%FSLAX44Y44*%
%MOMM*%
G71*
G01*
G75*
%ADD53R,1.2832X1.2532*%
%ADD54R,2.2032X2.4032*%
%ADD55R,1.4032X0.9032*%
%ADD56R,1.2032X2.1032*%
%ADD57R,7.1032X7.0032*%
%ADD58R,2.1032X1.1532*%
%ADD59R,0.8032X1.7032*%
%ADD60R,1.5532X1.5032*%
%ADD61R,2.3532X1.5032*%
%ADD62R,2.8032X1.3032*%
%ADD63R,1.3032X2.0032*%
%ADD64R,1.2532X1.2832*%
%ADD65R,1.7032X0.8032*%
%ADD66R,3.3533X3.3533*%
G04:AMPARAMS|DCode=67|XSize=0.4633mm|YSize=1.1732mm|CornerRadius=0.1666mm|HoleSize=0mm|Usage=FLASHONLY|Rotation=90.000|XOffset=0mm|YOffset=0mm|HoleType=Round|Shape=RoundedRectangle|*
%AMROUNDEDRECTD67*
21,1,0.4633,0.8400,0,0,90.0*
21,1,0.1301,1.1732,0,0,90.0*
1,1,0.3332,0.4200,0.0650*
1,1,0.3332,0.4200,-0.0650*
1,1,0.3332,-0.4200,-0.0650*
1,1,0.3332,-0.4200,0.0650*
%
%ADD67ROUNDEDRECTD67*%
G04:AMPARAMS|DCode=68|XSize=0.4633mm|YSize=1.1732mm|CornerRadius=0.1666mm|HoleSize=0mm|Usage=FLASHONLY|Rotation=0.000|XOffset=0mm|YOffset=0mm|HoleType=Round|Shape=RoundedRectangle|*
%AMROUNDEDRECTD68*
21,1,0.4633,0.8400,0,0,0.0*
21,1,0.1301,1.1732,0,0,0.0*
1,1,0.3332,0.0650,-0.4200*
1,1,0.3332,-0.0650,-0.4200*
1,1,0.3332,-0.0650,0.4200*
1,1,0.3332,0.0650,0.4200*
%
%ADD68ROUNDEDRECTD68*%
%ADD69R,0.9632X0.9632*%
G04:AMPARAMS|DCode=70|XSize=1.7272mm|YSize=1.7272mm|CornerRadius=0.1778mm|HoleSize=0mm|Usage=FLASHONLY|Rotation=0.000|XOffset=0mm|YOffset=0mm|HoleType=Round|Shape=RoundedRectangle|*
%AMROUNDEDRECTD70*
21,1,1.7272,1.3716,0,0,0.0*
21,1,1.3716,1.7272,0,0,0.0*
1,1,0.3556,0.6858,-0.6858*
1,1,0.3556,-0.6858,-0.6858*
1,1,0.3556,-0.6858,0.6858*
1,1,0.3556,0.6858,0.6858*
%
%ADD70ROUNDEDRECTD70*%
G04:AMPARAMS|DCode=71|XSize=0.6096mm|YSize=1.5494mm|CornerRadius=0.1219mm|HoleSize=0mm|Usage=FLASHONLY|Rotation=0.000|XOffset=0mm|YOffset=0mm|HoleType=Round|Shape=RoundedRectangle|*
%AMROUNDEDRECTD71*
21,1,0.6096,1.3056,0,0,0.0*
21,1,0.3658,1.5494,0,0,0.0*
1,1,0.2438,0.1829,-0.6528*
1,1,0.2438,-0.1829,-0.6528*
1,1,0.2438,-0.1829,0.6528*
1,1,0.2438,0.1829,0.6528*
%
%ADD71ROUNDEDRECTD71*%
G04:AMPARAMS|DCode=72|XSize=1.7272mm|YSize=1.2192mm|CornerRadius=0.508mm|HoleSize=0mm|Usage=FLASHONLY|Rotation=0.000|XOffset=0mm|YOffset=0mm|HoleType=Round|Shape=RoundedRectangle|*
%AMROUNDEDRECTD72*
21,1,1.7272,0.2032,0,0,0.0*
21,1,0.7112,1.2192,0,0,0.0*
1,1,1.0160,0.3556,-0.1016*
1,1,1.0160,-0.3556,-0.1016*
1,1,1.0160,-0.3556,0.1016*
1,1,1.0160,0.3556,0.1016*
%
%ADD72ROUNDEDRECTD72*%
G04:AMPARAMS|DCode=73|XSize=1.8542mm|YSize=1.7526mm|CornerRadius=0.2565mm|HoleSize=0mm|Usage=FLASHONLY|Rotation=0.000|XOffset=0mm|YOffset=0mm|HoleType=Round|Shape=RoundedRectangle|*
%AMROUNDEDRECTD73*
21,1,1.8542,1.2395,0,0,0.0*
21,1,1.3411,1.7526,0,0,0.0*
1,1,0.5131,0.6706,-0.6198*
1,1,0.5131,-0.6706,-0.6198*
1,1,0.5131,-0.6706,0.6198*
1,1,0.5131,0.6706,0.6198*
%
%ADD73ROUNDEDRECTD73*%
%ADD74R,1.9032X1.9032*%
%ADD75C,2.4032*%
%ADD76R,4.2032X3.2032*%
%ADD77O,4.2032X3.2032*%
%ADD78C,3.2032*%
%ADD79O,1.4032X1.7032*%
%ADD80O,1.7032X1.4032*%
%ADD81C,1.4732*%
G36*
X479110Y616299D02*
X483296Y614565D01*
X487063Y612047D01*
X490267Y608843D01*
X492785Y605076D01*
X494519Y600890D01*
X495403Y596446D01*
Y594180D01*
Y591914D01*
X494519Y587470D01*
X492785Y583284D01*
X490267Y579517D01*
X487063Y576313D01*
X483296Y573795D01*
X479110Y572061D01*
X474665Y571177D01*
X470134D01*
X465690Y572061D01*
X461504Y573795D01*
X457737Y576313D01*
X454533Y579517D01*
X452015Y583284D01*
X450281Y587470D01*
X449397Y591914D01*
Y594180D01*
Y596446D01*
X450281Y600890D01*
X452015Y605076D01*
X454533Y608843D01*
X457737Y612047D01*
X461504Y614565D01*
X465690Y616299D01*
X470134Y617183D01*
X474665D01*
X479110Y616299D01*
D02*
G37*
G36*
X34710D02*
X38896Y614565D01*
X42663Y612047D01*
X45867Y608843D01*
X48385Y605076D01*
X50119Y600890D01*
X51003Y596446D01*
Y594180D01*
Y591914D01*
X50119Y587470D01*
X48385Y583284D01*
X45867Y579517D01*
X42663Y576313D01*
X38896Y573795D01*
X34710Y572061D01*
X30266Y571177D01*
X25734D01*
X21290Y572061D01*
X17104Y573795D01*
X13337Y576313D01*
X10133Y579517D01*
X7615Y583284D01*
X5881Y587470D01*
X4997Y591914D01*
Y594180D01*
Y596446D01*
X5881Y600890D01*
X7615Y605076D01*
X10133Y608843D01*
X13337Y612047D01*
X17104Y614565D01*
X21290Y616299D01*
X25734Y617183D01*
X30266D01*
X34710Y616299D01*
D02*
G37*
G36*
X479110Y50119D02*
X483296Y48385D01*
X487063Y45867D01*
X490267Y42663D01*
X492785Y38896D01*
X494519Y34710D01*
X495403Y30266D01*
Y28000D01*
Y25734D01*
X494519Y21290D01*
X492785Y17104D01*
X490267Y13337D01*
X487063Y10133D01*
X483296Y7615D01*
X479110Y5881D01*
X474665Y4997D01*
X470134D01*
X465690Y5881D01*
X461504Y7615D01*
X457737Y10133D01*
X454533Y13337D01*
X452015Y17104D01*
X450281Y21290D01*
X449397Y25734D01*
Y28000D01*
Y30266D01*
X450281Y34710D01*
X452015Y38896D01*
X454533Y42663D01*
X457737Y45867D01*
X461504Y48385D01*
X465690Y50119D01*
X470134Y51003D01*
X474665D01*
X479110Y50119D01*
D02*
G37*
G36*
X34710D02*
X38896Y48385D01*
X42663Y45867D01*
X45867Y42663D01*
X48385Y38896D01*
X50119Y34710D01*
X51003Y30266D01*
Y28000D01*
Y25734D01*
X50119Y21290D01*
X48385Y17104D01*
X45867Y13337D01*
X42663Y10133D01*
X38896Y7615D01*
X34710Y5881D01*
X30266Y4997D01*
X25734D01*
X21290Y5881D01*
X17104Y7615D01*
X13337Y10133D01*
X10133Y13337D01*
X7615Y17104D01*
X5881Y21290D01*
X4997Y25734D01*
Y28000D01*
Y30266D01*
X5881Y34710D01*
X7615Y38896D01*
X10133Y42663D01*
X13337Y45867D01*
X17104Y48385D01*
X21290Y50119D01*
X25734Y51003D01*
X30266D01*
X34710Y50119D01*
D02*
G37*
D53*
X359770Y232558D02*
D03*
X342470D02*
D03*
X359770Y248770D02*
D03*
X342470D02*
D03*
X321310Y198890D02*
D03*
X304010D02*
D03*
X321310Y179070D02*
D03*
X304010D02*
D03*
X189470Y394970D02*
D03*
X206770D02*
D03*
X42940Y294370D02*
D03*
X25640D02*
D03*
X42941Y274320D02*
D03*
X25640D02*
D03*
X203080Y528320D02*
D03*
X185780D02*
D03*
D54*
X55640Y241300D02*
D03*
X25640D02*
D03*
D55*
X343620Y77470D02*
D03*
X306620D02*
D03*
D56*
X305620Y110490D02*
D03*
X339621D02*
D03*
D57*
X47540Y179070D02*
D03*
D58*
X109540Y201920D02*
D03*
Y156220D02*
D03*
D59*
X116840Y396850D02*
D03*
X126340Y377850D02*
D03*
X107340D02*
D03*
D60*
X105720Y332720D02*
D03*
X127220D02*
D03*
X204066Y505590D02*
D03*
X182566D02*
D03*
X205060Y295910D02*
D03*
X183560D02*
D03*
X205060Y232170D02*
D03*
X183560D02*
D03*
X436290Y410210D02*
D03*
X457790D02*
D03*
X436290Y458470D02*
D03*
X457790D02*
D03*
X204066Y479490D02*
D03*
X182566D02*
D03*
X436290Y434340D02*
D03*
X457790D02*
D03*
Y534670D02*
D03*
X436290D02*
D03*
X438740Y345440D02*
D03*
X417240D02*
D03*
X438740Y276860D02*
D03*
X417240D02*
D03*
X438740Y248920D02*
D03*
X417240D02*
D03*
X438740Y177800D02*
D03*
X417240D02*
D03*
D61*
X132080Y483020D02*
D03*
Y522820D02*
D03*
D62*
X240230Y534700D02*
D03*
Y514700D02*
D03*
Y494700D02*
D03*
Y474700D02*
D03*
Y454700D02*
D03*
Y434700D02*
D03*
Y414700D02*
D03*
X240230Y394700D02*
D03*
X392230Y394700D02*
D03*
Y414700D02*
D03*
Y434700D02*
D03*
Y454700D02*
D03*
Y474700D02*
D03*
Y494700D02*
D03*
Y514700D02*
D03*
Y534700D02*
D03*
D63*
X266230Y379700D02*
D03*
X286230D02*
D03*
X306230Y379700D02*
D03*
X326230Y379700D02*
D03*
X346230D02*
D03*
X366230Y379700D02*
D03*
D64*
X133350Y187720D02*
D03*
Y170420D02*
D03*
D65*
X184560Y200660D02*
D03*
X203560Y210160D02*
D03*
Y191160D02*
D03*
X184560Y263920D02*
D03*
X203560Y273420D02*
D03*
Y254420D02*
D03*
D66*
X280670Y247410D02*
D03*
D67*
X256969Y232409D02*
D03*
Y237410D02*
D03*
Y242409D02*
D03*
Y247410D02*
D03*
Y252411D02*
D03*
Y257410D02*
D03*
Y262411D02*
D03*
X304371D02*
D03*
Y257410D02*
D03*
Y252411D02*
D03*
Y247410D02*
D03*
Y242409D02*
D03*
Y237410D02*
D03*
Y232409D02*
D03*
D68*
X265669Y271111D02*
D03*
X270670D02*
D03*
X275669D02*
D03*
X280670D02*
D03*
X285671D02*
D03*
X290670D02*
D03*
X295671D02*
D03*
Y223710D02*
D03*
X290670D02*
D03*
X285671D02*
D03*
X280670D02*
D03*
X275669D02*
D03*
X270670D02*
D03*
X265669D02*
D03*
D69*
X439440Y301650D02*
D03*
Y320650D02*
D03*
X416540Y311150D02*
D03*
X439440Y203860D02*
D03*
Y222860D02*
D03*
X416540Y213360D02*
D03*
D70*
X380830Y15070D02*
D03*
X360510D02*
D03*
D71*
X383878Y41994D02*
D03*
X377274Y41994D02*
D03*
X370670D02*
D03*
X364066Y41994D02*
D03*
X357462Y41994D02*
D03*
D72*
X395562Y41994D02*
D03*
X345778Y41994D02*
D03*
D73*
X403690Y15070D02*
D03*
X337650Y15070D02*
D03*
D74*
X154940Y59690D02*
D03*
Y34290D02*
D03*
X205740D02*
D03*
Y59690D02*
D03*
X180340Y34290D02*
D03*
Y59690D02*
D03*
X231140D02*
D03*
Y34290D02*
D03*
X129540D02*
D03*
Y59690D02*
D03*
D75*
X22860Y394970D02*
D03*
Y344170D02*
D03*
X73660Y369570D02*
D03*
D76*
X52070Y478790D02*
D03*
D77*
Y528790D02*
D03*
D78*
X28000Y594180D02*
D03*
X472400D02*
D03*
X28000Y28000D02*
D03*
X472400D02*
D03*
D79*
X335618Y15070D02*
D03*
X405722D02*
D03*
D80*
X345778Y41994D02*
D03*
X395562D02*
D03*
D81*
X120380Y124040D02*
D03*
X97210D02*
D03*
X74040D02*
D03*
X50870D02*
D03*
X280670Y247410D02*
D03*
M02*
