G04 Layer_Physical_Order=2*
G04 Layer_Color=16711680*
%FSLAX44Y44*%
%MOMM*%
G71*
G01*
G75*
%ADD31C,0.4000*%
%ADD32C,0.7000*%
%ADD33C,0.2540*%
%ADD34C,0.3000*%
%ADD35R,1.7000X1.7000*%
%ADD36C,2.2000*%
%ADD37R,4.0000X3.0000*%
%ADD38O,4.0000X3.0000*%
%ADD39C,3.0000*%
%ADD40O,1.2000X1.5000*%
%ADD41O,1.5000X1.2000*%
%ADD42C,1.2700*%
G36*
X224080Y549760D02*
X494007D01*
Y47929D01*
X492737Y47403D01*
X490668Y49472D01*
X490251Y49751D01*
X489896Y50106D01*
X486128Y52623D01*
X485664Y52816D01*
X485247Y53095D01*
X481060Y54829D01*
X480568Y54927D01*
X480104Y55119D01*
X475660Y56003D01*
X475158D01*
X474665Y56101D01*
X470134D01*
X469642Y56003D01*
X469140D01*
X464696Y55119D01*
X464232Y54927D01*
X463740Y54829D01*
X459553Y53095D01*
X459136Y52816D01*
X458672Y52623D01*
X454904Y50106D01*
X454549Y49751D01*
X454132Y49472D01*
X450928Y46268D01*
X450649Y45851D01*
X450294Y45496D01*
X447776Y41728D01*
X447584Y41264D01*
X447305Y40847D01*
X445571Y36660D01*
X445474Y36168D01*
X445281Y35704D01*
X444397Y31260D01*
Y30758D01*
X444299Y30266D01*
Y25734D01*
X444397Y25242D01*
Y24740D01*
X445281Y20296D01*
X445474Y19832D01*
X445571Y19339D01*
X447305Y15153D01*
X447584Y14736D01*
X447776Y14272D01*
X450294Y10504D01*
X450649Y10149D01*
X450928Y9732D01*
X452997Y7663D01*
X452471Y6393D01*
X415516D01*
X414954Y7532D01*
X415331Y8023D01*
X416439Y10698D01*
X416685Y12570D01*
X394759D01*
X395005Y10698D01*
X396114Y8023D01*
X396490Y7532D01*
X395928Y6393D01*
X345412D01*
X344850Y7532D01*
X345227Y8023D01*
X346335Y10698D01*
X346581Y12570D01*
X324655D01*
X324901Y10698D01*
X326009Y8023D01*
X326386Y7532D01*
X325824Y6393D01*
X47929D01*
X47403Y7663D01*
X49472Y9732D01*
X49751Y10149D01*
X50106Y10504D01*
X52623Y14272D01*
X52816Y14736D01*
X53095Y15153D01*
X54829Y19339D01*
X54927Y19832D01*
X55119Y20296D01*
X56003Y24740D01*
Y25242D01*
X56101Y25734D01*
Y30266D01*
X56003Y30758D01*
Y31260D01*
X55119Y35704D01*
X54927Y36168D01*
X54829Y36660D01*
X53095Y40847D01*
X52816Y41264D01*
X52623Y41728D01*
X50106Y45496D01*
X49751Y45851D01*
X49472Y46268D01*
X46268Y49472D01*
X45851Y49751D01*
X45496Y50106D01*
X41728Y52623D01*
X41264Y52816D01*
X40847Y53095D01*
X36660Y54829D01*
X36168Y54927D01*
X35704Y55119D01*
X31260Y56003D01*
X30758D01*
X30266Y56101D01*
X25734D01*
X25242Y56003D01*
X24740D01*
X20296Y55119D01*
X19832Y54927D01*
X19339Y54829D01*
X15153Y53095D01*
X14736Y52816D01*
X14272Y52623D01*
X10504Y50106D01*
X10149Y49751D01*
X9732Y49472D01*
X7663Y47403D01*
X6393Y47929D01*
Y338962D01*
X7663Y339150D01*
X8006Y338017D01*
X9492Y335238D01*
X11492Y332802D01*
X13928Y330802D01*
X16707Y329316D01*
X19724Y328401D01*
X22860Y328093D01*
X25996Y328401D01*
X29013Y329316D01*
X31792Y330802D01*
X34228Y332802D01*
X36228Y335238D01*
X37714Y338017D01*
X38628Y341034D01*
X38937Y344170D01*
X38628Y347307D01*
X37714Y350323D01*
X36228Y353102D01*
X34228Y355538D01*
X31792Y357538D01*
X29013Y359024D01*
X25996Y359939D01*
X22860Y360247D01*
X19724Y359939D01*
X16707Y359024D01*
X13928Y357538D01*
X11492Y355538D01*
X9492Y353102D01*
X8006Y350323D01*
X7663Y349190D01*
X6393Y349378D01*
Y389762D01*
X7663Y389950D01*
X8006Y388817D01*
X9492Y386038D01*
X11492Y383601D01*
X13928Y381602D01*
X16707Y380116D01*
X19724Y379202D01*
X22860Y378893D01*
X25996Y379202D01*
X29013Y380116D01*
X31792Y381602D01*
X34228Y383601D01*
X36228Y386038D01*
X37714Y388817D01*
X38628Y391833D01*
X38937Y394970D01*
X38628Y398106D01*
X37714Y401123D01*
X36228Y403902D01*
X34228Y406339D01*
X31792Y408338D01*
X29013Y409824D01*
X25996Y410738D01*
X22860Y411047D01*
X19724Y410738D01*
X16707Y409824D01*
X13928Y408338D01*
X11492Y406339D01*
X9492Y403902D01*
X8006Y401123D01*
X7663Y399990D01*
X6393Y400178D01*
Y574251D01*
X7663Y574777D01*
X9732Y572708D01*
X10149Y572429D01*
X10504Y572074D01*
X14272Y569557D01*
X14736Y569364D01*
X15153Y569086D01*
X19339Y567351D01*
X19832Y567253D01*
X20296Y567061D01*
X24740Y566177D01*
X25242D01*
X25734Y566079D01*
X30266D01*
X30758Y566177D01*
X31260D01*
X35704Y567061D01*
X36168Y567253D01*
X36660Y567351D01*
X40847Y569086D01*
X41264Y569364D01*
X41728Y569557D01*
X45496Y572074D01*
X45851Y572429D01*
X46268Y572708D01*
X49472Y575912D01*
X49751Y576329D01*
X50106Y576684D01*
X52623Y580452D01*
X52816Y580916D01*
X53095Y581333D01*
X54829Y585519D01*
X54927Y586012D01*
X55119Y586476D01*
X56003Y590920D01*
Y591422D01*
X56101Y591914D01*
Y596446D01*
X56003Y596938D01*
Y597440D01*
X55119Y601884D01*
X54927Y602348D01*
X54829Y602840D01*
X53095Y607027D01*
X52816Y607444D01*
X52623Y607908D01*
X50106Y611676D01*
X49751Y612031D01*
X49472Y612448D01*
X47403Y614517D01*
X47929Y615787D01*
X224080D01*
Y549760D01*
D02*
G37*
%LPC*%
G36*
X57070Y548887D02*
X54570D01*
Y531290D01*
X76920D01*
X76781Y532711D01*
X75637Y536481D01*
X73780Y539955D01*
X71281Y543000D01*
X68235Y545500D01*
X64761Y547357D01*
X60991Y548501D01*
X57070Y548887D01*
D02*
G37*
G36*
X49570D02*
X47070D01*
X43149Y548501D01*
X39379Y547357D01*
X35905Y545500D01*
X32859Y543000D01*
X30360Y539955D01*
X28503Y536481D01*
X27359Y532711D01*
X27220Y531290D01*
X49570D01*
Y548887D01*
D02*
G37*
G36*
X76920Y526290D02*
X54570D01*
Y508693D01*
X57070D01*
X60991Y509079D01*
X64761Y510223D01*
X68235Y512080D01*
X71281Y514579D01*
X73780Y517625D01*
X75637Y521099D01*
X76781Y524869D01*
X76920Y526290D01*
D02*
G37*
G36*
X49570D02*
X27220D01*
X27359Y524869D01*
X28503Y521099D01*
X30360Y517625D01*
X32859Y514579D01*
X35905Y512080D01*
X39379Y510223D01*
X43149Y509079D01*
X47070Y508693D01*
X49570D01*
Y526290D01*
D02*
G37*
G36*
X445170Y535170D02*
X394350D01*
X392523Y534930D01*
X390820Y534225D01*
X389357Y533102D01*
X361598Y505342D01*
X360476Y503880D01*
X359770Y502177D01*
X359530Y500350D01*
Y308575D01*
X340606Y289650D01*
X326741D01*
X326115Y290920D01*
X327354Y292536D01*
X328498Y295297D01*
X328888Y298260D01*
X328498Y301223D01*
X327354Y303984D01*
X325535Y306355D01*
X323164Y308174D01*
X320403Y309318D01*
X317440Y309708D01*
X315517Y309455D01*
X313306Y311666D01*
Y405124D01*
X314845Y406305D01*
X316664Y408676D01*
X317808Y411437D01*
X318198Y414400D01*
X317808Y417363D01*
X316664Y420124D01*
X314845Y422495D01*
X312474Y424314D01*
X309713Y425458D01*
X306750Y425848D01*
X303787Y425458D01*
X301026Y424314D01*
X298655Y422495D01*
X296836Y420124D01*
X295692Y417363D01*
X295302Y414400D01*
X295692Y411437D01*
X296836Y408676D01*
X298655Y406305D01*
X300194Y405124D01*
Y308950D01*
X300417Y307253D01*
X301072Y305672D01*
X302114Y304314D01*
X306245Y300183D01*
X305992Y298260D01*
X306382Y295297D01*
X307526Y292536D01*
X308766Y290920D01*
X308139Y289650D01*
X251700D01*
X249873Y289410D01*
X248170Y288704D01*
X246708Y287582D01*
X232333Y273208D01*
X231040Y273378D01*
X228077Y272988D01*
X225316Y271844D01*
X223466Y270425D01*
X222196Y271051D01*
Y296624D01*
X225107Y299535D01*
X227030Y299282D01*
X229993Y299672D01*
X232754Y300816D01*
X235125Y302635D01*
X236944Y305006D01*
X238088Y307767D01*
X238478Y310730D01*
X238088Y313693D01*
X236944Y316454D01*
X235125Y318825D01*
X232754Y320644D01*
X229993Y321788D01*
X227030Y322178D01*
X224067Y321788D01*
X221306Y320644D01*
X218935Y318825D01*
X217116Y316454D01*
X215972Y313693D01*
X215582Y310730D01*
X215835Y308807D01*
X211004Y303976D01*
X209962Y302618D01*
X209307Y301037D01*
X209084Y299340D01*
Y202590D01*
X209307Y200893D01*
X209962Y199312D01*
X211004Y197954D01*
X215445Y193513D01*
X215192Y191590D01*
X215582Y188627D01*
X216726Y185866D01*
X218545Y183495D01*
X220916Y181676D01*
X223677Y180532D01*
X226640Y180142D01*
X229603Y180532D01*
X232364Y181676D01*
X234735Y183495D01*
X236554Y185866D01*
X237698Y188627D01*
X238088Y191590D01*
X237698Y194553D01*
X236554Y197314D01*
X234735Y199685D01*
X232364Y201504D01*
X229603Y202648D01*
X226640Y203038D01*
X224717Y202785D01*
X222196Y205306D01*
Y235397D01*
X223399Y235805D01*
X223575Y235575D01*
X225946Y233756D01*
X228707Y232612D01*
X231670Y232222D01*
X234633Y232612D01*
X237394Y233756D01*
X239765Y235575D01*
X241584Y237946D01*
X242728Y240707D01*
X243118Y243670D01*
X242948Y244963D01*
X261814Y263830D01*
X352094D01*
X353921Y264070D01*
X355624Y264776D01*
X357086Y265898D01*
X382944Y291756D01*
X384066Y293218D01*
X384772Y294921D01*
X385012Y296748D01*
Y340004D01*
X386282Y340256D01*
X386676Y339306D01*
X388495Y336935D01*
X390866Y335116D01*
X393627Y333972D01*
X395811Y333685D01*
X408700Y320796D01*
X407860Y319839D01*
X405964Y321294D01*
X403203Y322438D01*
X400240Y322828D01*
X397277Y322438D01*
X394516Y321294D01*
X392145Y319475D01*
X390326Y317104D01*
X389182Y314343D01*
X388792Y311380D01*
X389182Y308417D01*
X390326Y305656D01*
X392145Y303285D01*
X393180Y302491D01*
Y249107D01*
X391910Y248676D01*
X391235Y249555D01*
X388864Y251374D01*
X386103Y252518D01*
X383140Y252908D01*
X380177Y252518D01*
X377416Y251374D01*
X375045Y249555D01*
X373226Y247184D01*
X372082Y244423D01*
X371692Y241460D01*
X372082Y238497D01*
X373226Y235736D01*
X375045Y233365D01*
X376080Y232571D01*
Y206270D01*
X376136Y205841D01*
X374933Y205248D01*
X366980Y213200D01*
X364906Y214586D01*
X362460Y215073D01*
X287070D01*
X284624Y214586D01*
X282550Y213200D01*
X268810Y199460D01*
X267424Y197386D01*
X266937Y194940D01*
Y184581D01*
X265235Y183275D01*
X263416Y180904D01*
X262272Y178143D01*
X261882Y175180D01*
X262272Y172217D01*
X263416Y169456D01*
X265235Y167085D01*
X267606Y165266D01*
X270367Y164122D01*
X273330Y163732D01*
X276293Y164122D01*
X279054Y165266D01*
X281425Y167085D01*
X283244Y169456D01*
X284388Y172217D01*
X284778Y175180D01*
X284534Y177035D01*
X285515Y178187D01*
X288478Y178577D01*
X291239Y179721D01*
X293610Y181540D01*
X295429Y183911D01*
X296573Y186672D01*
X296963Y189635D01*
X296817Y190742D01*
X297654Y191697D01*
X356732D01*
X372987Y175442D01*
Y112248D01*
X372930Y112198D01*
X369967Y111808D01*
X367206Y110664D01*
X364835Y108845D01*
X363016Y106474D01*
X361872Y103713D01*
X361482Y100750D01*
X361872Y97787D01*
X363016Y95026D01*
X364835Y92655D01*
X367206Y90836D01*
X368923Y90125D01*
X369076Y89554D01*
X367932Y86793D01*
X367542Y83830D01*
X367932Y80867D01*
X368168Y80296D01*
X367463Y79240D01*
X364314D01*
X358392Y85162D01*
X356930Y86285D01*
X355227Y86990D01*
X353400Y87230D01*
X172900D01*
X171073Y86990D01*
X169370Y86285D01*
X167908Y85162D01*
X155935Y73190D01*
X116040D01*
Y46190D01*
Y36790D01*
X129540D01*
Y34290D01*
X132040D01*
Y20790D01*
X155785D01*
X166008Y10568D01*
X167470Y9445D01*
X169173Y8740D01*
X171000Y8500D01*
X279560D01*
X281387Y8740D01*
X283090Y9445D01*
X284552Y10568D01*
X326764Y52780D01*
X338254D01*
X338603Y51916D01*
X338610Y51510D01*
X336433Y49839D01*
X334669Y47541D01*
X333561Y44866D01*
X333512Y44494D01*
X345778D01*
X358044D01*
X357995Y44866D01*
X356886Y47541D01*
X355123Y49839D01*
X352947Y51510D01*
X352953Y51916D01*
X353302Y52780D01*
X388038D01*
X388387Y51916D01*
X388394Y51510D01*
X386217Y49839D01*
X384454Y47541D01*
X383345Y44866D01*
X383296Y44494D01*
X395562D01*
X407828D01*
X407779Y44866D01*
X406670Y47541D01*
X404907Y49839D01*
X402730Y51510D01*
X402737Y51916D01*
X403086Y52780D01*
X417110D01*
X418937Y53020D01*
X420640Y53726D01*
X422103Y54848D01*
X443912Y76658D01*
X445034Y78120D01*
X445740Y79823D01*
X445980Y81650D01*
Y174535D01*
X447250Y174788D01*
X448146Y172626D01*
X449965Y170255D01*
X452336Y168436D01*
X455097Y167292D01*
X458060Y166902D01*
X461023Y167292D01*
X463784Y168436D01*
X466155Y170255D01*
X467974Y172626D01*
X469118Y175387D01*
X469508Y178350D01*
X469118Y181313D01*
X467974Y184074D01*
X466633Y185821D01*
Y199160D01*
X466341Y201379D01*
X465485Y203447D01*
X464122Y205222D01*
X426623Y242721D01*
Y323570D01*
X426331Y325789D01*
X425475Y327857D01*
X424112Y329632D01*
X407935Y345809D01*
X407648Y347993D01*
X406504Y350754D01*
X404685Y353125D01*
X402314Y354944D01*
X399553Y356088D01*
X396590Y356478D01*
X393627Y356088D01*
X390866Y354944D01*
X388495Y353125D01*
X386676Y350754D01*
X386282Y349804D01*
X385012Y350056D01*
Y488434D01*
X404508Y507930D01*
X409371D01*
X410165Y506895D01*
X412536Y505076D01*
X415297Y503932D01*
X418260Y503542D01*
X421223Y503932D01*
X423984Y505076D01*
X426355Y506895D01*
X428174Y509266D01*
X429318Y512027D01*
X429708Y514990D01*
X429318Y517953D01*
X428561Y519780D01*
X429410Y521050D01*
X442245D01*
X446610Y516685D01*
X446522Y516020D01*
X446912Y513057D01*
X448056Y510296D01*
X449875Y507925D01*
X452246Y506106D01*
X455007Y504962D01*
X457970Y504572D01*
X460933Y504962D01*
X463694Y506106D01*
X466065Y507925D01*
X467884Y510296D01*
X469028Y513057D01*
X469418Y516020D01*
X469028Y518983D01*
X467884Y521744D01*
X466065Y524115D01*
X463694Y525934D01*
X460933Y527078D01*
X457970Y527468D01*
X456050Y527215D01*
X450162Y533102D01*
X448700Y534225D01*
X446997Y534930D01*
X445170Y535170D01*
D02*
G37*
G36*
X265500Y546158D02*
X262537Y545768D01*
X259776Y544624D01*
X257405Y542805D01*
X255586Y540434D01*
X254442Y537673D01*
X254052Y534710D01*
X254442Y531747D01*
X255586Y528986D01*
X257405Y526615D01*
X259776Y524796D01*
X262537Y523652D01*
X265500Y523262D01*
X268463Y523652D01*
X271224Y524796D01*
X273595Y526615D01*
X274389Y527650D01*
X317535D01*
X339300Y505886D01*
Y491863D01*
X338161Y491301D01*
X337414Y491874D01*
X334653Y493018D01*
X331690Y493408D01*
X328727Y493018D01*
X325966Y491874D01*
X323595Y490055D01*
X321776Y487684D01*
X320632Y484923D01*
X320242Y481960D01*
X320632Y478997D01*
X321776Y476236D01*
X323595Y473865D01*
X324630Y473071D01*
Y362484D01*
X323920Y361940D01*
X322101Y359569D01*
X320957Y356808D01*
X320567Y353845D01*
X320957Y350882D01*
X322101Y348121D01*
X323920Y345750D01*
X325504Y344534D01*
X325346Y343094D01*
X322975Y341275D01*
X321156Y338904D01*
X320012Y336143D01*
X319622Y333180D01*
X320012Y330217D01*
X321156Y327456D01*
X322975Y325085D01*
X325346Y323266D01*
X328107Y322122D01*
X331070Y321732D01*
X334033Y322122D01*
X336794Y323266D01*
X339165Y325085D01*
X340984Y327456D01*
X342128Y330217D01*
X342518Y333180D01*
X342348Y334473D01*
X351352Y343478D01*
X352475Y344940D01*
X353180Y346643D01*
X353420Y348470D01*
Y508810D01*
X353180Y510637D01*
X352475Y512340D01*
X351352Y513802D01*
X325452Y539702D01*
X323990Y540825D01*
X322287Y541530D01*
X320460Y541770D01*
X274389D01*
X273595Y542805D01*
X271224Y544624D01*
X268463Y545768D01*
X265500Y546158D01*
D02*
G37*
G36*
X77070Y498790D02*
X27070D01*
Y458790D01*
X77070D01*
Y498790D01*
D02*
G37*
G36*
X73660Y385647D02*
X70524Y385339D01*
X67507Y384424D01*
X64728Y382938D01*
X62291Y380938D01*
X60292Y378502D01*
X58806Y375723D01*
X57892Y372706D01*
X57583Y369570D01*
X57892Y366433D01*
X58806Y363417D01*
X60292Y360638D01*
X62291Y358201D01*
X64728Y356202D01*
X67507Y354716D01*
X70524Y353801D01*
X73660Y353493D01*
X76796Y353801D01*
X79813Y354716D01*
X82592Y356202D01*
X85028Y358201D01*
X87028Y360638D01*
X88514Y363417D01*
X89429Y366433D01*
X89737Y369570D01*
X89429Y372706D01*
X88514Y375723D01*
X87028Y378502D01*
X85028Y380938D01*
X82592Y382938D01*
X79813Y384424D01*
X76796Y385339D01*
X73660Y385647D01*
D02*
G37*
G36*
X115690Y367188D02*
X112727Y366798D01*
X109966Y365654D01*
X107595Y363835D01*
X105776Y361464D01*
X104632Y358703D01*
X104242Y355740D01*
X104412Y354447D01*
X96348Y346382D01*
X95225Y344920D01*
X94520Y343217D01*
X94280Y341390D01*
Y192889D01*
X93245Y192095D01*
X91426Y189724D01*
X90282Y186963D01*
X89892Y184000D01*
X90282Y181037D01*
X91426Y178276D01*
X93245Y175905D01*
X95616Y174086D01*
X98377Y172942D01*
X101340Y172552D01*
X104303Y172942D01*
X107064Y174086D01*
X109435Y175905D01*
X111254Y178276D01*
X112398Y181037D01*
X112788Y184000D01*
X112398Y186963D01*
X111254Y189724D01*
X109435Y192095D01*
X108400Y192889D01*
Y338465D01*
X114397Y344462D01*
X115690Y344292D01*
X118653Y344682D01*
X121414Y345826D01*
X123785Y347645D01*
X125604Y350016D01*
X126748Y352777D01*
X127138Y355740D01*
X126748Y358703D01*
X125604Y361464D01*
X123785Y363835D01*
X121414Y365654D01*
X118653Y366798D01*
X115690Y367188D01*
D02*
G37*
G36*
X407828Y39494D02*
X398062D01*
Y31031D01*
X399934Y31277D01*
X402609Y32385D01*
X404907Y34149D01*
X406670Y36447D01*
X407779Y39122D01*
X407828Y39494D01*
D02*
G37*
G36*
X358044D02*
X348278D01*
Y31031D01*
X350150Y31277D01*
X352826Y32385D01*
X355123Y34149D01*
X356886Y36447D01*
X357995Y39122D01*
X358044Y39494D01*
D02*
G37*
G36*
X393062D02*
X383296D01*
X383345Y39122D01*
X384454Y36447D01*
X386217Y34149D01*
X388515Y32385D01*
X391190Y31277D01*
X393062Y31031D01*
Y39494D01*
D02*
G37*
G36*
X343278D02*
X333512D01*
X333561Y39122D01*
X334669Y36447D01*
X336433Y34149D01*
X338731Y32385D01*
X341406Y31277D01*
X343278Y31031D01*
Y39494D01*
D02*
G37*
G36*
X127040Y31790D02*
X116040D01*
Y20790D01*
X127040D01*
Y31790D01*
D02*
G37*
G36*
X408222Y27336D02*
Y17570D01*
X416685D01*
X416439Y19442D01*
X415331Y22118D01*
X413567Y24415D01*
X411269Y26179D01*
X408594Y27287D01*
X408222Y27336D01*
D02*
G37*
G36*
X403222D02*
X402850Y27287D01*
X400175Y26179D01*
X397877Y24415D01*
X396114Y22118D01*
X395005Y19442D01*
X394759Y17570D01*
X403222D01*
Y27336D01*
D02*
G37*
G36*
X338118D02*
Y17570D01*
X346581D01*
X346335Y19442D01*
X345227Y22118D01*
X343463Y24415D01*
X341165Y26179D01*
X338490Y27287D01*
X338118Y27336D01*
D02*
G37*
G36*
X333118D02*
X332746Y27287D01*
X330071Y26179D01*
X327773Y24415D01*
X326009Y22118D01*
X324901Y19442D01*
X324655Y17570D01*
X333118D01*
Y27336D01*
D02*
G37*
%LPD*%
G36*
X400370Y202242D02*
X401663Y202412D01*
X418430Y185646D01*
Y124090D01*
X417970Y123934D01*
X417160Y123776D01*
X414894Y125514D01*
X412133Y126658D01*
X409170Y127048D01*
X408965Y127021D01*
X408010Y127858D01*
Y188460D01*
X407770Y190287D01*
X407065Y191990D01*
X405942Y193452D01*
X398140Y201255D01*
X398733Y202458D01*
X400370Y202242D01*
D02*
G37*
G36*
X397892Y116893D02*
X397722Y115600D01*
X398112Y112637D01*
X399256Y109876D01*
X401075Y107505D01*
X403446Y105686D01*
X406207Y104542D01*
X409170Y104152D01*
X412133Y104542D01*
X414894Y105686D01*
X417160Y107424D01*
X417970Y107266D01*
X418430Y107110D01*
Y89104D01*
X408565Y79240D01*
X390517D01*
X389812Y80296D01*
X390048Y80867D01*
X390438Y83830D01*
X390158Y85957D01*
X393000Y88800D01*
X394386Y90874D01*
X394873Y93320D01*
Y118380D01*
X396143Y118642D01*
X397892Y116893D01*
D02*
G37*
G36*
X355415Y68170D02*
X354889Y66900D01*
X323840D01*
X322013Y66660D01*
X320310Y65954D01*
X318848Y64833D01*
X276635Y22620D01*
X244640D01*
Y46190D01*
Y73110D01*
X350476D01*
X355415Y68170D01*
D02*
G37*
D31*
X154940Y59690D02*
Y62210D01*
X172900Y80170D01*
X258890Y270890D02*
X352094D01*
X377952Y296748D01*
Y491358D01*
X401584Y514990D01*
X418260D01*
X394350Y528110D02*
X445170D01*
X343530Y282590D02*
X366590Y305650D01*
Y500350D01*
X394350Y528110D01*
X251700Y282590D02*
X343530D01*
X231040Y261930D02*
X251700Y282590D01*
X445170Y528110D02*
X457260Y516020D01*
X457970D01*
X400950Y123820D02*
X409170Y115600D01*
X400950Y123820D02*
Y188460D01*
X383140Y206270D02*
X400950Y188460D01*
X383140Y206270D02*
Y241460D01*
X400370Y213690D02*
X425490Y188570D01*
X400240Y235860D02*
Y311380D01*
Y235860D02*
X438920Y197180D01*
X265500Y534710D02*
X320460D01*
X331360Y354500D02*
X332015Y353845D01*
X331360Y354500D02*
X331690Y354830D01*
Y481960D01*
X320460Y534710D02*
X346360Y508810D01*
X331070Y333180D02*
X346360Y348470D01*
Y508810D01*
X101340Y184000D02*
Y341390D01*
X115690Y355740D01*
X154940Y31620D02*
X171000Y15560D01*
X411490Y72180D02*
X425490Y86180D01*
Y188570D01*
X438920Y81650D02*
Y197180D01*
X417110Y59840D02*
X438920Y81650D01*
X171000Y15560D02*
X279560D01*
X323840Y59840D01*
X417110D01*
X231670Y243670D02*
X258890Y270890D01*
X172900Y80170D02*
X353400D01*
X361390Y72180D01*
X411490D01*
D32*
X396590Y345030D02*
X418050Y323570D01*
Y239170D02*
Y323570D01*
Y239170D02*
X458060Y199160D01*
Y178350D02*
Y199160D01*
D33*
X285515Y189635D02*
X293970Y198090D01*
X378990Y83830D02*
X388480Y93320D01*
Y182660D01*
X362460Y208680D02*
X388480Y182660D01*
X273330Y175180D02*
Y194940D01*
X287070Y208680D01*
X362460D01*
X372930Y100750D02*
X379380Y107200D01*
X293970Y198090D02*
X359380D01*
X379380Y178090D01*
Y107200D02*
Y178090D01*
X154940Y31620D02*
Y34290D01*
D34*
X306750Y308950D02*
Y414400D01*
Y308950D02*
X317440Y298260D01*
X215640Y202590D02*
X226640Y191590D01*
X215640Y202590D02*
Y299340D01*
X227030Y310730D01*
D35*
X154940Y59690D02*
D03*
Y34290D02*
D03*
X205740D02*
D03*
Y59690D02*
D03*
X180340Y34290D02*
D03*
Y59690D02*
D03*
X231140D02*
D03*
Y34290D02*
D03*
X129540D02*
D03*
Y59690D02*
D03*
D36*
X22860Y394970D02*
D03*
Y344170D02*
D03*
X73660Y369570D02*
D03*
D37*
X52070Y478790D02*
D03*
D38*
Y528790D02*
D03*
D39*
X28000Y594180D02*
D03*
X472400D02*
D03*
X28000Y28000D02*
D03*
X472400D02*
D03*
D40*
X335618Y15070D02*
D03*
X405722D02*
D03*
D41*
X345778Y41994D02*
D03*
X395562D02*
D03*
D42*
X120380Y124040D02*
D03*
X97210D02*
D03*
X74040D02*
D03*
X50870D02*
D03*
X372930Y100750D02*
D03*
X378990Y83830D02*
D03*
X285515Y189635D02*
D03*
X273330Y175180D02*
D03*
X231040Y261930D02*
D03*
X231670Y243670D02*
D03*
X400370Y213690D02*
D03*
X400240Y311380D02*
D03*
X418260Y514990D02*
D03*
X457970Y516020D02*
D03*
X383140Y241460D02*
D03*
X409170Y115600D02*
D03*
X458060Y178350D02*
D03*
X396590Y345030D02*
D03*
X265500Y534710D02*
D03*
X332015Y353845D02*
D03*
X331690Y481960D02*
D03*
X331070Y333180D02*
D03*
X101340Y184000D02*
D03*
X115690Y355740D02*
D03*
X317440Y298260D02*
D03*
X306750Y414400D02*
D03*
X227030Y310730D02*
D03*
X226640Y191590D02*
D03*
X180030Y372010D02*
D03*
X198425D02*
D03*
X216820D02*
D03*
X78110Y288600D02*
D03*
Y267000D02*
D03*
X477130Y285670D02*
D03*
Y257260D02*
D03*
Y228850D02*
D03*
X417770Y395150D02*
D03*
X187110Y141910D02*
D03*
X206480D02*
D03*
X247120Y142230D02*
D03*
X227750D02*
D03*
X268180D02*
D03*
X256340Y308190D02*
D03*
X280540D02*
D03*
X459410Y380860D02*
D03*
X230970Y215490D02*
D03*
X248710D02*
D03*
X280670Y247410D02*
D03*
M02*
