G04 Layer_Color=65535*
%FSLAX44Y44*%
%MOMM*%
G71*
G01*
G75*
%ADD33C,0.2540*%
%ADD43C,0.2500*%
%ADD44C,0.1999*%
%ADD45C,0.1000*%
%ADD46C,0.3048*%
%ADD47C,0.2000*%
%ADD48C,0.5000*%
%ADD49C,0.1270*%
%ADD50C,0.0406*%
%ADD51C,0.0508*%
D33*
X78590Y2490D02*
X157840D01*
X202840D02*
X282090D01*
X78590Y91490D02*
X282090D01*
X157840Y14990D02*
X202840D01*
X91090Y78990D02*
X269590D01*
X202840Y14990D02*
X269590D01*
X91090D02*
X157840D01*
Y2490D02*
Y14990D01*
X202840Y2490D02*
Y14990D01*
X157840Y2490D02*
X202840D01*
X91090Y14990D02*
Y78990D01*
X78590Y2490D02*
Y91490D01*
X269590Y14990D02*
Y78990D01*
X282090Y2490D02*
Y91490D01*
X10160Y407670D02*
X86360D01*
Y331470D02*
Y407670D01*
X10160Y331470D02*
X86360D01*
X10160D02*
Y407670D01*
X12070Y453190D02*
X92070D01*
Y554390D01*
X12070D02*
X92070D01*
X12070Y453190D02*
Y554390D01*
X22070Y453190D02*
Y554390D01*
X236230Y619700D02*
X396230D01*
Y379700D02*
Y619700D01*
X236230Y379700D02*
Y619700D01*
Y379700D02*
X396230D01*
X335110Y25230D02*
Y43010D01*
X327490Y25230D02*
X335110Y25230D01*
X327490Y4910D02*
X327490Y25230D01*
X327490Y4910D02*
X335110D01*
X335110Y-7790D01*
X406230Y-7790D01*
X406230Y4910D02*
X406230Y-7790D01*
X406230Y4910D02*
X413850Y4910D01*
X413850Y25230D01*
X406230D02*
X413850D01*
X406230D02*
Y43010D01*
X335110D02*
X406230D01*
D43*
X14890Y256300D02*
G03*
X14890Y256300I-1250J0D01*
G01*
X110790Y145970D02*
G03*
X110790Y145970I-1250J0D01*
G01*
X100090Y377850D02*
G03*
X100090Y377850I-1250J0D01*
G01*
X116830Y473420D02*
G03*
X116830Y473420I-1250J0D01*
G01*
X204810Y182660D02*
G03*
X204810Y182660I-1250J0D01*
G01*
Y245920D02*
G03*
X204810Y245920I-1250J0D01*
G01*
X415640Y301850D02*
G03*
X415640Y301850I-1250J0D01*
G01*
Y204060D02*
G03*
X415640Y204060I-1250J0D01*
G01*
D44*
X266670Y214410D02*
G03*
X266670Y214410I-1001J0D01*
G01*
D45*
X359120Y228558D02*
Y236558D01*
X343120Y228558D02*
X359120D01*
X343120Y236558D02*
X359120D01*
X343120Y228558D02*
Y236558D01*
X359120Y244770D02*
Y252770D01*
X343120Y244770D02*
X359120D01*
X343120Y252770D02*
X359120D01*
X343120Y244770D02*
Y252770D01*
X320660Y194890D02*
Y202890D01*
X304660Y194890D02*
X320660D01*
X304660Y202890D02*
X320660D01*
X304660Y194890D02*
Y202890D01*
X320660Y175070D02*
Y183070D01*
X304660Y175070D02*
X320660D01*
X304660Y183070D02*
X320660D01*
X304660Y175070D02*
Y183070D01*
X190120Y390970D02*
Y398970D01*
X206120D01*
X190120Y390970D02*
X206120D01*
Y398970D01*
X42290Y290370D02*
Y298370D01*
X26290Y290370D02*
X42290D01*
X26290Y298370D02*
X42290D01*
X26290Y290370D02*
Y298370D01*
X42290Y270320D02*
Y278320D01*
X26290Y270320D02*
X42290D01*
X26290Y278320D02*
X42290D01*
X26290Y270320D02*
Y278320D01*
X306620Y118490D02*
X338620D01*
X306620Y102490D02*
X338620D01*
Y118490D01*
X306620Y102490D02*
Y118490D01*
X236230Y557700D02*
X396230D01*
X129350Y187070D02*
X137350D01*
Y171070D02*
Y187070D01*
X129350Y171070D02*
Y187070D01*
Y171070D02*
X137350D01*
X202430Y524320D02*
Y532320D01*
X186430Y524320D02*
X202430D01*
X186430Y532320D02*
X202430D01*
X186430Y524320D02*
Y532320D01*
D46*
X12700Y232410D02*
Y250190D01*
D47*
X22140Y226300D02*
X59140D01*
X22140Y256300D02*
X59140D01*
Y226300D02*
Y226800D01*
X22140D02*
X35640D01*
X59140Y255800D02*
Y256300D01*
X22140Y255800D02*
X35640D01*
X310020Y68070D02*
Y86870D01*
X308120Y67970D02*
X342120D01*
X313920D02*
Y86970D01*
X311920Y67970D02*
Y86970D01*
X342120Y67970D02*
Y70970D01*
X308120Y67970D02*
Y70970D01*
X342120Y83970D02*
Y86970D01*
X308120Y70670D02*
Y86970D01*
X342120D01*
X86040Y212570D02*
X91040D01*
Y145570D02*
Y212570D01*
X86040Y145570D02*
X91040D01*
X123840Y394350D02*
X131840D01*
Y389350D02*
Y394350D01*
X101840D02*
X109840D01*
X101840Y389350D02*
Y394350D01*
X115470Y338220D02*
X117470D01*
X115470Y327220D02*
X117470D01*
X117080Y479920D02*
Y525920D01*
X147080Y479920D02*
Y525920D01*
X192316Y500090D02*
X194316D01*
X192316Y511090D02*
X194316D01*
X187060Y207660D02*
Y215660D01*
X192060D01*
X187060Y185660D02*
Y193660D01*
Y185660D02*
X192060D01*
X187060Y270920D02*
Y278920D01*
X192060D01*
X187060Y248920D02*
Y256920D01*
Y248920D02*
X192060D01*
X193310Y290410D02*
X195310D01*
X193310Y301410D02*
X195310D01*
X193310Y226670D02*
X195310D01*
X193310Y237670D02*
X195310D01*
X446040Y415710D02*
X448040D01*
X446040Y404710D02*
X448040D01*
X446040Y463970D02*
X448040D01*
X446040Y452970D02*
X448040D01*
X192316Y473990D02*
X194316D01*
X192316Y484990D02*
X194316D01*
X446040Y439840D02*
X448040D01*
X446040Y428840D02*
X448040D01*
X446040Y529170D02*
X448040D01*
X446040Y540170D02*
X448040D01*
X426990Y339940D02*
X428990D01*
X426990Y350940D02*
X428990D01*
X420890Y295650D02*
X428890D01*
X420890D02*
Y303350D01*
Y326650D02*
X428890D01*
X420890Y318950D02*
Y326650D01*
Y197860D02*
X428890D01*
X420890D02*
Y205560D01*
Y228860D02*
X428890D01*
X420890Y221160D02*
Y228860D01*
X426990Y271360D02*
X428990D01*
X426990Y282360D02*
X428990D01*
X426990Y243420D02*
X428990D01*
X426990Y254420D02*
X428990D01*
X426990Y172300D02*
X428990D01*
X426990Y183300D02*
X428990D01*
X344959Y289458D02*
X343293Y291124D01*
X339960D01*
X338294Y289458D01*
Y282794D01*
X339960Y281128D01*
X343293D01*
X344959Y282794D01*
X348291Y281128D02*
X351623D01*
X349957D01*
Y291124D01*
X348291Y289458D01*
X356622Y281128D02*
X359954D01*
X358288D01*
Y291124D01*
X356622Y289458D01*
X344959Y273202D02*
X343293Y274869D01*
X339960D01*
X338294Y273202D01*
Y266538D01*
X339960Y264872D01*
X343293D01*
X344959Y266538D01*
X348291Y264872D02*
X351623D01*
X349957D01*
Y274869D01*
X348291Y273202D01*
X356622D02*
X358288Y274869D01*
X361620D01*
X363286Y273202D01*
Y266538D01*
X361620Y264872D01*
X358288D01*
X356622Y266538D01*
Y273202D01*
X165215Y397871D02*
X163548Y399537D01*
X160216D01*
X158550Y397871D01*
Y391206D01*
X160216Y389540D01*
X163548D01*
X165215Y391206D01*
X168547D02*
X170213Y389540D01*
X173545D01*
X175211Y391206D01*
Y397871D01*
X173545Y399537D01*
X170213D01*
X168547Y397871D01*
Y396204D01*
X170213Y394538D01*
X175211D01*
X342314Y182311D02*
X340648Y183977D01*
X337316D01*
X335650Y182311D01*
Y175646D01*
X337316Y173980D01*
X340648D01*
X342314Y175646D01*
X345647Y182311D02*
X347313Y183977D01*
X350645D01*
X352311Y182311D01*
Y180644D01*
X350645Y178978D01*
X352311Y177312D01*
Y175646D01*
X350645Y173980D01*
X347313D01*
X345647Y175646D01*
Y177312D01*
X347313Y178978D01*
X345647Y180644D01*
Y182311D01*
X347313Y178978D02*
X350645D01*
X342314Y203131D02*
X340648Y204797D01*
X337316D01*
X335650Y203131D01*
Y196466D01*
X337316Y194800D01*
X340648D01*
X342314Y196466D01*
X345647Y203131D02*
X347313Y204797D01*
X350645D01*
X352311Y203131D01*
Y201465D01*
X350645Y199798D01*
X348979D01*
X350645D01*
X352311Y198132D01*
Y196466D01*
X350645Y194800D01*
X347313D01*
X345647Y196466D01*
X79475Y246891D02*
X77808Y248557D01*
X74476D01*
X72810Y246891D01*
Y240226D01*
X74476Y238560D01*
X77808D01*
X79475Y240226D01*
X82807Y248557D02*
X89471D01*
Y246891D01*
X82807Y240226D01*
Y238560D01*
X61465Y298151D02*
X59798Y299817D01*
X56466D01*
X54800Y298151D01*
Y291486D01*
X56466Y289820D01*
X59798D01*
X61465Y291486D01*
X71461Y299817D02*
X64797D01*
Y294818D01*
X68129Y296485D01*
X69795D01*
X71461Y294818D01*
Y291486D01*
X69795Y289820D01*
X66463D01*
X64797Y291486D01*
X61465Y278061D02*
X59798Y279727D01*
X56466D01*
X54800Y278061D01*
Y271396D01*
X56466Y269730D01*
X59798D01*
X61465Y271396D01*
X71461Y269730D02*
X64797D01*
X71461Y276395D01*
Y278061D01*
X69795Y279727D01*
X66463D01*
X64797Y278061D01*
X183995Y461871D02*
X182328Y463537D01*
X178996D01*
X177330Y461871D01*
Y455206D01*
X178996Y453540D01*
X182328D01*
X183995Y455206D01*
X187327Y453540D02*
X190659D01*
X188993D01*
Y463537D01*
X187327Y461871D01*
X136355Y154491D02*
X134688Y156157D01*
X131356D01*
X129690Y154491D01*
Y147826D01*
X131356Y146160D01*
X134688D01*
X136355Y147826D01*
X144685Y146160D02*
Y156157D01*
X139687Y151158D01*
X146351D01*
X321665Y113741D02*
X319999Y115407D01*
X316666D01*
X315000Y113741D01*
Y107076D01*
X316666Y105410D01*
X319999D01*
X321665Y107076D01*
X331661Y115407D02*
X328329Y113741D01*
X324997Y110408D01*
Y107076D01*
X326663Y105410D01*
X329995D01*
X331661Y107076D01*
Y108742D01*
X329995Y110408D01*
X324997D01*
X320040Y82387D02*
Y72390D01*
X325038D01*
X326704Y74056D01*
Y80721D01*
X325038Y82387D01*
X320040D01*
X330037Y72390D02*
X333369D01*
X331703D01*
Y82387D01*
X330037Y80721D01*
X124460Y507837D02*
Y497840D01*
X129458D01*
X131124Y499506D01*
Y506171D01*
X129458Y507837D01*
X124460D01*
X141121Y497840D02*
X134457D01*
X141121Y504505D01*
Y506171D01*
X139455Y507837D01*
X136123D01*
X134457Y506171D01*
X12700Y138267D02*
X16032D01*
X14366D01*
Y128270D01*
X12700D01*
X16032D01*
X27695Y136601D02*
X26029Y138267D01*
X22697D01*
X21031Y136601D01*
Y129936D01*
X22697Y128270D01*
X26029D01*
X27695Y129936D01*
X31027Y128270D02*
X34360D01*
X32694D01*
Y138267D01*
X31027Y136601D01*
X13970Y445287D02*
Y435290D01*
X20635D01*
X30631Y443621D02*
X28965Y445287D01*
X25633D01*
X23967Y443621D01*
Y441954D01*
X25633Y440288D01*
X28965D01*
X30631Y438622D01*
Y436956D01*
X28965Y435290D01*
X25633D01*
X23967Y436956D01*
X33964Y435290D02*
X37296D01*
X35630D01*
Y445287D01*
X33964Y443621D01*
X52070Y80010D02*
Y90007D01*
X57068D01*
X58734Y88341D01*
Y85008D01*
X57068Y83342D01*
X52070D01*
X68731Y80010D02*
X62067D01*
X68731Y86674D01*
Y88341D01*
X67065Y90007D01*
X63733D01*
X62067Y88341D01*
X115885Y413146D02*
Y419811D01*
X114218Y421477D01*
X110886D01*
X109220Y419811D01*
Y413146D01*
X110886Y411480D01*
X114218D01*
X112552Y414812D02*
X115885Y411480D01*
X114218D02*
X115885Y413146D01*
X119217Y411480D02*
X122549D01*
X120883D01*
Y421477D01*
X119217Y419811D01*
X224855Y260506D02*
Y267171D01*
X223188Y268837D01*
X219856D01*
X218190Y267171D01*
Y260506D01*
X219856Y258840D01*
X223188D01*
X221522Y262173D02*
X224855Y258840D01*
X223188D02*
X224855Y260506D01*
X234851Y258840D02*
X228187D01*
X234851Y265505D01*
Y267171D01*
X233185Y268837D01*
X229853D01*
X228187Y267171D01*
X224855Y198516D02*
Y205181D01*
X223188Y206847D01*
X219856D01*
X218190Y205181D01*
Y198516D01*
X219856Y196850D01*
X223188D01*
X221522Y200182D02*
X224855Y196850D01*
X223188D02*
X224855Y198516D01*
X228187Y205181D02*
X229853Y206847D01*
X233185D01*
X234851Y205181D01*
Y203514D01*
X233185Y201848D01*
X231519D01*
X233185D01*
X234851Y200182D01*
Y198516D01*
X233185Y196850D01*
X229853D01*
X228187Y198516D01*
X460135Y208676D02*
Y215341D01*
X458468Y217007D01*
X455136D01*
X453470Y215341D01*
Y208676D01*
X455136Y207010D01*
X458468D01*
X456802Y210342D02*
X460135Y207010D01*
X458468D02*
X460135Y208676D01*
X468465Y207010D02*
Y217007D01*
X463467Y212008D01*
X470131D01*
X460135Y308216D02*
Y314881D01*
X458468Y316547D01*
X455136D01*
X453470Y314881D01*
Y308216D01*
X455136Y306550D01*
X458468D01*
X456802Y309882D02*
X460135Y306550D01*
X458468D02*
X460135Y308216D01*
X470131Y316547D02*
X463467D01*
Y311548D01*
X466799Y313214D01*
X468465D01*
X470131Y311548D01*
Y308216D01*
X468465Y306550D01*
X465133D01*
X463467Y308216D01*
X472960Y452700D02*
Y462697D01*
X477958D01*
X479624Y461031D01*
Y457698D01*
X477958Y456032D01*
X472960D01*
X476292D02*
X479624Y452700D01*
X482957D02*
X486289D01*
X484623D01*
Y462697D01*
X482957Y461031D01*
X472960Y429840D02*
Y439837D01*
X477958D01*
X479624Y438171D01*
Y434838D01*
X477958Y433172D01*
X472960D01*
X476292D02*
X479624Y429840D01*
X489621D02*
X482957D01*
X489621Y436505D01*
Y438171D01*
X487955Y439837D01*
X484623D01*
X482957Y438171D01*
X177330Y415730D02*
Y425727D01*
X182328D01*
X183995Y424061D01*
Y420728D01*
X182328Y419062D01*
X177330D01*
X180662D02*
X183995Y415730D01*
X187327Y424061D02*
X188993Y425727D01*
X192325D01*
X193991Y424061D01*
Y422394D01*
X192325Y420728D01*
X190659D01*
X192325D01*
X193991Y419062D01*
Y417396D01*
X192325Y415730D01*
X188993D01*
X187327Y417396D01*
X177330Y434540D02*
Y444537D01*
X182328D01*
X183995Y442871D01*
Y439538D01*
X182328Y437872D01*
X177330D01*
X180662D02*
X183995Y434540D01*
X192325D02*
Y444537D01*
X187327Y439538D01*
X193991D01*
X472960Y406980D02*
Y416977D01*
X477958D01*
X479624Y415311D01*
Y411978D01*
X477958Y410312D01*
X472960D01*
X476292D02*
X479624Y406980D01*
X489621Y416977D02*
X482957D01*
Y411978D01*
X486289Y413644D01*
X487955D01*
X489621Y411978D01*
Y408646D01*
X487955Y406980D01*
X484623D01*
X482957Y408646D01*
X107830Y308590D02*
Y318587D01*
X112828D01*
X114494Y316921D01*
Y313588D01*
X112828Y311922D01*
X107830D01*
X111162D02*
X114494Y308590D01*
X124491Y318587D02*
X121159Y316921D01*
X117827Y313588D01*
Y310256D01*
X119493Y308590D01*
X122825D01*
X124491Y310256D01*
Y311922D01*
X122825Y313588D01*
X117827D01*
X429300Y548980D02*
Y558977D01*
X434298D01*
X435965Y557311D01*
Y553978D01*
X434298Y552312D01*
X429300D01*
X432632D02*
X435965Y548980D01*
X439297Y558977D02*
X445961D01*
Y557311D01*
X439297Y550646D01*
Y548980D01*
X218190Y228360D02*
Y238357D01*
X223188D01*
X224855Y236691D01*
Y233359D01*
X223188Y231693D01*
X218190D01*
X221522D02*
X224855Y228360D01*
X228187Y236691D02*
X229853Y238357D01*
X233185D01*
X234851Y236691D01*
Y235025D01*
X233185Y233359D01*
X234851Y231693D01*
Y230026D01*
X233185Y228360D01*
X229853D01*
X228187Y230026D01*
Y231693D01*
X229853Y233359D01*
X228187Y235025D01*
Y236691D01*
X229853Y233359D02*
X233185D01*
X218190Y292100D02*
Y302097D01*
X223188D01*
X224855Y300431D01*
Y297098D01*
X223188Y295432D01*
X218190D01*
X221522D02*
X224855Y292100D01*
X228187Y293766D02*
X229853Y292100D01*
X233185D01*
X234851Y293766D01*
Y300431D01*
X233185Y302097D01*
X229853D01*
X228187Y300431D01*
Y298764D01*
X229853Y297098D01*
X234851D01*
X453470Y244840D02*
Y254837D01*
X458468D01*
X460135Y253171D01*
Y249838D01*
X458468Y248172D01*
X453470D01*
X456802D02*
X460135Y244840D01*
X463467D02*
X466799D01*
X465133D01*
Y254837D01*
X463467Y253171D01*
X471797D02*
X473464Y254837D01*
X476796D01*
X478462Y253171D01*
Y246506D01*
X476796Y244840D01*
X473464D01*
X471797Y246506D01*
Y253171D01*
X453470Y171450D02*
Y181447D01*
X458468D01*
X460135Y179781D01*
Y176448D01*
X458468Y174782D01*
X453470D01*
X456802D02*
X460135Y171450D01*
X463467D02*
X466799D01*
X465133D01*
Y181447D01*
X463467Y179781D01*
X471797Y171450D02*
X475130D01*
X473464D01*
Y181447D01*
X471797Y179781D01*
X453470Y272650D02*
Y282647D01*
X458468D01*
X460135Y280981D01*
Y277648D01*
X458468Y275982D01*
X453470D01*
X456802D02*
X460135Y272650D01*
X463467D02*
X466799D01*
X465133D01*
Y282647D01*
X463467Y280981D01*
X478462Y272650D02*
X471797D01*
X478462Y279314D01*
Y280981D01*
X476796Y282647D01*
X473464D01*
X471797Y280981D01*
X453470Y340840D02*
Y350837D01*
X458468D01*
X460135Y349171D01*
Y345838D01*
X458468Y344172D01*
X453470D01*
X456802D02*
X460135Y340840D01*
X463467D02*
X466799D01*
X465133D01*
Y350837D01*
X463467Y349171D01*
X471797D02*
X473464Y350837D01*
X476796D01*
X478462Y349171D01*
Y347505D01*
X476796Y345838D01*
X475130D01*
X476796D01*
X478462Y344172D01*
Y342506D01*
X476796Y340840D01*
X473464D01*
X471797Y342506D01*
X382270Y366867D02*
Y358536D01*
X383936Y356870D01*
X387268D01*
X388935Y358536D01*
Y366867D01*
X392267Y356870D02*
X395599D01*
X393933D01*
Y366867D01*
X392267Y365201D01*
X251460Y294237D02*
Y285906D01*
X253126Y284240D01*
X256458D01*
X258125Y285906D01*
Y294237D01*
X268121Y284240D02*
X261457D01*
X268121Y290905D01*
Y292571D01*
X266455Y294237D01*
X263123D01*
X261457Y292571D01*
X12700Y323687D02*
Y317022D01*
X16032Y313690D01*
X19365Y317022D01*
Y323687D01*
X22697Y313690D02*
Y323687D01*
X27695D01*
X29361Y322021D01*
Y318688D01*
X27695Y317022D01*
X22697D01*
X26029D02*
X29361Y313690D01*
X32694D02*
X36026D01*
X34360D01*
Y323687D01*
X32694Y322021D01*
X305020Y4010D02*
Y14007D01*
X310018D01*
X311684Y12341D01*
Y9008D01*
X310018Y7342D01*
X305020D01*
X315017Y4010D02*
X318349D01*
X316683D01*
Y14007D01*
X315017Y12341D01*
D48*
X254000Y568960D02*
Y603250D01*
X269240D01*
Y568960D02*
Y603250D01*
Y568960D02*
X284480D01*
X299720D02*
X314960D01*
X299720D02*
Y603250D01*
X284480D02*
X299720D01*
X284480Y568960D02*
Y603250D01*
X330200Y568960D02*
X345440D01*
X330200D02*
Y603250D01*
X314960D02*
X330200D01*
X314960Y568960D02*
Y603250D01*
X345440D02*
X378460D01*
X345440Y568960D02*
Y603250D01*
D49*
X299669Y222409D02*
X305671D01*
Y228411D01*
Y266409D02*
Y272411D01*
X299669D02*
X305671D01*
X255669D02*
X261671D01*
X255669Y266409D02*
Y272411D01*
Y222409D02*
Y228411D01*
Y222409D02*
X261671D01*
D50*
X404904Y122689D02*
X468303D01*
X404092Y122282D02*
X468303D01*
X403279Y121876D02*
X468303D01*
X402466Y121470D02*
X468303D01*
X402060Y121063D02*
X467896D01*
X401653Y120657D02*
X467896D01*
X401247Y120250D02*
X415877D01*
X423192D02*
X441887D01*
X459768D02*
X460581D01*
X461800D02*
X462207D01*
X462613D02*
X463426D01*
X464645D02*
X467490D01*
X401247Y119844D02*
X404904D01*
X464645D02*
X467490D01*
X400840Y119438D02*
X404498D01*
X464239D02*
X467490D01*
X400840Y119031D02*
X403685D01*
X464239D02*
X467084D01*
X400434Y118625D02*
X403685D01*
X407343D02*
X407749D01*
X408156D02*
X408968D01*
X438636D02*
X439042D01*
X460175D02*
X460581D01*
X464239D02*
X467084D01*
X400434Y118218D02*
X403279D01*
X406936D02*
X427256D01*
X438229D02*
X460988D01*
X463832D02*
X466677D01*
X400028Y117812D02*
X403279D01*
X406124D02*
X427663D01*
X437010D02*
X461394D01*
X463832D02*
X466677D01*
X400028Y117406D02*
X402872D01*
X405717D02*
X427663D01*
X437010D02*
X461394D01*
X463832D02*
X466677D01*
X399621Y116999D02*
X402872D01*
X405311D02*
X427663D01*
X436197D02*
X461394D01*
X463426D02*
X466271D01*
X399621Y116593D02*
X402872D01*
X405311D02*
X427256D01*
X435384D02*
X460988D01*
X463426D02*
X466271D01*
X399621Y116186D02*
X402466D01*
X404904D02*
X427256D01*
X434978D02*
X460988D01*
X463426D02*
X466271D01*
X399621Y115780D02*
X402466D01*
X404904D02*
X427256D01*
X434165D02*
X460988D01*
X463020D02*
X466271D01*
X399215Y115374D02*
X402466D01*
X404498D02*
X426850D01*
X433352D02*
X460581D01*
X463020D02*
X465864D01*
X399215Y114967D02*
X402060D01*
X404498D02*
X426850D01*
X432946D02*
X460581D01*
X463020D02*
X465864D01*
X399215Y114561D02*
X402060D01*
X404498D02*
X426850D01*
X432133D02*
X460175D01*
X462613D02*
X465864D01*
X398808Y114154D02*
X402060D01*
X404092D02*
X426444D01*
X431727D02*
X460175D01*
X462613D02*
X465458D01*
X398808Y113748D02*
X401653D01*
X404092D02*
X426444D01*
X430914D02*
X460175D01*
X462207D02*
X465458D01*
X398808Y113342D02*
X401653D01*
X403685D02*
X426037D01*
X430508D02*
X459768D01*
X462207D02*
X465052D01*
X398402Y112935D02*
X401653D01*
X403685D02*
X426037D01*
X429695D02*
X459768D01*
X462207D02*
X465052D01*
X398402Y112529D02*
X401247D01*
X403685D02*
X426037D01*
X428882D02*
X459768D01*
X461800D02*
X465052D01*
X398402Y112122D02*
X401247D01*
X403279D02*
X425631D01*
X428476D02*
X459362D01*
X461800D02*
X465052D01*
X397996Y111716D02*
X401247D01*
X403279D02*
X425631D01*
X427256D02*
X459362D01*
X461800D02*
X464645D01*
X397996Y111310D02*
X400840D01*
X402872D02*
X425224D01*
X426850D02*
X458956D01*
X461394D02*
X464645D01*
X397996Y110903D02*
X400840D01*
X402872D02*
X425224D01*
X426037D02*
X458956D01*
X461394D02*
X464239D01*
X397589Y110497D02*
X400840D01*
X402872D02*
X425224D01*
X425631D02*
X458956D01*
X461394D02*
X464239D01*
X397589Y110090D02*
X400434D01*
X402872D02*
X458549D01*
X460988D02*
X464239D01*
X397589Y109684D02*
X400434D01*
X402872D02*
X424412D01*
X425631D02*
X458143D01*
X460988D02*
X463832D01*
X397183Y109278D02*
X400434D01*
X410594D02*
X419941D01*
X460988D02*
X463832D01*
X397183Y108871D02*
X400028D01*
X410594D02*
X419941D01*
X424818D02*
X425224D01*
X460581D02*
X463832D01*
X397183Y108465D02*
X400028D01*
X410188D02*
X419535D01*
X424005D02*
X432133D01*
X442293D02*
X444325D01*
X449608D02*
X457736D01*
X460581D02*
X463832D01*
X396776Y108058D02*
X400028D01*
X410188D02*
X419535D01*
X423599D02*
X432133D01*
X440668D02*
X446357D01*
X449202D02*
X457736D01*
X460581D02*
X463426D01*
X396776Y107652D02*
X399621D01*
X410188D02*
X419535D01*
X423192D02*
X432133D01*
X439042D02*
X447170D01*
X448796D02*
X457736D01*
X460175D02*
X463426D01*
X396370Y107246D02*
X399621D01*
X409781D02*
X419128D01*
X423192D02*
X432133D01*
X438229D02*
X447983D01*
X448796D02*
X457736D01*
X460175D02*
X463020D01*
X396370Y106839D02*
X399215D01*
X409781D02*
X419128D01*
X423192D02*
X431727D01*
X437416D02*
X457736D01*
X460175D02*
X463020D01*
X396370Y106433D02*
X399215D01*
X409781D02*
X418722D01*
X422786D02*
X431727D01*
X437010D02*
X457330D01*
X459768D02*
X463020D01*
X396370Y106026D02*
X399215D01*
X409375D02*
X418722D01*
X422786D02*
X431727D01*
X436604D02*
X457330D01*
X459768D02*
X462613D01*
X395964Y105620D02*
X399215D01*
X409375D02*
X418722D01*
X422380D02*
X431727D01*
X435791D02*
X456924D01*
X459768D02*
X462613D01*
X395964Y105214D02*
X398808D01*
X409375D02*
X418316D01*
X422380D02*
X431320D01*
X435384D02*
X456924D01*
X459362D02*
X462207D01*
X395557Y104807D02*
X398808D01*
X408968D02*
X418316D01*
X422380D02*
X431320D01*
X434978D02*
X444325D01*
X446357D02*
X456924D01*
X459362D02*
X462207D01*
X395557Y104401D02*
X398808D01*
X408968D02*
X418316D01*
X421973D02*
X430914D01*
X434978D02*
X443919D01*
X446764D02*
X456517D01*
X458956D02*
X462207D01*
X395557Y103994D02*
X398402D01*
X408968D02*
X417909D01*
X421973D02*
X430914D01*
X434572D02*
X443512D01*
X446764D02*
X456517D01*
X458956D02*
X461800D01*
X395557Y103588D02*
X398808D01*
X408562D02*
X417909D01*
X421973D02*
X430914D01*
X434165D02*
X443512D01*
X446764D02*
X456517D01*
X458956D02*
X461800D01*
X395151Y103182D02*
X398402D01*
X408562D02*
X417503D01*
X421567D02*
X430508D01*
X433759D02*
X443512D01*
X447170D02*
X456111D01*
X458549D02*
X461394D01*
X395151Y102775D02*
X397996D01*
X408562D02*
X417503D01*
X421567D02*
X430508D01*
X433759D02*
X443512D01*
X447170D02*
X456111D01*
X458549D02*
X461394D01*
X394744Y102369D02*
X397996D01*
X408156D02*
X417503D01*
X421567D02*
X430508D01*
X433352D02*
X443106D01*
X447170D02*
X456111D01*
X458549D02*
X461394D01*
X394744Y101962D02*
X397996D01*
X408156D02*
X417096D01*
X421160D02*
X430101D01*
X433352D02*
X443106D01*
X447170D02*
X455704D01*
X458143D02*
X461394D01*
X394744Y101556D02*
X397589D01*
X407749D02*
X417096D01*
X421160D02*
X430101D01*
X432946D02*
X442700D01*
X446764D02*
X455704D01*
X458143D02*
X460988D01*
X394338Y101150D02*
X397589D01*
X407749D02*
X417096D01*
X421160D02*
X430101D01*
X432946D02*
X442700D01*
X446764D02*
X455298D01*
X458143D02*
X460988D01*
X394338Y100743D02*
X397589D01*
X407749D02*
X416690D01*
X420754D02*
X429695D01*
X432946D02*
X442293D01*
X446764D02*
X455298D01*
X457736D02*
X460988D01*
X394338Y100337D02*
X397183D01*
X407343D02*
X416690D01*
X420754D02*
X429695D01*
X432540D02*
X442293D01*
X446357D02*
X455298D01*
X457736D02*
X460581D01*
X393932Y99930D02*
X397183D01*
X407343D02*
X416284D01*
X420754D02*
X429288D01*
X432540D02*
X442293D01*
X446357D02*
X455298D01*
X457736D02*
X460581D01*
X393932Y99524D02*
X397183D01*
X407343D02*
X416284D01*
X420348D02*
X429288D01*
X432540D02*
X442293D01*
X446357D02*
X454892D01*
X457330D02*
X460581D01*
X393932Y99118D02*
X396776D01*
X406936D02*
X416284D01*
X420348D02*
X429288D01*
X432133D02*
X441887D01*
X445951D02*
X454892D01*
X457330D02*
X460175D01*
X393525Y98711D02*
X396776D01*
X406936D02*
X415877D01*
X419941D02*
X428882D01*
X432133D02*
X441887D01*
X445951D02*
X454485D01*
X457330D02*
X460175D01*
X393525Y98305D02*
X396776D01*
X406936D02*
X415877D01*
X419941D02*
X428882D01*
X432133D02*
X441480D01*
X445544D02*
X454485D01*
X456924D02*
X460175D01*
X393119Y97898D02*
X396370D01*
X406530D02*
X415877D01*
X419941D02*
X428476D01*
X432133D02*
X441480D01*
X445544D02*
X454485D01*
X456924D02*
X459768D01*
X393119Y97492D02*
X396370D01*
X406530D02*
X415471D01*
X419535D02*
X428476D01*
X432133D02*
X441480D01*
X445544D02*
X454079D01*
X456517D02*
X459768D01*
X393119Y97086D02*
X395964D01*
X406124D02*
X415471D01*
X419535D02*
X428476D01*
X432133D02*
X441480D01*
X445138D02*
X454079D01*
X456517D02*
X459768D01*
X393119Y96679D02*
X395964D01*
X406124D02*
X415471D01*
X419128D02*
X428069D01*
X432133D02*
X441074D01*
X445138D02*
X453672D01*
X456517D02*
X459362D01*
X392712Y96273D02*
X395964D01*
X406124D02*
X415064D01*
X419128D02*
X428069D01*
X432133D02*
X441074D01*
X445138D02*
X453672D01*
X456111D02*
X459362D01*
X392712Y95866D02*
X395557D01*
X405717D02*
X415064D01*
X419128D02*
X428069D01*
X432540D02*
X441480D01*
X444732D02*
X453672D01*
X456111D02*
X458956D01*
X392306Y95460D02*
X395557D01*
X405717D02*
X415064D01*
X418722D02*
X427663D01*
X432540D02*
X441480D01*
X444325D02*
X453266D01*
X456111D02*
X458956D01*
X392306Y95054D02*
X395557D01*
X405717D02*
X414658D01*
X418722D02*
X427663D01*
X432540D02*
X442293D01*
X443919D02*
X453266D01*
X455704D02*
X458956D01*
X392306Y94647D02*
X395151D01*
X405311D02*
X414658D01*
X418722D02*
X427663D01*
X432946D02*
X453266D01*
X455704D02*
X458549D01*
X392306Y94241D02*
X395151D01*
X405311D02*
X414658D01*
X418316D02*
X427256D01*
X432946D02*
X452860D01*
X455704D02*
X458549D01*
X391900Y93834D02*
X395151D01*
X405311D02*
X414252D01*
X418316D02*
X427256D01*
X433352D02*
X452860D01*
X455298D02*
X458549D01*
X391900Y93428D02*
X394744D01*
X404904D02*
X414252D01*
X418316D02*
X427256D01*
X433352D02*
X452860D01*
X455298D02*
X458143D01*
X391900Y93022D02*
X394744D01*
X404904D02*
X413845D01*
X417909D02*
X426850D01*
X433759D02*
X452453D01*
X455298D02*
X458143D01*
X391493Y92615D02*
X394338D01*
X404498D02*
X413845D01*
X417909D02*
X426444D01*
X434165D02*
X452047D01*
X454892D02*
X457736D01*
X391493Y92209D02*
X394338D01*
X404498D02*
X413439D01*
X417503D02*
X426037D01*
X434572D02*
X452047D01*
X454892D02*
X457736D01*
X391087Y91802D02*
X394338D01*
X404498D02*
X413032D01*
X417503D02*
X426037D01*
X434978D02*
X451234D01*
X454892D02*
X457736D01*
X391087Y91396D02*
X393932D01*
X404092D02*
X412626D01*
X417503D02*
X425224D01*
X435384D02*
X450828D01*
X454485D02*
X457736D01*
X391087Y90990D02*
X393932D01*
X404092D02*
X411813D01*
X417096D02*
X424412D01*
X436197D02*
X442293D01*
X442700D02*
X450015D01*
X454485D02*
X457330D01*
X390680Y90583D02*
X393932D01*
X404498D02*
X409781D01*
X417503D02*
X423192D01*
X437416D02*
X440668D01*
X443106D02*
X448389D01*
X454485D02*
X457330D01*
X390680Y90177D02*
X393932D01*
X454079D02*
X456924D01*
X390680Y89770D02*
X393525D01*
X454079D02*
X456924D01*
X390274Y89364D02*
X393525D01*
X395151D02*
X450421D01*
X454079D02*
X456924D01*
X390274Y88958D02*
X393119D01*
X395151D02*
X450828D01*
X453672D02*
X456924D01*
X390274Y88551D02*
X393119D01*
X394744D02*
X450828D01*
X453672D02*
X456517D01*
X389868Y88145D02*
X392712D01*
X394744D02*
X450828D01*
X453266D02*
X456517D01*
X389868Y87738D02*
X392712D01*
X394338D02*
X450421D01*
X453266D02*
X456111D01*
X389868Y87332D02*
X392712D01*
X394338D02*
X450421D01*
X453266D02*
X456111D01*
X389461Y86926D02*
X392306D01*
X394338D02*
X450421D01*
X453266D02*
X456111D01*
X389461Y86519D02*
X392306D01*
X393932D02*
X450015D01*
X452860D02*
X455704D01*
X389461Y86113D02*
X392306D01*
X393932D02*
X450015D01*
X452860D02*
X455704D01*
X389055Y85706D02*
X391900D01*
X393932D02*
X449608D01*
X452453D02*
X455298D01*
X389055Y85300D02*
X391900D01*
X393525D02*
X449608D01*
X452453D02*
X455298D01*
X388648Y84894D02*
X391900D01*
X393525D02*
X449608D01*
X452453D02*
X455298D01*
X388648Y84487D02*
X391493D01*
X393119D02*
X449202D01*
X452047D02*
X455298D01*
X388648Y84081D02*
X391493D01*
X393119D02*
X449202D01*
X452047D02*
X454892D01*
X388242Y83674D02*
X391493D01*
X393119D02*
X448796D01*
X452047D02*
X454892D01*
X388242Y83268D02*
X391087D01*
X392712D02*
X448796D01*
X451640D02*
X454892D01*
X388242Y82862D02*
X391087D01*
X392712D02*
X448389D01*
X451640D02*
X454485D01*
X388242Y82455D02*
X391087D01*
X392712D02*
X448389D01*
X451640D02*
X454485D01*
X387836Y82049D02*
X390680D01*
X392306D02*
X447983D01*
X451234D02*
X454485D01*
X387836Y81642D02*
X390680D01*
X392306D02*
X447576D01*
X451234D02*
X454079D01*
X387429Y81236D02*
X390680D01*
X392306D02*
X446764D01*
X450828D02*
X454079D01*
X387429Y80830D02*
X390274D01*
X392306D02*
X445544D01*
X450828D02*
X453672D01*
X387429Y80423D02*
X390274D01*
X392306D02*
X443512D01*
X450828D02*
X453672D01*
X387023Y80017D02*
X390274D01*
X450421D02*
X453672D01*
X387023Y79610D02*
X389868D01*
X450015D02*
X453266D01*
X387023Y79204D02*
X389868D01*
X449608D02*
X453266D01*
X386616Y78798D02*
X389868D01*
X448389D02*
X452860D01*
X386616Y78391D02*
X452453D01*
X386616Y77985D02*
X452047D01*
X386210Y77578D02*
X451640D01*
X386210Y77172D02*
X451234D01*
X386210Y76766D02*
X450828D01*
X386210Y76359D02*
X450015D01*
X386210Y75953D02*
X449202D01*
D51*
X329205Y592D02*
X412135Y592D01*
M02*
