M48
;Layer_Color=9474304
;FILE_FORMAT=4:4
METRIC,LZ
;TYPE=PLATED
T3F00S00C0.7112
T4F00S00C1.1000
T5F00S00C1.2000
T6F00S00C1.4000
;TYPE=NON_PLATED
T7F00S00C3.0000
%
T03
X0005087Y0012404
X0007404
X0009721
X0012038
X0018711Y0014191
X0020648
X0022775Y0014223
X0024712
X0026818
X0037293Y0010075
X0037899Y0008383
X0040917Y001156
X0040037Y0021369
X0038314Y0024146
X0040024Y0031138
X0039659Y0034503
X0041777Y0039515
X0045941Y0038086
X0047713Y0028567
Y0025726
Y0022885
X0045806Y0017835
X00285515Y00189635
X0027333Y0017518
X0022664Y0019159
X0023097Y0021549
X0024871
X0023167Y0024367
X0023104Y0026193
X0022703Y0031073
X0025634Y0030819
X0028054
X0031744Y0029826
X0033107Y0033318
X00332015Y00353845
X0030675Y004144
X0033169Y0048196
X002655Y0053471
X0041826Y0051499
X0045797Y0051602
X0021682Y0037201
X00198425
X0018003
X0028067Y0024741
X0007811Y00267
Y002886
X0011569Y0035574
X0010134Y00184
T04
X0012954Y0003429
Y0005969
X0015494
Y0003429
X0018034
X0020574
Y0005969
X0018034
X0023114
Y0003429
T05
X0002286Y0034417
Y0039497
X0007366Y0036957
T06
X0005207Y0047879
Y0052879
T07
X00028Y00028
X004724
X00028Y0059418
X004724
M30
