G04 Layer_Color=255*
%FSLAX44Y44*%
%MOMM*%
G71*
G01*
G75*
G04:AMPARAMS|DCode=10|XSize=1.651mm|YSize=1.5494mm|CornerRadius=0.1549mm|HoleSize=0mm|Usage=FLASHONLY|Rotation=0.000|XOffset=0mm|YOffset=0mm|HoleType=Round|Shape=RoundedRectangle|*
%AMROUNDEDRECTD10*
21,1,1.6510,1.2395,0,0,0.0*
21,1,1.3411,1.5494,0,0,0.0*
1,1,0.3099,0.6706,-0.6198*
1,1,0.3099,-0.6706,-0.6198*
1,1,0.3099,-0.6706,0.6198*
1,1,0.3099,0.6706,0.6198*
%
%ADD10ROUNDEDRECTD10*%
G04:AMPARAMS|DCode=11|XSize=1.524mm|YSize=1.016mm|CornerRadius=0.4064mm|HoleSize=0mm|Usage=FLASHONLY|Rotation=0.000|XOffset=0mm|YOffset=0mm|HoleType=Round|Shape=RoundedRectangle|*
%AMROUNDEDRECTD11*
21,1,1.5240,0.2032,0,0,0.0*
21,1,0.7112,1.0160,0,0,0.0*
1,1,0.8128,0.3556,-0.1016*
1,1,0.8128,-0.3556,-0.1016*
1,1,0.8128,-0.3556,0.1016*
1,1,0.8128,0.3556,0.1016*
%
%ADD11ROUNDEDRECTD11*%
G04:AMPARAMS|DCode=12|XSize=0.4064mm|YSize=1.3462mm|CornerRadius=0.0203mm|HoleSize=0mm|Usage=FLASHONLY|Rotation=0.000|XOffset=0mm|YOffset=0mm|HoleType=Round|Shape=RoundedRectangle|*
%AMROUNDEDRECTD12*
21,1,0.4064,1.3056,0,0,0.0*
21,1,0.3658,1.3462,0,0,0.0*
1,1,0.0406,0.1829,-0.6528*
1,1,0.0406,-0.1829,-0.6528*
1,1,0.0406,-0.1829,0.6528*
1,1,0.0406,0.1829,0.6528*
%
%ADD12ROUNDEDRECTD12*%
G04:AMPARAMS|DCode=13|XSize=1.524mm|YSize=1.524mm|CornerRadius=0.0762mm|HoleSize=0mm|Usage=FLASHONLY|Rotation=0.000|XOffset=0mm|YOffset=0mm|HoleType=Round|Shape=RoundedRectangle|*
%AMROUNDEDRECTD13*
21,1,1.5240,1.3716,0,0,0.0*
21,1,1.3716,1.5240,0,0,0.0*
1,1,0.1524,0.6858,-0.6858*
1,1,0.1524,-0.6858,-0.6858*
1,1,0.1524,-0.6858,0.6858*
1,1,0.1524,0.6858,0.6858*
%
%ADD13ROUNDEDRECTD13*%
%ADD14R,1.3500X1.3000*%
%ADD15R,0.7600X0.7600*%
G04:AMPARAMS|DCode=16|XSize=0.2601mm|YSize=0.97mm|CornerRadius=0.065mm|HoleSize=0mm|Usage=FLASHONLY|Rotation=0.000|XOffset=0mm|YOffset=0mm|HoleType=Round|Shape=RoundedRectangle|*
%AMROUNDEDRECTD16*
21,1,0.2601,0.8400,0,0,0.0*
21,1,0.1301,0.9700,0,0,0.0*
1,1,0.1301,0.0650,-0.4200*
1,1,0.1301,-0.0650,-0.4200*
1,1,0.1301,-0.0650,0.4200*
1,1,0.1301,0.0650,0.4200*
%
%ADD16ROUNDEDRECTD16*%
G04:AMPARAMS|DCode=17|XSize=0.2601mm|YSize=0.97mm|CornerRadius=0.065mm|HoleSize=0mm|Usage=FLASHONLY|Rotation=90.000|XOffset=0mm|YOffset=0mm|HoleType=Round|Shape=RoundedRectangle|*
%AMROUNDEDRECTD17*
21,1,0.2601,0.8400,0,0,90.0*
21,1,0.1301,0.9700,0,0,90.0*
1,1,0.1301,0.4200,0.0650*
1,1,0.1301,0.4200,-0.0650*
1,1,0.1301,-0.4200,-0.0650*
1,1,0.1301,-0.4200,0.0650*
%
%ADD17ROUNDEDRECTD17*%
%ADD18R,3.1501X3.1501*%
%ADD19R,1.5000X0.6000*%
%ADD20R,1.0800X1.0500*%
%ADD21R,1.0500X1.0800*%
%ADD22R,1.1000X1.8000*%
%ADD23R,2.6000X1.1000*%
%ADD24R,2.1500X1.3000*%
%ADD25R,0.6000X1.5000*%
%ADD26R,1.9000X0.9500*%
%ADD27R,6.9000X6.8000*%
%ADD28R,1.0000X1.9000*%
%ADD29R,1.2000X0.7000*%
%ADD30R,2.0000X2.2000*%
%ADD35O,1.5000X1.2000*%
%ADD36O,1.2000X1.5000*%
%ADD37C,3.0000*%
%ADD38O,4.0000X3.0000*%
%ADD39R,4.0000X3.0000*%
%ADD40C,2.2000*%
%ADD41R,1.7000X1.7000*%
D10*
X337650Y15070D02*
D03*
X403690Y15070D02*
D03*
D11*
X345778Y41994D02*
D03*
X395562Y41994D02*
D03*
D12*
X357462Y41994D02*
D03*
X364066Y41994D02*
D03*
X370670Y41994D02*
D03*
X377274D02*
D03*
X383878Y41994D02*
D03*
D13*
X360510Y15070D02*
D03*
X380830D02*
D03*
D14*
X417240Y177800D02*
D03*
X438740D02*
D03*
X417240Y248920D02*
D03*
X438740D02*
D03*
X417240Y276860D02*
D03*
X438740D02*
D03*
X417240Y345440D02*
D03*
X438740D02*
D03*
X436290Y534670D02*
D03*
X457790D02*
D03*
Y434340D02*
D03*
X436290D02*
D03*
X182566Y479490D02*
D03*
X204066D02*
D03*
X457790Y458470D02*
D03*
X436290D02*
D03*
X457790Y410210D02*
D03*
X436290D02*
D03*
X183560Y232170D02*
D03*
X205060D02*
D03*
X183560Y295910D02*
D03*
X205060D02*
D03*
X182566Y505590D02*
D03*
X204066D02*
D03*
X127220Y332720D02*
D03*
X105720D02*
D03*
D15*
X416540Y213360D02*
D03*
X439440Y222860D02*
D03*
Y203860D02*
D03*
X416540Y311150D02*
D03*
X439440Y320650D02*
D03*
Y301650D02*
D03*
D16*
X265669Y223710D02*
D03*
X270670D02*
D03*
X275669D02*
D03*
X280670D02*
D03*
X285671D02*
D03*
X290670D02*
D03*
X295671D02*
D03*
Y271111D02*
D03*
X290670D02*
D03*
X285671D02*
D03*
X280670D02*
D03*
X275669D02*
D03*
X270670D02*
D03*
X265669D02*
D03*
D17*
X304371Y232409D02*
D03*
Y237410D02*
D03*
Y242409D02*
D03*
Y247410D02*
D03*
Y252411D02*
D03*
Y257410D02*
D03*
Y262411D02*
D03*
X256969D02*
D03*
Y257410D02*
D03*
Y252411D02*
D03*
Y247410D02*
D03*
Y242409D02*
D03*
Y237410D02*
D03*
Y232409D02*
D03*
D18*
X280670Y247410D02*
D03*
D19*
X203560Y254420D02*
D03*
Y273420D02*
D03*
X184560Y263920D02*
D03*
X203560Y191160D02*
D03*
Y210160D02*
D03*
X184560Y200660D02*
D03*
D20*
X185780Y528320D02*
D03*
X203080D02*
D03*
X25640Y274320D02*
D03*
X42941D02*
D03*
X25640Y294370D02*
D03*
X42940D02*
D03*
X206770Y394970D02*
D03*
X189470D02*
D03*
X304010Y179070D02*
D03*
X321310D02*
D03*
X304010Y198890D02*
D03*
X321310D02*
D03*
X342470Y248770D02*
D03*
X359770D02*
D03*
X342470Y232558D02*
D03*
X359770D02*
D03*
D21*
X133350Y170420D02*
D03*
Y187720D02*
D03*
D22*
X366230Y379700D02*
D03*
X346230Y379700D02*
D03*
X326230D02*
D03*
X306230Y379700D02*
D03*
X286230Y379700D02*
D03*
X266230D02*
D03*
D23*
X392230Y534700D02*
D03*
Y514700D02*
D03*
Y494700D02*
D03*
Y474700D02*
D03*
Y454700D02*
D03*
Y434700D02*
D03*
Y414700D02*
D03*
Y394700D02*
D03*
X240230Y394700D02*
D03*
X240230Y414700D02*
D03*
Y434700D02*
D03*
Y454700D02*
D03*
Y474700D02*
D03*
Y494700D02*
D03*
Y514700D02*
D03*
Y534700D02*
D03*
D24*
X132080Y522820D02*
D03*
Y483020D02*
D03*
D25*
X107340Y377850D02*
D03*
X126340D02*
D03*
X116840Y396850D02*
D03*
D26*
X109540Y156220D02*
D03*
Y201920D02*
D03*
D27*
X47540Y179070D02*
D03*
D28*
X339621Y110490D02*
D03*
X305620D02*
D03*
D29*
X306620Y77470D02*
D03*
X343620D02*
D03*
D30*
X25640Y241300D02*
D03*
X55640D02*
D03*
D35*
X395562Y41994D02*
D03*
X345778D02*
D03*
D36*
X405722Y15070D02*
D03*
X335618D02*
D03*
D37*
X472400Y28000D02*
D03*
X28000D02*
D03*
X472400Y594180D02*
D03*
X28000D02*
D03*
D38*
X52070Y528790D02*
D03*
D39*
Y478790D02*
D03*
D40*
X73660Y369570D02*
D03*
X22860Y344170D02*
D03*
Y394970D02*
D03*
D41*
X129540Y59690D02*
D03*
Y34290D02*
D03*
X231140D02*
D03*
Y59690D02*
D03*
X180340D02*
D03*
Y34290D02*
D03*
X205740Y59690D02*
D03*
Y34290D02*
D03*
X154940D02*
D03*
Y59690D02*
D03*
M02*
