G04 Layer_Color=16711935*
%FSLAX44Y44*%
%MOMM*%
G71*
G01*
G75*
%ADD33C,0.2540*%
G36*
X479110Y50119D02*
X483296Y48385D01*
X487063Y45867D01*
X490267Y42663D01*
X492785Y38896D01*
X494519Y34710D01*
X495403Y30266D01*
Y28000D01*
Y25734D01*
X494519Y21290D01*
X492785Y17104D01*
X490267Y13337D01*
X487063Y10133D01*
X483296Y7615D01*
X479110Y5881D01*
X474665Y4997D01*
X470134D01*
X465690Y5881D01*
X461504Y7615D01*
X457737Y10133D01*
X454533Y13337D01*
X452015Y17104D01*
X450281Y21290D01*
X449397Y25734D01*
Y28000D01*
Y30266D01*
X450281Y34710D01*
X452015Y38896D01*
X454533Y42663D01*
X457737Y45867D01*
X461504Y48385D01*
X465690Y50119D01*
X470134Y51003D01*
X474665D01*
X479110Y50119D01*
D02*
G37*
G36*
X34710D02*
X38896Y48385D01*
X42663Y45867D01*
X45867Y42663D01*
X48385Y38896D01*
X50119Y34710D01*
X51003Y30266D01*
Y28000D01*
Y25734D01*
X50119Y21290D01*
X48385Y17104D01*
X45867Y13337D01*
X42663Y10133D01*
X38896Y7615D01*
X34710Y5881D01*
X30266Y4997D01*
X25734D01*
X21290Y5881D01*
X17104Y7615D01*
X13337Y10133D01*
X10133Y13337D01*
X7615Y17104D01*
X5881Y21290D01*
X4997Y25734D01*
Y28000D01*
Y30266D01*
X5881Y34710D01*
X7615Y38896D01*
X10133Y42663D01*
X13337Y45867D01*
X17104Y48385D01*
X21290Y50119D01*
X25734Y51003D01*
X30266D01*
X34710Y50119D01*
D02*
G37*
G36*
X479110Y616299D02*
X483296Y614565D01*
X487063Y612047D01*
X490267Y608843D01*
X492785Y605076D01*
X494519Y600890D01*
X495403Y596446D01*
Y594180D01*
Y591914D01*
X494519Y587470D01*
X492785Y583284D01*
X490267Y579517D01*
X487063Y576313D01*
X483296Y573795D01*
X479110Y572061D01*
X474665Y571177D01*
X470134D01*
X465690Y572061D01*
X461504Y573795D01*
X457737Y576313D01*
X454533Y579517D01*
X452015Y583284D01*
X450281Y587470D01*
X449397Y591914D01*
Y594180D01*
Y596446D01*
X450281Y600890D01*
X452015Y605076D01*
X454533Y608843D01*
X457737Y612047D01*
X461504Y614565D01*
X465690Y616299D01*
X470134Y617183D01*
X474665D01*
X479110Y616299D01*
D02*
G37*
G36*
X34710D02*
X38896Y614565D01*
X42663Y612047D01*
X45867Y608843D01*
X48385Y605076D01*
X50119Y600890D01*
X51003Y596446D01*
Y594180D01*
Y591914D01*
X50119Y587470D01*
X48385Y583284D01*
X45867Y579517D01*
X42663Y576313D01*
X38896Y573795D01*
X34710Y572061D01*
X30266Y571177D01*
X25734D01*
X21290Y572061D01*
X17104Y573795D01*
X13337Y576313D01*
X10133Y579517D01*
X7615Y583284D01*
X5881Y587470D01*
X4997Y591914D01*
Y594180D01*
Y596446D01*
X5881Y600890D01*
X7615Y605076D01*
X10133Y608843D01*
X13337Y612047D01*
X17104Y614565D01*
X21290Y616299D01*
X25734Y617183D01*
X30266D01*
X34710Y616299D01*
D02*
G37*
D33*
X25000Y622180D02*
G03*
X0Y597180I0J-25000D01*
G01*
X500400Y597180D02*
G03*
X475400Y622180I-25000J0D01*
G01*
X475400Y0D02*
G03*
X500400Y25000I0J25000D01*
G01*
X0D02*
G03*
X25000Y0I25000J0D01*
G01*
Y622180D02*
X475400D01*
X25000Y0D02*
X475400D01*
X500400Y25000D02*
Y597180D01*
X0Y25000D02*
Y597180D01*
M02*
