G04 Layer_Color=8421504*
%FSLAX44Y44*%
%MOMM*%
G71*
G01*
G75*
%ADD10R,1.0800X1.0500*%
%ADD11R,2.0000X2.2000*%
%ADD12R,1.2000X0.7000*%
%ADD13R,1.0000X1.9000*%
%ADD14R,6.9000X6.8000*%
%ADD15R,1.9000X0.9500*%
%ADD16R,0.6000X1.5000*%
%ADD17R,1.3500X1.3000*%
%ADD18R,2.1500X1.3000*%
%ADD19R,2.6000X1.1000*%
%ADD20R,1.1000X1.8000*%
%ADD21R,1.0500X1.0800*%
%ADD22R,1.5000X0.6000*%
%ADD23R,3.1501X3.1501*%
G04:AMPARAMS|DCode=24|XSize=0.2601mm|YSize=0.97mm|CornerRadius=0.065mm|HoleSize=0mm|Usage=FLASHONLY|Rotation=90.000|XOffset=0mm|YOffset=0mm|HoleType=Round|Shape=RoundedRectangle|*
%AMROUNDEDRECTD24*
21,1,0.2601,0.8400,0,0,90.0*
21,1,0.1301,0.9700,0,0,90.0*
1,1,0.1301,0.4200,0.0650*
1,1,0.1301,0.4200,-0.0650*
1,1,0.1301,-0.4200,-0.0650*
1,1,0.1301,-0.4200,0.0650*
%
%ADD24ROUNDEDRECTD24*%
G04:AMPARAMS|DCode=25|XSize=0.2601mm|YSize=0.97mm|CornerRadius=0.065mm|HoleSize=0mm|Usage=FLASHONLY|Rotation=0.000|XOffset=0mm|YOffset=0mm|HoleType=Round|Shape=RoundedRectangle|*
%AMROUNDEDRECTD25*
21,1,0.2601,0.8400,0,0,0.0*
21,1,0.1301,0.9700,0,0,0.0*
1,1,0.1301,0.0650,-0.4200*
1,1,0.1301,-0.0650,-0.4200*
1,1,0.1301,-0.0650,0.4200*
1,1,0.1301,0.0650,0.4200*
%
%ADD25ROUNDEDRECTD25*%
%ADD26R,0.7600X0.7600*%
G04:AMPARAMS|DCode=27|XSize=1.524mm|YSize=1.524mm|CornerRadius=0.0762mm|HoleSize=0mm|Usage=FLASHONLY|Rotation=0.000|XOffset=0mm|YOffset=0mm|HoleType=Round|Shape=RoundedRectangle|*
%AMROUNDEDRECTD27*
21,1,1.5240,1.3716,0,0,0.0*
21,1,1.3716,1.5240,0,0,0.0*
1,1,0.1524,0.6858,-0.6858*
1,1,0.1524,-0.6858,-0.6858*
1,1,0.1524,-0.6858,0.6858*
1,1,0.1524,0.6858,0.6858*
%
%ADD27ROUNDEDRECTD27*%
G04:AMPARAMS|DCode=28|XSize=0.4064mm|YSize=1.3462mm|CornerRadius=0.0203mm|HoleSize=0mm|Usage=FLASHONLY|Rotation=0.000|XOffset=0mm|YOffset=0mm|HoleType=Round|Shape=RoundedRectangle|*
%AMROUNDEDRECTD28*
21,1,0.4064,1.3056,0,0,0.0*
21,1,0.3658,1.3462,0,0,0.0*
1,1,0.0406,0.1829,-0.6528*
1,1,0.0406,-0.1829,-0.6528*
1,1,0.0406,-0.1829,0.6528*
1,1,0.0406,0.1829,0.6528*
%
%ADD28ROUNDEDRECTD28*%
G04:AMPARAMS|DCode=29|XSize=1.524mm|YSize=1.016mm|CornerRadius=0.4064mm|HoleSize=0mm|Usage=FLASHONLY|Rotation=0.000|XOffset=0mm|YOffset=0mm|HoleType=Round|Shape=RoundedRectangle|*
%AMROUNDEDRECTD29*
21,1,1.5240,0.2032,0,0,0.0*
21,1,0.7112,1.0160,0,0,0.0*
1,1,0.8128,0.3556,-0.1016*
1,1,0.8128,-0.3556,-0.1016*
1,1,0.8128,-0.3556,0.1016*
1,1,0.8128,0.3556,0.1016*
%
%ADD29ROUNDEDRECTD29*%
G04:AMPARAMS|DCode=30|XSize=1.651mm|YSize=1.5494mm|CornerRadius=0.1549mm|HoleSize=0mm|Usage=FLASHONLY|Rotation=0.000|XOffset=0mm|YOffset=0mm|HoleType=Round|Shape=RoundedRectangle|*
%AMROUNDEDRECTD30*
21,1,1.6510,1.2395,0,0,0.0*
21,1,1.3411,1.5494,0,0,0.0*
1,1,0.3099,0.6706,-0.6198*
1,1,0.3099,-0.6706,-0.6198*
1,1,0.3099,-0.6706,0.6198*
1,1,0.3099,0.6706,0.6198*
%
%ADD30ROUNDEDRECTD30*%
%ADD49C,0.1270*%
%ADD52R,1.9799X1.9799*%
D10*
X359770Y232558D02*
D03*
X342470D02*
D03*
X359770Y248770D02*
D03*
X342470D02*
D03*
X321310Y198890D02*
D03*
X304010D02*
D03*
X321310Y179070D02*
D03*
X304010D02*
D03*
X189470Y394970D02*
D03*
X206770D02*
D03*
X42940Y294370D02*
D03*
X25640D02*
D03*
X42941Y274320D02*
D03*
X25640D02*
D03*
X203080Y528320D02*
D03*
X185780D02*
D03*
D11*
X55640Y241300D02*
D03*
X25640D02*
D03*
D12*
X343620Y77470D02*
D03*
X306620D02*
D03*
D13*
X305620Y110490D02*
D03*
X339621D02*
D03*
D14*
X47540Y179070D02*
D03*
D15*
X109540Y201920D02*
D03*
Y156220D02*
D03*
D16*
X116840Y396850D02*
D03*
X126340Y377850D02*
D03*
X107340D02*
D03*
D17*
X105720Y332720D02*
D03*
X127220D02*
D03*
X204066Y505590D02*
D03*
X182566D02*
D03*
X205060Y295910D02*
D03*
X183560D02*
D03*
X205060Y232170D02*
D03*
X183560D02*
D03*
X436290Y410210D02*
D03*
X457790D02*
D03*
X436290Y458470D02*
D03*
X457790D02*
D03*
X204066Y479490D02*
D03*
X182566D02*
D03*
X436290Y434340D02*
D03*
X457790D02*
D03*
Y534670D02*
D03*
X436290D02*
D03*
X438740Y345440D02*
D03*
X417240D02*
D03*
X438740Y276860D02*
D03*
X417240D02*
D03*
X438740Y248920D02*
D03*
X417240D02*
D03*
X438740Y177800D02*
D03*
X417240D02*
D03*
D18*
X132080Y483020D02*
D03*
Y522820D02*
D03*
D19*
X240230Y534700D02*
D03*
Y514700D02*
D03*
Y494700D02*
D03*
Y474700D02*
D03*
Y454700D02*
D03*
Y434700D02*
D03*
Y414700D02*
D03*
X240230Y394700D02*
D03*
X392230Y394700D02*
D03*
Y414700D02*
D03*
Y434700D02*
D03*
Y454700D02*
D03*
Y474700D02*
D03*
Y494700D02*
D03*
Y514700D02*
D03*
Y534700D02*
D03*
D20*
X266230Y379700D02*
D03*
X286230D02*
D03*
X306230Y379700D02*
D03*
X326230Y379700D02*
D03*
X346230D02*
D03*
X366230Y379700D02*
D03*
D21*
X133350Y187720D02*
D03*
Y170420D02*
D03*
D22*
X184560Y200660D02*
D03*
X203560Y210160D02*
D03*
Y191160D02*
D03*
X184560Y263920D02*
D03*
X203560Y273420D02*
D03*
Y254420D02*
D03*
D23*
X280670Y247410D02*
D03*
D24*
X256969Y232409D02*
D03*
Y237410D02*
D03*
Y242409D02*
D03*
Y247410D02*
D03*
Y252411D02*
D03*
Y257410D02*
D03*
Y262411D02*
D03*
X304371D02*
D03*
Y257410D02*
D03*
Y252411D02*
D03*
Y247410D02*
D03*
Y242409D02*
D03*
Y237410D02*
D03*
Y232409D02*
D03*
D25*
X265669Y271111D02*
D03*
X270670D02*
D03*
X275669D02*
D03*
X280670D02*
D03*
X285671D02*
D03*
X290670D02*
D03*
X295671D02*
D03*
Y223710D02*
D03*
X290670D02*
D03*
X285671D02*
D03*
X280670D02*
D03*
X275669D02*
D03*
X270670D02*
D03*
X265669D02*
D03*
D26*
X439440Y301650D02*
D03*
Y320650D02*
D03*
X416540Y311150D02*
D03*
X439440Y203860D02*
D03*
Y222860D02*
D03*
X416540Y213360D02*
D03*
D27*
X380830Y15070D02*
D03*
X360510D02*
D03*
D28*
X383878Y41994D02*
D03*
X377274Y41994D02*
D03*
X370670D02*
D03*
X364066Y41994D02*
D03*
X357462Y41994D02*
D03*
D29*
X395562Y41994D02*
D03*
X345778Y41994D02*
D03*
D30*
X403690Y15070D02*
D03*
X337650Y15070D02*
D03*
D49*
X399626Y38692D02*
G03*
X400896Y39962I0J1270D01*
G01*
Y44026D02*
G03*
X399626Y45296I-1270J0D01*
G01*
X389974Y40216D02*
G03*
X391244Y38946I1270J0D01*
G01*
X391244Y45042D02*
G03*
X389974Y43772I0J-1270D01*
G01*
X402166Y43772D02*
G03*
X399626Y46312I-2540J0D01*
G01*
X391498Y46312D02*
G03*
X388958Y43772I0J-2540D01*
G01*
X388958Y40216D02*
G03*
X391498Y37676I2540J0D01*
G01*
X399626D02*
G03*
X402166Y40216I0J2540D01*
G01*
X340444Y39962D02*
G03*
X341714Y38692I1270J0D01*
G01*
X341714Y45296D02*
G03*
X340190Y43772I0J-1524D01*
G01*
X351112Y44026D02*
G03*
X349842Y45296I-1270J0D01*
G01*
Y38692D02*
G03*
X351112Y39962I0J1270D01*
G01*
X352382Y43772D02*
G03*
X349842Y46312I-2540J0D01*
G01*
X341714Y46312D02*
G03*
X339174Y43772I0J-2540D01*
G01*
X339174Y40216D02*
G03*
X341714Y37676I2540J0D01*
G01*
X349842D02*
G03*
X352382Y40216I0J2540D01*
G01*
X401150Y8974D02*
G03*
X401404Y9228I0J254D01*
G01*
X396578Y10752D02*
G03*
X399118Y8212I2540J0D01*
G01*
X408262Y8212D02*
G03*
X410802Y10752I0J2540D01*
G01*
X410802Y19388D02*
G03*
X408262Y21928I-2540J0D01*
G01*
X399118Y21928D02*
G03*
X396578Y19388I0J-2540D01*
G01*
X345016Y19388D02*
G03*
X342476Y21928I-2540J0D01*
G01*
X332824Y21928D02*
G03*
X330284Y19388I0J-2540D01*
G01*
Y10752D02*
G03*
X332824Y8212I2540J0D01*
G01*
X342476D02*
G03*
X345016Y10752I0J2540D01*
G01*
X400896Y44026D02*
X400896Y39962D01*
X389974Y40216D02*
X389974Y43772D01*
X402166Y43772D02*
X402166Y40216D01*
X391498Y46312D02*
X399626Y46312D01*
X388958Y43772D02*
X388958Y40216D01*
X391498Y37676D02*
X399626Y37676D01*
X340190Y43772D02*
X340444Y39962D01*
X351112Y44026D02*
X351112Y39962D01*
X352382Y43772D02*
X352382Y40216D01*
X341714Y46312D02*
X349842Y46312D01*
X339174Y43772D02*
X339174Y40216D01*
X341714Y37676D02*
X349842Y37676D01*
X401404Y21166D02*
X401404Y9228D01*
X400134Y8974D02*
X401150Y8974D01*
X400134Y20912D02*
X400134Y8974D01*
X398864Y20912D02*
X400134Y20912D01*
X398864Y9228D02*
Y20912D01*
X397594Y9228D02*
X398864Y9228D01*
X397594Y20912D02*
X397594Y9228D01*
X409786Y20912D02*
X409786Y9228D01*
X396578Y10752D02*
Y19388D01*
X399118Y8212D02*
X408262Y8212D01*
X410802Y10752D02*
X410802Y19388D01*
X399118Y21928D02*
X408262Y21928D01*
X343746Y8720D02*
X343746Y21420D01*
X343238Y8720D02*
X343746Y8720D01*
X343238Y21420D02*
X343238Y8720D01*
X342222Y21420D02*
X343238Y21420D01*
X342222Y8720D02*
Y21420D01*
X340952Y8720D02*
X342222Y8720D01*
X340952Y8720D02*
X340952Y21674D01*
X341206D01*
X339936Y21674D02*
X340952Y21674D01*
X339936Y8720D02*
X339936Y21674D01*
X331300Y20912D02*
X331300Y9228D01*
X345016Y10752D02*
X345016Y19388D01*
X332824Y21928D02*
X342476Y21928D01*
X330284Y10752D02*
X330284Y19388D01*
X332824Y8212D02*
X342476Y8212D01*
D52*
X280679Y247401D02*
D03*
M02*
