G04 Layer_Color=16711935*
%FSLAX44Y44*%
%MOMM*%
G71*
G01*
G75*
%ADD11C,0.1270*%
G36*
X1660661Y48355D02*
Y48256D01*
Y47859D01*
Y47264D01*
Y46470D01*
Y45478D01*
X1660561Y44387D01*
Y43196D01*
Y41906D01*
X1660363Y39128D01*
X1660165Y36450D01*
X1660065Y35160D01*
X1659966Y33870D01*
X1659768Y32779D01*
X1659569Y31787D01*
Y31687D01*
Y31588D01*
X1659371Y30993D01*
X1659073Y30100D01*
X1658676Y28909D01*
X1658081Y27620D01*
X1657486Y26231D01*
X1656593Y24842D01*
X1655601Y23552D01*
X1655502Y23453D01*
X1655105Y22957D01*
X1654410Y22361D01*
X1653617Y21667D01*
X1652426Y20774D01*
X1651136Y19881D01*
X1649648Y18988D01*
X1647961Y18195D01*
X1647862D01*
X1647763Y18095D01*
X1647465Y17996D01*
X1647068Y17897D01*
X1646672Y17798D01*
X1646076Y17599D01*
X1644588Y17302D01*
X1642802Y16905D01*
X1640719Y16607D01*
X1638239Y16409D01*
X1635461Y16309D01*
X1633972D01*
X1633179Y16409D01*
X1632286D01*
X1630202Y16607D01*
X1627921Y16805D01*
X1625639Y17202D01*
X1623357Y17698D01*
X1622365Y17996D01*
X1621373Y18393D01*
X1621273D01*
X1621174Y18492D01*
X1620579Y18790D01*
X1619686Y19286D01*
X1618595Y19881D01*
X1617404Y20774D01*
X1616114Y21667D01*
X1614924Y22857D01*
X1613733Y24048D01*
X1613634Y24246D01*
X1613336Y24643D01*
X1612840Y25338D01*
X1612245Y26231D01*
X1611650Y27322D01*
X1611054Y28612D01*
X1610459Y29902D01*
X1610062Y31291D01*
Y31390D01*
Y31588D01*
X1609963Y31886D01*
X1609864Y32382D01*
X1609765Y32878D01*
X1609666Y33672D01*
X1609566Y34465D01*
X1609467Y35457D01*
X1609368Y36549D01*
X1609269Y37739D01*
X1609169Y39128D01*
X1609070Y40616D01*
X1608971Y42204D01*
Y43990D01*
X1608872Y45875D01*
Y47859D01*
Y82683D01*
X1622067D01*
Y47264D01*
Y47165D01*
Y46867D01*
Y46470D01*
Y45875D01*
Y45279D01*
Y44486D01*
X1622166Y42700D01*
Y40914D01*
X1622265Y39128D01*
X1622365Y37541D01*
Y36846D01*
X1622464Y36350D01*
Y36152D01*
X1622662Y35656D01*
X1622960Y34961D01*
X1623258Y34069D01*
X1623853Y32977D01*
X1624547Y31886D01*
X1625341Y30894D01*
X1626432Y29902D01*
X1626631Y29802D01*
X1627028Y29505D01*
X1627722Y29108D01*
X1628714Y28711D01*
X1629905Y28314D01*
X1631393Y27917D01*
X1633179Y27620D01*
X1635064Y27520D01*
X1635957D01*
X1636949Y27620D01*
X1638239Y27818D01*
X1639528Y28116D01*
X1640917Y28513D01*
X1642207Y29009D01*
X1643398Y29802D01*
X1643497Y29902D01*
X1643894Y30199D01*
X1644390Y30695D01*
X1644886Y31390D01*
X1645481Y32183D01*
X1646076Y33076D01*
X1646573Y34168D01*
X1646870Y35358D01*
Y35557D01*
X1646969Y36053D01*
X1647068Y36846D01*
X1647168Y38037D01*
X1647267Y39525D01*
X1647366Y41509D01*
Y42601D01*
X1647465Y43791D01*
Y45081D01*
Y46470D01*
Y82683D01*
X1660661D01*
Y48355D01*
D02*
G37*
G36*
X1721478Y71670D02*
X1702330D01*
Y17500D01*
X1689135D01*
Y71670D01*
X1669987D01*
Y82683D01*
X1721478D01*
Y71670D01*
D02*
G37*
G36*
X735094Y83675D02*
X736086D01*
X737277Y83476D01*
X738665Y83278D01*
X740253Y82980D01*
X741939Y82683D01*
X743825Y82186D01*
X745610Y81591D01*
X747595Y80798D01*
X749480Y80004D01*
X751365Y78913D01*
X753250Y77722D01*
X755036Y76333D01*
X756722Y74746D01*
X756821Y74646D01*
X757119Y74349D01*
X757516Y73853D01*
X758111Y73059D01*
X758706Y72166D01*
X759500Y71075D01*
X760195Y69785D01*
X761087Y68297D01*
X761881Y66610D01*
X762675Y64725D01*
X763369Y62741D01*
X763965Y60558D01*
X764560Y58177D01*
X764957Y55598D01*
X765255Y52820D01*
X765354Y49942D01*
Y49744D01*
Y49248D01*
X765255Y48454D01*
Y47363D01*
X765056Y45974D01*
X764858Y44486D01*
X764659Y42700D01*
X764262Y40914D01*
X763866Y38930D01*
X763270Y36946D01*
X762576Y34862D01*
X761683Y32779D01*
X760691Y30794D01*
X759599Y28810D01*
X758210Y26925D01*
X756722Y25139D01*
X756623Y25040D01*
X756325Y24743D01*
X755829Y24346D01*
X755135Y23750D01*
X754341Y23056D01*
X753250Y22361D01*
X752059Y21568D01*
X750670Y20774D01*
X749083Y19881D01*
X747396Y19087D01*
X745511Y18393D01*
X743428Y17698D01*
X741245Y17103D01*
X738963Y16706D01*
X736483Y16409D01*
X733804Y16309D01*
X733209D01*
X732415Y16409D01*
X731423D01*
X730232Y16607D01*
X728744Y16805D01*
X727157Y17004D01*
X725470Y17401D01*
X723684Y17897D01*
X721799Y18492D01*
X719914Y19187D01*
X718029Y20080D01*
X716045Y21072D01*
X714259Y22262D01*
X712474Y23552D01*
X710787Y25139D01*
X710688Y25239D01*
X710390Y25536D01*
X709993Y26032D01*
X709497Y26727D01*
X708803Y27620D01*
X708108Y28711D01*
X707314Y30001D01*
X706521Y31489D01*
X705727Y33176D01*
X704933Y34961D01*
X704239Y36946D01*
X703544Y39128D01*
X703048Y41509D01*
X702651Y43990D01*
X702354Y46669D01*
X702255Y49546D01*
Y49645D01*
Y50042D01*
Y50538D01*
Y51232D01*
X702354Y52125D01*
X702453Y53117D01*
Y54209D01*
X702651Y55399D01*
X702949Y58078D01*
X703445Y60856D01*
X704140Y63634D01*
X705132Y66312D01*
Y66412D01*
X705231Y66511D01*
X705529Y67106D01*
X706025Y68098D01*
X706719Y69289D01*
X707612Y70678D01*
X708604Y72166D01*
X709894Y73753D01*
X711184Y75242D01*
X711382Y75440D01*
X711878Y75936D01*
X712672Y76631D01*
X713664Y77424D01*
X714954Y78416D01*
X716343Y79409D01*
X717930Y80302D01*
X719617Y81095D01*
X719716D01*
X719914Y81194D01*
X720212Y81393D01*
X720708Y81492D01*
X721303Y81690D01*
X721998Y81988D01*
X722792Y82186D01*
X723684Y82484D01*
X725768Y82881D01*
X728149Y83377D01*
X730828Y83675D01*
X733705Y83774D01*
X734300D01*
X735094Y83675D01*
D02*
G37*
G36*
X1298039Y57284D02*
X1323835Y17500D01*
X1306869D01*
X1288912Y48057D01*
X1278395Y37144D01*
Y17500D01*
X1265200D01*
Y82683D01*
X1278395D01*
Y53812D01*
X1304885Y82683D01*
X1322545D01*
X1298039Y57284D01*
D02*
G37*
G36*
X1378897Y71670D02*
X1343875D01*
Y57185D01*
X1376417D01*
Y46172D01*
X1343875D01*
Y28513D01*
X1380187D01*
Y17500D01*
X1330680D01*
Y82683D01*
X1378897D01*
Y71670D01*
D02*
G37*
G36*
X1568294Y83675D02*
X1569286D01*
X1570477Y83476D01*
X1571866Y83278D01*
X1573453Y82980D01*
X1575139Y82683D01*
X1577025Y82186D01*
X1578810Y81591D01*
X1580795Y80798D01*
X1582680Y80004D01*
X1584565Y78913D01*
X1586450Y77722D01*
X1588236Y76333D01*
X1589922Y74746D01*
X1590021Y74646D01*
X1590319Y74349D01*
X1590716Y73853D01*
X1591311Y73059D01*
X1591906Y72166D01*
X1592700Y71075D01*
X1593395Y69785D01*
X1594288Y68297D01*
X1595081Y66610D01*
X1595875Y64725D01*
X1596569Y62741D01*
X1597165Y60558D01*
X1597760Y58177D01*
X1598157Y55598D01*
X1598454Y52820D01*
X1598554Y49942D01*
Y49744D01*
Y49248D01*
X1598454Y48454D01*
Y47363D01*
X1598256Y45974D01*
X1598058Y44486D01*
X1597859Y42700D01*
X1597462Y40914D01*
X1597065Y38930D01*
X1596470Y36946D01*
X1595776Y34862D01*
X1594883Y32779D01*
X1593891Y30794D01*
X1592799Y28810D01*
X1591410Y26925D01*
X1589922Y25139D01*
X1589823Y25040D01*
X1589525Y24743D01*
X1589029Y24346D01*
X1588335Y23750D01*
X1587541Y23056D01*
X1586450Y22361D01*
X1585259Y21568D01*
X1583870Y20774D01*
X1582283Y19881D01*
X1580596Y19087D01*
X1578711Y18393D01*
X1576628Y17698D01*
X1574445Y17103D01*
X1572163Y16706D01*
X1569683Y16409D01*
X1567004Y16309D01*
X1566409D01*
X1565615Y16409D01*
X1564623D01*
X1563432Y16607D01*
X1561944Y16805D01*
X1560357Y17004D01*
X1558670Y17401D01*
X1556884Y17897D01*
X1554999Y18492D01*
X1553114Y19187D01*
X1551229Y20080D01*
X1549245Y21072D01*
X1547459Y22262D01*
X1545674Y23552D01*
X1543987Y25139D01*
X1543888Y25239D01*
X1543590Y25536D01*
X1543193Y26032D01*
X1542697Y26727D01*
X1542003Y27620D01*
X1541308Y28711D01*
X1540514Y30001D01*
X1539721Y31489D01*
X1538927Y33176D01*
X1538133Y34961D01*
X1537439Y36946D01*
X1536744Y39128D01*
X1536248Y41509D01*
X1535851Y43990D01*
X1535554Y46669D01*
X1535455Y49546D01*
Y49645D01*
Y50042D01*
Y50538D01*
Y51232D01*
X1535554Y52125D01*
X1535653Y53117D01*
Y54209D01*
X1535851Y55399D01*
X1536149Y58078D01*
X1536645Y60856D01*
X1537340Y63634D01*
X1538332Y66312D01*
Y66412D01*
X1538431Y66511D01*
X1538729Y67106D01*
X1539225Y68098D01*
X1539919Y69289D01*
X1540812Y70678D01*
X1541804Y72166D01*
X1543094Y73753D01*
X1544384Y75242D01*
X1544582Y75440D01*
X1545078Y75936D01*
X1545872Y76631D01*
X1546864Y77424D01*
X1548154Y78416D01*
X1549543Y79409D01*
X1551130Y80302D01*
X1552817Y81095D01*
X1552916D01*
X1553114Y81194D01*
X1553412Y81393D01*
X1553908Y81492D01*
X1554503Y81690D01*
X1555198Y81988D01*
X1555992Y82186D01*
X1556884Y82484D01*
X1558968Y82881D01*
X1561349Y83377D01*
X1564028Y83675D01*
X1566905Y83774D01*
X1567500D01*
X1568294Y83675D01*
D02*
G37*
G36*
X1478308Y82583D02*
X1479598D01*
X1482277Y82484D01*
X1484856Y82286D01*
X1486047Y82186D01*
X1487138Y81988D01*
X1488031Y81889D01*
X1488825Y81690D01*
X1488924D01*
X1489122Y81591D01*
X1489321Y81492D01*
X1489718Y81393D01*
X1490809Y80996D01*
X1492099Y80302D01*
X1493587Y79508D01*
X1495075Y78317D01*
X1496662Y76928D01*
X1498151Y75242D01*
Y75142D01*
X1498349Y75043D01*
X1498548Y74746D01*
X1498746Y74349D01*
X1499044Y73853D01*
X1499341Y73257D01*
X1500135Y71868D01*
X1500829Y69983D01*
X1501425Y67801D01*
X1501822Y65320D01*
X1502020Y62542D01*
Y62443D01*
Y62245D01*
Y61947D01*
Y61550D01*
X1501921Y60459D01*
X1501722Y59070D01*
X1501524Y57483D01*
X1501127Y55796D01*
X1500532Y54109D01*
X1499837Y52522D01*
X1499738Y52324D01*
X1499440Y51828D01*
X1498944Y51133D01*
X1498349Y50240D01*
X1497556Y49149D01*
X1496563Y48057D01*
X1495472Y47065D01*
X1494281Y46073D01*
X1494182Y45974D01*
X1493686Y45676D01*
X1492992Y45279D01*
X1492198Y44883D01*
X1491107Y44287D01*
X1490015Y43791D01*
X1488725Y43394D01*
X1487436Y42998D01*
X1487237D01*
X1486940Y42898D01*
X1486543D01*
X1486047Y42799D01*
X1485452Y42700D01*
X1484757Y42601D01*
X1483963D01*
X1483070Y42502D01*
X1482078Y42402D01*
X1480987Y42303D01*
X1479697Y42204D01*
X1478407D01*
X1477018Y42105D01*
X1465311D01*
Y17500D01*
X1452116D01*
Y82683D01*
X1477118D01*
X1478308Y82583D01*
D02*
G37*
G36*
X1439615Y71670D02*
X1404593D01*
Y57185D01*
X1437135D01*
Y46172D01*
X1404593D01*
Y28513D01*
X1440905D01*
Y17500D01*
X1391398D01*
Y82683D01*
X1439615D01*
Y71670D01*
D02*
G37*
G36*
X645108Y82583D02*
X646398D01*
X649077Y82484D01*
X651656Y82286D01*
X652847Y82186D01*
X653938Y81988D01*
X654831Y81889D01*
X655625Y81690D01*
X655724D01*
X655922Y81591D01*
X656121Y81492D01*
X656518Y81393D01*
X657609Y80996D01*
X658899Y80302D01*
X660387Y79508D01*
X661875Y78317D01*
X663463Y76928D01*
X664951Y75242D01*
Y75142D01*
X665149Y75043D01*
X665348Y74746D01*
X665546Y74349D01*
X665844Y73853D01*
X666141Y73257D01*
X666935Y71868D01*
X667629Y69983D01*
X668225Y67801D01*
X668622Y65320D01*
X668820Y62542D01*
Y62443D01*
Y62245D01*
Y61947D01*
Y61550D01*
X668721Y60459D01*
X668522Y59070D01*
X668324Y57483D01*
X667927Y55796D01*
X667332Y54109D01*
X666637Y52522D01*
X666538Y52324D01*
X666240Y51828D01*
X665744Y51133D01*
X665149Y50240D01*
X664355Y49149D01*
X663363Y48057D01*
X662272Y47065D01*
X661081Y46073D01*
X660982Y45974D01*
X660486Y45676D01*
X659792Y45279D01*
X658998Y44883D01*
X657907Y44287D01*
X656815Y43791D01*
X655526Y43394D01*
X654236Y42998D01*
X654037D01*
X653740Y42898D01*
X653343D01*
X652847Y42799D01*
X652252Y42700D01*
X651557Y42601D01*
X650763D01*
X649870Y42502D01*
X648878Y42402D01*
X647787Y42303D01*
X646497Y42204D01*
X645207D01*
X643819Y42105D01*
X632111D01*
Y17500D01*
X618916D01*
Y82683D01*
X643918D01*
X645108Y82583D01*
D02*
G37*
G36*
X888278Y71670D02*
X869130D01*
Y17500D01*
X855935D01*
Y71670D01*
X836787D01*
Y82683D01*
X888278D01*
Y71670D01*
D02*
G37*
G36*
X827461Y48355D02*
Y48256D01*
Y47859D01*
Y47264D01*
Y46470D01*
Y45478D01*
X827361Y44387D01*
Y43196D01*
Y41906D01*
X827163Y39128D01*
X826965Y36450D01*
X826865Y35160D01*
X826766Y33870D01*
X826568Y32779D01*
X826369Y31787D01*
Y31687D01*
Y31588D01*
X826171Y30993D01*
X825873Y30100D01*
X825476Y28909D01*
X824881Y27620D01*
X824286Y26231D01*
X823393Y24842D01*
X822401Y23552D01*
X822302Y23453D01*
X821905Y22957D01*
X821210Y22361D01*
X820416Y21667D01*
X819226Y20774D01*
X817936Y19881D01*
X816448Y18988D01*
X814761Y18195D01*
X814662D01*
X814563Y18095D01*
X814265Y17996D01*
X813868Y17897D01*
X813472Y17798D01*
X812876Y17599D01*
X811388Y17302D01*
X809602Y16905D01*
X807519Y16607D01*
X805039Y16409D01*
X802261Y16309D01*
X800772D01*
X799979Y16409D01*
X799086D01*
X797002Y16607D01*
X794721Y16805D01*
X792439Y17202D01*
X790157Y17698D01*
X789165Y17996D01*
X788173Y18393D01*
X788073D01*
X787974Y18492D01*
X787379Y18790D01*
X786486Y19286D01*
X785395Y19881D01*
X784204Y20774D01*
X782914Y21667D01*
X781724Y22857D01*
X780533Y24048D01*
X780434Y24246D01*
X780136Y24643D01*
X779640Y25338D01*
X779045Y26231D01*
X778450Y27322D01*
X777854Y28612D01*
X777259Y29902D01*
X776862Y31291D01*
Y31390D01*
Y31588D01*
X776763Y31886D01*
X776664Y32382D01*
X776565Y32878D01*
X776466Y33672D01*
X776366Y34465D01*
X776267Y35457D01*
X776168Y36549D01*
X776069Y37739D01*
X775969Y39128D01*
X775870Y40616D01*
X775771Y42204D01*
Y43990D01*
X775672Y45875D01*
Y47859D01*
Y82683D01*
X788867D01*
Y47264D01*
Y47165D01*
Y46867D01*
Y46470D01*
Y45875D01*
Y45279D01*
Y44486D01*
X788966Y42700D01*
Y40914D01*
X789065Y39128D01*
X789165Y37541D01*
Y36846D01*
X789264Y36350D01*
Y36152D01*
X789462Y35656D01*
X789760Y34961D01*
X790058Y34069D01*
X790653Y32977D01*
X791347Y31886D01*
X792141Y30894D01*
X793232Y29902D01*
X793431Y29802D01*
X793828Y29505D01*
X794522Y29108D01*
X795514Y28711D01*
X796705Y28314D01*
X798193Y27917D01*
X799979Y27620D01*
X801864Y27520D01*
X802757D01*
X803749Y27620D01*
X805039Y27818D01*
X806328Y28116D01*
X807717Y28513D01*
X809007Y29009D01*
X810198Y29802D01*
X810297Y29902D01*
X810694Y30199D01*
X811190Y30695D01*
X811686Y31390D01*
X812281Y32183D01*
X812876Y33076D01*
X813372Y34168D01*
X813670Y35358D01*
Y35557D01*
X813769Y36053D01*
X813868Y36846D01*
X813968Y38037D01*
X814067Y39525D01*
X814166Y41509D01*
Y42601D01*
X814265Y43791D01*
Y45081D01*
Y46470D01*
Y82683D01*
X827461D01*
Y48355D01*
D02*
G37*
G36*
X606415Y71670D02*
X571393D01*
Y57185D01*
X603935D01*
Y46172D01*
X571393D01*
Y28513D01*
X607705D01*
Y17500D01*
X558198D01*
Y82683D01*
X606415D01*
Y71670D01*
D02*
G37*
G36*
X545697D02*
X510675D01*
Y57185D01*
X543217D01*
Y46172D01*
X510675D01*
Y28513D01*
X546987D01*
Y17500D01*
X497480D01*
Y82683D01*
X545697D01*
Y71670D01*
D02*
G37*
G36*
X464839Y57284D02*
X490634Y17500D01*
X473669D01*
X455712Y48057D01*
X445195Y37144D01*
Y17500D01*
X432000D01*
Y82683D01*
X445195D01*
Y53812D01*
X471685Y82683D01*
X489345D01*
X464839Y57284D01*
D02*
G37*
%LPC*%
G36*
X733804Y72563D02*
X733010D01*
X732415Y72464D01*
X731721Y72365D01*
X730927Y72265D01*
X729141Y71868D01*
X727058Y71174D01*
X725966Y70777D01*
X724875Y70182D01*
X723784Y69487D01*
X722692Y68793D01*
X721700Y67900D01*
X720708Y66908D01*
X720609Y66809D01*
X720510Y66610D01*
X720311Y66312D01*
X719914Y65916D01*
X719617Y65320D01*
X719220Y64527D01*
X718724Y63733D01*
X718327Y62741D01*
X717831Y61649D01*
X717434Y60360D01*
X716938Y58971D01*
X716640Y57483D01*
X716343Y55796D01*
X716045Y54010D01*
X715946Y52125D01*
X715847Y50042D01*
Y49942D01*
Y49546D01*
Y48950D01*
X715946Y48256D01*
X716045Y47264D01*
X716144Y46272D01*
X716244Y45081D01*
X716442Y43791D01*
X717037Y41013D01*
X718029Y38235D01*
X718525Y36846D01*
X719220Y35557D01*
X720014Y34267D01*
X720907Y33176D01*
X721006Y33076D01*
X721105Y32977D01*
X721403Y32680D01*
X721799Y32283D01*
X722296Y31886D01*
X722891Y31390D01*
X724379Y30398D01*
X726264Y29306D01*
X728447Y28413D01*
X729736Y28017D01*
X731026Y27719D01*
X732415Y27620D01*
X733804Y27520D01*
X734598D01*
X735094Y27620D01*
X735788Y27719D01*
X736582Y27818D01*
X738368Y28215D01*
X740352Y28909D01*
X741443Y29406D01*
X742535Y29902D01*
X743626Y30596D01*
X744717Y31291D01*
X745710Y32183D01*
X746702Y33176D01*
X746801Y33275D01*
X746900Y33473D01*
X747198Y33771D01*
X747495Y34267D01*
X747892Y34862D01*
X748289Y35557D01*
X748785Y36450D01*
X749281Y37442D01*
X749678Y38533D01*
X750174Y39823D01*
X750571Y41212D01*
X750968Y42799D01*
X751265Y44387D01*
X751563Y46272D01*
X751662Y48157D01*
X751762Y50240D01*
Y50339D01*
Y50736D01*
Y51331D01*
X751662Y52125D01*
Y53018D01*
X751464Y54109D01*
X751365Y55300D01*
X751166Y56590D01*
X750571Y59268D01*
X749678Y62046D01*
X749083Y63435D01*
X748488Y64725D01*
X747694Y65916D01*
X746801Y67007D01*
X746702Y67106D01*
X746602Y67205D01*
X746305Y67503D01*
X745908Y67900D01*
X745412Y68297D01*
X744817Y68793D01*
X744122Y69289D01*
X743328Y69785D01*
X741543Y70777D01*
X739261Y71670D01*
X736681Y72365D01*
X735292Y72464D01*
X733804Y72563D01*
D02*
G37*
G36*
X1567004D02*
X1566210D01*
X1565615Y72464D01*
X1564921Y72365D01*
X1564127Y72265D01*
X1562341Y71868D01*
X1560258Y71174D01*
X1559166Y70777D01*
X1558075Y70182D01*
X1556984Y69487D01*
X1555892Y68793D01*
X1554900Y67900D01*
X1553908Y66908D01*
X1553809Y66809D01*
X1553710Y66610D01*
X1553511Y66312D01*
X1553114Y65916D01*
X1552817Y65320D01*
X1552420Y64527D01*
X1551924Y63733D01*
X1551527Y62741D01*
X1551031Y61649D01*
X1550634Y60360D01*
X1550138Y58971D01*
X1549840Y57483D01*
X1549543Y55796D01*
X1549245Y54010D01*
X1549146Y52125D01*
X1549047Y50042D01*
Y49942D01*
Y49546D01*
Y48950D01*
X1549146Y48256D01*
X1549245Y47264D01*
X1549344Y46272D01*
X1549444Y45081D01*
X1549642Y43791D01*
X1550237Y41013D01*
X1551229Y38235D01*
X1551725Y36846D01*
X1552420Y35557D01*
X1553214Y34267D01*
X1554106Y33176D01*
X1554206Y33076D01*
X1554305Y32977D01*
X1554603Y32680D01*
X1554999Y32283D01*
X1555495Y31886D01*
X1556091Y31390D01*
X1557579Y30398D01*
X1559464Y29306D01*
X1561647Y28413D01*
X1562936Y28017D01*
X1564226Y27719D01*
X1565615Y27620D01*
X1567004Y27520D01*
X1567798D01*
X1568294Y27620D01*
X1568988Y27719D01*
X1569782Y27818D01*
X1571568Y28215D01*
X1573552Y28909D01*
X1574644Y29406D01*
X1575735Y29902D01*
X1576826Y30596D01*
X1577917Y31291D01*
X1578910Y32183D01*
X1579902Y33176D01*
X1580001Y33275D01*
X1580100Y33473D01*
X1580398Y33771D01*
X1580695Y34267D01*
X1581092Y34862D01*
X1581489Y35557D01*
X1581985Y36450D01*
X1582481Y37442D01*
X1582878Y38533D01*
X1583374Y39823D01*
X1583771Y41212D01*
X1584168Y42799D01*
X1584465Y44387D01*
X1584763Y46272D01*
X1584862Y48157D01*
X1584962Y50240D01*
Y50339D01*
Y50736D01*
Y51331D01*
X1584862Y52125D01*
Y53018D01*
X1584664Y54109D01*
X1584565Y55300D01*
X1584366Y56590D01*
X1583771Y59268D01*
X1582878Y62046D01*
X1582283Y63435D01*
X1581688Y64725D01*
X1580894Y65916D01*
X1580001Y67007D01*
X1579902Y67106D01*
X1579803Y67205D01*
X1579505Y67503D01*
X1579108Y67900D01*
X1578612Y68297D01*
X1578017Y68793D01*
X1577322Y69289D01*
X1576528Y69785D01*
X1574743Y70777D01*
X1572461Y71670D01*
X1569881Y72365D01*
X1568492Y72464D01*
X1567004Y72563D01*
D02*
G37*
G36*
X1475133Y71670D02*
X1465311D01*
Y53117D01*
X1474340D01*
X1475034Y53217D01*
X1476622D01*
X1478407Y53316D01*
X1480094Y53514D01*
X1481582Y53812D01*
X1482277Y53911D01*
X1482773Y54109D01*
X1482872Y54209D01*
X1483170Y54308D01*
X1483666Y54506D01*
X1484261Y54903D01*
X1484955Y55300D01*
X1485650Y55895D01*
X1486344Y56491D01*
X1486940Y57284D01*
X1487039Y57383D01*
X1487138Y57681D01*
X1487436Y58177D01*
X1487733Y58772D01*
X1487932Y59467D01*
X1488230Y60360D01*
X1488329Y61352D01*
X1488428Y62344D01*
Y62542D01*
Y62939D01*
X1488329Y63634D01*
X1488130Y64427D01*
X1487932Y65320D01*
X1487535Y66312D01*
X1487039Y67305D01*
X1486344Y68198D01*
X1486245Y68297D01*
X1485948Y68594D01*
X1485551Y68991D01*
X1484856Y69487D01*
X1484162Y69983D01*
X1483170Y70479D01*
X1482177Y70876D01*
X1480987Y71174D01*
X1480888D01*
X1480491Y71273D01*
X1479896Y71372D01*
X1479003Y71472D01*
X1477713D01*
X1476026Y71571D01*
X1475133Y71670D01*
D02*
G37*
G36*
X641933D02*
X632111D01*
Y53117D01*
X641140D01*
X641834Y53217D01*
X643422D01*
X645207Y53316D01*
X646894Y53514D01*
X648382Y53812D01*
X649077Y53911D01*
X649573Y54109D01*
X649672Y54209D01*
X649970Y54308D01*
X650466Y54506D01*
X651061Y54903D01*
X651756Y55300D01*
X652450Y55895D01*
X653144Y56491D01*
X653740Y57284D01*
X653839Y57383D01*
X653938Y57681D01*
X654236Y58177D01*
X654533Y58772D01*
X654732Y59467D01*
X655030Y60360D01*
X655129Y61352D01*
X655228Y62344D01*
Y62542D01*
Y62939D01*
X655129Y63634D01*
X654930Y64427D01*
X654732Y65320D01*
X654335Y66312D01*
X653839Y67305D01*
X653144Y68198D01*
X653045Y68297D01*
X652748Y68594D01*
X652351Y68991D01*
X651656Y69487D01*
X650962Y69983D01*
X649970Y70479D01*
X648978Y70876D01*
X647787Y71174D01*
X647688D01*
X647291Y71273D01*
X646696Y71372D01*
X645803Y71472D01*
X644513D01*
X642826Y71571D01*
X641933Y71670D01*
D02*
G37*
%LPD*%
D11*
X1997950Y50000D02*
G03*
X1997950Y50000I-6350J0D01*
G01*
X106350D02*
G03*
X106350Y50000I-6350J0D01*
G01*
D02*
G03*
X106350Y50000I-6350J0D01*
G01*
X1997950D02*
G03*
X1997950Y50000I-6350J0D01*
G01*
M02*
