G04 Layer_Color=16711935*
%FSLAX44Y44*%
%MOMM*%
G71*
G01*
G75*
%ADD11C,0.1270*%
G36*
X827461Y48355D02*
Y48256D01*
Y47859D01*
Y47264D01*
Y46470D01*
Y45478D01*
X827361Y44387D01*
Y43196D01*
Y41906D01*
X827163Y39128D01*
X826965Y36450D01*
X826865Y35160D01*
X826766Y33870D01*
X826568Y32779D01*
X826369Y31787D01*
Y31687D01*
Y31588D01*
X826171Y30993D01*
X825873Y30100D01*
X825476Y28909D01*
X824881Y27620D01*
X824286Y26231D01*
X823393Y24842D01*
X822401Y23552D01*
X822302Y23453D01*
X821905Y22957D01*
X821210Y22361D01*
X820416Y21667D01*
X819226Y20774D01*
X817936Y19881D01*
X816448Y18988D01*
X814761Y18195D01*
X814662D01*
X814563Y18095D01*
X814265Y17996D01*
X813868Y17897D01*
X813472Y17798D01*
X812876Y17599D01*
X811388Y17302D01*
X809602Y16905D01*
X807519Y16607D01*
X805039Y16409D01*
X802261Y16309D01*
X800772D01*
X799979Y16409D01*
X799086D01*
X797002Y16607D01*
X794721Y16805D01*
X792439Y17202D01*
X790157Y17698D01*
X789165Y17996D01*
X788173Y18393D01*
X788073D01*
X787974Y18492D01*
X787379Y18790D01*
X786486Y19286D01*
X785395Y19881D01*
X784204Y20774D01*
X782914Y21667D01*
X781724Y22857D01*
X780533Y24048D01*
X780434Y24246D01*
X780136Y24643D01*
X779640Y25338D01*
X779045Y26231D01*
X778450Y27322D01*
X777854Y28612D01*
X777259Y29902D01*
X776862Y31291D01*
Y31390D01*
Y31588D01*
X776763Y31886D01*
X776664Y32382D01*
X776565Y32878D01*
X776466Y33672D01*
X776366Y34465D01*
X776267Y35457D01*
X776168Y36549D01*
X776069Y37739D01*
X775969Y39128D01*
X775870Y40616D01*
X775771Y42204D01*
Y43990D01*
X775672Y45875D01*
Y47859D01*
Y82683D01*
X788867D01*
Y47264D01*
Y47165D01*
Y46867D01*
Y46470D01*
Y45875D01*
Y45279D01*
Y44486D01*
X788966Y42700D01*
Y40914D01*
X789065Y39128D01*
X789165Y37541D01*
Y36846D01*
X789264Y36350D01*
Y36152D01*
X789462Y35656D01*
X789760Y34961D01*
X790058Y34069D01*
X790653Y32977D01*
X791347Y31886D01*
X792141Y30894D01*
X793232Y29902D01*
X793431Y29802D01*
X793828Y29505D01*
X794522Y29108D01*
X795514Y28711D01*
X796705Y28314D01*
X798193Y27917D01*
X799979Y27620D01*
X801864Y27520D01*
X802757D01*
X803749Y27620D01*
X805039Y27818D01*
X806328Y28116D01*
X807717Y28513D01*
X809007Y29009D01*
X810198Y29802D01*
X810297Y29902D01*
X810694Y30199D01*
X811190Y30695D01*
X811686Y31390D01*
X812281Y32183D01*
X812876Y33076D01*
X813372Y34168D01*
X813670Y35358D01*
Y35557D01*
X813769Y36053D01*
X813868Y36846D01*
X813968Y38037D01*
X814067Y39525D01*
X814166Y41509D01*
Y42601D01*
X814265Y43791D01*
Y45081D01*
Y46470D01*
Y82683D01*
X827461D01*
Y48355D01*
D02*
G37*
G36*
X888278Y71670D02*
X869130D01*
Y17500D01*
X855935D01*
Y71670D01*
X836787D01*
Y82683D01*
X888278D01*
Y71670D01*
D02*
G37*
G36*
X1874594Y83675D02*
X1875586D01*
X1876776Y83476D01*
X1878165Y83278D01*
X1879753Y82980D01*
X1881440Y82683D01*
X1883325Y82186D01*
X1885110Y81591D01*
X1887095Y80798D01*
X1888980Y80004D01*
X1890865Y78913D01*
X1892750Y77722D01*
X1894536Y76333D01*
X1896222Y74746D01*
X1896321Y74646D01*
X1896619Y74349D01*
X1897016Y73853D01*
X1897611Y73059D01*
X1898206Y72166D01*
X1899000Y71075D01*
X1899695Y69785D01*
X1900587Y68297D01*
X1901381Y66610D01*
X1902175Y64725D01*
X1902869Y62741D01*
X1903465Y60558D01*
X1904060Y58177D01*
X1904457Y55598D01*
X1904754Y52820D01*
X1904854Y49942D01*
Y49744D01*
Y49248D01*
X1904754Y48454D01*
Y47363D01*
X1904556Y45974D01*
X1904358Y44486D01*
X1904159Y42700D01*
X1903762Y40914D01*
X1903365Y38930D01*
X1902770Y36946D01*
X1902076Y34862D01*
X1901183Y32779D01*
X1900191Y30794D01*
X1899099Y28810D01*
X1897710Y26925D01*
X1896222Y25139D01*
X1896123Y25040D01*
X1895825Y24743D01*
X1895329Y24346D01*
X1894635Y23750D01*
X1893841Y23056D01*
X1892750Y22361D01*
X1891559Y21568D01*
X1890170Y20774D01*
X1888583Y19881D01*
X1886896Y19087D01*
X1885011Y18393D01*
X1882928Y17698D01*
X1880745Y17103D01*
X1878463Y16706D01*
X1875983Y16409D01*
X1873304Y16309D01*
X1872709D01*
X1871915Y16409D01*
X1870923D01*
X1869733Y16607D01*
X1868244Y16805D01*
X1866657Y17004D01*
X1864970Y17401D01*
X1863184Y17897D01*
X1861299Y18492D01*
X1859414Y19187D01*
X1857529Y20080D01*
X1855545Y21072D01*
X1853759Y22262D01*
X1851973Y23552D01*
X1850287Y25139D01*
X1850188Y25239D01*
X1849890Y25536D01*
X1849493Y26032D01*
X1848997Y26727D01*
X1848303Y27620D01*
X1847608Y28711D01*
X1846814Y30001D01*
X1846021Y31489D01*
X1845227Y33176D01*
X1844433Y34961D01*
X1843739Y36946D01*
X1843044Y39128D01*
X1842548Y41509D01*
X1842151Y43990D01*
X1841854Y46669D01*
X1841755Y49546D01*
Y49645D01*
Y50042D01*
Y50538D01*
Y51232D01*
X1841854Y52125D01*
X1841953Y53117D01*
Y54209D01*
X1842151Y55399D01*
X1842449Y58078D01*
X1842945Y60856D01*
X1843640Y63634D01*
X1844632Y66312D01*
Y66412D01*
X1844731Y66511D01*
X1845029Y67106D01*
X1845525Y68098D01*
X1846219Y69289D01*
X1847112Y70678D01*
X1848104Y72166D01*
X1849394Y73753D01*
X1850684Y75242D01*
X1850882Y75440D01*
X1851378Y75936D01*
X1852172Y76631D01*
X1853164Y77424D01*
X1854454Y78416D01*
X1855843Y79409D01*
X1857430Y80302D01*
X1859117Y81095D01*
X1859216D01*
X1859414Y81194D01*
X1859712Y81393D01*
X1860208Y81492D01*
X1860803Y81690D01*
X1861498Y81988D01*
X1862292Y82186D01*
X1863184Y82484D01*
X1865268Y82881D01*
X1867649Y83377D01*
X1870328Y83675D01*
X1873205Y83774D01*
X1873800D01*
X1874594Y83675D01*
D02*
G37*
G36*
X464839Y57284D02*
X490634Y17500D01*
X473669D01*
X455712Y48057D01*
X445195Y37144D01*
Y17500D01*
X432000D01*
Y82683D01*
X445195D01*
Y53812D01*
X471685Y82683D01*
X489345D01*
X464839Y57284D01*
D02*
G37*
G36*
X545697Y71670D02*
X510675D01*
Y57185D01*
X543217D01*
Y46172D01*
X510675D01*
Y28513D01*
X546987D01*
Y17500D01*
X497480D01*
Y82683D01*
X545697D01*
Y71670D01*
D02*
G37*
G36*
X735094Y83675D02*
X736086D01*
X737277Y83476D01*
X738665Y83278D01*
X740253Y82980D01*
X741939Y82683D01*
X743825Y82186D01*
X745610Y81591D01*
X747595Y80798D01*
X749480Y80004D01*
X751365Y78913D01*
X753250Y77722D01*
X755036Y76333D01*
X756722Y74746D01*
X756821Y74646D01*
X757119Y74349D01*
X757516Y73853D01*
X758111Y73059D01*
X758706Y72166D01*
X759500Y71075D01*
X760195Y69785D01*
X761087Y68297D01*
X761881Y66610D01*
X762675Y64725D01*
X763369Y62741D01*
X763965Y60558D01*
X764560Y58177D01*
X764957Y55598D01*
X765255Y52820D01*
X765354Y49942D01*
Y49744D01*
Y49248D01*
X765255Y48454D01*
Y47363D01*
X765056Y45974D01*
X764858Y44486D01*
X764659Y42700D01*
X764262Y40914D01*
X763866Y38930D01*
X763270Y36946D01*
X762576Y34862D01*
X761683Y32779D01*
X760691Y30794D01*
X759599Y28810D01*
X758210Y26925D01*
X756722Y25139D01*
X756623Y25040D01*
X756325Y24743D01*
X755829Y24346D01*
X755135Y23750D01*
X754341Y23056D01*
X753250Y22361D01*
X752059Y21568D01*
X750670Y20774D01*
X749083Y19881D01*
X747396Y19087D01*
X745511Y18393D01*
X743428Y17698D01*
X741245Y17103D01*
X738963Y16706D01*
X736483Y16409D01*
X733804Y16309D01*
X733209D01*
X732415Y16409D01*
X731423D01*
X730232Y16607D01*
X728744Y16805D01*
X727157Y17004D01*
X725470Y17401D01*
X723684Y17897D01*
X721799Y18492D01*
X719914Y19187D01*
X718029Y20080D01*
X716045Y21072D01*
X714259Y22262D01*
X712474Y23552D01*
X710787Y25139D01*
X710688Y25239D01*
X710390Y25536D01*
X709993Y26032D01*
X709497Y26727D01*
X708803Y27620D01*
X708108Y28711D01*
X707314Y30001D01*
X706521Y31489D01*
X705727Y33176D01*
X704933Y34961D01*
X704239Y36946D01*
X703544Y39128D01*
X703048Y41509D01*
X702651Y43990D01*
X702354Y46669D01*
X702255Y49546D01*
Y49645D01*
Y50042D01*
Y50538D01*
Y51232D01*
X702354Y52125D01*
X702453Y53117D01*
Y54209D01*
X702651Y55399D01*
X702949Y58078D01*
X703445Y60856D01*
X704140Y63634D01*
X705132Y66312D01*
Y66412D01*
X705231Y66511D01*
X705529Y67106D01*
X706025Y68098D01*
X706719Y69289D01*
X707612Y70678D01*
X708604Y72166D01*
X709894Y73753D01*
X711184Y75242D01*
X711382Y75440D01*
X711878Y75936D01*
X712672Y76631D01*
X713664Y77424D01*
X714954Y78416D01*
X716343Y79409D01*
X717930Y80302D01*
X719617Y81095D01*
X719716D01*
X719914Y81194D01*
X720212Y81393D01*
X720708Y81492D01*
X721303Y81690D01*
X721998Y81988D01*
X722792Y82186D01*
X723684Y82484D01*
X725768Y82881D01*
X728149Y83377D01*
X730828Y83675D01*
X733705Y83774D01*
X734300D01*
X735094Y83675D01*
D02*
G37*
G36*
X645108Y82583D02*
X646398D01*
X649077Y82484D01*
X651656Y82286D01*
X652847Y82186D01*
X653938Y81988D01*
X654831Y81889D01*
X655625Y81690D01*
X655724D01*
X655922Y81591D01*
X656121Y81492D01*
X656518Y81393D01*
X657609Y80996D01*
X658899Y80302D01*
X660387Y79508D01*
X661875Y78317D01*
X663463Y76928D01*
X664951Y75242D01*
Y75142D01*
X665149Y75043D01*
X665348Y74746D01*
X665546Y74349D01*
X665844Y73853D01*
X666141Y73257D01*
X666935Y71868D01*
X667629Y69983D01*
X668225Y67801D01*
X668622Y65320D01*
X668820Y62542D01*
Y62443D01*
Y62245D01*
Y61947D01*
Y61550D01*
X668721Y60459D01*
X668522Y59070D01*
X668324Y57483D01*
X667927Y55796D01*
X667332Y54109D01*
X666637Y52522D01*
X666538Y52324D01*
X666240Y51828D01*
X665744Y51133D01*
X665149Y50240D01*
X664355Y49149D01*
X663363Y48057D01*
X662272Y47065D01*
X661081Y46073D01*
X660982Y45974D01*
X660486Y45676D01*
X659792Y45279D01*
X658998Y44883D01*
X657907Y44287D01*
X656815Y43791D01*
X655526Y43394D01*
X654236Y42998D01*
X654037D01*
X653740Y42898D01*
X653343D01*
X652847Y42799D01*
X652252Y42700D01*
X651557Y42601D01*
X650763D01*
X649870Y42502D01*
X648878Y42402D01*
X647787Y42303D01*
X646497Y42204D01*
X645207D01*
X643819Y42105D01*
X632111D01*
Y17500D01*
X618916D01*
Y82683D01*
X643918D01*
X645108Y82583D01*
D02*
G37*
G36*
X606415Y71670D02*
X571393D01*
Y57185D01*
X603935D01*
Y46172D01*
X571393D01*
Y28513D01*
X607705D01*
Y17500D01*
X558198D01*
Y82683D01*
X606415D01*
Y71670D01*
D02*
G37*
G36*
X1784608Y82583D02*
X1785898D01*
X1788577Y82484D01*
X1791156Y82286D01*
X1792347Y82186D01*
X1793438Y81988D01*
X1794331Y81889D01*
X1795125Y81690D01*
X1795224D01*
X1795422Y81591D01*
X1795621Y81492D01*
X1796018Y81393D01*
X1797109Y80996D01*
X1798399Y80302D01*
X1799887Y79508D01*
X1801375Y78317D01*
X1802962Y76928D01*
X1804451Y75242D01*
Y75142D01*
X1804649Y75043D01*
X1804848Y74746D01*
X1805046Y74349D01*
X1805344Y73853D01*
X1805641Y73257D01*
X1806435Y71868D01*
X1807129Y69983D01*
X1807725Y67801D01*
X1808122Y65320D01*
X1808320Y62542D01*
Y62443D01*
Y62245D01*
Y61947D01*
Y61550D01*
X1808221Y60459D01*
X1808022Y59070D01*
X1807824Y57483D01*
X1807427Y55796D01*
X1806832Y54109D01*
X1806137Y52522D01*
X1806038Y52324D01*
X1805741Y51828D01*
X1805244Y51133D01*
X1804649Y50240D01*
X1803855Y49149D01*
X1802863Y48057D01*
X1801772Y47065D01*
X1800581Y46073D01*
X1800482Y45974D01*
X1799986Y45676D01*
X1799292Y45279D01*
X1798498Y44883D01*
X1797407Y44287D01*
X1796315Y43791D01*
X1795025Y43394D01*
X1793736Y42998D01*
X1793537D01*
X1793240Y42898D01*
X1792843D01*
X1792347Y42799D01*
X1791752Y42700D01*
X1791057Y42601D01*
X1790263D01*
X1789370Y42502D01*
X1788378Y42402D01*
X1787287Y42303D01*
X1785997Y42204D01*
X1784707D01*
X1783318Y42105D01*
X1771611D01*
Y17500D01*
X1758416D01*
Y82683D01*
X1783418D01*
X1784608Y82583D01*
D02*
G37*
G36*
X2027778Y71670D02*
X2008630D01*
Y17500D01*
X1995435D01*
Y71670D01*
X1976287D01*
Y82683D01*
X2027778D01*
Y71670D01*
D02*
G37*
G36*
X1966961Y48355D02*
Y48256D01*
Y47859D01*
Y47264D01*
Y46470D01*
Y45478D01*
X1966861Y44387D01*
Y43196D01*
Y41906D01*
X1966663Y39128D01*
X1966465Y36450D01*
X1966365Y35160D01*
X1966266Y33870D01*
X1966068Y32779D01*
X1965869Y31787D01*
Y31687D01*
Y31588D01*
X1965671Y30993D01*
X1965373Y30100D01*
X1964976Y28909D01*
X1964381Y27620D01*
X1963786Y26231D01*
X1962893Y24842D01*
X1961901Y23552D01*
X1961802Y23453D01*
X1961405Y22957D01*
X1960710Y22361D01*
X1959917Y21667D01*
X1958726Y20774D01*
X1957436Y19881D01*
X1955948Y18988D01*
X1954261Y18195D01*
X1954162D01*
X1954063Y18095D01*
X1953765Y17996D01*
X1953369Y17897D01*
X1952972Y17798D01*
X1952376Y17599D01*
X1950888Y17302D01*
X1949102Y16905D01*
X1947019Y16607D01*
X1944539Y16409D01*
X1941761Y16309D01*
X1940273D01*
X1939479Y16409D01*
X1938586D01*
X1936502Y16607D01*
X1934220Y16805D01*
X1931939Y17202D01*
X1929657Y17698D01*
X1928665Y17996D01*
X1927672Y18393D01*
X1927573D01*
X1927474Y18492D01*
X1926879Y18790D01*
X1925986Y19286D01*
X1924895Y19881D01*
X1923704Y20774D01*
X1922414Y21667D01*
X1921224Y22857D01*
X1920033Y24048D01*
X1919934Y24246D01*
X1919636Y24643D01*
X1919140Y25338D01*
X1918545Y26231D01*
X1917950Y27322D01*
X1917354Y28612D01*
X1916759Y29902D01*
X1916362Y31291D01*
Y31390D01*
Y31588D01*
X1916263Y31886D01*
X1916164Y32382D01*
X1916065Y32878D01*
X1915965Y33672D01*
X1915866Y34465D01*
X1915767Y35457D01*
X1915668Y36549D01*
X1915569Y37739D01*
X1915469Y39128D01*
X1915370Y40616D01*
X1915271Y42204D01*
Y43990D01*
X1915172Y45875D01*
Y47859D01*
Y82683D01*
X1928367D01*
Y47264D01*
Y47165D01*
Y46867D01*
Y46470D01*
Y45875D01*
Y45279D01*
Y44486D01*
X1928466Y42700D01*
Y40914D01*
X1928565Y39128D01*
X1928665Y37541D01*
Y36846D01*
X1928764Y36350D01*
Y36152D01*
X1928962Y35656D01*
X1929260Y34961D01*
X1929557Y34069D01*
X1930153Y32977D01*
X1930847Y31886D01*
X1931641Y30894D01*
X1932732Y29902D01*
X1932931Y29802D01*
X1933328Y29505D01*
X1934022Y29108D01*
X1935014Y28711D01*
X1936205Y28314D01*
X1937693Y27917D01*
X1939479Y27620D01*
X1941364Y27520D01*
X1942257D01*
X1943249Y27620D01*
X1944539Y27818D01*
X1945828Y28116D01*
X1947217Y28513D01*
X1948507Y29009D01*
X1949698Y29802D01*
X1949797Y29902D01*
X1950194Y30199D01*
X1950690Y30695D01*
X1951186Y31390D01*
X1951781Y32183D01*
X1952376Y33076D01*
X1952872Y34168D01*
X1953170Y35358D01*
Y35557D01*
X1953269Y36053D01*
X1953369Y36846D01*
X1953468Y38037D01*
X1953567Y39525D01*
X1953666Y41509D01*
Y42601D01*
X1953765Y43791D01*
Y45081D01*
Y46470D01*
Y82683D01*
X1966961D01*
Y48355D01*
D02*
G37*
G36*
X1745915Y71670D02*
X1710893D01*
Y57185D01*
X1743435D01*
Y46172D01*
X1710893D01*
Y28513D01*
X1747205D01*
Y17500D01*
X1697698D01*
Y82683D01*
X1745915D01*
Y71670D01*
D02*
G37*
G36*
X1685197D02*
X1650175D01*
Y57185D01*
X1682717D01*
Y46172D01*
X1650175D01*
Y28513D01*
X1686487D01*
Y17500D01*
X1636980D01*
Y82683D01*
X1685197D01*
Y71670D01*
D02*
G37*
G36*
X1604339Y57284D02*
X1630134Y17500D01*
X1613169D01*
X1595212Y48057D01*
X1584695Y37144D01*
Y17500D01*
X1571500D01*
Y82683D01*
X1584695D01*
Y53812D01*
X1611185Y82683D01*
X1628845D01*
X1604339Y57284D01*
D02*
G37*
%LPC*%
G36*
X1873304Y72563D02*
X1872510D01*
X1871915Y72464D01*
X1871221Y72365D01*
X1870427Y72265D01*
X1868641Y71868D01*
X1866558Y71174D01*
X1865466Y70777D01*
X1864375Y70182D01*
X1863284Y69487D01*
X1862192Y68793D01*
X1861200Y67900D01*
X1860208Y66908D01*
X1860109Y66809D01*
X1860010Y66610D01*
X1859811Y66312D01*
X1859414Y65916D01*
X1859117Y65320D01*
X1858720Y64527D01*
X1858224Y63733D01*
X1857827Y62741D01*
X1857331Y61649D01*
X1856934Y60360D01*
X1856438Y58971D01*
X1856140Y57483D01*
X1855843Y55796D01*
X1855545Y54010D01*
X1855446Y52125D01*
X1855347Y50042D01*
Y49942D01*
Y49546D01*
Y48950D01*
X1855446Y48256D01*
X1855545Y47264D01*
X1855644Y46272D01*
X1855744Y45081D01*
X1855942Y43791D01*
X1856537Y41013D01*
X1857529Y38235D01*
X1858025Y36846D01*
X1858720Y35557D01*
X1859514Y34267D01*
X1860406Y33176D01*
X1860506Y33076D01*
X1860605Y32977D01*
X1860903Y32680D01*
X1861299Y32283D01*
X1861796Y31886D01*
X1862391Y31390D01*
X1863879Y30398D01*
X1865764Y29306D01*
X1867947Y28413D01*
X1869236Y28017D01*
X1870526Y27719D01*
X1871915Y27620D01*
X1873304Y27520D01*
X1874098D01*
X1874594Y27620D01*
X1875288Y27719D01*
X1876082Y27818D01*
X1877868Y28215D01*
X1879852Y28909D01*
X1880943Y29406D01*
X1882035Y29902D01*
X1883126Y30596D01*
X1884218Y31291D01*
X1885210Y32183D01*
X1886202Y33176D01*
X1886301Y33275D01*
X1886400Y33473D01*
X1886698Y33771D01*
X1886995Y34267D01*
X1887392Y34862D01*
X1887789Y35557D01*
X1888285Y36450D01*
X1888781Y37442D01*
X1889178Y38533D01*
X1889674Y39823D01*
X1890071Y41212D01*
X1890468Y42799D01*
X1890766Y44387D01*
X1891063Y46272D01*
X1891162Y48157D01*
X1891261Y50240D01*
Y50339D01*
Y50736D01*
Y51331D01*
X1891162Y52125D01*
Y53018D01*
X1890964Y54109D01*
X1890865Y55300D01*
X1890666Y56590D01*
X1890071Y59268D01*
X1889178Y62046D01*
X1888583Y63435D01*
X1887988Y64725D01*
X1887194Y65916D01*
X1886301Y67007D01*
X1886202Y67106D01*
X1886102Y67205D01*
X1885805Y67503D01*
X1885408Y67900D01*
X1884912Y68297D01*
X1884317Y68793D01*
X1883622Y69289D01*
X1882829Y69785D01*
X1881043Y70777D01*
X1878761Y71670D01*
X1876181Y72365D01*
X1874792Y72464D01*
X1873304Y72563D01*
D02*
G37*
G36*
X733804D02*
X733010D01*
X732415Y72464D01*
X731721Y72365D01*
X730927Y72265D01*
X729141Y71868D01*
X727058Y71174D01*
X725966Y70777D01*
X724875Y70182D01*
X723784Y69487D01*
X722692Y68793D01*
X721700Y67900D01*
X720708Y66908D01*
X720609Y66809D01*
X720510Y66610D01*
X720311Y66312D01*
X719914Y65916D01*
X719617Y65320D01*
X719220Y64527D01*
X718724Y63733D01*
X718327Y62741D01*
X717831Y61649D01*
X717434Y60360D01*
X716938Y58971D01*
X716640Y57483D01*
X716343Y55796D01*
X716045Y54010D01*
X715946Y52125D01*
X715847Y50042D01*
Y49942D01*
Y49546D01*
Y48950D01*
X715946Y48256D01*
X716045Y47264D01*
X716144Y46272D01*
X716244Y45081D01*
X716442Y43791D01*
X717037Y41013D01*
X718029Y38235D01*
X718525Y36846D01*
X719220Y35557D01*
X720014Y34267D01*
X720907Y33176D01*
X721006Y33076D01*
X721105Y32977D01*
X721403Y32680D01*
X721799Y32283D01*
X722296Y31886D01*
X722891Y31390D01*
X724379Y30398D01*
X726264Y29306D01*
X728447Y28413D01*
X729736Y28017D01*
X731026Y27719D01*
X732415Y27620D01*
X733804Y27520D01*
X734598D01*
X735094Y27620D01*
X735788Y27719D01*
X736582Y27818D01*
X738368Y28215D01*
X740352Y28909D01*
X741443Y29406D01*
X742535Y29902D01*
X743626Y30596D01*
X744717Y31291D01*
X745710Y32183D01*
X746702Y33176D01*
X746801Y33275D01*
X746900Y33473D01*
X747198Y33771D01*
X747495Y34267D01*
X747892Y34862D01*
X748289Y35557D01*
X748785Y36450D01*
X749281Y37442D01*
X749678Y38533D01*
X750174Y39823D01*
X750571Y41212D01*
X750968Y42799D01*
X751265Y44387D01*
X751563Y46272D01*
X751662Y48157D01*
X751762Y50240D01*
Y50339D01*
Y50736D01*
Y51331D01*
X751662Y52125D01*
Y53018D01*
X751464Y54109D01*
X751365Y55300D01*
X751166Y56590D01*
X750571Y59268D01*
X749678Y62046D01*
X749083Y63435D01*
X748488Y64725D01*
X747694Y65916D01*
X746801Y67007D01*
X746702Y67106D01*
X746602Y67205D01*
X746305Y67503D01*
X745908Y67900D01*
X745412Y68297D01*
X744817Y68793D01*
X744122Y69289D01*
X743328Y69785D01*
X741543Y70777D01*
X739261Y71670D01*
X736681Y72365D01*
X735292Y72464D01*
X733804Y72563D01*
D02*
G37*
G36*
X641933Y71670D02*
X632111D01*
Y53117D01*
X641140D01*
X641834Y53217D01*
X643422D01*
X645207Y53316D01*
X646894Y53514D01*
X648382Y53812D01*
X649077Y53911D01*
X649573Y54109D01*
X649672Y54209D01*
X649970Y54308D01*
X650466Y54506D01*
X651061Y54903D01*
X651756Y55300D01*
X652450Y55895D01*
X653144Y56491D01*
X653740Y57284D01*
X653839Y57383D01*
X653938Y57681D01*
X654236Y58177D01*
X654533Y58772D01*
X654732Y59467D01*
X655030Y60360D01*
X655129Y61352D01*
X655228Y62344D01*
Y62542D01*
Y62939D01*
X655129Y63634D01*
X654930Y64427D01*
X654732Y65320D01*
X654335Y66312D01*
X653839Y67305D01*
X653144Y68198D01*
X653045Y68297D01*
X652748Y68594D01*
X652351Y68991D01*
X651656Y69487D01*
X650962Y69983D01*
X649970Y70479D01*
X648978Y70876D01*
X647787Y71174D01*
X647688D01*
X647291Y71273D01*
X646696Y71372D01*
X645803Y71472D01*
X644513D01*
X642826Y71571D01*
X641933Y71670D01*
D02*
G37*
G36*
X1781433D02*
X1771611D01*
Y53117D01*
X1780640D01*
X1781334Y53217D01*
X1782922D01*
X1784707Y53316D01*
X1786394Y53514D01*
X1787882Y53812D01*
X1788577Y53911D01*
X1789073Y54109D01*
X1789172Y54209D01*
X1789470Y54308D01*
X1789966Y54506D01*
X1790561Y54903D01*
X1791255Y55300D01*
X1791950Y55895D01*
X1792644Y56491D01*
X1793240Y57284D01*
X1793339Y57383D01*
X1793438Y57681D01*
X1793736Y58177D01*
X1794033Y58772D01*
X1794232Y59467D01*
X1794530Y60360D01*
X1794629Y61352D01*
X1794728Y62344D01*
Y62542D01*
Y62939D01*
X1794629Y63634D01*
X1794430Y64427D01*
X1794232Y65320D01*
X1793835Y66312D01*
X1793339Y67305D01*
X1792644Y68198D01*
X1792545Y68297D01*
X1792248Y68594D01*
X1791851Y68991D01*
X1791156Y69487D01*
X1790462Y69983D01*
X1789470Y70479D01*
X1788477Y70876D01*
X1787287Y71174D01*
X1787188D01*
X1786791Y71273D01*
X1786196Y71372D01*
X1785303Y71472D01*
X1784013D01*
X1782326Y71571D01*
X1781433Y71670D01*
D02*
G37*
%LPD*%
D11*
X2316350Y50000D02*
G03*
X2316350Y50000I-6350J0D01*
G01*
X106350D02*
G03*
X106350Y50000I-6350J0D01*
G01*
D02*
G03*
X106350Y50000I-6350J0D01*
G01*
X2316350D02*
G03*
X2316350Y50000I-6350J0D01*
G01*
M02*
