G04 Layer_Color=65535*
%FSLAX44Y44*%
%MOMM*%
G71*
G01*
G75*
%ADD11C,0.1270*%
%ADD12C,0.0254*%
%ADD13C,0.0406*%
G36*
X116537Y70828D02*
X115333D01*
Y78465D01*
X115319Y78451D01*
X115259Y78391D01*
X115155Y78317D01*
X115021Y78213D01*
X114858Y78079D01*
X114665Y77945D01*
X114442Y77782D01*
X114189Y77633D01*
X114174D01*
X114160Y77619D01*
X114071Y77559D01*
X113937Y77485D01*
X113773Y77396D01*
X113580Y77292D01*
X113372Y77203D01*
X113149Y77098D01*
X112941Y77009D01*
Y78183D01*
X112956D01*
X112986Y78198D01*
X113045Y78228D01*
X113105Y78272D01*
X113194Y78317D01*
X113298Y78362D01*
X113535Y78495D01*
X113803Y78659D01*
X114100Y78852D01*
X114397Y79075D01*
X114680Y79313D01*
X114694Y79327D01*
X114709Y79342D01*
X114799Y79431D01*
X114932Y79565D01*
X115096Y79728D01*
X115274Y79937D01*
X115452Y80160D01*
X115616Y80397D01*
X115750Y80635D01*
X116537D01*
Y70828D01*
D02*
G37*
G36*
X106671Y80576D02*
X106938Y80561D01*
X107235Y80531D01*
X107518Y80486D01*
X107755Y80442D01*
X107770D01*
X107800Y80427D01*
X107830D01*
X107889Y80397D01*
X108053Y80353D01*
X108246Y80278D01*
X108469Y80189D01*
X108706Y80070D01*
X108944Y79922D01*
X109182Y79743D01*
X109197D01*
X109212Y79714D01*
X109316Y79625D01*
X109449Y79476D01*
X109613Y79283D01*
X109806Y79045D01*
X109999Y78763D01*
X110177Y78436D01*
X110341Y78064D01*
Y78050D01*
X110356Y78020D01*
X110371Y77960D01*
X110400Y77886D01*
X110430Y77797D01*
X110460Y77678D01*
X110504Y77544D01*
X110534Y77396D01*
X110564Y77232D01*
X110608Y77054D01*
X110668Y76668D01*
X110712Y76237D01*
X110727Y75761D01*
Y75746D01*
Y75717D01*
Y75657D01*
Y75568D01*
X110712Y75479D01*
Y75360D01*
X110697Y75093D01*
X110668Y74795D01*
X110608Y74454D01*
X110549Y74112D01*
X110460Y73785D01*
Y73770D01*
X110445Y73740D01*
X110430Y73696D01*
X110415Y73636D01*
X110356Y73488D01*
X110281Y73280D01*
X110192Y73057D01*
X110073Y72819D01*
X109940Y72581D01*
X109791Y72358D01*
X109776Y72329D01*
X109717Y72269D01*
X109642Y72165D01*
X109524Y72032D01*
X109405Y71898D01*
X109241Y71749D01*
X109078Y71601D01*
X108899Y71467D01*
X108885Y71452D01*
X108810Y71422D01*
X108706Y71363D01*
X108573Y71289D01*
X108409Y71214D01*
X108216Y71140D01*
X107993Y71066D01*
X107740Y70992D01*
X107711D01*
X107622Y70962D01*
X107488Y70947D01*
X107295Y70917D01*
X107072Y70887D01*
X106804Y70858D01*
X106507Y70843D01*
X106180Y70828D01*
X102674D01*
Y80590D01*
X106418D01*
X106671Y80576D01*
D02*
G37*
G36*
X100995Y79446D02*
X95705D01*
Y76400D01*
X100281D01*
Y75256D01*
X95705D01*
Y70828D01*
X94412D01*
Y80590D01*
X100995D01*
Y79446D01*
D02*
G37*
G36*
X2310995D02*
X2305705D01*
Y76400D01*
X2310281D01*
Y75256D01*
X2305705D01*
Y70828D01*
X2304412D01*
Y80590D01*
X2310995D01*
Y79446D01*
D02*
G37*
G36*
X2325363Y80620D02*
X2325556Y80590D01*
X2325779Y80546D01*
X2326032Y80486D01*
X2326284Y80397D01*
X2326537Y80278D01*
X2326552D01*
X2326567Y80264D01*
X2326656Y80219D01*
X2326775Y80145D01*
X2326923Y80041D01*
X2327087Y79907D01*
X2327265Y79743D01*
X2327429Y79550D01*
X2327577Y79342D01*
X2327592Y79313D01*
X2327637Y79238D01*
X2327696Y79119D01*
X2327755Y78971D01*
X2327815Y78778D01*
X2327874Y78569D01*
X2327919Y78347D01*
X2327934Y78094D01*
Y78064D01*
Y77990D01*
X2327919Y77871D01*
X2327889Y77723D01*
X2327845Y77544D01*
X2327785Y77351D01*
X2327711Y77143D01*
X2327592Y76950D01*
X2327577Y76920D01*
X2327533Y76861D01*
X2327444Y76772D01*
X2327339Y76653D01*
X2327191Y76519D01*
X2327027Y76385D01*
X2326819Y76237D01*
X2326582Y76118D01*
X2326597D01*
X2326626Y76103D01*
X2326671D01*
X2326730Y76073D01*
X2326879Y76029D01*
X2327072Y75939D01*
X2327280Y75835D01*
X2327503Y75687D01*
X2327726Y75509D01*
X2327919Y75286D01*
X2327934Y75256D01*
X2327993Y75167D01*
X2328067Y75033D01*
X2328172Y74855D01*
X2328261Y74632D01*
X2328335Y74364D01*
X2328394Y74052D01*
X2328409Y73711D01*
Y73696D01*
Y73651D01*
Y73592D01*
X2328394Y73503D01*
X2328380Y73384D01*
X2328365Y73265D01*
X2328335Y73116D01*
X2328290Y72968D01*
X2328186Y72626D01*
X2328112Y72433D01*
X2328008Y72255D01*
X2327904Y72076D01*
X2327785Y71898D01*
X2327637Y71719D01*
X2327473Y71541D01*
X2327458Y71526D01*
X2327429Y71497D01*
X2327384Y71467D01*
X2327310Y71407D01*
X2327221Y71333D01*
X2327102Y71259D01*
X2326968Y71185D01*
X2326834Y71110D01*
X2326671Y71021D01*
X2326492Y70947D01*
X2326299Y70873D01*
X2326091Y70798D01*
X2325868Y70739D01*
X2325631Y70709D01*
X2325378Y70679D01*
X2325125Y70665D01*
X2325007D01*
X2324917Y70679D01*
X2324799Y70694D01*
X2324680Y70709D01*
X2324531Y70724D01*
X2324382Y70754D01*
X2324041Y70843D01*
X2323684Y70992D01*
X2323506Y71066D01*
X2323342Y71170D01*
X2323164Y71289D01*
X2323001Y71422D01*
X2322986Y71437D01*
X2322971Y71452D01*
X2322926Y71497D01*
X2322867Y71556D01*
X2322807Y71645D01*
X2322733Y71734D01*
X2322644Y71838D01*
X2322570Y71957D01*
X2322391Y72255D01*
X2322243Y72596D01*
X2322109Y72983D01*
X2322065Y73191D01*
X2322035Y73414D01*
X2323238Y73577D01*
Y73562D01*
X2323253Y73532D01*
Y73473D01*
X2323283Y73414D01*
X2323327Y73235D01*
X2323402Y73012D01*
X2323491Y72775D01*
X2323610Y72522D01*
X2323758Y72299D01*
X2323922Y72106D01*
X2323952Y72091D01*
X2324011Y72032D01*
X2324115Y71972D01*
X2324264Y71883D01*
X2324427Y71809D01*
X2324635Y71734D01*
X2324873Y71675D01*
X2325125Y71660D01*
X2325215D01*
X2325274Y71675D01*
X2325423Y71690D01*
X2325616Y71734D01*
X2325853Y71809D01*
X2326091Y71898D01*
X2326329Y72046D01*
X2326552Y72240D01*
X2326582Y72269D01*
X2326641Y72344D01*
X2326730Y72463D01*
X2326849Y72641D01*
X2326953Y72849D01*
X2327042Y73101D01*
X2327102Y73384D01*
X2327131Y73696D01*
Y73711D01*
Y73726D01*
Y73770D01*
X2327117Y73829D01*
X2327102Y73978D01*
X2327057Y74171D01*
X2326998Y74379D01*
X2326894Y74617D01*
X2326760Y74840D01*
X2326582Y75048D01*
X2326552Y75078D01*
X2326492Y75137D01*
X2326374Y75211D01*
X2326210Y75315D01*
X2326017Y75419D01*
X2325779Y75494D01*
X2325527Y75553D01*
X2325229Y75583D01*
X2325096D01*
X2324992Y75568D01*
X2324873Y75553D01*
X2324724Y75538D01*
X2324561Y75509D01*
X2324382Y75464D01*
X2324516Y76519D01*
X2324590D01*
X2324650Y76504D01*
X2324843D01*
X2324977Y76519D01*
X2325170Y76549D01*
X2325378Y76593D01*
X2325601Y76668D01*
X2325839Y76757D01*
X2326076Y76891D01*
X2326106Y76905D01*
X2326180Y76965D01*
X2326270Y77069D01*
X2326389Y77203D01*
X2326507Y77366D01*
X2326597Y77574D01*
X2326671Y77827D01*
X2326700Y78124D01*
Y78139D01*
Y78154D01*
Y78228D01*
X2326671Y78347D01*
X2326641Y78510D01*
X2326597Y78674D01*
X2326507Y78852D01*
X2326403Y79045D01*
X2326255Y79208D01*
X2326240Y79223D01*
X2326180Y79283D01*
X2326076Y79357D01*
X2325943Y79431D01*
X2325779Y79521D01*
X2325586Y79580D01*
X2325363Y79639D01*
X2325111Y79654D01*
X2324992D01*
X2324858Y79625D01*
X2324709Y79595D01*
X2324516Y79550D01*
X2324323Y79461D01*
X2324130Y79357D01*
X2323937Y79208D01*
X2323922Y79194D01*
X2323862Y79134D01*
X2323788Y79030D01*
X2323699Y78882D01*
X2323595Y78703D01*
X2323506Y78480D01*
X2323417Y78213D01*
X2323357Y77901D01*
X2322154Y78109D01*
Y78124D01*
X2322168Y78168D01*
X2322183Y78228D01*
X2322198Y78302D01*
X2322228Y78406D01*
X2322258Y78525D01*
X2322362Y78792D01*
X2322480Y79090D01*
X2322659Y79402D01*
X2322867Y79699D01*
X2323134Y79966D01*
X2323149Y79981D01*
X2323164Y79996D01*
X2323209Y80026D01*
X2323283Y80070D01*
X2323357Y80115D01*
X2323446Y80174D01*
X2323669Y80308D01*
X2323952Y80427D01*
X2324293Y80531D01*
X2324665Y80605D01*
X2324873Y80635D01*
X2325215D01*
X2325363Y80620D01*
D02*
G37*
G36*
X2316671Y80576D02*
X2316938Y80561D01*
X2317235Y80531D01*
X2317518Y80486D01*
X2317755Y80442D01*
X2317770D01*
X2317800Y80427D01*
X2317830D01*
X2317889Y80397D01*
X2318053Y80353D01*
X2318246Y80278D01*
X2318469Y80189D01*
X2318706Y80070D01*
X2318944Y79922D01*
X2319182Y79743D01*
X2319197D01*
X2319212Y79714D01*
X2319316Y79625D01*
X2319449Y79476D01*
X2319613Y79283D01*
X2319806Y79045D01*
X2319999Y78763D01*
X2320177Y78436D01*
X2320341Y78064D01*
Y78050D01*
X2320356Y78020D01*
X2320371Y77960D01*
X2320400Y77886D01*
X2320430Y77797D01*
X2320460Y77678D01*
X2320504Y77544D01*
X2320534Y77396D01*
X2320564Y77232D01*
X2320608Y77054D01*
X2320668Y76668D01*
X2320712Y76237D01*
X2320727Y75761D01*
Y75746D01*
Y75717D01*
Y75657D01*
Y75568D01*
X2320712Y75479D01*
Y75360D01*
X2320697Y75093D01*
X2320668Y74795D01*
X2320608Y74454D01*
X2320549Y74112D01*
X2320460Y73785D01*
Y73770D01*
X2320445Y73740D01*
X2320430Y73696D01*
X2320415Y73636D01*
X2320356Y73488D01*
X2320281Y73280D01*
X2320192Y73057D01*
X2320073Y72819D01*
X2319940Y72581D01*
X2319791Y72358D01*
X2319776Y72329D01*
X2319717Y72269D01*
X2319642Y72165D01*
X2319524Y72032D01*
X2319405Y71898D01*
X2319241Y71749D01*
X2319078Y71601D01*
X2318900Y71467D01*
X2318885Y71452D01*
X2318810Y71422D01*
X2318706Y71363D01*
X2318573Y71289D01*
X2318409Y71214D01*
X2318216Y71140D01*
X2317993Y71066D01*
X2317740Y70992D01*
X2317711D01*
X2317622Y70962D01*
X2317488Y70947D01*
X2317295Y70917D01*
X2317072Y70887D01*
X2316804Y70858D01*
X2316507Y70843D01*
X2316180Y70828D01*
X2312674D01*
Y80590D01*
X2316418D01*
X2316671Y80576D01*
D02*
G37*
%LPC*%
G36*
X106002Y79446D02*
X103966D01*
Y71972D01*
X106195D01*
X106359Y71987D01*
X106581Y72002D01*
X106819Y72017D01*
X107072Y72046D01*
X107310Y72091D01*
X107533Y72151D01*
X107562Y72165D01*
X107622Y72180D01*
X107726Y72225D01*
X107844Y72284D01*
X107993Y72358D01*
X108142Y72433D01*
X108275Y72537D01*
X108409Y72656D01*
X108424Y72670D01*
X108483Y72745D01*
X108573Y72849D01*
X108677Y72983D01*
X108781Y73161D01*
X108899Y73369D01*
X109018Y73622D01*
X109122Y73889D01*
Y73904D01*
X109137Y73919D01*
X109152Y73963D01*
X109167Y74023D01*
X109182Y74097D01*
X109212Y74186D01*
X109256Y74409D01*
X109301Y74691D01*
X109345Y75018D01*
X109375Y75375D01*
X109390Y75776D01*
Y75791D01*
Y75850D01*
Y75925D01*
Y76029D01*
X109375Y76162D01*
X109360Y76311D01*
X109345Y76474D01*
X109330Y76638D01*
X109271Y77024D01*
X109182Y77410D01*
X109048Y77782D01*
X108974Y77960D01*
X108885Y78124D01*
Y78139D01*
X108855Y78154D01*
X108840Y78198D01*
X108795Y78257D01*
X108692Y78406D01*
X108543Y78569D01*
X108365Y78763D01*
X108157Y78941D01*
X107919Y79104D01*
X107666Y79238D01*
X107636Y79253D01*
X107562Y79268D01*
X107443Y79298D01*
X107265Y79342D01*
X107027Y79387D01*
X106745Y79416D01*
X106403Y79431D01*
X106002Y79446D01*
D02*
G37*
G36*
X2316002D02*
X2313966D01*
Y71972D01*
X2316195D01*
X2316359Y71987D01*
X2316582Y72002D01*
X2316819Y72017D01*
X2317072Y72046D01*
X2317310Y72091D01*
X2317533Y72151D01*
X2317562Y72165D01*
X2317622Y72180D01*
X2317726Y72225D01*
X2317845Y72284D01*
X2317993Y72358D01*
X2318142Y72433D01*
X2318275Y72537D01*
X2318409Y72656D01*
X2318424Y72670D01*
X2318483Y72745D01*
X2318573Y72849D01*
X2318677Y72983D01*
X2318781Y73161D01*
X2318900Y73369D01*
X2319018Y73622D01*
X2319122Y73889D01*
Y73904D01*
X2319137Y73919D01*
X2319152Y73963D01*
X2319167Y74023D01*
X2319182Y74097D01*
X2319212Y74186D01*
X2319256Y74409D01*
X2319301Y74691D01*
X2319345Y75018D01*
X2319375Y75375D01*
X2319390Y75776D01*
Y75791D01*
Y75850D01*
Y75925D01*
Y76029D01*
X2319375Y76162D01*
X2319360Y76311D01*
X2319345Y76474D01*
X2319330Y76638D01*
X2319271Y77024D01*
X2319182Y77410D01*
X2319048Y77782D01*
X2318974Y77960D01*
X2318885Y78124D01*
Y78139D01*
X2318855Y78154D01*
X2318840Y78198D01*
X2318795Y78257D01*
X2318692Y78406D01*
X2318543Y78569D01*
X2318365Y78763D01*
X2318157Y78941D01*
X2317919Y79104D01*
X2317666Y79238D01*
X2317637Y79253D01*
X2317562Y79268D01*
X2317443Y79298D01*
X2317265Y79342D01*
X2317027Y79387D01*
X2316745Y79416D01*
X2316403Y79431D01*
X2316002Y79446D01*
D02*
G37*
%LPD*%
D11*
X2317874Y50000D02*
G03*
X2317874Y50000I-7874J0D01*
G01*
X107874D02*
G03*
X107874Y50000I-7874J0D01*
G01*
D12*
X2376165Y62572D02*
X2385145D01*
X2376165D02*
X2394125Y80533D01*
X2372572Y66164D02*
X2390533Y84125D01*
X2372572Y66164D02*
Y75145D01*
X37428Y66164D02*
Y75145D01*
X19467Y84125D02*
X37428Y66164D01*
X15875Y80533D02*
X33835Y62572D01*
X24855D02*
X33835D01*
D13*
X297684Y73039D02*
X361083D01*
X296872Y72632D02*
X361083D01*
X296059Y72226D02*
X361083D01*
X295246Y71820D02*
X361083D01*
X294840Y71413D02*
X360676D01*
X294433Y71007D02*
X360676D01*
X294027Y70600D02*
X308657D01*
X315972D02*
X334667D01*
X352548D02*
X353361D01*
X354580D02*
X354987D01*
X355393D02*
X356206D01*
X357425D02*
X360270D01*
X294027Y70194D02*
X297684D01*
X357425D02*
X360270D01*
X293620Y69788D02*
X297278D01*
X357019D02*
X360270D01*
X293620Y69381D02*
X296465D01*
X357019D02*
X359864D01*
X293214Y68975D02*
X296465D01*
X300123D02*
X300529D01*
X300936D02*
X301748D01*
X331416D02*
X331822D01*
X352955D02*
X353361D01*
X357019D02*
X359864D01*
X293214Y68568D02*
X296059D01*
X299716D02*
X320036D01*
X331009D02*
X353768D01*
X356612D02*
X359457D01*
X292808Y68162D02*
X296059D01*
X298904D02*
X320443D01*
X329790D02*
X354174D01*
X356612D02*
X359457D01*
X292808Y67756D02*
X295652D01*
X298497D02*
X320443D01*
X329790D02*
X354174D01*
X356612D02*
X359457D01*
X292401Y67349D02*
X295652D01*
X298091D02*
X320443D01*
X328977D02*
X354174D01*
X356206D02*
X359051D01*
X292401Y66943D02*
X295652D01*
X298091D02*
X320036D01*
X328164D02*
X353768D01*
X356206D02*
X359051D01*
X292401Y66536D02*
X295246D01*
X297684D02*
X320036D01*
X327758D02*
X353768D01*
X356206D02*
X359051D01*
X292401Y66130D02*
X295246D01*
X297684D02*
X320036D01*
X326945D02*
X353768D01*
X355800D02*
X359051D01*
X291995Y65724D02*
X295246D01*
X297278D02*
X319630D01*
X326132D02*
X353361D01*
X355800D02*
X358644D01*
X291995Y65317D02*
X294840D01*
X297278D02*
X319630D01*
X325726D02*
X353361D01*
X355800D02*
X358644D01*
X291995Y64911D02*
X294840D01*
X297278D02*
X319630D01*
X324913D02*
X352955D01*
X355393D02*
X358644D01*
X291588Y64504D02*
X294840D01*
X296872D02*
X319224D01*
X324507D02*
X352955D01*
X355393D02*
X358238D01*
X291588Y64098D02*
X294433D01*
X296872D02*
X319224D01*
X323694D02*
X352955D01*
X354987D02*
X358238D01*
X291588Y63692D02*
X294433D01*
X296465D02*
X318817D01*
X323288D02*
X352548D01*
X354987D02*
X357832D01*
X291182Y63285D02*
X294433D01*
X296465D02*
X318817D01*
X322475D02*
X352548D01*
X354987D02*
X357832D01*
X291182Y62879D02*
X294027D01*
X296465D02*
X318817D01*
X321662D02*
X352548D01*
X354580D02*
X357832D01*
X291182Y62472D02*
X294027D01*
X296059D02*
X318411D01*
X321256D02*
X352142D01*
X354580D02*
X357832D01*
X290776Y62066D02*
X294027D01*
X296059D02*
X318411D01*
X320036D02*
X352142D01*
X354580D02*
X357425D01*
X290776Y61660D02*
X293620D01*
X295652D02*
X318004D01*
X319630D02*
X351736D01*
X354174D02*
X357425D01*
X290776Y61253D02*
X293620D01*
X295652D02*
X318004D01*
X318817D02*
X351736D01*
X354174D02*
X357019D01*
X290369Y60847D02*
X293620D01*
X295652D02*
X318004D01*
X318411D02*
X351736D01*
X354174D02*
X357019D01*
X290369Y60440D02*
X293214D01*
X295652D02*
X351329D01*
X353768D02*
X357019D01*
X290369Y60034D02*
X293214D01*
X295652D02*
X317192D01*
X318411D02*
X350923D01*
X353768D02*
X356612D01*
X289963Y59628D02*
X293214D01*
X303374D02*
X312721D01*
X353768D02*
X356612D01*
X289963Y59221D02*
X292808D01*
X303374D02*
X312721D01*
X317598D02*
X318004D01*
X353361D02*
X356612D01*
X289963Y58815D02*
X292808D01*
X302968D02*
X312315D01*
X316785D02*
X324913D01*
X335073D02*
X337105D01*
X342388D02*
X350516D01*
X353361D02*
X356612D01*
X289556Y58408D02*
X292808D01*
X302968D02*
X312315D01*
X316379D02*
X324913D01*
X333448D02*
X339137D01*
X341982D02*
X350516D01*
X353361D02*
X356206D01*
X289556Y58002D02*
X292401D01*
X302968D02*
X312315D01*
X315972D02*
X324913D01*
X331822D02*
X339950D01*
X341576D02*
X350516D01*
X352955D02*
X356206D01*
X289150Y57596D02*
X292401D01*
X302561D02*
X311908D01*
X315972D02*
X324913D01*
X331009D02*
X340763D01*
X341576D02*
X350516D01*
X352955D02*
X355800D01*
X289150Y57189D02*
X291995D01*
X302561D02*
X311908D01*
X315972D02*
X324507D01*
X330196D02*
X350516D01*
X352955D02*
X355800D01*
X289150Y56783D02*
X291995D01*
X302561D02*
X311502D01*
X315566D02*
X324507D01*
X329790D02*
X350110D01*
X352548D02*
X355800D01*
X289150Y56376D02*
X291995D01*
X302155D02*
X311502D01*
X315566D02*
X324507D01*
X329384D02*
X350110D01*
X352548D02*
X355393D01*
X288744Y55970D02*
X291995D01*
X302155D02*
X311502D01*
X315160D02*
X324507D01*
X328571D02*
X349704D01*
X352548D02*
X355393D01*
X288744Y55564D02*
X291588D01*
X302155D02*
X311096D01*
X315160D02*
X324100D01*
X328164D02*
X349704D01*
X352142D02*
X354987D01*
X288337Y55157D02*
X291588D01*
X301748D02*
X311096D01*
X315160D02*
X324100D01*
X327758D02*
X337105D01*
X339137D02*
X349704D01*
X352142D02*
X354987D01*
X288337Y54751D02*
X291588D01*
X301748D02*
X311096D01*
X314753D02*
X323694D01*
X327758D02*
X336699D01*
X339544D02*
X349297D01*
X351736D02*
X354987D01*
X288337Y54344D02*
X291182D01*
X301748D02*
X310689D01*
X314753D02*
X323694D01*
X327352D02*
X336292D01*
X339544D02*
X349297D01*
X351736D02*
X354580D01*
X288337Y53938D02*
X291588D01*
X301342D02*
X310689D01*
X314753D02*
X323694D01*
X326945D02*
X336292D01*
X339544D02*
X349297D01*
X351736D02*
X354580D01*
X287931Y53532D02*
X291182D01*
X301342D02*
X310283D01*
X314347D02*
X323288D01*
X326539D02*
X336292D01*
X339950D02*
X348891D01*
X351329D02*
X354174D01*
X287931Y53125D02*
X290776D01*
X301342D02*
X310283D01*
X314347D02*
X323288D01*
X326539D02*
X336292D01*
X339950D02*
X348891D01*
X351329D02*
X354174D01*
X287524Y52719D02*
X290776D01*
X300936D02*
X310283D01*
X314347D02*
X323288D01*
X326132D02*
X335886D01*
X339950D02*
X348891D01*
X351329D02*
X354174D01*
X287524Y52312D02*
X290776D01*
X300936D02*
X309876D01*
X313940D02*
X322881D01*
X326132D02*
X335886D01*
X339950D02*
X348484D01*
X350923D02*
X354174D01*
X287524Y51906D02*
X290369D01*
X300529D02*
X309876D01*
X313940D02*
X322881D01*
X325726D02*
X335480D01*
X339544D02*
X348484D01*
X350923D02*
X353768D01*
X287118Y51500D02*
X290369D01*
X300529D02*
X309876D01*
X313940D02*
X322881D01*
X325726D02*
X335480D01*
X339544D02*
X348078D01*
X350923D02*
X353768D01*
X287118Y51093D02*
X290369D01*
X300529D02*
X309470D01*
X313534D02*
X322475D01*
X325726D02*
X335073D01*
X339544D02*
X348078D01*
X350516D02*
X353768D01*
X287118Y50687D02*
X289963D01*
X300123D02*
X309470D01*
X313534D02*
X322475D01*
X325320D02*
X335073D01*
X339137D02*
X348078D01*
X350516D02*
X353361D01*
X286712Y50280D02*
X289963D01*
X300123D02*
X309064D01*
X313534D02*
X322068D01*
X325320D02*
X335073D01*
X339137D02*
X348078D01*
X350516D02*
X353361D01*
X286712Y49874D02*
X289963D01*
X300123D02*
X309064D01*
X313128D02*
X322068D01*
X325320D02*
X335073D01*
X339137D02*
X347672D01*
X350110D02*
X353361D01*
X286712Y49468D02*
X289556D01*
X299716D02*
X309064D01*
X313128D02*
X322068D01*
X324913D02*
X334667D01*
X338731D02*
X347672D01*
X350110D02*
X352955D01*
X286305Y49061D02*
X289556D01*
X299716D02*
X308657D01*
X312721D02*
X321662D01*
X324913D02*
X334667D01*
X338731D02*
X347265D01*
X350110D02*
X352955D01*
X286305Y48655D02*
X289556D01*
X299716D02*
X308657D01*
X312721D02*
X321662D01*
X324913D02*
X334260D01*
X338324D02*
X347265D01*
X349704D02*
X352955D01*
X285899Y48248D02*
X289150D01*
X299310D02*
X308657D01*
X312721D02*
X321256D01*
X324913D02*
X334260D01*
X338324D02*
X347265D01*
X349704D02*
X352548D01*
X285899Y47842D02*
X289150D01*
X299310D02*
X308251D01*
X312315D02*
X321256D01*
X324913D02*
X334260D01*
X338324D02*
X346859D01*
X349297D02*
X352548D01*
X285899Y47436D02*
X288744D01*
X298904D02*
X308251D01*
X312315D02*
X321256D01*
X324913D02*
X334260D01*
X337918D02*
X346859D01*
X349297D02*
X352548D01*
X285899Y47029D02*
X288744D01*
X298904D02*
X308251D01*
X311908D02*
X320849D01*
X324913D02*
X333854D01*
X337918D02*
X346452D01*
X349297D02*
X352142D01*
X285492Y46623D02*
X288744D01*
X298904D02*
X307844D01*
X311908D02*
X320849D01*
X324913D02*
X333854D01*
X337918D02*
X346452D01*
X348891D02*
X352142D01*
X285492Y46216D02*
X288337D01*
X298497D02*
X307844D01*
X311908D02*
X320849D01*
X325320D02*
X334260D01*
X337512D02*
X346452D01*
X348891D02*
X351736D01*
X285086Y45810D02*
X288337D01*
X298497D02*
X307844D01*
X311502D02*
X320443D01*
X325320D02*
X334260D01*
X337105D02*
X346046D01*
X348891D02*
X351736D01*
X285086Y45404D02*
X288337D01*
X298497D02*
X307438D01*
X311502D02*
X320443D01*
X325320D02*
X335073D01*
X336699D02*
X346046D01*
X348484D02*
X351736D01*
X285086Y44997D02*
X287931D01*
X298091D02*
X307438D01*
X311502D02*
X320443D01*
X325726D02*
X346046D01*
X348484D02*
X351329D01*
X285086Y44591D02*
X287931D01*
X298091D02*
X307438D01*
X311096D02*
X320036D01*
X325726D02*
X345640D01*
X348484D02*
X351329D01*
X284680Y44184D02*
X287931D01*
X298091D02*
X307032D01*
X311096D02*
X320036D01*
X326132D02*
X345640D01*
X348078D02*
X351329D01*
X284680Y43778D02*
X287524D01*
X297684D02*
X307032D01*
X311096D02*
X320036D01*
X326132D02*
X345640D01*
X348078D02*
X350923D01*
X284680Y43372D02*
X287524D01*
X297684D02*
X306625D01*
X310689D02*
X319630D01*
X326539D02*
X345233D01*
X348078D02*
X350923D01*
X284273Y42965D02*
X287118D01*
X297278D02*
X306625D01*
X310689D02*
X319224D01*
X326945D02*
X344827D01*
X347672D02*
X350516D01*
X284273Y42559D02*
X287118D01*
X297278D02*
X306219D01*
X310283D02*
X318817D01*
X327352D02*
X344827D01*
X347672D02*
X350516D01*
X283867Y42152D02*
X287118D01*
X297278D02*
X305812D01*
X310283D02*
X318817D01*
X327758D02*
X344014D01*
X347672D02*
X350516D01*
X283867Y41746D02*
X286712D01*
X296872D02*
X305406D01*
X310283D02*
X318004D01*
X328164D02*
X343608D01*
X347265D02*
X350516D01*
X283867Y41340D02*
X286712D01*
X296872D02*
X304593D01*
X309876D02*
X317192D01*
X328977D02*
X335073D01*
X335480D02*
X342795D01*
X347265D02*
X350110D01*
X283460Y40933D02*
X286712D01*
X297278D02*
X302561D01*
X310283D02*
X315972D01*
X330196D02*
X333448D01*
X335886D02*
X341169D01*
X347265D02*
X350110D01*
X283460Y40527D02*
X286712D01*
X346859D02*
X349704D01*
X283460Y40120D02*
X286305D01*
X346859D02*
X349704D01*
X283054Y39714D02*
X286305D01*
X287931D02*
X343201D01*
X346859D02*
X349704D01*
X283054Y39308D02*
X285899D01*
X287931D02*
X343608D01*
X346452D02*
X349704D01*
X283054Y38901D02*
X285899D01*
X287524D02*
X343608D01*
X346452D02*
X349297D01*
X282648Y38495D02*
X285492D01*
X287524D02*
X343608D01*
X346046D02*
X349297D01*
X282648Y38088D02*
X285492D01*
X287118D02*
X343201D01*
X346046D02*
X348891D01*
X282648Y37682D02*
X285492D01*
X287118D02*
X343201D01*
X346046D02*
X348891D01*
X282241Y37276D02*
X285086D01*
X287118D02*
X343201D01*
X346046D02*
X348891D01*
X282241Y36869D02*
X285086D01*
X286712D02*
X342795D01*
X345640D02*
X348484D01*
X282241Y36463D02*
X285086D01*
X286712D02*
X342795D01*
X345640D02*
X348484D01*
X281835Y36056D02*
X284680D01*
X286712D02*
X342388D01*
X345233D02*
X348078D01*
X281835Y35650D02*
X284680D01*
X286305D02*
X342388D01*
X345233D02*
X348078D01*
X281428Y35244D02*
X284680D01*
X286305D02*
X342388D01*
X345233D02*
X348078D01*
X281428Y34837D02*
X284273D01*
X285899D02*
X341982D01*
X344827D02*
X348078D01*
X281428Y34431D02*
X284273D01*
X285899D02*
X341982D01*
X344827D02*
X347672D01*
X281022Y34024D02*
X284273D01*
X285899D02*
X341576D01*
X344827D02*
X347672D01*
X281022Y33618D02*
X283867D01*
X285492D02*
X341576D01*
X344420D02*
X347672D01*
X281022Y33212D02*
X283867D01*
X285492D02*
X341169D01*
X344420D02*
X347265D01*
X281022Y32805D02*
X283867D01*
X285492D02*
X341169D01*
X344420D02*
X347265D01*
X280616Y32399D02*
X283460D01*
X285086D02*
X340763D01*
X344014D02*
X347265D01*
X280616Y31992D02*
X283460D01*
X285086D02*
X340356D01*
X344014D02*
X346859D01*
X280209Y31586D02*
X283460D01*
X285086D02*
X339544D01*
X343608D02*
X346859D01*
X280209Y31180D02*
X283054D01*
X285086D02*
X338324D01*
X343608D02*
X346452D01*
X280209Y30773D02*
X283054D01*
X285086D02*
X336292D01*
X343608D02*
X346452D01*
X279803Y30367D02*
X283054D01*
X343201D02*
X346452D01*
X279803Y29960D02*
X282648D01*
X342795D02*
X346046D01*
X279803Y29554D02*
X282648D01*
X342388D02*
X346046D01*
X279396Y29148D02*
X282648D01*
X341169D02*
X345640D01*
X279396Y28741D02*
X345233D01*
X279396Y28335D02*
X344827D01*
X278990Y27928D02*
X344420D01*
X278990Y27522D02*
X344014D01*
X278990Y27116D02*
X343608D01*
X278990Y26709D02*
X342795D01*
X278990Y26303D02*
X341982D01*
X2063690Y26903D02*
X2126682D01*
X2063690Y27309D02*
X2127495D01*
X2063690Y27716D02*
X2128308D01*
X2063690Y28122D02*
X2128714D01*
X2063690Y28528D02*
X2129120D01*
X2064096Y28935D02*
X2129527D01*
X2064096Y29341D02*
X2129933D01*
X2125869Y29748D02*
X2130340D01*
X2064096D02*
X2067348D01*
X2127088Y30154D02*
X2130746D01*
X2064503D02*
X2067348D01*
X2127495Y30560D02*
X2130746D01*
X2064503D02*
X2067348D01*
X2127901Y30967D02*
X2131152D01*
X2064503D02*
X2067754D01*
X2128308Y31373D02*
X2131152D01*
X2069786D02*
X2120992D01*
X2064909D02*
X2067754D01*
X2128308Y31780D02*
X2131152D01*
X2069786D02*
X2123024D01*
X2064909D02*
X2067754D01*
X2128308Y32186D02*
X2131559D01*
X2069786D02*
X2124244D01*
X2064909D02*
X2068160D01*
X2128714Y32592D02*
X2131559D01*
X2069786D02*
X2125056D01*
X2065316D02*
X2068160D01*
X2128714Y32999D02*
X2131965D01*
X2069786D02*
X2125463D01*
X2065316D02*
X2068160D01*
X2129120Y33405D02*
X2131965D01*
X2070192D02*
X2125869D01*
X2065722D02*
X2068567D01*
X2129120Y33812D02*
X2131965D01*
X2070192D02*
X2125869D01*
X2065722D02*
X2068567D01*
X2129120Y34218D02*
X2132372D01*
X2070192D02*
X2126276D01*
X2065722D02*
X2068567D01*
X2129527Y34624D02*
X2132372D01*
X2070599D02*
X2126276D01*
X2065722D02*
X2068973D01*
X2129527Y35031D02*
X2132372D01*
X2070599D02*
X2126682D01*
X2066128D02*
X2068973D01*
X2129527Y35437D02*
X2132778D01*
X2070599D02*
X2126682D01*
X2066128D02*
X2068973D01*
X2129933Y35844D02*
X2132778D01*
X2071005D02*
X2127088D01*
X2066128D02*
X2069380D01*
X2129933Y36250D02*
X2132778D01*
X2071005D02*
X2127088D01*
X2066535D02*
X2069380D01*
X2129933Y36656D02*
X2132778D01*
X2071412D02*
X2127088D01*
X2066535D02*
X2069380D01*
X2130340Y37063D02*
X2133184D01*
X2071412D02*
X2127495D01*
X2066941D02*
X2069786D01*
X2130340Y37469D02*
X2133184D01*
X2071412D02*
X2127495D01*
X2066941D02*
X2069786D01*
X2130746Y37876D02*
X2133591D01*
X2071818D02*
X2127901D01*
X2066941D02*
X2069786D01*
X2130746Y38282D02*
X2133591D01*
X2071818D02*
X2127901D01*
X2067348D02*
X2070192D01*
X2130746Y38688D02*
X2133591D01*
X2071818D02*
X2127901D01*
X2067348D02*
X2070192D01*
X2130746Y39095D02*
X2133997D01*
X2072224D02*
X2128308D01*
X2067348D02*
X2070192D01*
X2131152Y39501D02*
X2133997D01*
X2072224D02*
X2128308D01*
X2067754D02*
X2070599D01*
X2131152Y39908D02*
X2134404D01*
X2072631D02*
X2128308D01*
X2067754D02*
X2070599D01*
X2131559Y40314D02*
X2134404D01*
X2072631D02*
X2127901D01*
X2067754D02*
X2071005D01*
X2131559Y40720D02*
X2134404D01*
X2068160D02*
X2071005D01*
X2131559Y41127D02*
X2134404D01*
X2068160D02*
X2071412D01*
X2131965Y41533D02*
X2134810D01*
X2120586D02*
X2125869D01*
X2114896D02*
X2118148D01*
X2094983D02*
X2100672D01*
X2081978D02*
X2087261D01*
X2068160D02*
X2071412D01*
X2131965Y41940D02*
X2134810D01*
X2120180D02*
X2127495D01*
X2113677D02*
X2119773D01*
X2094576D02*
X2101892D01*
X2081572D02*
X2089293D01*
X2068567D02*
X2071412D01*
X2131965Y42346D02*
X2135216D01*
X2112864D02*
X2128308D01*
X2094983D02*
X2102704D01*
X2081572D02*
X2090106D01*
X2068567D02*
X2071412D01*
X2132372Y42752D02*
X2135216D01*
X2112458D02*
X2128714D01*
X2094983D02*
X2103517D01*
X2081978D02*
X2090512D01*
X2068567D02*
X2071818D01*
X2132372Y43159D02*
X2135216D01*
X2112052D02*
X2129527D01*
X2094983D02*
X2103517D01*
X2081978D02*
X2090919D01*
X2068973D02*
X2071818D01*
X2132372Y43565D02*
X2135216D01*
X2111645D02*
X2129527D01*
X2095389D02*
X2103924D01*
X2081978D02*
X2091325D01*
X2068973D02*
X2071818D01*
X2132778Y43972D02*
X2135623D01*
X2111239D02*
X2129933D01*
X2095389D02*
X2104330D01*
X2082384D02*
X2091325D01*
X2069380D02*
X2072224D01*
X2132778Y44378D02*
X2135623D01*
X2110832D02*
X2130340D01*
X2095796D02*
X2104736D01*
X2082384D02*
X2091732D01*
X2069380D02*
X2072224D01*
X2132778Y44784D02*
X2136029D01*
X2110832D02*
X2130340D01*
X2095796D02*
X2104736D01*
X2082791D02*
X2091732D01*
X2069380D02*
X2072631D01*
X2133184Y45191D02*
X2136029D01*
X2110426D02*
X2130340D01*
X2095796D02*
X2104736D01*
X2082791D02*
X2092138D01*
X2069786D02*
X2072631D01*
X2133184Y45597D02*
X2136029D01*
X2110426D02*
X2130746D01*
X2096202D02*
X2105143D01*
X2082791D02*
X2092138D01*
X2069786D02*
X2072631D01*
X2133184Y46004D02*
X2136436D01*
X2121399D02*
X2130746D01*
X2110020D02*
X2119773D01*
X2096202D02*
X2105143D01*
X2083197D02*
X2092138D01*
X2069786D02*
X2073037D01*
X2133591Y46410D02*
X2136436D01*
X2121805D02*
X2130746D01*
X2110020D02*
X2118960D01*
X2096202D02*
X2105143D01*
X2083197D02*
X2092544D01*
X2069786D02*
X2073037D01*
X2133591Y46816D02*
X2136436D01*
X2122212D02*
X2131152D01*
X2110020D02*
X2118960D01*
X2096608D02*
X2105549D01*
X2083197D02*
X2092544D01*
X2070192D02*
X2073037D01*
X2133591Y47223D02*
X2136842D01*
X2122618D02*
X2131152D01*
X2109613D02*
X2118554D01*
X2096608D02*
X2105549D01*
X2083604D02*
X2092544D01*
X2070192D02*
X2073444D01*
X2133997Y47629D02*
X2136842D01*
X2122618D02*
X2131152D01*
X2109613D02*
X2118554D01*
X2096608D02*
X2105549D01*
X2083604D02*
X2092951D01*
X2070599D02*
X2073444D01*
X2133997Y48036D02*
X2137248D01*
X2122618D02*
X2131559D01*
X2109613D02*
X2118960D01*
X2097015D02*
X2105956D01*
X2083604D02*
X2092951D01*
X2070599D02*
X2073444D01*
X2133997Y48442D02*
X2137248D01*
X2123024D02*
X2131559D01*
X2109613D02*
X2118960D01*
X2097015D02*
X2105956D01*
X2084010D02*
X2092951D01*
X2070599D02*
X2073850D01*
X2134404Y48848D02*
X2137248D01*
X2123024D02*
X2131965D01*
X2109613D02*
X2118960D01*
X2097421D02*
X2105956D01*
X2084010D02*
X2093357D01*
X2070599D02*
X2073850D01*
X2134404Y49255D02*
X2137655D01*
X2123024D02*
X2131965D01*
X2109613D02*
X2118960D01*
X2097421D02*
X2106362D01*
X2084416D02*
X2093357D01*
X2071005D02*
X2074256D01*
X2134810Y49661D02*
X2137655D01*
X2123431D02*
X2131965D01*
X2109613D02*
X2119367D01*
X2097421D02*
X2106362D01*
X2084416D02*
X2093357D01*
X2071005D02*
X2074256D01*
X2134810Y50068D02*
X2137655D01*
X2123431D02*
X2132372D01*
X2109613D02*
X2119367D01*
X2097828D02*
X2106768D01*
X2084416D02*
X2093764D01*
X2071412D02*
X2074256D01*
X2134810Y50474D02*
X2138061D01*
X2123837D02*
X2132372D01*
X2110020D02*
X2119773D01*
X2097828D02*
X2106768D01*
X2084823D02*
X2093764D01*
X2071412D02*
X2074663D01*
X2135216Y50880D02*
X2138061D01*
X2123837D02*
X2132778D01*
X2110020D02*
X2119773D01*
X2098234D02*
X2106768D01*
X2084823D02*
X2093764D01*
X2071412D02*
X2074663D01*
X2135216Y51287D02*
X2138061D01*
X2123837D02*
X2132778D01*
X2110020D02*
X2119773D01*
X2098234D02*
X2107175D01*
X2084823D02*
X2094170D01*
X2071818D02*
X2074663D01*
X2135216Y51693D02*
X2138468D01*
X2124244D02*
X2132778D01*
X2110426D02*
X2119773D01*
X2098234D02*
X2107175D01*
X2085229D02*
X2094170D01*
X2071818D02*
X2075069D01*
X2135623Y52100D02*
X2138468D01*
X2124244D02*
X2132778D01*
X2110426D02*
X2120180D01*
X2098640D02*
X2107581D01*
X2085229D02*
X2094576D01*
X2071818D02*
X2075069D01*
X2135623Y52506D02*
X2138468D01*
X2124244D02*
X2133184D01*
X2110426D02*
X2120180D01*
X2098640D02*
X2107581D01*
X2085229D02*
X2094576D01*
X2072224D02*
X2075069D01*
X2135623Y52912D02*
X2138874D01*
X2124650D02*
X2133184D01*
X2110832D02*
X2120586D01*
X2098640D02*
X2107581D01*
X2085636D02*
X2094576D01*
X2072224D02*
X2075476D01*
X2136029Y53319D02*
X2138874D01*
X2124650D02*
X2133591D01*
X2110832D02*
X2120586D01*
X2099047D02*
X2107988D01*
X2085636D02*
X2094983D01*
X2072224D02*
X2075476D01*
X2136029Y53725D02*
X2138874D01*
X2124650D02*
X2133591D01*
X2111239D02*
X2120992D01*
X2099047D02*
X2107988D01*
X2086042D02*
X2094983D01*
X2072631D02*
X2075476D01*
X2136029Y54132D02*
X2138874D01*
X2124650D02*
X2133591D01*
X2111239D02*
X2120992D01*
X2099047D02*
X2107988D01*
X2086042D02*
X2094983D01*
X2072631D02*
X2075882D01*
X2136436Y54538D02*
X2139280D01*
X2124244D02*
X2133997D01*
X2111645D02*
X2120992D01*
X2099453D02*
X2108394D01*
X2086042D02*
X2095389D01*
X2073037D02*
X2076288D01*
X2136436Y54944D02*
X2139280D01*
X2124244D02*
X2133997D01*
X2112052D02*
X2120992D01*
X2099453D02*
X2108394D01*
X2086448D02*
X2095389D01*
X2073037D02*
X2075882D01*
X2136436Y55351D02*
X2139687D01*
X2124244D02*
X2133997D01*
X2112458D02*
X2121399D01*
X2099453D02*
X2108394D01*
X2086448D02*
X2095796D01*
X2073037D02*
X2076288D01*
X2136842Y55757D02*
X2139687D01*
X2123837D02*
X2134404D01*
X2112458D02*
X2121805D01*
X2099860D02*
X2108800D01*
X2086448D02*
X2095796D01*
X2073037D02*
X2076288D01*
X2136842Y56164D02*
X2139687D01*
X2112864D02*
X2134404D01*
X2099860D02*
X2108800D01*
X2086855D02*
X2095796D01*
X2073444D02*
X2076288D01*
X2137248Y56570D02*
X2140093D01*
X2113271D02*
X2134404D01*
X2099860D02*
X2109207D01*
X2086855D02*
X2096202D01*
X2073444D02*
X2076695D01*
X2137248Y56976D02*
X2140093D01*
X2114084D02*
X2134810D01*
X2100266D02*
X2109207D01*
X2086855D02*
X2096202D01*
X2073850D02*
X2076695D01*
X2137248Y57383D02*
X2140500D01*
X2114490D02*
X2134810D01*
X2100266D02*
X2109207D01*
X2087261D02*
X2096202D01*
X2073850D02*
X2076695D01*
X2137655Y57789D02*
X2140500D01*
X2114896D02*
X2135216D01*
X2100672D02*
X2109207D01*
X2087261D02*
X2096608D01*
X2073850D02*
X2076695D01*
X2137655Y58196D02*
X2140500D01*
X2126276D02*
X2135216D01*
X2115709D02*
X2125463D01*
X2100672D02*
X2109613D01*
X2087261D02*
X2096608D01*
X2073850D02*
X2077101D01*
X2137655Y58602D02*
X2140906D01*
X2126276D02*
X2135216D01*
X2116522D02*
X2124650D01*
X2100672D02*
X2109613D01*
X2087668D02*
X2097015D01*
X2074256D02*
X2077101D01*
X2138061Y59008D02*
X2140906D01*
X2126682D02*
X2135216D01*
X2118148D02*
X2123837D01*
X2101079D02*
X2109613D01*
X2087668D02*
X2097015D01*
X2074256D02*
X2077508D01*
X2138061Y59415D02*
X2141312D01*
X2127088D02*
X2135216D01*
X2119773D02*
X2121805D01*
X2101485D02*
X2109613D01*
X2087668D02*
X2097015D01*
X2074663D02*
X2077508D01*
X2138061Y59821D02*
X2141312D01*
X2102298D02*
X2102704D01*
X2088074D02*
X2097421D01*
X2074663D02*
X2077508D01*
X2138468Y60228D02*
X2141312D01*
X2088074D02*
X2097421D01*
X2074663D02*
X2077914D01*
X2138468Y60634D02*
X2141312D01*
X2103111D02*
X2135623D01*
X2080352D02*
X2101892D01*
X2075069D02*
X2077914D01*
X2138468Y61040D02*
X2141719D01*
X2080352D02*
X2136029D01*
X2075069D02*
X2077914D01*
X2138874Y61447D02*
X2141719D01*
X2103111D02*
X2136436D01*
X2080352D02*
X2102704D01*
X2075069D02*
X2078320D01*
X2138874Y61853D02*
X2141719D01*
X2103517D02*
X2136436D01*
X2080352D02*
X2102704D01*
X2075476D02*
X2078320D01*
X2138874Y62260D02*
X2142125D01*
X2104330D02*
X2136436D01*
X2080352D02*
X2102704D01*
X2075476D02*
X2078320D01*
X2139280Y62666D02*
X2142125D01*
X2104736D02*
X2136842D01*
X2080759D02*
X2103111D01*
X2075476D02*
X2078727D01*
X2139280Y63072D02*
X2142532D01*
X2105956D02*
X2136842D01*
X2080759D02*
X2103111D01*
X2075882D02*
X2078727D01*
X2139280Y63479D02*
X2142532D01*
X2106362D02*
X2137248D01*
X2081165D02*
X2103517D01*
X2075882D02*
X2078727D01*
X2139687Y63885D02*
X2142532D01*
X2107175D02*
X2137248D01*
X2081165D02*
X2103517D01*
X2075882D02*
X2079133D01*
X2139687Y64292D02*
X2142532D01*
X2107988D02*
X2137248D01*
X2081165D02*
X2103517D01*
X2076288D02*
X2079133D01*
X2139687Y64698D02*
X2142938D01*
X2108394D02*
X2137655D01*
X2081572D02*
X2103924D01*
X2076288D02*
X2079133D01*
X2140093Y65104D02*
X2142938D01*
X2109207D02*
X2137655D01*
X2081572D02*
X2103924D01*
X2076288D02*
X2079540D01*
X2140093Y65511D02*
X2143344D01*
X2109613D02*
X2137655D01*
X2081978D02*
X2104330D01*
X2076695D02*
X2079540D01*
X2140500Y65917D02*
X2143344D01*
X2110426D02*
X2138061D01*
X2081978D02*
X2104330D01*
X2076695D02*
X2079540D01*
X2140500Y66324D02*
X2143344D01*
X2110832D02*
X2138061D01*
X2081978D02*
X2104330D01*
X2076695D02*
X2079946D01*
X2140500Y66730D02*
X2143751D01*
X2111645D02*
X2138468D01*
X2082384D02*
X2104736D01*
X2077101D02*
X2079946D01*
X2140906Y67136D02*
X2143751D01*
X2112458D02*
X2138468D01*
X2082384D02*
X2104736D01*
X2077101D02*
X2079946D01*
X2140906Y67543D02*
X2143751D01*
X2112864D02*
X2138468D01*
X2082791D02*
X2104736D01*
X2077101D02*
X2080352D01*
X2140906Y67949D02*
X2143751D01*
X2113677D02*
X2138874D01*
X2082791D02*
X2105143D01*
X2077101D02*
X2080352D01*
X2141312Y68356D02*
X2144157D01*
X2114490D02*
X2138874D01*
X2083197D02*
X2105143D01*
X2077508D02*
X2080352D01*
X2141312Y68762D02*
X2144157D01*
X2114490D02*
X2138874D01*
X2083604D02*
X2105143D01*
X2077508D02*
X2080759D01*
X2141312Y69168D02*
X2144157D01*
X2115709D02*
X2138468D01*
X2084416D02*
X2104736D01*
X2077914D02*
X2080759D01*
X2141719Y69575D02*
X2144564D01*
X2137655D02*
X2138061D01*
X2116116D02*
X2116522D01*
X2085636D02*
X2086448D01*
X2084823D02*
X2085229D01*
X2077914D02*
X2081165D01*
X2141719Y69981D02*
X2144564D01*
X2078320D02*
X2081165D01*
X2141719Y70388D02*
X2144970D01*
X2078320D02*
X2081978D01*
X2142125Y70794D02*
X2144970D01*
X2078727D02*
X2082384D01*
X2142125Y71200D02*
X2144970D01*
X2140093D02*
X2140906D01*
X2139280D02*
X2139687D01*
X2137248D02*
X2138061D01*
X2100672D02*
X2119367D01*
X2078727D02*
X2093357D01*
X2079133Y71607D02*
X2145376D01*
X2079540Y72013D02*
X2145376D01*
X2079946Y72420D02*
X2145783D01*
X2080759Y72826D02*
X2145783D01*
X2081572Y73232D02*
X2145783D01*
X2082384Y73639D02*
X2145783D01*
M02*
