G04 Layer_Color=32896*
%FSLAX44Y44*%
%MOMM*%
G71*
G01*
G75*
%ADD11C,0.1270*%
G36*
X69736Y80651D02*
X69900Y80414D01*
X70078Y80191D01*
X70256Y79983D01*
X70420Y79819D01*
X70553Y79685D01*
X70642Y79596D01*
X70657Y79581D01*
X70672Y79566D01*
X70954Y79329D01*
X71252Y79106D01*
X71549Y78913D01*
X71816Y78749D01*
X72054Y78615D01*
X72158Y78571D01*
X72247Y78526D01*
X72307Y78482D01*
X72366Y78452D01*
X72396Y78437D01*
X72411D01*
Y77263D01*
X72203Y77352D01*
X71980Y77456D01*
X71772Y77546D01*
X71578Y77650D01*
X71415Y77739D01*
X71281Y77813D01*
X71192Y77873D01*
X71177Y77887D01*
X71163D01*
X70910Y78036D01*
X70687Y78200D01*
X70494Y78333D01*
X70330Y78467D01*
X70197Y78571D01*
X70093Y78645D01*
X70033Y78705D01*
X70018Y78720D01*
Y71082D01*
X68815D01*
Y80889D01*
X69602D01*
X69736Y80651D01*
D02*
G37*
G36*
X84892D02*
X85056Y80414D01*
X85234Y80191D01*
X85412Y79983D01*
X85576Y79819D01*
X85709Y79685D01*
X85799Y79596D01*
X85814Y79581D01*
X85828Y79566D01*
X86111Y79329D01*
X86408Y79106D01*
X86705Y78913D01*
X86973Y78749D01*
X87210Y78615D01*
X87314Y78571D01*
X87403Y78526D01*
X87463Y78482D01*
X87522Y78452D01*
X87552Y78437D01*
X87567D01*
Y77263D01*
X87359Y77352D01*
X87136Y77456D01*
X86928Y77546D01*
X86735Y77650D01*
X86571Y77739D01*
X86438Y77813D01*
X86348Y77873D01*
X86334Y77887D01*
X86319D01*
X86066Y78036D01*
X85843Y78200D01*
X85650Y78333D01*
X85487Y78467D01*
X85353Y78571D01*
X85249Y78645D01*
X85189Y78705D01*
X85175Y78720D01*
Y71082D01*
X83971D01*
Y80889D01*
X84759D01*
X84892Y80651D01*
D02*
G37*
G36*
X106096Y71082D02*
X104803D01*
Y75510D01*
X100227D01*
Y76654D01*
X104803D01*
Y79700D01*
X99514D01*
Y80844D01*
X106096D01*
Y71082D01*
D02*
G37*
G36*
X81683Y68378D02*
X73748D01*
Y69240D01*
X81683D01*
Y68378D01*
D02*
G37*
G36*
X97834Y71082D02*
X94328D01*
X94001Y71097D01*
X93704Y71112D01*
X93436Y71141D01*
X93213Y71171D01*
X93020Y71201D01*
X92886Y71216D01*
X92797Y71245D01*
X92767D01*
X92515Y71320D01*
X92292Y71394D01*
X92099Y71468D01*
X91935Y71543D01*
X91802Y71617D01*
X91698Y71676D01*
X91623Y71706D01*
X91608Y71721D01*
X91430Y71855D01*
X91267Y72003D01*
X91103Y72152D01*
X90984Y72286D01*
X90865Y72419D01*
X90791Y72523D01*
X90732Y72583D01*
X90717Y72613D01*
X90568Y72835D01*
X90435Y73073D01*
X90316Y73311D01*
X90227Y73534D01*
X90152Y73742D01*
X90093Y73890D01*
X90078Y73950D01*
X90063Y73994D01*
X90048Y74024D01*
Y74039D01*
X89959Y74366D01*
X89900Y74708D01*
X89840Y75049D01*
X89810Y75346D01*
X89796Y75614D01*
Y75733D01*
X89781Y75822D01*
Y75911D01*
Y75971D01*
Y76000D01*
Y76015D01*
X89796Y76491D01*
X89840Y76922D01*
X89900Y77308D01*
X89944Y77486D01*
X89974Y77650D01*
X90004Y77798D01*
X90048Y77932D01*
X90078Y78051D01*
X90108Y78140D01*
X90137Y78214D01*
X90152Y78274D01*
X90167Y78303D01*
Y78318D01*
X90331Y78690D01*
X90509Y79017D01*
X90702Y79299D01*
X90895Y79537D01*
X91059Y79730D01*
X91192Y79879D01*
X91296Y79968D01*
X91311Y79997D01*
X91326D01*
X91564Y80176D01*
X91802Y80324D01*
X92039Y80443D01*
X92262Y80532D01*
X92455Y80607D01*
X92619Y80651D01*
X92678Y80681D01*
X92708D01*
X92738Y80696D01*
X92753D01*
X92990Y80740D01*
X93273Y80785D01*
X93570Y80815D01*
X93837Y80829D01*
X94090Y80844D01*
X97834D01*
Y71082D01*
D02*
G37*
G36*
X1973283Y68378D02*
X1965348D01*
Y69240D01*
X1973283D01*
Y68378D01*
D02*
G37*
G36*
X1977443Y80859D02*
X1977815Y80785D01*
X1978156Y80681D01*
X1978439Y80562D01*
X1978662Y80428D01*
X1978751Y80369D01*
X1978825Y80324D01*
X1978899Y80280D01*
X1978944Y80250D01*
X1978959Y80235D01*
X1978974Y80220D01*
X1979241Y79953D01*
X1979449Y79656D01*
X1979628Y79344D01*
X1979746Y79046D01*
X1979850Y78779D01*
X1979880Y78660D01*
X1979910Y78556D01*
X1979925Y78482D01*
X1979940Y78422D01*
X1979954Y78378D01*
Y78363D01*
X1978751Y78155D01*
X1978691Y78467D01*
X1978602Y78734D01*
X1978513Y78957D01*
X1978409Y79136D01*
X1978320Y79284D01*
X1978246Y79388D01*
X1978186Y79448D01*
X1978171Y79462D01*
X1977978Y79611D01*
X1977785Y79715D01*
X1977592Y79804D01*
X1977399Y79849D01*
X1977250Y79879D01*
X1977116Y79908D01*
X1976997D01*
X1976745Y79893D01*
X1976522Y79834D01*
X1976329Y79774D01*
X1976165Y79685D01*
X1976032Y79611D01*
X1975928Y79537D01*
X1975868Y79477D01*
X1975853Y79462D01*
X1975705Y79299D01*
X1975601Y79106D01*
X1975511Y78928D01*
X1975467Y78764D01*
X1975437Y78601D01*
X1975408Y78482D01*
Y78408D01*
Y78393D01*
Y78378D01*
X1975437Y78081D01*
X1975511Y77828D01*
X1975601Y77620D01*
X1975719Y77456D01*
X1975838Y77323D01*
X1975928Y77219D01*
X1976002Y77159D01*
X1976032Y77144D01*
X1976269Y77011D01*
X1976507Y76922D01*
X1976730Y76847D01*
X1976938Y76803D01*
X1977131Y76773D01*
X1977265Y76758D01*
X1977458D01*
X1977518Y76773D01*
X1977592D01*
X1977726Y75718D01*
X1977547Y75763D01*
X1977384Y75792D01*
X1977235Y75807D01*
X1977116Y75822D01*
X1977012Y75837D01*
X1976879D01*
X1976581Y75807D01*
X1976329Y75748D01*
X1976091Y75673D01*
X1975898Y75569D01*
X1975734Y75465D01*
X1975616Y75391D01*
X1975556Y75332D01*
X1975526Y75302D01*
X1975348Y75094D01*
X1975214Y74871D01*
X1975110Y74633D01*
X1975051Y74425D01*
X1975006Y74232D01*
X1974991Y74083D01*
X1974977Y74024D01*
Y73980D01*
Y73965D01*
Y73950D01*
X1975006Y73638D01*
X1975066Y73355D01*
X1975155Y73103D01*
X1975259Y72895D01*
X1975378Y72716D01*
X1975467Y72598D01*
X1975526Y72523D01*
X1975556Y72494D01*
X1975779Y72300D01*
X1976017Y72152D01*
X1976254Y72063D01*
X1976492Y71988D01*
X1976685Y71944D01*
X1976834Y71929D01*
X1976893Y71914D01*
X1976983D01*
X1977235Y71929D01*
X1977473Y71988D01*
X1977681Y72063D01*
X1977844Y72137D01*
X1977993Y72226D01*
X1978097Y72286D01*
X1978156Y72345D01*
X1978186Y72360D01*
X1978350Y72553D01*
X1978498Y72776D01*
X1978617Y73028D01*
X1978706Y73266D01*
X1978781Y73489D01*
X1978825Y73667D01*
X1978855Y73727D01*
Y73786D01*
X1978870Y73816D01*
Y73831D01*
X1980073Y73667D01*
X1980043Y73445D01*
X1979999Y73237D01*
X1979865Y72850D01*
X1979717Y72509D01*
X1979538Y72211D01*
X1979464Y72092D01*
X1979375Y71988D01*
X1979301Y71899D01*
X1979241Y71810D01*
X1979182Y71751D01*
X1979137Y71706D01*
X1979122Y71691D01*
X1979107Y71676D01*
X1978944Y71543D01*
X1978766Y71424D01*
X1978602Y71320D01*
X1978424Y71245D01*
X1978067Y71097D01*
X1977726Y71008D01*
X1977577Y70978D01*
X1977428Y70963D01*
X1977310Y70948D01*
X1977191Y70933D01*
X1977101Y70919D01*
X1976983D01*
X1976730Y70933D01*
X1976477Y70963D01*
X1976240Y70993D01*
X1976017Y71052D01*
X1975809Y71127D01*
X1975616Y71201D01*
X1975437Y71275D01*
X1975274Y71364D01*
X1975140Y71439D01*
X1975006Y71513D01*
X1974887Y71587D01*
X1974798Y71662D01*
X1974724Y71721D01*
X1974679Y71751D01*
X1974650Y71780D01*
X1974635Y71795D01*
X1974471Y71974D01*
X1974323Y72152D01*
X1974204Y72330D01*
X1974100Y72509D01*
X1973996Y72687D01*
X1973922Y72880D01*
X1973818Y73222D01*
X1973773Y73370D01*
X1973743Y73519D01*
X1973728Y73638D01*
X1973714Y73757D01*
X1973699Y73846D01*
Y73905D01*
Y73950D01*
Y73965D01*
X1973714Y74306D01*
X1973773Y74618D01*
X1973847Y74886D01*
X1973936Y75109D01*
X1974041Y75287D01*
X1974115Y75421D01*
X1974174Y75510D01*
X1974189Y75540D01*
X1974382Y75763D01*
X1974605Y75941D01*
X1974828Y76090D01*
X1975036Y76193D01*
X1975229Y76283D01*
X1975378Y76327D01*
X1975437Y76357D01*
X1975482D01*
X1975511Y76372D01*
X1975526D01*
X1975289Y76491D01*
X1975081Y76639D01*
X1974917Y76773D01*
X1974769Y76907D01*
X1974665Y77026D01*
X1974575Y77115D01*
X1974531Y77174D01*
X1974516Y77204D01*
X1974397Y77397D01*
X1974323Y77605D01*
X1974263Y77798D01*
X1974219Y77977D01*
X1974189Y78125D01*
X1974174Y78244D01*
Y78318D01*
Y78348D01*
X1974189Y78601D01*
X1974234Y78823D01*
X1974293Y79032D01*
X1974353Y79225D01*
X1974412Y79373D01*
X1974471Y79492D01*
X1974516Y79566D01*
X1974531Y79596D01*
X1974679Y79804D01*
X1974843Y79997D01*
X1975021Y80161D01*
X1975185Y80295D01*
X1975333Y80399D01*
X1975452Y80473D01*
X1975541Y80518D01*
X1975556Y80532D01*
X1975571D01*
X1975824Y80651D01*
X1976076Y80740D01*
X1976329Y80800D01*
X1976552Y80844D01*
X1976745Y80874D01*
X1976893Y80889D01*
X1977235D01*
X1977443Y80859D01*
D02*
G37*
G36*
X1961336Y80651D02*
X1961499Y80414D01*
X1961678Y80191D01*
X1961856Y79983D01*
X1962020Y79819D01*
X1962153Y79685D01*
X1962242Y79596D01*
X1962257Y79581D01*
X1962272Y79566D01*
X1962554Y79329D01*
X1962852Y79106D01*
X1963149Y78913D01*
X1963416Y78749D01*
X1963654Y78615D01*
X1963758Y78571D01*
X1963847Y78526D01*
X1963907Y78482D01*
X1963966Y78452D01*
X1963996Y78437D01*
X1964011D01*
Y77263D01*
X1963803Y77352D01*
X1963580Y77456D01*
X1963372Y77546D01*
X1963179Y77650D01*
X1963015Y77739D01*
X1962881Y77813D01*
X1962792Y77873D01*
X1962777Y77887D01*
X1962762D01*
X1962510Y78036D01*
X1962287Y78200D01*
X1962094Y78333D01*
X1961930Y78467D01*
X1961797Y78571D01*
X1961693Y78645D01*
X1961633Y78705D01*
X1961618Y78720D01*
Y71082D01*
X1960415D01*
Y80889D01*
X1961202D01*
X1961336Y80651D01*
D02*
G37*
G36*
X1989434Y71082D02*
X1985928D01*
X1985601Y71097D01*
X1985304Y71112D01*
X1985036Y71141D01*
X1984813Y71171D01*
X1984620Y71201D01*
X1984486Y71216D01*
X1984397Y71245D01*
X1984368D01*
X1984115Y71320D01*
X1983892Y71394D01*
X1983699Y71468D01*
X1983535Y71543D01*
X1983402Y71617D01*
X1983298Y71676D01*
X1983223Y71706D01*
X1983208Y71721D01*
X1983030Y71855D01*
X1982867Y72003D01*
X1982703Y72152D01*
X1982584Y72286D01*
X1982466Y72419D01*
X1982391Y72523D01*
X1982332Y72583D01*
X1982317Y72613D01*
X1982168Y72835D01*
X1982035Y73073D01*
X1981916Y73311D01*
X1981827Y73534D01*
X1981752Y73742D01*
X1981693Y73890D01*
X1981678Y73950D01*
X1981663Y73994D01*
X1981648Y74024D01*
Y74039D01*
X1981559Y74366D01*
X1981500Y74708D01*
X1981440Y75049D01*
X1981411Y75346D01*
X1981396Y75614D01*
Y75733D01*
X1981381Y75822D01*
Y75911D01*
Y75971D01*
Y76000D01*
Y76015D01*
X1981396Y76491D01*
X1981440Y76922D01*
X1981500Y77308D01*
X1981544Y77486D01*
X1981574Y77650D01*
X1981604Y77798D01*
X1981648Y77932D01*
X1981678Y78051D01*
X1981708Y78140D01*
X1981737Y78214D01*
X1981752Y78274D01*
X1981767Y78303D01*
Y78318D01*
X1981931Y78690D01*
X1982109Y79017D01*
X1982302Y79299D01*
X1982495Y79537D01*
X1982659Y79730D01*
X1982792Y79879D01*
X1982896Y79968D01*
X1982911Y79997D01*
X1982926D01*
X1983164Y80176D01*
X1983402Y80324D01*
X1983639Y80443D01*
X1983862Y80532D01*
X1984055Y80607D01*
X1984219Y80651D01*
X1984278Y80681D01*
X1984308D01*
X1984338Y80696D01*
X1984353D01*
X1984590Y80740D01*
X1984873Y80785D01*
X1985170Y80815D01*
X1985437Y80829D01*
X1985690Y80844D01*
X1989434D01*
Y71082D01*
D02*
G37*
G36*
X1997696D02*
X1996403D01*
Y75510D01*
X1991827D01*
Y76654D01*
X1996403D01*
Y79700D01*
X1991113D01*
Y80844D01*
X1997696D01*
Y71082D01*
D02*
G37*
%LPC*%
G36*
X96542Y79700D02*
X94506D01*
X94105Y79685D01*
X93763Y79671D01*
X93481Y79641D01*
X93243Y79596D01*
X93065Y79552D01*
X92946Y79522D01*
X92872Y79507D01*
X92842Y79492D01*
X92589Y79359D01*
X92351Y79195D01*
X92143Y79017D01*
X91965Y78823D01*
X91817Y78660D01*
X91713Y78512D01*
X91668Y78452D01*
X91653Y78408D01*
X91623Y78393D01*
Y78378D01*
X91534Y78214D01*
X91460Y78036D01*
X91326Y77664D01*
X91237Y77278D01*
X91178Y76892D01*
X91163Y76728D01*
X91148Y76565D01*
X91133Y76416D01*
X91118Y76283D01*
Y76179D01*
Y76104D01*
Y76045D01*
Y76030D01*
X91133Y75629D01*
X91163Y75272D01*
X91207Y74945D01*
X91252Y74663D01*
X91296Y74440D01*
X91326Y74351D01*
X91341Y74277D01*
X91356Y74217D01*
X91371Y74173D01*
X91386Y74158D01*
Y74143D01*
X91490Y73875D01*
X91608Y73623D01*
X91727Y73415D01*
X91831Y73237D01*
X91935Y73103D01*
X92024Y72999D01*
X92084Y72924D01*
X92099Y72910D01*
X92233Y72791D01*
X92366Y72687D01*
X92515Y72613D01*
X92663Y72538D01*
X92782Y72479D01*
X92886Y72434D01*
X92946Y72419D01*
X92976Y72404D01*
X93198Y72345D01*
X93436Y72300D01*
X93689Y72271D01*
X93926Y72256D01*
X94149Y72241D01*
X94313Y72226D01*
X96542D01*
Y79700D01*
D02*
G37*
G36*
X1988142D02*
X1986106D01*
X1985705Y79685D01*
X1985363Y79671D01*
X1985081Y79641D01*
X1984843Y79596D01*
X1984665Y79552D01*
X1984546Y79522D01*
X1984471Y79507D01*
X1984442Y79492D01*
X1984189Y79359D01*
X1983951Y79195D01*
X1983743Y79017D01*
X1983565Y78823D01*
X1983416Y78660D01*
X1983313Y78512D01*
X1983268Y78452D01*
X1983253Y78408D01*
X1983223Y78393D01*
Y78378D01*
X1983134Y78214D01*
X1983060Y78036D01*
X1982926Y77664D01*
X1982837Y77278D01*
X1982778Y76892D01*
X1982763Y76728D01*
X1982748Y76565D01*
X1982733Y76416D01*
X1982718Y76283D01*
Y76179D01*
Y76104D01*
Y76045D01*
Y76030D01*
X1982733Y75629D01*
X1982763Y75272D01*
X1982807Y74945D01*
X1982852Y74663D01*
X1982896Y74440D01*
X1982926Y74351D01*
X1982941Y74277D01*
X1982956Y74217D01*
X1982971Y74173D01*
X1982986Y74158D01*
Y74143D01*
X1983090Y73875D01*
X1983208Y73623D01*
X1983327Y73415D01*
X1983431Y73237D01*
X1983535Y73103D01*
X1983625Y72999D01*
X1983684Y72924D01*
X1983699Y72910D01*
X1983833Y72791D01*
X1983966Y72687D01*
X1984115Y72613D01*
X1984263Y72538D01*
X1984382Y72479D01*
X1984486Y72434D01*
X1984546Y72419D01*
X1984576Y72404D01*
X1984798Y72345D01*
X1985036Y72300D01*
X1985289Y72271D01*
X1985526Y72256D01*
X1985749Y72241D01*
X1985913Y72226D01*
X1988142D01*
Y79700D01*
D02*
G37*
%LPD*%
D11*
X1999474Y50000D02*
G03*
X1999474Y50000I-7874J0D01*
G01*
X107874D02*
G03*
X107874Y50000I-7874J0D01*
G01*
M02*
