G04 Layer_Color=32896*
%FSLAX44Y44*%
%MOMM*%
G71*
G01*
G75*
%ADD11C,0.1270*%
G36*
X2279736Y80651D02*
X2279899Y80414D01*
X2280078Y80191D01*
X2280256Y79983D01*
X2280419Y79819D01*
X2280553Y79685D01*
X2280642Y79596D01*
X2280657Y79581D01*
X2280672Y79566D01*
X2280954Y79329D01*
X2281252Y79106D01*
X2281549Y78913D01*
X2281816Y78749D01*
X2282054Y78615D01*
X2282158Y78571D01*
X2282247Y78526D01*
X2282307Y78482D01*
X2282366Y78452D01*
X2282396Y78437D01*
X2282411D01*
Y77263D01*
X2282203Y77352D01*
X2281980Y77456D01*
X2281772Y77546D01*
X2281579Y77650D01*
X2281415Y77739D01*
X2281281Y77813D01*
X2281192Y77873D01*
X2281177Y77887D01*
X2281163D01*
X2280910Y78036D01*
X2280687Y78200D01*
X2280494Y78333D01*
X2280330Y78467D01*
X2280197Y78571D01*
X2280093Y78645D01*
X2280033Y78705D01*
X2280018Y78720D01*
Y71082D01*
X2278815D01*
Y80889D01*
X2279602D01*
X2279736Y80651D01*
D02*
G37*
G36*
X2295843Y80859D02*
X2296215Y80785D01*
X2296556Y80681D01*
X2296839Y80562D01*
X2297062Y80428D01*
X2297151Y80369D01*
X2297225Y80324D01*
X2297299Y80280D01*
X2297344Y80250D01*
X2297359Y80235D01*
X2297374Y80220D01*
X2297641Y79953D01*
X2297849Y79656D01*
X2298027Y79344D01*
X2298146Y79046D01*
X2298250Y78779D01*
X2298280Y78660D01*
X2298310Y78556D01*
X2298325Y78482D01*
X2298340Y78422D01*
X2298354Y78378D01*
Y78363D01*
X2297151Y78155D01*
X2297091Y78467D01*
X2297002Y78734D01*
X2296913Y78957D01*
X2296809Y79136D01*
X2296720Y79284D01*
X2296646Y79388D01*
X2296586Y79448D01*
X2296571Y79462D01*
X2296378Y79611D01*
X2296185Y79715D01*
X2295992Y79804D01*
X2295799Y79849D01*
X2295650Y79879D01*
X2295516Y79908D01*
X2295397D01*
X2295145Y79893D01*
X2294922Y79834D01*
X2294729Y79774D01*
X2294565Y79685D01*
X2294432Y79611D01*
X2294328Y79537D01*
X2294268Y79477D01*
X2294253Y79462D01*
X2294105Y79299D01*
X2294001Y79106D01*
X2293911Y78928D01*
X2293867Y78764D01*
X2293837Y78601D01*
X2293808Y78482D01*
Y78408D01*
Y78393D01*
Y78378D01*
X2293837Y78081D01*
X2293911Y77828D01*
X2294001Y77620D01*
X2294120Y77456D01*
X2294238Y77323D01*
X2294328Y77219D01*
X2294402Y77159D01*
X2294432Y77144D01*
X2294669Y77011D01*
X2294907Y76922D01*
X2295130Y76847D01*
X2295338Y76803D01*
X2295531Y76773D01*
X2295665Y76758D01*
X2295858D01*
X2295918Y76773D01*
X2295992D01*
X2296125Y75718D01*
X2295947Y75763D01*
X2295784Y75792D01*
X2295635Y75807D01*
X2295516Y75822D01*
X2295412Y75837D01*
X2295278D01*
X2294981Y75807D01*
X2294729Y75748D01*
X2294491Y75673D01*
X2294298Y75569D01*
X2294134Y75465D01*
X2294016Y75391D01*
X2293956Y75332D01*
X2293926Y75302D01*
X2293748Y75094D01*
X2293614Y74871D01*
X2293510Y74633D01*
X2293451Y74425D01*
X2293406Y74232D01*
X2293392Y74083D01*
X2293377Y74024D01*
Y73980D01*
Y73965D01*
Y73950D01*
X2293406Y73638D01*
X2293466Y73355D01*
X2293555Y73103D01*
X2293659Y72895D01*
X2293778Y72716D01*
X2293867Y72598D01*
X2293926Y72523D01*
X2293956Y72494D01*
X2294179Y72300D01*
X2294417Y72152D01*
X2294655Y72063D01*
X2294892Y71988D01*
X2295085Y71944D01*
X2295234Y71929D01*
X2295293Y71914D01*
X2295383D01*
X2295635Y71929D01*
X2295873Y71988D01*
X2296081Y72063D01*
X2296244Y72137D01*
X2296393Y72226D01*
X2296497Y72286D01*
X2296556Y72345D01*
X2296586Y72360D01*
X2296750Y72553D01*
X2296898Y72776D01*
X2297017Y73028D01*
X2297106Y73266D01*
X2297180Y73489D01*
X2297225Y73667D01*
X2297255Y73727D01*
Y73786D01*
X2297270Y73816D01*
Y73831D01*
X2298473Y73667D01*
X2298443Y73445D01*
X2298399Y73237D01*
X2298265Y72850D01*
X2298117Y72509D01*
X2297938Y72211D01*
X2297864Y72092D01*
X2297775Y71988D01*
X2297701Y71899D01*
X2297641Y71810D01*
X2297582Y71751D01*
X2297537Y71706D01*
X2297522Y71691D01*
X2297507Y71676D01*
X2297344Y71543D01*
X2297166Y71424D01*
X2297002Y71320D01*
X2296824Y71245D01*
X2296467Y71097D01*
X2296125Y71008D01*
X2295977Y70978D01*
X2295828Y70963D01*
X2295710Y70948D01*
X2295591Y70933D01*
X2295501Y70919D01*
X2295383D01*
X2295130Y70933D01*
X2294877Y70963D01*
X2294640Y70993D01*
X2294417Y71052D01*
X2294209Y71127D01*
X2294016Y71201D01*
X2293837Y71275D01*
X2293674Y71364D01*
X2293540Y71439D01*
X2293406Y71513D01*
X2293287Y71587D01*
X2293198Y71662D01*
X2293124Y71721D01*
X2293079Y71751D01*
X2293050Y71780D01*
X2293035Y71795D01*
X2292871Y71974D01*
X2292723Y72152D01*
X2292604Y72330D01*
X2292500Y72509D01*
X2292396Y72687D01*
X2292322Y72880D01*
X2292218Y73222D01*
X2292173Y73370D01*
X2292143Y73519D01*
X2292128Y73638D01*
X2292114Y73757D01*
X2292099Y73846D01*
Y73905D01*
Y73950D01*
Y73965D01*
X2292114Y74306D01*
X2292173Y74618D01*
X2292247Y74886D01*
X2292336Y75109D01*
X2292440Y75287D01*
X2292515Y75421D01*
X2292574Y75510D01*
X2292589Y75540D01*
X2292782Y75763D01*
X2293005Y75941D01*
X2293228Y76090D01*
X2293436Y76193D01*
X2293629Y76283D01*
X2293778Y76327D01*
X2293837Y76357D01*
X2293882D01*
X2293911Y76372D01*
X2293926D01*
X2293689Y76491D01*
X2293481Y76639D01*
X2293317Y76773D01*
X2293169Y76907D01*
X2293065Y77026D01*
X2292975Y77115D01*
X2292931Y77174D01*
X2292916Y77204D01*
X2292797Y77397D01*
X2292723Y77605D01*
X2292663Y77798D01*
X2292619Y77977D01*
X2292589Y78125D01*
X2292574Y78244D01*
Y78318D01*
Y78348D01*
X2292589Y78601D01*
X2292634Y78823D01*
X2292693Y79032D01*
X2292753Y79225D01*
X2292812Y79373D01*
X2292871Y79492D01*
X2292916Y79566D01*
X2292931Y79596D01*
X2293079Y79804D01*
X2293243Y79997D01*
X2293421Y80161D01*
X2293585Y80295D01*
X2293733Y80399D01*
X2293852Y80473D01*
X2293941Y80518D01*
X2293956Y80532D01*
X2293971D01*
X2294224Y80651D01*
X2294476Y80740D01*
X2294729Y80800D01*
X2294952Y80844D01*
X2295145Y80874D01*
X2295293Y80889D01*
X2295635D01*
X2295843Y80859D01*
D02*
G37*
G36*
X2316096Y71082D02*
X2314803D01*
Y75510D01*
X2310227D01*
Y76654D01*
X2314803D01*
Y79700D01*
X2309514D01*
Y80844D01*
X2316096D01*
Y71082D01*
D02*
G37*
G36*
X2291683Y68378D02*
X2283748D01*
Y69240D01*
X2291683D01*
Y68378D01*
D02*
G37*
G36*
X2307834Y71082D02*
X2304328D01*
X2304001Y71097D01*
X2303704Y71112D01*
X2303436Y71141D01*
X2303213Y71171D01*
X2303020Y71201D01*
X2302886Y71216D01*
X2302797Y71245D01*
X2302767D01*
X2302515Y71320D01*
X2302292Y71394D01*
X2302099Y71468D01*
X2301935Y71543D01*
X2301802Y71617D01*
X2301698Y71676D01*
X2301623Y71706D01*
X2301608Y71721D01*
X2301430Y71855D01*
X2301267Y72003D01*
X2301103Y72152D01*
X2300984Y72286D01*
X2300865Y72419D01*
X2300791Y72523D01*
X2300732Y72583D01*
X2300717Y72613D01*
X2300568Y72835D01*
X2300435Y73073D01*
X2300316Y73311D01*
X2300227Y73534D01*
X2300152Y73742D01*
X2300093Y73890D01*
X2300078Y73950D01*
X2300063Y73994D01*
X2300048Y74024D01*
Y74039D01*
X2299959Y74366D01*
X2299900Y74708D01*
X2299840Y75049D01*
X2299810Y75346D01*
X2299796Y75614D01*
Y75733D01*
X2299781Y75822D01*
Y75911D01*
Y75971D01*
Y76000D01*
Y76015D01*
X2299796Y76491D01*
X2299840Y76922D01*
X2299900Y77308D01*
X2299944Y77486D01*
X2299974Y77650D01*
X2300004Y77798D01*
X2300048Y77932D01*
X2300078Y78051D01*
X2300108Y78140D01*
X2300137Y78214D01*
X2300152Y78274D01*
X2300167Y78303D01*
Y78318D01*
X2300331Y78690D01*
X2300509Y79017D01*
X2300702Y79299D01*
X2300895Y79537D01*
X2301059Y79730D01*
X2301192Y79879D01*
X2301296Y79968D01*
X2301311Y79997D01*
X2301326D01*
X2301564Y80176D01*
X2301802Y80324D01*
X2302039Y80443D01*
X2302262Y80532D01*
X2302455Y80607D01*
X2302619Y80651D01*
X2302678Y80681D01*
X2302708D01*
X2302738Y80696D01*
X2302753D01*
X2302990Y80740D01*
X2303273Y80785D01*
X2303570Y80815D01*
X2303837Y80829D01*
X2304090Y80844D01*
X2307834D01*
Y71082D01*
D02*
G37*
G36*
X81683Y68378D02*
X73748D01*
Y69240D01*
X81683D01*
Y68378D01*
D02*
G37*
G36*
X84892Y80651D02*
X85056Y80414D01*
X85234Y80191D01*
X85412Y79983D01*
X85576Y79819D01*
X85709Y79685D01*
X85799Y79596D01*
X85814Y79581D01*
X85828Y79566D01*
X86111Y79329D01*
X86408Y79106D01*
X86705Y78913D01*
X86973Y78749D01*
X87210Y78615D01*
X87314Y78571D01*
X87403Y78526D01*
X87463Y78482D01*
X87522Y78452D01*
X87552Y78437D01*
X87567D01*
Y77263D01*
X87359Y77352D01*
X87136Y77456D01*
X86928Y77546D01*
X86735Y77650D01*
X86571Y77739D01*
X86438Y77813D01*
X86348Y77873D01*
X86334Y77887D01*
X86319D01*
X86066Y78036D01*
X85843Y78200D01*
X85650Y78333D01*
X85487Y78467D01*
X85353Y78571D01*
X85249Y78645D01*
X85189Y78705D01*
X85175Y78720D01*
Y71082D01*
X83971D01*
Y80889D01*
X84759D01*
X84892Y80651D01*
D02*
G37*
G36*
X69736D02*
X69900Y80414D01*
X70078Y80191D01*
X70256Y79983D01*
X70420Y79819D01*
X70553Y79685D01*
X70642Y79596D01*
X70657Y79581D01*
X70672Y79566D01*
X70954Y79329D01*
X71252Y79106D01*
X71549Y78913D01*
X71816Y78749D01*
X72054Y78615D01*
X72158Y78571D01*
X72247Y78526D01*
X72307Y78482D01*
X72366Y78452D01*
X72396Y78437D01*
X72411D01*
Y77263D01*
X72203Y77352D01*
X71980Y77456D01*
X71772Y77546D01*
X71578Y77650D01*
X71415Y77739D01*
X71281Y77813D01*
X71192Y77873D01*
X71177Y77887D01*
X71163D01*
X70910Y78036D01*
X70687Y78200D01*
X70494Y78333D01*
X70330Y78467D01*
X70197Y78571D01*
X70093Y78645D01*
X70033Y78705D01*
X70018Y78720D01*
Y71082D01*
X68815D01*
Y80889D01*
X69602D01*
X69736Y80651D01*
D02*
G37*
G36*
X97834Y71082D02*
X94328D01*
X94001Y71097D01*
X93704Y71112D01*
X93436Y71141D01*
X93213Y71171D01*
X93020Y71201D01*
X92886Y71216D01*
X92797Y71245D01*
X92767D01*
X92515Y71320D01*
X92292Y71394D01*
X92099Y71468D01*
X91935Y71543D01*
X91802Y71617D01*
X91698Y71676D01*
X91623Y71706D01*
X91608Y71721D01*
X91430Y71855D01*
X91267Y72003D01*
X91103Y72152D01*
X90984Y72286D01*
X90865Y72419D01*
X90791Y72523D01*
X90732Y72583D01*
X90717Y72613D01*
X90568Y72835D01*
X90435Y73073D01*
X90316Y73311D01*
X90227Y73534D01*
X90152Y73742D01*
X90093Y73890D01*
X90078Y73950D01*
X90063Y73994D01*
X90048Y74024D01*
Y74039D01*
X89959Y74366D01*
X89900Y74708D01*
X89840Y75049D01*
X89810Y75346D01*
X89796Y75614D01*
Y75733D01*
X89781Y75822D01*
Y75911D01*
Y75971D01*
Y76000D01*
Y76015D01*
X89796Y76491D01*
X89840Y76922D01*
X89900Y77308D01*
X89944Y77486D01*
X89974Y77650D01*
X90004Y77798D01*
X90048Y77932D01*
X90078Y78051D01*
X90108Y78140D01*
X90137Y78214D01*
X90152Y78274D01*
X90167Y78303D01*
Y78318D01*
X90331Y78690D01*
X90509Y79017D01*
X90702Y79299D01*
X90895Y79537D01*
X91059Y79730D01*
X91192Y79879D01*
X91296Y79968D01*
X91311Y79997D01*
X91326D01*
X91564Y80176D01*
X91802Y80324D01*
X92039Y80443D01*
X92262Y80532D01*
X92455Y80607D01*
X92619Y80651D01*
X92678Y80681D01*
X92708D01*
X92738Y80696D01*
X92753D01*
X92990Y80740D01*
X93273Y80785D01*
X93570Y80815D01*
X93837Y80829D01*
X94090Y80844D01*
X97834D01*
Y71082D01*
D02*
G37*
G36*
X106096D02*
X104803D01*
Y75510D01*
X100227D01*
Y76654D01*
X104803D01*
Y79700D01*
X99514D01*
Y80844D01*
X106096D01*
Y71082D01*
D02*
G37*
%LPC*%
G36*
X2306542Y79700D02*
X2304506D01*
X2304105Y79685D01*
X2303763Y79671D01*
X2303481Y79641D01*
X2303243Y79596D01*
X2303065Y79552D01*
X2302946Y79522D01*
X2302872Y79507D01*
X2302842Y79492D01*
X2302589Y79359D01*
X2302351Y79195D01*
X2302143Y79017D01*
X2301965Y78823D01*
X2301817Y78660D01*
X2301712Y78512D01*
X2301668Y78452D01*
X2301653Y78408D01*
X2301623Y78393D01*
Y78378D01*
X2301534Y78214D01*
X2301460Y78036D01*
X2301326Y77664D01*
X2301237Y77278D01*
X2301178Y76892D01*
X2301163Y76728D01*
X2301148Y76565D01*
X2301133Y76416D01*
X2301118Y76283D01*
Y76179D01*
Y76104D01*
Y76045D01*
Y76030D01*
X2301133Y75629D01*
X2301163Y75272D01*
X2301207Y74945D01*
X2301252Y74663D01*
X2301296Y74440D01*
X2301326Y74351D01*
X2301341Y74277D01*
X2301356Y74217D01*
X2301371Y74173D01*
X2301386Y74158D01*
Y74143D01*
X2301490Y73875D01*
X2301608Y73623D01*
X2301727Y73415D01*
X2301831Y73237D01*
X2301935Y73103D01*
X2302025Y72999D01*
X2302084Y72924D01*
X2302099Y72910D01*
X2302233Y72791D01*
X2302366Y72687D01*
X2302515Y72613D01*
X2302664Y72538D01*
X2302782Y72479D01*
X2302886Y72434D01*
X2302946Y72419D01*
X2302975Y72404D01*
X2303198Y72345D01*
X2303436Y72300D01*
X2303689Y72271D01*
X2303927Y72256D01*
X2304149Y72241D01*
X2304313Y72226D01*
X2306542D01*
Y79700D01*
D02*
G37*
G36*
X96542D02*
X94506D01*
X94105Y79685D01*
X93763Y79671D01*
X93481Y79641D01*
X93243Y79596D01*
X93065Y79552D01*
X92946Y79522D01*
X92872Y79507D01*
X92842Y79492D01*
X92589Y79359D01*
X92351Y79195D01*
X92143Y79017D01*
X91965Y78823D01*
X91817Y78660D01*
X91713Y78512D01*
X91668Y78452D01*
X91653Y78408D01*
X91623Y78393D01*
Y78378D01*
X91534Y78214D01*
X91460Y78036D01*
X91326Y77664D01*
X91237Y77278D01*
X91178Y76892D01*
X91163Y76728D01*
X91148Y76565D01*
X91133Y76416D01*
X91118Y76283D01*
Y76179D01*
Y76104D01*
Y76045D01*
Y76030D01*
X91133Y75629D01*
X91163Y75272D01*
X91207Y74945D01*
X91252Y74663D01*
X91296Y74440D01*
X91326Y74351D01*
X91341Y74277D01*
X91356Y74217D01*
X91371Y74173D01*
X91386Y74158D01*
Y74143D01*
X91490Y73875D01*
X91608Y73623D01*
X91727Y73415D01*
X91831Y73237D01*
X91935Y73103D01*
X92024Y72999D01*
X92084Y72924D01*
X92099Y72910D01*
X92233Y72791D01*
X92366Y72687D01*
X92515Y72613D01*
X92663Y72538D01*
X92782Y72479D01*
X92886Y72434D01*
X92946Y72419D01*
X92976Y72404D01*
X93198Y72345D01*
X93436Y72300D01*
X93689Y72271D01*
X93926Y72256D01*
X94149Y72241D01*
X94313Y72226D01*
X96542D01*
Y79700D01*
D02*
G37*
%LPD*%
D11*
X107874Y50000D02*
G03*
X107874Y50000I-7874J0D01*
G01*
X2317874D02*
G03*
X2317874Y50000I-7874J0D01*
G01*
M02*
