G04 Layer_Color=65535*
%FSLAX44Y44*%
%MOMM*%
G71*
G01*
G75*
%ADD11C,0.1270*%
%ADD12C,0.0406*%
%ADD13C,0.0254*%
G36*
X2006963Y80620D02*
X2007156Y80590D01*
X2007379Y80546D01*
X2007632Y80486D01*
X2007885Y80397D01*
X2008137Y80278D01*
X2008152D01*
X2008167Y80264D01*
X2008256Y80219D01*
X2008375Y80145D01*
X2008523Y80041D01*
X2008687Y79907D01*
X2008865Y79743D01*
X2009029Y79550D01*
X2009177Y79342D01*
X2009192Y79313D01*
X2009237Y79238D01*
X2009296Y79119D01*
X2009355Y78971D01*
X2009415Y78778D01*
X2009474Y78569D01*
X2009519Y78347D01*
X2009534Y78094D01*
Y78064D01*
Y77990D01*
X2009519Y77871D01*
X2009489Y77723D01*
X2009445Y77544D01*
X2009385Y77351D01*
X2009311Y77143D01*
X2009192Y76950D01*
X2009177Y76920D01*
X2009133Y76861D01*
X2009043Y76772D01*
X2008939Y76653D01*
X2008791Y76519D01*
X2008627Y76385D01*
X2008419Y76237D01*
X2008182Y76118D01*
X2008197D01*
X2008226Y76103D01*
X2008271D01*
X2008330Y76073D01*
X2008479Y76029D01*
X2008672Y75939D01*
X2008880Y75835D01*
X2009103Y75687D01*
X2009326Y75509D01*
X2009519Y75286D01*
X2009534Y75256D01*
X2009593Y75167D01*
X2009668Y75033D01*
X2009772Y74855D01*
X2009861Y74632D01*
X2009935Y74364D01*
X2009994Y74052D01*
X2010009Y73711D01*
Y73696D01*
Y73651D01*
Y73592D01*
X2009994Y73503D01*
X2009980Y73384D01*
X2009965Y73265D01*
X2009935Y73116D01*
X2009890Y72968D01*
X2009786Y72626D01*
X2009712Y72433D01*
X2009608Y72255D01*
X2009504Y72076D01*
X2009385Y71898D01*
X2009237Y71719D01*
X2009073Y71541D01*
X2009058Y71526D01*
X2009029Y71497D01*
X2008984Y71467D01*
X2008910Y71407D01*
X2008821Y71333D01*
X2008702Y71259D01*
X2008568Y71185D01*
X2008434Y71110D01*
X2008271Y71021D01*
X2008092Y70947D01*
X2007899Y70873D01*
X2007691Y70798D01*
X2007468Y70739D01*
X2007231Y70709D01*
X2006978Y70679D01*
X2006725Y70665D01*
X2006607D01*
X2006517Y70679D01*
X2006399Y70694D01*
X2006280Y70709D01*
X2006131Y70724D01*
X2005983Y70754D01*
X2005641Y70843D01*
X2005284Y70992D01*
X2005106Y71066D01*
X2004942Y71170D01*
X2004764Y71289D01*
X2004601Y71422D01*
X2004586Y71437D01*
X2004571Y71452D01*
X2004526Y71497D01*
X2004467Y71556D01*
X2004407Y71645D01*
X2004333Y71734D01*
X2004244Y71838D01*
X2004170Y71957D01*
X2003991Y72255D01*
X2003843Y72596D01*
X2003709Y72983D01*
X2003665Y73191D01*
X2003635Y73414D01*
X2004838Y73577D01*
Y73562D01*
X2004853Y73532D01*
Y73473D01*
X2004883Y73414D01*
X2004928Y73235D01*
X2005002Y73012D01*
X2005091Y72775D01*
X2005210Y72522D01*
X2005358Y72299D01*
X2005522Y72106D01*
X2005552Y72091D01*
X2005611Y72032D01*
X2005715Y71972D01*
X2005864Y71883D01*
X2006027Y71809D01*
X2006235Y71734D01*
X2006473Y71675D01*
X2006725Y71660D01*
X2006815D01*
X2006874Y71675D01*
X2007023Y71690D01*
X2007216Y71734D01*
X2007453Y71809D01*
X2007691Y71898D01*
X2007929Y72046D01*
X2008152Y72240D01*
X2008182Y72269D01*
X2008241Y72344D01*
X2008330Y72463D01*
X2008449Y72641D01*
X2008553Y72849D01*
X2008642Y73101D01*
X2008702Y73384D01*
X2008731Y73696D01*
Y73711D01*
Y73726D01*
Y73770D01*
X2008717Y73829D01*
X2008702Y73978D01*
X2008657Y74171D01*
X2008598Y74379D01*
X2008494Y74617D01*
X2008360Y74840D01*
X2008182Y75048D01*
X2008152Y75078D01*
X2008092Y75137D01*
X2007974Y75211D01*
X2007810Y75315D01*
X2007617Y75419D01*
X2007379Y75494D01*
X2007127Y75553D01*
X2006830Y75583D01*
X2006696D01*
X2006592Y75568D01*
X2006473Y75553D01*
X2006324Y75538D01*
X2006161Y75509D01*
X2005983Y75464D01*
X2006116Y76519D01*
X2006190D01*
X2006250Y76504D01*
X2006443D01*
X2006577Y76519D01*
X2006770Y76549D01*
X2006978Y76593D01*
X2007201Y76668D01*
X2007439Y76757D01*
X2007676Y76891D01*
X2007706Y76905D01*
X2007780Y76965D01*
X2007870Y77069D01*
X2007988Y77203D01*
X2008107Y77366D01*
X2008197Y77574D01*
X2008271Y77827D01*
X2008300Y78124D01*
Y78139D01*
Y78154D01*
Y78228D01*
X2008271Y78347D01*
X2008241Y78510D01*
X2008197Y78674D01*
X2008107Y78852D01*
X2008003Y79045D01*
X2007855Y79208D01*
X2007840Y79223D01*
X2007780Y79283D01*
X2007676Y79357D01*
X2007543Y79431D01*
X2007379Y79521D01*
X2007186Y79580D01*
X2006963Y79639D01*
X2006711Y79654D01*
X2006592D01*
X2006458Y79625D01*
X2006309Y79595D01*
X2006116Y79550D01*
X2005923Y79461D01*
X2005730Y79357D01*
X2005537Y79208D01*
X2005522Y79194D01*
X2005462Y79134D01*
X2005388Y79030D01*
X2005299Y78882D01*
X2005195Y78703D01*
X2005106Y78480D01*
X2005017Y78213D01*
X2004957Y77901D01*
X2003754Y78109D01*
Y78124D01*
X2003768Y78168D01*
X2003783Y78228D01*
X2003798Y78302D01*
X2003828Y78406D01*
X2003858Y78525D01*
X2003962Y78792D01*
X2004081Y79090D01*
X2004259Y79402D01*
X2004467Y79699D01*
X2004734Y79966D01*
X2004749Y79981D01*
X2004764Y79996D01*
X2004809Y80026D01*
X2004883Y80070D01*
X2004957Y80115D01*
X2005046Y80174D01*
X2005269Y80308D01*
X2005552Y80427D01*
X2005893Y80531D01*
X2006265Y80605D01*
X2006473Y80635D01*
X2006815D01*
X2006963Y80620D01*
D02*
G37*
G36*
X1998271Y80576D02*
X1998538Y80561D01*
X1998835Y80531D01*
X1999118Y80486D01*
X1999355Y80442D01*
X1999370D01*
X1999400Y80427D01*
X1999430D01*
X1999489Y80397D01*
X1999653Y80353D01*
X1999846Y80278D01*
X2000069Y80189D01*
X2000306Y80070D01*
X2000544Y79922D01*
X2000782Y79743D01*
X2000797D01*
X2000812Y79714D01*
X2000916Y79625D01*
X2001049Y79476D01*
X2001213Y79283D01*
X2001406Y79045D01*
X2001599Y78763D01*
X2001777Y78436D01*
X2001941Y78064D01*
Y78050D01*
X2001956Y78020D01*
X2001971Y77960D01*
X2002000Y77886D01*
X2002030Y77797D01*
X2002060Y77678D01*
X2002104Y77544D01*
X2002134Y77396D01*
X2002164Y77232D01*
X2002208Y77054D01*
X2002268Y76668D01*
X2002312Y76237D01*
X2002327Y75761D01*
Y75746D01*
Y75717D01*
Y75657D01*
Y75568D01*
X2002312Y75479D01*
Y75360D01*
X2002298Y75093D01*
X2002268Y74795D01*
X2002208Y74454D01*
X2002149Y74112D01*
X2002060Y73785D01*
Y73770D01*
X2002045Y73740D01*
X2002030Y73696D01*
X2002015Y73636D01*
X2001956Y73488D01*
X2001881Y73280D01*
X2001792Y73057D01*
X2001673Y72819D01*
X2001540Y72581D01*
X2001391Y72358D01*
X2001376Y72329D01*
X2001317Y72269D01*
X2001243Y72165D01*
X2001124Y72032D01*
X2001005Y71898D01*
X2000841Y71749D01*
X2000678Y71601D01*
X2000500Y71467D01*
X2000485Y71452D01*
X2000410Y71422D01*
X2000306Y71363D01*
X2000173Y71289D01*
X2000009Y71214D01*
X1999816Y71140D01*
X1999593Y71066D01*
X1999341Y70992D01*
X1999311D01*
X1999222Y70962D01*
X1999088Y70947D01*
X1998895Y70917D01*
X1998672Y70887D01*
X1998404Y70858D01*
X1998107Y70843D01*
X1997780Y70828D01*
X1994274D01*
Y80590D01*
X1998018D01*
X1998271Y80576D01*
D02*
G37*
G36*
X1992594Y79446D02*
X1987305D01*
Y76400D01*
X1991881D01*
Y75256D01*
X1987305D01*
Y70828D01*
X1986012D01*
Y80590D01*
X1992594D01*
Y79446D01*
D02*
G37*
G36*
X100995D02*
X95705D01*
Y76400D01*
X100281D01*
Y75256D01*
X95705D01*
Y70828D01*
X94412D01*
Y80590D01*
X100995D01*
Y79446D01*
D02*
G37*
G36*
X116537Y70828D02*
X115333D01*
Y78465D01*
X115319Y78451D01*
X115259Y78391D01*
X115155Y78317D01*
X115021Y78213D01*
X114858Y78079D01*
X114665Y77945D01*
X114442Y77782D01*
X114189Y77633D01*
X114174D01*
X114160Y77619D01*
X114071Y77559D01*
X113937Y77485D01*
X113773Y77396D01*
X113580Y77292D01*
X113372Y77203D01*
X113149Y77098D01*
X112941Y77009D01*
Y78183D01*
X112956D01*
X112986Y78198D01*
X113045Y78228D01*
X113105Y78272D01*
X113194Y78317D01*
X113298Y78362D01*
X113535Y78495D01*
X113803Y78659D01*
X114100Y78852D01*
X114397Y79075D01*
X114680Y79313D01*
X114694Y79327D01*
X114709Y79342D01*
X114799Y79431D01*
X114932Y79565D01*
X115096Y79728D01*
X115274Y79937D01*
X115452Y80160D01*
X115616Y80397D01*
X115750Y80635D01*
X116537D01*
Y70828D01*
D02*
G37*
G36*
X106671Y80576D02*
X106938Y80561D01*
X107235Y80531D01*
X107518Y80486D01*
X107755Y80442D01*
X107770D01*
X107800Y80427D01*
X107830D01*
X107889Y80397D01*
X108053Y80353D01*
X108246Y80278D01*
X108469Y80189D01*
X108706Y80070D01*
X108944Y79922D01*
X109182Y79743D01*
X109197D01*
X109212Y79714D01*
X109316Y79625D01*
X109449Y79476D01*
X109613Y79283D01*
X109806Y79045D01*
X109999Y78763D01*
X110177Y78436D01*
X110341Y78064D01*
Y78050D01*
X110356Y78020D01*
X110371Y77960D01*
X110400Y77886D01*
X110430Y77797D01*
X110460Y77678D01*
X110504Y77544D01*
X110534Y77396D01*
X110564Y77232D01*
X110608Y77054D01*
X110668Y76668D01*
X110712Y76237D01*
X110727Y75761D01*
Y75746D01*
Y75717D01*
Y75657D01*
Y75568D01*
X110712Y75479D01*
Y75360D01*
X110697Y75093D01*
X110668Y74795D01*
X110608Y74454D01*
X110549Y74112D01*
X110460Y73785D01*
Y73770D01*
X110445Y73740D01*
X110430Y73696D01*
X110415Y73636D01*
X110356Y73488D01*
X110281Y73280D01*
X110192Y73057D01*
X110073Y72819D01*
X109940Y72581D01*
X109791Y72358D01*
X109776Y72329D01*
X109717Y72269D01*
X109642Y72165D01*
X109524Y72032D01*
X109405Y71898D01*
X109241Y71749D01*
X109078Y71601D01*
X108899Y71467D01*
X108885Y71452D01*
X108810Y71422D01*
X108706Y71363D01*
X108573Y71289D01*
X108409Y71214D01*
X108216Y71140D01*
X107993Y71066D01*
X107740Y70992D01*
X107711D01*
X107622Y70962D01*
X107488Y70947D01*
X107295Y70917D01*
X107072Y70887D01*
X106804Y70858D01*
X106507Y70843D01*
X106180Y70828D01*
X102674D01*
Y80590D01*
X106418D01*
X106671Y80576D01*
D02*
G37*
%LPC*%
G36*
X1997602Y79446D02*
X1995566D01*
Y71972D01*
X1997795D01*
X1997959Y71987D01*
X1998181Y72002D01*
X1998419Y72017D01*
X1998672Y72046D01*
X1998910Y72091D01*
X1999133Y72151D01*
X1999162Y72165D01*
X1999222Y72180D01*
X1999326Y72225D01*
X1999444Y72284D01*
X1999593Y72358D01*
X1999742Y72433D01*
X1999875Y72537D01*
X2000009Y72656D01*
X2000024Y72670D01*
X2000083Y72745D01*
X2000173Y72849D01*
X2000277Y72983D01*
X2000381Y73161D01*
X2000500Y73369D01*
X2000618Y73622D01*
X2000722Y73889D01*
Y73904D01*
X2000737Y73919D01*
X2000752Y73963D01*
X2000767Y74023D01*
X2000782Y74097D01*
X2000812Y74186D01*
X2000856Y74409D01*
X2000901Y74691D01*
X2000945Y75018D01*
X2000975Y75375D01*
X2000990Y75776D01*
Y75791D01*
Y75850D01*
Y75925D01*
Y76029D01*
X2000975Y76162D01*
X2000960Y76311D01*
X2000945Y76474D01*
X2000930Y76638D01*
X2000871Y77024D01*
X2000782Y77410D01*
X2000648Y77782D01*
X2000574Y77960D01*
X2000485Y78124D01*
Y78139D01*
X2000455Y78154D01*
X2000440Y78198D01*
X2000396Y78257D01*
X2000291Y78406D01*
X2000143Y78569D01*
X1999965Y78763D01*
X1999757Y78941D01*
X1999519Y79104D01*
X1999266Y79238D01*
X1999236Y79253D01*
X1999162Y79268D01*
X1999043Y79298D01*
X1998865Y79342D01*
X1998627Y79387D01*
X1998345Y79416D01*
X1998003Y79431D01*
X1997602Y79446D01*
D02*
G37*
G36*
X106002D02*
X103966D01*
Y71972D01*
X106195D01*
X106359Y71987D01*
X106581Y72002D01*
X106819Y72017D01*
X107072Y72046D01*
X107310Y72091D01*
X107533Y72151D01*
X107562Y72165D01*
X107622Y72180D01*
X107726Y72225D01*
X107844Y72284D01*
X107993Y72358D01*
X108142Y72433D01*
X108275Y72537D01*
X108409Y72656D01*
X108424Y72670D01*
X108483Y72745D01*
X108573Y72849D01*
X108677Y72983D01*
X108781Y73161D01*
X108899Y73369D01*
X109018Y73622D01*
X109122Y73889D01*
Y73904D01*
X109137Y73919D01*
X109152Y73963D01*
X109167Y74023D01*
X109182Y74097D01*
X109212Y74186D01*
X109256Y74409D01*
X109301Y74691D01*
X109345Y75018D01*
X109375Y75375D01*
X109390Y75776D01*
Y75791D01*
Y75850D01*
Y75925D01*
Y76029D01*
X109375Y76162D01*
X109360Y76311D01*
X109345Y76474D01*
X109330Y76638D01*
X109271Y77024D01*
X109182Y77410D01*
X109048Y77782D01*
X108974Y77960D01*
X108885Y78124D01*
Y78139D01*
X108855Y78154D01*
X108840Y78198D01*
X108795Y78257D01*
X108692Y78406D01*
X108543Y78569D01*
X108365Y78763D01*
X108157Y78941D01*
X107919Y79104D01*
X107666Y79238D01*
X107636Y79253D01*
X107562Y79268D01*
X107443Y79298D01*
X107265Y79342D01*
X107027Y79387D01*
X106745Y79416D01*
X106403Y79431D01*
X106002Y79446D01*
D02*
G37*
%LPD*%
D11*
X107874Y50000D02*
G03*
X107874Y50000I-7874J0D01*
G01*
X1999474D02*
G03*
X1999474Y50000I-7874J0D01*
G01*
D12*
X1769584Y72539D02*
X1832983D01*
X1768772Y72132D02*
X1832983D01*
X1767959Y71726D02*
X1832983D01*
X1767146Y71320D02*
X1832983D01*
X1766740Y70913D02*
X1832576D01*
X1766333Y70507D02*
X1832576D01*
X1765927Y70100D02*
X1780557D01*
X1787872D02*
X1806567D01*
X1824448D02*
X1825261D01*
X1826480D02*
X1826887D01*
X1827293D02*
X1828106D01*
X1829325D02*
X1832170D01*
X1765927Y69694D02*
X1769584D01*
X1829325D02*
X1832170D01*
X1765520Y69288D02*
X1769178D01*
X1828919D02*
X1832170D01*
X1765520Y68881D02*
X1768365D01*
X1828919D02*
X1831764D01*
X1765114Y68475D02*
X1768365D01*
X1772023D02*
X1772429D01*
X1772836D02*
X1773648D01*
X1803316D02*
X1803722D01*
X1824855D02*
X1825261D01*
X1828919D02*
X1831764D01*
X1765114Y68068D02*
X1767959D01*
X1771616D02*
X1791936D01*
X1802909D02*
X1825668D01*
X1828512D02*
X1831357D01*
X1764708Y67662D02*
X1767959D01*
X1770804D02*
X1792343D01*
X1801690D02*
X1826074D01*
X1828512D02*
X1831357D01*
X1764708Y67256D02*
X1767552D01*
X1770397D02*
X1792343D01*
X1801690D02*
X1826074D01*
X1828512D02*
X1831357D01*
X1764301Y66849D02*
X1767552D01*
X1769991D02*
X1792343D01*
X1800877D02*
X1826074D01*
X1828106D02*
X1830951D01*
X1764301Y66443D02*
X1767552D01*
X1769991D02*
X1791936D01*
X1800064D02*
X1825668D01*
X1828106D02*
X1830951D01*
X1764301Y66036D02*
X1767146D01*
X1769584D02*
X1791936D01*
X1799658D02*
X1825668D01*
X1828106D02*
X1830951D01*
X1764301Y65630D02*
X1767146D01*
X1769584D02*
X1791936D01*
X1798845D02*
X1825668D01*
X1827700D02*
X1830951D01*
X1763895Y65224D02*
X1767146D01*
X1769178D02*
X1791530D01*
X1798032D02*
X1825261D01*
X1827700D02*
X1830544D01*
X1763895Y64817D02*
X1766740D01*
X1769178D02*
X1791530D01*
X1797626D02*
X1825261D01*
X1827700D02*
X1830544D01*
X1763895Y64411D02*
X1766740D01*
X1769178D02*
X1791530D01*
X1796813D02*
X1824855D01*
X1827293D02*
X1830544D01*
X1763488Y64004D02*
X1766740D01*
X1768772D02*
X1791124D01*
X1796407D02*
X1824855D01*
X1827293D02*
X1830138D01*
X1763488Y63598D02*
X1766333D01*
X1768772D02*
X1791124D01*
X1795594D02*
X1824855D01*
X1826887D02*
X1830138D01*
X1763488Y63192D02*
X1766333D01*
X1768365D02*
X1790717D01*
X1795188D02*
X1824448D01*
X1826887D02*
X1829732D01*
X1763082Y62785D02*
X1766333D01*
X1768365D02*
X1790717D01*
X1794375D02*
X1824448D01*
X1826887D02*
X1829732D01*
X1763082Y62379D02*
X1765927D01*
X1768365D02*
X1790717D01*
X1793562D02*
X1824448D01*
X1826480D02*
X1829732D01*
X1763082Y61972D02*
X1765927D01*
X1767959D02*
X1790311D01*
X1793156D02*
X1824042D01*
X1826480D02*
X1829732D01*
X1762676Y61566D02*
X1765927D01*
X1767959D02*
X1790311D01*
X1791936D02*
X1824042D01*
X1826480D02*
X1829325D01*
X1762676Y61160D02*
X1765520D01*
X1767552D02*
X1789904D01*
X1791530D02*
X1823636D01*
X1826074D02*
X1829325D01*
X1762676Y60753D02*
X1765520D01*
X1767552D02*
X1789904D01*
X1790717D02*
X1823636D01*
X1826074D02*
X1828919D01*
X1762269Y60347D02*
X1765520D01*
X1767552D02*
X1789904D01*
X1790311D02*
X1823636D01*
X1826074D02*
X1828919D01*
X1762269Y59940D02*
X1765114D01*
X1767552D02*
X1823229D01*
X1825668D02*
X1828919D01*
X1762269Y59534D02*
X1765114D01*
X1767552D02*
X1789092D01*
X1790311D02*
X1822823D01*
X1825668D02*
X1828512D01*
X1761863Y59128D02*
X1765114D01*
X1775274D02*
X1784621D01*
X1825668D02*
X1828512D01*
X1761863Y58721D02*
X1764708D01*
X1775274D02*
X1784621D01*
X1789498D02*
X1789904D01*
X1825261D02*
X1828512D01*
X1761863Y58315D02*
X1764708D01*
X1774868D02*
X1784215D01*
X1788685D02*
X1796813D01*
X1806973D02*
X1809005D01*
X1814288D02*
X1822416D01*
X1825261D02*
X1828512D01*
X1761456Y57908D02*
X1764708D01*
X1774868D02*
X1784215D01*
X1788279D02*
X1796813D01*
X1805348D02*
X1811037D01*
X1813882D02*
X1822416D01*
X1825261D02*
X1828106D01*
X1761456Y57502D02*
X1764301D01*
X1774868D02*
X1784215D01*
X1787872D02*
X1796813D01*
X1803722D02*
X1811850D01*
X1813476D02*
X1822416D01*
X1824855D02*
X1828106D01*
X1761050Y57096D02*
X1764301D01*
X1774461D02*
X1783808D01*
X1787872D02*
X1796813D01*
X1802909D02*
X1812663D01*
X1813476D02*
X1822416D01*
X1824855D02*
X1827700D01*
X1761050Y56689D02*
X1763895D01*
X1774461D02*
X1783808D01*
X1787872D02*
X1796407D01*
X1802096D02*
X1822416D01*
X1824855D02*
X1827700D01*
X1761050Y56283D02*
X1763895D01*
X1774461D02*
X1783402D01*
X1787466D02*
X1796407D01*
X1801690D02*
X1822010D01*
X1824448D02*
X1827700D01*
X1761050Y55876D02*
X1763895D01*
X1774055D02*
X1783402D01*
X1787466D02*
X1796407D01*
X1801284D02*
X1822010D01*
X1824448D02*
X1827293D01*
X1760644Y55470D02*
X1763895D01*
X1774055D02*
X1783402D01*
X1787060D02*
X1796407D01*
X1800471D02*
X1821604D01*
X1824448D02*
X1827293D01*
X1760644Y55064D02*
X1763488D01*
X1774055D02*
X1782996D01*
X1787060D02*
X1796000D01*
X1800064D02*
X1821604D01*
X1824042D02*
X1826887D01*
X1760237Y54657D02*
X1763488D01*
X1773648D02*
X1782996D01*
X1787060D02*
X1796000D01*
X1799658D02*
X1809005D01*
X1811037D02*
X1821604D01*
X1824042D02*
X1826887D01*
X1760237Y54251D02*
X1763488D01*
X1773648D02*
X1782996D01*
X1786653D02*
X1795594D01*
X1799658D02*
X1808599D01*
X1811444D02*
X1821197D01*
X1823636D02*
X1826887D01*
X1760237Y53844D02*
X1763082D01*
X1773648D02*
X1782589D01*
X1786653D02*
X1795594D01*
X1799252D02*
X1808192D01*
X1811444D02*
X1821197D01*
X1823636D02*
X1826480D01*
X1760237Y53438D02*
X1763488D01*
X1773242D02*
X1782589D01*
X1786653D02*
X1795594D01*
X1798845D02*
X1808192D01*
X1811444D02*
X1821197D01*
X1823636D02*
X1826480D01*
X1759831Y53032D02*
X1763082D01*
X1773242D02*
X1782183D01*
X1786247D02*
X1795188D01*
X1798439D02*
X1808192D01*
X1811850D02*
X1820791D01*
X1823229D02*
X1826074D01*
X1759831Y52625D02*
X1762676D01*
X1773242D02*
X1782183D01*
X1786247D02*
X1795188D01*
X1798439D02*
X1808192D01*
X1811850D02*
X1820791D01*
X1823229D02*
X1826074D01*
X1759424Y52219D02*
X1762676D01*
X1772836D02*
X1782183D01*
X1786247D02*
X1795188D01*
X1798032D02*
X1807786D01*
X1811850D02*
X1820791D01*
X1823229D02*
X1826074D01*
X1759424Y51812D02*
X1762676D01*
X1772836D02*
X1781776D01*
X1785840D02*
X1794781D01*
X1798032D02*
X1807786D01*
X1811850D02*
X1820384D01*
X1822823D02*
X1826074D01*
X1759424Y51406D02*
X1762269D01*
X1772429D02*
X1781776D01*
X1785840D02*
X1794781D01*
X1797626D02*
X1807380D01*
X1811444D02*
X1820384D01*
X1822823D02*
X1825668D01*
X1759018Y51000D02*
X1762269D01*
X1772429D02*
X1781776D01*
X1785840D02*
X1794781D01*
X1797626D02*
X1807380D01*
X1811444D02*
X1819978D01*
X1822823D02*
X1825668D01*
X1759018Y50593D02*
X1762269D01*
X1772429D02*
X1781370D01*
X1785434D02*
X1794375D01*
X1797626D02*
X1806973D01*
X1811444D02*
X1819978D01*
X1822416D02*
X1825668D01*
X1759018Y50187D02*
X1761863D01*
X1772023D02*
X1781370D01*
X1785434D02*
X1794375D01*
X1797220D02*
X1806973D01*
X1811037D02*
X1819978D01*
X1822416D02*
X1825261D01*
X1758612Y49780D02*
X1761863D01*
X1772023D02*
X1780964D01*
X1785434D02*
X1793968D01*
X1797220D02*
X1806973D01*
X1811037D02*
X1819978D01*
X1822416D02*
X1825261D01*
X1758612Y49374D02*
X1761863D01*
X1772023D02*
X1780964D01*
X1785028D02*
X1793968D01*
X1797220D02*
X1806973D01*
X1811037D02*
X1819572D01*
X1822010D02*
X1825261D01*
X1758612Y48968D02*
X1761456D01*
X1771616D02*
X1780964D01*
X1785028D02*
X1793968D01*
X1796813D02*
X1806567D01*
X1810631D02*
X1819572D01*
X1822010D02*
X1824855D01*
X1758205Y48561D02*
X1761456D01*
X1771616D02*
X1780557D01*
X1784621D02*
X1793562D01*
X1796813D02*
X1806567D01*
X1810631D02*
X1819165D01*
X1822010D02*
X1824855D01*
X1758205Y48155D02*
X1761456D01*
X1771616D02*
X1780557D01*
X1784621D02*
X1793562D01*
X1796813D02*
X1806160D01*
X1810224D02*
X1819165D01*
X1821604D02*
X1824855D01*
X1757799Y47748D02*
X1761050D01*
X1771210D02*
X1780557D01*
X1784621D02*
X1793156D01*
X1796813D02*
X1806160D01*
X1810224D02*
X1819165D01*
X1821604D02*
X1824448D01*
X1757799Y47342D02*
X1761050D01*
X1771210D02*
X1780151D01*
X1784215D02*
X1793156D01*
X1796813D02*
X1806160D01*
X1810224D02*
X1818759D01*
X1821197D02*
X1824448D01*
X1757799Y46936D02*
X1760644D01*
X1770804D02*
X1780151D01*
X1784215D02*
X1793156D01*
X1796813D02*
X1806160D01*
X1809818D02*
X1818759D01*
X1821197D02*
X1824448D01*
X1757799Y46529D02*
X1760644D01*
X1770804D02*
X1780151D01*
X1783808D02*
X1792749D01*
X1796813D02*
X1805754D01*
X1809818D02*
X1818352D01*
X1821197D02*
X1824042D01*
X1757392Y46123D02*
X1760644D01*
X1770804D02*
X1779744D01*
X1783808D02*
X1792749D01*
X1796813D02*
X1805754D01*
X1809818D02*
X1818352D01*
X1820791D02*
X1824042D01*
X1757392Y45716D02*
X1760237D01*
X1770397D02*
X1779744D01*
X1783808D02*
X1792749D01*
X1797220D02*
X1806160D01*
X1809412D02*
X1818352D01*
X1820791D02*
X1823636D01*
X1756986Y45310D02*
X1760237D01*
X1770397D02*
X1779744D01*
X1783402D02*
X1792343D01*
X1797220D02*
X1806160D01*
X1809005D02*
X1817946D01*
X1820791D02*
X1823636D01*
X1756986Y44904D02*
X1760237D01*
X1770397D02*
X1779338D01*
X1783402D02*
X1792343D01*
X1797220D02*
X1806973D01*
X1808599D02*
X1817946D01*
X1820384D02*
X1823636D01*
X1756986Y44497D02*
X1759831D01*
X1769991D02*
X1779338D01*
X1783402D02*
X1792343D01*
X1797626D02*
X1817946D01*
X1820384D02*
X1823229D01*
X1756986Y44091D02*
X1759831D01*
X1769991D02*
X1779338D01*
X1782996D02*
X1791936D01*
X1797626D02*
X1817540D01*
X1820384D02*
X1823229D01*
X1756580Y43684D02*
X1759831D01*
X1769991D02*
X1778932D01*
X1782996D02*
X1791936D01*
X1798032D02*
X1817540D01*
X1819978D02*
X1823229D01*
X1756580Y43278D02*
X1759424D01*
X1769584D02*
X1778932D01*
X1782996D02*
X1791936D01*
X1798032D02*
X1817540D01*
X1819978D02*
X1822823D01*
X1756580Y42872D02*
X1759424D01*
X1769584D02*
X1778525D01*
X1782589D02*
X1791530D01*
X1798439D02*
X1817133D01*
X1819978D02*
X1822823D01*
X1756173Y42465D02*
X1759018D01*
X1769178D02*
X1778525D01*
X1782589D02*
X1791124D01*
X1798845D02*
X1816727D01*
X1819572D02*
X1822416D01*
X1756173Y42059D02*
X1759018D01*
X1769178D02*
X1778119D01*
X1782183D02*
X1790717D01*
X1799252D02*
X1816727D01*
X1819572D02*
X1822416D01*
X1755767Y41652D02*
X1759018D01*
X1769178D02*
X1777712D01*
X1782183D02*
X1790717D01*
X1799658D02*
X1815914D01*
X1819572D02*
X1822416D01*
X1755767Y41246D02*
X1758612D01*
X1768772D02*
X1777306D01*
X1782183D02*
X1789904D01*
X1800064D02*
X1815508D01*
X1819165D02*
X1822416D01*
X1755767Y40840D02*
X1758612D01*
X1768772D02*
X1776493D01*
X1781776D02*
X1789092D01*
X1800877D02*
X1806973D01*
X1807380D02*
X1814695D01*
X1819165D02*
X1822010D01*
X1755360Y40433D02*
X1758612D01*
X1769178D02*
X1774461D01*
X1782183D02*
X1787872D01*
X1802096D02*
X1805348D01*
X1807786D02*
X1813069D01*
X1819165D02*
X1822010D01*
X1755360Y40027D02*
X1758612D01*
X1818759D02*
X1821604D01*
X1755360Y39620D02*
X1758205D01*
X1818759D02*
X1821604D01*
X1754954Y39214D02*
X1758205D01*
X1759831D02*
X1815101D01*
X1818759D02*
X1821604D01*
X1754954Y38808D02*
X1757799D01*
X1759831D02*
X1815508D01*
X1818352D02*
X1821604D01*
X1754954Y38401D02*
X1757799D01*
X1759424D02*
X1815508D01*
X1818352D02*
X1821197D01*
X1754548Y37995D02*
X1757392D01*
X1759424D02*
X1815508D01*
X1817946D02*
X1821197D01*
X1754548Y37588D02*
X1757392D01*
X1759018D02*
X1815101D01*
X1817946D02*
X1820791D01*
X1754548Y37182D02*
X1757392D01*
X1759018D02*
X1815101D01*
X1817946D02*
X1820791D01*
X1754141Y36776D02*
X1756986D01*
X1759018D02*
X1815101D01*
X1817946D02*
X1820791D01*
X1754141Y36369D02*
X1756986D01*
X1758612D02*
X1814695D01*
X1817540D02*
X1820384D01*
X1754141Y35963D02*
X1756986D01*
X1758612D02*
X1814695D01*
X1817540D02*
X1820384D01*
X1753735Y35556D02*
X1756580D01*
X1758612D02*
X1814288D01*
X1817133D02*
X1819978D01*
X1753735Y35150D02*
X1756580D01*
X1758205D02*
X1814288D01*
X1817133D02*
X1819978D01*
X1753328Y34744D02*
X1756580D01*
X1758205D02*
X1814288D01*
X1817133D02*
X1819978D01*
X1753328Y34337D02*
X1756173D01*
X1757799D02*
X1813882D01*
X1816727D02*
X1819978D01*
X1753328Y33931D02*
X1756173D01*
X1757799D02*
X1813882D01*
X1816727D02*
X1819572D01*
X1752922Y33524D02*
X1756173D01*
X1757799D02*
X1813476D01*
X1816727D02*
X1819572D01*
X1752922Y33118D02*
X1755767D01*
X1757392D02*
X1813476D01*
X1816320D02*
X1819572D01*
X1752922Y32712D02*
X1755767D01*
X1757392D02*
X1813069D01*
X1816320D02*
X1819165D01*
X1752922Y32305D02*
X1755767D01*
X1757392D02*
X1813069D01*
X1816320D02*
X1819165D01*
X1752516Y31899D02*
X1755360D01*
X1756986D02*
X1812663D01*
X1815914D02*
X1819165D01*
X1752516Y31492D02*
X1755360D01*
X1756986D02*
X1812256D01*
X1815914D02*
X1818759D01*
X1752109Y31086D02*
X1755360D01*
X1756986D02*
X1811444D01*
X1815508D02*
X1818759D01*
X1752109Y30680D02*
X1754954D01*
X1756986D02*
X1810224D01*
X1815508D02*
X1818352D01*
X1752109Y30273D02*
X1754954D01*
X1756986D02*
X1808192D01*
X1815508D02*
X1818352D01*
X1751703Y29867D02*
X1754954D01*
X1815101D02*
X1818352D01*
X1751703Y29460D02*
X1754548D01*
X1814695D02*
X1817946D01*
X1751703Y29054D02*
X1754548D01*
X1814288D02*
X1817946D01*
X1751296Y28648D02*
X1754548D01*
X1813069D02*
X1817540D01*
X1751296Y28241D02*
X1817133D01*
X1751296Y27835D02*
X1816727D01*
X1750890Y27428D02*
X1816320D01*
X1750890Y27022D02*
X1815914D01*
X1750890Y26616D02*
X1815508D01*
X1750890Y26209D02*
X1814695D01*
X1750890Y25803D02*
X1813882D01*
X278990Y26303D02*
X341982D01*
X278990Y26709D02*
X342795D01*
X278990Y27116D02*
X343608D01*
X278990Y27522D02*
X344014D01*
X278990Y27928D02*
X344420D01*
X279396Y28335D02*
X344827D01*
X279396Y28741D02*
X345233D01*
X341169Y29148D02*
X345640D01*
X279396D02*
X282648D01*
X342388Y29554D02*
X346046D01*
X279803D02*
X282648D01*
X342795Y29960D02*
X346046D01*
X279803D02*
X282648D01*
X343201Y30367D02*
X346452D01*
X279803D02*
X283054D01*
X343608Y30773D02*
X346452D01*
X285086D02*
X336292D01*
X280209D02*
X283054D01*
X343608Y31180D02*
X346452D01*
X285086D02*
X338324D01*
X280209D02*
X283054D01*
X343608Y31586D02*
X346859D01*
X285086D02*
X339544D01*
X280209D02*
X283460D01*
X344014Y31992D02*
X346859D01*
X285086D02*
X340356D01*
X280616D02*
X283460D01*
X344014Y32399D02*
X347265D01*
X285086D02*
X340763D01*
X280616D02*
X283460D01*
X344420Y32805D02*
X347265D01*
X285492D02*
X341169D01*
X281022D02*
X283867D01*
X344420Y33212D02*
X347265D01*
X285492D02*
X341169D01*
X281022D02*
X283867D01*
X344420Y33618D02*
X347672D01*
X285492D02*
X341576D01*
X281022D02*
X283867D01*
X344827Y34024D02*
X347672D01*
X285899D02*
X341576D01*
X281022D02*
X284273D01*
X344827Y34431D02*
X347672D01*
X285899D02*
X341982D01*
X281428D02*
X284273D01*
X344827Y34837D02*
X348078D01*
X285899D02*
X341982D01*
X281428D02*
X284273D01*
X345233Y35244D02*
X348078D01*
X286305D02*
X342388D01*
X281428D02*
X284680D01*
X345233Y35650D02*
X348078D01*
X286305D02*
X342388D01*
X281835D02*
X284680D01*
X345233Y36056D02*
X348078D01*
X286712D02*
X342388D01*
X281835D02*
X284680D01*
X345640Y36463D02*
X348484D01*
X286712D02*
X342795D01*
X282241D02*
X285086D01*
X345640Y36869D02*
X348484D01*
X286712D02*
X342795D01*
X282241D02*
X285086D01*
X346046Y37276D02*
X348891D01*
X287118D02*
X343201D01*
X282241D02*
X285086D01*
X346046Y37682D02*
X348891D01*
X287118D02*
X343201D01*
X282648D02*
X285492D01*
X346046Y38088D02*
X348891D01*
X287118D02*
X343201D01*
X282648D02*
X285492D01*
X346046Y38495D02*
X349297D01*
X287524D02*
X343608D01*
X282648D02*
X285492D01*
X346452Y38901D02*
X349297D01*
X287524D02*
X343608D01*
X283054D02*
X285899D01*
X346452Y39308D02*
X349704D01*
X287931D02*
X343608D01*
X283054D02*
X285899D01*
X346859Y39714D02*
X349704D01*
X287931D02*
X343201D01*
X283054D02*
X286305D01*
X346859Y40120D02*
X349704D01*
X283460D02*
X286305D01*
X346859Y40527D02*
X349704D01*
X283460D02*
X286712D01*
X347265Y40933D02*
X350110D01*
X335886D02*
X341169D01*
X330196D02*
X333448D01*
X310283D02*
X315972D01*
X297278D02*
X302561D01*
X283460D02*
X286712D01*
X347265Y41340D02*
X350110D01*
X335480D02*
X342795D01*
X328977D02*
X335073D01*
X309876D02*
X317192D01*
X296872D02*
X304593D01*
X283867D02*
X286712D01*
X347265Y41746D02*
X350516D01*
X328164D02*
X343608D01*
X310283D02*
X318004D01*
X296872D02*
X305406D01*
X283867D02*
X286712D01*
X347672Y42152D02*
X350516D01*
X327758D02*
X344014D01*
X310283D02*
X318817D01*
X297278D02*
X305812D01*
X283867D02*
X287118D01*
X347672Y42559D02*
X350516D01*
X327352D02*
X344827D01*
X310283D02*
X318817D01*
X297278D02*
X306219D01*
X284273D02*
X287118D01*
X347672Y42965D02*
X350516D01*
X326945D02*
X344827D01*
X310689D02*
X319224D01*
X297278D02*
X306625D01*
X284273D02*
X287118D01*
X348078Y43372D02*
X350923D01*
X326539D02*
X345233D01*
X310689D02*
X319630D01*
X297684D02*
X306625D01*
X284680D02*
X287524D01*
X348078Y43778D02*
X350923D01*
X326132D02*
X345640D01*
X311096D02*
X320036D01*
X297684D02*
X307032D01*
X284680D02*
X287524D01*
X348078Y44184D02*
X351329D01*
X326132D02*
X345640D01*
X311096D02*
X320036D01*
X298091D02*
X307032D01*
X284680D02*
X287931D01*
X348484Y44591D02*
X351329D01*
X325726D02*
X345640D01*
X311096D02*
X320036D01*
X298091D02*
X307438D01*
X285086D02*
X287931D01*
X348484Y44997D02*
X351329D01*
X325726D02*
X346046D01*
X311502D02*
X320443D01*
X298091D02*
X307438D01*
X285086D02*
X287931D01*
X348484Y45404D02*
X351736D01*
X336699D02*
X346046D01*
X325320D02*
X335073D01*
X311502D02*
X320443D01*
X298497D02*
X307438D01*
X285086D02*
X288337D01*
X348891Y45810D02*
X351736D01*
X337105D02*
X346046D01*
X325320D02*
X334260D01*
X311502D02*
X320443D01*
X298497D02*
X307844D01*
X285086D02*
X288337D01*
X348891Y46216D02*
X351736D01*
X337512D02*
X346452D01*
X325320D02*
X334260D01*
X311908D02*
X320849D01*
X298497D02*
X307844D01*
X285492D02*
X288337D01*
X348891Y46623D02*
X352142D01*
X337918D02*
X346452D01*
X324913D02*
X333854D01*
X311908D02*
X320849D01*
X298904D02*
X307844D01*
X285492D02*
X288744D01*
X349297Y47029D02*
X352142D01*
X337918D02*
X346452D01*
X324913D02*
X333854D01*
X311908D02*
X320849D01*
X298904D02*
X308251D01*
X285899D02*
X288744D01*
X349297Y47436D02*
X352548D01*
X337918D02*
X346859D01*
X324913D02*
X334260D01*
X312315D02*
X321256D01*
X298904D02*
X308251D01*
X285899D02*
X288744D01*
X349297Y47842D02*
X352548D01*
X338324D02*
X346859D01*
X324913D02*
X334260D01*
X312315D02*
X321256D01*
X299310D02*
X308251D01*
X285899D02*
X289150D01*
X349704Y48248D02*
X352548D01*
X338324D02*
X347265D01*
X324913D02*
X334260D01*
X312721D02*
X321256D01*
X299310D02*
X308657D01*
X285899D02*
X289150D01*
X349704Y48655D02*
X352955D01*
X338324D02*
X347265D01*
X324913D02*
X334260D01*
X312721D02*
X321662D01*
X299716D02*
X308657D01*
X286305D02*
X289556D01*
X350110Y49061D02*
X352955D01*
X338731D02*
X347265D01*
X324913D02*
X334667D01*
X312721D02*
X321662D01*
X299716D02*
X308657D01*
X286305D02*
X289556D01*
X350110Y49468D02*
X352955D01*
X338731D02*
X347672D01*
X324913D02*
X334667D01*
X313128D02*
X322068D01*
X299716D02*
X309064D01*
X286712D02*
X289556D01*
X350110Y49874D02*
X353361D01*
X339137D02*
X347672D01*
X325320D02*
X335073D01*
X313128D02*
X322068D01*
X300123D02*
X309064D01*
X286712D02*
X289963D01*
X350516Y50280D02*
X353361D01*
X339137D02*
X348078D01*
X325320D02*
X335073D01*
X313534D02*
X322068D01*
X300123D02*
X309064D01*
X286712D02*
X289963D01*
X350516Y50687D02*
X353361D01*
X339137D02*
X348078D01*
X325320D02*
X335073D01*
X313534D02*
X322475D01*
X300123D02*
X309470D01*
X287118D02*
X289963D01*
X350516Y51093D02*
X353768D01*
X339544D02*
X348078D01*
X325726D02*
X335073D01*
X313534D02*
X322475D01*
X300529D02*
X309470D01*
X287118D02*
X290369D01*
X350923Y51500D02*
X353768D01*
X339544D02*
X348078D01*
X325726D02*
X335480D01*
X313940D02*
X322881D01*
X300529D02*
X309876D01*
X287118D02*
X290369D01*
X350923Y51906D02*
X353768D01*
X339544D02*
X348484D01*
X325726D02*
X335480D01*
X313940D02*
X322881D01*
X300529D02*
X309876D01*
X287524D02*
X290369D01*
X350923Y52312D02*
X354174D01*
X339950D02*
X348484D01*
X326132D02*
X335886D01*
X313940D02*
X322881D01*
X300936D02*
X309876D01*
X287524D02*
X290776D01*
X351329Y52719D02*
X354174D01*
X339950D02*
X348891D01*
X326132D02*
X335886D01*
X314347D02*
X323288D01*
X300936D02*
X310283D01*
X287524D02*
X290776D01*
X351329Y53125D02*
X354174D01*
X339950D02*
X348891D01*
X326539D02*
X336292D01*
X314347D02*
X323288D01*
X301342D02*
X310283D01*
X287931D02*
X290776D01*
X351329Y53532D02*
X354174D01*
X339950D02*
X348891D01*
X326539D02*
X336292D01*
X314347D02*
X323288D01*
X301342D02*
X310283D01*
X287931D02*
X291182D01*
X351736Y53938D02*
X354580D01*
X339544D02*
X349297D01*
X326945D02*
X336292D01*
X314753D02*
X323694D01*
X301342D02*
X310689D01*
X288337D02*
X291588D01*
X351736Y54344D02*
X354580D01*
X339544D02*
X349297D01*
X327352D02*
X336292D01*
X314753D02*
X323694D01*
X301748D02*
X310689D01*
X288337D02*
X291182D01*
X351736Y54751D02*
X354987D01*
X339544D02*
X349297D01*
X327758D02*
X336699D01*
X314753D02*
X323694D01*
X301748D02*
X311096D01*
X288337D02*
X291588D01*
X352142Y55157D02*
X354987D01*
X339137D02*
X349704D01*
X327758D02*
X337105D01*
X315160D02*
X324100D01*
X301748D02*
X311096D01*
X288337D02*
X291588D01*
X352142Y55564D02*
X354987D01*
X328164D02*
X349704D01*
X315160D02*
X324100D01*
X302155D02*
X311096D01*
X288744D02*
X291588D01*
X352548Y55970D02*
X355393D01*
X328571D02*
X349704D01*
X315160D02*
X324507D01*
X302155D02*
X311502D01*
X288744D02*
X291995D01*
X352548Y56376D02*
X355393D01*
X329384D02*
X350110D01*
X315566D02*
X324507D01*
X302155D02*
X311502D01*
X289150D02*
X291995D01*
X352548Y56783D02*
X355800D01*
X329790D02*
X350110D01*
X315566D02*
X324507D01*
X302561D02*
X311502D01*
X289150D02*
X291995D01*
X352955Y57189D02*
X355800D01*
X330196D02*
X350516D01*
X315972D02*
X324507D01*
X302561D02*
X311908D01*
X289150D02*
X291995D01*
X352955Y57596D02*
X355800D01*
X341576D02*
X350516D01*
X331009D02*
X340763D01*
X315972D02*
X324913D01*
X302561D02*
X311908D01*
X289150D02*
X292401D01*
X352955Y58002D02*
X356206D01*
X341576D02*
X350516D01*
X331822D02*
X339950D01*
X315972D02*
X324913D01*
X302968D02*
X312315D01*
X289556D02*
X292401D01*
X353361Y58408D02*
X356206D01*
X341982D02*
X350516D01*
X333448D02*
X339137D01*
X316379D02*
X324913D01*
X302968D02*
X312315D01*
X289556D02*
X292808D01*
X353361Y58815D02*
X356612D01*
X342388D02*
X350516D01*
X335073D02*
X337105D01*
X316785D02*
X324913D01*
X302968D02*
X312315D01*
X289963D02*
X292808D01*
X353361Y59221D02*
X356612D01*
X317598D02*
X318004D01*
X303374D02*
X312721D01*
X289963D02*
X292808D01*
X353768Y59628D02*
X356612D01*
X303374D02*
X312721D01*
X289963D02*
X293214D01*
X353768Y60034D02*
X356612D01*
X318411D02*
X350923D01*
X295652D02*
X317192D01*
X290369D02*
X293214D01*
X353768Y60440D02*
X357019D01*
X295652D02*
X351329D01*
X290369D02*
X293214D01*
X354174Y60847D02*
X357019D01*
X318411D02*
X351736D01*
X295652D02*
X318004D01*
X290369D02*
X293620D01*
X354174Y61253D02*
X357019D01*
X318817D02*
X351736D01*
X295652D02*
X318004D01*
X290776D02*
X293620D01*
X354174Y61660D02*
X357425D01*
X319630D02*
X351736D01*
X295652D02*
X318004D01*
X290776D02*
X293620D01*
X354580Y62066D02*
X357425D01*
X320036D02*
X352142D01*
X296059D02*
X318411D01*
X290776D02*
X294027D01*
X354580Y62472D02*
X357832D01*
X321256D02*
X352142D01*
X296059D02*
X318411D01*
X291182D02*
X294027D01*
X354580Y62879D02*
X357832D01*
X321662D02*
X352548D01*
X296465D02*
X318817D01*
X291182D02*
X294027D01*
X354987Y63285D02*
X357832D01*
X322475D02*
X352548D01*
X296465D02*
X318817D01*
X291182D02*
X294433D01*
X354987Y63692D02*
X357832D01*
X323288D02*
X352548D01*
X296465D02*
X318817D01*
X291588D02*
X294433D01*
X354987Y64098D02*
X358238D01*
X323694D02*
X352955D01*
X296872D02*
X319224D01*
X291588D02*
X294433D01*
X355393Y64504D02*
X358238D01*
X324507D02*
X352955D01*
X296872D02*
X319224D01*
X291588D02*
X294840D01*
X355393Y64911D02*
X358644D01*
X324913D02*
X352955D01*
X297278D02*
X319630D01*
X291995D02*
X294840D01*
X355800Y65317D02*
X358644D01*
X325726D02*
X353361D01*
X297278D02*
X319630D01*
X291995D02*
X294840D01*
X355800Y65724D02*
X358644D01*
X326132D02*
X353361D01*
X297278D02*
X319630D01*
X291995D02*
X295246D01*
X355800Y66130D02*
X359051D01*
X326945D02*
X353768D01*
X297684D02*
X320036D01*
X292401D02*
X295246D01*
X356206Y66536D02*
X359051D01*
X327758D02*
X353768D01*
X297684D02*
X320036D01*
X292401D02*
X295246D01*
X356206Y66943D02*
X359051D01*
X328164D02*
X353768D01*
X298091D02*
X320036D01*
X292401D02*
X295652D01*
X356206Y67349D02*
X359051D01*
X328977D02*
X354174D01*
X298091D02*
X320443D01*
X292401D02*
X295652D01*
X356612Y67756D02*
X359457D01*
X329790D02*
X354174D01*
X298497D02*
X320443D01*
X292808D02*
X295652D01*
X356612Y68162D02*
X359457D01*
X329790D02*
X354174D01*
X298904D02*
X320443D01*
X292808D02*
X296059D01*
X356612Y68568D02*
X359457D01*
X331009D02*
X353768D01*
X299716D02*
X320036D01*
X293214D02*
X296059D01*
X357019Y68975D02*
X359864D01*
X352955D02*
X353361D01*
X331416D02*
X331822D01*
X300936D02*
X301748D01*
X300123D02*
X300529D01*
X293214D02*
X296465D01*
X357019Y69381D02*
X359864D01*
X293620D02*
X296465D01*
X357019Y69788D02*
X360270D01*
X293620D02*
X297278D01*
X357425Y70194D02*
X360270D01*
X294027D02*
X297684D01*
X357425Y70600D02*
X360270D01*
X355393D02*
X356206D01*
X354580D02*
X354987D01*
X352548D02*
X353361D01*
X315972D02*
X334667D01*
X294027D02*
X308657D01*
X294433Y71007D02*
X360676D01*
X294840Y71413D02*
X360676D01*
X295246Y71820D02*
X361083D01*
X296059Y72226D02*
X361083D01*
X296872Y72632D02*
X361083D01*
X297684Y73039D02*
X361083D01*
D13*
X24855Y62572D02*
X33835D01*
X15875Y80533D02*
X33835Y62572D01*
X19467Y84125D02*
X37428Y66164D01*
Y75145D01*
X2054172Y66164D02*
Y75145D01*
Y66164D02*
X2072133Y84125D01*
X2057764Y62572D02*
X2075725Y80533D01*
X2057764Y62572D02*
X2066745D01*
M02*
