M48
;Layer_Color=9474304
;FILE_FORMAT=4:4
METRIC,LZ
;TYPE=PLATED
T1F00S00C0.6000
T2F00S00C0.7000
T3F00S00C0.7112
T4F00S00C0.8000
T5F00S00C0.9000
T6F00S00C1.1000
T7F00S00C1.2000
T8F00S00C1.3000
T9F00S00C1.4000
T10F00S00C1.5000
;TYPE=NON_PLATED
T11F00S00C3.0000
%
T01
X0073978Y00077046
X00812932Y000646
X0081907Y0013542
X00857128Y00115146
X00460634Y00008974
X00373766Y00017356
X0034072Y0011357
X0015192Y0043478
X0027517Y0028341
X00313314Y00281262
X0035752Y0030161
X0056045Y0030116
X0054584Y0025559
X0053085Y0026919
X00648927Y00285834
X00637672Y00301836
X0070113Y0027724
X0070842Y002497
X0072327Y00260434
X00744352Y00265514
X00735462Y00284564
X0075248Y003186
X0070844Y0032231
X0079149Y0030215
X00850524Y00316822
X0081628Y0024309
X00896498Y00245702
X0094062Y0028512
X00877448Y00547708
X00809376Y00479636
X0098235Y00342222
X0101297Y0066272
X0103435Y006501
X01013592Y00720936
X01047374Y0073857
X0113252Y0075153
X0098419Y0077955
X00977524Y00698584
X00968058Y00687358
X00928756Y00711538
X0091123Y0069452
X0088964Y00729318
X00895736Y00759798
X00862462Y0074659
X00854588Y00715348
X00807852Y00706204
X0079058Y006869
X00767466Y00683344
X00787024Y00644736
X0080702Y006544
X00827156Y00627972
X00778388Y00617812
X00806328Y00586062
X00706506Y00648292
X00688726
X00712094Y00661246
X00671708Y00668866
X006712Y00693504
X0064774Y0067566
X0062929Y00656166
X00618876Y00633814
X00578744Y0068925
X0061151Y00723222
X00615574Y00774276
X00588396Y00865462
X0063945Y0089899
X006482Y0091169
X00741558Y00912198
X007728Y00873336
X00834522Y00903562
X00821822Y0081163
X00815992Y00756254
X00798074Y00755988
X0071047Y0073078
X0096814Y0076301
X0095695Y00788296
X00933074Y00799515
X00959236Y0062721
X00535564Y00686138
X00519716Y00683752
X00540644Y0070509
X00514736Y00777832
X0049848Y00791802
X0053567Y009335
X0019061Y0083651
X000434Y0081791
X0004207Y0077675
X000315Y0076149
X0001805Y0077108
X0001823Y0074843
X0008336Y0068023
X004665Y0118375
X0057852Y0125693
X0057836Y0110744
X00651295Y01128352
X00611256Y0103869
X006296Y0098642
X0070845Y0096235
X00840618Y01068916
X00847222Y0111616
X00751718Y0116061
X0077378Y0131792
X0076329Y0133221
X00863478Y01317074
X0096875Y013516
X01011052Y01341458
X01098174Y01298786
X011065Y0109341
T02
X006458Y010098
Y010298
T03
X010532Y0011864
X01078357
X01103513
X0112867
X0083461Y0010353
X0067566Y0011472
X0062253Y0008935
X0058669Y0008771
X005924Y0002909
X0056966Y0014815
X0048663Y0008998
X003728Y0006575
X0009435Y0033418
X0003109Y0032549
X0014813Y0039622
X0010197Y0045214
X0028557Y0036848
X0031509
X0039613
X00423303
X00450477
X0047765
X00632846Y0051269
X0106121Y0051568
X0116262Y0050427
Y0046757
Y0043087
Y0054097
Y0057767
Y0061437
X0105699Y0060423
X0103315
X0100931
X0100534Y009297
X0038631Y0089925
X00349033
X00311757
X0027448
X0011688Y0120047
X0009354
X000702
X0029372Y0118726
X00325357
X00356993
X0038863
X0038586Y0127058
X00356127
X00326393
X0029666
X0031294Y0108277
X0035178
X0039062
X002741
X0023526
X0057013Y0097551
X0070723Y0099609
X0070752Y0102134
X0073311Y0117868
X0071647Y0120459
X0075178Y0120935
X0097875Y0116434
X0101074Y0112356
X0107486Y0111731
Y0114129
Y0116527
X0100534Y0101714
Y0096205
T04
X0002604Y0036432
X0005144
X0009716Y00364319
X0012256
X0094552Y0036432
X0097092
X0102172
X0104712
X0106744Y0107552
X0109284
X0113856
X0116396
T05
X005442Y005472
X005696
X00595
X006204
X006458
X0116396Y006742
Y006996
Y00725
Y007504
Y007758
X0073216Y0137524
Y0140064
Y0142604
T06
X0065088Y0003666
X0067628
Y0006206
X0070168
X0072708
Y0003666
X0070168
X0075248
Y0006206
X0065088
X0086424
X0088964
Y0003666
X0091504
X0094044
Y0006206
X0091504
X0096584
Y0003666
X0086424
X0053912
X0051372
Y0006206
X0048832
X0046292
Y0003666
X0048832
X0043752
Y0006206
X0053912
X0032576
X0030036
Y0003666
X0027496
X0024956
Y0006206
X0027496
X0022416
Y0003666
X0032576
X00595Y0138286
Y0140826
X006204
X006458
Y0138286
X006204
X005696
X005442
Y0140826
X005696
T07
X010018Y0088756
X01051801
X00696601Y0075
Y007
X0083376Y0138032
X0088456
X0085916Y0143112
T08
X0017804Y0088756
X0012804
X0020892Y0135238
X0025972
X0031052
X003664
X0079312
Y0142858
X003664
X0031052
X0025972
X0020892
T09
X0099284Y014108
X0104284
X0109284
X0094284
X0014796
X0009796
T10
X000434Y0019175
X000942
X00145
X001958
X002466
X009434
X009942
X01045
X010958
X011466
X00145Y0126175
X000942
X000434
X001958
X002466
X009434
X009942
X01045
X010958
X011466
T11
X0116Y0003
X0003
X0116Y0142
X008595Y014
X0003Y0142
M30
