G04 Layer_Color=128*
%FSLAX44Y44*%
%MOMM*%
G71*
G01*
G75*
%ADD43O,2.6000X0.7000*%
G04:AMPARAMS|DCode=44|XSize=0.6mm|YSize=2.05mm|CornerRadius=0mm|HoleSize=0mm|Usage=FLASHONLY|Rotation=225.000|XOffset=0mm|YOffset=0mm|HoleType=Round|Shape=Round|*
%AMOVALD44*
21,1,1.4500,0.6000,0.0000,0.0000,315.0*
1,1,0.6000,-0.5127,0.5127*
1,1,0.6000,0.5127,-0.5127*
%
%ADD44OVALD44*%

G04:AMPARAMS|DCode=45|XSize=0.6mm|YSize=2.05mm|CornerRadius=0mm|HoleSize=0mm|Usage=FLASHONLY|Rotation=315.000|XOffset=0mm|YOffset=0mm|HoleType=Round|Shape=Round|*
%AMOVALD45*
21,1,1.4500,0.6000,0.0000,0.0000,45.0*
1,1,0.6000,-0.5127,-0.5127*
1,1,0.6000,0.5127,0.5127*
%
%ADD45OVALD45*%

%ADD46O,2.0000X0.3000*%
%ADD47O,2.5000X0.7000*%
%ADD48O,2.1000X0.4500*%
%ADD49R,1.4500X0.6000*%
%ADD50R,1.0500X1.0800*%
%ADD51R,0.6000X1.4500*%
%ADD52R,1.0000X1.9000*%
%ADD53R,1.9000X1.0000*%
%ADD54R,1.0800X1.0500*%
D43*
X251500Y674200D02*
D03*
Y686900D02*
D03*
Y699600D02*
D03*
Y712300D02*
D03*
Y725000D02*
D03*
Y737700D02*
D03*
Y750400D02*
D03*
Y763100D02*
D03*
Y775800D02*
D03*
X343500Y674200D02*
D03*
Y686900D02*
D03*
Y699600D02*
D03*
Y712300D02*
D03*
Y725000D02*
D03*
Y737700D02*
D03*
Y750400D02*
D03*
Y763100D02*
D03*
Y775800D02*
D03*
D44*
X823911Y737021D02*
D03*
X829568Y742678D02*
D03*
X835225Y748334D02*
D03*
X840881Y753991D02*
D03*
X846538Y759648D02*
D03*
X852195Y765305D02*
D03*
X857852Y770962D02*
D03*
X863509Y776619D02*
D03*
X869166Y782275D02*
D03*
X874822Y787932D02*
D03*
X880479Y793589D02*
D03*
X961089Y712979D02*
D03*
X955433Y707322D02*
D03*
X949776Y701665D02*
D03*
X944119Y696008D02*
D03*
X938462Y690352D02*
D03*
X932805Y684695D02*
D03*
X927148Y679038D02*
D03*
X921492Y673381D02*
D03*
X915835Y667724D02*
D03*
X910178Y662067D02*
D03*
X904521Y656411D02*
D03*
D45*
Y793589D02*
D03*
X910178Y787932D02*
D03*
X915835Y782275D02*
D03*
X921492Y776619D02*
D03*
X927148Y770962D02*
D03*
X932805Y765305D02*
D03*
X938462Y759648D02*
D03*
X944119Y753991D02*
D03*
X949776Y748334D02*
D03*
X955433Y742678D02*
D03*
X961089Y737021D02*
D03*
X880479Y656411D02*
D03*
X874822Y662067D02*
D03*
X869166Y667724D02*
D03*
X863509Y673381D02*
D03*
X857852Y679038D02*
D03*
X852195Y684695D02*
D03*
X846538Y690352D02*
D03*
X840881Y696008D02*
D03*
X835225Y701665D02*
D03*
X829568Y707322D02*
D03*
X823911Y712979D02*
D03*
D46*
X574000Y1009640D02*
D03*
Y1014640D02*
D03*
Y1019640D02*
D03*
Y1024640D02*
D03*
Y1029640D02*
D03*
X616000Y1009640D02*
D03*
Y1014640D02*
D03*
Y1019640D02*
D03*
Y1024640D02*
D03*
Y1029640D02*
D03*
D47*
X619500Y911690D02*
D03*
Y898990D02*
D03*
Y886290D02*
D03*
Y873590D02*
D03*
X570500Y911690D02*
D03*
Y898990D02*
D03*
Y886290D02*
D03*
Y873590D02*
D03*
D48*
X629500Y767250D02*
D03*
Y760750D02*
D03*
Y754250D02*
D03*
Y747750D02*
D03*
Y741250D02*
D03*
Y734750D02*
D03*
Y728250D02*
D03*
Y721750D02*
D03*
Y715250D02*
D03*
Y708750D02*
D03*
Y702250D02*
D03*
Y695750D02*
D03*
Y689250D02*
D03*
Y682750D02*
D03*
X560500Y767250D02*
D03*
Y760750D02*
D03*
Y754250D02*
D03*
Y747750D02*
D03*
Y741250D02*
D03*
Y734750D02*
D03*
Y728250D02*
D03*
Y721750D02*
D03*
Y715250D02*
D03*
Y708750D02*
D03*
Y702250D02*
D03*
Y695750D02*
D03*
Y689250D02*
D03*
Y682750D02*
D03*
D49*
X759150Y1115500D02*
D03*
Y1096500D02*
D03*
X735650Y1106000D02*
D03*
X65380Y307600D02*
D03*
Y288600D02*
D03*
X41880Y298100D02*
D03*
X65380Y261880D02*
D03*
Y242880D02*
D03*
X41880Y252380D02*
D03*
X956910Y1121940D02*
D03*
Y1102940D02*
D03*
X933410Y1112440D02*
D03*
X956910Y1076220D02*
D03*
Y1057220D02*
D03*
X933410Y1066720D02*
D03*
D50*
X1067440Y1021150D02*
D03*
Y1038450D02*
D03*
X700620Y1099580D02*
D03*
Y1082280D02*
D03*
X680300Y1099580D02*
D03*
Y1082280D02*
D03*
X659980Y1099580D02*
D03*
Y1082280D02*
D03*
X639660Y1099580D02*
D03*
Y1082280D02*
D03*
X564520Y1201010D02*
D03*
Y1183710D02*
D03*
X539120Y1201010D02*
D03*
Y1183710D02*
D03*
X513720Y1201010D02*
D03*
Y1183710D02*
D03*
X488320Y1201010D02*
D03*
Y1183710D02*
D03*
X564520Y1239590D02*
D03*
Y1256890D02*
D03*
X539120Y1239590D02*
D03*
Y1256890D02*
D03*
X513720Y1239590D02*
D03*
Y1256890D02*
D03*
X488320Y1239590D02*
D03*
Y1256890D02*
D03*
X945520Y439010D02*
D03*
Y421710D02*
D03*
X979387Y439010D02*
D03*
Y421710D02*
D03*
X1013253Y439010D02*
D03*
Y421710D02*
D03*
X1047120Y439010D02*
D03*
Y421710D02*
D03*
X1003130Y851250D02*
D03*
Y833950D02*
D03*
X1053930Y851250D02*
D03*
Y833950D02*
D03*
X26040Y396310D02*
D03*
Y413610D02*
D03*
X58213Y396310D02*
D03*
Y413610D02*
D03*
X90387D02*
D03*
Y396310D02*
D03*
X122560Y413610D02*
D03*
Y396310D02*
D03*
X1163960Y1021150D02*
D03*
Y1038450D02*
D03*
X1131787Y1021150D02*
D03*
Y1038450D02*
D03*
X1099613Y1021150D02*
D03*
Y1038450D02*
D03*
D51*
X843260Y1322850D02*
D03*
X824260D02*
D03*
X833760Y1346350D02*
D03*
D52*
X97590Y247300D02*
D03*
X131590D02*
D03*
X994200Y1061640D02*
D03*
X1028200D02*
D03*
X97590Y277780D02*
D03*
X131590D02*
D03*
X994200Y1092120D02*
D03*
X1028200D02*
D03*
X97590Y308260D02*
D03*
X131590D02*
D03*
X994200Y1122600D02*
D03*
X1028200D02*
D03*
X463660Y815210D02*
D03*
X429660D02*
D03*
X170040Y816440D02*
D03*
X136040D02*
D03*
X463660Y789810D02*
D03*
X429660D02*
D03*
X170040Y791040D02*
D03*
X136040D02*
D03*
X463660Y764410D02*
D03*
X429660D02*
D03*
X170040Y765640D02*
D03*
X136040D02*
D03*
X463660Y739010D02*
D03*
X429660D02*
D03*
X170040Y740240D02*
D03*
X136040D02*
D03*
X463660Y713610D02*
D03*
X429660D02*
D03*
X170040Y714840D02*
D03*
X136040D02*
D03*
X463660Y688210D02*
D03*
X429660D02*
D03*
X170040Y689440D02*
D03*
X136040D02*
D03*
X463660Y662810D02*
D03*
X429660D02*
D03*
X170040Y664040D02*
D03*
X136040D02*
D03*
X463660Y637410D02*
D03*
X429660D02*
D03*
X170040Y638640D02*
D03*
X136040D02*
D03*
X679600Y547200D02*
D03*
X713600D02*
D03*
X679600Y521800D02*
D03*
X713600D02*
D03*
Y572600D02*
D03*
X679600D02*
D03*
X713600Y598000D02*
D03*
X679600D02*
D03*
X713600Y623400D02*
D03*
X679600D02*
D03*
X793690Y1176930D02*
D03*
X827690D02*
D03*
Y1207410D02*
D03*
X793690D02*
D03*
Y1237890D02*
D03*
X827690D02*
D03*
Y1085490D02*
D03*
X793690D02*
D03*
Y1115970D02*
D03*
X827690D02*
D03*
X793690Y1146450D02*
D03*
X827690D02*
D03*
D53*
X884560Y1317600D02*
D03*
Y1351600D02*
D03*
X569600Y1346520D02*
D03*
Y1312520D02*
D03*
X325760Y301600D02*
D03*
Y335600D02*
D03*
X1128400Y667360D02*
D03*
Y701360D02*
D03*
X274960Y301600D02*
D03*
Y335600D02*
D03*
X940440Y1351600D02*
D03*
Y1317600D02*
D03*
X300360Y301600D02*
D03*
Y335600D02*
D03*
X991240Y1351600D02*
D03*
Y1317600D02*
D03*
X752480Y301600D02*
D03*
Y335600D02*
D03*
X727080Y301600D02*
D03*
Y335600D02*
D03*
X539120Y301600D02*
D03*
Y335600D02*
D03*
X513720Y301600D02*
D03*
Y335600D02*
D03*
X488320Y301600D02*
D03*
Y335600D02*
D03*
X889640D02*
D03*
Y301600D02*
D03*
X595000Y1107760D02*
D03*
Y1073760D02*
D03*
X676280Y301600D02*
D03*
Y335600D02*
D03*
X915040Y335600D02*
D03*
Y301600D02*
D03*
X701680Y301600D02*
D03*
Y335600D02*
D03*
X544200Y1346520D02*
D03*
Y1312520D02*
D03*
X940440Y301600D02*
D03*
Y335600D02*
D03*
D54*
X723510Y750400D02*
D03*
X740810D02*
D03*
X723510Y699600D02*
D03*
X740810D02*
D03*
X684930Y1029800D02*
D03*
X667630D02*
D03*
Y1009480D02*
D03*
X684930D02*
D03*
M02*
