G04 Layer_Color=65535*
%FSLAX44Y44*%
%MOMM*%
G71*
G01*
G75*
%ADD23C,0.2540*%
%ADD55C,0.2000*%
%ADD56C,0.1500*%
D23*
X220540Y887560D02*
G03*
X220540Y887560I-67500J0D01*
G01*
X386570Y4860D02*
X465820D01*
X510820D02*
X590070D01*
X386570Y93860D02*
X590070D01*
X465820Y17360D02*
X510820D01*
X399070Y81360D02*
X577570D01*
X510820Y17360D02*
X577570D01*
X399070D02*
X465820D01*
Y4860D02*
Y17360D01*
X510820Y4860D02*
Y17360D01*
X465820Y4860D02*
X510820D01*
X399070Y17360D02*
Y81360D01*
X386570Y4860D02*
Y93860D01*
X577570Y17360D02*
Y81360D01*
X590070Y4860D02*
Y93860D01*
X133990Y883750D02*
Y891370D01*
X130180Y887560D02*
X137800D01*
X101040Y882560D02*
Y892560D01*
X655800Y999800D02*
Y1039800D01*
X635800D02*
X725800D01*
Y998800D02*
Y1039800D01*
X636800Y998800D02*
X725800D01*
X635800Y999800D02*
X636800Y998800D01*
X635800Y999800D02*
Y1039800D01*
X671600Y670000D02*
Y780000D01*
X721601D01*
X671600Y670000D02*
X721601D01*
Y780000D01*
X971800Y862560D02*
X1081801D01*
X971800D02*
Y912560D01*
X1081801Y862560D02*
Y912560D01*
X971800D02*
X1081801D01*
X643250Y1065360D02*
X699150D01*
X643250D02*
Y1116160D01*
X699150D01*
Y1065360D02*
Y1116160D01*
X912840Y1380800D02*
X1122840D01*
Y1370800D02*
Y1410800D01*
X912840Y1370800D02*
X1122840D01*
X912840D02*
Y1450800D01*
X1122840D01*
Y1410800D02*
Y1450800D01*
X177960Y1410800D02*
Y1450800D01*
X67960D02*
X177960D01*
X67960Y1370800D02*
Y1450800D01*
Y1370800D02*
X177960D01*
Y1409800D01*
X67960Y1380800D02*
X177960D01*
X813290Y4860D02*
X892540D01*
X937540D02*
X1016790D01*
X813290Y93860D02*
X1016790D01*
X892540Y17360D02*
X937540D01*
X825790Y81360D02*
X1004290D01*
X937540Y17360D02*
X1004290D01*
X825790D02*
X892540D01*
Y4860D02*
Y17360D01*
X937540Y4860D02*
Y17360D01*
X892540Y4860D02*
X937540D01*
X825790Y17360D02*
Y81360D01*
X813290Y4860D02*
Y93860D01*
X1004290Y17360D02*
Y81360D01*
X1016790Y4860D02*
Y93860D01*
X599930Y4860D02*
X679180D01*
X724180D02*
X803430D01*
X599930Y93860D02*
X803430D01*
X679180Y17360D02*
X724180D01*
X612430Y81360D02*
X790930D01*
X724180Y17360D02*
X790930D01*
X612430D02*
X679180D01*
Y4860D02*
Y17360D01*
X724180Y4860D02*
Y17360D01*
X679180Y4860D02*
X724180D01*
X612430Y17360D02*
Y81360D01*
X599930Y4860D02*
Y93860D01*
X790930Y17360D02*
Y81360D01*
X803430Y4860D02*
Y93860D01*
X173210Y4860D02*
X252460D01*
X297460D02*
X376710D01*
X173210Y93860D02*
X376710D01*
X252460Y17360D02*
X297460D01*
X185710Y81360D02*
X364210D01*
X297460Y17360D02*
X364210D01*
X185710D02*
X252460D01*
Y4860D02*
Y17360D01*
X297460Y4860D02*
Y17360D01*
X252460Y4860D02*
X297460D01*
X185710Y17360D02*
Y81360D01*
X173210Y4860D02*
Y93860D01*
X364210Y17360D02*
Y81360D01*
X376710Y4860D02*
Y93860D01*
X493250Y1351060D02*
Y1440060D01*
X505750Y1363560D02*
Y1427560D01*
X696750Y1351060D02*
Y1440060D01*
X684250Y1363560D02*
Y1427560D01*
X572500Y1440060D02*
X617500D01*
X572500Y1427560D02*
Y1440060D01*
X617500Y1427560D02*
Y1440060D01*
Y1427560D02*
X684250D01*
X505750D02*
X572500D01*
X505750Y1363560D02*
X684250D01*
X572500Y1427560D02*
X617500D01*
X493250Y1351060D02*
X696750D01*
X493250Y1440060D02*
X572500D01*
X617500D02*
X696750D01*
X821060Y1367620D02*
X897260D01*
Y1443820D01*
X821060D02*
X897260D01*
X821060Y1367620D02*
Y1443820D01*
X240110Y897595D02*
Y882360D01*
X247728D01*
X250267Y884899D01*
Y887438D01*
X247728Y889977D01*
X240110D01*
X247728D01*
X250267Y892517D01*
Y895056D01*
X247728Y897595D01*
X240110D01*
X255345D02*
X265502D01*
X260424D01*
Y882360D01*
X270580D02*
X275659D01*
X273119D01*
Y897595D01*
X270580Y895056D01*
X805267Y369056D02*
X802728Y371595D01*
X797649D01*
X795110Y369056D01*
Y358899D01*
X797649Y356360D01*
X802728D01*
X805267Y358899D01*
X810345Y356360D02*
X815424D01*
X812884D01*
Y371595D01*
X810345Y369056D01*
X823041D02*
X825580Y371595D01*
X830659D01*
X833198Y369056D01*
Y358899D01*
X830659Y356360D01*
X825580D01*
X823041Y358899D01*
Y369056D01*
X249057Y368316D02*
X246518Y370855D01*
X241439D01*
X238900Y368316D01*
Y358159D01*
X241439Y355620D01*
X246518D01*
X249057Y358159D01*
X254135Y355620D02*
X259214D01*
X256674D01*
Y370855D01*
X254135Y368316D01*
X1068647Y1161516D02*
X1066108Y1164055D01*
X1061029D01*
X1058490Y1161516D01*
Y1151359D01*
X1061029Y1148820D01*
X1066108D01*
X1068647Y1151359D01*
X1073725Y1161516D02*
X1076264Y1164055D01*
X1081343D01*
X1083882Y1161516D01*
Y1158977D01*
X1081343Y1156437D01*
X1078803D01*
X1081343D01*
X1083882Y1153898D01*
Y1151359D01*
X1081343Y1148820D01*
X1076264D01*
X1073725Y1151359D01*
X1099117Y1164055D02*
X1088960D01*
Y1156437D01*
X1094039Y1158977D01*
X1096578D01*
X1099117Y1156437D01*
Y1151359D01*
X1096578Y1148820D01*
X1091499D01*
X1088960Y1151359D01*
X880267Y369806D02*
X877728Y372345D01*
X872649D01*
X870110Y369806D01*
Y359649D01*
X872649Y357110D01*
X877728D01*
X880267Y359649D01*
X885345Y369806D02*
X887884Y372345D01*
X892963D01*
X895502Y369806D01*
Y367267D01*
X892963Y364727D01*
X890424D01*
X892963D01*
X895502Y362188D01*
Y359649D01*
X892963Y357110D01*
X887884D01*
X885345Y359649D01*
X908198Y357110D02*
Y372345D01*
X900580Y364727D01*
X910737D01*
X1139897Y1161516D02*
X1137358Y1164055D01*
X1132279D01*
X1129740Y1161516D01*
Y1151359D01*
X1132279Y1148820D01*
X1137358D01*
X1139897Y1151359D01*
X1144975Y1161516D02*
X1147514Y1164055D01*
X1152593D01*
X1155132Y1161516D01*
Y1158977D01*
X1152593Y1156437D01*
X1150053D01*
X1152593D01*
X1155132Y1153898D01*
Y1151359D01*
X1152593Y1148820D01*
X1147514D01*
X1144975Y1151359D01*
X1170367Y1148820D02*
X1160210D01*
X1170367Y1158977D01*
Y1161516D01*
X1167828Y1164055D01*
X1162749D01*
X1160210Y1161516D01*
X164807Y369316D02*
X162268Y371855D01*
X157189D01*
X154650Y369316D01*
Y359159D01*
X157189Y356620D01*
X162268D01*
X164807Y359159D01*
X180042Y356620D02*
X169885D01*
X180042Y366777D01*
Y369316D01*
X177503Y371855D01*
X172424D01*
X169885Y369316D01*
X195277Y371855D02*
X185120D01*
Y364237D01*
X190199Y366777D01*
X192738D01*
X195277Y364237D01*
Y359159D01*
X192738Y356620D01*
X187659D01*
X185120Y359159D01*
X739490Y1027515D02*
Y1024976D01*
X744568Y1019897D01*
X749647Y1024976D01*
Y1027515D01*
X744568Y1019897D02*
Y1012280D01*
X764882D02*
X754725D01*
X764882Y1022437D01*
Y1024976D01*
X762343Y1027515D01*
X757264D01*
X754725Y1024976D01*
X683850Y808085D02*
Y805546D01*
X688928Y800467D01*
X694007Y805546D01*
Y808085D01*
X688928Y800467D02*
Y792850D01*
X699085D02*
X704164D01*
X701624D01*
Y808085D01*
X699085Y805546D01*
X660710Y1097685D02*
Y1082450D01*
X670867D01*
X675945D02*
X681023D01*
X678484D01*
Y1097685D01*
X675945Y1095146D01*
X359015Y1374250D02*
X374250D01*
Y1381867D01*
X371711Y1384407D01*
X361554D01*
X359015Y1381867D01*
Y1374250D01*
Y1399642D02*
Y1389485D01*
X366632D01*
X364093Y1394563D01*
Y1397102D01*
X366632Y1399642D01*
X371711D01*
X374250Y1397102D01*
Y1392024D01*
X371711Y1389485D01*
X302265Y1375250D02*
X317500D01*
Y1382867D01*
X314961Y1385407D01*
X304804D01*
X302265Y1382867D01*
Y1375250D01*
X317500Y1398102D02*
X302265D01*
X309883Y1390485D01*
Y1400642D01*
X251765Y1374000D02*
X267000D01*
Y1381617D01*
X264461Y1384156D01*
X254304D01*
X251765Y1381617D01*
Y1374000D01*
X254304Y1389235D02*
X251765Y1391774D01*
Y1396852D01*
X254304Y1399392D01*
X256843D01*
X259382Y1396852D01*
Y1394313D01*
Y1396852D01*
X261922Y1399392D01*
X264461D01*
X267000Y1396852D01*
Y1391774D01*
X264461Y1389235D01*
X200765Y1374000D02*
X216000D01*
Y1381617D01*
X213461Y1384156D01*
X203304D01*
X200765Y1381617D01*
Y1374000D01*
X216000Y1399392D02*
Y1389235D01*
X205843Y1399392D01*
X203304D01*
X200765Y1396852D01*
Y1391774D01*
X203304Y1389235D01*
X785245Y1377720D02*
X800480D01*
Y1385337D01*
X797941Y1387876D01*
X787784D01*
X785245Y1385337D01*
Y1377720D01*
X800480Y1392955D02*
Y1398033D01*
Y1395494D01*
X785245D01*
X787784Y1392955D01*
X1096460Y896495D02*
Y893956D01*
X1101538Y888877D01*
X1106617Y893956D01*
Y896495D01*
X1101538Y888877D02*
Y881260D01*
X1111695Y893956D02*
X1114234Y896495D01*
X1119313D01*
X1121852Y893956D01*
Y891416D01*
X1119313Y888877D01*
X1116774D01*
X1119313D01*
X1121852Y886338D01*
Y883799D01*
X1119313Y881260D01*
X1114234D01*
X1111695Y883799D01*
D55*
X73740Y364320D02*
G03*
X73740Y364320I-35000J0D01*
G01*
X144860D02*
G03*
X144860Y364320I-35000J0D01*
G01*
X1069420D02*
G03*
X1069420Y364320I-35000J0D01*
G01*
X993220D02*
G03*
X993220Y364320I-35000J0D01*
G01*
X1186260Y1075520D02*
G03*
X1186260Y1075520I-35000J0D01*
G01*
X1115140D02*
G03*
X1115140Y1075520I-35000J0D01*
G01*
X47260Y344620D02*
X57420D01*
X52340Y339540D02*
Y349700D01*
X118380Y344619D02*
X128540D01*
X123460Y339539D02*
Y349699D01*
X1015740Y384020D02*
X1025900D01*
X1020820Y378940D02*
Y389100D01*
X939540Y384020D02*
X949700D01*
X944620Y378940D02*
Y389100D01*
X658500Y534500D02*
Y559900D01*
X531500Y534500D02*
X658500D01*
X531500Y559900D02*
X658500D01*
X531500Y534500D02*
Y559900D01*
X1151260Y661500D02*
X1176660D01*
X1151260D02*
Y788500D01*
X1176660Y661500D02*
Y788500D01*
X1151260D02*
X1176660D01*
X1159780Y1055820D02*
X1169940D01*
X1164860Y1050740D02*
Y1060900D01*
X1088660Y1055820D02*
X1098820D01*
X1093740Y1050740D02*
Y1060900D01*
X780120Y1404063D02*
X806120D01*
X793120Y1410630D02*
X806120D01*
Y1370530D02*
Y1410630D01*
X780120Y1370530D02*
X806120D01*
X780120D02*
Y1410680D01*
X793120Y1410630D01*
X744860Y1362540D02*
Y1438740D01*
X719460D02*
X744860D01*
X719460Y1362540D02*
Y1438740D01*
Y1362540D02*
X744860D01*
X353400Y1404063D02*
X379400D01*
X366400Y1410630D02*
X379400D01*
Y1370530D02*
Y1410630D01*
X353400Y1370530D02*
X379400D01*
X353400D02*
Y1410680D01*
X366400Y1410630D01*
X297520Y1404063D02*
X323520D01*
X310520Y1410630D02*
X323520D01*
Y1370530D02*
Y1410630D01*
X297520Y1370530D02*
X323520D01*
X297520D02*
Y1410680D01*
X310520Y1410630D01*
X246720Y1404063D02*
X272720D01*
X259720Y1410630D02*
X272720D01*
Y1370530D02*
Y1410630D01*
X246720Y1370530D02*
X272720D01*
X246720D02*
Y1410680D01*
X259720Y1410630D01*
X195920Y1404063D02*
X221920D01*
X208920Y1410630D02*
X221920D01*
Y1370530D02*
Y1410630D01*
X195920Y1370530D02*
X221920D01*
X195920D02*
Y1410680D01*
X208920Y1410630D01*
D56*
X720130Y1209804D02*
Y1297609D01*
X616500Y1209804D02*
Y1297609D01*
Y1209804D02*
X720130D01*
X616500Y1297609D02*
X720130D01*
M02*
