G04 Layer_Color=32896*
%FSLAX44Y44*%
%MOMM*%
G71*
G01*
G75*
%ADD16C,0.2500*%
%ADD23C,0.2540*%
%ADD55C,0.2000*%
%ADD91C,0.6000*%
%ADD92C,0.1000*%
D16*
X344750Y784800D02*
G03*
X344750Y784800I-1250J0D01*
G01*
X819150Y731010D02*
G03*
X819150Y731010I-1250J0D01*
G01*
X617250Y1036640D02*
G03*
X617250Y1036640I-1250J0D01*
G01*
X620750Y920690D02*
G03*
X620750Y920690I-1250J0D01*
G01*
X630750Y775000D02*
G03*
X630750Y775000I-1250J0D01*
G01*
X735150Y1114500D02*
G03*
X735150Y1114500I-1250J0D01*
G01*
X41380Y306600D02*
G03*
X41380Y306600I-1250J0D01*
G01*
Y260880D02*
G03*
X41380Y260880I-1250J0D01*
G01*
X932910Y1120940D02*
G03*
X932910Y1120940I-1250J0D01*
G01*
Y1075220D02*
G03*
X932910Y1075220I-1250J0D01*
G01*
X843510Y1348100D02*
G03*
X843510Y1348100I-1250J0D01*
G01*
D23*
X669640Y239610D02*
X684875D01*
Y247227D01*
X682336Y249767D01*
X677258D01*
X674718Y247227D01*
Y239610D01*
Y244688D02*
X669640Y249767D01*
Y262462D02*
X684875D01*
X677258Y254845D01*
Y265002D01*
X682336Y270080D02*
X684875Y272619D01*
Y277698D01*
X682336Y280237D01*
X672179D01*
X669640Y277698D01*
Y272619D01*
X672179Y270080D01*
X682336D01*
X747240Y239610D02*
X762475D01*
Y247227D01*
X759936Y249767D01*
X754858D01*
X752318Y247227D01*
Y239610D01*
Y244688D02*
X747240Y249767D01*
X759936Y254845D02*
X762475Y257384D01*
Y262462D01*
X759936Y265002D01*
X757397D01*
X754858Y262462D01*
Y259923D01*
Y262462D01*
X752318Y265002D01*
X749779D01*
X747240Y262462D01*
Y257384D01*
X749779Y254845D01*
X747240Y270080D02*
Y275158D01*
Y272619D01*
X762475D01*
X759936Y270080D01*
X956383Y1139879D02*
Y1150036D01*
X958923Y1152575D01*
X964001D01*
X966540Y1150036D01*
Y1139879D01*
X964001Y1137340D01*
X958923D01*
X961462Y1142418D02*
X956383Y1137340D01*
X958923D02*
X956383Y1139879D01*
X943688Y1137340D02*
Y1152575D01*
X951305Y1144957D01*
X941148D01*
X414806Y1241887D02*
X417345Y1239347D01*
Y1234269D01*
X414806Y1231730D01*
X404649D01*
X402110Y1234269D01*
Y1239347D01*
X404649Y1241887D01*
X402110Y1246965D02*
Y1252043D01*
Y1249504D01*
X417345D01*
X414806Y1246965D01*
Y1259661D02*
X417345Y1262200D01*
Y1267278D01*
X414806Y1269818D01*
X412267D01*
X409728Y1267278D01*
Y1264739D01*
Y1267278D01*
X407188Y1269818D01*
X404649D01*
X402110Y1267278D01*
Y1262200D01*
X404649Y1259661D01*
X440206Y1241887D02*
X442745Y1239347D01*
Y1234269D01*
X440206Y1231730D01*
X430050D01*
X427510Y1234269D01*
Y1239347D01*
X430050Y1241887D01*
X427510Y1246965D02*
Y1252043D01*
Y1249504D01*
X442745D01*
X440206Y1246965D01*
X427510Y1269818D02*
Y1259661D01*
X437667Y1269818D01*
X440206D01*
X442745Y1267278D01*
Y1262200D01*
X440206Y1259661D01*
X465606Y1241887D02*
X468145Y1239347D01*
Y1234269D01*
X465606Y1231730D01*
X455450D01*
X452910Y1234269D01*
Y1239347D01*
X455450Y1241887D01*
X452910Y1246965D02*
Y1252043D01*
Y1249504D01*
X468145D01*
X465606Y1246965D01*
X452910Y1259661D02*
Y1264739D01*
Y1262200D01*
X468145D01*
X465606Y1259661D01*
X387406Y1192096D02*
X389945Y1189557D01*
Y1184479D01*
X387406Y1181940D01*
X377249D01*
X374710Y1184479D01*
Y1189557D01*
X377249Y1192096D01*
Y1197175D02*
X374710Y1199714D01*
Y1204792D01*
X377249Y1207332D01*
X387406D01*
X389945Y1204792D01*
Y1199714D01*
X387406Y1197175D01*
X384867D01*
X382328Y1199714D01*
Y1207332D01*
X412806Y1192096D02*
X415345Y1189557D01*
Y1184479D01*
X412806Y1181940D01*
X402649D01*
X400110Y1184479D01*
Y1189557D01*
X402649Y1192096D01*
X412806Y1197175D02*
X415345Y1199714D01*
Y1204792D01*
X412806Y1207332D01*
X410267D01*
X407728Y1204792D01*
X405188Y1207332D01*
X402649D01*
X400110Y1204792D01*
Y1199714D01*
X402649Y1197175D01*
X405188D01*
X407728Y1199714D01*
X410267Y1197175D01*
X412806D01*
X407728Y1199714D02*
Y1204792D01*
X438206Y1192096D02*
X440745Y1189557D01*
Y1184479D01*
X438206Y1181940D01*
X428049D01*
X425510Y1184479D01*
Y1189557D01*
X428049Y1192096D01*
X440745Y1197175D02*
Y1207332D01*
X438206D01*
X428049Y1197175D01*
X425510D01*
X463606Y1192096D02*
X466145Y1189557D01*
Y1184479D01*
X463606Y1181940D01*
X453450D01*
X450910Y1184479D01*
Y1189557D01*
X453450Y1192096D01*
X466145Y1207332D02*
X463606Y1202253D01*
X458528Y1197175D01*
X453450D01*
X450910Y1199714D01*
Y1204792D01*
X453450Y1207332D01*
X455989D01*
X458528Y1204792D01*
Y1197175D01*
X639016Y1128867D02*
X641555Y1126327D01*
Y1121249D01*
X639016Y1118710D01*
X628859D01*
X626320Y1121249D01*
Y1126327D01*
X628859Y1128867D01*
X641555Y1144102D02*
Y1133945D01*
X633938D01*
X636477Y1139023D01*
Y1141562D01*
X633938Y1144102D01*
X628859D01*
X626320Y1141562D01*
Y1136484D01*
X628859Y1133945D01*
X661903Y1128867D02*
X664442Y1126327D01*
Y1121249D01*
X661903Y1118710D01*
X651746D01*
X649207Y1121249D01*
Y1126327D01*
X651746Y1128867D01*
X649207Y1141562D02*
X664442D01*
X656824Y1133945D01*
Y1144102D01*
X684789Y1128867D02*
X687328Y1126327D01*
Y1121249D01*
X684789Y1118710D01*
X674633D01*
X672093Y1121249D01*
Y1126327D01*
X674633Y1128867D01*
X684789Y1133945D02*
X687328Y1136484D01*
Y1141562D01*
X684789Y1144102D01*
X682250D01*
X679711Y1141562D01*
Y1139023D01*
Y1141562D01*
X677172Y1144102D01*
X674633D01*
X672093Y1141562D01*
Y1136484D01*
X674633Y1133945D01*
X707676Y1128867D02*
X710215Y1126327D01*
Y1121249D01*
X707676Y1118710D01*
X697519D01*
X694980Y1121249D01*
Y1126327D01*
X697519Y1128867D01*
X694980Y1144102D02*
Y1133945D01*
X705137Y1144102D01*
X707676D01*
X710215Y1141562D01*
Y1136484D01*
X707676Y1133945D01*
X837993Y1291559D02*
Y1301716D01*
X840533Y1304255D01*
X845611D01*
X848150Y1301716D01*
Y1291559D01*
X845611Y1289020D01*
X840533D01*
X843072Y1294098D02*
X837993Y1289020D01*
X840533D02*
X837993Y1291559D01*
X822758Y1304255D02*
X832915D01*
Y1296637D01*
X827837Y1299176D01*
X825297D01*
X822758Y1296637D01*
Y1291559D01*
X825297Y1289020D01*
X830376D01*
X832915Y1291559D01*
X890280Y1139670D02*
Y1154905D01*
X882663D01*
X880123Y1152366D01*
Y1147287D01*
X882663Y1144748D01*
X890280D01*
X885202D02*
X880123Y1139670D01*
X864888Y1154905D02*
X875045D01*
Y1147287D01*
X869967Y1149827D01*
X867427D01*
X864888Y1147287D01*
Y1142209D01*
X867427Y1139670D01*
X872506D01*
X875045Y1142209D01*
X859810Y1152366D02*
X857271Y1154905D01*
X852192D01*
X849653Y1152366D01*
Y1149827D01*
X852192Y1147287D01*
X854732D01*
X852192D01*
X849653Y1144748D01*
Y1142209D01*
X852192Y1139670D01*
X857271D01*
X859810Y1142209D01*
X890280Y1109190D02*
Y1124425D01*
X882663D01*
X880123Y1121886D01*
Y1116807D01*
X882663Y1114268D01*
X890280D01*
X885202D02*
X880123Y1109190D01*
X864888Y1124425D02*
X875045D01*
Y1116807D01*
X869967Y1119347D01*
X867427D01*
X864888Y1116807D01*
Y1111729D01*
X867427Y1109190D01*
X872506D01*
X875045Y1111729D01*
X849653Y1109190D02*
X859810D01*
X849653Y1119347D01*
Y1121886D01*
X852192Y1124425D01*
X857271D01*
X859810Y1121886D01*
X890280Y1078710D02*
Y1093945D01*
X882663D01*
X880123Y1091406D01*
Y1086327D01*
X882663Y1083788D01*
X890280D01*
X885202D02*
X880123Y1078710D01*
X864888Y1093945D02*
X875045D01*
Y1086327D01*
X869967Y1088867D01*
X867427D01*
X864888Y1086327D01*
Y1081249D01*
X867427Y1078710D01*
X872506D01*
X875045Y1081249D01*
X859810Y1078710D02*
X854732D01*
X857271D01*
Y1093945D01*
X859810Y1091406D01*
X890280Y1231110D02*
Y1246345D01*
X882663D01*
X880123Y1243806D01*
Y1238727D01*
X882663Y1236188D01*
X890280D01*
X885202D02*
X880123Y1231110D01*
X864888Y1246345D02*
X875045D01*
Y1238727D01*
X869967Y1241267D01*
X867427D01*
X864888Y1238727D01*
Y1233649D01*
X867427Y1231110D01*
X872506D01*
X875045Y1233649D01*
X859810Y1243806D02*
X857271Y1246345D01*
X852192D01*
X849653Y1243806D01*
Y1233649D01*
X852192Y1231110D01*
X857271D01*
X859810Y1233649D01*
Y1243806D01*
X890280Y1200630D02*
Y1215865D01*
X882663D01*
X880123Y1213326D01*
Y1208247D01*
X882663Y1205708D01*
X890280D01*
X885202D02*
X880123Y1200630D01*
X867427D02*
Y1215865D01*
X875045Y1208247D01*
X864888D01*
X859810Y1203169D02*
X857271Y1200630D01*
X852192D01*
X849653Y1203169D01*
Y1213326D01*
X852192Y1215865D01*
X857271D01*
X859810Y1213326D01*
Y1210787D01*
X857271Y1208247D01*
X849653D01*
X890280Y1170150D02*
Y1185385D01*
X882663D01*
X880123Y1182846D01*
Y1177767D01*
X882663Y1175228D01*
X890280D01*
X885202D02*
X880123Y1170150D01*
X867427D02*
Y1185385D01*
X875045Y1177767D01*
X864888D01*
X859810Y1182846D02*
X857271Y1185385D01*
X852192D01*
X849653Y1182846D01*
Y1180307D01*
X852192Y1177767D01*
X849653Y1175228D01*
Y1172689D01*
X852192Y1170150D01*
X857271D01*
X859810Y1172689D01*
Y1175228D01*
X857271Y1177767D01*
X859810Y1180307D01*
Y1182846D01*
X857271Y1177767D02*
X852192D01*
X754893Y1067829D02*
Y1077986D01*
X757432Y1080525D01*
X762511D01*
X765050Y1077986D01*
Y1067829D01*
X762511Y1065290D01*
X757432D01*
X759972Y1070368D02*
X754893Y1065290D01*
X757432D02*
X754893Y1067829D01*
X739658Y1080525D02*
X744737Y1077986D01*
X749815Y1072907D01*
Y1067829D01*
X747276Y1065290D01*
X742197D01*
X739658Y1067829D01*
Y1070368D01*
X742197Y1072907D01*
X749815D01*
X1073886Y975927D02*
X1076425Y973387D01*
Y968309D01*
X1073886Y965770D01*
X1063729D01*
X1061190Y968309D01*
Y973387D01*
X1063729Y975927D01*
X1073886Y981005D02*
X1076425Y983544D01*
Y988622D01*
X1073886Y991162D01*
X1071347D01*
X1068808Y988622D01*
Y986083D01*
Y988622D01*
X1066268Y991162D01*
X1063729D01*
X1061190Y988622D01*
Y983544D01*
X1063729Y981005D01*
X1076425Y1006397D02*
X1073886Y1001318D01*
X1068808Y996240D01*
X1063729D01*
X1061190Y998779D01*
Y1003857D01*
X1063729Y1006397D01*
X1066268D01*
X1068808Y1003857D01*
Y996240D01*
X1106059Y975927D02*
X1108598Y973387D01*
Y968309D01*
X1106059Y965770D01*
X1095903D01*
X1093363Y968309D01*
Y973387D01*
X1095903Y975927D01*
X1106059Y981005D02*
X1108598Y983544D01*
Y988622D01*
X1106059Y991162D01*
X1103520D01*
X1100981Y988622D01*
Y986083D01*
Y988622D01*
X1098442Y991162D01*
X1095903D01*
X1093363Y988622D01*
Y983544D01*
X1095903Y981005D01*
X1106059Y996240D02*
X1108598Y998779D01*
Y1003857D01*
X1106059Y1006397D01*
X1103520D01*
X1100981Y1003857D01*
Y1001318D01*
Y1003857D01*
X1098442Y1006397D01*
X1095903D01*
X1093363Y1003857D01*
Y998779D01*
X1095903Y996240D01*
X1138233Y975927D02*
X1140772Y973387D01*
Y968309D01*
X1138233Y965770D01*
X1128076D01*
X1125537Y968309D01*
Y973387D01*
X1128076Y975927D01*
X1138233Y981005D02*
X1140772Y983544D01*
Y988622D01*
X1138233Y991162D01*
X1135694D01*
X1133154Y988622D01*
Y986083D01*
Y988622D01*
X1130615Y991162D01*
X1128076D01*
X1125537Y988622D01*
Y983544D01*
X1128076Y981005D01*
X1125537Y996240D02*
Y1001318D01*
Y998779D01*
X1140772D01*
X1138233Y996240D01*
X1170406Y975927D02*
X1172945Y973387D01*
Y968309D01*
X1170406Y965770D01*
X1160249D01*
X1157710Y968309D01*
Y973387D01*
X1160249Y975927D01*
X1170406Y981005D02*
X1172945Y983544D01*
Y988622D01*
X1170406Y991162D01*
X1167867D01*
X1165328Y988622D01*
Y986083D01*
Y988622D01*
X1162788Y991162D01*
X1160249D01*
X1157710Y988622D01*
Y983544D01*
X1160249Y981005D01*
X1170406Y996240D02*
X1172945Y998779D01*
Y1003857D01*
X1170406Y1006397D01*
X1160249D01*
X1157710Y1003857D01*
Y998779D01*
X1160249Y996240D01*
X1170406D01*
X127536Y437907D02*
X130075Y435367D01*
Y430289D01*
X127536Y427750D01*
X117379D01*
X114840Y430289D01*
Y435367D01*
X117379Y437907D01*
X114840Y453142D02*
Y442985D01*
X124997Y453142D01*
X127536D01*
X130075Y450602D01*
Y445524D01*
X127536Y442985D01*
X117379Y458220D02*
X114840Y460759D01*
Y465838D01*
X117379Y468377D01*
X127536D01*
X130075Y465838D01*
Y460759D01*
X127536Y458220D01*
X124997D01*
X122458Y460759D01*
Y468377D01*
X95376Y437907D02*
X97915Y435367D01*
Y430289D01*
X95376Y427750D01*
X85219D01*
X82680Y430289D01*
Y435367D01*
X85219Y437907D01*
X82680Y453142D02*
Y442985D01*
X92837Y453142D01*
X95376D01*
X97915Y450602D01*
Y445524D01*
X95376Y442985D01*
Y458220D02*
X97915Y460759D01*
Y465838D01*
X95376Y468377D01*
X92837D01*
X90298Y465838D01*
X87758Y468377D01*
X85219D01*
X82680Y465838D01*
Y460759D01*
X85219Y458220D01*
X87758D01*
X90298Y460759D01*
X92837Y458220D01*
X95376D01*
X90298Y460759D02*
Y465838D01*
X63216Y437907D02*
X65755Y435367D01*
Y430289D01*
X63216Y427750D01*
X53059D01*
X50520Y430289D01*
Y435367D01*
X53059Y437907D01*
X50520Y453142D02*
Y442985D01*
X60677Y453142D01*
X63216D01*
X65755Y450602D01*
Y445524D01*
X63216Y442985D01*
X65755Y458220D02*
Y468377D01*
X63216D01*
X53059Y458220D01*
X50520D01*
X31056Y437907D02*
X33595Y435367D01*
Y430289D01*
X31056Y427750D01*
X20899D01*
X18360Y430289D01*
Y435367D01*
X20899Y437907D01*
X18360Y453142D02*
Y442985D01*
X28517Y453142D01*
X31056D01*
X33595Y450602D01*
Y445524D01*
X31056Y442985D01*
X33595Y468377D02*
X31056Y463298D01*
X25978Y458220D01*
X20899D01*
X18360Y460759D01*
Y465838D01*
X20899Y468377D01*
X23438D01*
X25978Y465838D01*
Y458220D01*
X695507Y239610D02*
X710742D01*
Y247227D01*
X708203Y249767D01*
X703124D01*
X700585Y247227D01*
Y239610D01*
Y244688D02*
X695507Y249767D01*
Y262462D02*
X710742D01*
X703124Y254845D01*
Y265002D01*
X695507Y280237D02*
Y270080D01*
X705664Y280237D01*
X708203D01*
X710742Y277698D01*
Y272619D01*
X708203Y270080D01*
X480970Y239610D02*
X496205D01*
Y247227D01*
X493666Y249767D01*
X488588D01*
X486048Y247227D01*
Y239610D01*
Y244688D02*
X480970Y249767D01*
X493666Y254845D02*
X496205Y257384D01*
Y262462D01*
X493666Y265002D01*
X491127D01*
X488588Y262462D01*
Y259923D01*
Y262462D01*
X486048Y265002D01*
X483509D01*
X480970Y262462D01*
Y257384D01*
X483509Y254845D01*
X496205Y280237D02*
X493666Y275158D01*
X488588Y270080D01*
X483509D01*
X480970Y272619D01*
Y277698D01*
X483509Y280237D01*
X486048D01*
X488588Y277698D01*
Y270080D01*
X506500Y239610D02*
X521735D01*
Y247227D01*
X519196Y249767D01*
X514118D01*
X511578Y247227D01*
Y239610D01*
Y244688D02*
X506500Y249767D01*
X519196Y254845D02*
X521735Y257384D01*
Y262462D01*
X519196Y265002D01*
X516657D01*
X514118Y262462D01*
Y259923D01*
Y262462D01*
X511578Y265002D01*
X509039D01*
X506500Y262462D01*
Y257384D01*
X509039Y254845D01*
X521735Y280237D02*
Y270080D01*
X514118D01*
X516657Y275158D01*
Y277698D01*
X514118Y280237D01*
X509039D01*
X506500Y277698D01*
Y272619D01*
X509039Y270080D01*
X294435Y239610D02*
X309670D01*
Y247227D01*
X307131Y249767D01*
X302053D01*
X299513Y247227D01*
Y239610D01*
Y244688D02*
X294435Y249767D01*
Y265002D02*
Y254845D01*
X304592Y265002D01*
X307131D01*
X309670Y262462D01*
Y257384D01*
X307131Y254845D01*
X296974Y270080D02*
X294435Y272619D01*
Y277698D01*
X296974Y280237D01*
X307131D01*
X309670Y277698D01*
Y272619D01*
X307131Y270080D01*
X304592D01*
X302053Y272619D01*
Y280237D01*
X268680Y239610D02*
X283915D01*
Y247227D01*
X281376Y249767D01*
X276298D01*
X273758Y247227D01*
Y239610D01*
Y244688D02*
X268680Y249767D01*
Y265002D02*
Y254845D01*
X278837Y265002D01*
X281376D01*
X283915Y262462D01*
Y257384D01*
X281376Y254845D01*
X283915Y270080D02*
Y280237D01*
X281376D01*
X271219Y270080D01*
X268680D01*
X320190Y239610D02*
X335425D01*
Y247227D01*
X332886Y249767D01*
X327808D01*
X325268Y247227D01*
Y239610D01*
Y244688D02*
X320190Y249767D01*
Y265002D02*
Y254845D01*
X330347Y265002D01*
X332886D01*
X335425Y262462D01*
Y257384D01*
X332886Y254845D01*
X335425Y280237D02*
Y270080D01*
X327808D01*
X330347Y275158D01*
Y277698D01*
X327808Y280237D01*
X322729D01*
X320190Y277698D01*
Y272619D01*
X322729Y270080D01*
X956383Y1030549D02*
Y1040706D01*
X958923Y1043245D01*
X964001D01*
X966540Y1040706D01*
Y1030549D01*
X964001Y1028010D01*
X958923D01*
X961462Y1033088D02*
X956383Y1028010D01*
X958923D02*
X956383Y1030549D01*
X941148Y1028010D02*
X951305D01*
X941148Y1038167D01*
Y1040706D01*
X943688Y1043245D01*
X948766D01*
X951305Y1040706D01*
X389406Y1241887D02*
X391945Y1239347D01*
Y1234269D01*
X389406Y1231730D01*
X379249D01*
X376710Y1234269D01*
Y1239347D01*
X379249Y1241887D01*
X376710Y1246965D02*
Y1252043D01*
Y1249504D01*
X391945D01*
X389406Y1246965D01*
X376710Y1267278D02*
X391945D01*
X384328Y1259661D01*
Y1269818D01*
X547940Y1028225D02*
Y1015529D01*
X545401Y1012990D01*
X540322D01*
X537783Y1015529D01*
Y1028225D01*
X532705Y1025686D02*
X530166Y1028225D01*
X525088D01*
X522548Y1025686D01*
Y1023147D01*
X525088Y1020607D01*
X527627D01*
X525088D01*
X522548Y1018068D01*
Y1015529D01*
X525088Y1012990D01*
X530166D01*
X532705Y1015529D01*
X607500Y733735D02*
Y721039D01*
X604961Y718500D01*
X599883D01*
X597343Y721039D01*
Y733735D01*
X582108Y718500D02*
X592265D01*
X582108Y728656D01*
Y731196D01*
X584647Y733735D01*
X589726D01*
X592265Y731196D01*
X307000Y733485D02*
Y720789D01*
X304461Y718250D01*
X299382D01*
X296843Y720789D01*
Y733485D01*
X291765Y718250D02*
X286687D01*
X289226D01*
Y733485D01*
X291765Y730946D01*
X771340Y615810D02*
Y631045D01*
X763723D01*
X761183Y628506D01*
Y623427D01*
X763723Y620888D01*
X771340D01*
X766262D02*
X761183Y615810D01*
X748487D02*
Y631045D01*
X756105Y623427D01*
X745948D01*
X740870Y631045D02*
X730713D01*
Y628506D01*
X740870Y618349D01*
Y615810D01*
X771340Y590410D02*
Y605645D01*
X763723D01*
X761183Y603106D01*
Y598027D01*
X763723Y595488D01*
X771340D01*
X766262D02*
X761183Y590410D01*
X748487D02*
Y605645D01*
X756105Y598027D01*
X745948D01*
X730713Y605645D02*
X735791Y603106D01*
X740870Y598027D01*
Y592949D01*
X738331Y590410D01*
X733252D01*
X730713Y592949D01*
Y595488D01*
X733252Y598027D01*
X740870D01*
X771340Y565010D02*
Y580245D01*
X763723D01*
X761183Y577706D01*
Y572627D01*
X763723Y570088D01*
X771340D01*
X766262D02*
X761183Y565010D01*
X748487D02*
Y580245D01*
X756105Y572627D01*
X745948D01*
X730713Y580245D02*
X740870D01*
Y572627D01*
X735791Y575167D01*
X733252D01*
X730713Y572627D01*
Y567549D01*
X733252Y565010D01*
X738331D01*
X740870Y567549D01*
X1007210Y1314220D02*
X1022445D01*
Y1321837D01*
X1019906Y1324377D01*
X1014828D01*
X1012288Y1321837D01*
Y1314220D01*
Y1319298D02*
X1007210Y1324377D01*
X1019906Y1329455D02*
X1022445Y1331994D01*
Y1337072D01*
X1019906Y1339612D01*
X1017367D01*
X1014828Y1337072D01*
Y1334533D01*
Y1337072D01*
X1012288Y1339612D01*
X1009749D01*
X1007210Y1337072D01*
Y1331994D01*
X1009749Y1329455D01*
X1019906Y1344690D02*
X1022445Y1347229D01*
Y1352307D01*
X1019906Y1354847D01*
X1009749D01*
X1007210Y1352307D01*
Y1347229D01*
X1009749Y1344690D01*
X1019906D01*
X956440Y1314220D02*
X971675D01*
Y1321837D01*
X969136Y1324377D01*
X964058D01*
X961518Y1321837D01*
Y1314220D01*
Y1319298D02*
X956440Y1324377D01*
Y1339612D02*
Y1329455D01*
X966597Y1339612D01*
X969136D01*
X971675Y1337072D01*
Y1331994D01*
X969136Y1329455D01*
Y1344690D02*
X971675Y1347229D01*
Y1352307D01*
X969136Y1354847D01*
X966597D01*
X964058Y1352307D01*
X961518Y1354847D01*
X958979D01*
X956440Y1352307D01*
Y1347229D01*
X958979Y1344690D01*
X961518D01*
X964058Y1347229D01*
X966597Y1344690D01*
X969136D01*
X964058Y1347229D02*
Y1352307D01*
X1122280Y611200D02*
X1137515D01*
Y618817D01*
X1134976Y621357D01*
X1129898D01*
X1127358Y618817D01*
Y611200D01*
Y616278D02*
X1122280Y621357D01*
Y636592D02*
Y626435D01*
X1132437Y636592D01*
X1134976D01*
X1137515Y634052D01*
Y628974D01*
X1134976Y626435D01*
X1137515Y651827D02*
X1134976Y646748D01*
X1129898Y641670D01*
X1124819D01*
X1122280Y644209D01*
Y649287D01*
X1124819Y651827D01*
X1127358D01*
X1129898Y649287D01*
Y641670D01*
X900790Y1314220D02*
X916025D01*
Y1321837D01*
X913486Y1324377D01*
X908408D01*
X905868Y1321837D01*
Y1314220D01*
Y1319298D02*
X900790Y1324377D01*
X913486Y1329455D02*
X916025Y1331994D01*
Y1337072D01*
X913486Y1339612D01*
X910947D01*
X908408Y1337072D01*
Y1334533D01*
Y1337072D01*
X905868Y1339612D01*
X903329D01*
X900790Y1337072D01*
Y1331994D01*
X903329Y1329455D01*
X900790Y1354847D02*
Y1344690D01*
X910947Y1354847D01*
X913486D01*
X916025Y1352307D01*
Y1347229D01*
X913486Y1344690D01*
X771340Y515240D02*
Y530475D01*
X763723D01*
X761183Y527936D01*
Y522857D01*
X763723Y520318D01*
X771340D01*
X766262D02*
X761183Y515240D01*
X745948D02*
X756105D01*
X745948Y525396D01*
Y527936D01*
X748487Y530475D01*
X753566D01*
X756105Y527936D01*
X733252Y515240D02*
Y530475D01*
X740870Y522857D01*
X730713D01*
X771340Y540890D02*
Y556125D01*
X763723D01*
X761183Y553586D01*
Y548507D01*
X763723Y545968D01*
X771340D01*
X766262D02*
X761183Y540890D01*
X745948D02*
X756105D01*
X745948Y551046D01*
Y553586D01*
X748487Y556125D01*
X753566D01*
X756105Y553586D01*
X740870D02*
X738331Y556125D01*
X733252D01*
X730713Y553586D01*
Y551046D01*
X733252Y548507D01*
X735791D01*
X733252D01*
X730713Y545968D01*
Y543429D01*
X733252Y540890D01*
X738331D01*
X740870Y543429D01*
X119900Y631090D02*
Y646325D01*
X112282D01*
X109743Y643786D01*
Y638707D01*
X112282Y636168D01*
X119900D01*
X114822D02*
X109743Y631090D01*
X94508D02*
X104665D01*
X94508Y641246D01*
Y643786D01*
X97047Y646325D01*
X102126D01*
X104665Y643786D01*
X79273Y631090D02*
X89430D01*
X79273Y641246D01*
Y643786D01*
X81812Y646325D01*
X86891D01*
X89430Y643786D01*
X411790Y631830D02*
Y647065D01*
X404172D01*
X401633Y644526D01*
Y639448D01*
X404172Y636908D01*
X411790D01*
X406712D02*
X401633Y631830D01*
X386398D02*
X396555D01*
X386398Y641987D01*
Y644526D01*
X388937Y647065D01*
X394016D01*
X396555Y644526D01*
X381320Y631830D02*
X376241D01*
X378781D01*
Y647065D01*
X381320Y644526D01*
X119900Y656490D02*
Y671725D01*
X112282D01*
X109743Y669186D01*
Y664107D01*
X112282Y661568D01*
X119900D01*
X114822D02*
X109743Y656490D01*
X94508D02*
X104665D01*
X94508Y666646D01*
Y669186D01*
X97047Y671725D01*
X102126D01*
X104665Y669186D01*
X89430D02*
X86891Y671725D01*
X81812D01*
X79273Y669186D01*
Y659029D01*
X81812Y656490D01*
X86891D01*
X89430Y659029D01*
Y669186D01*
X411790Y657230D02*
Y672465D01*
X404172D01*
X401633Y669926D01*
Y664847D01*
X404172Y662308D01*
X411790D01*
X406712D02*
X401633Y657230D01*
X396555D02*
X391477D01*
X394016D01*
Y672465D01*
X396555Y669926D01*
X383859Y659769D02*
X381320Y657230D01*
X376241D01*
X373702Y659769D01*
Y669926D01*
X376241Y672465D01*
X381320D01*
X383859Y669926D01*
Y667387D01*
X381320Y664847D01*
X373702D01*
X119900Y681890D02*
Y697125D01*
X112282D01*
X109743Y694586D01*
Y689507D01*
X112282Y686968D01*
X119900D01*
X114822D02*
X109743Y681890D01*
X104665D02*
X99587D01*
X102126D01*
Y697125D01*
X104665Y694586D01*
X91969D02*
X89430Y697125D01*
X84352D01*
X81812Y694586D01*
Y692047D01*
X84352Y689507D01*
X81812Y686968D01*
Y684429D01*
X84352Y681890D01*
X89430D01*
X91969Y684429D01*
Y686968D01*
X89430Y689507D01*
X91969Y692047D01*
Y694586D01*
X89430Y689507D02*
X84352D01*
X411790Y682630D02*
Y697865D01*
X404172D01*
X401633Y695326D01*
Y690247D01*
X404172Y687708D01*
X411790D01*
X406712D02*
X401633Y682630D01*
X396555D02*
X391477D01*
X394016D01*
Y697865D01*
X396555Y695326D01*
X383859Y697865D02*
X373702D01*
Y695326D01*
X383859Y685169D01*
Y682630D01*
X119900Y707290D02*
Y722525D01*
X112282D01*
X109743Y719986D01*
Y714907D01*
X112282Y712368D01*
X119900D01*
X114822D02*
X109743Y707290D01*
X104665D02*
X99587D01*
X102126D01*
Y722525D01*
X104665Y719986D01*
X81812Y722525D02*
X86891Y719986D01*
X91969Y714907D01*
Y709829D01*
X89430Y707290D01*
X84352D01*
X81812Y709829D01*
Y712368D01*
X84352Y714907D01*
X91969D01*
X411790Y708030D02*
Y723265D01*
X404172D01*
X401633Y720726D01*
Y715648D01*
X404172Y713108D01*
X411790D01*
X406712D02*
X401633Y708030D01*
X396555D02*
X391477D01*
X394016D01*
Y723265D01*
X396555Y720726D01*
X373702Y723265D02*
X383859D01*
Y715648D01*
X378781Y718187D01*
X376241D01*
X373702Y715648D01*
Y710569D01*
X376241Y708030D01*
X381320D01*
X383859Y710569D01*
X119900Y732690D02*
Y747925D01*
X112282D01*
X109743Y745386D01*
Y740307D01*
X112282Y737768D01*
X119900D01*
X114822D02*
X109743Y732690D01*
X104665D02*
X99587D01*
X102126D01*
Y747925D01*
X104665Y745386D01*
X84352Y732690D02*
Y747925D01*
X91969Y740307D01*
X81812D01*
X411790Y733430D02*
Y748665D01*
X404172D01*
X401633Y746126D01*
Y741048D01*
X404172Y738508D01*
X411790D01*
X406712D02*
X401633Y733430D01*
X396555D02*
X391477D01*
X394016D01*
Y748665D01*
X396555Y746126D01*
X383859D02*
X381320Y748665D01*
X376241D01*
X373702Y746126D01*
Y743587D01*
X376241Y741048D01*
X378781D01*
X376241D01*
X373702Y738508D01*
Y735969D01*
X376241Y733430D01*
X381320D01*
X383859Y735969D01*
X119900Y758090D02*
Y773325D01*
X112282D01*
X109743Y770786D01*
Y765707D01*
X112282Y763168D01*
X119900D01*
X114822D02*
X109743Y758090D01*
X104665D02*
X99587D01*
X102126D01*
Y773325D01*
X104665Y770786D01*
X81812Y758090D02*
X91969D01*
X81812Y768247D01*
Y770786D01*
X84352Y773325D01*
X89430D01*
X91969Y770786D01*
X411790Y758830D02*
Y774065D01*
X404172D01*
X401633Y771526D01*
Y766448D01*
X404172Y763908D01*
X411790D01*
X406712D02*
X401633Y758830D01*
X396555D02*
X391477D01*
X394016D01*
Y774065D01*
X396555Y771526D01*
X383859Y758830D02*
X378781D01*
X381320D01*
Y774065D01*
X383859Y771526D01*
X119900Y783490D02*
Y798725D01*
X112282D01*
X109743Y796186D01*
Y791107D01*
X112282Y788568D01*
X119900D01*
X114822D02*
X109743Y783490D01*
X104665D02*
X99587D01*
X102126D01*
Y798725D01*
X104665Y796186D01*
X91969D02*
X89430Y798725D01*
X84352D01*
X81812Y796186D01*
Y786029D01*
X84352Y783490D01*
X89430D01*
X91969Y786029D01*
Y796186D01*
X411790Y784230D02*
Y799465D01*
X404172D01*
X401633Y796926D01*
Y791848D01*
X404172Y789308D01*
X411790D01*
X406712D02*
X401633Y784230D01*
X396555Y786769D02*
X394016Y784230D01*
X388937D01*
X386398Y786769D01*
Y796926D01*
X388937Y799465D01*
X394016D01*
X396555Y796926D01*
Y794387D01*
X394016Y791848D01*
X386398D01*
X119900Y808890D02*
Y824125D01*
X112282D01*
X109743Y821586D01*
Y816507D01*
X112282Y813968D01*
X119900D01*
X114822D02*
X109743Y808890D01*
X104665Y821586D02*
X102126Y824125D01*
X97047D01*
X94508Y821586D01*
Y819046D01*
X97047Y816507D01*
X94508Y813968D01*
Y811429D01*
X97047Y808890D01*
X102126D01*
X104665Y811429D01*
Y813968D01*
X102126Y816507D01*
X104665Y819046D01*
Y821586D01*
X102126Y816507D02*
X97047D01*
X411790Y809630D02*
Y824865D01*
X404172D01*
X401633Y822326D01*
Y817247D01*
X404172Y814708D01*
X411790D01*
X406712D02*
X401633Y809630D01*
X396555Y824865D02*
X386398D01*
Y822326D01*
X396555Y812169D01*
Y809630D01*
X1024010Y1205600D02*
Y1220835D01*
X1016392D01*
X1013853Y1218296D01*
Y1213218D01*
X1016392Y1210679D01*
X1024010D01*
X1018932D02*
X1013853Y1205600D01*
X998618Y1220835D02*
X1003697Y1218296D01*
X1008775Y1213218D01*
Y1208139D01*
X1006236Y1205600D01*
X1001157D01*
X998618Y1208139D01*
Y1210679D01*
X1001157Y1213218D01*
X1008775D01*
X175180Y298890D02*
Y314125D01*
X167563D01*
X165023Y311586D01*
Y306507D01*
X167563Y303968D01*
X175180D01*
X170102D02*
X165023Y298890D01*
X149788Y314125D02*
X159945D01*
Y306507D01*
X154867Y309047D01*
X152327D01*
X149788Y306507D01*
Y301429D01*
X152327Y298890D01*
X157406D01*
X159945Y301429D01*
X1024010Y1175120D02*
Y1190355D01*
X1016392D01*
X1013853Y1187816D01*
Y1182738D01*
X1016392Y1180199D01*
X1024010D01*
X1018932D02*
X1013853Y1175120D01*
X1001157D02*
Y1190355D01*
X1008775Y1182738D01*
X998618D01*
X175180Y268410D02*
Y283645D01*
X167563D01*
X165023Y281106D01*
Y276027D01*
X167563Y273488D01*
X175180D01*
X170102D02*
X165023Y268410D01*
X159945Y281106D02*
X157406Y283645D01*
X152327D01*
X149788Y281106D01*
Y278567D01*
X152327Y276027D01*
X154867D01*
X152327D01*
X149788Y273488D01*
Y270949D01*
X152327Y268410D01*
X157406D01*
X159945Y270949D01*
X1024010Y1144640D02*
Y1159875D01*
X1016392D01*
X1013853Y1157336D01*
Y1152258D01*
X1016392Y1149719D01*
X1024010D01*
X1018932D02*
X1013853Y1144640D01*
X998618D02*
X1008775D01*
X998618Y1154797D01*
Y1157336D01*
X1001157Y1159875D01*
X1006236D01*
X1008775Y1157336D01*
X175180Y237930D02*
Y253165D01*
X167563D01*
X165023Y250626D01*
Y245547D01*
X167563Y243008D01*
X175180D01*
X170102D02*
X165023Y237930D01*
X159945D02*
X154867D01*
X157406D01*
Y253165D01*
X159945Y250626D01*
X26823Y275279D02*
Y285436D01*
X29362Y287975D01*
X34441D01*
X36980Y285436D01*
Y275279D01*
X34441Y272740D01*
X29362D01*
X31902Y277818D02*
X26823Y272740D01*
X29362D02*
X26823Y275279D01*
X21745Y285436D02*
X19206Y287975D01*
X14128D01*
X11588Y285436D01*
Y282897D01*
X14128Y280357D01*
X16667D01*
X14128D01*
X11588Y277818D01*
Y275279D01*
X14128Y272740D01*
X19206D01*
X21745Y275279D01*
X26823Y225229D02*
Y235386D01*
X29362Y237925D01*
X34441D01*
X36980Y235386D01*
Y225229D01*
X34441Y222690D01*
X29362D01*
X31902Y227768D02*
X26823Y222690D01*
X29362D02*
X26823Y225229D01*
X21745Y222690D02*
X16667D01*
X19206D01*
Y237925D01*
X21745Y235386D01*
X732243Y1036446D02*
X734782Y1038985D01*
X739861D01*
X742400Y1036446D01*
Y1026289D01*
X739861Y1023750D01*
X734782D01*
X732243Y1026289D01*
X717008Y1023750D02*
X727165D01*
X717008Y1033907D01*
Y1036446D01*
X719547Y1038985D01*
X724626D01*
X727165Y1036446D01*
X701773Y1023750D02*
X711930D01*
X701773Y1033907D01*
Y1036446D01*
X704312Y1038985D01*
X709391D01*
X711930Y1036446D01*
X732243Y1016126D02*
X734782Y1018665D01*
X739861D01*
X742400Y1016126D01*
Y1005969D01*
X739861Y1003430D01*
X734782D01*
X732243Y1005969D01*
X717008Y1003430D02*
X727165D01*
X717008Y1013587D01*
Y1016126D01*
X719547Y1018665D01*
X724626D01*
X727165Y1016126D01*
X711930Y1003430D02*
X706852D01*
X709391D01*
Y1018665D01*
X711930Y1016126D01*
X785313Y703556D02*
X787853Y706095D01*
X792931D01*
X795470Y703556D01*
Y693399D01*
X792931Y690860D01*
X787853D01*
X785313Y693399D01*
X770078Y690860D02*
X780235D01*
X770078Y701017D01*
Y703556D01*
X772617Y706095D01*
X777696D01*
X780235Y703556D01*
X765000D02*
X762461Y706095D01*
X757382D01*
X754843Y703556D01*
Y693399D01*
X757382Y690860D01*
X762461D01*
X765000Y693399D01*
Y703556D01*
X785313Y755886D02*
X787853Y758425D01*
X792931D01*
X795470Y755886D01*
Y745729D01*
X792931Y743190D01*
X787853D01*
X785313Y745729D01*
X780235Y743190D02*
X775157D01*
X777696D01*
Y758425D01*
X780235Y755886D01*
X767539Y745729D02*
X765000Y743190D01*
X759922D01*
X757382Y745729D01*
Y755886D01*
X759922Y758425D01*
X765000D01*
X767539Y755886D01*
Y753347D01*
X765000Y750807D01*
X757382D01*
X1053086Y469557D02*
X1055625Y467017D01*
Y461939D01*
X1053086Y459400D01*
X1042929D01*
X1040390Y461939D01*
Y467017D01*
X1042929Y469557D01*
X1040390Y474635D02*
Y479713D01*
Y477174D01*
X1055625D01*
X1053086Y474635D01*
Y487331D02*
X1055625Y489870D01*
Y494948D01*
X1053086Y497487D01*
X1050547D01*
X1048008Y494948D01*
X1045468Y497487D01*
X1042929D01*
X1040390Y494948D01*
Y489870D01*
X1042929Y487331D01*
X1045468D01*
X1048008Y489870D01*
X1050547Y487331D01*
X1053086D01*
X1048008Y489870D02*
Y494948D01*
X1018616Y469557D02*
X1021155Y467017D01*
Y461939D01*
X1018616Y459400D01*
X1008459D01*
X1005920Y461939D01*
Y467017D01*
X1008459Y469557D01*
X1005920Y474635D02*
Y479713D01*
Y477174D01*
X1021155D01*
X1018616Y474635D01*
X1021155Y487331D02*
Y497487D01*
X1018616D01*
X1008459Y487331D01*
X1005920D01*
X984146Y469557D02*
X986685Y467017D01*
Y461939D01*
X984146Y459400D01*
X973989D01*
X971450Y461939D01*
Y467017D01*
X973989Y469557D01*
X971450Y474635D02*
Y479713D01*
Y477174D01*
X986685D01*
X984146Y474635D01*
X986685Y497487D02*
X984146Y492409D01*
X979068Y487331D01*
X973989D01*
X971450Y489870D01*
Y494948D01*
X973989Y497487D01*
X976528D01*
X979068Y494948D01*
Y487331D01*
X949676Y469557D02*
X952215Y467017D01*
Y461939D01*
X949676Y459400D01*
X939519D01*
X936980Y461939D01*
Y467017D01*
X939519Y469557D01*
X936980Y474635D02*
Y479713D01*
Y477174D01*
X952215D01*
X949676Y474635D01*
X952215Y497487D02*
Y487331D01*
X944598D01*
X947137Y492409D01*
Y494948D01*
X944598Y497487D01*
X939519D01*
X936980Y494948D01*
Y489870D01*
X939519Y487331D01*
X1010186Y783376D02*
X1012725Y780837D01*
Y775759D01*
X1010186Y773220D01*
X1000029D01*
X997490Y775759D01*
Y780837D01*
X1000029Y783376D01*
X997490Y798612D02*
Y788455D01*
X1007647Y798612D01*
X1010186D01*
X1012725Y796072D01*
Y790994D01*
X1010186Y788455D01*
Y803690D02*
X1012725Y806229D01*
Y811308D01*
X1010186Y813847D01*
X1007647D01*
X1005108Y811308D01*
Y808768D01*
Y811308D01*
X1002568Y813847D01*
X1000029D01*
X997490Y811308D01*
Y806229D01*
X1000029Y803690D01*
X1059776Y783376D02*
X1062315Y780837D01*
Y775759D01*
X1059776Y773220D01*
X1049619D01*
X1047080Y775759D01*
Y780837D01*
X1049619Y783376D01*
X1047080Y798612D02*
Y788455D01*
X1057237Y798612D01*
X1059776D01*
X1062315Y796072D01*
Y790994D01*
X1059776Y788455D01*
X1047080Y811308D02*
X1062315D01*
X1054698Y803690D01*
Y813847D01*
X607750Y938945D02*
Y926249D01*
X605211Y923710D01*
X600133D01*
X597593Y926249D01*
Y938945D01*
X584897Y923710D02*
Y938945D01*
X592515Y931327D01*
X582358D01*
X906430Y733805D02*
Y721109D01*
X903891Y718570D01*
X898813D01*
X896273Y721109D01*
Y733805D01*
X881038D02*
X891195D01*
Y726187D01*
X886117Y728727D01*
X883577D01*
X881038Y726187D01*
Y721109D01*
X883577Y718570D01*
X888656D01*
X891195Y721109D01*
X532030Y239610D02*
X547265D01*
Y247227D01*
X544726Y249767D01*
X539648D01*
X537108Y247227D01*
Y239610D01*
Y244688D02*
X532030Y249767D01*
X544726Y254845D02*
X547265Y257384D01*
Y262462D01*
X544726Y265002D01*
X542187D01*
X539648Y262462D01*
Y259923D01*
Y262462D01*
X537108Y265002D01*
X534569D01*
X532030Y262462D01*
Y257384D01*
X534569Y254845D01*
X532030Y277698D02*
X547265D01*
X539648Y270080D01*
Y280237D01*
X721373Y239610D02*
X736609D01*
Y247227D01*
X734069Y249767D01*
X728991D01*
X726452Y247227D01*
Y239610D01*
Y244688D02*
X721373Y249767D01*
X734069Y254845D02*
X736609Y257384D01*
Y262462D01*
X734069Y265002D01*
X731530D01*
X728991Y262462D01*
Y259923D01*
Y262462D01*
X726452Y265002D01*
X723913D01*
X721373Y262462D01*
Y257384D01*
X723913Y254845D01*
X734069Y270080D02*
X736609Y272619D01*
Y277698D01*
X734069Y280237D01*
X731530D01*
X728991Y277698D01*
Y275158D01*
Y277698D01*
X726452Y280237D01*
X723913D01*
X721373Y277698D01*
Y272619D01*
X723913Y270080D01*
X881680Y239610D02*
X896915D01*
Y247227D01*
X894376Y249767D01*
X889298D01*
X886758Y247227D01*
Y239610D01*
Y244688D02*
X881680Y249767D01*
X894376Y254845D02*
X896915Y257384D01*
Y262462D01*
X894376Y265002D01*
X891837D01*
X889298Y262462D01*
Y259923D01*
Y262462D01*
X886758Y265002D01*
X884219D01*
X881680Y262462D01*
Y257384D01*
X884219Y254845D01*
X896915Y270080D02*
Y280237D01*
X894376D01*
X884219Y270080D01*
X881680D01*
X932880Y239610D02*
X948115D01*
Y247227D01*
X945576Y249767D01*
X940498D01*
X937958Y247227D01*
Y239610D01*
Y244688D02*
X932880Y249767D01*
Y262462D02*
X948115D01*
X940498Y254845D01*
Y265002D01*
X932880Y277698D02*
X948115D01*
X940498Y270080D01*
Y280237D01*
X505690Y1306290D02*
X520925D01*
Y1313907D01*
X518386Y1316447D01*
X513308D01*
X510768Y1313907D01*
Y1306290D01*
Y1311368D02*
X505690Y1316447D01*
X518386Y1321525D02*
X520925Y1324064D01*
Y1329142D01*
X518386Y1331682D01*
X515847D01*
X513308Y1329142D01*
Y1326603D01*
Y1329142D01*
X510768Y1331682D01*
X508229D01*
X505690Y1329142D01*
Y1324064D01*
X508229Y1321525D01*
X518386Y1336760D02*
X520925Y1339299D01*
Y1344377D01*
X518386Y1346917D01*
X515847D01*
X513308Y1344377D01*
X510768Y1346917D01*
X508229D01*
X505690Y1344377D01*
Y1339299D01*
X508229Y1336760D01*
X510768D01*
X513308Y1339299D01*
X515847Y1336760D01*
X518386D01*
X513308Y1339299D02*
Y1344377D01*
X480940Y1306290D02*
X496175D01*
Y1313907D01*
X493636Y1316447D01*
X488558D01*
X486018Y1313907D01*
Y1306290D01*
Y1311368D02*
X480940Y1316447D01*
Y1329142D02*
X496175D01*
X488558Y1321525D01*
Y1331682D01*
X493636Y1336760D02*
X496175Y1339299D01*
Y1344377D01*
X493636Y1346917D01*
X491097D01*
X488558Y1344377D01*
Y1341838D01*
Y1344377D01*
X486018Y1346917D01*
X483479D01*
X480940Y1344377D01*
Y1339299D01*
X483479Y1336760D01*
X556100Y1066180D02*
X571335D01*
Y1073797D01*
X568796Y1076337D01*
X563718D01*
X561178Y1073797D01*
Y1066180D01*
Y1071258D02*
X556100Y1076337D01*
X568796Y1081415D02*
X571335Y1083954D01*
Y1089032D01*
X568796Y1091572D01*
X566257D01*
X563718Y1089032D01*
Y1086493D01*
Y1089032D01*
X561178Y1091572D01*
X558639D01*
X556100Y1089032D01*
Y1083954D01*
X558639Y1081415D01*
Y1096650D02*
X556100Y1099189D01*
Y1104268D01*
X558639Y1106807D01*
X568796D01*
X571335Y1104268D01*
Y1099189D01*
X568796Y1096650D01*
X566257D01*
X563718Y1099189D01*
Y1106807D01*
X907000Y239610D02*
X922235D01*
Y247227D01*
X919696Y249767D01*
X914618D01*
X912078Y247227D01*
Y239610D01*
Y244688D02*
X907000Y249767D01*
Y262462D02*
X922235D01*
X914618Y254845D01*
Y265002D01*
X907000Y270080D02*
Y275158D01*
Y272619D01*
X922235D01*
X919696Y270080D01*
D55*
X268500Y666000D02*
X326500D01*
X268500Y784000D02*
X326500D01*
X268500Y666000D02*
Y784000D01*
X326500Y666000D02*
Y784000D01*
X832396Y725000D02*
X892500Y785104D01*
Y664896D02*
X952604Y725000D01*
X832396D02*
X892500Y664896D01*
Y785104D02*
X952604Y725000D01*
X588000Y1003640D02*
X602000D01*
X588000Y1035640D02*
X602000D01*
X588000Y1003640D02*
Y1035640D01*
X602000Y1003640D02*
Y1035640D01*
X603000Y867640D02*
Y917640D01*
X587000Y867640D02*
Y917640D01*
X603000D01*
X587000Y867640D02*
X603000D01*
X615000Y672000D02*
Y778000D01*
X575000Y672000D02*
Y778000D01*
X615000D01*
X575000Y672000D02*
X615000D01*
X740400Y1121000D02*
X748400D01*
X740400Y1113000D02*
Y1121000D01*
Y1091000D02*
X748400D01*
X740400D02*
Y1099000D01*
X46630Y313100D02*
X54630D01*
X46630Y305100D02*
Y313100D01*
Y283100D02*
X54630D01*
X46630D02*
Y291100D01*
Y267380D02*
X54630D01*
X46630Y259380D02*
Y267380D01*
Y237380D02*
X54630D01*
X46630D02*
Y245380D01*
X938160Y1127440D02*
X946160D01*
X938160Y1119441D02*
Y1127440D01*
Y1097440D02*
X946160D01*
X938160D02*
Y1105441D01*
Y1081721D02*
X946160D01*
X938160Y1073720D02*
Y1081721D01*
Y1051720D02*
X946160D01*
X938160D02*
Y1059721D01*
X848760Y1333600D02*
Y1341600D01*
X840760D02*
X848760D01*
X818760Y1333600D02*
Y1341600D01*
X826760D01*
D91*
X319500Y774000D02*
G03*
X319500Y774000I-3000J0D01*
G01*
X849538Y725000D02*
G03*
X849538Y725000I-3000J0D01*
G01*
X608000Y768000D02*
G03*
X608000Y768000I-3000J0D01*
G01*
D92*
X1063440Y1021800D02*
X1071440D01*
Y1037800D01*
X1063440Y1021800D02*
Y1037800D01*
X1071440D01*
X98590Y239300D02*
X130590D01*
X98590Y255300D02*
X130590D01*
Y239300D02*
Y255300D01*
X98590Y239300D02*
Y255300D01*
X995200Y1053640D02*
X1027200D01*
X995200Y1069640D02*
X1027200D01*
Y1053640D02*
Y1069640D01*
X995200Y1053640D02*
Y1069640D01*
X98590Y269780D02*
X130590D01*
X98590Y285780D02*
X130590D01*
Y269780D02*
Y285780D01*
X98590Y269780D02*
Y285780D01*
X995200Y1084120D02*
X1027200D01*
X995200Y1100120D02*
X1027200D01*
Y1084120D02*
Y1100120D01*
X995200Y1084120D02*
Y1100120D01*
X98590Y300260D02*
X130590D01*
X98590Y316260D02*
X130590D01*
Y300260D02*
Y316260D01*
X98590Y300260D02*
Y316260D01*
X995200Y1114600D02*
X1027200D01*
X995200Y1130600D02*
X1027200D01*
Y1114600D02*
Y1130600D01*
X995200Y1114600D02*
Y1130600D01*
X430660Y823210D02*
X462660D01*
X430660Y807210D02*
X462660D01*
X430660D02*
Y823210D01*
X462660Y807210D02*
Y823210D01*
X137040Y824440D02*
X169040D01*
X137040Y808440D02*
X169040D01*
X137040D02*
Y824440D01*
X169040Y808440D02*
Y824440D01*
X430660Y797810D02*
X462660D01*
X430660Y781810D02*
X462660D01*
X430660D02*
Y797810D01*
X462660Y781810D02*
Y797810D01*
X137040Y799040D02*
X169040D01*
X137040Y783040D02*
X169040D01*
X137040D02*
Y799040D01*
X169040Y783040D02*
Y799040D01*
X430660Y772410D02*
X462660D01*
X430660Y756410D02*
X462660D01*
X430660D02*
Y772410D01*
X462660Y756410D02*
Y772410D01*
X137040Y773640D02*
X169040D01*
X137040Y757640D02*
X169040D01*
X137040D02*
Y773640D01*
X169040Y757640D02*
Y773640D01*
X430660Y747010D02*
X462660D01*
X430660Y731010D02*
X462660D01*
X430660D02*
Y747010D01*
X462660Y731010D02*
Y747010D01*
X137040Y748240D02*
X169040D01*
X137040Y732240D02*
X169040D01*
X137040D02*
Y748240D01*
X169040Y732240D02*
Y748240D01*
X430660Y721610D02*
X462660D01*
X430660Y705610D02*
X462660D01*
X430660D02*
Y721610D01*
X462660Y705610D02*
Y721610D01*
X137040Y722840D02*
X169040D01*
X137040Y706840D02*
X169040D01*
X137040D02*
Y722840D01*
X169040Y706840D02*
Y722840D01*
X430660Y696210D02*
X462660D01*
X430660Y680210D02*
X462660D01*
X430660D02*
Y696210D01*
X462660Y680210D02*
Y696210D01*
X137040Y697440D02*
X169040D01*
X137040Y681440D02*
X169040D01*
X137040D02*
Y697440D01*
X169040Y681440D02*
Y697440D01*
X430660Y670810D02*
X462660D01*
X430660Y654810D02*
X462660D01*
X430660D02*
Y670810D01*
X462660Y654810D02*
Y670810D01*
X137040Y672040D02*
X169040D01*
X137040Y656040D02*
X169040D01*
X137040D02*
Y672040D01*
X169040Y656040D02*
Y672040D01*
X430660Y645410D02*
X462660D01*
X430660Y629410D02*
X462660D01*
X430660D02*
Y645410D01*
X462660Y629410D02*
Y645410D01*
X137040Y646640D02*
X169040D01*
X137040Y630640D02*
X169040D01*
X137040D02*
Y646640D01*
X169040Y630640D02*
Y646640D01*
X680600Y539200D02*
X712600D01*
X680600Y555200D02*
X712600D01*
Y539200D02*
Y555200D01*
X680600Y539200D02*
Y555200D01*
Y513800D02*
X712600D01*
X680600Y529800D02*
X712600D01*
Y513800D02*
Y529800D01*
X680600Y513800D02*
Y529800D01*
X892560Y1318600D02*
Y1350600D01*
X876560Y1318600D02*
Y1350600D01*
X892560D01*
X876560Y1318600D02*
X892560D01*
X680600Y580600D02*
X712600D01*
X680600Y564600D02*
X712600D01*
X680600D02*
Y580600D01*
X712600Y564600D02*
Y580600D01*
X680600Y606000D02*
X712600D01*
X680600Y590000D02*
X712600D01*
X680600D02*
Y606000D01*
X712600Y590000D02*
Y606000D01*
X680600Y631400D02*
X712600D01*
X680600Y615400D02*
X712600D01*
X680600D02*
Y631400D01*
X712600Y615400D02*
Y631400D01*
X794690Y1168930D02*
X826690D01*
X794690Y1184930D02*
X826690D01*
Y1168930D02*
Y1184930D01*
X794690Y1168930D02*
Y1184930D01*
Y1215410D02*
X826690D01*
X794690Y1199410D02*
X826690D01*
X794690D02*
Y1215410D01*
X826690Y1199410D02*
Y1215410D01*
X794690Y1229890D02*
X826690D01*
X794690Y1245890D02*
X826690D01*
Y1229890D02*
Y1245890D01*
X794690Y1229890D02*
Y1245890D01*
Y1093490D02*
X826690D01*
X794690Y1077490D02*
X826690D01*
X794690D02*
Y1093490D01*
X826690Y1077490D02*
Y1093490D01*
X794690Y1107970D02*
X826690D01*
X794690Y1123970D02*
X826690D01*
Y1107970D02*
Y1123970D01*
X794690Y1107970D02*
Y1123970D01*
Y1138450D02*
X826690D01*
X794690Y1154450D02*
X826690D01*
Y1138450D02*
Y1154450D01*
X794690Y1138450D02*
Y1154450D01*
X561600Y1313520D02*
X577600D01*
X561600Y1345520D02*
X577600D01*
X561600Y1313520D02*
Y1345520D01*
X577600Y1313520D02*
Y1345520D01*
X333760Y302600D02*
Y334600D01*
X317760Y302600D02*
Y334600D01*
X333760D01*
X317760Y302600D02*
X333760D01*
X1136400Y668360D02*
Y700360D01*
X1120400Y668360D02*
Y700360D01*
X1136400D01*
X1120400Y668360D02*
X1136400D01*
X282960Y302600D02*
Y334600D01*
X266960Y302600D02*
Y334600D01*
X282960D01*
X266960Y302600D02*
X282960D01*
X932440Y1318600D02*
Y1350600D01*
X948440Y1318600D02*
Y1350600D01*
X932440Y1318600D02*
X948440D01*
X932440Y1350600D02*
X948440D01*
X308360Y302600D02*
Y334600D01*
X292360Y302600D02*
Y334600D01*
X308360D01*
X292360Y302600D02*
X308360D01*
X983240Y1318600D02*
Y1350600D01*
X999240Y1318600D02*
Y1350600D01*
X983240Y1318600D02*
X999240D01*
X983240Y1350600D02*
X999240D01*
X760480Y302600D02*
Y334600D01*
X744480Y302600D02*
Y334600D01*
X760480D01*
X744480Y302600D02*
X760480D01*
X735080D02*
Y334600D01*
X719080Y302600D02*
Y334600D01*
X735080D01*
X719080Y302600D02*
X735080D01*
X547120D02*
Y334600D01*
X531120Y302600D02*
Y334600D01*
X547120D01*
X531120Y302600D02*
X547120D01*
X521720D02*
Y334600D01*
X505720Y302600D02*
Y334600D01*
X521720D01*
X505720Y302600D02*
X521720D01*
X496320D02*
Y334600D01*
X480320Y302600D02*
Y334600D01*
X496320D01*
X480320Y302600D02*
X496320D01*
X881640D02*
Y334600D01*
X897640Y302600D02*
Y334600D01*
X881640Y302600D02*
X897640D01*
X881640Y334600D02*
X897640D01*
X587000Y1074760D02*
Y1106760D01*
X603000Y1074760D02*
Y1106760D01*
X587000Y1074760D02*
X603000D01*
X587000Y1106760D02*
X603000D01*
X684280Y302600D02*
Y334600D01*
X668280Y302600D02*
Y334600D01*
X684280D01*
X668280Y302600D02*
X684280D01*
X907040Y302600D02*
Y334600D01*
X923040Y302600D02*
Y334600D01*
X907040Y302600D02*
X923040D01*
X907040Y334600D02*
X923040D01*
X709680Y302600D02*
Y334600D01*
X693680Y302600D02*
Y334600D01*
X709680D01*
X693680Y302600D02*
X709680D01*
X536200Y1313520D02*
Y1345520D01*
X552200Y1313520D02*
Y1345520D01*
X536200Y1313520D02*
X552200D01*
X536200Y1345520D02*
X552200D01*
X948440Y302600D02*
Y334600D01*
X932440Y302600D02*
Y334600D01*
X948440D01*
X932440Y302600D02*
X948440D01*
X696620Y1098930D02*
X704620D01*
X696620Y1082930D02*
Y1098930D01*
X704620Y1082930D02*
Y1098930D01*
X696620Y1082930D02*
X704620D01*
X676300Y1098930D02*
X684300D01*
X676300Y1082930D02*
Y1098930D01*
X684300Y1082930D02*
Y1098930D01*
X676300Y1082930D02*
X684300D01*
X655980Y1098930D02*
X663980D01*
X655980Y1082930D02*
Y1098930D01*
X663980Y1082930D02*
Y1098930D01*
X655980Y1082930D02*
X663980D01*
X635660Y1098930D02*
X643660D01*
X635660Y1082930D02*
Y1098930D01*
X643660Y1082930D02*
Y1098930D01*
X635660Y1082930D02*
X643660D01*
X560520Y1200360D02*
X568520D01*
X560520Y1184360D02*
Y1200360D01*
X568520Y1184360D02*
Y1200360D01*
X560520Y1184360D02*
X568520D01*
X535120Y1200360D02*
X543120D01*
X535120Y1184360D02*
Y1200360D01*
X543120Y1184360D02*
Y1200360D01*
X535120Y1184360D02*
X543120D01*
X509720Y1200360D02*
X517720D01*
X509720Y1184360D02*
Y1200360D01*
X517720Y1184360D02*
Y1200360D01*
X509720Y1184360D02*
X517720D01*
X484320Y1200360D02*
X492320D01*
X484320Y1184360D02*
Y1200360D01*
X492320Y1184360D02*
Y1200360D01*
X484320Y1184360D02*
X492320D01*
X560520Y1240240D02*
X568520D01*
Y1256240D01*
X560520Y1240240D02*
Y1256240D01*
X568520D01*
X535120Y1240240D02*
X543120D01*
Y1256240D01*
X535120Y1240240D02*
Y1256240D01*
X543120D01*
X509720Y1240240D02*
X517720D01*
Y1256240D01*
X509720Y1240240D02*
Y1256240D01*
X517720D01*
X484320Y1240240D02*
X492320D01*
Y1256240D01*
X484320Y1240240D02*
Y1256240D01*
X492320D01*
X941520Y438360D02*
X949520D01*
X941520Y422360D02*
Y438360D01*
X949520Y422360D02*
Y438360D01*
X941520Y422360D02*
X949520D01*
X975387Y438360D02*
X983387D01*
X975387Y422360D02*
Y438360D01*
X983387Y422360D02*
Y438360D01*
X975387Y422360D02*
X983387D01*
X1009254Y438360D02*
X1017253D01*
X1009254Y422360D02*
Y438360D01*
X1017253Y422360D02*
Y438360D01*
X1009254Y422360D02*
X1017253D01*
X1043120Y438360D02*
X1051120D01*
X1043120Y422360D02*
Y438360D01*
X1051120Y422360D02*
Y438360D01*
X1043120Y422360D02*
X1051120D01*
X724160Y746400D02*
Y754400D01*
Y746400D02*
X740160D01*
X724160Y754400D02*
X740160D01*
Y746400D02*
Y754400D01*
X724160Y695600D02*
Y703600D01*
Y695600D02*
X740160D01*
X724160Y703600D02*
X740160D01*
Y695600D02*
Y703600D01*
X999130Y850600D02*
X1007130D01*
X999130Y834600D02*
Y850600D01*
X1007130Y834600D02*
Y850600D01*
X999130Y834600D02*
X1007130D01*
X1049930Y850600D02*
X1057930D01*
X1049930Y834600D02*
Y850600D01*
X1057930Y834600D02*
Y850600D01*
X1049930Y834600D02*
X1057930D01*
X22040Y396960D02*
X30040D01*
Y412960D01*
X22040Y396960D02*
Y412960D01*
X30040D01*
X54213Y396960D02*
X62213D01*
Y412960D01*
X54213Y396960D02*
Y412960D01*
X62213D01*
X86387D02*
X94387D01*
X86387Y396960D02*
Y412960D01*
X94387Y396960D02*
Y412960D01*
X86387Y396960D02*
X94387D01*
X118560Y412960D02*
X126560D01*
X118560Y396960D02*
Y412960D01*
X126560Y396960D02*
Y412960D01*
X118560Y396960D02*
X126560D01*
X1159960Y1021800D02*
X1167960D01*
Y1037800D01*
X1159960Y1021800D02*
Y1037800D01*
X1167960D01*
X1127787Y1021800D02*
X1135787D01*
Y1037800D01*
X1127787Y1021800D02*
Y1037800D01*
X1135787D01*
X1095613Y1021800D02*
X1103613D01*
Y1037800D01*
X1095613Y1021800D02*
Y1037800D01*
X1103613D01*
X684280Y1025800D02*
Y1033800D01*
X668280D02*
X684280D01*
X668280Y1025800D02*
X684280D01*
X668280D02*
Y1033800D01*
Y1005480D02*
Y1013480D01*
Y1005480D02*
X684280D01*
X668280Y1013480D02*
X684280D01*
Y1005480D02*
Y1013480D01*
M02*
