%MOIN*%
%OFA0B0*%
%FSLAX44Y44*%
%IPPOS*%
%LPD*%
%ADD11C,0.005*%
%ADD22C,0.005*%
G01*
G75*
G36*
X00079600Y00000761D02*
X00079594Y00000771D01*
X00079587Y00000779D01*
X00079580Y00000788D01*
X00079574Y00000794D01*
X00079568Y00000799D01*
X00079565Y00000803D01*
X00079564Y00000803D01*
X00079564Y00000804D01*
X00079552Y00000813D01*
X00079541Y00000822D01*
X00079529Y00000830D01*
X00079519Y00000836D01*
X00079509Y00000841D01*
X00079505Y00000843D01*
X00079502Y00000845D01*
X00079499Y00000847D01*
X00079497Y00000848D01*
X00079496Y00000848D01*
X00079495Y00000848D01*
X00079495Y00000895D01*
X00079503Y00000891D01*
X00079512Y00000887D01*
X00079520Y00000884D01*
X00079528Y00000879D01*
X00079534Y00000876D01*
X00079540Y00000873D01*
X00079543Y00000871D01*
X00079544Y00000870D01*
X00079544Y00000870D01*
X00079554Y00000864D01*
X00079563Y00000858D01*
X00079571Y00000853D01*
X00079577Y00000847D01*
X00079582Y00000843D01*
X00079586Y00000840D01*
X00079589Y00000838D01*
X00079589Y00000837D01*
X00079589Y00001138D01*
X00079637Y00001138D01*
X00079637Y00000752D01*
X00079606Y00000752D01*
X00079600Y00000761D01*
D02*
G37*
G36*
X00079004Y00000761D02*
X00078997Y00000771D01*
X00078990Y00000779D01*
X00078983Y00000788D01*
X00078977Y00000794D01*
X00078972Y00000799D01*
X00078968Y00000803D01*
X00078967Y00000803D01*
X00078967Y00000804D01*
X00078956Y00000813D01*
X00078944Y00000822D01*
X00078932Y00000830D01*
X00078922Y00000836D01*
X00078912Y00000841D01*
X00078908Y00000843D01*
X00078905Y00000845D01*
X00078903Y00000847D01*
X00078900Y00000848D01*
X00078899Y00000848D01*
X00078898Y00000848D01*
X00078898Y00000895D01*
X00078907Y00000891D01*
X00078915Y00000887D01*
X00078924Y00000884D01*
X00078931Y00000879D01*
X00078938Y00000876D01*
X00078943Y00000873D01*
X00078946Y00000871D01*
X00078947Y00000870D01*
X00078948Y00000870D01*
X00078958Y00000864D01*
X00078966Y00000858D01*
X00078974Y00000853D01*
X00078980Y00000847D01*
X00078986Y00000843D01*
X00078990Y00000840D01*
X00078992Y00000838D01*
X00078993Y00000837D01*
X00078993Y00001138D01*
X00079040Y00001138D01*
X00079040Y00000752D01*
X00079009Y00000752D01*
X00079004Y00000761D01*
D02*
G37*
G36*
X00078169Y00001138D02*
X00078220Y00001138D01*
X00078220Y00000964D01*
X00078400Y00000964D01*
X00078400Y00000919D01*
X00078220Y00000919D01*
X00078220Y00000799D01*
X00078428Y00000799D01*
X00078428Y00000754D01*
X00078169Y00000754D01*
X00078169Y00001138D01*
D02*
G37*
G36*
X00079130Y00001244D02*
X00079442Y00001244D01*
X00079442Y00001211D01*
X00079130Y00001211D01*
X00079130Y00001244D01*
D02*
G37*
G36*
X00078494Y00001138D02*
X00078632Y00001138D01*
X00078645Y00001137D01*
X00078657Y00001137D01*
X00078667Y00001136D01*
X00078676Y00001135D01*
X00078684Y00001133D01*
X00078689Y00001133D01*
X00078693Y00001132D01*
X00078694Y00001132D01*
X00078704Y00001129D01*
X00078712Y00001126D01*
X00078720Y00001123D01*
X00078726Y00001120D01*
X00078732Y00001117D01*
X00078736Y00001115D01*
X00078739Y00001113D01*
X00078739Y00001113D01*
X00078746Y00001108D01*
X00078753Y00001102D01*
X00078759Y00001096D01*
X00078764Y00001091D01*
X00078769Y00001085D01*
X00078772Y00001081D01*
X00078774Y00001079D01*
X00078774Y00001078D01*
X00078780Y00001069D01*
X00078786Y00001060D01*
X00078790Y00001050D01*
X00078794Y00001041D01*
X00078797Y00001033D01*
X00078799Y00001027D01*
X00078800Y00001025D01*
X00078800Y00001023D01*
X00078801Y00001022D01*
X00078801Y00001022D01*
X00078804Y00001009D01*
X00078807Y00000995D01*
X00078809Y00000982D01*
X00078810Y00000970D01*
X00078811Y00000960D01*
X00078811Y00000955D01*
X00078811Y00000951D01*
X00078811Y00000948D01*
X00078811Y00000946D01*
X00078811Y00000944D01*
X00078811Y00000944D01*
X00078811Y00000925D01*
X00078809Y00000908D01*
X00078807Y00000893D01*
X00078805Y00000886D01*
X00078804Y00000879D01*
X00078802Y00000874D01*
X00078801Y00000868D01*
X00078800Y00000864D01*
X00078798Y00000860D01*
X00078797Y00000857D01*
X00078797Y00000855D01*
X00078796Y00000854D01*
X00078796Y00000853D01*
X00078790Y00000838D01*
X00078783Y00000826D01*
X00078775Y00000815D01*
X00078767Y00000805D01*
X00078761Y00000798D01*
X00078756Y00000792D01*
X00078752Y00000788D01*
X00078751Y00000787D01*
X00078750Y00000787D01*
X00078741Y00000780D01*
X00078732Y00000774D01*
X00078722Y00000769D01*
X00078714Y00000766D01*
X00078706Y00000763D01*
X00078700Y00000761D01*
X00078697Y00000760D01*
X00078696Y00000760D01*
X00078695Y00000760D01*
X00078694Y00000760D01*
X00078685Y00000758D01*
X00078674Y00000756D01*
X00078662Y00000755D01*
X00078652Y00000754D01*
X00078642Y00000754D01*
X00078494Y00000754D01*
X00078494Y00001138D01*
D02*
G37*
G36*
X00004658Y00001244D02*
X00004970Y00001244D01*
X00004970Y00001211D01*
X00004658Y00001211D01*
X00004658Y00001244D01*
D02*
G37*
G36*
X00004494Y00000753D02*
X00004479Y00000756D01*
X00004466Y00000760D01*
X00004455Y00000765D01*
X00004446Y00000770D01*
X00004442Y00000772D01*
X00004439Y00000774D01*
X00004437Y00000776D01*
X00004435Y00000777D01*
X00004434Y00000778D01*
X00004434Y00000778D01*
X00004423Y00000789D01*
X00004415Y00000800D01*
X00004408Y00000813D01*
X00004403Y00000824D01*
X00004399Y00000835D01*
X00004398Y00000840D01*
X00004397Y00000844D01*
X00004396Y00000847D01*
X00004396Y00000849D01*
X00004395Y00000851D01*
X00004395Y00000851D01*
X00004442Y00000860D01*
X00004445Y00000847D01*
X00004448Y00000837D01*
X00004452Y00000828D01*
X00004456Y00000821D01*
X00004459Y00000815D01*
X00004462Y00000811D01*
X00004465Y00000809D01*
X00004465Y00000808D01*
X00004473Y00000802D01*
X00004480Y00000798D01*
X00004488Y00000795D01*
X00004496Y00000793D01*
X00004501Y00000792D01*
X00004507Y00000791D01*
X00004511Y00000791D01*
X00004521Y00000791D01*
X00004530Y00000793D01*
X00004538Y00000796D01*
X00004544Y00000799D01*
X00004549Y00000802D01*
X00004554Y00000805D01*
X00004556Y00000807D01*
X00004556Y00000808D01*
X00004562Y00000815D01*
X00004566Y00000822D01*
X00004570Y00000829D01*
X00004572Y00000836D01*
X00004573Y00000842D01*
X00004574Y00000847D01*
X00004574Y00000850D01*
X00004574Y00000850D01*
X00004574Y00000851D01*
X00004573Y00000862D01*
X00004570Y00000872D01*
X00004566Y00000881D01*
X00004562Y00000887D01*
X00004557Y00000892D01*
X00004554Y00000896D01*
X00004551Y00000899D01*
X00004549Y00000899D01*
X00004540Y00000905D01*
X00004531Y00000908D01*
X00004522Y00000911D01*
X00004514Y00000913D01*
X00004506Y00000914D01*
X00004501Y00000915D01*
X00004493Y00000915D01*
X00004491Y00000914D01*
X00004488Y00000914D01*
X00004483Y00000955D01*
X00004490Y00000954D01*
X00004496Y00000953D01*
X00004502Y00000952D01*
X00004507Y00000951D01*
X00004511Y00000951D01*
X00004516Y00000951D01*
X00004528Y00000952D01*
X00004538Y00000954D01*
X00004547Y00000957D01*
X00004555Y00000961D01*
X00004561Y00000965D01*
X00004566Y00000968D01*
X00004568Y00000971D01*
X00004569Y00000972D01*
X00004576Y00000980D01*
X00004582Y00000989D01*
X00004586Y00000998D01*
X00004588Y00001006D01*
X00004590Y00001014D01*
X00004590Y00001020D01*
X00004591Y00001022D01*
X00004591Y00001024D01*
X00004591Y00001025D01*
X00004591Y00001025D01*
X00004590Y00001037D01*
X00004587Y00001049D01*
X00004584Y00001058D01*
X00004580Y00001067D01*
X00004575Y00001074D01*
X00004572Y00001078D01*
X00004569Y00001081D01*
X00004568Y00001082D01*
X00004559Y00001090D01*
X00004550Y00001096D01*
X00004541Y00001099D01*
X00004531Y00001102D01*
X00004524Y00001104D01*
X00004518Y00001105D01*
X00004516Y00001105D01*
X00004512Y00001105D01*
X00004502Y00001105D01*
X00004493Y00001102D01*
X00004485Y00001099D01*
X00004478Y00001096D01*
X00004472Y00001093D01*
X00004468Y00001091D01*
X00004466Y00001088D01*
X00004465Y00001088D01*
X00004458Y00001080D01*
X00004452Y00001071D01*
X00004448Y00001061D01*
X00004444Y00001052D01*
X00004441Y00001043D01*
X00004439Y00001036D01*
X00004438Y00001034D01*
X00004438Y00001032D01*
X00004438Y00001030D01*
X00004438Y00001030D01*
X00004390Y00001036D01*
X00004392Y00001045D01*
X00004393Y00001053D01*
X00004399Y00001068D01*
X00004404Y00001082D01*
X00004411Y00001094D01*
X00004414Y00001098D01*
X00004418Y00001102D01*
X00004421Y00001106D01*
X00004423Y00001109D01*
X00004425Y00001112D01*
X00004427Y00001113D01*
X00004428Y00001114D01*
X00004428Y00001115D01*
X00004435Y00001120D01*
X00004442Y00001125D01*
X00004448Y00001129D01*
X00004455Y00001132D01*
X00004469Y00001137D01*
X00004483Y00001141D01*
X00004489Y00001142D01*
X00004494Y00001143D01*
X00004499Y00001143D01*
X00004504Y00001144D01*
X00004507Y00001144D01*
X00004512Y00001144D01*
X00004522Y00001144D01*
X00004532Y00001143D01*
X00004541Y00001142D01*
X00004550Y00001139D01*
X00004558Y00001136D01*
X00004566Y00001133D01*
X00004573Y00001130D01*
X00004579Y00001127D01*
X00004585Y00001124D01*
X00004590Y00001121D01*
X00004595Y00001118D01*
X00004598Y00001115D01*
X00004601Y00001113D01*
X00004603Y00001112D01*
X00004604Y00001111D01*
X00004604Y00001110D01*
X00004611Y00001103D01*
X00004617Y00001096D01*
X00004621Y00001089D01*
X00004625Y00001082D01*
X00004630Y00001075D01*
X00004632Y00001067D01*
X00004637Y00001054D01*
X00004638Y00001048D01*
X00004640Y00001042D01*
X00004640Y00001037D01*
X00004641Y00001033D01*
X00004641Y00001029D01*
X00004641Y00001027D01*
X00004641Y00001025D01*
X00004641Y00001025D01*
X00004641Y00001011D01*
X00004638Y00000999D01*
X00004635Y00000988D01*
X00004632Y00000979D01*
X00004628Y00000972D01*
X00004625Y00000967D01*
X00004623Y00000964D01*
X00004622Y00000962D01*
X00004614Y00000954D01*
X00004606Y00000947D01*
X00004597Y00000941D01*
X00004589Y00000937D01*
X00004581Y00000933D01*
X00004575Y00000932D01*
X00004573Y00000930D01*
X00004571Y00000930D01*
X00004570Y00000930D01*
X00004569Y00000930D01*
X00004579Y00000925D01*
X00004587Y00000919D01*
X00004593Y00000914D01*
X00004599Y00000909D01*
X00004603Y00000904D01*
X00004607Y00000900D01*
X00004609Y00000898D01*
X00004609Y00000897D01*
X00004614Y00000889D01*
X00004617Y00000881D01*
X00004619Y00000874D01*
X00004621Y00000867D01*
X00004622Y00000861D01*
X00004623Y00000856D01*
X00004623Y00000853D01*
X00004623Y00000852D01*
X00004622Y00000842D01*
X00004620Y00000833D01*
X00004618Y00000825D01*
X00004616Y00000817D01*
X00004613Y00000812D01*
X00004611Y00000807D01*
X00004609Y00000804D01*
X00004609Y00000803D01*
X00004603Y00000795D01*
X00004596Y00000787D01*
X00004589Y00000781D01*
X00004583Y00000775D01*
X00004577Y00000771D01*
X00004572Y00000768D01*
X00004569Y00000767D01*
X00004568Y00000766D01*
X00004568Y00000766D01*
X00004558Y00000761D01*
X00004548Y00000758D01*
X00004538Y00000755D01*
X00004529Y00000754D01*
X00004521Y00000752D01*
X00004516Y00000752D01*
X00004502Y00000752D01*
X00004494Y00000753D01*
D02*
G37*
G36*
X00005128Y00000761D02*
X00005122Y00000771D01*
X00005115Y00000779D01*
X00005108Y00000788D01*
X00005101Y00000794D01*
X00005096Y00000799D01*
X00005092Y00000803D01*
X00005092Y00000803D01*
X00005091Y00000804D01*
X00005080Y00000813D01*
X00005068Y00000822D01*
X00005057Y00000830D01*
X00005046Y00000836D01*
X00005037Y00000841D01*
X00005033Y00000843D01*
X00005029Y00000845D01*
X00005027Y00000847D01*
X00005024Y00000848D01*
X00005023Y00000848D01*
X00005023Y00000848D01*
X00005023Y00000895D01*
X00005031Y00000891D01*
X00005040Y00000887D01*
X00005048Y00000884D01*
X00005055Y00000879D01*
X00005062Y00000876D01*
X00005067Y00000873D01*
X00005071Y00000871D01*
X00005071Y00000870D01*
X00005072Y00000870D01*
X00005082Y00000864D01*
X00005091Y00000858D01*
X00005098Y00000853D01*
X00005105Y00000847D01*
X00005110Y00000843D01*
X00005114Y00000840D01*
X00005116Y00000838D01*
X00005117Y00000837D01*
X00005117Y00001138D01*
X00005164Y00001138D01*
X00005164Y00000752D01*
X00005133Y00000752D01*
X00005128Y00000761D01*
D02*
G37*
G36*
X00004022Y00001138D02*
X00004160Y00001138D01*
X00004173Y00001137D01*
X00004184Y00001137D01*
X00004195Y00001136D01*
X00004204Y00001135D01*
X00004211Y00001133D01*
X00004217Y00001133D01*
X00004220Y00001132D01*
X00004221Y00001132D01*
X00004231Y00001129D01*
X00004240Y00001126D01*
X00004248Y00001123D01*
X00004254Y00001120D01*
X00004259Y00001117D01*
X00004263Y00001115D01*
X00004266Y00001113D01*
X00004267Y00001113D01*
X00004274Y00001108D01*
X00004280Y00001102D01*
X00004287Y00001096D01*
X00004291Y00001091D01*
X00004296Y00001085D01*
X00004299Y00001081D01*
X00004301Y00001079D01*
X00004302Y00001078D01*
X00004308Y00001069D01*
X00004313Y00001060D01*
X00004318Y00001050D01*
X00004321Y00001041D01*
X00004324Y00001033D01*
X00004327Y00001027D01*
X00004327Y00001025D01*
X00004328Y00001023D01*
X00004328Y00001022D01*
X00004328Y00001022D01*
X00004332Y00001009D01*
X00004334Y00000995D01*
X00004337Y00000982D01*
X00004338Y00000970D01*
X00004338Y00000960D01*
X00004338Y00000955D01*
X00004339Y00000951D01*
X00004339Y00000948D01*
X00004339Y00000946D01*
X00004339Y00000944D01*
X00004339Y00000944D01*
X00004338Y00000925D01*
X00004337Y00000908D01*
X00004334Y00000893D01*
X00004332Y00000886D01*
X00004331Y00000879D01*
X00004330Y00000874D01*
X00004328Y00000868D01*
X00004327Y00000864D01*
X00004326Y00000860D01*
X00004325Y00000857D01*
X00004324Y00000855D01*
X00004324Y00000854D01*
X00004324Y00000853D01*
X00004317Y00000838D01*
X00004310Y00000826D01*
X00004303Y00000815D01*
X00004295Y00000805D01*
X00004289Y00000798D01*
X00004283Y00000792D01*
X00004279Y00000788D01*
X00004279Y00000787D01*
X00004278Y00000787D01*
X00004269Y00000780D01*
X00004259Y00000774D01*
X00004250Y00000769D01*
X00004241Y00000766D01*
X00004234Y00000763D01*
X00004227Y00000761D01*
X00004225Y00000760D01*
X00004224Y00000760D01*
X00004222Y00000760D01*
X00004222Y00000760D01*
X00004212Y00000758D01*
X00004201Y00000756D01*
X00004190Y00000755D01*
X00004179Y00000754D01*
X00004169Y00000754D01*
X00004022Y00000754D01*
X00004022Y00001138D01*
D02*
G37*
G36*
X00003697Y00001138D02*
X00003747Y00001138D01*
X00003747Y00000964D01*
X00003928Y00000964D01*
X00003928Y00000919D01*
X00003747Y00000919D01*
X00003747Y00000799D01*
X00003956Y00000799D01*
X00003956Y00000754D01*
X00003697Y00000754D01*
X00003697Y00001138D01*
D02*
G37*
%LPC*%
G36*
X00078545Y00000799D02*
X00078625Y00000799D01*
X00078641Y00000799D01*
X00078655Y00000800D01*
X00078666Y00000801D01*
X00078675Y00000803D01*
X00078682Y00000805D01*
X00078687Y00000806D01*
X00078690Y00000806D01*
X00078691Y00000807D01*
X00078701Y00000812D01*
X00078710Y00000819D01*
X00078718Y00000826D01*
X00078725Y00000833D01*
X00078731Y00000840D01*
X00078735Y00000845D01*
X00078737Y00000848D01*
X00078738Y00000850D01*
X00078739Y00000850D01*
X00078739Y00000851D01*
X00078742Y00000857D01*
X00078745Y00000864D01*
X00078750Y00000879D01*
X00078754Y00000894D01*
X00078756Y00000909D01*
X00078757Y00000916D01*
X00078757Y00000922D01*
X00078758Y00000928D01*
X00078759Y00000933D01*
X00078759Y00000937D01*
X00078759Y00000940D01*
X00078759Y00000943D01*
X00078759Y00000943D01*
X00078758Y00000959D01*
X00078757Y00000973D01*
X00078755Y00000986D01*
X00078753Y00000997D01*
X00078752Y00001006D01*
X00078750Y00001009D01*
X00078750Y00001012D01*
X00078749Y00001015D01*
X00078749Y00001016D01*
X00078748Y00001017D01*
X00078748Y00001017D01*
X00078744Y00001028D01*
X00078739Y00001038D01*
X00078735Y00001046D01*
X00078731Y00001053D01*
X00078726Y00001058D01*
X00078723Y00001063D01*
X00078721Y00001065D01*
X00078720Y00001066D01*
X00078715Y00001071D01*
X00078710Y00001075D01*
X00078704Y00001078D01*
X00078698Y00001081D01*
X00078693Y00001083D01*
X00078689Y00001085D01*
X00078687Y00001085D01*
X00078685Y00001086D01*
X00078677Y00001088D01*
X00078667Y00001090D01*
X00078657Y00001091D01*
X00078648Y00001092D01*
X00078639Y00001092D01*
X00078633Y00001093D01*
X00078545Y00001093D01*
X00078545Y00000799D01*
D02*
G37*
G36*
X00004073Y00000799D02*
X00004153Y00000799D01*
X00004169Y00000799D01*
X00004182Y00000800D01*
X00004193Y00000801D01*
X00004203Y00000803D01*
X00004210Y00000805D01*
X00004214Y00000806D01*
X00004217Y00000806D01*
X00004218Y00000807D01*
X00004228Y00000812D01*
X00004238Y00000819D01*
X00004246Y00000826D01*
X00004253Y00000833D01*
X00004259Y00000840D01*
X00004263Y00000845D01*
X00004265Y00000848D01*
X00004265Y00000850D01*
X00004266Y00000850D01*
X00004266Y00000851D01*
X00004270Y00000857D01*
X00004273Y00000864D01*
X00004278Y00000879D01*
X00004282Y00000894D01*
X00004284Y00000909D01*
X00004284Y00000916D01*
X00004285Y00000922D01*
X00004286Y00000928D01*
X00004286Y00000933D01*
X00004286Y00000937D01*
X00004286Y00000940D01*
X00004286Y00000943D01*
X00004286Y00000943D01*
X00004286Y00000959D01*
X00004284Y00000973D01*
X00004283Y00000986D01*
X00004281Y00000997D01*
X00004279Y00001006D01*
X00004278Y00001009D01*
X00004277Y00001012D01*
X00004277Y00001015D01*
X00004276Y00001016D01*
X00004276Y00001017D01*
X00004276Y00001017D01*
X00004272Y00001028D01*
X00004267Y00001038D01*
X00004262Y00001046D01*
X00004258Y00001053D01*
X00004254Y00001058D01*
X00004250Y00001063D01*
X00004248Y00001065D01*
X00004248Y00001066D01*
X00004242Y00001071D01*
X00004237Y00001075D01*
X00004231Y00001078D01*
X00004225Y00001081D01*
X00004221Y00001083D01*
X00004217Y00001085D01*
X00004214Y00001085D01*
X00004213Y00001086D01*
X00004204Y00001088D01*
X00004195Y00001090D01*
X00004185Y00001091D01*
X00004176Y00001092D01*
X00004167Y00001092D01*
X00004160Y00001093D01*
X00004073Y00001093D01*
X00004073Y00000799D01*
D02*
G37*
%LPD*%
D11*
X00003627Y00001968D02*
G03*
X00003627Y00001968I00000310D01*
G01*
X00078099Y00001968D02*
G03*
X00078099Y00001968I00000310D01*
G01*
G04 next file*
G04 Layer_Color=32896*
G04 skipping 71
G01*
G75*
G36*
X00002745Y00085065D02*
X00002751Y00085055D01*
X00002758Y00085046D01*
X00002765Y00085038D01*
X00002772Y00085032D01*
X00002777Y00085026D01*
X00002781Y00085023D01*
X00002781Y00085022D01*
X00002782Y00085022D01*
X00002793Y00085012D01*
X00002805Y00085004D01*
X00002816Y00084996D01*
X00002827Y00084990D01*
X00002836Y00084984D01*
X00002840Y00084983D01*
X00002844Y00084981D01*
X00002846Y00084979D01*
X00002849Y00084978D01*
X00002850Y00084977D01*
X00002850Y00084977D01*
X00002850Y00084931D01*
X00002842Y00084935D01*
X00002833Y00084939D01*
X00002825Y00084942D01*
X00002818Y00084946D01*
X00002811Y00084950D01*
X00002806Y00084953D01*
X00002802Y00084955D01*
X00002802Y00084956D01*
X00002801Y00084956D01*
X00002791Y00084962D01*
X00002782Y00084968D01*
X00002775Y00084973D01*
X00002768Y00084979D01*
X00002763Y00084983D01*
X00002759Y00084986D01*
X00002757Y00084988D01*
X00002756Y00084988D01*
X00002756Y00084688D01*
X00002709Y00084688D01*
X00002709Y00085074D01*
X00002740Y00085074D01*
X00002745Y00085065D01*
D02*
G37*
G36*
X00003342Y00085065D02*
X00003348Y00085055D01*
X00003355Y00085046D01*
X00003362Y00085038D01*
X00003369Y00085032D01*
X00003374Y00085026D01*
X00003377Y00085023D01*
X00003378Y00085022D01*
X00003379Y00085022D01*
X00003390Y00085012D01*
X00003401Y00085004D01*
X00003413Y00084996D01*
X00003424Y00084990D01*
X00003433Y00084984D01*
X00003437Y00084983D01*
X00003441Y00084981D01*
X00003443Y00084979D01*
X00003445Y00084978D01*
X00003446Y00084977D01*
X00003447Y00084977D01*
X00003447Y00084931D01*
X00003439Y00084935D01*
X00003430Y00084939D01*
X00003422Y00084942D01*
X00003414Y00084946D01*
X00003408Y00084950D01*
X00003403Y00084953D01*
X00003399Y00084955D01*
X00003398Y00084956D01*
X00003398Y00084956D01*
X00003388Y00084962D01*
X00003379Y00084968D01*
X00003372Y00084973D01*
X00003365Y00084979D01*
X00003360Y00084983D01*
X00003356Y00084986D01*
X00003353Y00084988D01*
X00003353Y00084988D01*
X00003353Y00084688D01*
X00003305Y00084688D01*
X00003305Y00085074D01*
X00003336Y00085074D01*
X00003342Y00085065D01*
D02*
G37*
G36*
X00004177Y00084688D02*
X00004126Y00084688D01*
X00004126Y00084862D01*
X00003945Y00084862D01*
X00003945Y00084907D01*
X00004126Y00084907D01*
X00004126Y00085027D01*
X00003917Y00085027D01*
X00003917Y00085072D01*
X00004177Y00085072D01*
X00004177Y00084688D01*
D02*
G37*
G36*
X00003215Y00084581D02*
X00002903Y00084581D01*
X00002903Y00084615D01*
X00003215Y00084615D01*
X00003215Y00084581D01*
D02*
G37*
G36*
X00003851Y00084688D02*
X00003713Y00084688D01*
X00003700Y00084688D01*
X00003689Y00084689D01*
X00003678Y00084690D01*
X00003669Y00084691D01*
X00003662Y00084692D01*
X00003656Y00084693D01*
X00003653Y00084694D01*
X00003652Y00084694D01*
X00003642Y00084697D01*
X00003633Y00084700D01*
X00003625Y00084703D01*
X00003619Y00084706D01*
X00003614Y00084709D01*
X00003610Y00084711D01*
X00003607Y00084712D01*
X00003606Y00084713D01*
X00003599Y00084718D01*
X00003593Y00084724D01*
X00003586Y00084730D01*
X00003582Y00084735D01*
X00003577Y00084740D01*
X00003574Y00084745D01*
X00003572Y00084747D01*
X00003571Y00084748D01*
X00003565Y00084757D01*
X00003560Y00084766D01*
X00003555Y00084776D01*
X00003552Y00084784D01*
X00003549Y00084792D01*
X00003546Y00084798D01*
X00003546Y00084801D01*
X00003545Y00084802D01*
X00003545Y00084804D01*
X00003545Y00084804D01*
X00003541Y00084817D01*
X00003539Y00084831D01*
X00003537Y00084844D01*
X00003535Y00084856D01*
X00003535Y00084866D01*
X00003535Y00084871D01*
X00003534Y00084874D01*
X00003534Y00084878D01*
X00003534Y00084880D01*
X00003534Y00084881D01*
X00003534Y00084882D01*
X00003535Y00084901D01*
X00003537Y00084918D01*
X00003539Y00084933D01*
X00003541Y00084940D01*
X00003542Y00084946D01*
X00003543Y00084952D01*
X00003545Y00084957D01*
X00003546Y00084962D01*
X00003547Y00084966D01*
X00003548Y00084969D01*
X00003549Y00084971D01*
X00003549Y00084972D01*
X00003549Y00084973D01*
X00003556Y00084987D01*
X00003563Y00085000D01*
X00003570Y00085011D01*
X00003578Y00085021D01*
X00003585Y00085028D01*
X00003590Y00085034D01*
X00003594Y00085038D01*
X00003594Y00085039D01*
X00003595Y00085039D01*
X00003604Y00085046D01*
X00003614Y00085052D01*
X00003623Y00085056D01*
X00003632Y00085060D01*
X00003639Y00085063D01*
X00003646Y00085065D01*
X00003648Y00085066D01*
X00003649Y00085066D01*
X00003651Y00085066D01*
X00003651Y00085066D01*
X00003661Y00085068D01*
X00003672Y00085070D01*
X00003683Y00085071D01*
X00003694Y00085072D01*
X00003704Y00085072D01*
X00003851Y00085072D01*
X00003851Y00084688D01*
D02*
G37*
G36*
X00077688Y00084581D02*
X00077375Y00084581D01*
X00077375Y00084615D01*
X00077688Y00084615D01*
X00077688Y00084581D01*
D02*
G37*
G36*
X00077852Y00085073D02*
X00077866Y00085070D01*
X00077880Y00085066D01*
X00077891Y00085061D01*
X00077900Y00085056D01*
X00077903Y00085053D01*
X00077906Y00085052D01*
X00077909Y00085050D01*
X00077911Y00085049D01*
X00077911Y00085048D01*
X00077912Y00085048D01*
X00077922Y00085037D01*
X00077931Y00085025D01*
X00077938Y00085013D01*
X00077942Y00085001D01*
X00077946Y00084991D01*
X00077948Y00084986D01*
X00077949Y00084982D01*
X00077949Y00084979D01*
X00077950Y00084977D01*
X00077950Y00084975D01*
X00077950Y00084974D01*
X00077903Y00084966D01*
X00077901Y00084979D01*
X00077897Y00084989D01*
X00077894Y00084998D01*
X00077890Y00085005D01*
X00077886Y00085011D01*
X00077883Y00085015D01*
X00077881Y00085017D01*
X00077880Y00085018D01*
X00077873Y00085024D01*
X00077865Y00085028D01*
X00077857Y00085031D01*
X00077850Y00085033D01*
X00077844Y00085034D01*
X00077839Y00085035D01*
X00077834Y00085035D01*
X00077824Y00085035D01*
X00077815Y00085032D01*
X00077808Y00085030D01*
X00077801Y00085026D01*
X00077796Y00085024D01*
X00077792Y00085021D01*
X00077790Y00085018D01*
X00077789Y00085018D01*
X00077783Y00085011D01*
X00077779Y00085004D01*
X00077776Y00084997D01*
X00077774Y00084990D01*
X00077773Y00084984D01*
X00077771Y00084979D01*
X00077771Y00084976D01*
X00077771Y00084976D01*
X00077771Y00084975D01*
X00077773Y00084963D01*
X00077776Y00084953D01*
X00077779Y00084945D01*
X00077784Y00084939D01*
X00077788Y00084933D01*
X00077792Y00084929D01*
X00077795Y00084927D01*
X00077796Y00084926D01*
X00077805Y00084921D01*
X00077815Y00084918D01*
X00077824Y00084915D01*
X00077832Y00084913D01*
X00077839Y00084912D01*
X00077845Y00084911D01*
X00077852Y00084911D01*
X00077855Y00084912D01*
X00077857Y00084912D01*
X00077863Y00084870D01*
X00077856Y00084872D01*
X00077849Y00084873D01*
X00077843Y00084874D01*
X00077839Y00084874D01*
X00077835Y00084875D01*
X00077829Y00084875D01*
X00077818Y00084874D01*
X00077808Y00084871D01*
X00077798Y00084869D01*
X00077791Y00084864D01*
X00077784Y00084860D01*
X00077780Y00084857D01*
X00077777Y00084855D01*
X00077776Y00084854D01*
X00077769Y00084846D01*
X00077764Y00084837D01*
X00077760Y00084828D01*
X00077757Y00084819D01*
X00077756Y00084812D01*
X00077755Y00084806D01*
X00077755Y00084804D01*
X00077755Y00084802D01*
X00077755Y00084801D01*
X00077755Y00084801D01*
X00077756Y00084788D01*
X00077758Y00084777D01*
X00077762Y00084767D01*
X00077766Y00084759D01*
X00077770Y00084752D01*
X00077774Y00084747D01*
X00077776Y00084745D01*
X00077777Y00084743D01*
X00077786Y00084736D01*
X00077795Y00084730D01*
X00077805Y00084726D01*
X00077814Y00084723D01*
X00077822Y00084722D01*
X00077828Y00084721D01*
X00077830Y00084721D01*
X00077833Y00084721D01*
X00077843Y00084721D01*
X00077853Y00084723D01*
X00077861Y00084726D01*
X00077867Y00084729D01*
X00077873Y00084733D01*
X00077877Y00084735D01*
X00077880Y00084737D01*
X00077881Y00084738D01*
X00077887Y00084746D01*
X00077893Y00084754D01*
X00077898Y00084764D01*
X00077901Y00084774D01*
X00077904Y00084783D01*
X00077906Y00084790D01*
X00077907Y00084792D01*
X00077907Y00084794D01*
X00077908Y00084795D01*
X00077908Y00084796D01*
X00077955Y00084790D01*
X00077954Y00084781D01*
X00077952Y00084773D01*
X00077947Y00084757D01*
X00077941Y00084744D01*
X00077934Y00084732D01*
X00077931Y00084728D01*
X00077928Y00084723D01*
X00077925Y00084720D01*
X00077922Y00084716D01*
X00077920Y00084714D01*
X00077918Y00084712D01*
X00077918Y00084712D01*
X00077917Y00084711D01*
X00077911Y00084706D01*
X00077904Y00084701D01*
X00077897Y00084697D01*
X00077890Y00084694D01*
X00077876Y00084688D01*
X00077863Y00084685D01*
X00077857Y00084684D01*
X00077851Y00084683D01*
X00077846Y00084682D01*
X00077842Y00084682D01*
X00077838Y00084681D01*
X00077833Y00084681D01*
X00077824Y00084682D01*
X00077814Y00084683D01*
X00077804Y00084684D01*
X00077795Y00084687D01*
X00077787Y00084690D01*
X00077780Y00084692D01*
X00077773Y00084695D01*
X00077766Y00084699D01*
X00077761Y00084702D01*
X00077756Y00084705D01*
X00077751Y00084708D01*
X00077747Y00084711D01*
X00077745Y00084713D01*
X00077743Y00084714D01*
X00077742Y00084715D01*
X00077741Y00084716D01*
X00077735Y00084723D01*
X00077729Y00084730D01*
X00077724Y00084737D01*
X00077720Y00084744D01*
X00077716Y00084751D01*
X00077713Y00084759D01*
X00077709Y00084772D01*
X00077707Y00084778D01*
X00077706Y00084784D01*
X00077705Y00084788D01*
X00077705Y00084793D01*
X00077704Y00084797D01*
X00077704Y00084799D01*
X00077704Y00084801D01*
X00077704Y00084801D01*
X00077705Y00084815D01*
X00077707Y00084827D01*
X00077710Y00084838D01*
X00077714Y00084846D01*
X00077718Y00084853D01*
X00077721Y00084859D01*
X00077723Y00084862D01*
X00077723Y00084863D01*
X00077731Y00084872D01*
X00077740Y00084879D01*
X00077749Y00084885D01*
X00077757Y00084889D01*
X00077764Y00084893D01*
X00077770Y00084894D01*
X00077773Y00084895D01*
X00077774Y00084895D01*
X00077776Y00084896D01*
X00077776Y00084896D01*
X00077767Y00084901D01*
X00077759Y00084907D01*
X00077752Y00084912D01*
X00077746Y00084917D01*
X00077742Y00084922D01*
X00077739Y00084925D01*
X00077737Y00084928D01*
X00077736Y00084929D01*
X00077732Y00084936D01*
X00077729Y00084945D01*
X00077726Y00084952D01*
X00077725Y00084959D01*
X00077723Y00084965D01*
X00077723Y00084970D01*
X00077723Y00084973D01*
X00077723Y00084974D01*
X00077723Y00084984D01*
X00077725Y00084993D01*
X00077728Y00085001D01*
X00077730Y00085008D01*
X00077732Y00085014D01*
X00077735Y00085019D01*
X00077736Y00085022D01*
X00077737Y00085023D01*
X00077743Y00085031D01*
X00077749Y00085039D01*
X00077756Y00085045D01*
X00077763Y00085050D01*
X00077769Y00085055D01*
X00077773Y00085057D01*
X00077777Y00085059D01*
X00077777Y00085060D01*
X00077778Y00085060D01*
X00077788Y00085065D01*
X00077798Y00085068D01*
X00077808Y00085070D01*
X00077817Y00085072D01*
X00077824Y00085073D01*
X00077830Y00085074D01*
X00077843Y00085074D01*
X00077852Y00085073D01*
D02*
G37*
G36*
X00077217Y00085065D02*
X00077224Y00085055D01*
X00077231Y00085046D01*
X00077238Y00085038D01*
X00077244Y00085032D01*
X00077250Y00085026D01*
X00077253Y00085023D01*
X00077254Y00085022D01*
X00077254Y00085022D01*
X00077265Y00085012D01*
X00077277Y00085004D01*
X00077289Y00084996D01*
X00077299Y00084990D01*
X00077309Y00084984D01*
X00077313Y00084983D01*
X00077316Y00084981D01*
X00077319Y00084979D01*
X00077321Y00084978D01*
X00077322Y00084977D01*
X00077323Y00084977D01*
X00077323Y00084931D01*
X00077315Y00084935D01*
X00077306Y00084939D01*
X00077298Y00084942D01*
X00077290Y00084946D01*
X00077284Y00084950D01*
X00077278Y00084953D01*
X00077275Y00084955D01*
X00077274Y00084956D01*
X00077274Y00084956D01*
X00077264Y00084962D01*
X00077255Y00084968D01*
X00077247Y00084973D01*
X00077241Y00084979D01*
X00077236Y00084983D01*
X00077232Y00084986D01*
X00077229Y00084988D01*
X00077229Y00084988D01*
X00077229Y00084688D01*
X00077181Y00084688D01*
X00077181Y00085074D01*
X00077212Y00085074D01*
X00077217Y00085065D01*
D02*
G37*
G36*
X00078324Y00084688D02*
X00078186Y00084688D01*
X00078173Y00084688D01*
X00078161Y00084689D01*
X00078151Y00084690D01*
X00078142Y00084691D01*
X00078134Y00084692D01*
X00078129Y00084693D01*
X00078125Y00084694D01*
X00078124Y00084694D01*
X00078114Y00084697D01*
X00078105Y00084700D01*
X00078098Y00084703D01*
X00078091Y00084706D01*
X00078086Y00084709D01*
X00078082Y00084711D01*
X00078079Y00084712D01*
X00078079Y00084713D01*
X00078072Y00084718D01*
X00078065Y00084724D01*
X00078059Y00084730D01*
X00078054Y00084735D01*
X00078049Y00084740D01*
X00078046Y00084745D01*
X00078044Y00084747D01*
X00078043Y00084748D01*
X00078038Y00084757D01*
X00078032Y00084766D01*
X00078028Y00084776D01*
X00078024Y00084784D01*
X00078021Y00084792D01*
X00078019Y00084798D01*
X00078018Y00084801D01*
X00078018Y00084802D01*
X00078017Y00084804D01*
X00078017Y00084804D01*
X00078014Y00084817D01*
X00078011Y00084831D01*
X00078009Y00084844D01*
X00078008Y00084856D01*
X00078007Y00084866D01*
X00078007Y00084871D01*
X00078007Y00084874D01*
X00078007Y00084878D01*
X00078007Y00084880D01*
X00078007Y00084881D01*
X00078007Y00084882D01*
X00078007Y00084901D01*
X00078009Y00084918D01*
X00078011Y00084933D01*
X00078013Y00084940D01*
X00078014Y00084946D01*
X00078015Y00084952D01*
X00078017Y00084957D01*
X00078018Y00084962D01*
X00078020Y00084966D01*
X00078021Y00084969D01*
X00078021Y00084971D01*
X00078022Y00084972D01*
X00078022Y00084973D01*
X00078028Y00084987D01*
X00078035Y00085000D01*
X00078043Y00085011D01*
X00078050Y00085021D01*
X00078057Y00085028D01*
X00078062Y00085034D01*
X00078066Y00085038D01*
X00078067Y00085039D01*
X00078067Y00085039D01*
X00078077Y00085046D01*
X00078086Y00085052D01*
X00078096Y00085056D01*
X00078104Y00085060D01*
X00078112Y00085063D01*
X00078118Y00085065D01*
X00078121Y00085066D01*
X00078122Y00085066D01*
X00078123Y00085066D01*
X00078124Y00085066D01*
X00078133Y00085068D01*
X00078144Y00085070D01*
X00078156Y00085071D01*
X00078166Y00085072D01*
X00078176Y00085072D01*
X00078324Y00085072D01*
X00078324Y00084688D01*
D02*
G37*
G36*
X00078649Y00084688D02*
X00078598Y00084688D01*
X00078598Y00084862D01*
X00078418Y00084862D01*
X00078418Y00084907D01*
X00078598Y00084907D01*
X00078598Y00085027D01*
X00078390Y00085027D01*
X00078390Y00085072D01*
X00078649Y00085072D01*
X00078649Y00084688D01*
D02*
G37*
%LPC*%
G36*
X00003800Y00085027D02*
X00003720Y00085027D01*
X00003704Y00085026D01*
X00003691Y00085026D01*
X00003680Y00085025D01*
X00003670Y00085023D01*
X00003663Y00085021D01*
X00003659Y00085020D01*
X00003656Y00085019D01*
X00003655Y00085019D01*
X00003645Y00085014D01*
X00003635Y00085007D01*
X00003627Y00085000D01*
X00003620Y00084993D01*
X00003614Y00084986D01*
X00003610Y00084980D01*
X00003608Y00084978D01*
X00003608Y00084976D01*
X00003607Y00084976D01*
X00003607Y00084975D01*
X00003603Y00084969D01*
X00003600Y00084962D01*
X00003595Y00084947D01*
X00003592Y00084932D01*
X00003589Y00084917D01*
X00003589Y00084910D01*
X00003588Y00084904D01*
X00003587Y00084898D01*
X00003587Y00084893D01*
X00003587Y00084888D01*
X00003587Y00084885D01*
X00003587Y00084883D01*
X00003587Y00084883D01*
X00003587Y00084867D01*
X00003589Y00084853D01*
X00003590Y00084840D01*
X00003592Y00084829D01*
X00003594Y00084820D01*
X00003595Y00084816D01*
X00003596Y00084814D01*
X00003596Y00084811D01*
X00003597Y00084809D01*
X00003597Y00084809D01*
X00003597Y00084808D01*
X00003601Y00084798D01*
X00003606Y00084788D01*
X00003611Y00084780D01*
X00003615Y00084773D01*
X00003619Y00084767D01*
X00003622Y00084763D01*
X00003625Y00084760D01*
X00003625Y00084760D01*
X00003631Y00084755D01*
X00003636Y00084751D01*
X00003642Y00084748D01*
X00003648Y00084745D01*
X00003652Y00084743D01*
X00003656Y00084741D01*
X00003659Y00084740D01*
X00003660Y00084740D01*
X00003669Y00084737D01*
X00003678Y00084736D01*
X00003688Y00084735D01*
X00003697Y00084734D01*
X00003706Y00084733D01*
X00003713Y00084733D01*
X00003800Y00084733D01*
X00003800Y00085027D01*
D02*
G37*
G36*
X00078273Y00085027D02*
X00078193Y00085027D01*
X00078177Y00085026D01*
X00078163Y00085026D01*
X00078152Y00085025D01*
X00078143Y00085023D01*
X00078136Y00085021D01*
X00078131Y00085020D01*
X00078128Y00085019D01*
X00078127Y00085019D01*
X00078117Y00085014D01*
X00078108Y00085007D01*
X00078100Y00085000D01*
X00078093Y00084993D01*
X00078087Y00084986D01*
X00078083Y00084980D01*
X00078081Y00084978D01*
X00078080Y00084976D01*
X00078079Y00084976D01*
X00078079Y00084975D01*
X00078076Y00084969D01*
X00078073Y00084962D01*
X00078067Y00084947D01*
X00078064Y00084932D01*
X00078062Y00084917D01*
X00078061Y00084910D01*
X00078060Y00084904D01*
X00078060Y00084898D01*
X00078059Y00084893D01*
X00078059Y00084888D01*
X00078059Y00084885D01*
X00078059Y00084883D01*
X00078059Y00084883D01*
X00078060Y00084867D01*
X00078061Y00084853D01*
X00078063Y00084840D01*
X00078065Y00084829D01*
X00078066Y00084820D01*
X00078067Y00084816D01*
X00078068Y00084814D01*
X00078069Y00084811D01*
X00078069Y00084809D01*
X00078070Y00084809D01*
X00078070Y00084808D01*
X00078074Y00084798D01*
X00078079Y00084788D01*
X00078083Y00084780D01*
X00078087Y00084773D01*
X00078091Y00084767D01*
X00078095Y00084763D01*
X00078097Y00084760D01*
X00078098Y00084760D01*
X00078103Y00084755D01*
X00078108Y00084751D01*
X00078114Y00084748D01*
X00078120Y00084745D01*
X00078125Y00084743D01*
X00078129Y00084741D01*
X00078131Y00084740D01*
X00078132Y00084740D01*
X00078141Y00084737D01*
X00078151Y00084736D01*
X00078160Y00084735D01*
X00078170Y00084734D01*
X00078179Y00084733D01*
X00078185Y00084733D01*
X00078273Y00084733D01*
X00078273Y00085027D01*
D02*
G37*
%LPD*%
D22*
X00078719Y00083858D02*
G03*
X00078719Y00083858I-00000310D01*
G01*
X00004247Y00083858D02*
G03*
X00004247Y00083858I-00000310D01*
G01*
G04 next file*
G04 Layer_Color=32896*
G04 skipping 71
G01*
G75*
G04 next file*
G04 Layer_Color=32896*
G04 skipping 71
G01*
G75*
G04 next file*
G04 Layer_Color=32896*
G04 skipping 71
G01*
G75*
G04 next file*
G04 Layer_Color=32896*
G04 skipping 71
G01*
G75*
G04 next file*
G04 Layer_Color=32896*
G04 skipping 71
G01*
G75*
G04 next file*
G04 Layer_Color=32896*
G04 skipping 71
G01*
G75*
G04 next file*
G04 Layer_Color=32896*
G04 skipping 71
G01*
G75*
G04 next file*
G04 Layer_Color=32896*
G04 skipping 71
G01*
G75*
G04 next file*
G04 Layer_Color=32896*
G04 skipping 71
G01*
G75*
G04 next file*
G04 Layer_Color=32896*
G04 skipping 71
G01*
G75*
G04 next file*
G04 Layer_Color=32896*
G04 skipping 71
G01*
G75*
G04 next file*
G04 Layer_Color=32896*
G04 skipping 71
G01*
G75*
M02*