%
M48
METRIC,000.000
T01C3.00
T10C0.71
T11C1.10
T12C1.20
T13C1.40
T14C0.60
T15C0.70
T16C0.50
%
T01
X005000Y005000
X204160Y005000
X204160Y213000
X005000Y213000
X002800Y015800
X047240Y015800
X002800Y072418
X047240Y072418
X055800Y015800
X100240Y015800
X055800Y072418
X100240Y072418
X108800Y015800
X153240Y015800
X108800Y072418
X153240Y072418
X161800Y015800
X206240Y015800
X161800Y072418
X206240Y072418
X002800Y080800
X047240Y080800
X002800Y137418
X047240Y137418
X055800Y080800
X100240Y080800
X055800Y137418
X100240Y137418
X108800Y080800
X153240Y080800
X108800Y137418
X153240Y137418
X161800Y080800
X206240Y080800
X161800Y137418
X206240Y137418
X002800Y145800
X047240Y145800
X002800Y202418
X047240Y202418
X055800Y145800
X100240Y145800
X055800Y202418
X100240Y202418
X108800Y145800
X153240Y145800
X108800Y202418
X153240Y202418
X161800Y145800
X206240Y145800
X161800Y202418
X206240Y202418
T10
X005087Y025404
X007404Y025404
X009721Y025404
X012038Y025404
X018711Y027191
X020648Y027191
X022775Y027223
X024712Y027223
X026818Y027223
X037293Y023075
X037899Y021383
X040917Y024560
X040037Y034369
X038314Y037146
X040024Y044138
X039659Y047503
X041777Y052515
X045941Y051086
X047713Y041567
X047713Y038726
X047713Y035885
X045806Y030835
X028551Y031963
X027333Y030518
X022664Y032159
X023097Y034549
X024871Y034549
X023167Y037367
X023104Y039193
X022703Y044073
X025634Y043819
X028054Y043819
X031744Y042826
X033107Y046318
X033201Y048384
X030675Y054440
X033169Y061196
X026550Y066471
X041826Y064498
X045797Y064602
X021682Y050201
X019842Y050201
X018003Y050201
X028067Y037741
X007811Y039700
X007811Y041860
X011569Y048574
X010134Y031400
X058087Y025404
X060404Y025404
X062721Y025404
X065038Y025404
X071711Y027191
X073648Y027191
X075775Y027223
X077712Y027223
X079818Y027223
X090293Y023075
X090899Y021383
X093917Y024560
X093037Y034369
X091314Y037146
X093024Y044138
X092658Y047503
X094777Y052515
X098941Y051086
X100713Y041567
X100713Y038726
X100713Y035885
X098806Y030835
X081551Y031963
X080333Y030518
X075664Y032159
X076097Y034549
X077871Y034549
X076167Y037367
X076104Y039193
X075703Y044073
X078634Y043819
X081054Y043819
X084744Y042826
X086107Y046318
X086201Y048384
X083675Y054440
X086169Y061196
X079550Y066471
X094826Y064498
X098797Y064602
X074682Y050201
X072842Y050201
X071003Y050201
X081067Y037741
X060811Y039700
X060811Y041860
X064569Y048574
X063134Y031400
X111087Y025404
X113404Y025404
X115721Y025404
X118038Y025404
X124711Y027191
X126648Y027191
X128775Y027223
X130711Y027223
X132818Y027223
X143293Y023075
X143899Y021383
X146917Y024560
X146037Y034369
X144314Y037146
X146024Y044138
X145659Y047503
X147777Y052515
X151941Y051086
X153713Y041567
X153713Y038726
X153713Y035885
X151805Y030835
X134551Y031963
X133333Y030518
X128663Y032159
X129097Y034549
X130871Y034549
X129167Y037367
X129103Y039193
X128703Y044073
X131634Y043819
X134054Y043819
X137744Y042826
X139107Y046318
X139201Y048384
X136675Y054440
X139168Y061196
X132550Y066471
X147826Y064498
X151797Y064602
X127682Y050201
X125842Y050201
X124003Y050201
X134067Y037741
X113811Y039700
X113811Y041860
X117569Y048574
X116134Y031400
X164087Y025404
X166404Y025404
X168721Y025404
X171038Y025404
X177711Y027191
X179648Y027191
X181775Y027223
X183712Y027223
X185818Y027223
X196293Y023075
X196899Y021383
X199917Y024560
X199037Y034369
X197314Y037146
X199024Y044138
X198659Y047503
X200777Y052515
X204941Y051086
X206713Y041567
X206713Y038726
X206713Y035885
X204805Y030835
X187551Y031963
X186333Y030518
X181664Y032159
X182097Y034549
X183871Y034549
X182167Y037367
X182103Y039193
X181703Y044073
X184634Y043819
X187054Y043819
X190744Y042826
X192107Y046318
X192201Y048384
X189675Y054440
X192168Y061196
X185550Y066471
X200826Y064498
X204797Y064602
X180682Y050201
X178842Y050201
X177003Y050201
X187067Y037741
X166811Y039700
X166811Y041860
X170569Y048574
X169134Y031400
X005087Y090404
X007404Y090404
X009721Y090404
X012038Y090404
X018711Y092191
X020648Y092191
X022775Y092223
X024712Y092223
X026818Y092223
X037293Y088075
X037899Y086383
X040917Y089560
X040037Y099369
X038314Y102146
X040024Y109138
X039659Y112503
X041777Y117515
X045941Y116086
X047713Y106567
X047713Y103726
X047713Y100885
X045806Y095835
X028551Y096963
X027333Y095518
X022664Y097158
X023097Y099549
X024871Y099549
X023167Y102367
X023104Y104193
X022703Y109073
X025634Y108819
X028054Y108819
X031744Y107826
X033107Y111318
X033201Y113384
X030675Y119440
X033169Y126196
X026550Y131471
X041826Y129499
X045797Y129602
X021682Y115201
X019842Y115201
X018003Y115201
X028067Y102741
X007811Y104700
X007811Y106860
X011569Y113574
X010134Y096400
X058087Y090404
X060404Y090404
X062721Y090404
X065038Y090404
X071711Y092191
X073648Y092191
X075775Y092223
X077712Y092223
X079818Y092223
X090293Y088075
X090899Y086383
X093917Y089560
X093037Y099369
X091314Y102146
X093024Y109138
X092658Y112503
X094777Y117515
X098941Y116086
X100713Y106567
X100713Y103726
X100713Y100885
X098806Y095835
X081551Y096963
X080333Y095518
X075664Y097158
X076097Y099549
X077871Y099549
X076167Y102367
X076104Y104193
X075703Y109073
X078634Y108819
X081054Y108819
X084744Y107826
X086107Y111318
X086201Y113384
X083675Y119440
X086169Y126196
X079550Y131471
X094826Y129499
X098797Y129602
X074682Y115201
X072842Y115201
X071003Y115201
X081067Y102741
X060811Y104700
X060811Y106860
X064569Y113574
X063134Y096400
X111087Y090404
X113404Y090404
X115721Y090404
X118038Y090404
X124711Y092191
X126648Y092191
X128775Y092223
X130711Y092223
X132818Y092223
X143293Y088075
X143899Y086383
X146917Y089560
X146037Y099369
X144314Y102146
X146024Y109138
X145659Y112503
X147777Y117515
X151941Y116086
X153713Y106567
X153713Y103726
X153713Y100885
X151805Y095835
X134551Y096963
X133333Y095518
X128663Y097158
X129097Y099549
X130871Y099549
X129167Y102367
X129103Y104193
X128703Y109073
X131634Y108819
X134054Y108819
X137744Y107826
X139107Y111318
X139201Y113384
X136675Y119440
X139168Y126196
X132550Y131471
X147826Y129499
X151797Y129602
X127682Y115201
X125842Y115201
X124003Y115201
X134067Y102741
X113811Y104700
X113811Y106860
X117569Y113574
X116134Y096400
X164087Y090404
X166404Y090404
X168721Y090404
X171038Y090404
X177711Y092191
X179648Y092191
X181775Y092223
X183712Y092223
X185818Y092223
X196293Y088075
X196899Y086383
X199917Y089560
X199037Y099369
X197314Y102146
X199024Y109138
X198659Y112503
X200777Y117515
X204941Y116086
X206713Y106567
X206713Y103726
X206713Y100885
X204805Y095835
X187551Y096963
X186333Y095518
X181664Y097158
X182097Y099549
X183871Y099549
X182167Y102367
X182103Y104193
X181703Y109073
X184634Y108819
X187054Y108819
X190744Y107826
X192107Y111318
X192201Y113384
X189675Y119440
X192168Y126196
X185550Y131471
X200826Y129499
X204797Y129602
X180682Y115201
X178842Y115201
X177003Y115201
X187067Y102741
X166811Y104700
X166811Y106860
X170569Y113574
X169134Y096400
X005087Y155404
X007404Y155404
X009721Y155404
X012038Y155404
X018711Y157191
X020648Y157191
X022775Y157223
X024712Y157223
X026818Y157223
X037293Y153075
X037899Y151383
X040917Y154560
X040037Y164369
X038314Y167146
X040024Y174138
X039659Y177503
X041777Y182515
X045941Y181086
X047713Y171567
X047713Y168726
X047713Y165885
X045806Y160835
X028551Y161963
X027333Y160518
X022664Y162159
X023097Y164549
X024871Y164549
X023167Y167367
X023104Y169193
X022703Y174073
X025634Y173819
X028054Y173819
X031744Y172826
X033107Y176317
X033201Y178384
X030675Y184440
X033169Y191196
X026550Y196471
X041826Y194499
X045797Y194602
X021682Y180201
X019842Y180201
X018003Y180201
X028067Y167741
X007811Y169700
X007811Y171860
X011569Y178574
X010134Y161400
X058087Y155404
X060404Y155404
X062721Y155404
X065038Y155404
X071711Y157191
X073648Y157191
X075775Y157223
X077712Y157223
X079818Y157223
X090293Y153075
X090899Y151383
X093917Y154560
X093037Y164369
X091314Y167146
X093024Y174138
X092658Y177503
X094777Y182515
X098941Y181086
X100713Y171567
X100713Y168726
X100713Y165885
X098806Y160835
X081551Y161963
X080333Y160518
X075664Y162159
X076097Y164549
X077871Y164549
X076167Y167367
X076104Y169193
X075703Y174073
X078634Y173819
X081054Y173819
X084744Y172826
X086107Y176317
X086201Y178384
X083675Y184440
X086169Y191196
X079550Y196471
X094826Y194499
X098797Y194602
X074682Y180201
X072842Y180201
X071003Y180201
X081067Y167741
X060811Y169700
X060811Y171860
X064569Y178574
X063134Y161400
X111087Y155404
X113404Y155404
X115721Y155404
X118038Y155404
X124711Y157191
X126648Y157191
X128775Y157223
X130711Y157223
X132818Y157223
X143293Y153075
X143899Y151383
X146917Y154560
X146037Y164369
X144314Y167146
X146024Y174138
X145659Y177503
X147777Y182515
X151941Y181086
X153713Y171567
X153713Y168726
X153713Y165885
X151805Y160835
X134551Y161963
X133333Y160518
X128663Y162159
X129097Y164549
X130871Y164549
X129167Y167367
X129103Y169193
X128703Y174073
X131634Y173819
X134054Y173819
X137744Y172826
X139107Y176317
X139201Y178384
X136675Y184440
X139168Y191196
X132550Y196471
X147826Y194499
X151797Y194602
X127682Y180201
X125842Y180201
X124003Y180201
X134067Y167741
X113811Y169700
X113811Y171860
X117569Y178574
X116134Y161400
X164087Y155404
X166404Y155404
X168721Y155404
X171038Y155404
X177711Y157191
X179648Y157191
X181775Y157223
X183712Y157223
X185818Y157223
X196293Y153075
X196899Y151383
X199917Y154560
X199037Y164369
X197314Y167146
X199024Y174138
X198659Y177503
X200777Y182515
X204941Y181086
X206713Y171567
X206713Y168726
X206713Y165885
X204805Y160835
X187551Y161963
X186333Y160518
X181664Y162159
X182097Y164549
X183871Y164549
X182167Y167367
X182103Y169193
X181703Y174073
X184634Y173819
X187054Y173819
X190744Y172826
X192107Y176317
X192201Y178384
X189675Y184440
X192168Y191196
X185550Y196471
X200826Y194499
X204797Y194602
X180682Y180201
X178842Y180201
X177003Y180201
X187067Y167741
X166811Y169700
X166811Y171860
X170569Y178574
X169134Y161400
T11
X012954Y016429
X012954Y018969
X015494Y018969
X015494Y016429
X018034Y016429
X020574Y016429
X020574Y018969
X018034Y018969
X023114Y018969
X023114Y016429
X065954Y016429
X065954Y018969
X068494Y018969
X068494Y016429
X071033Y016429
X073574Y016429
X073574Y018969
X071033Y018969
X076114Y018969
X076114Y016429
X118954Y016429
X118954Y018969
X121494Y018969
X121494Y016429
X124033Y016429
X126574Y016429
X126574Y018969
X124033Y018969
X129114Y018969
X129114Y016429
X171954Y016429
X171954Y018969
X174494Y018969
X174494Y016429
X177034Y016429
X179574Y016429
X179574Y018969
X177034Y018969
X182114Y018969
X182114Y016429
X012954Y081429
X012954Y083969
X015494Y083969
X015494Y081429
X018034Y081429
X020574Y081429
X020574Y083969
X018034Y083969
X023114Y083969
X023114Y081429
X065954Y081429
X065954Y083969
X068494Y083969
X068494Y081429
X071033Y081429
X073574Y081429
X073574Y083969
X071033Y083969
X076114Y083969
X076114Y081429
X118954Y081429
X118954Y083969
X121494Y083969
X121494Y081429
X124033Y081429
X126574Y081429
X126574Y083969
X124033Y083969
X129114Y083969
X129114Y081429
X171954Y081429
X171954Y083969
X174494Y083969
X174494Y081429
X177034Y081429
X179574Y081429
X179574Y083969
X177034Y083969
X182114Y083969
X182114Y081429
X012954Y146429
X012954Y148969
X015494Y148969
X015494Y146429
X018034Y146429
X020574Y146429
X020574Y148969
X018034Y148969
X023114Y148969
X023114Y146429
X065954Y146429
X065954Y148969
X068494Y148969
X068494Y146429
X071033Y146429
X073574Y146429
X073574Y148969
X071033Y148969
X076114Y148969
X076114Y146429
X118954Y146429
X118954Y148969
X121494Y148969
X121494Y146429
X124033Y146429
X126574Y146429
X126574Y148969
X124033Y148969
X129114Y148969
X129114Y146429
X171954Y146429
X171954Y148969
X174494Y148969
X174494Y146429
X177034Y146429
X179574Y146429
X179574Y148969
X177034Y148969
X182114Y148969
X182114Y146429
T12
X002286Y047417
X002286Y052497
X007366Y049957
X055286Y047417
X055286Y052497
X060366Y049957
X108286Y047417
X108286Y052497
X113366Y049957
X161286Y047417
X161286Y052497
X166366Y049957
X002286Y112417
X002286Y117497
X007366Y114957
X055286Y112417
X055286Y117497
X060366Y114957
X108286Y112417
X108286Y117497
X113366Y114957
X161286Y112417
X161286Y117497
X166366Y114957
X002286Y177417
X002286Y182497
X007366Y179957
X055286Y177417
X055286Y182497
X060366Y179957
X108286Y177417
X108286Y182497
X113366Y179957
X161286Y177417
X161286Y182497
X166366Y179957
T13
X005207Y060879
X005207Y065878
X058207Y060879
X058207Y065878
X111207Y060879
X111207Y065878
X164207Y060879
X164207Y065878
X005207Y125878
X005207Y130877
X058207Y125878
X058207Y130877
X111207Y125878
X111207Y130877
X164207Y125878
X164207Y130877
X005207Y190879
X005207Y195879
X058207Y190879
X058207Y195879
X111207Y190879
X111207Y195879
X164207Y190879
X164207Y195879
T14
X034727Y017199
X034427Y017199
X039706Y017199
X039406Y017199
X087727Y017199
X087427Y017199
X092706Y017199
X092406Y017199
X140727Y017199
X140427Y017199
X145706Y017199
X145406Y017199
X193727Y017199
X193427Y017199
X198706Y017199
X198406Y017199
X034727Y082199
X034427Y082199
X039706Y082199
X039406Y082199
X087727Y082199
X087427Y082199
X092706Y082199
X092406Y082199
X140727Y082199
X140427Y082199
X145706Y082199
X145406Y082199
X193727Y082199
X193427Y082199
X198706Y082199
X198406Y082199
X034727Y147199
X034427Y147199
X039706Y147199
X039406Y147199
X087727Y147199
X087427Y147199
X092706Y147199
X092406Y147199
X140727Y147199
X140427Y147199
X145706Y147199
X145406Y147199
X193727Y147199
X193427Y147199
X198706Y147199
X198406Y147199
T15
X033561Y014357
X033561Y014657
X040572Y014357
X040572Y014657
X086561Y014357
X086561Y014657
X093572Y014357
X093572Y014657
X139561Y014357
X139561Y014657
X146572Y014357
X146572Y014657
X192561Y014357
X192561Y014657
X199572Y014357
X199572Y014657
X033561Y079357
X033561Y079657
X040572Y079357
X040572Y079657
X086561Y079357
X086561Y079657
X093572Y079357
X093572Y079657
X139561Y079357
X139561Y079657
X146572Y079357
X146572Y079657
X192561Y079357
X192561Y079657
X199572Y079357
X199572Y079657
X033561Y144357
X033561Y144657
X040572Y144357
X040572Y144657
X086561Y144357
X086561Y144657
X093572Y144357
X093572Y144657
X139561Y144357
X139561Y144657
X146572Y144357
X146572Y144657
X192561Y144357
X192561Y144657
X199572Y144357
X199572Y144657
T16
X006269Y207750
X007269Y207750
X008269Y207750
X009269Y207750
X010269Y207750
X010388Y205468
X009388Y205468
X008388Y205468
X007388Y205468
X006388Y205468
X005388Y205468
X035269Y207750
X036269Y207750
X037269Y207750
X038269Y207750
X039269Y207750
X039388Y205468
X038388Y205468
X037388Y205468
X036388Y205468
X035388Y205468
X058269Y207750
X059269Y207750
X060269Y207750
X061269Y207750
X062269Y207750
X063269Y207750
X062388Y205468
X061388Y205468
X060388Y205468
X059388Y205468
X058388Y205468
X091269Y207750
X092269Y207750
X093269Y207750
X094269Y207750
X095269Y207750
X095388Y205468
X094388Y205468
X093388Y205468
X092388Y205468
X091388Y205468
X090388Y205468
X111269Y207750
X112269Y207750
X113269Y207750
X114269Y207750
X115269Y207750
X116269Y207750
X116388Y205468
X115388Y205468
X114388Y205468
X113388Y205468
X112388Y205468
X111388Y205468
X141269Y207750
X142269Y207750
X143269Y207750
X144269Y207750
X145269Y207750
X145388Y205468
X144388Y205468
X143388Y205468
X142388Y205468
X141388Y205468
X140388Y205468
X170269Y207750
X171269Y207750
X172269Y207750
X173269Y207750
X174269Y207750
X174388Y205468
X173388Y205468
X172388Y205468
X171388Y205468
X170388Y205468
X169388Y205468
X191269Y207750
X192269Y207750
X193269Y207750
X194269Y207750
X195269Y207750
X196269Y207750
X195388Y205468
X194388Y205468
X193388Y205468
X192388Y205468
X191388Y205468
X015945Y010250
X014945Y010250
X013945Y010250
X012945Y010250
X011945Y010250
X010945Y010250
X011762Y012750
X012762Y012750
X013762Y012750
X014762Y012750
X015762Y012750
X037945Y010250
X036945Y010250
X035945Y010250
X034945Y010250
X033945Y010250
X033762Y012750
X034762Y012750
X035762Y012750
X036762Y012750
X037762Y012750
X066945Y010250
X065945Y010250
X064944Y010250
X063945Y010250
X062945Y010250
X061945Y010250
X062762Y012750
X063762Y012750
X064762Y012750
X065762Y012750
X093945Y010250
X092945Y010250
X091945Y010250
X090945Y010250
X089945Y010250
X088945Y010250
X088762Y012750
X089762Y012750
X090762Y012750
X091762Y012750
X092762Y012750
X118945Y010250
X117945Y010250
X116945Y010250
X115945Y010250
X114945Y010250
X113945Y010250
X113762Y012750
X114762Y012750
X115762Y012750
X116762Y012750
X117762Y012750
X118762Y012750
X143945Y010250
X142945Y010250
X141945Y010250
X140945Y010250
X139945Y010250
X138945Y010250
X139762Y012750
X140762Y012750
X141762Y012750
X142762Y012750
X143762Y012750
X173945Y010250
X172945Y010250
X171945Y010250
X170945Y010250
X169945Y010250
X168945Y010250
X169762Y012750
X170762Y012750
X171762Y012750
X172762Y012750
X173762Y012750
X201945Y010250
X200945Y010250
X199945Y010250
X198945Y010250
X197945Y010250
X196945Y010250
X197762Y012750
X198762Y012750
X199762Y012750
X200762Y012750
X201762Y012750
X016388Y075467
X015388Y075467
X014388Y075467
X013388Y075467
X012388Y075467
X012762Y077750
X013762Y077750
X014762Y077750
X015762Y077750
X016762Y077750
X039388Y075467
X038388Y075467
X037388Y075467
X036388Y075467
X035388Y075467
X034762Y077750
X035762Y077750
X036762Y077750
X037762Y077750
X038762Y077750
X039762Y077750
X066388Y075467
X065388Y075467
X064388Y075467
X063388Y075467
X062388Y075467
X061388Y075467
X061762Y077750
X062762Y077750
X063762Y077750
X064762Y077750
X065762Y077750
X089388Y075467
X088388Y075467
X087388Y075467
X086388Y075467
X085388Y075467
X084388Y075467
X084762Y077750
X085762Y077750
X086762Y077750
X087762Y077750
X088762Y077750
X120388Y075467
X119388Y075467
X118388Y075467
X117388Y075467
X116388Y075467
X115388Y075467
X115762Y077750
X116762Y077750
X117762Y077750
X118762Y077750
X119762Y077750
X142388Y075467
X141388Y075467
X140388Y075467
X139388Y075467
X138388Y075467
X137388Y075467
X137762Y077750
X138762Y077750
X139762Y077750
X140762Y077750
X141762Y077750
X173388Y075467
X172388Y075467
X171388Y075467
X170388Y075467
X169388Y075467
X168762Y077750
X169762Y077750
X170762Y077750
X171762Y077750
X172762Y077750
X173762Y077750
X198388Y075467
X197388Y075467
X196388Y075467
X195388Y075467
X194388Y075467
X193388Y075467
X193762Y077750
X194762Y077750
X195762Y077750
X196762Y077750
X197762Y077750
X197388Y140467
X196388Y140467
X195388Y140467
X194388Y140467
X193388Y140467
X193762Y142750
X194762Y142750
X195762Y142750
X196762Y142750
X197762Y142750
X177388Y140467
X176388Y140467
X175388Y140467
X174388Y140467
X173388Y140467
X172388Y140467
X172762Y142750
X173762Y142750
X174762Y142750
X175762Y142750
X176762Y142750
X144388Y140467
X143388Y140467
X142388Y140467
X141388Y140467
X140388Y140467
X139762Y142750
X140762Y142750
X141762Y142750
X142762Y142750
X143762Y142750
X144762Y142750
X121388Y140467
X120388Y140467
X119388Y140467
X118388Y140467
X117388Y140467
X116388Y140467
X116762Y142750
X117762Y142750
X118762Y142750
X119762Y142750
X120762Y142750
X089388Y140467
X088388Y140467
X087388Y140467
X086388Y140467
X085388Y140467
X084762Y142750
X085762Y142750
X086762Y142750
X087762Y142750
X088762Y142750
X089762Y142750
X067388Y140467
X066388Y140467
X065388Y140467
X064388Y140467
X063388Y140467
X062762Y142750
X063762Y142750
X064762Y142750
X065762Y142750
X066762Y142750
X067762Y142750
X038388Y140467
X037388Y140467
X036388Y140467
X035388Y140467
X034388Y140467
X033762Y142750
X034762Y142750
X035762Y142750
X036762Y142750
X037762Y142750
X038762Y142750
X019388Y140467
X018388Y140467
X017388Y140467
X016388Y140467
X015388Y140467
X014388Y140467
X014762Y142750
X015762Y142750
X016762Y142750
X017762Y142750
X018762Y142750
X050290Y170184
X050290Y171184
X050290Y172184
X050290Y173184
X050290Y174184
X052750Y174921
X052750Y173921
X052750Y172921
X052750Y171921
X052750Y170921
X052750Y169921
X103290Y170184
X103290Y171184
X103290Y172184
X103290Y173184
X103290Y174184
X103290Y175184
X105750Y174921
X105750Y173921
X105750Y172921
X105750Y171921
X105750Y170921
X105750Y169921
X156289Y170184
X156289Y171184
X156289Y172184
X156289Y173184
X156289Y174184
X156289Y175184
X158750Y174921
X158750Y173921
X158750Y172921
X158750Y171921
X158750Y170921
X050290Y105184
X050290Y106184
X050290Y107184
X050290Y108184
X050290Y109184
X052750Y108921
X052750Y107921
X052750Y106921
X052750Y105921
X052750Y104921
X103290Y105184
X103290Y106184
X103290Y107184
X103290Y108184
X103290Y109184
X105750Y108921
X105750Y107921
X105750Y106921
X105750Y105921
X105750Y104921
X156289Y104184
X156289Y105184
X156289Y106184
X156289Y107184
X156289Y108184
X158750Y108921
X158750Y107921
X158750Y106921
X158750Y105921
X158750Y104921
X158750Y103921
X156289Y044184
X156289Y045184
X156289Y046184
X156289Y047184
X156289Y048184
X158750Y047921
X158750Y046921
X158750Y045921
X158750Y044921
X158750Y043921
X103290Y043184
X103290Y044184
X103290Y045184
X103290Y046184
X103290Y047184
X105750Y047921
X105750Y046921
X105750Y045921
X105750Y044921
X105750Y043921
X105750Y042921
X050290Y043184
X050290Y044184
X050290Y045184
X050290Y046184
X050290Y047184
X052750Y046921
X052750Y045921
X052750Y044921
X052750Y043921
M30