%MOIN*%
%OFA0B0*%
%FSLAX44Y44*%
%IPPOS*%
%LPD*%
%ADD35O,0.059055118110236227X0.047244094488188976*%
%ADD36O,0.047244094488188976X0.059055118110236227*%
%ADD37C,0.11811023622047245*%
%ADD38O,0.15748031496062992X0.11811023622047245*%
%ADD39R,0.15748031496062992X0.11811023622047245*%
%ADD40C,0.086614173228346469*%
%ADD41R,0.066929133858267723X0.066929133858267723*%
%ADD52O,0.059055118110236227X0.047244094488188976*%
%ADD53O,0.047244094488188976X0.059055118110236227*%
%ADD54C,0.11811023622047245*%
%ADD55O,0.15748031496062992X0.11811023622047245*%
%ADD56R,0.15748031496062992X0.11811023622047245*%
%ADD57C,0.086614173228346469*%
%ADD58R,0.066929133858267723X0.066929133858267723*%
%ADD59O,0.059055118110236227X0.047244094488188976*%
%ADD60O,0.047244094488188976X0.059055118110236227*%
%ADD61C,0.11811023622047245*%
%ADD62O,0.15748031496062992X0.11811023622047245*%
%ADD63R,0.15748031496062992X0.11811023622047245*%
%ADD64C,0.086614173228346469*%
%ADD65R,0.066929133858267723X0.066929133858267723*%
%ADD66O,0.059055118110236227X0.047244094488188976*%
%ADD67O,0.047244094488188976X0.059055118110236227*%
%ADD68C,0.11811023622047245*%
%ADD69O,0.15748031496062992X0.11811023622047245*%
%ADD70R,0.15748031496062992X0.11811023622047245*%
%ADD71C,0.086614173228346469*%
%ADD72R,0.066929133858267723X0.066929133858267723*%
%ADD73O,0.059055118110236227X0.047244094488188976*%
%ADD74O,0.047244094488188976X0.059055118110236227*%
%ADD75C,0.11811023622047245*%
%ADD76O,0.15748031496062992X0.11811023622047245*%
%ADD77R,0.15748031496062992X0.11811023622047245*%
%ADD78C,0.086614173228346469*%
%ADD79R,0.066929133858267723X0.066929133858267723*%
%ADD80O,0.059055118110236227X0.047244094488188976*%
%ADD81O,0.047244094488188976X0.059055118110236227*%
%ADD82C,0.11811023622047245*%
%ADD83O,0.15748031496062992X0.11811023622047245*%
%ADD84R,0.15748031496062992X0.11811023622047245*%
%ADD85C,0.086614173228346469*%
%ADD86R,0.066929133858267723X0.066929133858267723*%
%ADD87O,0.059055118110236227X0.047244094488188976*%
%ADD88O,0.047244094488188976X0.059055118110236227*%
%ADD89C,0.11811023622047245*%
%ADD90O,0.15748031496062992X0.11811023622047245*%
%ADD91R,0.15748031496062992X0.11811023622047245*%
%ADD92C,0.086614173228346469*%
%ADD93R,0.066929133858267723X0.066929133858267723*%
%ADD94O,0.059055118110236227X0.047244094488188976*%
%ADD95O,0.047244094488188976X0.059055118110236227*%
%ADD96C,0.11811023622047245*%
%ADD97O,0.15748031496062992X0.11811023622047245*%
%ADD98R,0.15748031496062992X0.11811023622047245*%
%ADD99C,0.086614173228346469*%
%ADD100R,0.066929133858267723X0.066929133858267723*%
%ADD101O,0.059055118110236227X0.047244094488188976*%
%ADD102O,0.047244094488188976X0.059055118110236227*%
%ADD103C,0.11811023622047245*%
%ADD104O,0.15748031496062992X0.11811023622047245*%
%ADD105R,0.15748031496062992X0.11811023622047245*%
%ADD106C,0.086614173228346469*%
%ADD107R,0.066929133858267723X0.066929133858267723*%
%ADD108O,0.059055118110236227X0.047244094488188976*%
%ADD109O,0.047244094488188976X0.059055118110236227*%
%ADD110C,0.11811023622047245*%
%ADD111O,0.15748031496062992X0.11811023622047245*%
%ADD112R,0.15748031496062992X0.11811023622047245*%
%ADD113C,0.086614173228346469*%
%ADD114R,0.066929133858267723X0.066929133858267723*%
%ADD115O,0.059055118110236227X0.047244094488188976*%
%ADD116O,0.047244094488188976X0.059055118110236227*%
%ADD117C,0.11811023622047245*%
%ADD118O,0.15748031496062992X0.11811023622047245*%
%ADD119R,0.15748031496062992X0.11811023622047245*%
%ADD120C,0.086614173228346469*%
%ADD121R,0.066929133858267723X0.066929133858267723*%
%ADD122O,0.059055118110236227X0.047244094488188976*%
%ADD123O,0.047244094488188976X0.059055118110236227*%
%ADD124C,0.11811023622047245*%
%ADD125O,0.15748031496062992X0.11811023622047245*%
%ADD126R,0.15748031496062992X0.11811023622047245*%
%ADD127C,0.086614173228346469*%
%ADD128R,0.066929133858267723X0.066929133858267723*%
G01*
G75*
D35*
X00015573Y00006771D02*
D03*
X00013613Y00006771D02*
D03*
D36*
X00015973Y00005711D02*
D03*
X00013213Y00005711D02*
D03*
D37*
X00018598Y00006220D02*
D03*
X00001102Y00006220D02*
D03*
X00018598Y00028511D02*
D03*
X00001102Y00028511D02*
D03*
D38*
X00002050Y00025936D02*
D03*
D39*
X00002050Y00023968D02*
D03*
D40*
X00002900Y00019668D02*
D03*
X00000900Y00018668D02*
D03*
X00000900Y00020668D02*
D03*
D41*
X00005100Y00007468D02*
D03*
X00005100Y00006468D02*
D03*
X00009100Y00006468D02*
D03*
X00009100Y00007468D02*
D03*
X00007100Y00007468D02*
D03*
X00007100Y00006468D02*
D03*
X00008100Y00007468D02*
D03*
X00008100Y00006468D02*
D03*
X00006100Y00006468D02*
D03*
X00006100Y00007468D02*
D03*
G04 next file*
G04 Layer_Color=255*
G04 skipping 71
G01*
G75*
D52*
X00036439Y00006771D02*
D03*
X00034479Y00006771D02*
D03*
D53*
X00036839Y00005711D02*
D03*
X00034079Y00005711D02*
D03*
D54*
X00039464Y00006220D02*
D03*
X00021968Y00006220D02*
D03*
X00039464Y00028511D02*
D03*
X00021968Y00028511D02*
D03*
D55*
X00022916Y00025936D02*
D03*
D56*
X00022916Y00023968D02*
D03*
D57*
X00023766Y00019668D02*
D03*
X00021766Y00018668D02*
D03*
X00021766Y00020668D02*
D03*
D58*
X00025966Y00007468D02*
D03*
X00025966Y00006468D02*
D03*
X00029966Y00006468D02*
D03*
X00029966Y00007468D02*
D03*
X00027966Y00007468D02*
D03*
X00027966Y00006468D02*
D03*
X00028966Y00007468D02*
D03*
X00028966Y00006468D02*
D03*
X00026966Y00006468D02*
D03*
X00026966Y00007468D02*
D03*
G04 next file*
G04 Layer_Color=255*
G04 skipping 71
G01*
G75*
D59*
X00057305Y00006771D02*
D03*
X00055345Y00006771D02*
D03*
D60*
X00057705Y00005711D02*
D03*
X00054945Y00005711D02*
D03*
D61*
X00060330Y00006220D02*
D03*
X00042834Y00006220D02*
D03*
X00060330Y00028511D02*
D03*
X00042834Y00028511D02*
D03*
D62*
X00043782Y00025936D02*
D03*
D63*
X00043782Y00023968D02*
D03*
D64*
X00044632Y00019668D02*
D03*
X00042632Y00018668D02*
D03*
X00042632Y00020668D02*
D03*
D65*
X00046832Y00007468D02*
D03*
X00046832Y00006468D02*
D03*
X00050832Y00006468D02*
D03*
X00050832Y00007468D02*
D03*
X00048832Y00007468D02*
D03*
X00048832Y00006468D02*
D03*
X00049832Y00007468D02*
D03*
X00049832Y00006468D02*
D03*
X00047832Y00006468D02*
D03*
X00047832Y00007468D02*
D03*
G04 next file*
G04 Layer_Color=255*
G04 skipping 71
G01*
G75*
D66*
X00078171Y00006771D02*
D03*
X00076211Y00006771D02*
D03*
D67*
X00078571Y00005711D02*
D03*
X00075811Y00005711D02*
D03*
D68*
X00081196Y00006220D02*
D03*
X00063700Y00006220D02*
D03*
X00081196Y00028511D02*
D03*
X00063700Y00028511D02*
D03*
D69*
X00064648Y00025936D02*
D03*
D70*
X00064648Y00023968D02*
D03*
D71*
X00065498Y00019668D02*
D03*
X00063498Y00018668D02*
D03*
X00063498Y00020668D02*
D03*
D72*
X00067698Y00007468D02*
D03*
X00067698Y00006468D02*
D03*
X00071698Y00006468D02*
D03*
X00071698Y00007468D02*
D03*
X00069698Y00007468D02*
D03*
X00069698Y00006468D02*
D03*
X00070698Y00007468D02*
D03*
X00070698Y00006468D02*
D03*
X00068698Y00006468D02*
D03*
X00068698Y00007468D02*
D03*
G04 next file*
G04 Layer_Color=255*
G04 skipping 71
G01*
G75*
D73*
X00015573Y00032361D02*
D03*
X00013613Y00032361D02*
D03*
D74*
X00015973Y00031301D02*
D03*
X00013213Y00031301D02*
D03*
D75*
X00018598Y00031811D02*
D03*
X00001102Y00031811D02*
D03*
X00018598Y00054101D02*
D03*
X00001102Y00054101D02*
D03*
D76*
X00002050Y00051527D02*
D03*
D77*
X00002050Y00049558D02*
D03*
D78*
X00002900Y00045258D02*
D03*
X00000900Y00044258D02*
D03*
X00000900Y00046258D02*
D03*
D79*
X00005100Y00033058D02*
D03*
X00005100Y00032058D02*
D03*
X00009100Y00032058D02*
D03*
X00009100Y00033058D02*
D03*
X00007100Y00033058D02*
D03*
X00007100Y00032058D02*
D03*
X00008100Y00033058D02*
D03*
X00008100Y00032058D02*
D03*
X00006100Y00032058D02*
D03*
X00006100Y00033058D02*
D03*
G04 next file*
G04 Layer_Color=255*
G04 skipping 71
G01*
G75*
D80*
X00036439Y00032361D02*
D03*
X00034479Y00032361D02*
D03*
D81*
X00036839Y00031301D02*
D03*
X00034079Y00031301D02*
D03*
D82*
X00039464Y00031811D02*
D03*
X00021968Y00031811D02*
D03*
X00039464Y00054101D02*
D03*
X00021968Y00054101D02*
D03*
D83*
X00022916Y00051527D02*
D03*
D84*
X00022916Y00049558D02*
D03*
D85*
X00023766Y00045258D02*
D03*
X00021766Y00044258D02*
D03*
X00021766Y00046258D02*
D03*
D86*
X00025966Y00033058D02*
D03*
X00025966Y00032058D02*
D03*
X00029966Y00032058D02*
D03*
X00029966Y00033058D02*
D03*
X00027966Y00033058D02*
D03*
X00027966Y00032058D02*
D03*
X00028966Y00033058D02*
D03*
X00028966Y00032058D02*
D03*
X00026966Y00032058D02*
D03*
X00026966Y00033058D02*
D03*
G04 next file*
G04 Layer_Color=255*
G04 skipping 71
G01*
G75*
D87*
X00057305Y00032361D02*
D03*
X00055345Y00032361D02*
D03*
D88*
X00057705Y00031301D02*
D03*
X00054945Y00031301D02*
D03*
D89*
X00060330Y00031811D02*
D03*
X00042834Y00031811D02*
D03*
X00060330Y00054101D02*
D03*
X00042834Y00054101D02*
D03*
D90*
X00043782Y00051527D02*
D03*
D91*
X00043782Y00049558D02*
D03*
D92*
X00044632Y00045258D02*
D03*
X00042632Y00044258D02*
D03*
X00042632Y00046258D02*
D03*
D93*
X00046832Y00033058D02*
D03*
X00046832Y00032058D02*
D03*
X00050832Y00032058D02*
D03*
X00050832Y00033058D02*
D03*
X00048832Y00033058D02*
D03*
X00048832Y00032058D02*
D03*
X00049832Y00033058D02*
D03*
X00049832Y00032058D02*
D03*
X00047832Y00032058D02*
D03*
X00047832Y00033058D02*
D03*
G04 next file*
G04 Layer_Color=255*
G04 skipping 71
G01*
G75*
D94*
X00078171Y00032361D02*
D03*
X00076211Y00032361D02*
D03*
D95*
X00078571Y00031301D02*
D03*
X00075811Y00031301D02*
D03*
D96*
X00081196Y00031811D02*
D03*
X00063700Y00031811D02*
D03*
X00081196Y00054101D02*
D03*
X00063700Y00054101D02*
D03*
D97*
X00064648Y00051527D02*
D03*
D98*
X00064648Y00049558D02*
D03*
D99*
X00065498Y00045258D02*
D03*
X00063498Y00044258D02*
D03*
X00063498Y00046258D02*
D03*
D100*
X00067698Y00033058D02*
D03*
X00067698Y00032058D02*
D03*
X00071698Y00032058D02*
D03*
X00071698Y00033058D02*
D03*
X00069698Y00033058D02*
D03*
X00069698Y00032058D02*
D03*
X00070698Y00033058D02*
D03*
X00070698Y00032058D02*
D03*
X00068698Y00032058D02*
D03*
X00068698Y00033058D02*
D03*
G04 next file*
G04 Layer_Color=255*
G04 skipping 71
G01*
G75*
D101*
X00015573Y00057952D02*
D03*
X00013613Y00057952D02*
D03*
D102*
X00015973Y00056892D02*
D03*
X00013213Y00056892D02*
D03*
D103*
X00018598Y00057401D02*
D03*
X00001102Y00057401D02*
D03*
X00018598Y00079692D02*
D03*
X00001102Y00079692D02*
D03*
D104*
X00002050Y00077117D02*
D03*
D105*
X00002050Y00075149D02*
D03*
D106*
X00002900Y00070849D02*
D03*
X00000900Y00069849D02*
D03*
X00000900Y00071849D02*
D03*
D107*
X00005100Y00058649D02*
D03*
X00005100Y00057649D02*
D03*
X00009100Y00057649D02*
D03*
X00009100Y00058649D02*
D03*
X00007100Y00058649D02*
D03*
X00007100Y00057649D02*
D03*
X00008100Y00058649D02*
D03*
X00008100Y00057649D02*
D03*
X00006100Y00057649D02*
D03*
X00006100Y00058649D02*
D03*
G04 next file*
G04 Layer_Color=255*
G04 skipping 71
G01*
G75*
D108*
X00036439Y00057952D02*
D03*
X00034479Y00057952D02*
D03*
D109*
X00036839Y00056892D02*
D03*
X00034079Y00056892D02*
D03*
D110*
X00039464Y00057401D02*
D03*
X00021968Y00057401D02*
D03*
X00039464Y00079692D02*
D03*
X00021968Y00079692D02*
D03*
D111*
X00022916Y00077117D02*
D03*
D112*
X00022916Y00075149D02*
D03*
D113*
X00023766Y00070849D02*
D03*
X00021766Y00069849D02*
D03*
X00021766Y00071849D02*
D03*
D114*
X00025966Y00058649D02*
D03*
X00025966Y00057649D02*
D03*
X00029966Y00057649D02*
D03*
X00029966Y00058649D02*
D03*
X00027966Y00058649D02*
D03*
X00027966Y00057649D02*
D03*
X00028966Y00058649D02*
D03*
X00028966Y00057649D02*
D03*
X00026966Y00057649D02*
D03*
X00026966Y00058649D02*
D03*
G04 next file*
G04 Layer_Color=255*
G04 skipping 71
G01*
G75*
D115*
X00057305Y00057952D02*
D03*
X00055345Y00057952D02*
D03*
D116*
X00057705Y00056892D02*
D03*
X00054945Y00056892D02*
D03*
D117*
X00060330Y00057401D02*
D03*
X00042834Y00057401D02*
D03*
X00060330Y00079692D02*
D03*
X00042834Y00079692D02*
D03*
D118*
X00043782Y00077117D02*
D03*
D119*
X00043782Y00075149D02*
D03*
D120*
X00044632Y00070849D02*
D03*
X00042632Y00069849D02*
D03*
X00042632Y00071849D02*
D03*
D121*
X00046832Y00058649D02*
D03*
X00046832Y00057649D02*
D03*
X00050832Y00057649D02*
D03*
X00050832Y00058649D02*
D03*
X00048832Y00058649D02*
D03*
X00048832Y00057649D02*
D03*
X00049832Y00058649D02*
D03*
X00049832Y00057649D02*
D03*
X00047832Y00057649D02*
D03*
X00047832Y00058649D02*
D03*
G04 next file*
G04 Layer_Color=255*
G04 skipping 71
G01*
G75*
D122*
X00078171Y00057952D02*
D03*
X00076211Y00057952D02*
D03*
D123*
X00078571Y00056892D02*
D03*
X00075811Y00056892D02*
D03*
D124*
X00081196Y00057401D02*
D03*
X00063700Y00057401D02*
D03*
X00081196Y00079692D02*
D03*
X00063700Y00079692D02*
D03*
D125*
X00064648Y00077117D02*
D03*
D126*
X00064648Y00075149D02*
D03*
D127*
X00065498Y00070849D02*
D03*
X00063498Y00069849D02*
D03*
X00063498Y00071849D02*
D03*
D128*
X00067698Y00058649D02*
D03*
X00067698Y00057649D02*
D03*
X00071698Y00057649D02*
D03*
X00071698Y00058649D02*
D03*
X00069698Y00058649D02*
D03*
X00069698Y00057649D02*
D03*
X00070698Y00058649D02*
D03*
X00070698Y00057649D02*
D03*
X00068698Y00057649D02*
D03*
X00068698Y00058649D02*
D03*
M02*