%
M48
METRIC,000.000
T01C0.60
T02C0.70
T03C0.71
T04C0.80
T05C0.90
T06C1.10
T07C1.20
T08C1.30
T09C1.40
T10C1.50
T11C3.00
T12C0.50
%
T01
X073978Y020704
X081293Y019460
X081907Y026542
X085712Y024514
X046063Y013897
X037376Y014735
X034072Y024357
X015192Y056478
X027517Y041341
X031331Y041126
X035752Y043161
X056045Y043116
X054584Y038559
X053085Y039919
X064891Y041583
X063767Y043183
X070113Y040724
X070842Y037970
X072327Y039043
X074435Y039551
X073546Y041456
X075248Y044860
X070844Y045231
X079149Y043215
X085052Y044682
X081628Y037309
X089649Y037570
X094062Y041512
X087744Y067770
X080937Y060963
X098235Y047222
X101297Y079272
X103435Y078010
X101359Y085093
X104737Y086857
X113252Y088153
X098419Y090955
X097752Y082858
X096805Y081735
X092875Y084153
X091123Y082452
X088964Y085931
X089573Y088979
X086246Y087659
X085458Y084534
X080785Y083620
X079058Y081690
X076746Y081334
X078702Y077473
X080702Y078440
X082715Y075797
X077838Y074781
X080632Y071606
X070650Y077829
X068872Y077829
X071209Y079124
X067170Y079886
X067120Y082350
X064774Y080566
X062929Y078616
X061887Y076381
X057874Y081925
X061151Y085322
X061557Y090427
X058839Y099546
X063945Y102899
X064819Y104169
X074155Y104219
X077280Y100333
X083452Y103356
X082182Y094163
X081599Y088625
X079807Y088598
X071047Y086078
X096814Y089301
X095695Y091829
X093307Y092951
X095923Y075721
X053556Y081613
X051971Y081375
X054064Y083509
X051473Y090783
X049848Y092180
X053567Y106350
X019061Y096651
X004340Y094791
X004207Y090675
X003150Y089149
X001805Y090108
X001823Y087843
X008336Y081023
X046650Y131375
X057852Y138692
X057836Y123744
X065129Y125835
X061125Y116869
X062960Y111642
X070845Y109235
X084061Y119891
X084722Y124616
X075171Y129061
X077378Y144792
X076329Y146221
X086347Y144707
X096875Y148160
X101105Y147145
X109817Y142878
X110650Y122341
X073978Y168704
X081293Y167460
X081907Y174542
X085712Y172514
X046063Y161897
X037376Y162735
X034072Y172357
X015192Y204478
X027517Y189341
X031331Y189126
X035752Y191161
X056045Y191116
X054584Y186559
X053085Y187919
X064891Y189583
X063767Y191183
X070113Y188724
X070842Y185970
X072327Y187043
X074435Y187551
X073546Y189456
X075248Y192860
X070844Y193231
X079149Y191215
X085052Y192682
X081628Y185309
X089649Y185570
X094062Y189512
X087744Y215770
X080937Y208963
X098235Y195222
X101297Y227272
X103435Y226010
X101359Y233093
X104737Y234857
X113252Y236153
X098419Y238954
X097752Y230858
X096805Y229735
X092875Y232153
X091123Y230452
X088964Y233931
X089573Y236979
X086246Y235659
X085458Y232534
X080785Y231620
X079058Y229690
X076746Y229334
X078702Y225473
X080702Y226440
X082715Y223797
X077838Y222781
X080632Y219606
X070650Y225829
X068872Y225829
X071209Y227124
X067170Y227886
X067120Y230350
X064774Y228566
X062929Y226616
X061887Y224381
X057874Y229925
X061151Y233322
X061557Y238427
X058839Y247546
X063945Y250899
X064819Y252168
X074155Y252219
X077280Y248333
X083452Y251356
X082182Y242163
X081599Y236625
X079807Y236598
X071047Y234078
X096814Y237301
X095695Y239829
X093307Y240951
X095923Y223721
X053556Y229613
X051971Y229375
X054064Y231509
X051473Y238783
X049848Y240180
X053567Y254350
X019061Y244651
X004340Y242791
X004207Y238675
X003150Y237149
X001805Y238108
X001823Y235843
X008336Y229023
X046650Y279375
X057852Y286693
X057836Y271744
X065129Y273835
X061125Y264869
X062960Y259642
X070845Y257235
X084061Y267891
X084722Y272616
X075171Y277061
X077378Y292792
X076329Y294221
X086347Y292707
X096875Y296159
X101105Y295145
X109817Y290878
X110650Y270341
X195978Y020704
X203293Y019460
X203906Y026542
X207712Y024514
X168063Y013897
X159376Y014735
X156072Y024357
X137192Y056478
X149517Y041341
X153331Y041126
X157752Y043161
X178045Y043116
X176584Y038559
X175085Y039919
X186892Y041583
X185767Y043183
X192113Y040724
X192841Y037970
X194327Y039043
X196435Y039551
X195546Y041456
X197248Y044860
X192844Y045231
X201149Y043215
X207052Y044682
X203628Y037309
X211649Y037570
X216062Y041512
X209744Y067770
X202937Y060963
X220235Y047222
X223297Y079272
X225435Y078010
X223359Y085093
X226737Y086857
X235252Y088153
X220418Y090955
X219752Y082858
X218805Y081735
X214875Y084153
X213123Y082452
X210964Y085931
X211573Y088979
X208246Y087659
X207458Y084534
X202785Y083620
X201058Y081690
X198746Y081334
X200702Y077473
X202702Y078440
X204715Y075797
X199838Y074781
X202632Y071606
X192650Y077829
X190872Y077829
X193209Y079124
X189170Y079886
X189120Y082350
X186774Y080566
X184929Y078616
X183887Y076381
X179874Y081925
X183151Y085322
X183557Y090427
X180839Y099546
X185945Y102899
X186820Y104169
X196155Y104219
X199280Y100333
X205452Y103356
X204182Y094163
X203599Y088625
X201807Y088598
X193047Y086078
X218814Y089301
X217695Y091829
X215307Y092951
X217923Y075721
X175556Y081613
X173971Y081375
X176064Y083509
X173473Y090783
X171848Y092180
X175567Y106350
X141061Y096651
X126340Y094791
X126207Y090675
X125150Y089149
X123805Y090108
X123823Y087843
X130336Y081023
X168650Y131375
X179852Y138692
X179836Y123744
X187129Y125835
X183125Y116869
X184960Y111642
X192845Y109235
X206061Y119891
X206722Y124616
X197171Y129061
X199378Y144792
X198329Y146221
X208347Y144707
X218875Y148160
X223105Y147145
X231817Y142878
X232650Y122341
X195978Y168704
X203293Y167460
X203906Y174542
X207712Y172514
X168063Y161897
X159376Y162735
X156072Y172357
X137192Y204478
X149517Y189341
X153331Y189126
X157752Y191161
X178045Y191116
X176584Y186559
X175085Y187919
X186892Y189583
X185767Y191183
X192113Y188724
X192841Y185970
X194327Y187043
X196435Y187551
X195546Y189456
X197248Y192860
X192844Y193231
X201149Y191215
X207052Y192682
X203628Y185309
X211649Y185570
X216062Y189512
X209744Y215770
X202937Y208963
X220235Y195222
X223297Y227272
X225435Y226010
X223359Y233093
X226737Y234857
X235252Y236153
X220418Y238954
X219752Y230858
X218805Y229735
X214875Y232153
X213123Y230452
X210964Y233931
X211573Y236979
X208246Y235659
X207458Y232534
X202785Y231620
X201058Y229690
X198746Y229334
X200702Y225473
X202702Y226440
X204715Y223797
X199838Y222781
X202632Y219606
X192650Y225829
X190872Y225829
X193209Y227124
X189170Y227886
X189120Y230350
X186774Y228566
X184929Y226616
X183887Y224381
X179874Y229925
X183151Y233322
X183557Y238427
X180839Y247546
X185945Y250899
X186820Y252168
X196155Y252219
X199280Y248333
X205452Y251356
X204182Y242163
X203599Y236625
X201807Y236598
X193047Y234078
X218814Y237301
X217695Y239829
X215307Y240951
X217923Y223721
X175556Y229613
X173971Y229375
X176064Y231509
X173473Y238783
X171848Y240180
X175567Y254350
X141061Y244651
X126340Y242791
X126207Y238675
X125150Y237149
X123805Y238108
X123823Y235843
X130336Y229023
X168650Y279375
X179852Y286693
X179836Y271744
X187129Y273835
X183125Y264869
X184960Y259642
X192845Y257235
X206061Y267891
X206722Y272616
X197171Y277061
X199378Y292792
X198329Y294221
X208347Y292707
X218875Y296159
X223105Y295145
X231817Y290878
X232650Y270341
T02
X064580Y113980
X064580Y115980
X064580Y261980
X064580Y263980
X186579Y113980
X186579Y115980
X186579Y261980
X186579Y263980
T03
X105320Y024864
X107835Y024864
X110351Y024864
X112867Y024864
X083461Y023353
X067566Y024472
X062253Y021935
X058669Y021771
X059240Y015908
X056966Y027814
X048663Y021997
X037280Y019575
X009435Y046418
X003109Y045549
X014813Y052622
X010197Y058214
X028557Y049848
X031509Y049848
X039613Y049848
X042330Y049848
X045047Y049848
X047765Y049848
X063284Y064269
X106121Y064568
X116262Y063427
X116262Y059757
X116262Y056087
X116262Y067097
X116262Y070767
X116262Y074437
X105699Y073423
X103315Y073423
X100931Y073423
X100534Y105970
X038631Y102925
X034903Y102925
X031175Y102925
X027448Y102925
X011688Y133047
X009354Y133047
X007020Y133047
X029372Y131726
X032534Y131726
X035699Y131726
X038863Y131726
X038586Y140058
X035612Y140058
X032639Y140058
X029666Y140058
X031294Y121277
X035178Y121277
X039062Y121277
X027410Y121277
X023526Y121277
X057013Y110551
X070723Y112609
X070752Y115134
X073311Y130868
X071647Y133459
X075178Y133935
X097875Y129434
X101074Y125356
X107486Y124731
X107486Y127129
X107486Y129526
X100534Y114714
X100534Y109205
X105320Y172864
X107835Y172864
X110351Y172864
X112867Y172864
X083461Y171353
X067566Y172472
X062253Y169935
X058669Y169771
X059240Y163909
X056966Y175815
X048663Y169998
X037280Y167575
X009435Y194418
X003109Y193549
X014813Y200622
X010197Y206214
X028557Y197848
X031509Y197848
X039613Y197848
X042330Y197848
X045047Y197848
X047765Y197848
X063284Y212269
X106121Y212567
X116262Y211427
X116262Y207757
X116262Y204087
X116262Y215097
X116262Y218767
X116262Y222437
X105699Y221423
X103315Y221423
X100931Y221423
X100534Y253970
X038631Y250925
X034903Y250925
X031175Y250925
X027448Y250925
X011688Y281047
X009354Y281047
X007020Y281047
X029372Y279726
X032534Y279726
X035699Y279726
X038863Y279726
X038586Y288058
X035612Y288058
X032639Y288058
X029666Y288058
X031294Y269277
X035178Y269277
X039062Y269277
X027410Y269277
X023526Y269277
X057013Y258551
X070723Y260608
X070752Y263134
X073311Y278868
X071647Y281459
X075178Y281935
X097875Y277433
X101074Y273356
X107486Y272731
X107486Y275129
X107486Y277527
X100534Y262714
X100534Y257204
X227320Y024864
X229835Y024864
X232351Y024864
X234867Y024864
X205461Y023353
X189566Y024472
X184253Y021935
X180668Y021771
X181240Y015908
X178966Y027814
X170663Y021997
X159280Y019575
X131435Y046418
X125109Y045549
X136813Y052622
X132197Y058214
X150557Y049848
X153509Y049848
X161613Y049848
X164330Y049848
X167047Y049848
X169765Y049848
X185284Y064269
X228120Y064568
X238262Y063427
X238262Y059757
X238262Y056087
X238262Y067097
X238262Y070767
X238262Y074437
X227699Y073423
X225315Y073423
X222930Y073423
X222534Y105970
X160631Y102925
X156903Y102925
X153175Y102925
X149448Y102925
X133688Y133047
X131353Y133047
X129020Y133047
X151372Y131726
X154535Y131726
X157699Y131726
X160863Y131726
X160586Y140058
X157612Y140058
X154639Y140058
X151666Y140058
X153294Y121277
X157178Y121277
X161062Y121277
X149410Y121277
X145526Y121277
X179013Y110551
X192723Y112609
X192752Y115134
X195311Y130868
X193647Y133459
X197178Y133935
X219875Y129434
X223074Y125356
X229486Y124731
X229486Y127129
X229486Y129526
X222534Y114714
X222534Y109205
X227320Y172864
X229835Y172864
X232351Y172864
X234867Y172864
X205461Y171353
X189566Y172472
X184253Y169935
X180668Y169771
X181240Y163909
X178966Y175815
X170663Y169998
X159280Y167575
X131435Y194418
X125109Y193549
X136813Y200622
X132197Y206214
X150557Y197848
X153509Y197848
X161613Y197848
X164330Y197848
X167047Y197848
X169765Y197848
X185284Y212269
X228120Y212567
X238262Y211427
X238262Y207757
X238262Y204087
X238262Y215097
X238262Y218767
X238262Y222437
X227699Y221423
X225315Y221423
X222930Y221423
X222534Y253970
X160631Y250925
X156903Y250925
X153175Y250925
X149448Y250925
X133688Y281047
X131353Y281047
X129020Y281047
X151372Y279726
X154535Y279726
X157699Y279726
X160863Y279726
X160586Y288058
X157612Y288058
X154639Y288058
X151666Y288058
X153294Y269277
X157178Y269277
X161062Y269277
X149410Y269277
X145526Y269277
X179013Y258551
X192723Y260608
X192752Y263134
X195311Y278868
X193647Y281459
X197178Y281935
X219875Y277433
X223074Y273356
X229486Y272731
X229486Y275129
X229486Y277527
X222534Y262714
X222534Y257204
T04
X002604Y049432
X005144Y049432
X009716Y049431
X012256Y049431
X094552Y049432
X097092Y049432
X102172Y049432
X104712Y049432
X106744Y120552
X109284Y120552
X113856Y120552
X116396Y120552
X002604Y197432
X005144Y197432
X009716Y197431
X012256Y197431
X094552Y197432
X097092Y197432
X102172Y197432
X104712Y197432
X106744Y268552
X109284Y268552
X113856Y268552
X116396Y268552
X124604Y049432
X127144Y049432
X131716Y049431
X134256Y049431
X216552Y049432
X219091Y049432
X224172Y049432
X226712Y049432
X228744Y120552
X231284Y120552
X235856Y120552
X238396Y120552
X124604Y197432
X127144Y197432
X131716Y197431
X134256Y197431
X216552Y197432
X219091Y197432
X224172Y197432
X226712Y197432
X228744Y268552
X231284Y268552
X235856Y268552
X238396Y268552
T05
X054420Y067720
X056960Y067720
X059500Y067720
X062040Y067720
X064580Y067720
X116396Y080420
X116396Y082960
X116396Y085500
X116396Y088040
X116396Y090580
X073216Y150524
X073216Y153064
X073216Y155604
X054420Y215720
X056960Y215720
X059500Y215720
X062040Y215720
X064580Y215720
X116396Y228420
X116396Y230959
X116396Y233500
X116396Y236040
X116396Y238579
X073216Y298524
X073216Y301063
X073216Y303604
X176420Y067720
X178960Y067720
X181500Y067720
X184040Y067720
X186579Y067720
X238396Y080420
X238396Y082960
X238396Y085500
X238396Y088040
X238396Y090580
X195216Y150524
X195216Y153064
X195216Y155604
X176420Y215720
X178960Y215720
X181500Y215720
X184040Y215720
X186579Y215720
X238396Y228420
X238396Y230959
X238396Y233500
X238396Y236040
X238396Y238579
X195216Y298524
X195216Y301063
X195216Y303604
T06
X065087Y016666
X067628Y016666
X067628Y019206
X070168Y019206
X072708Y019206
X072708Y016666
X070168Y016666
X075248Y016666
X075248Y019206
X065087Y019206
X086424Y019206
X088964Y019206
X088964Y016666
X091504Y016666
X094044Y016666
X094044Y019206
X091504Y019206
X096584Y019206
X096584Y016666
X086424Y016666
X053912Y016666
X051372Y016666
X051372Y019206
X048832Y019206
X046292Y019206
X046292Y016666
X048832Y016666
X043752Y016666
X043752Y019206
X053912Y019206
X032576Y019206
X030036Y019206
X030036Y016666
X027496Y016666
X024956Y016666
X024956Y019206
X027496Y019206
X022416Y019206
X022416Y016666
X032576Y016666
X059500Y151286
X059500Y153826
X062040Y153826
X064580Y153826
X064580Y151286
X062040Y151286
X056960Y151286
X054420Y151286
X054420Y153826
X056960Y153826
X065087Y164666
X067628Y164666
X067628Y167206
X070168Y167206
X072708Y167206
X072708Y164666
X070168Y164666
X075248Y164666
X075248Y167206
X065087Y167206
X086424Y167206
X088964Y167206
X088964Y164666
X091504Y164666
X094044Y164666
X094044Y167206
X091504Y167206
X096584Y167206
X096584Y164666
X086424Y164666
X053912Y164666
X051372Y164666
X051372Y167206
X048832Y167206
X046292Y167206
X046292Y164666
X048832Y164666
X043752Y164666
X043752Y167206
X053912Y167206
X032576Y167206
X030036Y167206
X030036Y164666
X027496Y164666
X024956Y164666
X024956Y167206
X027496Y167206
X022416Y167206
X022416Y164666
X032576Y164666
X059500Y299286
X059500Y301826
X062040Y301826
X064580Y301826
X064580Y299286
X062040Y299286
X056960Y299286
X054420Y299286
X054420Y301826
X056960Y301826
X187088Y016666
X189628Y016666
X189628Y019206
X192168Y019206
X194708Y019206
X194708Y016666
X192168Y016666
X197248Y016666
X197248Y019206
X187088Y019206
X208424Y019206
X210964Y019206
X210964Y016666
X213504Y016666
X216043Y016666
X216043Y019206
X213504Y019206
X218584Y019206
X218584Y016666
X208424Y016666
X175912Y016666
X173372Y016666
X173372Y019206
X170832Y019206
X168292Y019206
X168292Y016666
X170832Y016666
X165752Y016666
X165752Y019206
X175912Y019206
X154576Y019206
X152036Y019206
X152036Y016666
X149496Y016666
X146956Y016666
X146956Y019206
X149496Y019206
X144416Y019206
X144416Y016666
X154576Y016666
X181500Y151286
X181500Y153826
X184040Y153826
X186579Y153826
X186579Y151286
X184040Y151286
X178960Y151286
X176420Y151286
X176420Y153826
X178960Y153826
X187088Y164666
X189628Y164666
X189628Y167206
X192168Y167206
X194708Y167206
X194708Y164666
X192168Y164666
X197248Y164666
X197248Y167206
X187088Y167206
X208424Y167206
X210964Y167206
X210964Y164666
X213504Y164666
X216043Y164666
X216043Y167206
X213504Y167206
X218584Y167206
X218584Y164666
X208424Y164666
X175912Y164666
X173372Y164666
X173372Y167206
X170832Y167206
X168292Y167206
X168292Y164666
X170832Y164666
X165752Y164666
X165752Y167206
X175912Y167206
X154576Y167206
X152036Y167206
X152036Y164666
X149496Y164666
X146956Y164666
X146956Y167206
X149496Y167206
X144416Y167206
X144416Y164666
X154576Y164666
X181500Y299286
X181500Y301826
X184040Y301826
X186579Y301826
X186579Y299286
X184040Y299286
X178960Y299286
X176420Y299286
X176420Y301826
X178960Y301826
T07
X100180Y101756
X105180Y101756
X069660Y088000
X069660Y083000
X083376Y151032
X088456Y151032
X085916Y156112
X100180Y249756
X105180Y249756
X069660Y236000
X069660Y231000
X083376Y299032
X088456Y299032
X085916Y304111
X222180Y101756
X227180Y101756
X191660Y088000
X191660Y083000
X205376Y151032
X210456Y151032
X207916Y156112
X222180Y249756
X227180Y249756
X191660Y236000
X191660Y231000
X205376Y299032
X210456Y299032
X207916Y304111
T08
X017804Y101756
X012804Y101756
X020892Y148238
X025972Y148238
X031052Y148238
X036640Y148238
X079312Y148238
X079312Y155858
X036640Y155858
X031052Y155858
X025972Y155858
X020892Y155858
X017804Y249756
X012804Y249756
X020892Y296238
X025972Y296238
X031052Y296238
X036640Y296238
X079312Y296238
X079312Y303858
X036640Y303858
X031052Y303858
X025972Y303858
X020892Y303858
X139804Y101756
X134804Y101756
X142892Y148238
X147972Y148238
X153052Y148238
X158640Y148238
X201312Y148238
X201312Y155858
X158640Y155858
X153052Y155858
X147972Y155858
X142892Y155858
X139804Y249756
X134804Y249756
X142892Y296238
X147972Y296238
X153052Y296238
X158640Y296238
X201312Y296238
X201312Y303858
X158640Y303858
X153052Y303858
X147972Y303858
X142892Y303858
T09
X099284Y154080
X104284Y154080
X109284Y154080
X094284Y154080
X014796Y154080
X009796Y154080
X099284Y302080
X104284Y302080
X109284Y302080
X094284Y302080
X014796Y302080
X009796Y302080
X221284Y154080
X226284Y154080
X231284Y154080
X216284Y154080
X136796Y154080
X131796Y154080
X221284Y302080
X226284Y302080
X231284Y302080
X216284Y302080
X136796Y302080
X131796Y302080
T10
X004340Y032174
X009420Y032174
X014500Y032174
X019580Y032174
X024660Y032174
X094340Y032174
X099420Y032174
X104500Y032174
X109580Y032174
X114660Y032174
X014500Y139175
X009420Y139175
X004340Y139175
X019580Y139175
X024660Y139175
X094340Y139175
X099420Y139175
X104500Y139175
X109580Y139175
X114660Y139175
X004340Y180175
X009420Y180175
X014500Y180175
X019580Y180175
X024660Y180175
X094340Y180175
X099420Y180175
X104500Y180175
X109580Y180175
X114660Y180175
X014500Y287175
X009420Y287175
X004340Y287175
X019580Y287175
X024660Y287175
X094340Y287175
X099420Y287175
X104500Y287175
X109580Y287175
X114660Y287175
X126340Y032174
X131420Y032174
X136500Y032174
X141579Y032174
X146660Y032174
X216340Y032174
X221420Y032174
X226500Y032174
X231579Y032174
X236660Y032174
X136500Y139175
X131420Y139175
X126340Y139175
X141579Y139175
X146660Y139175
X216340Y139175
X221420Y139175
X226500Y139175
X231579Y139175
X236660Y139175
X126340Y180175
X131420Y180175
X136500Y180175
X141579Y180175
X146660Y180175
X216340Y180175
X221420Y180175
X226500Y180175
X231579Y180175
X236660Y180175
X136500Y287175
X131420Y287175
X126340Y287175
X141579Y287175
X146660Y287175
X216340Y287175
X221420Y287175
X226500Y287175
X231579Y287175
X236660Y287175
T11
X116000Y016000
X003000Y016000
X116000Y155000
X085950Y153000
X003000Y155000
X116000Y164000
X003000Y164000
X116000Y303000
X085950Y301000
X003000Y303000
X238000Y016000
X125000Y016000
X238000Y155000
X207950Y153000
X125000Y155000
X238000Y164000
X125000Y164000
X238000Y303000
X207950Y301000
X125000Y303000
X236000Y314000
X005000Y314000
X005000Y005000
X236000Y005000
T12
X011429Y012750
X012429Y012750
X013429Y012750
X014429Y012750
X014785Y010250
X013785Y010250
X012785Y010250
X011785Y010250
X010785Y010250
X009785Y010250
X048429Y012750
X049429Y012750
X050429Y012750
X051429Y012750
X051785Y010250
X050785Y010250
X049785Y010250
X048785Y010250
X047785Y010250
X046785Y010250
X088429Y012750
X089429Y012750
X090429Y012750
X091429Y012750
X092429Y012750
X092785Y010250
X091785Y010250
X090785Y010250
X089785Y010250
X088785Y010250
X087785Y010250
X218429Y012750
X219429Y012750
X220429Y012750
X221429Y012750
X222785Y010250
X221785Y010250
X220785Y010250
X219785Y010250
X218785Y010250
X217785Y010250
X178429Y012750
X179429Y012750
X180429Y012750
X181429Y012750
X182429Y012750
X183429Y012750
X182785Y010250
X181785Y010250
X180785Y010250
X179785Y010250
X178785Y010250
X142429Y012750
X143429Y012750
X144429Y012750
X145429Y012750
X146429Y012750
X146785Y010250
X145785Y010250
X144785Y010250
X143785Y010250
X142785Y010250
X141785Y010250
X016785Y306250
X015785Y306250
X014785Y306250
X013785Y306250
X012785Y306250
X012429Y308750
X013429Y308750
X014429Y308750
X015429Y308750
X016429Y308750
X223785Y306250
X222785Y306250
X221785Y306250
X220785Y306250
X219429Y308750
X220429Y308750
X221429Y308750
X222429Y308750
X223429Y308750
X224429Y308750
X146785Y306250
X145785Y306250
X144785Y306250
X143785Y306250
X142785Y306250
X142429Y308750
X143429Y308750
X144429Y308750
X145429Y308750
X146429Y308750
X147429Y308750
X181785Y306250
X180785Y306250
X179785Y306250
X178785Y306250
X177785Y306250
X177429Y308750
X178429Y308750
X179429Y308750
X180429Y308750
X181429Y308750
X182429Y308750
X094785Y306250
X093785Y306250
X092785Y306250
X091785Y306250
X090429Y308750
X091429Y308750
X092429Y308750
X093429Y308750
X094429Y308750
X095429Y308750
X055785Y306250
X054785Y306250
X053785Y306250
X052785Y306250
X051785Y306250
X051429Y308750
X052429Y308750
X053429Y308750
X054429Y308750
X055429Y308750
X056429Y308750
X225785Y158250
X224785Y158250
X223785Y158250
X222785Y158250
X221785Y158250
X220785Y158250
X222429Y160750
X223429Y160750
X146785Y158250
X145785Y158250
X144785Y158250
X143785Y158250
X142785Y158250
X142429Y160750
X143429Y160750
X144429Y160750
X145429Y160750
X146429Y160750
X147429Y160750
X180785Y158250
X179785Y158250
X178785Y158250
X177785Y158250
X176785Y158250
X175785Y158250
X176429Y160750
X177429Y160750
X178429Y160750
X179429Y160750
X180429Y160750
X017785Y158250
X016785Y158250
X015785Y158250
X014785Y158250
X013785Y158250
X012785Y158250
X013429Y160750
X014429Y160750
X015429Y160750
X016429Y160750
X093785Y158250
X092785Y158250
X091785Y158250
X090785Y158250
X089785Y158250
X089429Y160750
X090429Y160750
X091429Y160750
X092429Y160750
X093429Y160750
X094429Y160750
X055785Y158250
X054785Y158250
X053785Y158250
X052785Y158250
X051785Y158250
X050785Y158250
X051429Y160750
X052429Y160750
X053429Y160750
X054429Y160750
X055429Y160750
X119250Y126607
X119250Y127607
X119250Y128607
X119250Y129607
X121750Y130178
X121750Y129178
X121750Y128178
X121750Y127178
X121750Y126178
X121750Y125178
X119250Y049607
X119250Y050607
X119250Y051607
X119250Y052607
X121750Y053178
X121750Y052178
X121750Y051178
X121750Y050178
X121750Y049178
X121750Y048178
X119250Y273607
X119250Y274607
X119250Y275607
X119250Y276607
X119250Y277607
X119250Y278607
X121750Y278178
X121750Y277178
X121750Y276178
X121750Y275178
X121750Y274178
X119250Y184607
X119250Y185607
X119250Y186607
X119250Y187607
X119250Y188607
X121750Y189178
X121750Y188178
X121750Y187178
X121750Y186178
X121750Y185178
X121750Y184178
M30