%MOIN*%
%OFA0B0*%
%FSLAX44Y44*%
%IPPOS*%
%LPD*%
%AMOVALD80*
21,1,0.057086614173228349,0.031622047244094488,0,0,315*
1,1,0.031622047244094488,-0.020185039370078744,0.020185039370078744*
1,1,0.031622047244094488,0.020185039370078744,-0.020185039370078744*%
%AMCOMP581*
4,1,3,
-0.031363248019085216,0.009003083977784633,
0.0090030839777846174,-0.031363248019085216,
0.031363248019085216,-0.009003083977784633,
-0.0090030839777846174,0.031363248019085216,
0*
4,1,19,
-0.020185039370078744,0.035996062992125988,
-0.01529916437240241,0.035222216415123374,
-0.01089155286139145,0.0329764261787787,
-0.007393652561378786,0.029478525878766038,
-0.0051478623250341094,0.025070914367755076,
-0.0043740157480314972,0.020185039370078744,
-0.0051478623250341068,0.01529916437240241,
-0.007393652561378786,0.010891552861391452,
-0.010891552861391448,0.0073936525613787878,
-0.015299164372402408,0.0051478623250341094,
-0.020185039370078744,0.0043740157480314972,
-0.02507091436775508,0.0051478623250341094,
-0.029478525878766034,0.0073936525613787834,
-0.032976426178778696,0.010891552861391448,
-0.035222216415123374,0.015299164372402405,
-0.035996062992125988,0.02018503937007874,
-0.035222216415123374,0.025070914367755076,
-0.0329764261787787,0.029478525878766034,
-0.029478525878766038,0.032976426178778696,
-0.02507091436775508,0.035222216415123374,
0*
4,1,19,
0.020185039370078744,-0.0043740157480314972,
0.025070914367755076,-0.0051478623250341094,
0.029478525878766038,-0.007393652561378786,
0.0329764261787787,-0.01089155286139145,
0.035222216415123374,-0.015299164372402408,
0.035996062992125988,-0.020185039370078744,
0.035222216415123374,-0.025070914367755076,
0.0329764261787787,-0.029478525878766034,
0.029478525878766038,-0.032976426178778696,
0.025070914367755076,-0.035222216415123374,
0.020185039370078744,-0.035996062992125988,
0.015299164372402403,-0.035222216415123374,
0.010891552861391452,-0.0329764261787787,
0.0073936525613787878,-0.029478525878766038,
0.0051478623250341094,-0.02507091436775508,
0.0043740157480314972,-0.020185039370078747,
0.0051478623250341068,-0.015299164372402412,
0.0073936525613787834,-0.010891552861391452,
0.010891552861391448,-0.0073936525613787878,
0.015299164372402405,-0.0051478623250341094,
0*%
%AMOVALD81*
21,1,0.057086614173228349,0.031622047244094488,0,0,45*
1,1,0.031622047244094488,-0.020185039370078744,-0.020185039370078744*
1,1,0.031622047244094488,0.020185039370078744,0.020185039370078744*%
%AMCOMP582*
4,1,3,
-0.0090030839777846261,-0.031363248019085216,
0.031363248019085216,0.0090030839777846244,
0.0090030839777846261,0.031363248019085216,
-0.031363248019085216,-0.0090030839777846244,
0*
4,1,19,
-0.020185039370078744,-0.0043740157480314972,
-0.01529916437240241,-0.0051478623250341094,
-0.01089155286139145,-0.007393652561378786,
-0.007393652561378786,-0.01089155286139145,
-0.0051478623250341094,-0.015299164372402408,
-0.0043740157480314972,-0.020185039370078744,
-0.0051478623250341068,-0.025070914367755076,
-0.007393652561378786,-0.029478525878766034,
-0.010891552861391448,-0.032976426178778696,
-0.015299164372402408,-0.035222216415123374,
-0.020185039370078744,-0.035996062992125988,
-0.02507091436775508,-0.035222216415123374,
-0.029478525878766034,-0.0329764261787787,
-0.032976426178778696,-0.029478525878766038,
-0.035222216415123374,-0.02507091436775508,
-0.035996062992125988,-0.020185039370078747,
-0.035222216415123374,-0.015299164372402412,
-0.0329764261787787,-0.010891552861391452,
-0.029478525878766038,-0.0073936525613787878,
-0.02507091436775508,-0.0051478623250341094,
0*
4,1,19,
0.020185039370078744,0.035996062992125988,
0.025070914367755076,0.035222216415123374,
0.029478525878766038,0.0329764261787787,
0.0329764261787787,0.029478525878766038,
0.035222216415123374,0.025070914367755076,
0.035996062992125988,0.020185039370078744,
0.035222216415123374,0.01529916437240241,
0.0329764261787787,0.010891552861391452,
0.029478525878766038,0.0073936525613787878,
0.025070914367755076,0.0051478623250341094,
0.020185039370078744,0.0043740157480314972,
0.015299164372402403,0.0051478623250341094,
0.010891552861391452,0.0073936525613787834,
0.0073936525613787878,0.010891552861391448,
0.0051478623250341094,0.015299164372402405,
0.0043740157480314972,0.02018503937007874,
0.0051478623250341068,0.025070914367755076,
0.0073936525613787834,0.029478525878766034,
0.010891552861391448,0.032976426178778696,
0.015299164372402405,0.035222216415123374,
0*%
%AMOVALD800*
21,1,0.057086614173228349,0.031622047244094488,0,0,315*
1,1,0.031622047244094488,-0.020185039370078744,0.020185039370078744*
1,1,0.031622047244094488,0.020185039370078744,-0.020185039370078744*%
%AMCOMP5870*
4,1,3,
-0.031363248019085216,0.009003083977784633,
0.0090030839777846174,-0.031363248019085216,
0.031363248019085216,-0.009003083977784633,
-0.0090030839777846174,0.031363248019085216,
0*
4,1,19,
-0.020185039370078744,0.035996062992125988,
-0.01529916437240241,0.035222216415123374,
-0.01089155286139145,0.0329764261787787,
-0.007393652561378786,0.029478525878766038,
-0.0051478623250341094,0.025070914367755076,
-0.0043740157480314972,0.020185039370078744,
-0.0051478623250341068,0.01529916437240241,
-0.007393652561378786,0.010891552861391452,
-0.010891552861391448,0.0073936525613787878,
-0.015299164372402408,0.0051478623250341094,
-0.020185039370078744,0.0043740157480314972,
-0.02507091436775508,0.0051478623250341094,
-0.029478525878766034,0.0073936525613787834,
-0.032976426178778696,0.010891552861391448,
-0.035222216415123374,0.015299164372402405,
-0.035996062992125988,0.02018503937007874,
-0.035222216415123374,0.025070914367755076,
-0.0329764261787787,0.029478525878766034,
-0.029478525878766038,0.032976426178778696,
-0.02507091436775508,0.035222216415123374,
0*
4,1,19,
0.020185039370078744,-0.0043740157480314972,
0.025070914367755076,-0.0051478623250341094,
0.029478525878766038,-0.007393652561378786,
0.0329764261787787,-0.01089155286139145,
0.035222216415123374,-0.015299164372402408,
0.035996062992125988,-0.020185039370078744,
0.035222216415123374,-0.025070914367755076,
0.0329764261787787,-0.029478525878766034,
0.029478525878766038,-0.032976426178778696,
0.025070914367755076,-0.035222216415123374,
0.020185039370078744,-0.035996062992125988,
0.015299164372402403,-0.035222216415123374,
0.010891552861391452,-0.0329764261787787,
0.0073936525613787878,-0.029478525878766038,
0.0051478623250341094,-0.02507091436775508,
0.0043740157480314972,-0.020185039370078747,
0.0051478623250341068,-0.015299164372402412,
0.0073936525613787834,-0.010891552861391452,
0.010891552861391448,-0.0073936525613787878,
0.015299164372402405,-0.0051478623250341094,
0*%
%AMOVALD810*
21,1,0.057086614173228349,0.031622047244094488,0,0,45*
1,1,0.031622047244094488,-0.020185039370078744,-0.020185039370078744*
1,1,0.031622047244094488,0.020185039370078744,0.020185039370078744*%
%AMCOMP5880*
4,1,3,
-0.0090030839777846261,-0.031363248019085216,
0.031363248019085216,0.0090030839777846244,
0.0090030839777846261,0.031363248019085216,
-0.031363248019085216,-0.0090030839777846244,
0*
4,1,19,
-0.020185039370078744,-0.0043740157480314972,
-0.01529916437240241,-0.0051478623250341094,
-0.01089155286139145,-0.007393652561378786,
-0.007393652561378786,-0.01089155286139145,
-0.0051478623250341094,-0.015299164372402408,
-0.0043740157480314972,-0.020185039370078744,
-0.0051478623250341068,-0.025070914367755076,
-0.007393652561378786,-0.029478525878766034,
-0.010891552861391448,-0.032976426178778696,
-0.015299164372402408,-0.035222216415123374,
-0.020185039370078744,-0.035996062992125988,
-0.02507091436775508,-0.035222216415123374,
-0.029478525878766034,-0.0329764261787787,
-0.032976426178778696,-0.029478525878766038,
-0.035222216415123374,-0.02507091436775508,
-0.035996062992125988,-0.020185039370078747,
-0.035222216415123374,-0.015299164372402412,
-0.0329764261787787,-0.010891552861391452,
-0.029478525878766038,-0.0073936525613787878,
-0.02507091436775508,-0.0051478623250341094,
0*
4,1,19,
0.020185039370078744,0.035996062992125988,
0.025070914367755076,0.035222216415123374,
0.029478525878766038,0.0329764261787787,
0.0329764261787787,0.029478525878766038,
0.035222216415123374,0.025070914367755076,
0.035996062992125988,0.020185039370078744,
0.035222216415123374,0.01529916437240241,
0.0329764261787787,0.010891552861391452,
0.029478525878766038,0.0073936525613787878,
0.025070914367755076,0.0051478623250341094,
0.020185039370078744,0.0043740157480314972,
0.015299164372402403,0.0051478623250341094,
0.010891552861391452,0.0073936525613787834,
0.0073936525613787878,0.010891552861391448,
0.0051478623250341094,0.015299164372402405,
0.0043740157480314972,0.02018503937007874,
0.0051478623250341068,0.025070914367755076,
0.0073936525613787834,0.029478525878766034,
0.010891552861391448,0.032976426178778696,
0.015299164372402405,0.035222216415123374,
0*%
%AMOVALD801*
21,1,0.057086614173228349,0.031622047244094488,0,0,315*
1,1,0.031622047244094488,-0.020185039370078744,0.020185039370078744*
1,1,0.031622047244094488,0.020185039370078744,-0.020185039370078744*%
%AMCOMP5930*
4,1,3,
-0.031363248019085216,0.009003083977784633,
0.0090030839777846174,-0.031363248019085216,
0.031363248019085216,-0.009003083977784633,
-0.0090030839777846174,0.031363248019085216,
0*
4,1,19,
-0.020185039370078744,0.035996062992125988,
-0.01529916437240241,0.035222216415123374,
-0.01089155286139145,0.0329764261787787,
-0.007393652561378786,0.029478525878766038,
-0.0051478623250341094,0.025070914367755076,
-0.0043740157480314972,0.020185039370078744,
-0.0051478623250341068,0.01529916437240241,
-0.007393652561378786,0.010891552861391452,
-0.010891552861391448,0.0073936525613787878,
-0.015299164372402408,0.0051478623250341094,
-0.020185039370078744,0.0043740157480314972,
-0.02507091436775508,0.0051478623250341094,
-0.029478525878766034,0.0073936525613787834,
-0.032976426178778696,0.010891552861391448,
-0.035222216415123374,0.015299164372402405,
-0.035996062992125988,0.02018503937007874,
-0.035222216415123374,0.025070914367755076,
-0.0329764261787787,0.029478525878766034,
-0.029478525878766038,0.032976426178778696,
-0.02507091436775508,0.035222216415123374,
0*
4,1,19,
0.020185039370078744,-0.0043740157480314972,
0.025070914367755076,-0.0051478623250341094,
0.029478525878766038,-0.007393652561378786,
0.0329764261787787,-0.01089155286139145,
0.035222216415123374,-0.015299164372402408,
0.035996062992125988,-0.020185039370078744,
0.035222216415123374,-0.025070914367755076,
0.0329764261787787,-0.029478525878766034,
0.029478525878766038,-0.032976426178778696,
0.025070914367755076,-0.035222216415123374,
0.020185039370078744,-0.035996062992125988,
0.015299164372402403,-0.035222216415123374,
0.010891552861391452,-0.0329764261787787,
0.0073936525613787878,-0.029478525878766038,
0.0051478623250341094,-0.02507091436775508,
0.0043740157480314972,-0.020185039370078747,
0.0051478623250341068,-0.015299164372402412,
0.0073936525613787834,-0.010891552861391452,
0.010891552861391448,-0.0073936525613787878,
0.015299164372402405,-0.0051478623250341094,
0*%
%AMOVALD811*
21,1,0.057086614173228349,0.031622047244094488,0,0,45*
1,1,0.031622047244094488,-0.020185039370078744,-0.020185039370078744*
1,1,0.031622047244094488,0.020185039370078744,0.020185039370078744*%
%AMCOMP5940*
4,1,3,
-0.0090030839777846261,-0.031363248019085216,
0.031363248019085216,0.0090030839777846244,
0.0090030839777846261,0.031363248019085216,
-0.031363248019085216,-0.0090030839777846244,
0*
4,1,19,
-0.020185039370078744,-0.0043740157480314972,
-0.01529916437240241,-0.0051478623250341094,
-0.01089155286139145,-0.007393652561378786,
-0.007393652561378786,-0.01089155286139145,
-0.0051478623250341094,-0.015299164372402408,
-0.0043740157480314972,-0.020185039370078744,
-0.0051478623250341068,-0.025070914367755076,
-0.007393652561378786,-0.029478525878766034,
-0.010891552861391448,-0.032976426178778696,
-0.015299164372402408,-0.035222216415123374,
-0.020185039370078744,-0.035996062992125988,
-0.02507091436775508,-0.035222216415123374,
-0.029478525878766034,-0.0329764261787787,
-0.032976426178778696,-0.029478525878766038,
-0.035222216415123374,-0.02507091436775508,
-0.035996062992125988,-0.020185039370078747,
-0.035222216415123374,-0.015299164372402412,
-0.0329764261787787,-0.010891552861391452,
-0.029478525878766038,-0.0073936525613787878,
-0.02507091436775508,-0.0051478623250341094,
0*
4,1,19,
0.020185039370078744,0.035996062992125988,
0.025070914367755076,0.035222216415123374,
0.029478525878766038,0.0329764261787787,
0.0329764261787787,0.029478525878766038,
0.035222216415123374,0.025070914367755076,
0.035996062992125988,0.020185039370078744,
0.035222216415123374,0.01529916437240241,
0.0329764261787787,0.010891552861391452,
0.029478525878766038,0.0073936525613787878,
0.025070914367755076,0.0051478623250341094,
0.020185039370078744,0.0043740157480314972,
0.015299164372402403,0.0051478623250341094,
0.010891552861391452,0.0073936525613787834,
0.0073936525613787878,0.010891552861391448,
0.0051478623250341094,0.015299164372402405,
0.0043740157480314972,0.02018503937007874,
0.0051478623250341068,0.025070914367755076,
0.0073936525613787834,0.029478525878766034,
0.010891552861391448,0.032976426178778696,
0.015299164372402405,0.035222216415123374,
0*%
%AMOVALD800*
21,1,0.057086614173228349,0.031622047244094488,0,0,315*
1,1,0.031622047244094488,-0.020185039370078744,0.020185039370078744*
1,1,0.031622047244094488,0.020185039370078744,-0.020185039370078744*%
%AMCOMP5990*
4,1,3,
-0.031363248019085216,0.009003083977784633,
0.0090030839777846174,-0.031363248019085216,
0.031363248019085216,-0.009003083977784633,
-0.0090030839777846174,0.031363248019085216,
0*
4,1,19,
-0.020185039370078744,0.035996062992125988,
-0.01529916437240241,0.035222216415123374,
-0.01089155286139145,0.0329764261787787,
-0.007393652561378786,0.029478525878766038,
-0.0051478623250341094,0.025070914367755076,
-0.0043740157480314972,0.020185039370078744,
-0.0051478623250341068,0.01529916437240241,
-0.007393652561378786,0.010891552861391452,
-0.010891552861391448,0.0073936525613787878,
-0.015299164372402408,0.0051478623250341094,
-0.020185039370078744,0.0043740157480314972,
-0.02507091436775508,0.0051478623250341094,
-0.029478525878766034,0.0073936525613787834,
-0.032976426178778696,0.010891552861391448,
-0.035222216415123374,0.015299164372402405,
-0.035996062992125988,0.02018503937007874,
-0.035222216415123374,0.025070914367755076,
-0.0329764261787787,0.029478525878766034,
-0.029478525878766038,0.032976426178778696,
-0.02507091436775508,0.035222216415123374,
0*
4,1,19,
0.020185039370078744,-0.0043740157480314972,
0.025070914367755076,-0.0051478623250341094,
0.029478525878766038,-0.007393652561378786,
0.0329764261787787,-0.01089155286139145,
0.035222216415123374,-0.015299164372402408,
0.035996062992125988,-0.020185039370078744,
0.035222216415123374,-0.025070914367755076,
0.0329764261787787,-0.029478525878766034,
0.029478525878766038,-0.032976426178778696,
0.025070914367755076,-0.035222216415123374,
0.020185039370078744,-0.035996062992125988,
0.015299164372402403,-0.035222216415123374,
0.010891552861391452,-0.0329764261787787,
0.0073936525613787878,-0.029478525878766038,
0.0051478623250341094,-0.02507091436775508,
0.0043740157480314972,-0.020185039370078747,
0.0051478623250341068,-0.015299164372402412,
0.0073936525613787834,-0.010891552861391452,
0.010891552861391448,-0.0073936525613787878,
0.015299164372402405,-0.0051478623250341094,
0*%
%AMOVALD810*
21,1,0.057086614173228349,0.031622047244094488,0,0,45*
1,1,0.031622047244094488,-0.020185039370078744,-0.020185039370078744*
1,1,0.031622047244094488,0.020185039370078744,0.020185039370078744*%
%AMCOMP6000*
4,1,3,
-0.0090030839777846261,-0.031363248019085216,
0.031363248019085216,0.0090030839777846244,
0.0090030839777846261,0.031363248019085216,
-0.031363248019085216,-0.0090030839777846244,
0*
4,1,19,
-0.020185039370078744,-0.0043740157480314972,
-0.01529916437240241,-0.0051478623250341094,
-0.01089155286139145,-0.007393652561378786,
-0.007393652561378786,-0.01089155286139145,
-0.0051478623250341094,-0.015299164372402408,
-0.0043740157480314972,-0.020185039370078744,
-0.0051478623250341068,-0.025070914367755076,
-0.007393652561378786,-0.029478525878766034,
-0.010891552861391448,-0.032976426178778696,
-0.015299164372402408,-0.035222216415123374,
-0.020185039370078744,-0.035996062992125988,
-0.02507091436775508,-0.035222216415123374,
-0.029478525878766034,-0.0329764261787787,
-0.032976426178778696,-0.029478525878766038,
-0.035222216415123374,-0.02507091436775508,
-0.035996062992125988,-0.020185039370078747,
-0.035222216415123374,-0.015299164372402412,
-0.0329764261787787,-0.010891552861391452,
-0.029478525878766038,-0.0073936525613787878,
-0.02507091436775508,-0.0051478623250341094,
0*
4,1,19,
0.020185039370078744,0.035996062992125988,
0.025070914367755076,0.035222216415123374,
0.029478525878766038,0.0329764261787787,
0.0329764261787787,0.029478525878766038,
0.035222216415123374,0.025070914367755076,
0.035996062992125988,0.020185039370078744,
0.035222216415123374,0.01529916437240241,
0.0329764261787787,0.010891552861391452,
0.029478525878766038,0.0073936525613787878,
0.025070914367755076,0.0051478623250341094,
0.020185039370078744,0.0043740157480314972,
0.015299164372402403,0.0051478623250341094,
0.010891552861391452,0.0073936525613787834,
0.0073936525613787878,0.010891552861391448,
0.0051478623250341094,0.015299164372402405,
0.0043740157480314972,0.02018503937007874,
0.0051478623250341068,0.025070914367755076,
0.0073936525613787834,0.029478525878766034,
0.010891552861391448,0.032976426178778696,
0.015299164372402405,0.035222216415123374,
0*%
%ADD62C,0.12611023622047243*%
%ADD63R,0.074929133858267716X0.074929133858267716*%
%ADD64C,0.098551181102362218*%
%ADD65C,0.063118110236220479*%
%ADD66C,0.070992125984251975*%
%ADD67R,0.070992125984251975X0.070992125984251975*%
%ADD68C,0.078866141732283471*%
%ADD69R,0.078866141732283471X0.078866141732283471*%
%ADD70C,0.086740157480314953*%
%ADD71R,0.086740157480314953X0.086740157480314953*%
%ADD72R,0.078866141732283471X0.078866141732283471*%
%ADD73R,0.086740157480314953X0.086740157480314953*%
%ADD74R,0.10248818897637797X0.10248818897637797*%
%ADD75C,0.10248818897637797*%
%ADD76O,0.12611023622047243X0.16548031496062993*%
%ADD77R,0.12611023622047243X0.16548031496062993*%
%ADD78C,0.094614173228346463*%
%ADD79O,0.11036220472440945X0.035559055118110236*%
%AMCOMP617*
4,1,3,
-0.031363248019085216,0.009003083977784633,
0.0090030839777846174,-0.031363248019085216,
0.031363248019085216,-0.009003083977784633,
-0.0090030839777846174,0.031363248019085216,
0*
4,1,19,
-0.020185039370078744,0.035996062992125988,
-0.01529916437240241,0.035222216415123374,
-0.01089155286139145,0.0329764261787787,
-0.007393652561378786,0.029478525878766038,
-0.0051478623250341094,0.025070914367755076,
-0.0043740157480314972,0.020185039370078744,
-0.0051478623250341068,0.01529916437240241,
-0.007393652561378786,0.010891552861391452,
-0.010891552861391448,0.0073936525613787878,
-0.015299164372402408,0.0051478623250341094,
-0.020185039370078744,0.0043740157480314972,
-0.02507091436775508,0.0051478623250341094,
-0.029478525878766034,0.0073936525613787834,
-0.032976426178778696,0.010891552861391448,
-0.035222216415123374,0.015299164372402405,
-0.035996062992125988,0.02018503937007874,
-0.035222216415123374,0.025070914367755076,
-0.0329764261787787,0.029478525878766034,
-0.029478525878766038,0.032976426178778696,
-0.02507091436775508,0.035222216415123374,
0*
4,1,19,
0.020185039370078744,-0.0043740157480314972,
0.025070914367755076,-0.0051478623250341094,
0.029478525878766038,-0.007393652561378786,
0.0329764261787787,-0.01089155286139145,
0.035222216415123374,-0.015299164372402408,
0.035996062992125988,-0.020185039370078744,
0.035222216415123374,-0.025070914367755076,
0.0329764261787787,-0.029478525878766034,
0.029478525878766038,-0.032976426178778696,
0.025070914367755076,-0.035222216415123374,
0.020185039370078744,-0.035996062992125988,
0.015299164372402403,-0.035222216415123374,
0.010891552861391452,-0.0329764261787787,
0.0073936525613787878,-0.029478525878766038,
0.0051478623250341094,-0.02507091436775508,
0.0043740157480314972,-0.020185039370078747,
0.0051478623250341068,-0.015299164372402412,
0.0073936525613787834,-0.010891552861391452,
0.010891552861391448,-0.0073936525613787878,
0.015299164372402405,-0.0051478623250341094,
0*%
%ADD80COMP617*%
%AMCOMP618*
4,1,3,
-0.0090030839777846261,-0.031363248019085216,
0.031363248019085216,0.0090030839777846244,
0.0090030839777846261,0.031363248019085216,
-0.031363248019085216,-0.0090030839777846244,
0*
4,1,19,
-0.020185039370078744,-0.0043740157480314972,
-0.01529916437240241,-0.0051478623250341094,
-0.01089155286139145,-0.007393652561378786,
-0.007393652561378786,-0.01089155286139145,
-0.0051478623250341094,-0.015299164372402408,
-0.0043740157480314972,-0.020185039370078744,
-0.0051478623250341068,-0.025070914367755076,
-0.007393652561378786,-0.029478525878766034,
-0.010891552861391448,-0.032976426178778696,
-0.015299164372402408,-0.035222216415123374,
-0.020185039370078744,-0.035996062992125988,
-0.02507091436775508,-0.035222216415123374,
-0.029478525878766034,-0.0329764261787787,
-0.032976426178778696,-0.029478525878766038,
-0.035222216415123374,-0.02507091436775508,
-0.035996062992125988,-0.020185039370078747,
-0.035222216415123374,-0.015299164372402412,
-0.0329764261787787,-0.010891552861391452,
-0.029478525878766038,-0.0073936525613787878,
-0.02507091436775508,-0.0051478623250341094,
0*
4,1,19,
0.020185039370078744,0.035996062992125988,
0.025070914367755076,0.035222216415123374,
0.029478525878766038,0.0329764261787787,
0.0329764261787787,0.029478525878766038,
0.035222216415123374,0.025070914367755076,
0.035996062992125988,0.020185039370078744,
0.035222216415123374,0.01529916437240241,
0.0329764261787787,0.010891552861391452,
0.029478525878766038,0.0073936525613787878,
0.025070914367755076,0.0051478623250341094,
0.020185039370078744,0.0043740157480314972,
0.015299164372402403,0.0051478623250341094,
0.010891552861391452,0.0073936525613787834,
0.0073936525613787878,0.010891552861391448,
0.0051478623250341094,0.015299164372402405,
0.0043740157480314972,0.02018503937007874,
0.0051478623250341068,0.025070914367755076,
0.0073936525613787834,0.029478525878766034,
0.010891552861391448,0.032976426178778696,
0.015299164372402405,0.035222216415123374,
0*%
%ADD81COMP618*%
%ADD82O,0.086740157480314953X0.019811023622047244*%
%ADD83O,0.1064251968503937X0.035559055118110236*%
%ADD84O,0.090677165354330708X0.025716535433070866*%
%ADD85R,0.065086614173228349X0.031622047244094488*%
%ADD86R,0.049338582677165357X0.050519685039370078*%
%ADD87R,0.031622047244094488X0.065086614173228349*%
%ADD88R,0.047370078740157487X0.082803149606299226*%
%ADD89R,0.082803149606299226X0.047370078740157487*%
%ADD90R,0.050519685039370078X0.049338582677165357*%
%ADD101C,0.12611023622047243*%
%ADD102R,0.074929133858267716X0.074929133858267716*%
%ADD103C,0.098551181102362218*%
%ADD104C,0.063118110236220479*%
%ADD105C,0.070992125984251975*%
%ADD106R,0.070992125984251975X0.070992125984251975*%
%ADD107C,0.078866141732283471*%
%ADD108R,0.078866141732283471X0.078866141732283471*%
%ADD109C,0.086740157480314953*%
%ADD110R,0.086740157480314953X0.086740157480314953*%
%ADD111R,0.078866141732283471X0.078866141732283471*%
%ADD112R,0.086740157480314953X0.086740157480314953*%
%ADD113R,0.10248818897637797X0.10248818897637797*%
%ADD114C,0.10248818897637797*%
%ADD115O,0.12611023622047243X0.16548031496062993*%
%ADD116R,0.12611023622047243X0.16548031496062993*%
%ADD117C,0.094614173228346463*%
%ADD118O,0.11036220472440945X0.035559055118110236*%
%AMCOMP619*
4,1,3,
-0.031363248019085216,0.009003083977784633,
0.0090030839777846174,-0.031363248019085216,
0.031363248019085216,-0.009003083977784633,
-0.0090030839777846174,0.031363248019085216,
0*
4,1,19,
-0.020185039370078744,0.035996062992125988,
-0.01529916437240241,0.035222216415123374,
-0.01089155286139145,0.0329764261787787,
-0.007393652561378786,0.029478525878766038,
-0.0051478623250341094,0.025070914367755076,
-0.0043740157480314972,0.020185039370078744,
-0.0051478623250341068,0.01529916437240241,
-0.007393652561378786,0.010891552861391452,
-0.010891552861391448,0.0073936525613787878,
-0.015299164372402408,0.0051478623250341094,
-0.020185039370078744,0.0043740157480314972,
-0.02507091436775508,0.0051478623250341094,
-0.029478525878766034,0.0073936525613787834,
-0.032976426178778696,0.010891552861391448,
-0.035222216415123374,0.015299164372402405,
-0.035996062992125988,0.02018503937007874,
-0.035222216415123374,0.025070914367755076,
-0.0329764261787787,0.029478525878766034,
-0.029478525878766038,0.032976426178778696,
-0.02507091436775508,0.035222216415123374,
0*
4,1,19,
0.020185039370078744,-0.0043740157480314972,
0.025070914367755076,-0.0051478623250341094,
0.029478525878766038,-0.007393652561378786,
0.0329764261787787,-0.01089155286139145,
0.035222216415123374,-0.015299164372402408,
0.035996062992125988,-0.020185039370078744,
0.035222216415123374,-0.025070914367755076,
0.0329764261787787,-0.029478525878766034,
0.029478525878766038,-0.032976426178778696,
0.025070914367755076,-0.035222216415123374,
0.020185039370078744,-0.035996062992125988,
0.015299164372402403,-0.035222216415123374,
0.010891552861391452,-0.0329764261787787,
0.0073936525613787878,-0.029478525878766038,
0.0051478623250341094,-0.02507091436775508,
0.0043740157480314972,-0.020185039370078747,
0.0051478623250341068,-0.015299164372402412,
0.0073936525613787834,-0.010891552861391452,
0.010891552861391448,-0.0073936525613787878,
0.015299164372402405,-0.0051478623250341094,
0*%
%ADD119COMP619*%
%AMCOMP620*
4,1,3,
-0.0090030839777846261,-0.031363248019085216,
0.031363248019085216,0.0090030839777846244,
0.0090030839777846261,0.031363248019085216,
-0.031363248019085216,-0.0090030839777846244,
0*
4,1,19,
-0.020185039370078744,-0.0043740157480314972,
-0.01529916437240241,-0.0051478623250341094,
-0.01089155286139145,-0.007393652561378786,
-0.007393652561378786,-0.01089155286139145,
-0.0051478623250341094,-0.015299164372402408,
-0.0043740157480314972,-0.020185039370078744,
-0.0051478623250341068,-0.025070914367755076,
-0.007393652561378786,-0.029478525878766034,
-0.010891552861391448,-0.032976426178778696,
-0.015299164372402408,-0.035222216415123374,
-0.020185039370078744,-0.035996062992125988,
-0.02507091436775508,-0.035222216415123374,
-0.029478525878766034,-0.0329764261787787,
-0.032976426178778696,-0.029478525878766038,
-0.035222216415123374,-0.02507091436775508,
-0.035996062992125988,-0.020185039370078747,
-0.035222216415123374,-0.015299164372402412,
-0.0329764261787787,-0.010891552861391452,
-0.029478525878766038,-0.0073936525613787878,
-0.02507091436775508,-0.0051478623250341094,
0*
4,1,19,
0.020185039370078744,0.035996062992125988,
0.025070914367755076,0.035222216415123374,
0.029478525878766038,0.0329764261787787,
0.0329764261787787,0.029478525878766038,
0.035222216415123374,0.025070914367755076,
0.035996062992125988,0.020185039370078744,
0.035222216415123374,0.01529916437240241,
0.0329764261787787,0.010891552861391452,
0.029478525878766038,0.0073936525613787878,
0.025070914367755076,0.0051478623250341094,
0.020185039370078744,0.0043740157480314972,
0.015299164372402403,0.0051478623250341094,
0.010891552861391452,0.0073936525613787834,
0.0073936525613787878,0.010891552861391448,
0.0051478623250341094,0.015299164372402405,
0.0043740157480314972,0.02018503937007874,
0.0051478623250341068,0.025070914367755076,
0.0073936525613787834,0.029478525878766034,
0.010891552861391448,0.032976426178778696,
0.015299164372402405,0.035222216415123374,
0*%
%ADD120COMP620*%
%ADD121O,0.086740157480314953X0.019811023622047244*%
%ADD122O,0.1064251968503937X0.035559055118110236*%
%ADD123O,0.090677165354330708X0.025716535433070866*%
%ADD124R,0.065086614173228349X0.031622047244094488*%
%ADD125R,0.049338582677165357X0.050519685039370078*%
%ADD126R,0.031622047244094488X0.065086614173228349*%
%ADD127R,0.047370078740157487X0.082803149606299226*%
%ADD128R,0.082803149606299226X0.047370078740157487*%
%ADD129R,0.050519685039370078X0.049338582677165357*%
%ADD130C,0.12611023622047243*%
%ADD131R,0.074929133858267716X0.074929133858267716*%
%ADD132C,0.098551181102362218*%
%ADD133C,0.063118110236220479*%
%ADD134C,0.070992125984251975*%
%ADD135R,0.070992125984251975X0.070992125984251975*%
%ADD136C,0.078866141732283471*%
%ADD137R,0.078866141732283471X0.078866141732283471*%
%ADD138C,0.086740157480314953*%
%ADD139R,0.086740157480314953X0.086740157480314953*%
%ADD140R,0.078866141732283471X0.078866141732283471*%
%ADD141R,0.086740157480314953X0.086740157480314953*%
%ADD142R,0.10248818897637797X0.10248818897637797*%
%ADD143C,0.10248818897637797*%
%ADD144O,0.12611023622047243X0.16548031496062993*%
%ADD145R,0.12611023622047243X0.16548031496062993*%
%ADD146C,0.094614173228346463*%
%ADD147O,0.11036220472440945X0.035559055118110236*%
%AMCOMP621*
4,1,3,
-0.031363248019085216,0.009003083977784633,
0.0090030839777846174,-0.031363248019085216,
0.031363248019085216,-0.009003083977784633,
-0.0090030839777846174,0.031363248019085216,
0*
4,1,19,
-0.020185039370078744,0.035996062992125988,
-0.01529916437240241,0.035222216415123374,
-0.01089155286139145,0.0329764261787787,
-0.007393652561378786,0.029478525878766038,
-0.0051478623250341094,0.025070914367755076,
-0.0043740157480314972,0.020185039370078744,
-0.0051478623250341068,0.01529916437240241,
-0.007393652561378786,0.010891552861391452,
-0.010891552861391448,0.0073936525613787878,
-0.015299164372402408,0.0051478623250341094,
-0.020185039370078744,0.0043740157480314972,
-0.02507091436775508,0.0051478623250341094,
-0.029478525878766034,0.0073936525613787834,
-0.032976426178778696,0.010891552861391448,
-0.035222216415123374,0.015299164372402405,
-0.035996062992125988,0.02018503937007874,
-0.035222216415123374,0.025070914367755076,
-0.0329764261787787,0.029478525878766034,
-0.029478525878766038,0.032976426178778696,
-0.02507091436775508,0.035222216415123374,
0*
4,1,19,
0.020185039370078744,-0.0043740157480314972,
0.025070914367755076,-0.0051478623250341094,
0.029478525878766038,-0.007393652561378786,
0.0329764261787787,-0.01089155286139145,
0.035222216415123374,-0.015299164372402408,
0.035996062992125988,-0.020185039370078744,
0.035222216415123374,-0.025070914367755076,
0.0329764261787787,-0.029478525878766034,
0.029478525878766038,-0.032976426178778696,
0.025070914367755076,-0.035222216415123374,
0.020185039370078744,-0.035996062992125988,
0.015299164372402403,-0.035222216415123374,
0.010891552861391452,-0.0329764261787787,
0.0073936525613787878,-0.029478525878766038,
0.0051478623250341094,-0.02507091436775508,
0.0043740157480314972,-0.020185039370078747,
0.0051478623250341068,-0.015299164372402412,
0.0073936525613787834,-0.010891552861391452,
0.010891552861391448,-0.0073936525613787878,
0.015299164372402405,-0.0051478623250341094,
0*%
%ADD148COMP621*%
%AMCOMP622*
4,1,3,
-0.0090030839777846261,-0.031363248019085216,
0.031363248019085216,0.0090030839777846244,
0.0090030839777846261,0.031363248019085216,
-0.031363248019085216,-0.0090030839777846244,
0*
4,1,19,
-0.020185039370078744,-0.0043740157480314972,
-0.01529916437240241,-0.0051478623250341094,
-0.01089155286139145,-0.007393652561378786,
-0.007393652561378786,-0.01089155286139145,
-0.0051478623250341094,-0.015299164372402408,
-0.0043740157480314972,-0.020185039370078744,
-0.0051478623250341068,-0.025070914367755076,
-0.007393652561378786,-0.029478525878766034,
-0.010891552861391448,-0.032976426178778696,
-0.015299164372402408,-0.035222216415123374,
-0.020185039370078744,-0.035996062992125988,
-0.02507091436775508,-0.035222216415123374,
-0.029478525878766034,-0.0329764261787787,
-0.032976426178778696,-0.029478525878766038,
-0.035222216415123374,-0.02507091436775508,
-0.035996062992125988,-0.020185039370078747,
-0.035222216415123374,-0.015299164372402412,
-0.0329764261787787,-0.010891552861391452,
-0.029478525878766038,-0.0073936525613787878,
-0.02507091436775508,-0.0051478623250341094,
0*
4,1,19,
0.020185039370078744,0.035996062992125988,
0.025070914367755076,0.035222216415123374,
0.029478525878766038,0.0329764261787787,
0.0329764261787787,0.029478525878766038,
0.035222216415123374,0.025070914367755076,
0.035996062992125988,0.020185039370078744,
0.035222216415123374,0.01529916437240241,
0.0329764261787787,0.010891552861391452,
0.029478525878766038,0.0073936525613787878,
0.025070914367755076,0.0051478623250341094,
0.020185039370078744,0.0043740157480314972,
0.015299164372402403,0.0051478623250341094,
0.010891552861391452,0.0073936525613787834,
0.0073936525613787878,0.010891552861391448,
0.0051478623250341094,0.015299164372402405,
0.0043740157480314972,0.02018503937007874,
0.0051478623250341068,0.025070914367755076,
0.0073936525613787834,0.029478525878766034,
0.010891552861391448,0.032976426178778696,
0.015299164372402405,0.035222216415123374,
0*%
%ADD149COMP622*%
%ADD150O,0.086740157480314953X0.019811023622047244*%
%ADD151O,0.1064251968503937X0.035559055118110236*%
%ADD152O,0.090677165354330708X0.025716535433070866*%
%ADD153R,0.065086614173228349X0.031622047244094488*%
%ADD154R,0.049338582677165357X0.050519685039370078*%
%ADD155R,0.031622047244094488X0.065086614173228349*%
%ADD156R,0.047370078740157487X0.082803149606299226*%
%ADD157R,0.082803149606299226X0.047370078740157487*%
%ADD158R,0.050519685039370078X0.049338582677165357*%
%ADD159C,0.12611023622047243*%
%ADD160R,0.074929133858267716X0.074929133858267716*%
%ADD161C,0.098551181102362218*%
%ADD162C,0.063118110236220479*%
%ADD163C,0.070992125984251975*%
%ADD164R,0.070992125984251975X0.070992125984251975*%
%ADD165C,0.078866141732283471*%
%ADD166R,0.078866141732283471X0.078866141732283471*%
%ADD167C,0.086740157480314953*%
%ADD168R,0.086740157480314953X0.086740157480314953*%
%ADD169R,0.078866141732283471X0.078866141732283471*%
%ADD170R,0.086740157480314953X0.086740157480314953*%
%ADD171R,0.10248818897637797X0.10248818897637797*%
%ADD172C,0.10248818897637797*%
%ADD173O,0.12611023622047243X0.16548031496062993*%
%ADD174R,0.12611023622047243X0.16548031496062993*%
%ADD175C,0.094614173228346463*%
%ADD176O,0.11036220472440945X0.035559055118110236*%
%AMCOMP623*
4,1,3,
-0.031363248019085216,0.009003083977784633,
0.0090030839777846174,-0.031363248019085216,
0.031363248019085216,-0.009003083977784633,
-0.0090030839777846174,0.031363248019085216,
0*
4,1,19,
-0.020185039370078744,0.035996062992125988,
-0.01529916437240241,0.035222216415123374,
-0.01089155286139145,0.0329764261787787,
-0.007393652561378786,0.029478525878766038,
-0.0051478623250341094,0.025070914367755076,
-0.0043740157480314972,0.020185039370078744,
-0.0051478623250341068,0.01529916437240241,
-0.007393652561378786,0.010891552861391452,
-0.010891552861391448,0.0073936525613787878,
-0.015299164372402408,0.0051478623250341094,
-0.020185039370078744,0.0043740157480314972,
-0.02507091436775508,0.0051478623250341094,
-0.029478525878766034,0.0073936525613787834,
-0.032976426178778696,0.010891552861391448,
-0.035222216415123374,0.015299164372402405,
-0.035996062992125988,0.02018503937007874,
-0.035222216415123374,0.025070914367755076,
-0.0329764261787787,0.029478525878766034,
-0.029478525878766038,0.032976426178778696,
-0.02507091436775508,0.035222216415123374,
0*
4,1,19,
0.020185039370078744,-0.0043740157480314972,
0.025070914367755076,-0.0051478623250341094,
0.029478525878766038,-0.007393652561378786,
0.0329764261787787,-0.01089155286139145,
0.035222216415123374,-0.015299164372402408,
0.035996062992125988,-0.020185039370078744,
0.035222216415123374,-0.025070914367755076,
0.0329764261787787,-0.029478525878766034,
0.029478525878766038,-0.032976426178778696,
0.025070914367755076,-0.035222216415123374,
0.020185039370078744,-0.035996062992125988,
0.015299164372402403,-0.035222216415123374,
0.010891552861391452,-0.0329764261787787,
0.0073936525613787878,-0.029478525878766038,
0.0051478623250341094,-0.02507091436775508,
0.0043740157480314972,-0.020185039370078747,
0.0051478623250341068,-0.015299164372402412,
0.0073936525613787834,-0.010891552861391452,
0.010891552861391448,-0.0073936525613787878,
0.015299164372402405,-0.0051478623250341094,
0*%
%ADD177COMP623*%
%AMCOMP624*
4,1,3,
-0.0090030839777846261,-0.031363248019085216,
0.031363248019085216,0.0090030839777846244,
0.0090030839777846261,0.031363248019085216,
-0.031363248019085216,-0.0090030839777846244,
0*
4,1,19,
-0.020185039370078744,-0.0043740157480314972,
-0.01529916437240241,-0.0051478623250341094,
-0.01089155286139145,-0.007393652561378786,
-0.007393652561378786,-0.01089155286139145,
-0.0051478623250341094,-0.015299164372402408,
-0.0043740157480314972,-0.020185039370078744,
-0.0051478623250341068,-0.025070914367755076,
-0.007393652561378786,-0.029478525878766034,
-0.010891552861391448,-0.032976426178778696,
-0.015299164372402408,-0.035222216415123374,
-0.020185039370078744,-0.035996062992125988,
-0.02507091436775508,-0.035222216415123374,
-0.029478525878766034,-0.0329764261787787,
-0.032976426178778696,-0.029478525878766038,
-0.035222216415123374,-0.02507091436775508,
-0.035996062992125988,-0.020185039370078747,
-0.035222216415123374,-0.015299164372402412,
-0.0329764261787787,-0.010891552861391452,
-0.029478525878766038,-0.0073936525613787878,
-0.02507091436775508,-0.0051478623250341094,
0*
4,1,19,
0.020185039370078744,0.035996062992125988,
0.025070914367755076,0.035222216415123374,
0.029478525878766038,0.0329764261787787,
0.0329764261787787,0.029478525878766038,
0.035222216415123374,0.025070914367755076,
0.035996062992125988,0.020185039370078744,
0.035222216415123374,0.01529916437240241,
0.0329764261787787,0.010891552861391452,
0.029478525878766038,0.0073936525613787878,
0.025070914367755076,0.0051478623250341094,
0.020185039370078744,0.0043740157480314972,
0.015299164372402403,0.0051478623250341094,
0.010891552861391452,0.0073936525613787834,
0.0073936525613787878,0.010891552861391448,
0.0051478623250341094,0.015299164372402405,
0.0043740157480314972,0.02018503937007874,
0.0051478623250341068,0.025070914367755076,
0.0073936525613787834,0.029478525878766034,
0.010891552861391448,0.032976426178778696,
0.015299164372402405,0.035222216415123374,
0*%
%ADD178COMP624*%
%ADD179O,0.086740157480314953X0.019811023622047244*%
%ADD180O,0.1064251968503937X0.035559055118110236*%
%ADD181O,0.090677165354330708X0.025716535433070866*%
%ADD182R,0.065086614173228349X0.031622047244094488*%
%ADD183R,0.049338582677165357X0.050519685039370078*%
%ADD184R,0.031622047244094488X0.065086614173228349*%
%ADD185R,0.047370078740157487X0.082803149606299226*%
%ADD186R,0.082803149606299226X0.047370078740157487*%
%ADD187R,0.050519685039370078X0.049338582677165357*%
%ADD188C,0.055244094488188983*%
%ADD189C,0.008*%
%ADD190C,0.055244094488188983*%
%ADD191C,0.008*%
G01*
G75*
G36*
X00045933Y00061894D02*
X00046098Y00061826D01*
X00046246Y00061727D01*
X00046372Y00061600D01*
X00046471Y00061452D01*
X00046540Y00061287D01*
X00046574Y00061112D01*
X00046574Y00061023D01*
X00046574Y00060934D01*
X00046540Y00060759D01*
X00046471Y00060594D01*
X00046372Y00060446D01*
X00046246Y00060320D01*
X00046098Y00060221D01*
X00045933Y00060152D01*
X00045758Y00060117D01*
X00045580Y00060117D01*
X00045405Y00060152D01*
X00045240Y00060221D01*
X00045092Y00060320D01*
X00044965Y00060446D01*
X00044866Y00060594D01*
X00044798Y00060759D01*
X00044763Y00060934D01*
X00044763Y00061023D01*
X00044763Y00061112D01*
X00044798Y00061287D01*
X00044866Y00061452D01*
X00044965Y00061600D01*
X00045092Y00061727D01*
X00045240Y00061826D01*
X00045405Y00061894D01*
X00045580Y00061929D01*
X00045758Y00061929D01*
X00045933Y00061894D01*
D02*
G37*
G36*
X00001445Y00061894D02*
X00001610Y00061826D01*
X00001758Y00061727D01*
X00001884Y00061600D01*
X00001983Y00061452D01*
X00002051Y00061287D01*
X00002086Y00061112D01*
X00002086Y00061023D01*
X00002086Y00060934D01*
X00002051Y00060759D01*
X00001983Y00060594D01*
X00001884Y00060446D01*
X00001758Y00060320D01*
X00001610Y00060221D01*
X00001445Y00060152D01*
X00001270Y00060117D01*
X00001091Y00060117D01*
X00000916Y00060152D01*
X00000752Y00060221D01*
X00000603Y00060320D01*
X00000477Y00060446D01*
X00000378Y00060594D01*
X00000310Y00060759D01*
X00000275Y00060934D01*
X00000275Y00061023D01*
X00000275Y00061112D01*
X00000310Y00061287D01*
X00000378Y00061452D01*
X00000477Y00061600D01*
X00000603Y00061727D01*
X00000752Y00061826D01*
X00000916Y00061894D01*
X00001091Y00061929D01*
X00001270Y00061929D01*
X00001445Y00061894D01*
D02*
G37*
G36*
X00045933Y00007170D02*
X00046098Y00007101D01*
X00046246Y00007002D01*
X00046372Y00006876D01*
X00046471Y00006728D01*
X00046540Y00006563D01*
X00046574Y00006388D01*
X00046574Y00006299D01*
X00046574Y00006210D01*
X00046540Y00006035D01*
X00046471Y00005870D01*
X00046372Y00005721D01*
X00046246Y00005595D01*
X00046098Y00005496D01*
X00045933Y00005428D01*
X00045758Y00005393D01*
X00045580Y00005393D01*
X00045405Y00005428D01*
X00045240Y00005496D01*
X00045092Y00005595D01*
X00044965Y00005721D01*
X00044866Y00005870D01*
X00044798Y00006035D01*
X00044763Y00006210D01*
X00044763Y00006299D01*
X00044763Y00006388D01*
X00044798Y00006563D01*
X00044866Y00006728D01*
X00044965Y00006876D01*
X00045092Y00007002D01*
X00045240Y00007101D01*
X00045405Y00007170D01*
X00045580Y00007204D01*
X00045758Y00007204D01*
X00045933Y00007170D01*
D02*
G37*
G36*
X00001445Y00007170D02*
X00001610Y00007101D01*
X00001758Y00007002D01*
X00001884Y00006876D01*
X00001983Y00006728D01*
X00002051Y00006563D01*
X00002086Y00006388D01*
X00002086Y00006299D01*
X00002086Y00006210D01*
X00002051Y00006035D01*
X00001983Y00005870D01*
X00001884Y00005721D01*
X00001758Y00005595D01*
X00001610Y00005496D01*
X00001445Y00005428D01*
X00001270Y00005393D01*
X00001091Y00005393D01*
X00000916Y00005428D01*
X00000752Y00005496D01*
X00000603Y00005595D01*
X00000477Y00005721D01*
X00000378Y00005870D01*
X00000310Y00006035D01*
X00000275Y00006210D01*
X00000275Y00006299D01*
X00000275Y00006388D01*
X00000310Y00006563D01*
X00000378Y00006728D01*
X00000477Y00006876D01*
X00000603Y00007002D01*
X00000752Y00007101D01*
X00000916Y00007170D01*
X00001091Y00007204D01*
X00001270Y00007204D01*
X00001445Y00007170D01*
D02*
G37*
D62*
X00041141Y00012667D02*
D03*
X00043141Y00012667D02*
D03*
X00045141Y00012667D02*
D03*
X00039141Y00012667D02*
D03*
X00037141Y00012667D02*
D03*
X00037141Y00054793D02*
D03*
X00039141Y00054793D02*
D03*
X00045141Y00054793D02*
D03*
X00043141Y00054793D02*
D03*
X00041141Y00054793D02*
D03*
X00005708Y00012667D02*
D03*
X00007708Y00012667D02*
D03*
X00009708Y00012667D02*
D03*
X00003708Y00012667D02*
D03*
X00001708Y00012667D02*
D03*
X00001708Y00054793D02*
D03*
X00003708Y00054793D02*
D03*
X00009708Y00054793D02*
D03*
X00007708Y00054793D02*
D03*
X00005708Y00054793D02*
D03*
X00001181Y00006299D02*
D03*
X00001181Y00061023D02*
D03*
X00045669Y00061023D02*
D03*
X00045669Y00006299D02*
D03*
X00033838Y00060236D02*
D03*
D63*
X00018225Y00007561D02*
D03*
X00018225Y00006561D02*
D03*
X00020225Y00006561D02*
D03*
X00020225Y00007561D02*
D03*
X00019225Y00006561D02*
D03*
X00019225Y00007561D02*
D03*
X00021225Y00007561D02*
D03*
X00021225Y00006561D02*
D03*
X00017225Y00006561D02*
D03*
X00017225Y00007561D02*
D03*
X00035025Y00007561D02*
D03*
X00035025Y00006561D02*
D03*
X00037025Y00006561D02*
D03*
X00037025Y00007561D02*
D03*
X00036025Y00006561D02*
D03*
X00036025Y00007561D02*
D03*
X00038025Y00007561D02*
D03*
X00038025Y00006561D02*
D03*
X00034025Y00006561D02*
D03*
X00034025Y00007561D02*
D03*
X00026625Y00007561D02*
D03*
X00026625Y00006561D02*
D03*
X00028625Y00006561D02*
D03*
X00028625Y00007561D02*
D03*
X00027625Y00006561D02*
D03*
X00027625Y00007561D02*
D03*
X00029625Y00007561D02*
D03*
X00029625Y00006561D02*
D03*
X00025625Y00006561D02*
D03*
X00025625Y00007561D02*
D03*
X00009825Y00007561D02*
D03*
X00009825Y00006561D02*
D03*
X00011825Y00006561D02*
D03*
X00011825Y00007561D02*
D03*
X00010825Y00006561D02*
D03*
X00010825Y00007561D02*
D03*
X00012825Y00007561D02*
D03*
X00012825Y00006561D02*
D03*
X00008825Y00006561D02*
D03*
X00008825Y00007561D02*
D03*
X00025425Y00059561D02*
D03*
X00025425Y00060561D02*
D03*
X00021425Y00060561D02*
D03*
X00021425Y00059561D02*
D03*
X00023425Y00059561D02*
D03*
X00023425Y00060561D02*
D03*
X00022425Y00059561D02*
D03*
X00022425Y00060561D02*
D03*
X00024425Y00060561D02*
D03*
X00024425Y00059561D02*
D03*
D64*
X00007009Y00040061D02*
D03*
X00005040Y00040061D02*
D03*
D65*
X00025425Y00044874D02*
D03*
X00025425Y00045661D02*
D03*
D66*
X00001025Y00019461D02*
D03*
X00003825Y00019461D02*
D03*
X00041225Y00019461D02*
D03*
X00038225Y00019461D02*
D03*
X00044825Y00047461D02*
D03*
X00042025Y00047461D02*
D03*
D67*
X00002025Y00019461D02*
D03*
X00004825Y00019461D02*
D03*
X00040225Y00019461D02*
D03*
X00037225Y00019461D02*
D03*
X00045825Y00047461D02*
D03*
X00043025Y00047461D02*
D03*
D68*
X00021425Y00026661D02*
D03*
X00022425Y00026661D02*
D03*
X00023425Y00026661D02*
D03*
X00024425Y00026661D02*
D03*
X00045825Y00035661D02*
D03*
X00045825Y00034661D02*
D03*
X00045825Y00033661D02*
D03*
X00045825Y00032661D02*
D03*
X00028825Y00060261D02*
D03*
X00028825Y00061261D02*
D03*
D69*
X00025425Y00026661D02*
D03*
D70*
X00027425Y00034645D02*
D03*
X00039440Y00040061D02*
D03*
D71*
X00027425Y00032677D02*
D03*
D72*
X00045825Y00031661D02*
D03*
X00028825Y00059261D02*
D03*
D73*
X00041409Y00040061D02*
D03*
D74*
X00031225Y00061361D02*
D03*
X00014425Y00061361D02*
D03*
X00012225Y00061361D02*
D03*
X00010225Y00061361D02*
D03*
X00008225Y00061361D02*
D03*
D75*
X00031225Y00058361D02*
D03*
X00014425Y00058361D02*
D03*
X00012225Y00058361D02*
D03*
X00010225Y00058361D02*
D03*
X00008225Y00058361D02*
D03*
D76*
X00037119Y00060661D02*
D03*
X00039088Y00060661D02*
D03*
X00041056Y00060661D02*
D03*
X00003856Y00060661D02*
D03*
D77*
X00043025Y00060661D02*
D03*
X00005825Y00060661D02*
D03*
D78*
X00033825Y00061461D02*
D03*
X00034825Y00059461D02*
D03*
X00032825Y00059461D02*
D03*
D79*
X00009901Y00031661D02*
D03*
X00009901Y00032161D02*
D03*
X00009901Y00032661D02*
D03*
X00009901Y00033161D02*
D03*
X00009901Y00033661D02*
D03*
X00009901Y00034161D02*
D03*
X00009901Y00034661D02*
D03*
X00009901Y00035161D02*
D03*
X00009901Y00035661D02*
D03*
X00013523Y00031661D02*
D03*
X00013523Y00032161D02*
D03*
X00013523Y00032661D02*
D03*
X00013523Y00033161D02*
D03*
X00013523Y00033661D02*
D03*
X00013523Y00034161D02*
D03*
X00013523Y00034661D02*
D03*
X00013523Y00035161D02*
D03*
X00013523Y00035661D02*
D03*
D80*
X00032437Y00034134D02*
D03*
X00032660Y00034357D02*
D03*
X00032882Y00034580D02*
D03*
X00033105Y00034802D02*
D03*
X00033328Y00035025D02*
D03*
X00033550Y00035248D02*
D03*
X00033773Y00035470D02*
D03*
X00033996Y00035693D02*
D03*
X00034219Y00035916D02*
D03*
X00034441Y00036139D02*
D03*
X00034664Y00036361D02*
D03*
X00037838Y00033188D02*
D03*
X00037615Y00032965D02*
D03*
X00037392Y00032742D02*
D03*
X00037170Y00032520D02*
D03*
X00036947Y00032297D02*
D03*
X00036724Y00032074D02*
D03*
X00036501Y00031851D02*
D03*
X00036279Y00031629D02*
D03*
X00036056Y00031406D02*
D03*
X00035833Y00031183D02*
D03*
X00035611Y00030961D02*
D03*
D81*
X00035611Y00036361D02*
D03*
X00035833Y00036139D02*
D03*
X00036056Y00035916D02*
D03*
X00036279Y00035693D02*
D03*
X00036501Y00035470D02*
D03*
X00036724Y00035248D02*
D03*
X00036947Y00035025D02*
D03*
X00037170Y00034802D02*
D03*
X00037392Y00034580D02*
D03*
X00037615Y00034357D02*
D03*
X00037838Y00034134D02*
D03*
X00034664Y00030961D02*
D03*
X00034441Y00031183D02*
D03*
X00034219Y00031406D02*
D03*
X00033996Y00031629D02*
D03*
X00033773Y00031851D02*
D03*
X00033550Y00032074D02*
D03*
X00033328Y00032297D02*
D03*
X00033105Y00032520D02*
D03*
X00032882Y00032742D02*
D03*
X00032660Y00032965D02*
D03*
X00032437Y00033188D02*
D03*
D82*
X00022598Y00044867D02*
D03*
X00022598Y00045064D02*
D03*
X00022598Y00045261D02*
D03*
X00022598Y00045458D02*
D03*
X00022598Y00045655D02*
D03*
X00024251Y00044867D02*
D03*
X00024251Y00045064D02*
D03*
X00024251Y00045261D02*
D03*
X00024251Y00045458D02*
D03*
X00024251Y00045655D02*
D03*
D83*
X00024389Y00041011D02*
D03*
X00024389Y00040511D02*
D03*
X00024389Y00040011D02*
D03*
X00024389Y00039511D02*
D03*
X00022460Y00041011D02*
D03*
X00022460Y00040511D02*
D03*
X00022460Y00040011D02*
D03*
X00022460Y00039511D02*
D03*
D84*
X00024783Y00035324D02*
D03*
X00024783Y00035068D02*
D03*
X00024783Y00034812D02*
D03*
X00024783Y00034557D02*
D03*
X00024783Y00034301D02*
D03*
X00024783Y00034045D02*
D03*
X00024783Y00033789D02*
D03*
X00024783Y00033533D02*
D03*
X00024783Y00033277D02*
D03*
X00024783Y00033021D02*
D03*
X00024783Y00032765D02*
D03*
X00024783Y00032509D02*
D03*
X00024783Y00032253D02*
D03*
X00024783Y00031998D02*
D03*
X00022066Y00035324D02*
D03*
X00022066Y00035068D02*
D03*
X00022066Y00034812D02*
D03*
X00022066Y00034557D02*
D03*
X00022066Y00034301D02*
D03*
X00022066Y00034045D02*
D03*
X00022066Y00033789D02*
D03*
X00022066Y00033533D02*
D03*
X00022066Y00033277D02*
D03*
X00022066Y00033021D02*
D03*
X00022066Y00032765D02*
D03*
X00022066Y00032509D02*
D03*
X00022066Y00032253D02*
D03*
X00022066Y00031998D02*
D03*
D85*
X00029887Y00049035D02*
D03*
X00029887Y00048287D02*
D03*
X00028962Y00048661D02*
D03*
X00002574Y00017228D02*
D03*
X00002574Y00016480D02*
D03*
X00001648Y00016854D02*
D03*
X00002574Y00015428D02*
D03*
X00002574Y00014680D02*
D03*
X00001648Y00015054D02*
D03*
X00037673Y00049288D02*
D03*
X00037673Y00048540D02*
D03*
X00036748Y00048914D02*
D03*
X00037673Y00047488D02*
D03*
X00037673Y00046740D02*
D03*
X00036748Y00047114D02*
D03*
D86*
X00042025Y00045320D02*
D03*
X00042025Y00046001D02*
D03*
X00027583Y00048408D02*
D03*
X00027583Y00047727D02*
D03*
X00026783Y00048408D02*
D03*
X00026783Y00047727D02*
D03*
X00025983Y00048408D02*
D03*
X00025983Y00047727D02*
D03*
X00025183Y00048408D02*
D03*
X00025183Y00047727D02*
D03*
X00022225Y00052401D02*
D03*
X00022225Y00051720D02*
D03*
X00021225Y00052401D02*
D03*
X00021225Y00051720D02*
D03*
X00020225Y00052401D02*
D03*
X00020225Y00051720D02*
D03*
X00019225Y00052401D02*
D03*
X00019225Y00051720D02*
D03*
X00022225Y00053920D02*
D03*
X00022225Y00054601D02*
D03*
X00021225Y00053920D02*
D03*
X00021225Y00054601D02*
D03*
X00020225Y00053920D02*
D03*
X00020225Y00054601D02*
D03*
X00019225Y00053920D02*
D03*
X00019225Y00054601D02*
D03*
X00037225Y00022401D02*
D03*
X00037225Y00021720D02*
D03*
X00038558Y00022401D02*
D03*
X00038558Y00021720D02*
D03*
X00039891Y00022401D02*
D03*
X00039891Y00021720D02*
D03*
X00041225Y00022401D02*
D03*
X00041225Y00021720D02*
D03*
X00039493Y00038631D02*
D03*
X00039493Y00037950D02*
D03*
X00041493Y00038631D02*
D03*
X00041493Y00037950D02*
D03*
X00001025Y00020720D02*
D03*
X00001025Y00021401D02*
D03*
X00002291Y00020720D02*
D03*
X00002291Y00021401D02*
D03*
X00003558Y00021401D02*
D03*
X00003558Y00020720D02*
D03*
X00004825Y00021401D02*
D03*
X00004825Y00020720D02*
D03*
X00045825Y00045320D02*
D03*
X00045825Y00046001D02*
D03*
X00044558Y00045320D02*
D03*
X00044558Y00046001D02*
D03*
X00043291Y00045320D02*
D03*
X00043291Y00046001D02*
D03*
D87*
X00033199Y00057198D02*
D03*
X00032451Y00057198D02*
D03*
X00032825Y00058124D02*
D03*
D88*
X00003842Y00014854D02*
D03*
X00005180Y00014854D02*
D03*
X00039141Y00046914D02*
D03*
X00040480Y00046914D02*
D03*
X00003842Y00016054D02*
D03*
X00005180Y00016054D02*
D03*
X00039141Y00048114D02*
D03*
X00040480Y00048114D02*
D03*
X00003842Y00017254D02*
D03*
X00005180Y00017254D02*
D03*
X00039141Y00049314D02*
D03*
X00040480Y00049314D02*
D03*
X00018254Y00037212D02*
D03*
X00016915Y00037212D02*
D03*
X00006694Y00037261D02*
D03*
X00005355Y00037261D02*
D03*
X00018254Y00036212D02*
D03*
X00016915Y00036212D02*
D03*
X00006694Y00036261D02*
D03*
X00005355Y00036261D02*
D03*
X00018254Y00035212D02*
D03*
X00016915Y00035212D02*
D03*
X00006694Y00035261D02*
D03*
X00005355Y00035261D02*
D03*
X00018254Y00034212D02*
D03*
X00016915Y00034212D02*
D03*
X00006694Y00034261D02*
D03*
X00005355Y00034261D02*
D03*
X00018254Y00033212D02*
D03*
X00016915Y00033212D02*
D03*
X00006694Y00033261D02*
D03*
X00005355Y00033261D02*
D03*
X00018254Y00032212D02*
D03*
X00016915Y00032212D02*
D03*
X00006694Y00032261D02*
D03*
X00005355Y00032261D02*
D03*
X00018254Y00031212D02*
D03*
X00016915Y00031212D02*
D03*
X00006694Y00031261D02*
D03*
X00005355Y00031261D02*
D03*
X00018254Y00030212D02*
D03*
X00016915Y00030212D02*
D03*
X00006694Y00030261D02*
D03*
X00005355Y00030261D02*
D03*
X00026755Y00026661D02*
D03*
X00028094Y00026661D02*
D03*
X00026755Y00025661D02*
D03*
X00028094Y00025661D02*
D03*
X00028094Y00027661D02*
D03*
X00026755Y00027661D02*
D03*
X00028094Y00028661D02*
D03*
X00026755Y00028661D02*
D03*
X00028094Y00029661D02*
D03*
X00026755Y00029661D02*
D03*
X00031247Y00051453D02*
D03*
X00032586Y00051453D02*
D03*
X00032586Y00052653D02*
D03*
X00031247Y00052653D02*
D03*
X00031247Y00053853D02*
D03*
X00032586Y00053853D02*
D03*
X00032586Y00047853D02*
D03*
X00031247Y00047853D02*
D03*
X00031247Y00049053D02*
D03*
X00032586Y00049053D02*
D03*
X00031247Y00050253D02*
D03*
X00032586Y00050253D02*
D03*
D89*
X00034825Y00056992D02*
D03*
X00034825Y00058330D02*
D03*
X00022425Y00058130D02*
D03*
X00022425Y00056792D02*
D03*
X00012825Y00016992D02*
D03*
X00012825Y00018330D02*
D03*
X00044425Y00031392D02*
D03*
X00044425Y00032730D02*
D03*
X00010825Y00016992D02*
D03*
X00010825Y00018330D02*
D03*
X00037025Y00058330D02*
D03*
X00037025Y00056992D02*
D03*
X00011825Y00016992D02*
D03*
X00011825Y00018330D02*
D03*
X00039025Y00058330D02*
D03*
X00039025Y00056992D02*
D03*
X00029625Y00016992D02*
D03*
X00029625Y00018330D02*
D03*
X00028625Y00016992D02*
D03*
X00028625Y00018330D02*
D03*
X00021225Y00016992D02*
D03*
X00021225Y00018330D02*
D03*
X00020225Y00016992D02*
D03*
X00020225Y00018330D02*
D03*
X00019225Y00016992D02*
D03*
X00019225Y00018330D02*
D03*
X00035025Y00018330D02*
D03*
X00035025Y00016992D02*
D03*
X00023425Y00048730D02*
D03*
X00023425Y00047392D02*
D03*
X00026625Y00016992D02*
D03*
X00026625Y00018330D02*
D03*
X00036025Y00018330D02*
D03*
X00036025Y00016992D02*
D03*
X00027625Y00016992D02*
D03*
X00027625Y00018330D02*
D03*
X00021425Y00058130D02*
D03*
X00021425Y00056792D02*
D03*
X00037025Y00016992D02*
D03*
X00037025Y00018330D02*
D03*
D90*
X00028484Y00034661D02*
D03*
X00029165Y00034661D02*
D03*
X00028484Y00032661D02*
D03*
X00029165Y00032661D02*
D03*
X00026965Y00045661D02*
D03*
X00026284Y00045661D02*
D03*
X00026284Y00044861D02*
D03*
X00026965Y00044861D02*
D03*
G04 next file*
G04 Layer_Color=16711935*
G04 skipping 71
G01*
G75*
G04:AMPARAMS|DCode=80|XSize=0.8032mm|YSize=2.2532mm|CornerRadius=0mm|HoleSize=0mm|Usage=FLASHONLY|Rotation=225.000|XOffset=0mm|YOffset=0mm|HoleType=Round|Shape=Round|*
G04:AMPARAMS|DCode=81|XSize=0.8032mm|YSize=2.2532mm|CornerRadius=0mm|HoleSize=0mm|Usage=FLASHONLY|Rotation=315.000|XOffset=0mm|YOffset=0mm|HoleType=Round|Shape=Round|*
G36*
X00045933Y00120162D02*
X00046098Y00120093D01*
X00046246Y00119994D01*
X00046372Y00119868D01*
X00046471Y00119720D01*
X00046540Y00119555D01*
X00046574Y00119380D01*
X00046574Y00119291D01*
X00046574Y00119202D01*
X00046540Y00119027D01*
X00046471Y00118862D01*
X00046372Y00118714D01*
X00046246Y00118587D01*
X00046098Y00118488D01*
X00045933Y00118420D01*
X00045758Y00118385D01*
X00045580Y00118385D01*
X00045405Y00118420D01*
X00045240Y00118488D01*
X00045092Y00118587D01*
X00044965Y00118714D01*
X00044866Y00118862D01*
X00044798Y00119027D01*
X00044763Y00119202D01*
X00044763Y00119291D01*
X00044763Y00119380D01*
X00044798Y00119555D01*
X00044866Y00119720D01*
X00044965Y00119868D01*
X00045092Y00119994D01*
X00045240Y00120093D01*
X00045405Y00120162D01*
X00045580Y00120196D01*
X00045758Y00120196D01*
X00045933Y00120162D01*
D02*
G37*
G36*
X00001445Y00120162D02*
X00001610Y00120093D01*
X00001758Y00119994D01*
X00001884Y00119868D01*
X00001983Y00119720D01*
X00002051Y00119555D01*
X00002086Y00119380D01*
X00002086Y00119291D01*
X00002086Y00119202D01*
X00002051Y00119027D01*
X00001983Y00118862D01*
X00001884Y00118714D01*
X00001758Y00118587D01*
X00001610Y00118488D01*
X00001445Y00118420D01*
X00001270Y00118385D01*
X00001091Y00118385D01*
X00000916Y00118420D01*
X00000752Y00118488D01*
X00000603Y00118587D01*
X00000477Y00118714D01*
X00000378Y00118862D01*
X00000310Y00119027D01*
X00000275Y00119202D01*
X00000275Y00119291D01*
X00000275Y00119380D01*
X00000310Y00119555D01*
X00000378Y00119720D01*
X00000477Y00119868D01*
X00000603Y00119994D01*
X00000752Y00120093D01*
X00000916Y00120162D01*
X00001091Y00120196D01*
X00001270Y00120196D01*
X00001445Y00120162D01*
D02*
G37*
G36*
X00045933Y00065437D02*
X00046098Y00065369D01*
X00046246Y00065270D01*
X00046372Y00065144D01*
X00046471Y00064995D01*
X00046540Y00064831D01*
X00046574Y00064656D01*
X00046574Y00064566D01*
X00046574Y00064477D01*
X00046540Y00064302D01*
X00046471Y00064137D01*
X00046372Y00063989D01*
X00046246Y00063863D01*
X00046098Y00063764D01*
X00045933Y00063696D01*
X00045758Y00063661D01*
X00045580Y00063661D01*
X00045405Y00063696D01*
X00045240Y00063764D01*
X00045092Y00063863D01*
X00044965Y00063989D01*
X00044866Y00064137D01*
X00044798Y00064302D01*
X00044763Y00064477D01*
X00044763Y00064566D01*
X00044763Y00064656D01*
X00044798Y00064831D01*
X00044866Y00064995D01*
X00044965Y00065144D01*
X00045092Y00065270D01*
X00045240Y00065369D01*
X00045405Y00065437D01*
X00045580Y00065472D01*
X00045758Y00065472D01*
X00045933Y00065437D01*
D02*
G37*
G36*
X00001445Y00065437D02*
X00001610Y00065369D01*
X00001758Y00065270D01*
X00001884Y00065144D01*
X00001983Y00064995D01*
X00002051Y00064831D01*
X00002086Y00064656D01*
X00002086Y00064566D01*
X00002086Y00064477D01*
X00002051Y00064302D01*
X00001983Y00064137D01*
X00001884Y00063989D01*
X00001758Y00063863D01*
X00001610Y00063764D01*
X00001445Y00063696D01*
X00001270Y00063661D01*
X00001091Y00063661D01*
X00000916Y00063696D01*
X00000752Y00063764D01*
X00000603Y00063863D01*
X00000477Y00063989D01*
X00000378Y00064137D01*
X00000310Y00064302D01*
X00000275Y00064477D01*
X00000275Y00064566D01*
X00000275Y00064656D01*
X00000310Y00064831D01*
X00000378Y00064995D01*
X00000477Y00065144D01*
X00000603Y00065270D01*
X00000752Y00065369D01*
X00000916Y00065437D01*
X00001091Y00065472D01*
X00001270Y00065472D01*
X00001445Y00065437D01*
D02*
G37*
D101*
X00041141Y00070935D02*
D03*
X00043141Y00070935D02*
D03*
X00045141Y00070935D02*
D03*
X00039141Y00070935D02*
D03*
X00037141Y00070935D02*
D03*
X00037141Y00113061D02*
D03*
X00039141Y00113061D02*
D03*
X00045141Y00113061D02*
D03*
X00043141Y00113061D02*
D03*
X00041141Y00113061D02*
D03*
X00005708Y00070935D02*
D03*
X00007708Y00070935D02*
D03*
X00009708Y00070935D02*
D03*
X00003708Y00070935D02*
D03*
X00001708Y00070935D02*
D03*
X00001708Y00113061D02*
D03*
X00003708Y00113061D02*
D03*
X00009708Y00113061D02*
D03*
X00007708Y00113061D02*
D03*
X00005708Y00113061D02*
D03*
X00001181Y00064566D02*
D03*
X00001181Y00119291D02*
D03*
X00045669Y00119291D02*
D03*
X00045669Y00064566D02*
D03*
X00033838Y00118503D02*
D03*
D102*
X00018225Y00065829D02*
D03*
X00018225Y00064829D02*
D03*
X00020225Y00064829D02*
D03*
X00020225Y00065829D02*
D03*
X00019225Y00064829D02*
D03*
X00019225Y00065829D02*
D03*
X00021225Y00065829D02*
D03*
X00021225Y00064829D02*
D03*
X00017225Y00064829D02*
D03*
X00017225Y00065829D02*
D03*
X00035025Y00065829D02*
D03*
X00035025Y00064829D02*
D03*
X00037025Y00064829D02*
D03*
X00037025Y00065829D02*
D03*
X00036025Y00064829D02*
D03*
X00036025Y00065829D02*
D03*
X00038025Y00065829D02*
D03*
X00038025Y00064829D02*
D03*
X00034025Y00064829D02*
D03*
X00034025Y00065829D02*
D03*
X00026625Y00065829D02*
D03*
X00026625Y00064829D02*
D03*
X00028625Y00064829D02*
D03*
X00028625Y00065829D02*
D03*
X00027625Y00064829D02*
D03*
X00027625Y00065829D02*
D03*
X00029625Y00065829D02*
D03*
X00029625Y00064829D02*
D03*
X00025625Y00064829D02*
D03*
X00025625Y00065829D02*
D03*
X00009825Y00065829D02*
D03*
X00009825Y00064829D02*
D03*
X00011825Y00064829D02*
D03*
X00011825Y00065829D02*
D03*
X00010825Y00064829D02*
D03*
X00010825Y00065829D02*
D03*
X00012825Y00065829D02*
D03*
X00012825Y00064829D02*
D03*
X00008825Y00064829D02*
D03*
X00008825Y00065829D02*
D03*
X00025425Y00117829D02*
D03*
X00025425Y00118829D02*
D03*
X00021425Y00118829D02*
D03*
X00021425Y00117829D02*
D03*
X00023425Y00117829D02*
D03*
X00023425Y00118829D02*
D03*
X00022425Y00117829D02*
D03*
X00022425Y00118829D02*
D03*
X00024425Y00118829D02*
D03*
X00024425Y00117829D02*
D03*
D103*
X00007009Y00098329D02*
D03*
X00005040Y00098329D02*
D03*
D104*
X00025425Y00103141D02*
D03*
X00025425Y00103929D02*
D03*
D105*
X00001025Y00077729D02*
D03*
X00003825Y00077729D02*
D03*
X00041225Y00077729D02*
D03*
X00038225Y00077729D02*
D03*
X00044825Y00105729D02*
D03*
X00042025Y00105729D02*
D03*
D106*
X00002025Y00077729D02*
D03*
X00004825Y00077729D02*
D03*
X00040225Y00077729D02*
D03*
X00037225Y00077729D02*
D03*
X00045825Y00105729D02*
D03*
X00043025Y00105729D02*
D03*
D107*
X00021425Y00084929D02*
D03*
X00022425Y00084929D02*
D03*
X00023425Y00084929D02*
D03*
X00024425Y00084929D02*
D03*
X00045825Y00093929D02*
D03*
X00045825Y00092929D02*
D03*
X00045825Y00091929D02*
D03*
X00045825Y00090929D02*
D03*
X00028825Y00118529D02*
D03*
X00028825Y00119529D02*
D03*
D108*
X00025425Y00084929D02*
D03*
D109*
X00027425Y00092913D02*
D03*
X00039440Y00098329D02*
D03*
D110*
X00027425Y00090944D02*
D03*
D111*
X00045825Y00089929D02*
D03*
X00028825Y00117529D02*
D03*
D112*
X00041409Y00098329D02*
D03*
D113*
X00031225Y00119629D02*
D03*
X00014425Y00119629D02*
D03*
X00012225Y00119629D02*
D03*
X00010225Y00119629D02*
D03*
X00008225Y00119629D02*
D03*
D114*
X00031225Y00116629D02*
D03*
X00014425Y00116629D02*
D03*
X00012225Y00116629D02*
D03*
X00010225Y00116629D02*
D03*
X00008225Y00116629D02*
D03*
D115*
X00037119Y00118929D02*
D03*
X00039088Y00118929D02*
D03*
X00041056Y00118929D02*
D03*
X00003856Y00118929D02*
D03*
D116*
X00043025Y00118929D02*
D03*
X00005825Y00118929D02*
D03*
D117*
X00033825Y00119729D02*
D03*
X00034825Y00117729D02*
D03*
X00032825Y00117729D02*
D03*
D118*
X00009901Y00089929D02*
D03*
X00009901Y00090429D02*
D03*
X00009901Y00090929D02*
D03*
X00009901Y00091429D02*
D03*
X00009901Y00091929D02*
D03*
X00009901Y00092429D02*
D03*
X00009901Y00092929D02*
D03*
X00009901Y00093429D02*
D03*
X00009901Y00093929D02*
D03*
X00013523Y00089929D02*
D03*
X00013523Y00090429D02*
D03*
X00013523Y00090929D02*
D03*
X00013523Y00091429D02*
D03*
X00013523Y00091929D02*
D03*
X00013523Y00092429D02*
D03*
X00013523Y00092929D02*
D03*
X00013523Y00093429D02*
D03*
X00013523Y00093929D02*
D03*
D119*
X00032437Y00092402D02*
D03*
X00032660Y00092625D02*
D03*
X00032882Y00092847D02*
D03*
X00033105Y00093070D02*
D03*
X00033328Y00093293D02*
D03*
X00033550Y00093515D02*
D03*
X00033773Y00093738D02*
D03*
X00033996Y00093961D02*
D03*
X00034219Y00094184D02*
D03*
X00034441Y00094406D02*
D03*
X00034664Y00094629D02*
D03*
X00037838Y00091455D02*
D03*
X00037615Y00091233D02*
D03*
X00037392Y00091010D02*
D03*
X00037170Y00090787D02*
D03*
X00036947Y00090565D02*
D03*
X00036724Y00090342D02*
D03*
X00036501Y00090119D02*
D03*
X00036279Y00089896D02*
D03*
X00036056Y00089674D02*
D03*
X00035833Y00089451D02*
D03*
X00035611Y00089228D02*
D03*
D120*
X00035611Y00094629D02*
D03*
X00035833Y00094406D02*
D03*
X00036056Y00094184D02*
D03*
X00036279Y00093961D02*
D03*
X00036501Y00093738D02*
D03*
X00036724Y00093515D02*
D03*
X00036947Y00093293D02*
D03*
X00037170Y00093070D02*
D03*
X00037392Y00092847D02*
D03*
X00037615Y00092625D02*
D03*
X00037838Y00092402D02*
D03*
X00034664Y00089228D02*
D03*
X00034441Y00089451D02*
D03*
X00034219Y00089674D02*
D03*
X00033996Y00089896D02*
D03*
X00033773Y00090119D02*
D03*
X00033550Y00090342D02*
D03*
X00033328Y00090565D02*
D03*
X00033105Y00090787D02*
D03*
X00032882Y00091010D02*
D03*
X00032660Y00091233D02*
D03*
X00032437Y00091455D02*
D03*
D121*
X00022598Y00103135D02*
D03*
X00022598Y00103332D02*
D03*
X00022598Y00103529D02*
D03*
X00022598Y00103725D02*
D03*
X00022598Y00103922D02*
D03*
X00024251Y00103135D02*
D03*
X00024251Y00103332D02*
D03*
X00024251Y00103529D02*
D03*
X00024251Y00103725D02*
D03*
X00024251Y00103922D02*
D03*
D122*
X00024389Y00099279D02*
D03*
X00024389Y00098779D02*
D03*
X00024389Y00098279D02*
D03*
X00024389Y00097779D02*
D03*
X00022460Y00099279D02*
D03*
X00022460Y00098779D02*
D03*
X00022460Y00098279D02*
D03*
X00022460Y00097779D02*
D03*
D123*
X00024783Y00093592D02*
D03*
X00024783Y00093336D02*
D03*
X00024783Y00093080D02*
D03*
X00024783Y00092824D02*
D03*
X00024783Y00092568D02*
D03*
X00024783Y00092312D02*
D03*
X00024783Y00092057D02*
D03*
X00024783Y00091801D02*
D03*
X00024783Y00091545D02*
D03*
X00024783Y00091289D02*
D03*
X00024783Y00091033D02*
D03*
X00024783Y00090777D02*
D03*
X00024783Y00090521D02*
D03*
X00024783Y00090265D02*
D03*
X00022066Y00093592D02*
D03*
X00022066Y00093336D02*
D03*
X00022066Y00093080D02*
D03*
X00022066Y00092824D02*
D03*
X00022066Y00092568D02*
D03*
X00022066Y00092312D02*
D03*
X00022066Y00092057D02*
D03*
X00022066Y00091801D02*
D03*
X00022066Y00091545D02*
D03*
X00022066Y00091289D02*
D03*
X00022066Y00091033D02*
D03*
X00022066Y00090777D02*
D03*
X00022066Y00090521D02*
D03*
X00022066Y00090265D02*
D03*
D124*
X00029887Y00107303D02*
D03*
X00029887Y00106555D02*
D03*
X00028962Y00106929D02*
D03*
X00002574Y00075496D02*
D03*
X00002574Y00074748D02*
D03*
X00001648Y00075122D02*
D03*
X00002574Y00073696D02*
D03*
X00002574Y00072948D02*
D03*
X00001648Y00073322D02*
D03*
X00037673Y00107556D02*
D03*
X00037673Y00106808D02*
D03*
X00036748Y00107182D02*
D03*
X00037673Y00105756D02*
D03*
X00037673Y00105008D02*
D03*
X00036748Y00105382D02*
D03*
D125*
X00042025Y00103588D02*
D03*
X00042025Y00104269D02*
D03*
X00027583Y00106676D02*
D03*
X00027583Y00105995D02*
D03*
X00026783Y00106676D02*
D03*
X00026783Y00105995D02*
D03*
X00025983Y00106676D02*
D03*
X00025983Y00105995D02*
D03*
X00025183Y00106676D02*
D03*
X00025183Y00105995D02*
D03*
X00022225Y00110669D02*
D03*
X00022225Y00109988D02*
D03*
X00021225Y00110669D02*
D03*
X00021225Y00109988D02*
D03*
X00020225Y00110669D02*
D03*
X00020225Y00109988D02*
D03*
X00019225Y00110669D02*
D03*
X00019225Y00109988D02*
D03*
X00022225Y00112188D02*
D03*
X00022225Y00112869D02*
D03*
X00021225Y00112188D02*
D03*
X00021225Y00112869D02*
D03*
X00020225Y00112188D02*
D03*
X00020225Y00112869D02*
D03*
X00019225Y00112188D02*
D03*
X00019225Y00112869D02*
D03*
X00037225Y00080669D02*
D03*
X00037225Y00079988D02*
D03*
X00038558Y00080669D02*
D03*
X00038558Y00079988D02*
D03*
X00039891Y00080669D02*
D03*
X00039891Y00079988D02*
D03*
X00041225Y00080669D02*
D03*
X00041225Y00079988D02*
D03*
X00039493Y00096899D02*
D03*
X00039493Y00096218D02*
D03*
X00041493Y00096899D02*
D03*
X00041493Y00096218D02*
D03*
X00001025Y00078988D02*
D03*
X00001025Y00079669D02*
D03*
X00002291Y00078988D02*
D03*
X00002291Y00079669D02*
D03*
X00003558Y00079669D02*
D03*
X00003558Y00078988D02*
D03*
X00004825Y00079669D02*
D03*
X00004825Y00078988D02*
D03*
X00045825Y00103588D02*
D03*
X00045825Y00104269D02*
D03*
X00044558Y00103588D02*
D03*
X00044558Y00104269D02*
D03*
X00043291Y00103588D02*
D03*
X00043291Y00104269D02*
D03*
D126*
X00033199Y00115466D02*
D03*
X00032451Y00115466D02*
D03*
X00032825Y00116391D02*
D03*
D127*
X00003842Y00073122D02*
D03*
X00005180Y00073122D02*
D03*
X00039141Y00105182D02*
D03*
X00040480Y00105182D02*
D03*
X00003842Y00074322D02*
D03*
X00005180Y00074322D02*
D03*
X00039141Y00106382D02*
D03*
X00040480Y00106382D02*
D03*
X00003842Y00075522D02*
D03*
X00005180Y00075522D02*
D03*
X00039141Y00107582D02*
D03*
X00040480Y00107582D02*
D03*
X00018254Y00095480D02*
D03*
X00016915Y00095480D02*
D03*
X00006694Y00095529D02*
D03*
X00005355Y00095529D02*
D03*
X00018254Y00094480D02*
D03*
X00016915Y00094480D02*
D03*
X00006694Y00094529D02*
D03*
X00005355Y00094529D02*
D03*
X00018254Y00093480D02*
D03*
X00016915Y00093480D02*
D03*
X00006694Y00093529D02*
D03*
X00005355Y00093529D02*
D03*
X00018254Y00092480D02*
D03*
X00016915Y00092480D02*
D03*
X00006694Y00092529D02*
D03*
X00005355Y00092529D02*
D03*
X00018254Y00091480D02*
D03*
X00016915Y00091480D02*
D03*
X00006694Y00091529D02*
D03*
X00005355Y00091529D02*
D03*
X00018254Y00090480D02*
D03*
X00016915Y00090480D02*
D03*
X00006694Y00090529D02*
D03*
X00005355Y00090529D02*
D03*
X00018254Y00089480D02*
D03*
X00016915Y00089480D02*
D03*
X00006694Y00089529D02*
D03*
X00005355Y00089529D02*
D03*
X00018254Y00088480D02*
D03*
X00016915Y00088480D02*
D03*
X00006694Y00088529D02*
D03*
X00005355Y00088529D02*
D03*
X00026755Y00084929D02*
D03*
X00028094Y00084929D02*
D03*
X00026755Y00083929D02*
D03*
X00028094Y00083929D02*
D03*
X00028094Y00085929D02*
D03*
X00026755Y00085929D02*
D03*
X00028094Y00086929D02*
D03*
X00026755Y00086929D02*
D03*
X00028094Y00087929D02*
D03*
X00026755Y00087929D02*
D03*
X00031247Y00109721D02*
D03*
X00032586Y00109721D02*
D03*
X00032586Y00110921D02*
D03*
X00031247Y00110921D02*
D03*
X00031247Y00112121D02*
D03*
X00032586Y00112121D02*
D03*
X00032586Y00106121D02*
D03*
X00031247Y00106121D02*
D03*
X00031247Y00107321D02*
D03*
X00032586Y00107321D02*
D03*
X00031247Y00108521D02*
D03*
X00032586Y00108521D02*
D03*
D128*
X00034825Y00115259D02*
D03*
X00034825Y00116598D02*
D03*
X00022425Y00116398D02*
D03*
X00022425Y00115059D02*
D03*
X00012825Y00075259D02*
D03*
X00012825Y00076598D02*
D03*
X00044425Y00089659D02*
D03*
X00044425Y00090998D02*
D03*
X00010825Y00075259D02*
D03*
X00010825Y00076598D02*
D03*
X00037025Y00116598D02*
D03*
X00037025Y00115259D02*
D03*
X00011825Y00075259D02*
D03*
X00011825Y00076598D02*
D03*
X00039025Y00116598D02*
D03*
X00039025Y00115259D02*
D03*
X00029625Y00075259D02*
D03*
X00029625Y00076598D02*
D03*
X00028625Y00075259D02*
D03*
X00028625Y00076598D02*
D03*
X00021225Y00075259D02*
D03*
X00021225Y00076598D02*
D03*
X00020225Y00075259D02*
D03*
X00020225Y00076598D02*
D03*
X00019225Y00075259D02*
D03*
X00019225Y00076598D02*
D03*
X00035025Y00076598D02*
D03*
X00035025Y00075259D02*
D03*
X00023425Y00106998D02*
D03*
X00023425Y00105659D02*
D03*
X00026625Y00075259D02*
D03*
X00026625Y00076598D02*
D03*
X00036025Y00076598D02*
D03*
X00036025Y00075259D02*
D03*
X00027625Y00075259D02*
D03*
X00027625Y00076598D02*
D03*
X00021425Y00116398D02*
D03*
X00021425Y00115059D02*
D03*
X00037025Y00075259D02*
D03*
X00037025Y00076598D02*
D03*
D129*
X00028484Y00092929D02*
D03*
X00029165Y00092929D02*
D03*
X00028484Y00090929D02*
D03*
X00029165Y00090929D02*
D03*
X00026965Y00103929D02*
D03*
X00026284Y00103929D02*
D03*
X00026284Y00103129D02*
D03*
X00026965Y00103129D02*
D03*
G04 next file*
G04 Layer_Color=16711935*
G04 skipping 71
G01*
G75*
G04:AMPARAMS|DCode=80|XSize=0.8032mm|YSize=2.2532mm|CornerRadius=0mm|HoleSize=0mm|Usage=FLASHONLY|Rotation=225.000|XOffset=0mm|YOffset=0mm|HoleType=Round|Shape=Round|*
G04:AMPARAMS|DCode=81|XSize=0.8032mm|YSize=2.2532mm|CornerRadius=0mm|HoleSize=0mm|Usage=FLASHONLY|Rotation=315.000|XOffset=0mm|YOffset=0mm|HoleType=Round|Shape=Round|*
G36*
X00093964Y00061894D02*
X00094129Y00061826D01*
X00094278Y00061727D01*
X00094404Y00061600D01*
X00094503Y00061452D01*
X00094571Y00061287D01*
X00094606Y00061112D01*
X00094606Y00061023D01*
X00094606Y00060934D01*
X00094571Y00060759D01*
X00094503Y00060594D01*
X00094404Y00060446D01*
X00094278Y00060320D01*
X00094129Y00060221D01*
X00093964Y00060152D01*
X00093790Y00060117D01*
X00093611Y00060117D01*
X00093436Y00060152D01*
X00093271Y00060221D01*
X00093123Y00060320D01*
X00092997Y00060446D01*
X00092898Y00060594D01*
X00092830Y00060759D01*
X00092795Y00060934D01*
X00092795Y00061023D01*
X00092795Y00061112D01*
X00092830Y00061287D01*
X00092898Y00061452D01*
X00092997Y00061600D01*
X00093123Y00061727D01*
X00093271Y00061826D01*
X00093436Y00061894D01*
X00093611Y00061929D01*
X00093790Y00061929D01*
X00093964Y00061894D01*
D02*
G37*
G36*
X00049476Y00061894D02*
X00049641Y00061826D01*
X00049789Y00061727D01*
X00049916Y00061600D01*
X00050015Y00061452D01*
X00050083Y00061287D01*
X00050118Y00061112D01*
X00050118Y00061023D01*
X00050118Y00060934D01*
X00050083Y00060759D01*
X00050015Y00060594D01*
X00049916Y00060446D01*
X00049789Y00060320D01*
X00049641Y00060221D01*
X00049476Y00060152D01*
X00049301Y00060117D01*
X00049123Y00060117D01*
X00048948Y00060152D01*
X00048783Y00060221D01*
X00048635Y00060320D01*
X00048509Y00060446D01*
X00048410Y00060594D01*
X00048341Y00060759D01*
X00048306Y00060934D01*
X00048306Y00061023D01*
X00048306Y00061112D01*
X00048341Y00061287D01*
X00048410Y00061452D01*
X00048509Y00061600D01*
X00048635Y00061727D01*
X00048783Y00061826D01*
X00048948Y00061894D01*
X00049123Y00061929D01*
X00049301Y00061929D01*
X00049476Y00061894D01*
D02*
G37*
G36*
X00093964Y00007170D02*
X00094129Y00007101D01*
X00094278Y00007002D01*
X00094404Y00006876D01*
X00094503Y00006728D01*
X00094571Y00006563D01*
X00094606Y00006388D01*
X00094606Y00006299D01*
X00094606Y00006210D01*
X00094571Y00006035D01*
X00094503Y00005870D01*
X00094404Y00005721D01*
X00094278Y00005595D01*
X00094129Y00005496D01*
X00093964Y00005428D01*
X00093790Y00005393D01*
X00093611Y00005393D01*
X00093436Y00005428D01*
X00093271Y00005496D01*
X00093123Y00005595D01*
X00092997Y00005721D01*
X00092898Y00005870D01*
X00092830Y00006035D01*
X00092795Y00006210D01*
X00092795Y00006299D01*
X00092795Y00006388D01*
X00092830Y00006563D01*
X00092898Y00006728D01*
X00092997Y00006876D01*
X00093123Y00007002D01*
X00093271Y00007101D01*
X00093436Y00007170D01*
X00093611Y00007204D01*
X00093790Y00007204D01*
X00093964Y00007170D01*
D02*
G37*
G36*
X00049476Y00007170D02*
X00049641Y00007101D01*
X00049789Y00007002D01*
X00049916Y00006876D01*
X00050015Y00006728D01*
X00050083Y00006563D01*
X00050118Y00006388D01*
X00050118Y00006299D01*
X00050118Y00006210D01*
X00050083Y00006035D01*
X00050015Y00005870D01*
X00049916Y00005721D01*
X00049789Y00005595D01*
X00049641Y00005496D01*
X00049476Y00005428D01*
X00049301Y00005393D01*
X00049123Y00005393D01*
X00048948Y00005428D01*
X00048783Y00005496D01*
X00048635Y00005595D01*
X00048509Y00005721D01*
X00048410Y00005870D01*
X00048341Y00006035D01*
X00048306Y00006210D01*
X00048306Y00006299D01*
X00048306Y00006388D01*
X00048341Y00006563D01*
X00048410Y00006728D01*
X00048509Y00006876D01*
X00048635Y00007002D01*
X00048783Y00007101D01*
X00048948Y00007170D01*
X00049123Y00007204D01*
X00049301Y00007204D01*
X00049476Y00007170D01*
D02*
G37*
D130*
X00089173Y00012667D02*
D03*
X00091173Y00012667D02*
D03*
X00093173Y00012667D02*
D03*
X00087173Y00012667D02*
D03*
X00085173Y00012667D02*
D03*
X00085173Y00054793D02*
D03*
X00087173Y00054793D02*
D03*
X00093173Y00054793D02*
D03*
X00091173Y00054793D02*
D03*
X00089173Y00054793D02*
D03*
X00053740Y00012667D02*
D03*
X00055740Y00012667D02*
D03*
X00057740Y00012667D02*
D03*
X00051740Y00012667D02*
D03*
X00049740Y00012667D02*
D03*
X00049740Y00054793D02*
D03*
X00051740Y00054793D02*
D03*
X00057740Y00054793D02*
D03*
X00055740Y00054793D02*
D03*
X00053740Y00054793D02*
D03*
X00049212Y00006299D02*
D03*
X00049212Y00061023D02*
D03*
X00093700Y00061023D02*
D03*
X00093700Y00006299D02*
D03*
X00081870Y00060236D02*
D03*
D131*
X00066256Y00007561D02*
D03*
X00066256Y00006561D02*
D03*
X00068256Y00006561D02*
D03*
X00068256Y00007561D02*
D03*
X00067256Y00006561D02*
D03*
X00067256Y00007561D02*
D03*
X00069256Y00007561D02*
D03*
X00069256Y00006561D02*
D03*
X00065256Y00006561D02*
D03*
X00065256Y00007561D02*
D03*
X00083056Y00007561D02*
D03*
X00083056Y00006561D02*
D03*
X00085056Y00006561D02*
D03*
X00085056Y00007561D02*
D03*
X00084056Y00006561D02*
D03*
X00084056Y00007561D02*
D03*
X00086056Y00007561D02*
D03*
X00086056Y00006561D02*
D03*
X00082056Y00006561D02*
D03*
X00082056Y00007561D02*
D03*
X00074656Y00007561D02*
D03*
X00074656Y00006561D02*
D03*
X00076656Y00006561D02*
D03*
X00076656Y00007561D02*
D03*
X00075656Y00006561D02*
D03*
X00075656Y00007561D02*
D03*
X00077656Y00007561D02*
D03*
X00077656Y00006561D02*
D03*
X00073656Y00006561D02*
D03*
X00073656Y00007561D02*
D03*
X00057856Y00007561D02*
D03*
X00057856Y00006561D02*
D03*
X00059856Y00006561D02*
D03*
X00059856Y00007561D02*
D03*
X00058856Y00006561D02*
D03*
X00058856Y00007561D02*
D03*
X00060856Y00007561D02*
D03*
X00060856Y00006561D02*
D03*
X00056856Y00006561D02*
D03*
X00056856Y00007561D02*
D03*
X00073456Y00059561D02*
D03*
X00073456Y00060561D02*
D03*
X00069456Y00060561D02*
D03*
X00069456Y00059561D02*
D03*
X00071456Y00059561D02*
D03*
X00071456Y00060561D02*
D03*
X00070456Y00059561D02*
D03*
X00070456Y00060561D02*
D03*
X00072456Y00060561D02*
D03*
X00072456Y00059561D02*
D03*
D132*
X00055040Y00040061D02*
D03*
X00053072Y00040061D02*
D03*
D133*
X00073456Y00044874D02*
D03*
X00073456Y00045661D02*
D03*
D134*
X00049056Y00019461D02*
D03*
X00051856Y00019461D02*
D03*
X00089256Y00019461D02*
D03*
X00086256Y00019461D02*
D03*
X00092856Y00047461D02*
D03*
X00090056Y00047461D02*
D03*
D135*
X00050056Y00019461D02*
D03*
X00052856Y00019461D02*
D03*
X00088256Y00019461D02*
D03*
X00085256Y00019461D02*
D03*
X00093856Y00047461D02*
D03*
X00091056Y00047461D02*
D03*
D136*
X00069456Y00026661D02*
D03*
X00070456Y00026661D02*
D03*
X00071456Y00026661D02*
D03*
X00072456Y00026661D02*
D03*
X00093856Y00035661D02*
D03*
X00093856Y00034661D02*
D03*
X00093856Y00033661D02*
D03*
X00093856Y00032661D02*
D03*
X00076856Y00060261D02*
D03*
X00076856Y00061261D02*
D03*
D137*
X00073456Y00026661D02*
D03*
D138*
X00075456Y00034645D02*
D03*
X00087472Y00040061D02*
D03*
D139*
X00075456Y00032677D02*
D03*
D140*
X00093856Y00031661D02*
D03*
X00076856Y00059261D02*
D03*
D141*
X00089440Y00040061D02*
D03*
D142*
X00079256Y00061361D02*
D03*
X00062456Y00061361D02*
D03*
X00060256Y00061361D02*
D03*
X00058256Y00061361D02*
D03*
X00056256Y00061361D02*
D03*
D143*
X00079256Y00058361D02*
D03*
X00062456Y00058361D02*
D03*
X00060256Y00058361D02*
D03*
X00058256Y00058361D02*
D03*
X00056256Y00058361D02*
D03*
D144*
X00085151Y00060661D02*
D03*
X00087119Y00060661D02*
D03*
X00089088Y00060661D02*
D03*
X00051888Y00060661D02*
D03*
D145*
X00091056Y00060661D02*
D03*
X00053856Y00060661D02*
D03*
D146*
X00081856Y00061461D02*
D03*
X00082856Y00059461D02*
D03*
X00080856Y00059461D02*
D03*
D147*
X00057933Y00031661D02*
D03*
X00057933Y00032161D02*
D03*
X00057933Y00032661D02*
D03*
X00057933Y00033161D02*
D03*
X00057933Y00033661D02*
D03*
X00057933Y00034161D02*
D03*
X00057933Y00034661D02*
D03*
X00057933Y00035161D02*
D03*
X00057933Y00035661D02*
D03*
X00061555Y00031661D02*
D03*
X00061555Y00032161D02*
D03*
X00061555Y00032661D02*
D03*
X00061555Y00033161D02*
D03*
X00061555Y00033661D02*
D03*
X00061555Y00034161D02*
D03*
X00061555Y00034661D02*
D03*
X00061555Y00035161D02*
D03*
X00061555Y00035661D02*
D03*
D148*
X00080468Y00034134D02*
D03*
X00080691Y00034357D02*
D03*
X00080914Y00034580D02*
D03*
X00081137Y00034802D02*
D03*
X00081359Y00035025D02*
D03*
X00081582Y00035248D02*
D03*
X00081805Y00035470D02*
D03*
X00082027Y00035693D02*
D03*
X00082250Y00035916D02*
D03*
X00082473Y00036139D02*
D03*
X00082696Y00036361D02*
D03*
X00085869Y00033188D02*
D03*
X00085646Y00032965D02*
D03*
X00085424Y00032742D02*
D03*
X00085201Y00032520D02*
D03*
X00084978Y00032297D02*
D03*
X00084756Y00032074D02*
D03*
X00084533Y00031851D02*
D03*
X00084310Y00031629D02*
D03*
X00084087Y00031406D02*
D03*
X00083865Y00031183D02*
D03*
X00083642Y00030961D02*
D03*
D149*
X00083642Y00036361D02*
D03*
X00083865Y00036139D02*
D03*
X00084087Y00035916D02*
D03*
X00084310Y00035693D02*
D03*
X00084533Y00035470D02*
D03*
X00084756Y00035248D02*
D03*
X00084978Y00035025D02*
D03*
X00085201Y00034802D02*
D03*
X00085424Y00034580D02*
D03*
X00085646Y00034357D02*
D03*
X00085869Y00034134D02*
D03*
X00082696Y00030961D02*
D03*
X00082473Y00031183D02*
D03*
X00082250Y00031406D02*
D03*
X00082027Y00031629D02*
D03*
X00081805Y00031851D02*
D03*
X00081582Y00032074D02*
D03*
X00081359Y00032297D02*
D03*
X00081137Y00032520D02*
D03*
X00080914Y00032742D02*
D03*
X00080691Y00032965D02*
D03*
X00080468Y00033188D02*
D03*
D150*
X00070629Y00044867D02*
D03*
X00070629Y00045064D02*
D03*
X00070629Y00045261D02*
D03*
X00070629Y00045458D02*
D03*
X00070629Y00045655D02*
D03*
X00072283Y00044867D02*
D03*
X00072283Y00045064D02*
D03*
X00072283Y00045261D02*
D03*
X00072283Y00045458D02*
D03*
X00072283Y00045655D02*
D03*
D151*
X00072421Y00041011D02*
D03*
X00072421Y00040511D02*
D03*
X00072421Y00040011D02*
D03*
X00072421Y00039511D02*
D03*
X00070492Y00041011D02*
D03*
X00070492Y00040511D02*
D03*
X00070492Y00040011D02*
D03*
X00070492Y00039511D02*
D03*
D152*
X00072814Y00035324D02*
D03*
X00072814Y00035068D02*
D03*
X00072814Y00034812D02*
D03*
X00072814Y00034557D02*
D03*
X00072814Y00034301D02*
D03*
X00072814Y00034045D02*
D03*
X00072814Y00033789D02*
D03*
X00072814Y00033533D02*
D03*
X00072814Y00033277D02*
D03*
X00072814Y00033021D02*
D03*
X00072814Y00032765D02*
D03*
X00072814Y00032509D02*
D03*
X00072814Y00032253D02*
D03*
X00072814Y00031998D02*
D03*
X00070098Y00035324D02*
D03*
X00070098Y00035068D02*
D03*
X00070098Y00034812D02*
D03*
X00070098Y00034557D02*
D03*
X00070098Y00034301D02*
D03*
X00070098Y00034045D02*
D03*
X00070098Y00033789D02*
D03*
X00070098Y00033533D02*
D03*
X00070098Y00033277D02*
D03*
X00070098Y00033021D02*
D03*
X00070098Y00032765D02*
D03*
X00070098Y00032509D02*
D03*
X00070098Y00032253D02*
D03*
X00070098Y00031998D02*
D03*
D153*
X00077919Y00049035D02*
D03*
X00077919Y00048287D02*
D03*
X00076994Y00048661D02*
D03*
X00050605Y00017228D02*
D03*
X00050605Y00016480D02*
D03*
X00049680Y00016854D02*
D03*
X00050605Y00015428D02*
D03*
X00050605Y00014680D02*
D03*
X00049680Y00015054D02*
D03*
X00085705Y00049288D02*
D03*
X00085705Y00048540D02*
D03*
X00084779Y00048914D02*
D03*
X00085705Y00047488D02*
D03*
X00085705Y00046740D02*
D03*
X00084779Y00047114D02*
D03*
D154*
X00090056Y00045320D02*
D03*
X00090056Y00046001D02*
D03*
X00075614Y00048408D02*
D03*
X00075614Y00047727D02*
D03*
X00074814Y00048408D02*
D03*
X00074814Y00047727D02*
D03*
X00074014Y00048408D02*
D03*
X00074014Y00047727D02*
D03*
X00073214Y00048408D02*
D03*
X00073214Y00047727D02*
D03*
X00070256Y00052401D02*
D03*
X00070256Y00051720D02*
D03*
X00069256Y00052401D02*
D03*
X00069256Y00051720D02*
D03*
X00068256Y00052401D02*
D03*
X00068256Y00051720D02*
D03*
X00067256Y00052401D02*
D03*
X00067256Y00051720D02*
D03*
X00070256Y00053920D02*
D03*
X00070256Y00054601D02*
D03*
X00069256Y00053920D02*
D03*
X00069256Y00054601D02*
D03*
X00068256Y00053920D02*
D03*
X00068256Y00054601D02*
D03*
X00067256Y00053920D02*
D03*
X00067256Y00054601D02*
D03*
X00085256Y00022401D02*
D03*
X00085256Y00021720D02*
D03*
X00086590Y00022401D02*
D03*
X00086590Y00021720D02*
D03*
X00087923Y00022401D02*
D03*
X00087923Y00021720D02*
D03*
X00089256Y00022401D02*
D03*
X00089256Y00021720D02*
D03*
X00087524Y00038631D02*
D03*
X00087524Y00037950D02*
D03*
X00089524Y00038631D02*
D03*
X00089524Y00037950D02*
D03*
X00049056Y00020720D02*
D03*
X00049056Y00021401D02*
D03*
X00050323Y00020720D02*
D03*
X00050323Y00021401D02*
D03*
X00051590Y00021401D02*
D03*
X00051590Y00020720D02*
D03*
X00052856Y00021401D02*
D03*
X00052856Y00020720D02*
D03*
X00093856Y00045320D02*
D03*
X00093856Y00046001D02*
D03*
X00092590Y00045320D02*
D03*
X00092590Y00046001D02*
D03*
X00091323Y00045320D02*
D03*
X00091323Y00046001D02*
D03*
D155*
X00081230Y00057198D02*
D03*
X00080482Y00057198D02*
D03*
X00080856Y00058124D02*
D03*
D156*
X00051873Y00014854D02*
D03*
X00053212Y00014854D02*
D03*
X00087173Y00046914D02*
D03*
X00088511Y00046914D02*
D03*
X00051873Y00016054D02*
D03*
X00053212Y00016054D02*
D03*
X00087173Y00048114D02*
D03*
X00088511Y00048114D02*
D03*
X00051873Y00017254D02*
D03*
X00053212Y00017254D02*
D03*
X00087173Y00049314D02*
D03*
X00088511Y00049314D02*
D03*
X00066285Y00037212D02*
D03*
X00064947Y00037212D02*
D03*
X00054725Y00037261D02*
D03*
X00053387Y00037261D02*
D03*
X00066285Y00036212D02*
D03*
X00064947Y00036212D02*
D03*
X00054725Y00036261D02*
D03*
X00053387Y00036261D02*
D03*
X00066285Y00035212D02*
D03*
X00064947Y00035212D02*
D03*
X00054725Y00035261D02*
D03*
X00053387Y00035261D02*
D03*
X00066285Y00034212D02*
D03*
X00064947Y00034212D02*
D03*
X00054725Y00034261D02*
D03*
X00053387Y00034261D02*
D03*
X00066285Y00033212D02*
D03*
X00064947Y00033212D02*
D03*
X00054725Y00033261D02*
D03*
X00053387Y00033261D02*
D03*
X00066285Y00032212D02*
D03*
X00064947Y00032212D02*
D03*
X00054725Y00032261D02*
D03*
X00053387Y00032261D02*
D03*
X00066285Y00031212D02*
D03*
X00064947Y00031212D02*
D03*
X00054725Y00031261D02*
D03*
X00053387Y00031261D02*
D03*
X00066285Y00030212D02*
D03*
X00064947Y00030212D02*
D03*
X00054725Y00030261D02*
D03*
X00053387Y00030261D02*
D03*
X00074787Y00026661D02*
D03*
X00076125Y00026661D02*
D03*
X00074787Y00025661D02*
D03*
X00076125Y00025661D02*
D03*
X00076125Y00027661D02*
D03*
X00074787Y00027661D02*
D03*
X00076125Y00028661D02*
D03*
X00074787Y00028661D02*
D03*
X00076125Y00029661D02*
D03*
X00074787Y00029661D02*
D03*
X00079279Y00051453D02*
D03*
X00080617Y00051453D02*
D03*
X00080617Y00052653D02*
D03*
X00079279Y00052653D02*
D03*
X00079279Y00053853D02*
D03*
X00080617Y00053853D02*
D03*
X00080617Y00047853D02*
D03*
X00079279Y00047853D02*
D03*
X00079279Y00049053D02*
D03*
X00080617Y00049053D02*
D03*
X00079279Y00050253D02*
D03*
X00080617Y00050253D02*
D03*
D157*
X00082856Y00056992D02*
D03*
X00082856Y00058330D02*
D03*
X00070456Y00058130D02*
D03*
X00070456Y00056792D02*
D03*
X00060856Y00016992D02*
D03*
X00060856Y00018330D02*
D03*
X00092456Y00031392D02*
D03*
X00092456Y00032730D02*
D03*
X00058856Y00016992D02*
D03*
X00058856Y00018330D02*
D03*
X00085056Y00058330D02*
D03*
X00085056Y00056992D02*
D03*
X00059856Y00016992D02*
D03*
X00059856Y00018330D02*
D03*
X00087056Y00058330D02*
D03*
X00087056Y00056992D02*
D03*
X00077656Y00016992D02*
D03*
X00077656Y00018330D02*
D03*
X00076656Y00016992D02*
D03*
X00076656Y00018330D02*
D03*
X00069256Y00016992D02*
D03*
X00069256Y00018330D02*
D03*
X00068256Y00016992D02*
D03*
X00068256Y00018330D02*
D03*
X00067256Y00016992D02*
D03*
X00067256Y00018330D02*
D03*
X00083056Y00018330D02*
D03*
X00083056Y00016992D02*
D03*
X00071456Y00048730D02*
D03*
X00071456Y00047392D02*
D03*
X00074656Y00016992D02*
D03*
X00074656Y00018330D02*
D03*
X00084056Y00018330D02*
D03*
X00084056Y00016992D02*
D03*
X00075656Y00016992D02*
D03*
X00075656Y00018330D02*
D03*
X00069456Y00058130D02*
D03*
X00069456Y00056792D02*
D03*
X00085056Y00016992D02*
D03*
X00085056Y00018330D02*
D03*
D158*
X00076516Y00034661D02*
D03*
X00077197Y00034661D02*
D03*
X00076516Y00032661D02*
D03*
X00077197Y00032661D02*
D03*
X00074997Y00045661D02*
D03*
X00074316Y00045661D02*
D03*
X00074316Y00044861D02*
D03*
X00074997Y00044861D02*
D03*
G04 next file*
G04 Layer_Color=16711935*
G04 skipping 71
G01*
G75*
G04:AMPARAMS|DCode=80|XSize=0.8032mm|YSize=2.2532mm|CornerRadius=0mm|HoleSize=0mm|Usage=FLASHONLY|Rotation=225.000|XOffset=0mm|YOffset=0mm|HoleType=Round|Shape=Round|*
G04:AMPARAMS|DCode=81|XSize=0.8032mm|YSize=2.2532mm|CornerRadius=0mm|HoleSize=0mm|Usage=FLASHONLY|Rotation=315.000|XOffset=0mm|YOffset=0mm|HoleType=Round|Shape=Round|*
G36*
X00093964Y00120162D02*
X00094129Y00120093D01*
X00094278Y00119994D01*
X00094404Y00119868D01*
X00094503Y00119720D01*
X00094571Y00119555D01*
X00094606Y00119380D01*
X00094606Y00119291D01*
X00094606Y00119202D01*
X00094571Y00119027D01*
X00094503Y00118862D01*
X00094404Y00118714D01*
X00094278Y00118587D01*
X00094129Y00118488D01*
X00093964Y00118420D01*
X00093790Y00118385D01*
X00093611Y00118385D01*
X00093436Y00118420D01*
X00093271Y00118488D01*
X00093123Y00118587D01*
X00092997Y00118714D01*
X00092898Y00118862D01*
X00092830Y00119027D01*
X00092795Y00119202D01*
X00092795Y00119291D01*
X00092795Y00119380D01*
X00092830Y00119555D01*
X00092898Y00119720D01*
X00092997Y00119868D01*
X00093123Y00119994D01*
X00093271Y00120093D01*
X00093436Y00120162D01*
X00093611Y00120196D01*
X00093790Y00120196D01*
X00093964Y00120162D01*
D02*
G37*
G36*
X00049476Y00120162D02*
X00049641Y00120093D01*
X00049789Y00119994D01*
X00049916Y00119868D01*
X00050015Y00119720D01*
X00050083Y00119555D01*
X00050118Y00119380D01*
X00050118Y00119291D01*
X00050118Y00119202D01*
X00050083Y00119027D01*
X00050015Y00118862D01*
X00049916Y00118714D01*
X00049789Y00118587D01*
X00049641Y00118488D01*
X00049476Y00118420D01*
X00049301Y00118385D01*
X00049123Y00118385D01*
X00048948Y00118420D01*
X00048783Y00118488D01*
X00048635Y00118587D01*
X00048509Y00118714D01*
X00048410Y00118862D01*
X00048341Y00119027D01*
X00048306Y00119202D01*
X00048306Y00119291D01*
X00048306Y00119380D01*
X00048341Y00119555D01*
X00048410Y00119720D01*
X00048509Y00119868D01*
X00048635Y00119994D01*
X00048783Y00120093D01*
X00048948Y00120162D01*
X00049123Y00120196D01*
X00049301Y00120196D01*
X00049476Y00120162D01*
D02*
G37*
G36*
X00093964Y00065437D02*
X00094129Y00065369D01*
X00094278Y00065270D01*
X00094404Y00065144D01*
X00094503Y00064995D01*
X00094571Y00064831D01*
X00094606Y00064656D01*
X00094606Y00064566D01*
X00094606Y00064477D01*
X00094571Y00064302D01*
X00094503Y00064137D01*
X00094404Y00063989D01*
X00094278Y00063863D01*
X00094129Y00063764D01*
X00093964Y00063696D01*
X00093790Y00063661D01*
X00093611Y00063661D01*
X00093436Y00063696D01*
X00093271Y00063764D01*
X00093123Y00063863D01*
X00092997Y00063989D01*
X00092898Y00064137D01*
X00092830Y00064302D01*
X00092795Y00064477D01*
X00092795Y00064566D01*
X00092795Y00064656D01*
X00092830Y00064831D01*
X00092898Y00064995D01*
X00092997Y00065144D01*
X00093123Y00065270D01*
X00093271Y00065369D01*
X00093436Y00065437D01*
X00093611Y00065472D01*
X00093790Y00065472D01*
X00093964Y00065437D01*
D02*
G37*
G36*
X00049476Y00065437D02*
X00049641Y00065369D01*
X00049789Y00065270D01*
X00049916Y00065144D01*
X00050015Y00064995D01*
X00050083Y00064831D01*
X00050118Y00064656D01*
X00050118Y00064566D01*
X00050118Y00064477D01*
X00050083Y00064302D01*
X00050015Y00064137D01*
X00049916Y00063989D01*
X00049789Y00063863D01*
X00049641Y00063764D01*
X00049476Y00063696D01*
X00049301Y00063661D01*
X00049123Y00063661D01*
X00048948Y00063696D01*
X00048783Y00063764D01*
X00048635Y00063863D01*
X00048509Y00063989D01*
X00048410Y00064137D01*
X00048341Y00064302D01*
X00048306Y00064477D01*
X00048306Y00064566D01*
X00048306Y00064656D01*
X00048341Y00064831D01*
X00048410Y00064995D01*
X00048509Y00065144D01*
X00048635Y00065270D01*
X00048783Y00065369D01*
X00048948Y00065437D01*
X00049123Y00065472D01*
X00049301Y00065472D01*
X00049476Y00065437D01*
D02*
G37*
D159*
X00089173Y00070935D02*
D03*
X00091173Y00070935D02*
D03*
X00093173Y00070935D02*
D03*
X00087173Y00070935D02*
D03*
X00085173Y00070935D02*
D03*
X00085173Y00113061D02*
D03*
X00087173Y00113061D02*
D03*
X00093173Y00113061D02*
D03*
X00091173Y00113061D02*
D03*
X00089173Y00113061D02*
D03*
X00053740Y00070935D02*
D03*
X00055740Y00070935D02*
D03*
X00057740Y00070935D02*
D03*
X00051740Y00070935D02*
D03*
X00049740Y00070935D02*
D03*
X00049740Y00113061D02*
D03*
X00051740Y00113061D02*
D03*
X00057740Y00113061D02*
D03*
X00055740Y00113061D02*
D03*
X00053740Y00113061D02*
D03*
X00049212Y00064566D02*
D03*
X00049212Y00119291D02*
D03*
X00093700Y00119291D02*
D03*
X00093700Y00064566D02*
D03*
X00081870Y00118503D02*
D03*
D160*
X00066256Y00065829D02*
D03*
X00066256Y00064829D02*
D03*
X00068256Y00064829D02*
D03*
X00068256Y00065829D02*
D03*
X00067256Y00064829D02*
D03*
X00067256Y00065829D02*
D03*
X00069256Y00065829D02*
D03*
X00069256Y00064829D02*
D03*
X00065256Y00064829D02*
D03*
X00065256Y00065829D02*
D03*
X00083056Y00065829D02*
D03*
X00083056Y00064829D02*
D03*
X00085056Y00064829D02*
D03*
X00085056Y00065829D02*
D03*
X00084056Y00064829D02*
D03*
X00084056Y00065829D02*
D03*
X00086056Y00065829D02*
D03*
X00086056Y00064829D02*
D03*
X00082056Y00064829D02*
D03*
X00082056Y00065829D02*
D03*
X00074656Y00065829D02*
D03*
X00074656Y00064829D02*
D03*
X00076656Y00064829D02*
D03*
X00076656Y00065829D02*
D03*
X00075656Y00064829D02*
D03*
X00075656Y00065829D02*
D03*
X00077656Y00065829D02*
D03*
X00077656Y00064829D02*
D03*
X00073656Y00064829D02*
D03*
X00073656Y00065829D02*
D03*
X00057856Y00065829D02*
D03*
X00057856Y00064829D02*
D03*
X00059856Y00064829D02*
D03*
X00059856Y00065829D02*
D03*
X00058856Y00064829D02*
D03*
X00058856Y00065829D02*
D03*
X00060856Y00065829D02*
D03*
X00060856Y00064829D02*
D03*
X00056856Y00064829D02*
D03*
X00056856Y00065829D02*
D03*
X00073456Y00117829D02*
D03*
X00073456Y00118829D02*
D03*
X00069456Y00118829D02*
D03*
X00069456Y00117829D02*
D03*
X00071456Y00117829D02*
D03*
X00071456Y00118829D02*
D03*
X00070456Y00117829D02*
D03*
X00070456Y00118829D02*
D03*
X00072456Y00118829D02*
D03*
X00072456Y00117829D02*
D03*
D161*
X00055040Y00098329D02*
D03*
X00053072Y00098329D02*
D03*
D162*
X00073456Y00103141D02*
D03*
X00073456Y00103929D02*
D03*
D163*
X00049056Y00077729D02*
D03*
X00051856Y00077729D02*
D03*
X00089256Y00077729D02*
D03*
X00086256Y00077729D02*
D03*
X00092856Y00105729D02*
D03*
X00090056Y00105729D02*
D03*
D164*
X00050056Y00077729D02*
D03*
X00052856Y00077729D02*
D03*
X00088256Y00077729D02*
D03*
X00085256Y00077729D02*
D03*
X00093856Y00105729D02*
D03*
X00091056Y00105729D02*
D03*
D165*
X00069456Y00084929D02*
D03*
X00070456Y00084929D02*
D03*
X00071456Y00084929D02*
D03*
X00072456Y00084929D02*
D03*
X00093856Y00093929D02*
D03*
X00093856Y00092929D02*
D03*
X00093856Y00091929D02*
D03*
X00093856Y00090929D02*
D03*
X00076856Y00118529D02*
D03*
X00076856Y00119529D02*
D03*
D166*
X00073456Y00084929D02*
D03*
D167*
X00075456Y00092913D02*
D03*
X00087472Y00098329D02*
D03*
D168*
X00075456Y00090944D02*
D03*
D169*
X00093856Y00089929D02*
D03*
X00076856Y00117529D02*
D03*
D170*
X00089440Y00098329D02*
D03*
D171*
X00079256Y00119629D02*
D03*
X00062456Y00119629D02*
D03*
X00060256Y00119629D02*
D03*
X00058256Y00119629D02*
D03*
X00056256Y00119629D02*
D03*
D172*
X00079256Y00116629D02*
D03*
X00062456Y00116629D02*
D03*
X00060256Y00116629D02*
D03*
X00058256Y00116629D02*
D03*
X00056256Y00116629D02*
D03*
D173*
X00085151Y00118929D02*
D03*
X00087119Y00118929D02*
D03*
X00089088Y00118929D02*
D03*
X00051888Y00118929D02*
D03*
D174*
X00091056Y00118929D02*
D03*
X00053856Y00118929D02*
D03*
D175*
X00081856Y00119729D02*
D03*
X00082856Y00117729D02*
D03*
X00080856Y00117729D02*
D03*
D176*
X00057933Y00089929D02*
D03*
X00057933Y00090429D02*
D03*
X00057933Y00090929D02*
D03*
X00057933Y00091429D02*
D03*
X00057933Y00091929D02*
D03*
X00057933Y00092429D02*
D03*
X00057933Y00092929D02*
D03*
X00057933Y00093429D02*
D03*
X00057933Y00093929D02*
D03*
X00061555Y00089929D02*
D03*
X00061555Y00090429D02*
D03*
X00061555Y00090929D02*
D03*
X00061555Y00091429D02*
D03*
X00061555Y00091929D02*
D03*
X00061555Y00092429D02*
D03*
X00061555Y00092929D02*
D03*
X00061555Y00093429D02*
D03*
X00061555Y00093929D02*
D03*
D177*
X00080468Y00092402D02*
D03*
X00080691Y00092625D02*
D03*
X00080914Y00092847D02*
D03*
X00081137Y00093070D02*
D03*
X00081359Y00093293D02*
D03*
X00081582Y00093515D02*
D03*
X00081805Y00093738D02*
D03*
X00082027Y00093961D02*
D03*
X00082250Y00094184D02*
D03*
X00082473Y00094406D02*
D03*
X00082696Y00094629D02*
D03*
X00085869Y00091455D02*
D03*
X00085646Y00091233D02*
D03*
X00085424Y00091010D02*
D03*
X00085201Y00090787D02*
D03*
X00084978Y00090565D02*
D03*
X00084756Y00090342D02*
D03*
X00084533Y00090119D02*
D03*
X00084310Y00089896D02*
D03*
X00084087Y00089674D02*
D03*
X00083865Y00089451D02*
D03*
X00083642Y00089228D02*
D03*
D178*
X00083642Y00094629D02*
D03*
X00083865Y00094406D02*
D03*
X00084087Y00094184D02*
D03*
X00084310Y00093961D02*
D03*
X00084533Y00093738D02*
D03*
X00084756Y00093515D02*
D03*
X00084978Y00093293D02*
D03*
X00085201Y00093070D02*
D03*
X00085424Y00092847D02*
D03*
X00085646Y00092625D02*
D03*
X00085869Y00092402D02*
D03*
X00082696Y00089228D02*
D03*
X00082473Y00089451D02*
D03*
X00082250Y00089674D02*
D03*
X00082027Y00089896D02*
D03*
X00081805Y00090119D02*
D03*
X00081582Y00090342D02*
D03*
X00081359Y00090565D02*
D03*
X00081137Y00090787D02*
D03*
X00080914Y00091010D02*
D03*
X00080691Y00091233D02*
D03*
X00080468Y00091455D02*
D03*
D179*
X00070629Y00103135D02*
D03*
X00070629Y00103332D02*
D03*
X00070629Y00103529D02*
D03*
X00070629Y00103725D02*
D03*
X00070629Y00103922D02*
D03*
X00072283Y00103135D02*
D03*
X00072283Y00103332D02*
D03*
X00072283Y00103529D02*
D03*
X00072283Y00103725D02*
D03*
X00072283Y00103922D02*
D03*
D180*
X00072421Y00099279D02*
D03*
X00072421Y00098779D02*
D03*
X00072421Y00098279D02*
D03*
X00072421Y00097779D02*
D03*
X00070492Y00099279D02*
D03*
X00070492Y00098779D02*
D03*
X00070492Y00098279D02*
D03*
X00070492Y00097779D02*
D03*
D181*
X00072814Y00093592D02*
D03*
X00072814Y00093336D02*
D03*
X00072814Y00093080D02*
D03*
X00072814Y00092824D02*
D03*
X00072814Y00092568D02*
D03*
X00072814Y00092312D02*
D03*
X00072814Y00092057D02*
D03*
X00072814Y00091801D02*
D03*
X00072814Y00091545D02*
D03*
X00072814Y00091289D02*
D03*
X00072814Y00091033D02*
D03*
X00072814Y00090777D02*
D03*
X00072814Y00090521D02*
D03*
X00072814Y00090265D02*
D03*
X00070098Y00093592D02*
D03*
X00070098Y00093336D02*
D03*
X00070098Y00093080D02*
D03*
X00070098Y00092824D02*
D03*
X00070098Y00092568D02*
D03*
X00070098Y00092312D02*
D03*
X00070098Y00092057D02*
D03*
X00070098Y00091801D02*
D03*
X00070098Y00091545D02*
D03*
X00070098Y00091289D02*
D03*
X00070098Y00091033D02*
D03*
X00070098Y00090777D02*
D03*
X00070098Y00090521D02*
D03*
X00070098Y00090265D02*
D03*
D182*
X00077919Y00107303D02*
D03*
X00077919Y00106555D02*
D03*
X00076994Y00106929D02*
D03*
X00050605Y00075496D02*
D03*
X00050605Y00074748D02*
D03*
X00049680Y00075122D02*
D03*
X00050605Y00073696D02*
D03*
X00050605Y00072948D02*
D03*
X00049680Y00073322D02*
D03*
X00085705Y00107556D02*
D03*
X00085705Y00106808D02*
D03*
X00084779Y00107182D02*
D03*
X00085705Y00105756D02*
D03*
X00085705Y00105008D02*
D03*
X00084779Y00105382D02*
D03*
D183*
X00090056Y00103588D02*
D03*
X00090056Y00104269D02*
D03*
X00075614Y00106676D02*
D03*
X00075614Y00105995D02*
D03*
X00074814Y00106676D02*
D03*
X00074814Y00105995D02*
D03*
X00074014Y00106676D02*
D03*
X00074014Y00105995D02*
D03*
X00073214Y00106676D02*
D03*
X00073214Y00105995D02*
D03*
X00070256Y00110669D02*
D03*
X00070256Y00109988D02*
D03*
X00069256Y00110669D02*
D03*
X00069256Y00109988D02*
D03*
X00068256Y00110669D02*
D03*
X00068256Y00109988D02*
D03*
X00067256Y00110669D02*
D03*
X00067256Y00109988D02*
D03*
X00070256Y00112188D02*
D03*
X00070256Y00112869D02*
D03*
X00069256Y00112188D02*
D03*
X00069256Y00112869D02*
D03*
X00068256Y00112188D02*
D03*
X00068256Y00112869D02*
D03*
X00067256Y00112188D02*
D03*
X00067256Y00112869D02*
D03*
X00085256Y00080669D02*
D03*
X00085256Y00079988D02*
D03*
X00086590Y00080669D02*
D03*
X00086590Y00079988D02*
D03*
X00087923Y00080669D02*
D03*
X00087923Y00079988D02*
D03*
X00089256Y00080669D02*
D03*
X00089256Y00079988D02*
D03*
X00087524Y00096899D02*
D03*
X00087524Y00096218D02*
D03*
X00089524Y00096899D02*
D03*
X00089524Y00096218D02*
D03*
X00049056Y00078988D02*
D03*
X00049056Y00079669D02*
D03*
X00050323Y00078988D02*
D03*
X00050323Y00079669D02*
D03*
X00051590Y00079669D02*
D03*
X00051590Y00078988D02*
D03*
X00052856Y00079669D02*
D03*
X00052856Y00078988D02*
D03*
X00093856Y00103588D02*
D03*
X00093856Y00104269D02*
D03*
X00092590Y00103588D02*
D03*
X00092590Y00104269D02*
D03*
X00091323Y00103588D02*
D03*
X00091323Y00104269D02*
D03*
D184*
X00081230Y00115466D02*
D03*
X00080482Y00115466D02*
D03*
X00080856Y00116391D02*
D03*
D185*
X00051873Y00073122D02*
D03*
X00053212Y00073122D02*
D03*
X00087173Y00105182D02*
D03*
X00088511Y00105182D02*
D03*
X00051873Y00074322D02*
D03*
X00053212Y00074322D02*
D03*
X00087173Y00106382D02*
D03*
X00088511Y00106382D02*
D03*
X00051873Y00075522D02*
D03*
X00053212Y00075522D02*
D03*
X00087173Y00107582D02*
D03*
X00088511Y00107582D02*
D03*
X00066285Y00095480D02*
D03*
X00064947Y00095480D02*
D03*
X00054725Y00095529D02*
D03*
X00053387Y00095529D02*
D03*
X00066285Y00094480D02*
D03*
X00064947Y00094480D02*
D03*
X00054725Y00094529D02*
D03*
X00053387Y00094529D02*
D03*
X00066285Y00093480D02*
D03*
X00064947Y00093480D02*
D03*
X00054725Y00093529D02*
D03*
X00053387Y00093529D02*
D03*
X00066285Y00092480D02*
D03*
X00064947Y00092480D02*
D03*
X00054725Y00092529D02*
D03*
X00053387Y00092529D02*
D03*
X00066285Y00091480D02*
D03*
X00064947Y00091480D02*
D03*
X00054725Y00091529D02*
D03*
X00053387Y00091529D02*
D03*
X00066285Y00090480D02*
D03*
X00064947Y00090480D02*
D03*
X00054725Y00090529D02*
D03*
X00053387Y00090529D02*
D03*
X00066285Y00089480D02*
D03*
X00064947Y00089480D02*
D03*
X00054725Y00089529D02*
D03*
X00053387Y00089529D02*
D03*
X00066285Y00088480D02*
D03*
X00064947Y00088480D02*
D03*
X00054725Y00088529D02*
D03*
X00053387Y00088529D02*
D03*
X00074787Y00084929D02*
D03*
X00076125Y00084929D02*
D03*
X00074787Y00083929D02*
D03*
X00076125Y00083929D02*
D03*
X00076125Y00085929D02*
D03*
X00074787Y00085929D02*
D03*
X00076125Y00086929D02*
D03*
X00074787Y00086929D02*
D03*
X00076125Y00087929D02*
D03*
X00074787Y00087929D02*
D03*
X00079279Y00109721D02*
D03*
X00080617Y00109721D02*
D03*
X00080617Y00110921D02*
D03*
X00079279Y00110921D02*
D03*
X00079279Y00112121D02*
D03*
X00080617Y00112121D02*
D03*
X00080617Y00106121D02*
D03*
X00079279Y00106121D02*
D03*
X00079279Y00107321D02*
D03*
X00080617Y00107321D02*
D03*
X00079279Y00108521D02*
D03*
X00080617Y00108521D02*
D03*
D186*
X00082856Y00115259D02*
D03*
X00082856Y00116598D02*
D03*
X00070456Y00116398D02*
D03*
X00070456Y00115059D02*
D03*
X00060856Y00075259D02*
D03*
X00060856Y00076598D02*
D03*
X00092456Y00089659D02*
D03*
X00092456Y00090998D02*
D03*
X00058856Y00075259D02*
D03*
X00058856Y00076598D02*
D03*
X00085056Y00116598D02*
D03*
X00085056Y00115259D02*
D03*
X00059856Y00075259D02*
D03*
X00059856Y00076598D02*
D03*
X00087056Y00116598D02*
D03*
X00087056Y00115259D02*
D03*
X00077656Y00075259D02*
D03*
X00077656Y00076598D02*
D03*
X00076656Y00075259D02*
D03*
X00076656Y00076598D02*
D03*
X00069256Y00075259D02*
D03*
X00069256Y00076598D02*
D03*
X00068256Y00075259D02*
D03*
X00068256Y00076598D02*
D03*
X00067256Y00075259D02*
D03*
X00067256Y00076598D02*
D03*
X00083056Y00076598D02*
D03*
X00083056Y00075259D02*
D03*
X00071456Y00106998D02*
D03*
X00071456Y00105659D02*
D03*
X00074656Y00075259D02*
D03*
X00074656Y00076598D02*
D03*
X00084056Y00076598D02*
D03*
X00084056Y00075259D02*
D03*
X00075656Y00075259D02*
D03*
X00075656Y00076598D02*
D03*
X00069456Y00116398D02*
D03*
X00069456Y00115059D02*
D03*
X00085056Y00075259D02*
D03*
X00085056Y00076598D02*
D03*
D187*
X00076516Y00092929D02*
D03*
X00077197Y00092929D02*
D03*
X00076516Y00090929D02*
D03*
X00077197Y00090929D02*
D03*
X00074997Y00103929D02*
D03*
X00074316Y00103929D02*
D03*
X00074316Y00103129D02*
D03*
X00074997Y00103129D02*
D03*
G04 next file*
G04 Layer_Color=16711935*
G04 skipping 71
G01*
G75*
D188*
X00003937Y00123622D02*
D03*
X00090944Y00123622D02*
D03*
D189*
X00092913Y00123622D02*
D03*
X00001968Y00123622D02*
D03*
G04 next file*
G04 Layer_Color=16711935*
G04 skipping 71
G01*
G75*
D190*
X00090944Y00001968D02*
D03*
X00003937Y00001968D02*
D03*
D191*
X00001968Y00001968D02*
D03*
X00092913Y00001968D02*
D03*
M02*