%MOIN*%
%OFA0B0*%
%FSLAX44Y44*%
%IPPOS*%
%LPD*%
%ADD10C,0*%
D10*
X00046850Y00062204D02*
X00046850Y00062204D01*
X00037133Y00062204D01*
X00037092Y00062206D01*
X00037051Y00062213D01*
X00037011Y00062224D01*
X00036972Y00062239D01*
X00036936Y00062257D01*
X00036901Y00062280D01*
X00036869Y00062306D01*
X00036840Y00062336D01*
X00036814Y00062368D01*
X00036791Y00062403D01*
X00036773Y00062440D01*
X00036758Y00062479D01*
X00036748Y00062519D01*
X00036742Y00062560D01*
X00036740Y00062601D01*
X00036742Y00062642D01*
X00036749Y00062683D01*
X00036760Y00062723D01*
X00036775Y00062762D01*
X00036794Y00062798D01*
X00037027Y00063192D01*
X00037038Y00063209D01*
X00037050Y00063226D01*
X00037062Y00063242D01*
X00037076Y00063258D01*
X00037090Y00063272D01*
X00037105Y00063286D01*
X00037121Y00063299D01*
X00037137Y00063312D01*
X00037154Y00063323D01*
X00037171Y00063334D01*
X00037189Y00063343D01*
X00037208Y00063352D01*
X00037226Y00063360D01*
X00037246Y00063366D01*
X00037265Y00063372D01*
X00037285Y00063377D01*
X00037305Y00063381D01*
X00037325Y00063383D01*
X00037346Y00063385D01*
X00037366Y00063385D01*
X00046850Y00063385D01*
X00046850Y00072739D01*
X00046852Y00072781D01*
X00046859Y00072822D01*
X00046870Y00072863D01*
X00046885Y00072902D01*
X00046905Y00072939D01*
X00046928Y00072974D01*
X00046955Y00073007D01*
X00046986Y00073036D01*
X00047019Y00073062D01*
X00047055Y00073084D01*
X00047093Y00073102D01*
X00047132Y00073116D01*
X00047173Y00073126D01*
X00047215Y00073131D01*
X00047257Y00073132D01*
X00047299Y00073128D01*
X00047341Y00073120D01*
X00047381Y00073108D01*
X00047419Y00073091D01*
X00047456Y00073070D01*
X00047850Y00072818D01*
X00047866Y00072807D01*
X00047882Y00072795D01*
X00047897Y00072782D01*
X00047911Y00072769D01*
X00047925Y00072755D01*
X00047938Y00072740D01*
X00047951Y00072725D01*
X00047962Y00072709D01*
X00047973Y00072692D01*
X00047983Y00072675D01*
X00047992Y00072657D01*
X00048000Y00072640D01*
X00048007Y00072621D01*
X00048013Y00072603D01*
X00048019Y00072584D01*
X00048023Y00072564D01*
X00048027Y00072545D01*
X00048029Y00072525D01*
X00048031Y00072506D01*
X00048031Y00072486D01*
X00048031Y00063385D01*
X00055974Y00063385D01*
X00055994Y00063385D01*
X00056014Y00063383D01*
X00056035Y00063381D01*
X00056055Y00063377D01*
X00056074Y00063372D01*
X00056094Y00063366D01*
X00056113Y00063360D01*
X00056132Y00063352D01*
X00056151Y00063343D01*
X00056169Y00063334D01*
X00056186Y00063323D01*
X00056203Y00063312D01*
X00056219Y00063299D01*
X00056235Y00063286D01*
X00056250Y00063272D01*
X00056264Y00063258D01*
X00056277Y00063242D01*
X00056290Y00063226D01*
X00056302Y00063209D01*
X00056312Y00063192D01*
X00056545Y00062798D01*
X00056564Y00062762D01*
X00056580Y00062723D01*
X00056591Y00062683D01*
X00056598Y00062642D01*
X00056600Y00062601D01*
X00056598Y00062560D01*
X00056592Y00062519D01*
X00056582Y00062479D01*
X00056567Y00062440D01*
X00056548Y00062403D01*
X00056526Y00062368D01*
X00056500Y00062336D01*
X00056471Y00062306D01*
X00056439Y00062280D01*
X00056404Y00062257D01*
X00056367Y00062239D01*
X00056329Y00062224D01*
X00056289Y00062213D01*
X00056248Y00062206D01*
X00056206Y00062204D01*
X00048031Y00062204D01*
X00048031Y00051579D01*
X00048031Y00051567D01*
X00048030Y00051554D01*
X00048029Y00051542D01*
X00048028Y00051530D01*
X00048026Y00051517D01*
X00048024Y00051505D01*
X00048021Y00051493D01*
X00048018Y00051481D01*
X00048015Y00051469D01*
X00048011Y00051457D01*
X00048007Y00051445D01*
X00048003Y00051433D01*
X00047998Y00051422D01*
X00047993Y00051411D01*
X00047988Y00051399D01*
X00047982Y00051388D01*
X00047975Y00051378D01*
X00047969Y00051367D01*
X00047962Y00051357D01*
X00047955Y00051346D01*
X00047561Y00050809D01*
X00047530Y00050771D01*
X00047493Y00050738D01*
X00047453Y00050709D01*
X00047410Y00050685D01*
X00047364Y00050667D01*
X00047316Y00050655D01*
X00047267Y00050649D01*
X00047218Y00050649D01*
X00047169Y00050655D01*
X00047121Y00050668D01*
X00047075Y00050686D01*
X00047032Y00050710D01*
X00046992Y00050739D01*
X00046956Y00050773D01*
X00046925Y00050811D01*
X00046898Y00050852D01*
X00046877Y00050897D01*
X00046862Y00050944D01*
X00046853Y00050993D01*
X00046850Y00051042D01*
X00046850Y00062204D01*
X00046850Y00107680D02*
X00046850Y00107680D01*
X00046850Y00107701D01*
X00046852Y00107722D01*
X00046855Y00107743D01*
X00046859Y00107764D01*
X00046864Y00107784D01*
X00046870Y00107804D01*
X00046877Y00107824D01*
X00046886Y00107844D01*
X00046895Y00107863D01*
X00046905Y00107881D01*
X00046917Y00107899D01*
X00046929Y00107916D01*
X00046942Y00107933D01*
X00046956Y00107949D01*
X00046971Y00107964D01*
X00046986Y00107978D01*
X00047003Y00107991D01*
X00047020Y00108004D01*
X00047038Y00108015D01*
X00047056Y00108026D01*
X00047450Y00108239D01*
X00047486Y00108257D01*
X00047525Y00108270D01*
X00047564Y00108280D01*
X00047605Y00108285D01*
X00047645Y00108287D01*
X00047686Y00108284D01*
X00047726Y00108277D01*
X00047765Y00108266D01*
X00047803Y00108250D01*
X00047839Y00108231D01*
X00047873Y00108209D01*
X00047904Y00108183D01*
X00047932Y00108154D01*
X00047958Y00108122D01*
X00047980Y00108088D01*
X00047998Y00108051D01*
X00048012Y00108013D01*
X00048023Y00107974D01*
X00048029Y00107934D01*
X00048031Y00107893D01*
X00048031Y00074724D01*
X00048031Y00074704D01*
X00048029Y00074685D01*
X00048027Y00074665D01*
X00048023Y00074646D01*
X00048019Y00074626D01*
X00048013Y00074607D01*
X00048007Y00074589D01*
X00048000Y00074570D01*
X00047992Y00074553D01*
X00047983Y00074535D01*
X00047973Y00074518D01*
X00047962Y00074501D01*
X00047951Y00074485D01*
X00047938Y00074470D01*
X00047925Y00074455D01*
X00047911Y00074441D01*
X00047897Y00074428D01*
X00047882Y00074415D01*
X00047866Y00074404D01*
X00047850Y00074392D01*
X00047456Y00074140D01*
X00047419Y00074119D01*
X00047381Y00074102D01*
X00047341Y00074090D01*
X00047299Y00074082D01*
X00047257Y00074078D01*
X00047215Y00074079D01*
X00047173Y00074084D01*
X00047132Y00074094D01*
X00047093Y00074108D01*
X00047055Y00074126D01*
X00047019Y00074148D01*
X00046986Y00074174D01*
X00046955Y00074203D01*
X00046928Y00074236D01*
X00046905Y00074271D01*
X00046885Y00074308D01*
X00046870Y00074347D01*
X00046859Y00074388D01*
X00046852Y00074429D01*
X00046850Y00074471D01*
X00046850Y00107680D01*
X00046850Y00049782D02*
X00046850Y00049782D01*
X00046853Y00049832D01*
X00046862Y00049880D01*
X00046877Y00049927D01*
X00046898Y00049972D01*
X00046925Y00050014D01*
X00046956Y00050052D01*
X00046992Y00050086D01*
X00047032Y00050115D01*
X00047075Y00050138D01*
X00047121Y00050157D01*
X00047169Y00050169D01*
X00047218Y00050175D01*
X00047267Y00050175D01*
X00047316Y00050169D01*
X00047364Y00050157D01*
X00047410Y00050139D01*
X00047453Y00050116D01*
X00047493Y00050087D01*
X00047530Y00050053D01*
X00047561Y00050015D01*
X00047955Y00049478D01*
X00047962Y00049468D01*
X00047969Y00049457D01*
X00047975Y00049447D01*
X00047982Y00049436D01*
X00047988Y00049425D01*
X00047993Y00049414D01*
X00047998Y00049402D01*
X00048003Y00049391D01*
X00048007Y00049379D01*
X00048011Y00049368D01*
X00048015Y00049356D01*
X00048018Y00049344D01*
X00048021Y00049332D01*
X00048024Y00049319D01*
X00048026Y00049307D01*
X00048028Y00049295D01*
X00048029Y00049282D01*
X00048030Y00049270D01*
X00048031Y00049258D01*
X00048031Y00049245D01*
X00048031Y00021310D01*
X00048031Y00021298D01*
X00048030Y00021286D01*
X00048029Y00021273D01*
X00048028Y00021261D01*
X00048026Y00021249D01*
X00048024Y00021236D01*
X00048021Y00021224D01*
X00048018Y00021212D01*
X00048015Y00021200D01*
X00048011Y00021188D01*
X00048007Y00021176D01*
X00048003Y00021165D01*
X00047998Y00021153D01*
X00047993Y00021142D01*
X00047988Y00021131D01*
X00047982Y00021120D01*
X00047975Y00021109D01*
X00047969Y00021098D01*
X00047962Y00021088D01*
X00047955Y00021078D01*
X00047561Y00020540D01*
X00047530Y00020503D01*
X00047493Y00020469D01*
X00047453Y00020440D01*
X00047410Y00020416D01*
X00047364Y00020398D01*
X00047316Y00020386D01*
X00047267Y00020380D01*
X00047218Y00020380D01*
X00047169Y00020387D01*
X00047121Y00020399D01*
X00047075Y00020417D01*
X00047032Y00020441D01*
X00046992Y00020470D01*
X00046956Y00020504D01*
X00046925Y00020542D01*
X00046898Y00020584D01*
X00046877Y00020628D01*
X00046862Y00020675D01*
X00046853Y00020724D01*
X00046850Y00020773D01*
X00046850Y00049782D01*
X00035139Y00063385D02*
X00035139Y00063385D01*
X00035160Y00063385D01*
X00035180Y00063383D01*
X00035200Y00063381D01*
X00035220Y00063377D01*
X00035240Y00063372D01*
X00035260Y00063366D01*
X00035279Y00063360D01*
X00035298Y00063352D01*
X00035316Y00063343D01*
X00035334Y00063334D01*
X00035352Y00063323D01*
X00035369Y00063312D01*
X00035385Y00063299D01*
X00035401Y00063286D01*
X00035415Y00063272D01*
X00035430Y00063258D01*
X00035443Y00063242D01*
X00035456Y00063226D01*
X00035467Y00063209D01*
X00035478Y00063192D01*
X00035711Y00062798D01*
X00035730Y00062762D01*
X00035745Y00062723D01*
X00035756Y00062683D01*
X00035763Y00062642D01*
X00035766Y00062601D01*
X00035764Y00062560D01*
X00035758Y00062519D01*
X00035747Y00062479D01*
X00035733Y00062440D01*
X00035714Y00062403D01*
X00035692Y00062368D01*
X00035666Y00062336D01*
X00035637Y00062306D01*
X00035605Y00062280D01*
X00035570Y00062257D01*
X00035533Y00062239D01*
X00035494Y00062224D01*
X00035454Y00062213D01*
X00035413Y00062206D01*
X00035372Y00062204D01*
X00022035Y00062204D01*
X00022015Y00062205D01*
X00021995Y00062206D01*
X00021974Y00062209D01*
X00021954Y00062213D01*
X00021934Y00062217D01*
X00021915Y00062223D01*
X00021896Y00062230D01*
X00021877Y00062238D01*
X00021858Y00062246D01*
X00021840Y00062256D01*
X00021823Y00062267D01*
X00021806Y00062278D01*
X00021790Y00062290D01*
X00021774Y00062303D01*
X00021759Y00062317D01*
X00021745Y00062332D01*
X00021732Y00062347D01*
X00021719Y00062364D01*
X00021707Y00062380D01*
X00021696Y00062398D01*
X00021464Y00062791D01*
X00021444Y00062828D01*
X00021429Y00062866D01*
X00021418Y00062906D01*
X00021411Y00062947D01*
X00021409Y00062989D01*
X00021411Y00063030D01*
X00021417Y00063071D01*
X00021427Y00063111D01*
X00021442Y00063150D01*
X00021460Y00063187D01*
X00021483Y00063222D01*
X00021509Y00063254D01*
X00021538Y00063283D01*
X00021570Y00063309D01*
X00021605Y00063332D01*
X00021642Y00063351D01*
X00021680Y00063366D01*
X00021720Y00063377D01*
X00021761Y00063383D01*
X00021802Y00063385D01*
X00035139Y00063385D01*
X00007149Y00062204D02*
X00007149Y00062204D01*
X00007136Y00062204D01*
X00007123Y00062205D01*
X00007110Y00062206D01*
X00007097Y00062208D01*
X00007084Y00062210D01*
X00007071Y00062212D01*
X00007059Y00062215D01*
X00007046Y00062218D01*
X00007034Y00062221D01*
X00007022Y00062225D01*
X00007009Y00062230D01*
X00006997Y00062234D01*
X00006986Y00062240D01*
X00006974Y00062245D01*
X00006962Y00062251D01*
X00006951Y00062257D01*
X00006940Y00062264D01*
X00006929Y00062271D01*
X00006919Y00062278D01*
X00006908Y00062286D01*
X00006397Y00062680D01*
X00006361Y00062712D01*
X00006328Y00062749D01*
X00006300Y00062789D01*
X00006278Y00062832D01*
X00006261Y00062878D01*
X00006250Y00062926D01*
X00006245Y00062974D01*
X00006245Y00063023D01*
X00006252Y00063071D01*
X00006265Y00063119D01*
X00006284Y00063164D01*
X00006308Y00063206D01*
X00006337Y00063246D01*
X00006371Y00063281D01*
X00006409Y00063312D01*
X00006450Y00063338D01*
X00006494Y00063358D01*
X00006541Y00063373D01*
X00006589Y00063382D01*
X00006638Y00063385D01*
X00020041Y00063385D01*
X00020083Y00063383D01*
X00020123Y00063377D01*
X00020163Y00063366D01*
X00020202Y00063351D01*
X00020239Y00063332D01*
X00020274Y00063309D01*
X00020306Y00063283D01*
X00020335Y00063254D01*
X00020361Y00063222D01*
X00020383Y00063187D01*
X00020402Y00063150D01*
X00020416Y00063111D01*
X00020427Y00063071D01*
X00020433Y00063030D01*
X00020435Y00062989D01*
X00020432Y00062947D01*
X00020426Y00062906D01*
X00020415Y00062866D01*
X00020399Y00062828D01*
X00020380Y00062791D01*
X00020147Y00062398D01*
X00020136Y00062380D01*
X00020125Y00062364D01*
X00020112Y00062347D01*
X00020099Y00062332D01*
X00020085Y00062317D01*
X00020070Y00062303D01*
X00020054Y00062290D01*
X00020038Y00062278D01*
X00020021Y00062267D01*
X00020003Y00062256D01*
X00019985Y00062246D01*
X00019967Y00062238D01*
X00019948Y00062230D01*
X00019929Y00062223D01*
X00019909Y00062217D01*
X00019889Y00062213D01*
X00019869Y00062209D01*
X00019849Y00062206D01*
X00019829Y00062205D01*
X00019808Y00062204D01*
X00007149Y00062204D01*
X00057968Y00062204D02*
X00057968Y00062204D01*
X00057926Y00062206D01*
X00057885Y00062213D01*
X00057845Y00062224D01*
X00057807Y00062239D01*
X00057770Y00062257D01*
X00057735Y00062280D01*
X00057703Y00062306D01*
X00057674Y00062336D01*
X00057648Y00062368D01*
X00057626Y00062403D01*
X00057607Y00062440D01*
X00057592Y00062479D01*
X00057582Y00062519D01*
X00057576Y00062560D01*
X00057574Y00062601D01*
X00057576Y00062642D01*
X00057583Y00062683D01*
X00057594Y00062723D01*
X00057610Y00062762D01*
X00057629Y00062798D01*
X00057862Y00063192D01*
X00057872Y00063209D01*
X00057884Y00063226D01*
X00057897Y00063242D01*
X00057910Y00063258D01*
X00057924Y00063272D01*
X00057939Y00063286D01*
X00057955Y00063299D01*
X00057971Y00063312D01*
X00057988Y00063323D01*
X00058005Y00063334D01*
X00058023Y00063343D01*
X00058042Y00063352D01*
X00058061Y00063360D01*
X00058080Y00063366D01*
X00058100Y00063372D01*
X00058119Y00063377D01*
X00058139Y00063381D01*
X00058160Y00063383D01*
X00058180Y00063385D01*
X00058200Y00063385D01*
X00069375Y00063385D01*
X00069417Y00063383D01*
X00069458Y00063377D01*
X00069497Y00063366D01*
X00069536Y00063351D01*
X00069573Y00063332D01*
X00069608Y00063309D01*
X00069640Y00063283D01*
X00069669Y00063254D01*
X00069695Y00063222D01*
X00069717Y00063187D01*
X00069736Y00063150D01*
X00069750Y00063111D01*
X00069761Y00063071D01*
X00069767Y00063030D01*
X00069769Y00062989D01*
X00069766Y00062947D01*
X00069760Y00062906D01*
X00069749Y00062866D01*
X00069733Y00062828D01*
X00069714Y00062791D01*
X00069481Y00062398D01*
X00069470Y00062380D01*
X00069459Y00062364D01*
X00069446Y00062347D01*
X00069433Y00062332D01*
X00069419Y00062317D01*
X00069404Y00062303D01*
X00069388Y00062290D01*
X00069372Y00062278D01*
X00069355Y00062267D01*
X00069337Y00062256D01*
X00069319Y00062246D01*
X00069301Y00062238D01*
X00069282Y00062230D01*
X00069263Y00062223D01*
X00069243Y00062217D01*
X00069223Y00062213D01*
X00069203Y00062209D01*
X00069183Y00062206D01*
X00069163Y00062205D01*
X00069142Y00062204D01*
X00057968Y00062204D01*
X00087703Y00063385D02*
X00087703Y00063385D01*
X00087758Y00063381D01*
X00087812Y00063370D01*
X00087864Y00063351D01*
X00087912Y00063325D01*
X00087957Y00063292D01*
X00087996Y00063254D01*
X00088030Y00063210D01*
X00088058Y00063162D01*
X00088078Y00063111D01*
X00088091Y00063057D01*
X00088096Y00063002D01*
X00088094Y00062947D01*
X00088084Y00062893D01*
X00088066Y00062840D01*
X00088041Y00062791D01*
X00088010Y00062745D01*
X00087972Y00062705D01*
X00087930Y00062670D01*
X00087882Y00062641D01*
X00087832Y00062620D01*
X00086697Y00062226D01*
X00086690Y00062224D01*
X00086684Y00062222D01*
X00086678Y00062220D01*
X00086672Y00062218D01*
X00086665Y00062217D01*
X00086659Y00062215D01*
X00086652Y00062213D01*
X00086646Y00062212D01*
X00086640Y00062211D01*
X00086633Y00062210D01*
X00086627Y00062209D01*
X00086620Y00062208D01*
X00086614Y00062207D01*
X00086607Y00062206D01*
X00086601Y00062206D01*
X00086594Y00062205D01*
X00086587Y00062205D01*
X00086581Y00062204D01*
X00086574Y00062204D01*
X00086568Y00062204D01*
X00071369Y00062204D01*
X00071349Y00062205D01*
X00071329Y00062206D01*
X00071308Y00062209D01*
X00071288Y00062213D01*
X00071268Y00062217D01*
X00071249Y00062223D01*
X00071230Y00062230D01*
X00071211Y00062238D01*
X00071192Y00062246D01*
X00071174Y00062256D01*
X00071157Y00062267D01*
X00071140Y00062278D01*
X00071124Y00062290D01*
X00071108Y00062303D01*
X00071093Y00062317D01*
X00071079Y00062332D01*
X00071066Y00062347D01*
X00071053Y00062364D01*
X00071041Y00062380D01*
X00071030Y00062398D01*
X00070798Y00062791D01*
X00070778Y00062828D01*
X00070763Y00062866D01*
X00070752Y00062906D01*
X00070745Y00062947D01*
X00070743Y00062989D01*
X00070745Y00063030D01*
X00070751Y00063071D01*
X00070761Y00063111D01*
X00070776Y00063150D01*
X00070794Y00063187D01*
X00070817Y00063222D01*
X00070843Y00063254D01*
X00070872Y00063283D01*
X00070904Y00063309D01*
X00070939Y00063332D01*
X00070976Y00063351D01*
X00071014Y00063366D01*
X00071054Y00063377D01*
X00071095Y00063383D01*
X00071136Y00063385D01*
X00087703Y00063385D01*
X00035500Y00121653D02*
X00035500Y00121653D01*
X00035516Y00121653D01*
X00035532Y00121652D01*
X00035548Y00121650D01*
X00035563Y00121648D01*
X00035579Y00121645D01*
X00035595Y00121641D01*
X00035610Y00121637D01*
X00035625Y00121633D01*
X00035640Y00121627D01*
X00035655Y00121621D01*
X00035670Y00121615D01*
X00035684Y00121607D01*
X00035698Y00121600D01*
X00035711Y00121591D01*
X00035725Y00121583D01*
X00035738Y00121573D01*
X00035750Y00121563D01*
X00035762Y00121553D01*
X00035774Y00121542D01*
X00035785Y00121531D01*
X00036160Y00121137D01*
X00036190Y00121102D01*
X00036215Y00121064D01*
X00036236Y00121023D01*
X00036252Y00120980D01*
X00036262Y00120935D01*
X00036268Y00120890D01*
X00036268Y00120844D01*
X00036263Y00120798D01*
X00036252Y00120754D01*
X00036237Y00120711D01*
X00036216Y00120669D01*
X00036191Y00120631D01*
X00036162Y00120596D01*
X00036128Y00120564D01*
X00036091Y00120537D01*
X00036052Y00120514D01*
X00036010Y00120496D01*
X00035966Y00120483D01*
X00035921Y00120475D01*
X00035875Y00120472D01*
X00022268Y00120472D01*
X00022231Y00120474D01*
X00022194Y00120479D01*
X00022158Y00120487D01*
X00022123Y00120499D01*
X00022089Y00120515D01*
X00022057Y00120533D01*
X00022027Y00120554D01*
X00021999Y00120578D01*
X00021973Y00120604D01*
X00021950Y00120633D01*
X00021929Y00120664D01*
X00021912Y00120697D01*
X00021898Y00120731D01*
X00021887Y00120766D01*
X00021879Y00120802D01*
X00021875Y00120839D01*
X00021874Y00120876D01*
X00021877Y00120913D01*
X00021883Y00120949D01*
X00021892Y00120985D01*
X00022018Y00121379D01*
X00022026Y00121402D01*
X00022036Y00121425D01*
X00022047Y00121447D01*
X00022059Y00121469D01*
X00022073Y00121489D01*
X00022088Y00121509D01*
X00022105Y00121528D01*
X00022122Y00121545D01*
X00022141Y00121562D01*
X00022160Y00121577D01*
X00022181Y00121591D01*
X00022202Y00121604D01*
X00022224Y00121615D01*
X00022247Y00121625D01*
X00022271Y00121634D01*
X00022294Y00121641D01*
X00022319Y00121646D01*
X00022343Y00121650D01*
X00022368Y00121652D01*
X00022393Y00121653D01*
X00035500Y00121653D01*
X00058040Y00120472D02*
X00058040Y00120472D01*
X00058003Y00120474D01*
X00057966Y00120479D01*
X00057930Y00120487D01*
X00057895Y00120499D01*
X00057862Y00120515D01*
X00057829Y00120533D01*
X00057799Y00120554D01*
X00057771Y00120578D01*
X00057745Y00120604D01*
X00057722Y00120633D01*
X00057702Y00120664D01*
X00057684Y00120697D01*
X00057670Y00120731D01*
X00057659Y00120766D01*
X00057651Y00120802D01*
X00057647Y00120839D01*
X00057646Y00120876D01*
X00057649Y00120913D01*
X00057655Y00120949D01*
X00057664Y00120985D01*
X00057790Y00121379D01*
X00057798Y00121402D01*
X00057808Y00121425D01*
X00057819Y00121447D01*
X00057831Y00121469D01*
X00057845Y00121489D01*
X00057860Y00121509D01*
X00057877Y00121528D01*
X00057894Y00121545D01*
X00057913Y00121562D01*
X00057932Y00121577D01*
X00057953Y00121591D01*
X00057974Y00121604D01*
X00057996Y00121615D01*
X00058019Y00121625D01*
X00058043Y00121634D01*
X00058066Y00121641D01*
X00058091Y00121646D01*
X00058115Y00121650D01*
X00058140Y00121652D01*
X00058165Y00121653D01*
X00069879Y00121653D01*
X00069915Y00121651D01*
X00069951Y00121646D01*
X00069986Y00121638D01*
X00070020Y00121627D01*
X00070053Y00121613D01*
X00070085Y00121595D01*
X00070114Y00121575D01*
X00070142Y00121552D01*
X00070168Y00121527D01*
X00070191Y00121500D01*
X00070212Y00121470D01*
X00070230Y00121439D01*
X00070245Y00121406D01*
X00070257Y00121373D01*
X00070265Y00121338D01*
X00070271Y00121302D01*
X00070273Y00121266D01*
X00070272Y00121230D01*
X00070268Y00121195D01*
X00070260Y00121159D01*
X00070157Y00120766D01*
X00070150Y00120741D01*
X00070141Y00120717D01*
X00070130Y00120693D01*
X00070118Y00120670D01*
X00070104Y00120648D01*
X00070089Y00120627D01*
X00070073Y00120607D01*
X00070055Y00120588D01*
X00070037Y00120570D01*
X00070017Y00120554D01*
X00069996Y00120539D01*
X00069974Y00120525D01*
X00069951Y00120513D01*
X00069927Y00120502D01*
X00069903Y00120493D01*
X00069879Y00120485D01*
X00069853Y00120480D01*
X00069828Y00120475D01*
X00069802Y00120473D01*
X00069776Y00120472D01*
X00058040Y00120472D01*
X00056009Y00121653D02*
X00056009Y00121653D01*
X00056034Y00121652D01*
X00056059Y00121650D01*
X00056083Y00121646D01*
X00056108Y00121641D01*
X00056131Y00121634D01*
X00056155Y00121625D01*
X00056178Y00121615D01*
X00056200Y00121604D01*
X00056221Y00121591D01*
X00056242Y00121577D01*
X00056261Y00121562D01*
X00056280Y00121545D01*
X00056297Y00121528D01*
X00056314Y00121509D01*
X00056329Y00121489D01*
X00056343Y00121469D01*
X00056355Y00121447D01*
X00056366Y00121425D01*
X00056376Y00121402D01*
X00056384Y00121379D01*
X00056510Y00120985D01*
X00056519Y00120949D01*
X00056525Y00120913D01*
X00056528Y00120876D01*
X00056527Y00120839D01*
X00056523Y00120802D01*
X00056515Y00120766D01*
X00056504Y00120731D01*
X00056490Y00120697D01*
X00056473Y00120664D01*
X00056452Y00120633D01*
X00056429Y00120604D01*
X00056403Y00120578D01*
X00056375Y00120554D01*
X00056345Y00120533D01*
X00056313Y00120515D01*
X00056279Y00120499D01*
X00056244Y00120487D01*
X00056208Y00120479D01*
X00056171Y00120474D01*
X00056134Y00120472D01*
X00048031Y00120472D01*
X00048031Y00109682D01*
X00048029Y00109641D01*
X00048023Y00109601D01*
X00048012Y00109562D01*
X00047998Y00109524D01*
X00047980Y00109487D01*
X00047958Y00109453D01*
X00047932Y00109421D01*
X00047904Y00109392D01*
X00047873Y00109366D01*
X00047839Y00109343D01*
X00047803Y00109325D01*
X00047765Y00109309D01*
X00047726Y00109298D01*
X00047686Y00109291D01*
X00047645Y00109288D01*
X00047605Y00109289D01*
X00047564Y00109295D01*
X00047525Y00109305D01*
X00047486Y00109318D01*
X00047450Y00109336D01*
X00047056Y00109549D01*
X00047038Y00109560D01*
X00047020Y00109571D01*
X00047003Y00109584D01*
X00046986Y00109597D01*
X00046971Y00109611D01*
X00046956Y00109626D01*
X00046942Y00109642D01*
X00046929Y00109659D01*
X00046917Y00109676D01*
X00046905Y00109694D01*
X00046895Y00109712D01*
X00046886Y00109731D01*
X00046877Y00109751D01*
X00046870Y00109771D01*
X00046864Y00109791D01*
X00046859Y00109811D01*
X00046855Y00109832D01*
X00046852Y00109853D01*
X00046850Y00109874D01*
X00046850Y00109895D01*
X00046850Y00120472D01*
X00037417Y00120472D01*
X00037371Y00120475D01*
X00037326Y00120483D01*
X00037282Y00120496D01*
X00037240Y00120514D01*
X00037200Y00120537D01*
X00037163Y00120564D01*
X00037130Y00120596D01*
X00037101Y00120631D01*
X00037076Y00120669D01*
X00037055Y00120711D01*
X00037039Y00120754D01*
X00037029Y00120798D01*
X00037024Y00120844D01*
X00037024Y00120890D01*
X00037029Y00120935D01*
X00037040Y00120980D01*
X00037056Y00121023D01*
X00037077Y00121064D01*
X00037102Y00121102D01*
X00037132Y00121137D01*
X00037507Y00121531D01*
X00037518Y00121542D01*
X00037529Y00121553D01*
X00037542Y00121563D01*
X00037554Y00121573D01*
X00037567Y00121583D01*
X00037580Y00121591D01*
X00037594Y00121600D01*
X00037608Y00121607D01*
X00037622Y00121615D01*
X00037637Y00121621D01*
X00037651Y00121627D01*
X00037666Y00121633D01*
X00037682Y00121637D01*
X00037697Y00121641D01*
X00037713Y00121645D01*
X00037728Y00121648D01*
X00037744Y00121650D01*
X00037760Y00121652D01*
X00037776Y00121653D01*
X00037792Y00121653D01*
X00056009Y00121653D01*
X00086375Y00121653D02*
X00086375Y00121653D01*
X00086384Y00121653D01*
X00086394Y00121653D01*
X00086404Y00121652D01*
X00086414Y00121651D01*
X00086423Y00121650D01*
X00086433Y00121649D01*
X00086443Y00121647D01*
X00086452Y00121645D01*
X00086462Y00121643D01*
X00086471Y00121641D01*
X00086481Y00121638D01*
X00086490Y00121636D01*
X00086500Y00121633D01*
X00086509Y00121629D01*
X00086518Y00121626D01*
X00086527Y00121622D01*
X00086536Y00121618D01*
X00086545Y00121614D01*
X00086554Y00121610D01*
X00086562Y00121605D01*
X00087288Y00121212D01*
X00087332Y00121184D01*
X00087372Y00121151D01*
X00087407Y00121112D01*
X00087437Y00121070D01*
X00087461Y00121024D01*
X00087479Y00120975D01*
X00087490Y00120924D01*
X00087494Y00120872D01*
X00087491Y00120820D01*
X00087482Y00120769D01*
X00087466Y00120719D01*
X00087443Y00120672D01*
X00087415Y00120629D01*
X00087381Y00120589D01*
X00087342Y00120555D01*
X00087299Y00120526D01*
X00087252Y00120503D01*
X00087203Y00120486D01*
X00087152Y00120475D01*
X00087100Y00120472D01*
X00071915Y00120472D01*
X00071889Y00120473D01*
X00071863Y00120475D01*
X00071838Y00120480D01*
X00071813Y00120485D01*
X00071788Y00120493D01*
X00071764Y00120502D01*
X00071740Y00120513D01*
X00071717Y00120525D01*
X00071695Y00120539D01*
X00071674Y00120554D01*
X00071654Y00120570D01*
X00071636Y00120588D01*
X00071618Y00120607D01*
X00071602Y00120627D01*
X00071587Y00120648D01*
X00071573Y00120670D01*
X00071561Y00120693D01*
X00071550Y00120717D01*
X00071541Y00120741D01*
X00071534Y00120766D01*
X00071431Y00121159D01*
X00071423Y00121195D01*
X00071419Y00121230D01*
X00071418Y00121266D01*
X00071420Y00121302D01*
X00071426Y00121338D01*
X00071434Y00121373D01*
X00071446Y00121406D01*
X00071461Y00121439D01*
X00071479Y00121470D01*
X00071500Y00121500D01*
X00071523Y00121527D01*
X00071549Y00121552D01*
X00071577Y00121575D01*
X00071606Y00121595D01*
X00071638Y00121613D01*
X00071671Y00121627D01*
X00071705Y00121638D01*
X00071740Y00121646D01*
X00071776Y00121651D01*
X00071812Y00121653D01*
X00086375Y00121653D01*
X00006857Y00120472D02*
X00006857Y00120472D01*
X00006831Y00120473D01*
X00006805Y00120475D01*
X00006780Y00120480D01*
X00006755Y00120485D01*
X00006730Y00120493D01*
X00006706Y00120502D01*
X00006682Y00120513D01*
X00006659Y00120525D01*
X00006637Y00120539D01*
X00006616Y00120554D01*
X00006596Y00120570D01*
X00006578Y00120588D01*
X00006560Y00120607D01*
X00006544Y00120627D01*
X00006529Y00120648D01*
X00006515Y00120670D01*
X00006503Y00120693D01*
X00006492Y00120717D01*
X00006483Y00120741D01*
X00006476Y00120766D01*
X00006373Y00121159D01*
X00006365Y00121195D01*
X00006361Y00121230D01*
X00006360Y00121266D01*
X00006362Y00121302D01*
X00006368Y00121338D01*
X00006376Y00121373D01*
X00006388Y00121406D01*
X00006403Y00121439D01*
X00006421Y00121470D01*
X00006442Y00121500D01*
X00006465Y00121527D01*
X00006491Y00121552D01*
X00006519Y00121575D01*
X00006548Y00121595D01*
X00006580Y00121613D01*
X00006613Y00121627D01*
X00006647Y00121638D01*
X00006682Y00121646D01*
X00006718Y00121651D01*
X00006754Y00121653D01*
X00020237Y00121653D01*
X00020262Y00121652D01*
X00020287Y00121650D01*
X00020311Y00121646D01*
X00020335Y00121641D01*
X00020359Y00121634D01*
X00020383Y00121625D01*
X00020406Y00121615D01*
X00020428Y00121604D01*
X00020449Y00121591D01*
X00020470Y00121577D01*
X00020489Y00121562D01*
X00020508Y00121545D01*
X00020525Y00121528D01*
X00020542Y00121509D01*
X00020557Y00121489D01*
X00020571Y00121469D01*
X00020583Y00121447D01*
X00020594Y00121425D01*
X00020604Y00121402D01*
X00020612Y00121379D01*
X00020737Y00120985D01*
X00020747Y00120949D01*
X00020753Y00120913D01*
X00020756Y00120876D01*
X00020755Y00120839D01*
X00020751Y00120802D01*
X00020743Y00120766D01*
X00020732Y00120731D01*
X00020718Y00120697D01*
X00020700Y00120664D01*
X00020680Y00120633D01*
X00020657Y00120604D01*
X00020631Y00120578D01*
X00020603Y00120554D01*
X00020573Y00120533D01*
X00020540Y00120515D01*
X00020507Y00120499D01*
X00020472Y00120487D01*
X00020436Y00120479D01*
X00020399Y00120474D01*
X00020362Y00120472D01*
X00006857Y00120472D01*
X00004821Y00121653D02*
X00004821Y00121653D01*
X00004857Y00121651D01*
X00004893Y00121646D01*
X00004928Y00121638D01*
X00004962Y00121627D01*
X00004995Y00121613D01*
X00005027Y00121595D01*
X00005056Y00121575D01*
X00005084Y00121552D01*
X00005110Y00121527D01*
X00005133Y00121500D01*
X00005154Y00121470D01*
X00005172Y00121439D01*
X00005187Y00121406D01*
X00005199Y00121373D01*
X00005207Y00121338D01*
X00005213Y00121302D01*
X00005215Y00121266D01*
X00005214Y00121230D01*
X00005210Y00121195D01*
X00005202Y00121159D01*
X00005099Y00120766D01*
X00005092Y00120741D01*
X00005083Y00120717D01*
X00005072Y00120693D01*
X00005060Y00120670D01*
X00005046Y00120648D01*
X00005031Y00120627D01*
X00005015Y00120607D01*
X00004997Y00120588D01*
X00004979Y00120570D01*
X00004959Y00120554D01*
X00004938Y00120539D01*
X00004916Y00120525D01*
X00004893Y00120513D01*
X00004869Y00120502D01*
X00004845Y00120493D01*
X00004821Y00120485D01*
X00004795Y00120480D01*
X00004770Y00120475D01*
X00004744Y00120473D01*
X00004718Y00120472D01*
X00000000Y00120472D01*
X00000000Y00063385D01*
X00005330Y00063385D01*
X00005379Y00063382D01*
X00005427Y00063373D01*
X00005474Y00063358D01*
X00005518Y00063338D01*
X00005559Y00063312D01*
X00005597Y00063281D01*
X00005631Y00063246D01*
X00005660Y00063206D01*
X00005684Y00063164D01*
X00005703Y00063119D01*
X00005716Y00063071D01*
X00005723Y00063023D01*
X00005724Y00062974D01*
X00005718Y00062926D01*
X00005707Y00062878D01*
X00005690Y00062832D01*
X00005668Y00062789D01*
X00005640Y00062749D01*
X00005607Y00062712D01*
X00005571Y00062680D01*
X00005060Y00062286D01*
X00005050Y00062278D01*
X00005039Y00062271D01*
X00005028Y00062264D01*
X00005017Y00062257D01*
X00005006Y00062251D01*
X00004994Y00062245D01*
X00004983Y00062240D01*
X00004971Y00062234D01*
X00004959Y00062230D01*
X00004947Y00062225D01*
X00004934Y00062221D01*
X00004922Y00062218D01*
X00004909Y00062215D01*
X00004897Y00062212D01*
X00004884Y00062210D01*
X00004871Y00062208D01*
X00004858Y00062206D01*
X00004845Y00062205D01*
X00004832Y00062204D01*
X00004820Y00062204D01*
X00000000Y00062204D01*
X00000000Y00005118D01*
X00004230Y00005118D01*
X00004276Y00005115D01*
X00004321Y00005107D01*
X00004365Y00005094D01*
X00004407Y00005076D01*
X00004447Y00005053D01*
X00004484Y00005025D01*
X00004517Y00004994D01*
X00004546Y00004958D01*
X00004572Y00004920D01*
X00004592Y00004879D01*
X00004608Y00004836D01*
X00004618Y00004791D01*
X00004623Y00004746D01*
X00004623Y00004700D01*
X00004618Y00004654D01*
X00004607Y00004610D01*
X00004591Y00004567D01*
X00004570Y00004526D01*
X00004545Y00004487D01*
X00004515Y00004452D01*
X00004141Y00004059D01*
X00004129Y00004047D01*
X00004118Y00004037D01*
X00004106Y00004026D01*
X00004093Y00004016D01*
X00004080Y00004007D01*
X00004067Y00003998D01*
X00004053Y00003990D01*
X00004039Y00003982D01*
X00004025Y00003975D01*
X00004011Y00003968D01*
X00003996Y00003962D01*
X00003981Y00003957D01*
X00003966Y00003952D01*
X00003950Y00003948D01*
X00003935Y00003945D01*
X00003919Y00003942D01*
X00003903Y00003939D01*
X00003887Y00003938D01*
X00003871Y00003937D01*
X00003855Y00003937D01*
X00000000Y00003937D01*
X00000000Y00000000D01*
X00094881Y00000000D01*
X00094881Y00003937D01*
X00087715Y00003937D01*
X00087699Y00003937D01*
X00087683Y00003938D01*
X00087668Y00003939D01*
X00087652Y00003942D01*
X00087636Y00003945D01*
X00087621Y00003948D01*
X00087605Y00003952D01*
X00087590Y00003957D01*
X00087575Y00003962D01*
X00087560Y00003968D01*
X00087546Y00003975D01*
X00087531Y00003982D01*
X00087518Y00003990D01*
X00087504Y00003998D01*
X00087491Y00004007D01*
X00087478Y00004016D01*
X00087465Y00004026D01*
X00087453Y00004037D01*
X00087441Y00004047D01*
X00087430Y00004059D01*
X00087055Y00004452D01*
X00087026Y00004487D01*
X00087000Y00004526D01*
X00086980Y00004567D01*
X00086964Y00004610D01*
X00086953Y00004654D01*
X00086948Y00004700D01*
X00086947Y00004746D01*
X00086953Y00004791D01*
X00086963Y00004836D01*
X00086979Y00004879D01*
X00086999Y00004920D01*
X00087024Y00004958D01*
X00087054Y00004994D01*
X00087087Y00005025D01*
X00087124Y00005053D01*
X00087164Y00005076D01*
X00087206Y00005094D01*
X00087250Y00005107D01*
X00087295Y00005115D01*
X00087341Y00005118D01*
X00094881Y00005118D01*
X00094881Y00062204D01*
X00088930Y00062204D01*
X00088923Y00062204D01*
X00088917Y00062204D01*
X00088910Y00062205D01*
X00088904Y00062205D01*
X00088897Y00062206D01*
X00088891Y00062206D01*
X00088884Y00062207D01*
X00088877Y00062208D01*
X00088871Y00062209D01*
X00088864Y00062210D01*
X00088858Y00062211D01*
X00088852Y00062212D01*
X00088845Y00062213D01*
X00088839Y00062215D01*
X00088832Y00062217D01*
X00088826Y00062218D01*
X00088820Y00062220D01*
X00088813Y00062222D01*
X00088807Y00062224D01*
X00088801Y00062226D01*
X00087666Y00062620D01*
X00087615Y00062641D01*
X00087568Y00062670D01*
X00087525Y00062705D01*
X00087488Y00062745D01*
X00087456Y00062791D01*
X00087431Y00062840D01*
X00087414Y00062893D01*
X00087404Y00062947D01*
X00087401Y00063002D01*
X00087407Y00063057D01*
X00087420Y00063111D01*
X00087440Y00063162D01*
X00087467Y00063210D01*
X00087501Y00063254D01*
X00087541Y00063292D01*
X00087585Y00063325D01*
X00087634Y00063351D01*
X00087686Y00063370D01*
X00087740Y00063381D01*
X00087795Y00063385D01*
X00094881Y00063385D01*
X00094881Y00120472D01*
X00088004Y00120472D01*
X00087952Y00120475D01*
X00087901Y00120486D01*
X00087852Y00120503D01*
X00087805Y00120526D01*
X00087762Y00120555D01*
X00087724Y00120589D01*
X00087690Y00120629D01*
X00087661Y00120672D01*
X00087639Y00120719D01*
X00087623Y00120769D01*
X00087613Y00120820D01*
X00087610Y00120872D01*
X00087615Y00120924D01*
X00087626Y00120975D01*
X00087643Y00121024D01*
X00087667Y00121070D01*
X00087697Y00121112D01*
X00087732Y00121151D01*
X00087772Y00121184D01*
X00087816Y00121212D01*
X00088542Y00121605D01*
X00088551Y00121610D01*
X00088560Y00121614D01*
X00088569Y00121618D01*
X00088577Y00121622D01*
X00088587Y00121626D01*
X00088596Y00121629D01*
X00088605Y00121633D01*
X00088614Y00121636D01*
X00088624Y00121638D01*
X00088633Y00121641D01*
X00088643Y00121643D01*
X00088652Y00121645D01*
X00088662Y00121647D01*
X00088671Y00121649D01*
X00088681Y00121650D01*
X00088691Y00121651D01*
X00088701Y00121652D01*
X00088710Y00121653D01*
X00088720Y00121653D01*
X00088730Y00121653D01*
X00094881Y00121653D01*
X00094881Y00125590D01*
X00000000Y00125590D01*
X00000000Y00121653D01*
X00004821Y00121653D01*
X00070286Y00005118D02*
X00070286Y00005118D01*
X00070323Y00005116D01*
X00070359Y00005111D01*
X00070395Y00005102D01*
X00070430Y00005090D01*
X00070464Y00005075D01*
X00070496Y00005057D01*
X00070527Y00005036D01*
X00070555Y00005012D01*
X00070580Y00004985D01*
X00070604Y00004956D01*
X00070624Y00004926D01*
X00070642Y00004893D01*
X00070656Y00004859D01*
X00070667Y00004824D01*
X00070674Y00004787D01*
X00070679Y00004751D01*
X00070679Y00004714D01*
X00070677Y00004677D01*
X00070671Y00004640D01*
X00070661Y00004605D01*
X00070536Y00004211D01*
X00070528Y00004187D01*
X00070518Y00004165D01*
X00070507Y00004142D01*
X00070494Y00004121D01*
X00070480Y00004100D01*
X00070465Y00004081D01*
X00070449Y00004062D01*
X00070431Y00004044D01*
X00070413Y00004028D01*
X00070393Y00004012D01*
X00070373Y00003998D01*
X00070351Y00003986D01*
X00070329Y00003974D01*
X00070306Y00003964D01*
X00070283Y00003956D01*
X00070259Y00003949D01*
X00070235Y00003944D01*
X00070210Y00003940D01*
X00070186Y00003937D01*
X00070161Y00003937D01*
X00058036Y00003937D01*
X00058020Y00003937D01*
X00058004Y00003938D01*
X00057989Y00003939D01*
X00057973Y00003942D01*
X00057957Y00003945D01*
X00057942Y00003948D01*
X00057926Y00003952D01*
X00057911Y00003957D01*
X00057896Y00003962D01*
X00057881Y00003968D01*
X00057867Y00003975D01*
X00057852Y00003982D01*
X00057838Y00003990D01*
X00057825Y00003998D01*
X00057812Y00004007D01*
X00057799Y00004016D01*
X00057786Y00004026D01*
X00057774Y00004037D01*
X00057762Y00004047D01*
X00057751Y00004059D01*
X00057376Y00004452D01*
X00057347Y00004487D01*
X00057321Y00004526D01*
X00057301Y00004567D01*
X00057285Y00004610D01*
X00057274Y00004654D01*
X00057269Y00004700D01*
X00057268Y00004746D01*
X00057274Y00004791D01*
X00057284Y00004836D01*
X00057300Y00004879D01*
X00057320Y00004920D01*
X00057345Y00004958D01*
X00057375Y00004994D01*
X00057408Y00005025D01*
X00057445Y00005053D01*
X00057485Y00005076D01*
X00057527Y00005094D01*
X00057571Y00005107D01*
X00057616Y00005115D01*
X00057662Y00005118D01*
X00070286Y00005118D01*
X00085798Y00005118D02*
X00085798Y00005118D01*
X00085844Y00005115D01*
X00085889Y00005107D01*
X00085933Y00005094D01*
X00085975Y00005076D01*
X00086015Y00005053D01*
X00086052Y00005025D01*
X00086085Y00004994D01*
X00086115Y00004958D01*
X00086140Y00004920D01*
X00086160Y00004879D01*
X00086176Y00004836D01*
X00086186Y00004791D01*
X00086192Y00004746D01*
X00086191Y00004700D01*
X00086186Y00004654D01*
X00086175Y00004610D01*
X00086159Y00004567D01*
X00086139Y00004526D01*
X00086113Y00004487D01*
X00086084Y00004452D01*
X00085709Y00004059D01*
X00085698Y00004047D01*
X00085686Y00004037D01*
X00085674Y00004026D01*
X00085661Y00004016D01*
X00085648Y00004007D01*
X00085635Y00003998D01*
X00085621Y00003990D01*
X00085608Y00003982D01*
X00085593Y00003975D01*
X00085579Y00003968D01*
X00085564Y00003962D01*
X00085549Y00003957D01*
X00085534Y00003952D01*
X00085518Y00003948D01*
X00085503Y00003945D01*
X00085487Y00003942D01*
X00085471Y00003939D01*
X00085456Y00003938D01*
X00085440Y00003937D01*
X00085424Y00003937D01*
X00072316Y00003937D01*
X00072292Y00003937D01*
X00072267Y00003940D01*
X00072242Y00003944D01*
X00072218Y00003949D01*
X00072194Y00003956D01*
X00072171Y00003964D01*
X00072148Y00003974D01*
X00072126Y00003986D01*
X00072105Y00003998D01*
X00072084Y00004012D01*
X00072064Y00004028D01*
X00072046Y00004044D01*
X00072028Y00004062D01*
X00072012Y00004081D01*
X00071997Y00004100D01*
X00071983Y00004121D01*
X00071970Y00004142D01*
X00071959Y00004165D01*
X00071950Y00004187D01*
X00071941Y00004211D01*
X00071816Y00004605D01*
X00071807Y00004640D01*
X00071800Y00004677D01*
X00071798Y00004714D01*
X00071798Y00004751D01*
X00071803Y00004787D01*
X00071810Y00004824D01*
X00071821Y00004859D01*
X00071836Y00004893D01*
X00071853Y00004926D01*
X00071874Y00004956D01*
X00071897Y00004985D01*
X00071923Y00005012D01*
X00071951Y00005036D01*
X00071981Y00005057D01*
X00072013Y00005075D01*
X00072047Y00005090D01*
X00072082Y00005102D01*
X00072118Y00005111D01*
X00072154Y00005116D01*
X00072191Y00005118D01*
X00085798Y00005118D01*
X00036741Y00003937D02*
X00036741Y00003937D01*
X00036716Y00003937D01*
X00036691Y00003940D01*
X00036667Y00003944D01*
X00036643Y00003949D01*
X00036619Y00003956D01*
X00036595Y00003964D01*
X00036573Y00003974D01*
X00036550Y00003986D01*
X00036529Y00003998D01*
X00036509Y00004012D01*
X00036489Y00004028D01*
X00036470Y00004044D01*
X00036453Y00004062D01*
X00036436Y00004081D01*
X00036421Y00004100D01*
X00036407Y00004121D01*
X00036395Y00004142D01*
X00036384Y00004165D01*
X00036374Y00004187D01*
X00036366Y00004211D01*
X00036241Y00004605D01*
X00036231Y00004640D01*
X00036225Y00004677D01*
X00036222Y00004714D01*
X00036223Y00004751D01*
X00036227Y00004787D01*
X00036235Y00004824D01*
X00036246Y00004859D01*
X00036260Y00004893D01*
X00036278Y00004926D01*
X00036298Y00004956D01*
X00036321Y00004985D01*
X00036347Y00005012D01*
X00036375Y00005036D01*
X00036405Y00005057D01*
X00036438Y00005075D01*
X00036471Y00005090D01*
X00036506Y00005102D01*
X00036542Y00005111D01*
X00036579Y00005116D01*
X00036616Y00005118D01*
X00046850Y00005118D01*
X00046850Y00019514D01*
X00046853Y00019563D01*
X00046862Y00019612D01*
X00046877Y00019659D01*
X00046898Y00019703D01*
X00046925Y00019745D01*
X00046956Y00019783D01*
X00046992Y00019817D01*
X00047032Y00019846D01*
X00047075Y00019870D01*
X00047121Y00019888D01*
X00047169Y00019900D01*
X00047218Y00019907D01*
X00047267Y00019907D01*
X00047316Y00019901D01*
X00047364Y00019889D01*
X00047410Y00019871D01*
X00047453Y00019847D01*
X00047493Y00019818D01*
X00047530Y00019784D01*
X00047561Y00019746D01*
X00047955Y00019209D01*
X00047962Y00019199D01*
X00047969Y00019189D01*
X00047975Y00019178D01*
X00047982Y00019167D01*
X00047988Y00019156D01*
X00047993Y00019145D01*
X00047998Y00019134D01*
X00048003Y00019122D01*
X00048007Y00019111D01*
X00048011Y00019099D01*
X00048015Y00019087D01*
X00048018Y00019075D01*
X00048021Y00019063D01*
X00048024Y00019051D01*
X00048026Y00019038D01*
X00048028Y00019026D01*
X00048029Y00019014D01*
X00048030Y00019001D01*
X00048031Y00018989D01*
X00048031Y00018976D01*
X00048031Y00005118D01*
X00056119Y00005118D01*
X00056165Y00005115D01*
X00056210Y00005107D01*
X00056254Y00005094D01*
X00056296Y00005076D01*
X00056336Y00005053D01*
X00056373Y00005025D01*
X00056406Y00004994D01*
X00056436Y00004958D01*
X00056461Y00004920D01*
X00056481Y00004879D01*
X00056497Y00004836D01*
X00056507Y00004791D01*
X00056513Y00004746D01*
X00056512Y00004700D01*
X00056507Y00004654D01*
X00056496Y00004610D01*
X00056480Y00004567D01*
X00056460Y00004526D01*
X00056434Y00004487D01*
X00056405Y00004452D01*
X00056030Y00004059D01*
X00056019Y00004047D01*
X00056007Y00004037D01*
X00055995Y00004026D01*
X00055982Y00004016D01*
X00055969Y00004007D01*
X00055956Y00003998D01*
X00055942Y00003990D01*
X00055929Y00003982D01*
X00055914Y00003975D01*
X00055900Y00003968D01*
X00055885Y00003962D01*
X00055870Y00003957D01*
X00055855Y00003952D01*
X00055839Y00003948D01*
X00055824Y00003945D01*
X00055808Y00003942D01*
X00055792Y00003939D01*
X00055776Y00003938D01*
X00055761Y00003937D01*
X00055745Y00003937D01*
X00036741Y00003937D01*
X00020692Y00003937D02*
X00020692Y00003937D01*
X00020676Y00003937D01*
X00020660Y00003938D01*
X00020644Y00003939D01*
X00020628Y00003942D01*
X00020613Y00003945D01*
X00020597Y00003948D01*
X00020582Y00003952D01*
X00020567Y00003957D01*
X00020551Y00003962D01*
X00020537Y00003968D01*
X00020522Y00003975D01*
X00020508Y00003982D01*
X00020494Y00003990D01*
X00020480Y00003998D01*
X00020467Y00004007D01*
X00020454Y00004016D01*
X00020442Y00004026D01*
X00020430Y00004037D01*
X00020418Y00004047D01*
X00020407Y00004059D01*
X00020032Y00004452D01*
X00020002Y00004487D01*
X00019977Y00004526D01*
X00019956Y00004567D01*
X00019940Y00004610D01*
X00019930Y00004654D01*
X00019924Y00004700D01*
X00019924Y00004746D01*
X00019929Y00004791D01*
X00019940Y00004836D01*
X00019955Y00004879D01*
X00019976Y00004920D01*
X00020001Y00004958D01*
X00020030Y00004994D01*
X00020064Y00005025D01*
X00020100Y00005053D01*
X00020140Y00005076D01*
X00020182Y00005094D01*
X00020226Y00005107D01*
X00020271Y00005115D01*
X00020317Y00005118D01*
X00034710Y00005118D01*
X00034747Y00005116D01*
X00034784Y00005111D01*
X00034820Y00005102D01*
X00034855Y00005090D01*
X00034889Y00005075D01*
X00034921Y00005057D01*
X00034951Y00005036D01*
X00034979Y00005012D01*
X00035005Y00004985D01*
X00035028Y00004956D01*
X00035049Y00004926D01*
X00035066Y00004893D01*
X00035080Y00004859D01*
X00035091Y00004824D01*
X00035099Y00004787D01*
X00035103Y00004751D01*
X00035104Y00004714D01*
X00035101Y00004677D01*
X00035095Y00004640D01*
X00035086Y00004605D01*
X00034960Y00004211D01*
X00034952Y00004187D01*
X00034942Y00004165D01*
X00034931Y00004142D01*
X00034919Y00004121D01*
X00034905Y00004100D01*
X00034890Y00004081D01*
X00034873Y00004062D01*
X00034856Y00004044D01*
X00034837Y00004028D01*
X00034818Y00004012D01*
X00034797Y00003998D01*
X00034776Y00003986D01*
X00034754Y00003974D01*
X00034731Y00003964D01*
X00034707Y00003956D01*
X00034684Y00003949D01*
X00034659Y00003944D01*
X00034635Y00003940D01*
X00034610Y00003937D01*
X00034585Y00003937D01*
X00020692Y00003937D01*
X00006147Y00003937D02*
X00006147Y00003937D01*
X00006131Y00003937D01*
X00006115Y00003938D01*
X00006099Y00003939D01*
X00006084Y00003942D01*
X00006068Y00003945D01*
X00006052Y00003948D01*
X00006037Y00003952D01*
X00006022Y00003957D01*
X00006007Y00003962D01*
X00005992Y00003968D01*
X00005978Y00003975D01*
X00005963Y00003982D01*
X00005949Y00003990D01*
X00005936Y00003998D01*
X00005922Y00004007D01*
X00005910Y00004016D01*
X00005897Y00004026D01*
X00005885Y00004037D01*
X00005873Y00004047D01*
X00005862Y00004059D01*
X00005487Y00004452D01*
X00005458Y00004487D01*
X00005432Y00004526D01*
X00005411Y00004567D01*
X00005396Y00004610D01*
X00005385Y00004654D01*
X00005379Y00004700D01*
X00005379Y00004746D01*
X00005384Y00004791D01*
X00005395Y00004836D01*
X00005411Y00004879D01*
X00005431Y00004920D01*
X00005456Y00004958D01*
X00005486Y00004994D01*
X00005519Y00005025D01*
X00005556Y00005053D01*
X00005595Y00005076D01*
X00005637Y00005094D01*
X00005681Y00005107D01*
X00005727Y00005115D01*
X00005772Y00005118D01*
X00018775Y00005118D01*
X00018821Y00005115D01*
X00018866Y00005107D01*
X00018910Y00005094D01*
X00018952Y00005076D01*
X00018992Y00005053D01*
X00019028Y00005025D01*
X00019062Y00004994D01*
X00019091Y00004958D01*
X00019116Y00004920D01*
X00019137Y00004879D01*
X00019152Y00004836D01*
X00019163Y00004791D01*
X00019168Y00004746D01*
X00019168Y00004700D01*
X00019162Y00004654D01*
X00019152Y00004610D01*
X00019136Y00004567D01*
X00019115Y00004526D01*
X00019090Y00004487D01*
X00019060Y00004452D01*
X00018685Y00004059D01*
X00018674Y00004047D01*
X00018662Y00004037D01*
X00018650Y00004026D01*
X00018638Y00004016D01*
X00018625Y00004007D01*
X00018612Y00003998D01*
X00018598Y00003990D01*
X00018584Y00003982D01*
X00018570Y00003975D01*
X00018555Y00003968D01*
X00018540Y00003962D01*
X00018525Y00003957D01*
X00018510Y00003952D01*
X00018495Y00003948D01*
X00018479Y00003945D01*
X00018464Y00003942D01*
X00018448Y00003939D01*
X00018432Y00003938D01*
X00018416Y00003937D01*
X00018400Y00003937D01*
X00006147Y00003937D01*
M02*