%MOIN*%
%OFA0B0*%
%FSLAX44Y44*%
%IPPOS*%
%LPD*%
%ADD23C,0.01*%
%ADD55C,0.0078740157480314977*%
%ADD56C,0.005905511811023622*%
%ADD67C,0.01*%
%ADD68C,0.0078740157480314977*%
%ADD69C,0.005905511811023622*%
%ADD70C,0.01*%
%ADD71C,0.0078740157480314977*%
%ADD72C,0.005905511811023622*%
%ADD73C,0.01*%
%ADD74C,0.0078740157480314977*%
%ADD75C,0.005905511811023622*%
%ADD76C,0.005*%
%ADD77C,0.001*%
%ADD78C,0.0015984251968503937*%
%ADD79C,0.005*%
%ADD80C,0.001*%
%ADD81C,0.0015984251968503937*%
G01*
G75*
D23*
X00008682Y00040061D02*
G03*
X00008682Y00040061I-00002657D01*
G01*
X00015219Y00005309D02*
X00018339Y00005309D01*
X00020111Y00005309D02*
X00023231Y00005309D01*
X00015219Y00008813D02*
X00023231Y00008813D01*
X00018339Y00005801D02*
X00020111Y00005801D01*
X00015711Y00008321D02*
X00022738Y00008321D01*
X00020111Y00005801D02*
X00022738Y00005801D01*
X00015711Y00005801D02*
X00018339Y00005801D01*
X00018339Y00005309D02*
X00018339Y00005801D01*
X00020111Y00005309D02*
X00020111Y00005801D01*
X00018339Y00005309D02*
X00020111Y00005309D01*
X00015711Y00005801D02*
X00015711Y00008321D01*
X00015219Y00005309D02*
X00015219Y00008813D01*
X00022738Y00005801D02*
X00022738Y00008321D01*
X00023231Y00005309D02*
X00023231Y00008813D01*
X00005275Y00039911D02*
X00005275Y00040211D01*
X00005125Y00040061D02*
X00005425Y00040061D01*
X00003977Y00039864D02*
X00003977Y00040258D01*
X00025818Y00044480D02*
X00025818Y00046055D01*
X00025031Y00046055D02*
X00028574Y00046055D01*
X00028574Y00044440D02*
X00028574Y00046055D01*
X00025070Y00044440D02*
X00028574Y00044440D01*
X00025031Y00044480D02*
X00025070Y00044440D01*
X00025031Y00044480D02*
X00025031Y00046055D01*
X00026440Y00031496D02*
X00026440Y00035826D01*
X00028409Y00035826D01*
X00026440Y00031496D02*
X00028409Y00031496D01*
X00028409Y00035826D01*
X00038259Y00039077D02*
X00042590Y00039077D01*
X00038259Y00039077D02*
X00038259Y00041045D01*
X00042590Y00039077D02*
X00042590Y00041045D01*
X00038259Y00041045D02*
X00042590Y00041045D01*
X00025324Y00047061D02*
X00027525Y00047061D01*
X00025324Y00047061D02*
X00025324Y00049061D01*
X00027525Y00049061D01*
X00027525Y00047061D02*
X00027525Y00049061D01*
X00035938Y00059480D02*
X00044206Y00059480D01*
X00044206Y00059086D02*
X00044206Y00060661D01*
X00035938Y00059086D02*
X00044206Y00059086D01*
X00035938Y00059086D02*
X00035938Y00062236D01*
X00044206Y00062236D01*
X00044206Y00060661D02*
X00044206Y00062236D01*
X00007006Y00060661D02*
X00007006Y00062236D01*
X00002675Y00062236D02*
X00007006Y00062236D01*
X00002675Y00059086D02*
X00002675Y00062236D01*
X00002675Y00059086D02*
X00007006Y00059086D01*
X00007006Y00060622D01*
X00002675Y00059480D02*
X00007006Y00059480D01*
X00032019Y00005309D02*
X00035139Y00005309D01*
X00036911Y00005309D02*
X00040031Y00005309D01*
X00032019Y00008813D02*
X00040031Y00008813D01*
X00035139Y00005801D02*
X00036911Y00005801D01*
X00032511Y00008321D02*
X00039538Y00008321D01*
X00036911Y00005801D02*
X00039538Y00005801D01*
X00032511Y00005801D02*
X00035139Y00005801D01*
X00035139Y00005309D02*
X00035139Y00005801D01*
X00036911Y00005309D02*
X00036911Y00005801D01*
X00035139Y00005309D02*
X00036911Y00005309D01*
X00032511Y00005801D02*
X00032511Y00008321D01*
X00032019Y00005309D02*
X00032019Y00008813D01*
X00039538Y00005801D02*
X00039538Y00008321D01*
X00040031Y00005309D02*
X00040031Y00008813D01*
X00023619Y00005309D02*
X00026739Y00005309D01*
X00028511Y00005309D02*
X00031631Y00005309D01*
X00023619Y00008813D02*
X00031631Y00008813D01*
X00026739Y00005801D02*
X00028511Y00005801D01*
X00024111Y00008321D02*
X00031138Y00008321D01*
X00028511Y00005801D02*
X00031138Y00005801D01*
X00024111Y00005801D02*
X00026739Y00005801D01*
X00026739Y00005309D02*
X00026739Y00005801D01*
X00028511Y00005309D02*
X00028511Y00005801D01*
X00026739Y00005309D02*
X00028511Y00005309D01*
X00024111Y00005801D02*
X00024111Y00008321D01*
X00023619Y00005309D02*
X00023619Y00008813D01*
X00031138Y00005801D02*
X00031138Y00008321D01*
X00031631Y00005309D02*
X00031631Y00008813D01*
X00006819Y00005309D02*
X00009939Y00005309D01*
X00011711Y00005309D02*
X00014831Y00005309D01*
X00006819Y00008813D02*
X00014831Y00008813D01*
X00009939Y00005801D02*
X00011711Y00005801D01*
X00007311Y00008321D02*
X00014338Y00008321D01*
X00011711Y00005801D02*
X00014338Y00005801D01*
X00007311Y00005801D02*
X00009939Y00005801D01*
X00009939Y00005309D02*
X00009939Y00005801D01*
X00011711Y00005309D02*
X00011711Y00005801D01*
X00009939Y00005309D02*
X00011711Y00005309D01*
X00007311Y00005801D02*
X00007311Y00008321D01*
X00006819Y00005309D02*
X00006819Y00008813D01*
X00014338Y00005801D02*
X00014338Y00008321D01*
X00014831Y00005309D02*
X00014831Y00008813D01*
X00019419Y00058309D02*
X00019419Y00061813D01*
X00019911Y00058801D02*
X00019911Y00061321D01*
X00027431Y00058309D02*
X00027431Y00061813D01*
X00026938Y00058801D02*
X00026938Y00061321D01*
X00022539Y00061813D02*
X00024311Y00061813D01*
X00022539Y00061321D02*
X00022539Y00061813D01*
X00024311Y00061321D02*
X00024311Y00061813D01*
X00024311Y00061321D02*
X00026938Y00061321D01*
X00019911Y00061321D02*
X00022539Y00061321D01*
X00019911Y00058801D02*
X00026938Y00058801D01*
X00022539Y00061321D02*
X00024311Y00061321D01*
X00019419Y00058309D02*
X00027431Y00058309D01*
X00019419Y00061813D02*
X00022539Y00061813D01*
X00024311Y00061813D02*
X00027431Y00061813D01*
X00032325Y00058961D02*
X00035325Y00058961D01*
X00035325Y00061961D01*
X00032325Y00061961D02*
X00035325Y00061961D01*
X00032325Y00058961D02*
X00032325Y00061961D01*
X00009453Y00040456D02*
X00009453Y00039856D01*
X00009753Y00039856D01*
X00009853Y00039956D01*
X00009853Y00040056D01*
X00009753Y00040156D01*
X00009453Y00040156D01*
X00009753Y00040156D01*
X00009853Y00040256D01*
X00009853Y00040356D01*
X00009753Y00040456D01*
X00009453Y00040456D01*
X00010052Y00040456D02*
X00010452Y00040456D01*
X00010252Y00040456D01*
X00010252Y00039856D01*
X00010652Y00039856D02*
X00010852Y00039856D01*
X00010752Y00039856D01*
X00010752Y00040456D01*
X00010652Y00040356D01*
X00031703Y00019647D02*
X00031603Y00019747D01*
X00031403Y00019747D01*
X00031303Y00019647D01*
X00031303Y00019247D01*
X00031403Y00019148D01*
X00031603Y00019148D01*
X00031703Y00019247D01*
X00031903Y00019148D02*
X00032103Y00019148D01*
X00032003Y00019148D01*
X00032003Y00019747D01*
X00031903Y00019647D01*
X00032403Y00019647D02*
X00032503Y00019747D01*
X00032703Y00019747D01*
X00032803Y00019647D01*
X00032803Y00019247D01*
X00032703Y00019148D01*
X00032503Y00019148D01*
X00032403Y00019247D01*
X00032403Y00019647D01*
X00009805Y00019618D02*
X00009705Y00019718D01*
X00009505Y00019718D01*
X00009405Y00019618D01*
X00009405Y00019218D01*
X00009505Y00019118D01*
X00009705Y00019118D01*
X00009805Y00019218D01*
X00010005Y00019118D02*
X00010205Y00019118D01*
X00010105Y00019118D01*
X00010105Y00019718D01*
X00010005Y00019618D01*
X00042072Y00050847D02*
X00041972Y00050947D01*
X00041772Y00050947D01*
X00041672Y00050847D01*
X00041672Y00050447D01*
X00041772Y00050347D01*
X00041972Y00050347D01*
X00042072Y00050447D01*
X00042272Y00050847D02*
X00042372Y00050947D01*
X00042572Y00050947D01*
X00042672Y00050847D01*
X00042672Y00050747D01*
X00042572Y00050647D01*
X00042472Y00050647D01*
X00042572Y00050647D01*
X00042672Y00050547D01*
X00042672Y00050447D01*
X00042572Y00050347D01*
X00042372Y00050347D01*
X00042272Y00050447D01*
X00043272Y00050947D02*
X00042872Y00050947D01*
X00042872Y00050647D01*
X00043072Y00050747D01*
X00043172Y00050747D01*
X00043272Y00050647D01*
X00043272Y00050447D01*
X00043172Y00050347D01*
X00042972Y00050347D01*
X00042872Y00050447D01*
X00034656Y00019677D02*
X00034556Y00019777D01*
X00034356Y00019777D01*
X00034256Y00019677D01*
X00034256Y00019277D01*
X00034356Y00019177D01*
X00034556Y00019177D01*
X00034656Y00019277D01*
X00034856Y00019677D02*
X00034956Y00019777D01*
X00035156Y00019777D01*
X00035255Y00019677D01*
X00035255Y00019577D01*
X00035156Y00019477D01*
X00035056Y00019477D01*
X00035156Y00019477D01*
X00035255Y00019377D01*
X00035255Y00019277D01*
X00035156Y00019177D01*
X00034956Y00019177D01*
X00034856Y00019277D01*
X00035755Y00019177D02*
X00035755Y00019777D01*
X00035455Y00019477D01*
X00035855Y00019477D01*
X00044877Y00050847D02*
X00044777Y00050947D01*
X00044577Y00050947D01*
X00044477Y00050847D01*
X00044477Y00050447D01*
X00044577Y00050347D01*
X00044777Y00050347D01*
X00044877Y00050447D01*
X00045077Y00050847D02*
X00045177Y00050947D01*
X00045377Y00050947D01*
X00045477Y00050847D01*
X00045477Y00050747D01*
X00045377Y00050647D01*
X00045277Y00050647D01*
X00045377Y00050647D01*
X00045477Y00050547D01*
X00045477Y00050447D01*
X00045377Y00050347D01*
X00045177Y00050347D01*
X00045077Y00050447D01*
X00046077Y00050347D02*
X00045677Y00050347D01*
X00046077Y00050747D01*
X00046077Y00050847D01*
X00045977Y00050947D01*
X00045777Y00050947D01*
X00045677Y00050847D01*
X00006488Y00019658D02*
X00006388Y00019758D01*
X00006188Y00019758D01*
X00006088Y00019658D01*
X00006088Y00019258D01*
X00006188Y00019158D01*
X00006388Y00019158D01*
X00006488Y00019258D01*
X00007088Y00019158D02*
X00006688Y00019158D01*
X00007088Y00019558D01*
X00007088Y00019658D01*
X00006988Y00019758D01*
X00006788Y00019758D01*
X00006688Y00019658D01*
X00007688Y00019758D02*
X00007288Y00019758D01*
X00007288Y00019458D01*
X00007488Y00019558D01*
X00007588Y00019558D01*
X00007688Y00019458D01*
X00007688Y00019258D01*
X00007588Y00019158D01*
X00007388Y00019158D01*
X00007288Y00019258D01*
X00029113Y00045571D02*
X00029113Y00045471D01*
X00029313Y00045271D01*
X00029513Y00045471D01*
X00029513Y00045571D01*
X00029313Y00045271D02*
X00029313Y00044971D01*
X00030113Y00044971D02*
X00029713Y00044971D01*
X00030113Y00045371D01*
X00030113Y00045471D01*
X00030013Y00045571D01*
X00029813Y00045571D01*
X00029713Y00045471D01*
X00026923Y00036932D02*
X00026923Y00036832D01*
X00027123Y00036632D01*
X00027323Y00036832D01*
X00027323Y00036932D01*
X00027123Y00036632D02*
X00027123Y00036332D01*
X00027523Y00036332D02*
X00027722Y00036332D01*
X00027622Y00036332D01*
X00027622Y00036932D01*
X00027523Y00036832D01*
X00026012Y00048334D02*
X00026012Y00047734D01*
X00026412Y00047734D01*
X00026612Y00047734D02*
X00026811Y00047734D01*
X00026711Y00047734D01*
X00026711Y00048334D01*
X00026612Y00048234D01*
X00014134Y00059222D02*
X00014734Y00059222D01*
X00014734Y00059522D01*
X00014634Y00059622D01*
X00014234Y00059622D01*
X00014134Y00059522D01*
X00014134Y00059222D01*
X00014134Y00060222D02*
X00014134Y00059822D01*
X00014434Y00059822D01*
X00014334Y00060022D01*
X00014334Y00060122D01*
X00014434Y00060222D01*
X00014634Y00060222D01*
X00014734Y00060122D01*
X00014734Y00059922D01*
X00014634Y00059822D01*
X00011900Y00059261D02*
X00012500Y00059261D01*
X00012500Y00059561D01*
X00012400Y00059661D01*
X00012000Y00059661D01*
X00011900Y00059561D01*
X00011900Y00059261D01*
X00012500Y00060161D02*
X00011900Y00060161D01*
X00012200Y00059861D01*
X00012200Y00060261D01*
X00009912Y00059212D02*
X00010511Y00059212D01*
X00010511Y00059512D01*
X00010411Y00059612D01*
X00010011Y00059612D01*
X00009912Y00059512D01*
X00009912Y00059212D01*
X00010011Y00059812D02*
X00009912Y00059912D01*
X00009912Y00060112D01*
X00010011Y00060212D01*
X00010111Y00060212D01*
X00010211Y00060112D01*
X00010211Y00060012D01*
X00010211Y00060112D01*
X00010311Y00060212D01*
X00010411Y00060212D01*
X00010511Y00060112D01*
X00010511Y00059912D01*
X00010411Y00059812D01*
X00007904Y00059212D02*
X00008503Y00059212D01*
X00008503Y00059512D01*
X00008403Y00059612D01*
X00008004Y00059612D01*
X00007904Y00059512D01*
X00007904Y00059212D01*
X00008503Y00060212D02*
X00008503Y00059812D01*
X00008104Y00060212D01*
X00008004Y00060212D01*
X00007904Y00060112D01*
X00007904Y00059912D01*
X00008004Y00059812D01*
X00030915Y00059359D02*
X00031514Y00059359D01*
X00031514Y00059658D01*
X00031415Y00059758D01*
X00031015Y00059758D01*
X00030915Y00059658D01*
X00030915Y00059359D01*
X00031514Y00059958D02*
X00031514Y00060158D01*
X00031514Y00060058D01*
X00030915Y00060058D01*
X00031015Y00059958D01*
X00043167Y00040413D02*
X00043167Y00040313D01*
X00043367Y00040113D01*
X00043567Y00040313D01*
X00043567Y00040413D01*
X00043367Y00040113D02*
X00043367Y00039813D01*
X00043767Y00040313D02*
X00043867Y00040413D01*
X00044067Y00040413D01*
X00044167Y00040313D01*
X00044167Y00040213D01*
X00044067Y00040113D01*
X00043967Y00040113D01*
X00044067Y00040113D01*
X00044167Y00040013D01*
X00044167Y00039913D01*
X00044067Y00039813D01*
X00043867Y00039813D01*
X00043767Y00039913D01*
D55*
X00002903Y00019461D02*
G03*
X00002903Y00019461I-00001377D01*
G01*
X00005703Y00019461D02*
G03*
X00005703Y00019461I-00001377D01*
G01*
X00042103Y00019461D02*
G03*
X00042103Y00019461I-00001377D01*
G01*
X00039103Y00019461D02*
G03*
X00039103Y00019461I-00001377D01*
G01*
X00046703Y00047461D02*
G03*
X00046703Y00047461I-00001377D01*
G01*
X00043903Y00047461D02*
G03*
X00043903Y00047461I-00001377D01*
G01*
X00001860Y00018685D02*
X00002260Y00018685D01*
X00002060Y00018485D02*
X00002060Y00018885D01*
X00004660Y00018685D02*
X00005060Y00018685D01*
X00004860Y00018485D02*
X00004860Y00018885D01*
X00039989Y00020237D02*
X00040389Y00020237D01*
X00040189Y00020037D02*
X00040189Y00020436D01*
X00036989Y00020237D02*
X00037389Y00020237D01*
X00037189Y00020037D02*
X00037189Y00020436D01*
X00025925Y00026161D02*
X00025925Y00027161D01*
X00020925Y00026161D02*
X00025925Y00026161D01*
X00020925Y00027161D02*
X00025925Y00027161D01*
X00020925Y00026161D02*
X00020925Y00027161D01*
X00045325Y00031161D02*
X00046325Y00031161D01*
X00045325Y00031161D02*
X00045325Y00036161D01*
X00046325Y00031161D02*
X00046325Y00036161D01*
X00045325Y00036161D02*
X00046325Y00036161D01*
X00045660Y00046685D02*
X00046060Y00046685D01*
X00045860Y00046485D02*
X00045860Y00046885D01*
X00042860Y00046685D02*
X00043260Y00046685D01*
X00043060Y00046485D02*
X00043060Y00046885D01*
X00030713Y00060396D02*
X00031737Y00060396D01*
X00031225Y00060654D02*
X00031737Y00060654D01*
X00031737Y00059075D02*
X00031737Y00060654D01*
X00030713Y00059075D02*
X00031737Y00059075D01*
X00030713Y00059075D02*
X00030713Y00060656D01*
X00031225Y00060654D01*
X00029325Y00058761D02*
X00029325Y00061761D01*
X00028325Y00061761D02*
X00029325Y00061761D01*
X00028325Y00058761D02*
X00028325Y00061761D01*
X00028325Y00058761D02*
X00029325Y00058761D01*
X00013913Y00060396D02*
X00014937Y00060396D01*
X00014425Y00060654D02*
X00014937Y00060654D01*
X00014937Y00059075D02*
X00014937Y00060654D01*
X00013913Y00059075D02*
X00014937Y00059075D01*
X00013913Y00059075D02*
X00013913Y00060656D01*
X00014425Y00060654D01*
X00011713Y00060396D02*
X00012736Y00060396D01*
X00012225Y00060654D02*
X00012736Y00060654D01*
X00012736Y00059075D02*
X00012736Y00060654D01*
X00011713Y00059075D02*
X00012736Y00059075D01*
X00011713Y00059075D02*
X00011713Y00060656D01*
X00012225Y00060654D01*
X00009713Y00060396D02*
X00010737Y00060396D01*
X00010225Y00060654D02*
X00010737Y00060654D01*
X00010737Y00059075D02*
X00010737Y00060654D01*
X00009713Y00059075D02*
X00010737Y00059075D01*
X00009713Y00059075D02*
X00009713Y00060656D01*
X00010225Y00060654D01*
X00007713Y00060396D02*
X00008737Y00060396D01*
X00008225Y00060654D02*
X00008737Y00060654D01*
X00008737Y00059075D02*
X00008737Y00060654D01*
X00007713Y00059075D02*
X00008737Y00059075D01*
X00007713Y00059075D02*
X00007713Y00060656D01*
X00008225Y00060654D01*
D56*
X00028351Y00052748D02*
X00028351Y00056205D01*
X00024271Y00052748D02*
X00024271Y00056205D01*
X00024271Y00052748D02*
X00028351Y00052748D01*
X00024271Y00056205D02*
X00028351Y00056205D01*
G04 next file*
G04 Layer_Color=65535*
G04 skipping 71
G01*
G75*
D67*
X00008682Y00098329D02*
G03*
X00008682Y00098329I-00002657D01*
G01*
X00015219Y00063577D02*
X00018339Y00063577D01*
X00020111Y00063577D02*
X00023231Y00063577D01*
X00015219Y00067081D02*
X00023231Y00067081D01*
X00018339Y00064069D02*
X00020111Y00064069D01*
X00015711Y00066588D02*
X00022738Y00066588D01*
X00020111Y00064069D02*
X00022738Y00064069D01*
X00015711Y00064069D02*
X00018339Y00064069D01*
X00018339Y00063577D02*
X00018339Y00064069D01*
X00020111Y00063577D02*
X00020111Y00064069D01*
X00018339Y00063577D02*
X00020111Y00063577D01*
X00015711Y00064069D02*
X00015711Y00066588D01*
X00015219Y00063577D02*
X00015219Y00067081D01*
X00022738Y00064069D02*
X00022738Y00066588D01*
X00023231Y00063577D02*
X00023231Y00067081D01*
X00005275Y00098179D02*
X00005275Y00098479D01*
X00005125Y00098329D02*
X00005425Y00098329D01*
X00003977Y00098132D02*
X00003977Y00098525D01*
X00025818Y00102748D02*
X00025818Y00104322D01*
X00025031Y00104322D02*
X00028574Y00104322D01*
X00028574Y00102708D02*
X00028574Y00104322D01*
X00025070Y00102708D02*
X00028574Y00102708D01*
X00025031Y00102748D02*
X00025070Y00102708D01*
X00025031Y00102748D02*
X00025031Y00104322D01*
X00026440Y00089763D02*
X00026440Y00094094D01*
X00028409Y00094094D01*
X00026440Y00089763D02*
X00028409Y00089763D01*
X00028409Y00094094D01*
X00038259Y00097344D02*
X00042590Y00097344D01*
X00038259Y00097344D02*
X00038259Y00099313D01*
X00042590Y00097344D02*
X00042590Y00099313D01*
X00038259Y00099313D02*
X00042590Y00099313D01*
X00025324Y00105329D02*
X00027525Y00105329D01*
X00025324Y00105329D02*
X00025324Y00107329D01*
X00027525Y00107329D01*
X00027525Y00105329D02*
X00027525Y00107329D01*
X00035938Y00117748D02*
X00044206Y00117748D01*
X00044206Y00117354D02*
X00044206Y00118929D01*
X00035938Y00117354D02*
X00044206Y00117354D01*
X00035938Y00117354D02*
X00035938Y00120503D01*
X00044206Y00120503D01*
X00044206Y00118929D02*
X00044206Y00120503D01*
X00007006Y00118929D02*
X00007006Y00120503D01*
X00002675Y00120503D02*
X00007006Y00120503D01*
X00002675Y00117354D02*
X00002675Y00120503D01*
X00002675Y00117354D02*
X00007006Y00117354D01*
X00007006Y00118889D01*
X00002675Y00117748D02*
X00007006Y00117748D01*
X00032019Y00063577D02*
X00035139Y00063577D01*
X00036911Y00063577D02*
X00040031Y00063577D01*
X00032019Y00067081D02*
X00040031Y00067081D01*
X00035139Y00064069D02*
X00036911Y00064069D01*
X00032511Y00066588D02*
X00039538Y00066588D01*
X00036911Y00064069D02*
X00039538Y00064069D01*
X00032511Y00064069D02*
X00035139Y00064069D01*
X00035139Y00063577D02*
X00035139Y00064069D01*
X00036911Y00063577D02*
X00036911Y00064069D01*
X00035139Y00063577D02*
X00036911Y00063577D01*
X00032511Y00064069D02*
X00032511Y00066588D01*
X00032019Y00063577D02*
X00032019Y00067081D01*
X00039538Y00064069D02*
X00039538Y00066588D01*
X00040031Y00063577D02*
X00040031Y00067081D01*
X00023619Y00063577D02*
X00026739Y00063577D01*
X00028511Y00063577D02*
X00031631Y00063577D01*
X00023619Y00067081D02*
X00031631Y00067081D01*
X00026739Y00064069D02*
X00028511Y00064069D01*
X00024111Y00066588D02*
X00031138Y00066588D01*
X00028511Y00064069D02*
X00031138Y00064069D01*
X00024111Y00064069D02*
X00026739Y00064069D01*
X00026739Y00063577D02*
X00026739Y00064069D01*
X00028511Y00063577D02*
X00028511Y00064069D01*
X00026739Y00063577D02*
X00028511Y00063577D01*
X00024111Y00064069D02*
X00024111Y00066588D01*
X00023619Y00063577D02*
X00023619Y00067081D01*
X00031138Y00064069D02*
X00031138Y00066588D01*
X00031631Y00063577D02*
X00031631Y00067081D01*
X00006819Y00063577D02*
X00009939Y00063577D01*
X00011711Y00063577D02*
X00014831Y00063577D01*
X00006819Y00067081D02*
X00014831Y00067081D01*
X00009939Y00064069D02*
X00011711Y00064069D01*
X00007311Y00066588D02*
X00014338Y00066588D01*
X00011711Y00064069D02*
X00014338Y00064069D01*
X00007311Y00064069D02*
X00009939Y00064069D01*
X00009939Y00063577D02*
X00009939Y00064069D01*
X00011711Y00063577D02*
X00011711Y00064069D01*
X00009939Y00063577D02*
X00011711Y00063577D01*
X00007311Y00064069D02*
X00007311Y00066588D01*
X00006819Y00063577D02*
X00006819Y00067081D01*
X00014338Y00064069D02*
X00014338Y00066588D01*
X00014831Y00063577D02*
X00014831Y00067081D01*
X00019419Y00116577D02*
X00019419Y00120081D01*
X00019911Y00117069D02*
X00019911Y00119588D01*
X00027431Y00116577D02*
X00027431Y00120081D01*
X00026938Y00117069D02*
X00026938Y00119588D01*
X00022539Y00120081D02*
X00024311Y00120081D01*
X00022539Y00119588D02*
X00022539Y00120081D01*
X00024311Y00119588D02*
X00024311Y00120081D01*
X00024311Y00119588D02*
X00026938Y00119588D01*
X00019911Y00119588D02*
X00022539Y00119588D01*
X00019911Y00117069D02*
X00026938Y00117069D01*
X00022539Y00119588D02*
X00024311Y00119588D01*
X00019419Y00116577D02*
X00027431Y00116577D01*
X00019419Y00120081D02*
X00022539Y00120081D01*
X00024311Y00120081D02*
X00027431Y00120081D01*
X00032325Y00117229D02*
X00035325Y00117229D01*
X00035325Y00120229D01*
X00032325Y00120229D02*
X00035325Y00120229D01*
X00032325Y00117229D02*
X00032325Y00120229D01*
X00009453Y00098724D02*
X00009453Y00098124D01*
X00009753Y00098124D01*
X00009853Y00098224D01*
X00009853Y00098324D01*
X00009753Y00098424D01*
X00009453Y00098424D01*
X00009753Y00098424D01*
X00009853Y00098524D01*
X00009853Y00098624D01*
X00009753Y00098724D01*
X00009453Y00098724D01*
X00010052Y00098724D02*
X00010452Y00098724D01*
X00010252Y00098724D01*
X00010252Y00098124D01*
X00010652Y00098124D02*
X00010852Y00098124D01*
X00010752Y00098124D01*
X00010752Y00098724D01*
X00010652Y00098624D01*
X00031703Y00077915D02*
X00031603Y00078015D01*
X00031403Y00078015D01*
X00031303Y00077915D01*
X00031303Y00077515D01*
X00031403Y00077415D01*
X00031603Y00077415D01*
X00031703Y00077515D01*
X00031903Y00077415D02*
X00032103Y00077415D01*
X00032003Y00077415D01*
X00032003Y00078015D01*
X00031903Y00077915D01*
X00032403Y00077915D02*
X00032503Y00078015D01*
X00032703Y00078015D01*
X00032803Y00077915D01*
X00032803Y00077515D01*
X00032703Y00077415D01*
X00032503Y00077415D01*
X00032403Y00077515D01*
X00032403Y00077915D01*
X00009805Y00077886D02*
X00009705Y00077986D01*
X00009505Y00077986D01*
X00009405Y00077886D01*
X00009405Y00077486D01*
X00009505Y00077386D01*
X00009705Y00077386D01*
X00009805Y00077486D01*
X00010005Y00077386D02*
X00010205Y00077386D01*
X00010105Y00077386D01*
X00010105Y00077986D01*
X00010005Y00077886D01*
X00042072Y00109114D02*
X00041972Y00109214D01*
X00041772Y00109214D01*
X00041672Y00109114D01*
X00041672Y00108714D01*
X00041772Y00108614D01*
X00041972Y00108614D01*
X00042072Y00108714D01*
X00042272Y00109114D02*
X00042372Y00109214D01*
X00042572Y00109214D01*
X00042672Y00109114D01*
X00042672Y00109014D01*
X00042572Y00108914D01*
X00042472Y00108914D01*
X00042572Y00108914D01*
X00042672Y00108814D01*
X00042672Y00108714D01*
X00042572Y00108614D01*
X00042372Y00108614D01*
X00042272Y00108714D01*
X00043272Y00109214D02*
X00042872Y00109214D01*
X00042872Y00108914D01*
X00043072Y00109014D01*
X00043172Y00109014D01*
X00043272Y00108914D01*
X00043272Y00108714D01*
X00043172Y00108614D01*
X00042972Y00108614D01*
X00042872Y00108714D01*
X00034656Y00077945D02*
X00034556Y00078045D01*
X00034356Y00078045D01*
X00034256Y00077945D01*
X00034256Y00077545D01*
X00034356Y00077445D01*
X00034556Y00077445D01*
X00034656Y00077545D01*
X00034856Y00077945D02*
X00034956Y00078045D01*
X00035156Y00078045D01*
X00035255Y00077945D01*
X00035255Y00077845D01*
X00035156Y00077745D01*
X00035056Y00077745D01*
X00035156Y00077745D01*
X00035255Y00077645D01*
X00035255Y00077545D01*
X00035156Y00077445D01*
X00034956Y00077445D01*
X00034856Y00077545D01*
X00035755Y00077445D02*
X00035755Y00078045D01*
X00035455Y00077745D01*
X00035855Y00077745D01*
X00044877Y00109114D02*
X00044777Y00109214D01*
X00044577Y00109214D01*
X00044477Y00109114D01*
X00044477Y00108714D01*
X00044577Y00108614D01*
X00044777Y00108614D01*
X00044877Y00108714D01*
X00045077Y00109114D02*
X00045177Y00109214D01*
X00045377Y00109214D01*
X00045477Y00109114D01*
X00045477Y00109014D01*
X00045377Y00108914D01*
X00045277Y00108914D01*
X00045377Y00108914D01*
X00045477Y00108814D01*
X00045477Y00108714D01*
X00045377Y00108614D01*
X00045177Y00108614D01*
X00045077Y00108714D01*
X00046077Y00108614D02*
X00045677Y00108614D01*
X00046077Y00109014D01*
X00046077Y00109114D01*
X00045977Y00109214D01*
X00045777Y00109214D01*
X00045677Y00109114D01*
X00006488Y00077925D02*
X00006388Y00078025D01*
X00006188Y00078025D01*
X00006088Y00077925D01*
X00006088Y00077525D01*
X00006188Y00077425D01*
X00006388Y00077425D01*
X00006488Y00077525D01*
X00007088Y00077425D02*
X00006688Y00077425D01*
X00007088Y00077825D01*
X00007088Y00077925D01*
X00006988Y00078025D01*
X00006788Y00078025D01*
X00006688Y00077925D01*
X00007688Y00078025D02*
X00007288Y00078025D01*
X00007288Y00077725D01*
X00007488Y00077825D01*
X00007588Y00077825D01*
X00007688Y00077725D01*
X00007688Y00077525D01*
X00007588Y00077425D01*
X00007388Y00077425D01*
X00007288Y00077525D01*
X00029113Y00103839D02*
X00029113Y00103739D01*
X00029313Y00103539D01*
X00029513Y00103739D01*
X00029513Y00103839D01*
X00029313Y00103539D02*
X00029313Y00103239D01*
X00030113Y00103239D02*
X00029713Y00103239D01*
X00030113Y00103639D01*
X00030113Y00103739D01*
X00030013Y00103839D01*
X00029813Y00103839D01*
X00029713Y00103739D01*
X00026923Y00095200D02*
X00026923Y00095100D01*
X00027123Y00094900D01*
X00027323Y00095100D01*
X00027323Y00095200D01*
X00027123Y00094900D02*
X00027123Y00094600D01*
X00027523Y00094600D02*
X00027722Y00094600D01*
X00027622Y00094600D01*
X00027622Y00095200D01*
X00027523Y00095100D01*
X00026012Y00106601D02*
X00026012Y00106001D01*
X00026412Y00106001D01*
X00026612Y00106001D02*
X00026811Y00106001D01*
X00026711Y00106001D01*
X00026711Y00106601D01*
X00026612Y00106501D01*
X00014134Y00117490D02*
X00014734Y00117490D01*
X00014734Y00117790D01*
X00014634Y00117890D01*
X00014234Y00117890D01*
X00014134Y00117790D01*
X00014134Y00117490D01*
X00014134Y00118489D02*
X00014134Y00118089D01*
X00014434Y00118089D01*
X00014334Y00118289D01*
X00014334Y00118389D01*
X00014434Y00118489D01*
X00014634Y00118489D01*
X00014734Y00118389D01*
X00014734Y00118189D01*
X00014634Y00118089D01*
X00011900Y00117529D02*
X00012500Y00117529D01*
X00012500Y00117829D01*
X00012400Y00117929D01*
X00012000Y00117929D01*
X00011900Y00117829D01*
X00011900Y00117529D01*
X00012500Y00118429D02*
X00011900Y00118429D01*
X00012200Y00118129D01*
X00012200Y00118529D01*
X00009912Y00117480D02*
X00010511Y00117480D01*
X00010511Y00117780D01*
X00010411Y00117880D01*
X00010011Y00117880D01*
X00009912Y00117780D01*
X00009912Y00117480D01*
X00010011Y00118080D02*
X00009912Y00118180D01*
X00009912Y00118380D01*
X00010011Y00118480D01*
X00010111Y00118480D01*
X00010211Y00118380D01*
X00010211Y00118280D01*
X00010211Y00118380D01*
X00010311Y00118480D01*
X00010411Y00118480D01*
X00010511Y00118380D01*
X00010511Y00118180D01*
X00010411Y00118080D01*
X00007904Y00117480D02*
X00008503Y00117480D01*
X00008503Y00117780D01*
X00008403Y00117880D01*
X00008004Y00117880D01*
X00007904Y00117780D01*
X00007904Y00117480D01*
X00008503Y00118480D02*
X00008503Y00118080D01*
X00008104Y00118480D01*
X00008004Y00118480D01*
X00007904Y00118380D01*
X00007904Y00118180D01*
X00008004Y00118080D01*
X00030915Y00117626D02*
X00031514Y00117626D01*
X00031514Y00117926D01*
X00031415Y00118026D01*
X00031015Y00118026D01*
X00030915Y00117926D01*
X00030915Y00117626D01*
X00031514Y00118226D02*
X00031514Y00118426D01*
X00031514Y00118326D01*
X00030915Y00118326D01*
X00031015Y00118226D01*
X00043167Y00098680D02*
X00043167Y00098580D01*
X00043367Y00098380D01*
X00043567Y00098580D01*
X00043567Y00098680D01*
X00043367Y00098380D02*
X00043367Y00098081D01*
X00043767Y00098580D02*
X00043867Y00098680D01*
X00044067Y00098680D01*
X00044167Y00098580D01*
X00044167Y00098480D01*
X00044067Y00098380D01*
X00043967Y00098380D01*
X00044067Y00098380D01*
X00044167Y00098281D01*
X00044167Y00098181D01*
X00044067Y00098081D01*
X00043867Y00098081D01*
X00043767Y00098181D01*
D68*
X00002903Y00077729D02*
G03*
X00002903Y00077729I-00001377D01*
G01*
X00005703Y00077729D02*
G03*
X00005703Y00077729I-00001377D01*
G01*
X00042103Y00077729D02*
G03*
X00042103Y00077729I-00001377D01*
G01*
X00039103Y00077729D02*
G03*
X00039103Y00077729I-00001377D01*
G01*
X00046703Y00105729D02*
G03*
X00046703Y00105729I-00001377D01*
G01*
X00043903Y00105729D02*
G03*
X00043903Y00105729I-00001377D01*
G01*
X00001860Y00076953D02*
X00002260Y00076953D01*
X00002060Y00076753D02*
X00002060Y00077153D01*
X00004660Y00076953D02*
X00005060Y00076953D01*
X00004860Y00076753D02*
X00004860Y00077153D01*
X00039989Y00078504D02*
X00040389Y00078504D01*
X00040189Y00078304D02*
X00040189Y00078704D01*
X00036989Y00078504D02*
X00037389Y00078504D01*
X00037189Y00078304D02*
X00037189Y00078704D01*
X00025925Y00084429D02*
X00025925Y00085429D01*
X00020925Y00084429D02*
X00025925Y00084429D01*
X00020925Y00085429D02*
X00025925Y00085429D01*
X00020925Y00084429D02*
X00020925Y00085429D01*
X00045325Y00089429D02*
X00046325Y00089429D01*
X00045325Y00089429D02*
X00045325Y00094429D01*
X00046325Y00089429D02*
X00046325Y00094429D01*
X00045325Y00094429D02*
X00046325Y00094429D01*
X00045660Y00104953D02*
X00046060Y00104953D01*
X00045860Y00104753D02*
X00045860Y00105153D01*
X00042860Y00104953D02*
X00043260Y00104953D01*
X00043060Y00104753D02*
X00043060Y00105153D01*
X00030713Y00118663D02*
X00031737Y00118663D01*
X00031225Y00118922D02*
X00031737Y00118922D01*
X00031737Y00117343D02*
X00031737Y00118922D01*
X00030713Y00117343D02*
X00031737Y00117343D01*
X00030713Y00117343D02*
X00030713Y00118924D01*
X00031225Y00118922D01*
X00029325Y00117029D02*
X00029325Y00120029D01*
X00028325Y00120029D02*
X00029325Y00120029D01*
X00028325Y00117029D02*
X00028325Y00120029D01*
X00028325Y00117029D02*
X00029325Y00117029D01*
X00013913Y00118663D02*
X00014937Y00118663D01*
X00014425Y00118922D02*
X00014937Y00118922D01*
X00014937Y00117343D02*
X00014937Y00118922D01*
X00013913Y00117343D02*
X00014937Y00117343D01*
X00013913Y00117343D02*
X00013913Y00118924D01*
X00014425Y00118922D01*
X00011713Y00118663D02*
X00012736Y00118663D01*
X00012225Y00118922D02*
X00012736Y00118922D01*
X00012736Y00117343D02*
X00012736Y00118922D01*
X00011713Y00117343D02*
X00012736Y00117343D01*
X00011713Y00117343D02*
X00011713Y00118924D01*
X00012225Y00118922D01*
X00009713Y00118663D02*
X00010737Y00118663D01*
X00010225Y00118922D02*
X00010737Y00118922D01*
X00010737Y00117343D02*
X00010737Y00118922D01*
X00009713Y00117343D02*
X00010737Y00117343D01*
X00009713Y00117343D02*
X00009713Y00118924D01*
X00010225Y00118922D01*
X00007713Y00118663D02*
X00008737Y00118663D01*
X00008225Y00118922D02*
X00008737Y00118922D01*
X00008737Y00117343D02*
X00008737Y00118922D01*
X00007713Y00117343D02*
X00008737Y00117343D01*
X00007713Y00117343D02*
X00007713Y00118924D01*
X00008225Y00118922D01*
D69*
X00028351Y00111015D02*
X00028351Y00114472D01*
X00024271Y00111015D02*
X00024271Y00114472D01*
X00024271Y00111015D02*
X00028351Y00111015D01*
X00024271Y00114472D02*
X00028351Y00114472D01*
G04 next file*
G04 Layer_Color=65535*
G04 skipping 71
G01*
G75*
D70*
X00056714Y00040061D02*
G03*
X00056714Y00040061I-00002657D01*
G01*
X00063250Y00005309D02*
X00066370Y00005309D01*
X00068142Y00005309D02*
X00071262Y00005309D01*
X00063250Y00008813D02*
X00071262Y00008813D01*
X00066370Y00005801D02*
X00068142Y00005801D01*
X00063742Y00008321D02*
X00070770Y00008321D01*
X00068142Y00005801D02*
X00070770Y00005801D01*
X00063742Y00005801D02*
X00066370Y00005801D01*
X00066370Y00005309D02*
X00066370Y00005801D01*
X00068142Y00005309D02*
X00068142Y00005801D01*
X00066370Y00005309D02*
X00068142Y00005309D01*
X00063742Y00005801D02*
X00063742Y00008321D01*
X00063250Y00005309D02*
X00063250Y00008813D01*
X00070770Y00005801D02*
X00070770Y00008321D01*
X00071262Y00005309D02*
X00071262Y00008813D01*
X00053306Y00039911D02*
X00053306Y00040211D01*
X00053156Y00040061D02*
X00053456Y00040061D01*
X00052009Y00039864D02*
X00052009Y00040258D01*
X00073850Y00044480D02*
X00073850Y00046055D01*
X00073062Y00046055D02*
X00076606Y00046055D01*
X00076606Y00044440D02*
X00076606Y00046055D01*
X00073102Y00044440D02*
X00076606Y00044440D01*
X00073062Y00044480D02*
X00073102Y00044440D01*
X00073062Y00044480D02*
X00073062Y00046055D01*
X00074472Y00031496D02*
X00074472Y00035826D01*
X00076440Y00035826D01*
X00074472Y00031496D02*
X00076440Y00031496D01*
X00076440Y00035826D01*
X00086291Y00039077D02*
X00090622Y00039077D01*
X00086291Y00039077D02*
X00086291Y00041045D01*
X00090622Y00039077D02*
X00090622Y00041045D01*
X00086291Y00041045D02*
X00090622Y00041045D01*
X00073356Y00047061D02*
X00075557Y00047061D01*
X00073356Y00047061D02*
X00073356Y00049061D01*
X00075557Y00049061D01*
X00075557Y00047061D02*
X00075557Y00049061D01*
X00083970Y00059480D02*
X00092237Y00059480D01*
X00092237Y00059086D02*
X00092237Y00060661D01*
X00083970Y00059086D02*
X00092237Y00059086D01*
X00083970Y00059086D02*
X00083970Y00062236D01*
X00092237Y00062236D01*
X00092237Y00060661D02*
X00092237Y00062236D01*
X00055037Y00060661D02*
X00055037Y00062236D01*
X00050707Y00062236D02*
X00055037Y00062236D01*
X00050707Y00059086D02*
X00050707Y00062236D01*
X00050707Y00059086D02*
X00055037Y00059086D01*
X00055037Y00060622D01*
X00050707Y00059480D02*
X00055037Y00059480D01*
X00080050Y00005309D02*
X00083170Y00005309D01*
X00084942Y00005309D02*
X00088062Y00005309D01*
X00080050Y00008813D02*
X00088062Y00008813D01*
X00083170Y00005801D02*
X00084942Y00005801D01*
X00080542Y00008321D02*
X00087570Y00008321D01*
X00084942Y00005801D02*
X00087570Y00005801D01*
X00080542Y00005801D02*
X00083170Y00005801D01*
X00083170Y00005309D02*
X00083170Y00005801D01*
X00084942Y00005309D02*
X00084942Y00005801D01*
X00083170Y00005309D02*
X00084942Y00005309D01*
X00080542Y00005801D02*
X00080542Y00008321D01*
X00080050Y00005309D02*
X00080050Y00008813D01*
X00087570Y00005801D02*
X00087570Y00008321D01*
X00088062Y00005309D02*
X00088062Y00008813D01*
X00071650Y00005309D02*
X00074770Y00005309D01*
X00076542Y00005309D02*
X00079662Y00005309D01*
X00071650Y00008813D02*
X00079662Y00008813D01*
X00074770Y00005801D02*
X00076542Y00005801D01*
X00072142Y00008321D02*
X00079170Y00008321D01*
X00076542Y00005801D02*
X00079170Y00005801D01*
X00072142Y00005801D02*
X00074770Y00005801D01*
X00074770Y00005309D02*
X00074770Y00005801D01*
X00076542Y00005309D02*
X00076542Y00005801D01*
X00074770Y00005309D02*
X00076542Y00005309D01*
X00072142Y00005801D02*
X00072142Y00008321D01*
X00071650Y00005309D02*
X00071650Y00008813D01*
X00079170Y00005801D02*
X00079170Y00008321D01*
X00079662Y00005309D02*
X00079662Y00008813D01*
X00054850Y00005309D02*
X00057970Y00005309D01*
X00059742Y00005309D02*
X00062862Y00005309D01*
X00054850Y00008813D02*
X00062862Y00008813D01*
X00057970Y00005801D02*
X00059742Y00005801D01*
X00055342Y00008321D02*
X00062370Y00008321D01*
X00059742Y00005801D02*
X00062370Y00005801D01*
X00055342Y00005801D02*
X00057970Y00005801D01*
X00057970Y00005309D02*
X00057970Y00005801D01*
X00059742Y00005309D02*
X00059742Y00005801D01*
X00057970Y00005309D02*
X00059742Y00005309D01*
X00055342Y00005801D02*
X00055342Y00008321D01*
X00054850Y00005309D02*
X00054850Y00008813D01*
X00062370Y00005801D02*
X00062370Y00008321D01*
X00062862Y00005309D02*
X00062862Y00008813D01*
X00067450Y00058309D02*
X00067450Y00061813D01*
X00067942Y00058801D02*
X00067942Y00061321D01*
X00075462Y00058309D02*
X00075462Y00061813D01*
X00074970Y00058801D02*
X00074970Y00061321D01*
X00070570Y00061813D02*
X00072342Y00061813D01*
X00070570Y00061321D02*
X00070570Y00061813D01*
X00072342Y00061321D02*
X00072342Y00061813D01*
X00072342Y00061321D02*
X00074970Y00061321D01*
X00067942Y00061321D02*
X00070570Y00061321D01*
X00067942Y00058801D02*
X00074970Y00058801D01*
X00070570Y00061321D02*
X00072342Y00061321D01*
X00067450Y00058309D02*
X00075462Y00058309D01*
X00067450Y00061813D02*
X00070570Y00061813D01*
X00072342Y00061813D02*
X00075462Y00061813D01*
X00080356Y00058961D02*
X00083356Y00058961D01*
X00083356Y00061961D01*
X00080356Y00061961D02*
X00083356Y00061961D01*
X00080356Y00058961D02*
X00080356Y00061961D01*
X00057484Y00040456D02*
X00057484Y00039856D01*
X00057784Y00039856D01*
X00057884Y00039956D01*
X00057884Y00040056D01*
X00057784Y00040156D01*
X00057484Y00040156D01*
X00057784Y00040156D01*
X00057884Y00040256D01*
X00057884Y00040356D01*
X00057784Y00040456D01*
X00057484Y00040456D01*
X00058084Y00040456D02*
X00058484Y00040456D01*
X00058284Y00040456D01*
X00058284Y00039856D01*
X00058684Y00039856D02*
X00058884Y00039856D01*
X00058784Y00039856D01*
X00058784Y00040456D01*
X00058684Y00040356D01*
X00079734Y00019647D02*
X00079634Y00019747D01*
X00079435Y00019747D01*
X00079335Y00019647D01*
X00079335Y00019247D01*
X00079435Y00019148D01*
X00079634Y00019148D01*
X00079734Y00019247D01*
X00079934Y00019148D02*
X00080134Y00019148D01*
X00080034Y00019148D01*
X00080034Y00019747D01*
X00079934Y00019647D01*
X00080434Y00019647D02*
X00080534Y00019747D01*
X00080734Y00019747D01*
X00080834Y00019647D01*
X00080834Y00019247D01*
X00080734Y00019148D01*
X00080534Y00019148D01*
X00080434Y00019247D01*
X00080434Y00019647D01*
X00057836Y00019618D02*
X00057736Y00019718D01*
X00057536Y00019718D01*
X00057436Y00019618D01*
X00057436Y00019218D01*
X00057536Y00019118D01*
X00057736Y00019118D01*
X00057836Y00019218D01*
X00058036Y00019118D02*
X00058236Y00019118D01*
X00058136Y00019118D01*
X00058136Y00019718D01*
X00058036Y00019618D01*
X00090104Y00050847D02*
X00090004Y00050947D01*
X00089804Y00050947D01*
X00089704Y00050847D01*
X00089704Y00050447D01*
X00089804Y00050347D01*
X00090004Y00050347D01*
X00090104Y00050447D01*
X00090304Y00050847D02*
X00090404Y00050947D01*
X00090604Y00050947D01*
X00090704Y00050847D01*
X00090704Y00050747D01*
X00090604Y00050647D01*
X00090504Y00050647D01*
X00090604Y00050647D01*
X00090704Y00050547D01*
X00090704Y00050447D01*
X00090604Y00050347D01*
X00090404Y00050347D01*
X00090304Y00050447D01*
X00091303Y00050947D02*
X00090903Y00050947D01*
X00090903Y00050647D01*
X00091103Y00050747D01*
X00091203Y00050747D01*
X00091303Y00050647D01*
X00091303Y00050447D01*
X00091203Y00050347D01*
X00091003Y00050347D01*
X00090903Y00050447D01*
X00082687Y00019677D02*
X00082587Y00019777D01*
X00082387Y00019777D01*
X00082287Y00019677D01*
X00082287Y00019277D01*
X00082387Y00019177D01*
X00082587Y00019177D01*
X00082687Y00019277D01*
X00082887Y00019677D02*
X00082987Y00019777D01*
X00083187Y00019777D01*
X00083287Y00019677D01*
X00083287Y00019577D01*
X00083187Y00019477D01*
X00083087Y00019477D01*
X00083187Y00019477D01*
X00083287Y00019377D01*
X00083287Y00019277D01*
X00083187Y00019177D01*
X00082987Y00019177D01*
X00082887Y00019277D01*
X00083787Y00019177D02*
X00083787Y00019777D01*
X00083487Y00019477D01*
X00083887Y00019477D01*
X00092909Y00050847D02*
X00092809Y00050947D01*
X00092609Y00050947D01*
X00092509Y00050847D01*
X00092509Y00050447D01*
X00092609Y00050347D01*
X00092809Y00050347D01*
X00092909Y00050447D01*
X00093109Y00050847D02*
X00093209Y00050947D01*
X00093409Y00050947D01*
X00093509Y00050847D01*
X00093509Y00050747D01*
X00093409Y00050647D01*
X00093309Y00050647D01*
X00093409Y00050647D01*
X00093509Y00050547D01*
X00093509Y00050447D01*
X00093409Y00050347D01*
X00093209Y00050347D01*
X00093109Y00050447D01*
X00094108Y00050347D02*
X00093709Y00050347D01*
X00094108Y00050747D01*
X00094108Y00050847D01*
X00094008Y00050947D01*
X00093809Y00050947D01*
X00093709Y00050847D01*
X00054519Y00019658D02*
X00054420Y00019758D01*
X00054220Y00019758D01*
X00054120Y00019658D01*
X00054120Y00019258D01*
X00054220Y00019158D01*
X00054420Y00019158D01*
X00054519Y00019258D01*
X00055119Y00019158D02*
X00054719Y00019158D01*
X00055119Y00019558D01*
X00055119Y00019658D01*
X00055019Y00019758D01*
X00054819Y00019758D01*
X00054719Y00019658D01*
X00055719Y00019758D02*
X00055319Y00019758D01*
X00055319Y00019458D01*
X00055519Y00019558D01*
X00055619Y00019558D01*
X00055719Y00019458D01*
X00055719Y00019258D01*
X00055619Y00019158D01*
X00055419Y00019158D01*
X00055319Y00019258D01*
X00077145Y00045571D02*
X00077145Y00045471D01*
X00077345Y00045271D01*
X00077545Y00045471D01*
X00077545Y00045571D01*
X00077345Y00045271D02*
X00077345Y00044971D01*
X00078144Y00044971D02*
X00077745Y00044971D01*
X00078144Y00045371D01*
X00078144Y00045471D01*
X00078045Y00045571D01*
X00077845Y00045571D01*
X00077745Y00045471D01*
X00074954Y00036932D02*
X00074954Y00036832D01*
X00075154Y00036632D01*
X00075354Y00036832D01*
X00075354Y00036932D01*
X00075154Y00036632D02*
X00075154Y00036332D01*
X00075554Y00036332D02*
X00075754Y00036332D01*
X00075654Y00036332D01*
X00075654Y00036932D01*
X00075554Y00036832D01*
X00074043Y00048334D02*
X00074043Y00047734D01*
X00074443Y00047734D01*
X00074643Y00047734D02*
X00074843Y00047734D01*
X00074743Y00047734D01*
X00074743Y00048334D01*
X00074643Y00048234D01*
X00062165Y00059222D02*
X00062765Y00059222D01*
X00062765Y00059522D01*
X00062665Y00059622D01*
X00062265Y00059622D01*
X00062165Y00059522D01*
X00062165Y00059222D01*
X00062165Y00060222D02*
X00062165Y00059822D01*
X00062465Y00059822D01*
X00062365Y00060022D01*
X00062365Y00060122D01*
X00062465Y00060222D01*
X00062665Y00060222D01*
X00062765Y00060122D01*
X00062765Y00059922D01*
X00062665Y00059822D01*
X00059931Y00059261D02*
X00060531Y00059261D01*
X00060531Y00059561D01*
X00060431Y00059661D01*
X00060031Y00059661D01*
X00059931Y00059561D01*
X00059931Y00059261D01*
X00060531Y00060161D02*
X00059931Y00060161D01*
X00060231Y00059861D01*
X00060231Y00060261D01*
X00057943Y00059212D02*
X00058543Y00059212D01*
X00058543Y00059512D01*
X00058443Y00059612D01*
X00058043Y00059612D01*
X00057943Y00059512D01*
X00057943Y00059212D01*
X00058043Y00059812D02*
X00057943Y00059912D01*
X00057943Y00060112D01*
X00058043Y00060212D01*
X00058143Y00060212D01*
X00058243Y00060112D01*
X00058243Y00060012D01*
X00058243Y00060112D01*
X00058343Y00060212D01*
X00058443Y00060212D01*
X00058543Y00060112D01*
X00058543Y00059912D01*
X00058443Y00059812D01*
X00055935Y00059212D02*
X00056535Y00059212D01*
X00056535Y00059512D01*
X00056435Y00059612D01*
X00056035Y00059612D01*
X00055935Y00059512D01*
X00055935Y00059212D01*
X00056535Y00060212D02*
X00056535Y00059812D01*
X00056135Y00060212D01*
X00056035Y00060212D01*
X00055935Y00060112D01*
X00055935Y00059912D01*
X00056035Y00059812D01*
X00078946Y00059359D02*
X00079546Y00059359D01*
X00079546Y00059658D01*
X00079446Y00059758D01*
X00079046Y00059758D01*
X00078946Y00059658D01*
X00078946Y00059359D01*
X00079546Y00059958D02*
X00079546Y00060158D01*
X00079546Y00060058D01*
X00078946Y00060058D01*
X00079046Y00059958D01*
X00091199Y00040413D02*
X00091199Y00040313D01*
X00091399Y00040113D01*
X00091599Y00040313D01*
X00091599Y00040413D01*
X00091399Y00040113D02*
X00091399Y00039813D01*
X00091799Y00040313D02*
X00091898Y00040413D01*
X00092098Y00040413D01*
X00092198Y00040313D01*
X00092198Y00040213D01*
X00092098Y00040113D01*
X00091998Y00040113D01*
X00092098Y00040113D01*
X00092198Y00040013D01*
X00092198Y00039913D01*
X00092098Y00039813D01*
X00091898Y00039813D01*
X00091799Y00039913D01*
D71*
X00050934Y00019461D02*
G03*
X00050934Y00019461I-00001377D01*
G01*
X00053734Y00019461D02*
G03*
X00053734Y00019461I-00001377D01*
G01*
X00090134Y00019461D02*
G03*
X00090134Y00019461I-00001377D01*
G01*
X00087134Y00019461D02*
G03*
X00087134Y00019461I-00001377D01*
G01*
X00094734Y00047461D02*
G03*
X00094734Y00047461I-00001377D01*
G01*
X00091934Y00047461D02*
G03*
X00091934Y00047461I-00001377D01*
G01*
X00049892Y00018685D02*
X00050292Y00018685D01*
X00050092Y00018485D02*
X00050092Y00018885D01*
X00052692Y00018685D02*
X00053092Y00018685D01*
X00052892Y00018485D02*
X00052892Y00018885D01*
X00088021Y00020237D02*
X00088421Y00020237D01*
X00088221Y00020037D02*
X00088221Y00020436D01*
X00085021Y00020237D02*
X00085421Y00020237D01*
X00085221Y00020037D02*
X00085221Y00020436D01*
X00073956Y00026161D02*
X00073956Y00027161D01*
X00068956Y00026161D02*
X00073956Y00026161D01*
X00068956Y00027161D02*
X00073956Y00027161D01*
X00068956Y00026161D02*
X00068956Y00027161D01*
X00093356Y00031161D02*
X00094356Y00031161D01*
X00093356Y00031161D02*
X00093356Y00036161D01*
X00094356Y00031161D02*
X00094356Y00036161D01*
X00093356Y00036161D02*
X00094356Y00036161D01*
X00093692Y00046685D02*
X00094092Y00046685D01*
X00093892Y00046485D02*
X00093892Y00046885D01*
X00090892Y00046685D02*
X00091292Y00046685D01*
X00091092Y00046485D02*
X00091092Y00046885D01*
X00078744Y00060396D02*
X00079768Y00060396D01*
X00079256Y00060654D02*
X00079768Y00060654D01*
X00079768Y00059075D02*
X00079768Y00060654D01*
X00078744Y00059075D02*
X00079768Y00059075D01*
X00078744Y00059075D02*
X00078744Y00060656D01*
X00079256Y00060654D01*
X00077356Y00058761D02*
X00077356Y00061761D01*
X00076356Y00061761D02*
X00077356Y00061761D01*
X00076356Y00058761D02*
X00076356Y00061761D01*
X00076356Y00058761D02*
X00077356Y00058761D01*
X00061944Y00060396D02*
X00062968Y00060396D01*
X00062456Y00060654D02*
X00062968Y00060654D01*
X00062968Y00059075D02*
X00062968Y00060654D01*
X00061944Y00059075D02*
X00062968Y00059075D01*
X00061944Y00059075D02*
X00061944Y00060656D01*
X00062456Y00060654D01*
X00059744Y00060396D02*
X00060768Y00060396D01*
X00060256Y00060654D02*
X00060768Y00060654D01*
X00060768Y00059075D02*
X00060768Y00060654D01*
X00059744Y00059075D02*
X00060768Y00059075D01*
X00059744Y00059075D02*
X00059744Y00060656D01*
X00060256Y00060654D01*
X00057744Y00060396D02*
X00058768Y00060396D01*
X00058256Y00060654D02*
X00058768Y00060654D01*
X00058768Y00059075D02*
X00058768Y00060654D01*
X00057744Y00059075D02*
X00058768Y00059075D01*
X00057744Y00059075D02*
X00057744Y00060656D01*
X00058256Y00060654D01*
X00055744Y00060396D02*
X00056768Y00060396D01*
X00056256Y00060654D02*
X00056768Y00060654D01*
X00056768Y00059075D02*
X00056768Y00060654D01*
X00055744Y00059075D02*
X00056768Y00059075D01*
X00055744Y00059075D02*
X00055744Y00060656D01*
X00056256Y00060654D01*
D72*
X00076383Y00052748D02*
X00076383Y00056205D01*
X00072303Y00052748D02*
X00072303Y00056205D01*
X00072303Y00052748D02*
X00076383Y00052748D01*
X00072303Y00056205D02*
X00076383Y00056205D01*
G04 next file*
G04 Layer_Color=65535*
G04 skipping 71
G01*
G75*
D73*
X00056714Y00098329D02*
G03*
X00056714Y00098329I-00002657D01*
G01*
X00063250Y00063577D02*
X00066370Y00063577D01*
X00068142Y00063577D02*
X00071262Y00063577D01*
X00063250Y00067081D02*
X00071262Y00067081D01*
X00066370Y00064069D02*
X00068142Y00064069D01*
X00063742Y00066588D02*
X00070770Y00066588D01*
X00068142Y00064069D02*
X00070770Y00064069D01*
X00063742Y00064069D02*
X00066370Y00064069D01*
X00066370Y00063577D02*
X00066370Y00064069D01*
X00068142Y00063577D02*
X00068142Y00064069D01*
X00066370Y00063577D02*
X00068142Y00063577D01*
X00063742Y00064069D02*
X00063742Y00066588D01*
X00063250Y00063577D02*
X00063250Y00067081D01*
X00070770Y00064069D02*
X00070770Y00066588D01*
X00071262Y00063577D02*
X00071262Y00067081D01*
X00053306Y00098179D02*
X00053306Y00098479D01*
X00053156Y00098329D02*
X00053456Y00098329D01*
X00052009Y00098132D02*
X00052009Y00098525D01*
X00073850Y00102748D02*
X00073850Y00104322D01*
X00073062Y00104322D02*
X00076606Y00104322D01*
X00076606Y00102708D02*
X00076606Y00104322D01*
X00073102Y00102708D02*
X00076606Y00102708D01*
X00073062Y00102748D02*
X00073102Y00102708D01*
X00073062Y00102748D02*
X00073062Y00104322D01*
X00074472Y00089763D02*
X00074472Y00094094D01*
X00076440Y00094094D01*
X00074472Y00089763D02*
X00076440Y00089763D01*
X00076440Y00094094D01*
X00086291Y00097344D02*
X00090622Y00097344D01*
X00086291Y00097344D02*
X00086291Y00099313D01*
X00090622Y00097344D02*
X00090622Y00099313D01*
X00086291Y00099313D02*
X00090622Y00099313D01*
X00073356Y00105329D02*
X00075557Y00105329D01*
X00073356Y00105329D02*
X00073356Y00107329D01*
X00075557Y00107329D01*
X00075557Y00105329D02*
X00075557Y00107329D01*
X00083970Y00117748D02*
X00092237Y00117748D01*
X00092237Y00117354D02*
X00092237Y00118929D01*
X00083970Y00117354D02*
X00092237Y00117354D01*
X00083970Y00117354D02*
X00083970Y00120503D01*
X00092237Y00120503D01*
X00092237Y00118929D02*
X00092237Y00120503D01*
X00055037Y00118929D02*
X00055037Y00120503D01*
X00050707Y00120503D02*
X00055037Y00120503D01*
X00050707Y00117354D02*
X00050707Y00120503D01*
X00050707Y00117354D02*
X00055037Y00117354D01*
X00055037Y00118889D01*
X00050707Y00117748D02*
X00055037Y00117748D01*
X00080050Y00063577D02*
X00083170Y00063577D01*
X00084942Y00063577D02*
X00088062Y00063577D01*
X00080050Y00067081D02*
X00088062Y00067081D01*
X00083170Y00064069D02*
X00084942Y00064069D01*
X00080542Y00066588D02*
X00087570Y00066588D01*
X00084942Y00064069D02*
X00087570Y00064069D01*
X00080542Y00064069D02*
X00083170Y00064069D01*
X00083170Y00063577D02*
X00083170Y00064069D01*
X00084942Y00063577D02*
X00084942Y00064069D01*
X00083170Y00063577D02*
X00084942Y00063577D01*
X00080542Y00064069D02*
X00080542Y00066588D01*
X00080050Y00063577D02*
X00080050Y00067081D01*
X00087570Y00064069D02*
X00087570Y00066588D01*
X00088062Y00063577D02*
X00088062Y00067081D01*
X00071650Y00063577D02*
X00074770Y00063577D01*
X00076542Y00063577D02*
X00079662Y00063577D01*
X00071650Y00067081D02*
X00079662Y00067081D01*
X00074770Y00064069D02*
X00076542Y00064069D01*
X00072142Y00066588D02*
X00079170Y00066588D01*
X00076542Y00064069D02*
X00079170Y00064069D01*
X00072142Y00064069D02*
X00074770Y00064069D01*
X00074770Y00063577D02*
X00074770Y00064069D01*
X00076542Y00063577D02*
X00076542Y00064069D01*
X00074770Y00063577D02*
X00076542Y00063577D01*
X00072142Y00064069D02*
X00072142Y00066588D01*
X00071650Y00063577D02*
X00071650Y00067081D01*
X00079170Y00064069D02*
X00079170Y00066588D01*
X00079662Y00063577D02*
X00079662Y00067081D01*
X00054850Y00063577D02*
X00057970Y00063577D01*
X00059742Y00063577D02*
X00062862Y00063577D01*
X00054850Y00067081D02*
X00062862Y00067081D01*
X00057970Y00064069D02*
X00059742Y00064069D01*
X00055342Y00066588D02*
X00062370Y00066588D01*
X00059742Y00064069D02*
X00062370Y00064069D01*
X00055342Y00064069D02*
X00057970Y00064069D01*
X00057970Y00063577D02*
X00057970Y00064069D01*
X00059742Y00063577D02*
X00059742Y00064069D01*
X00057970Y00063577D02*
X00059742Y00063577D01*
X00055342Y00064069D02*
X00055342Y00066588D01*
X00054850Y00063577D02*
X00054850Y00067081D01*
X00062370Y00064069D02*
X00062370Y00066588D01*
X00062862Y00063577D02*
X00062862Y00067081D01*
X00067450Y00116577D02*
X00067450Y00120081D01*
X00067942Y00117069D02*
X00067942Y00119588D01*
X00075462Y00116577D02*
X00075462Y00120081D01*
X00074970Y00117069D02*
X00074970Y00119588D01*
X00070570Y00120081D02*
X00072342Y00120081D01*
X00070570Y00119588D02*
X00070570Y00120081D01*
X00072342Y00119588D02*
X00072342Y00120081D01*
X00072342Y00119588D02*
X00074970Y00119588D01*
X00067942Y00119588D02*
X00070570Y00119588D01*
X00067942Y00117069D02*
X00074970Y00117069D01*
X00070570Y00119588D02*
X00072342Y00119588D01*
X00067450Y00116577D02*
X00075462Y00116577D01*
X00067450Y00120081D02*
X00070570Y00120081D01*
X00072342Y00120081D02*
X00075462Y00120081D01*
X00080356Y00117229D02*
X00083356Y00117229D01*
X00083356Y00120229D01*
X00080356Y00120229D02*
X00083356Y00120229D01*
X00080356Y00117229D02*
X00080356Y00120229D01*
X00057484Y00098724D02*
X00057484Y00098124D01*
X00057784Y00098124D01*
X00057884Y00098224D01*
X00057884Y00098324D01*
X00057784Y00098424D01*
X00057484Y00098424D01*
X00057784Y00098424D01*
X00057884Y00098524D01*
X00057884Y00098624D01*
X00057784Y00098724D01*
X00057484Y00098724D01*
X00058084Y00098724D02*
X00058484Y00098724D01*
X00058284Y00098724D01*
X00058284Y00098124D01*
X00058684Y00098124D02*
X00058884Y00098124D01*
X00058784Y00098124D01*
X00058784Y00098724D01*
X00058684Y00098624D01*
X00079734Y00077915D02*
X00079634Y00078015D01*
X00079435Y00078015D01*
X00079335Y00077915D01*
X00079335Y00077515D01*
X00079435Y00077415D01*
X00079634Y00077415D01*
X00079734Y00077515D01*
X00079934Y00077415D02*
X00080134Y00077415D01*
X00080034Y00077415D01*
X00080034Y00078015D01*
X00079934Y00077915D01*
X00080434Y00077915D02*
X00080534Y00078015D01*
X00080734Y00078015D01*
X00080834Y00077915D01*
X00080834Y00077515D01*
X00080734Y00077415D01*
X00080534Y00077415D01*
X00080434Y00077515D01*
X00080434Y00077915D01*
X00057836Y00077886D02*
X00057736Y00077986D01*
X00057536Y00077986D01*
X00057436Y00077886D01*
X00057436Y00077486D01*
X00057536Y00077386D01*
X00057736Y00077386D01*
X00057836Y00077486D01*
X00058036Y00077386D02*
X00058236Y00077386D01*
X00058136Y00077386D01*
X00058136Y00077986D01*
X00058036Y00077886D01*
X00090104Y00109114D02*
X00090004Y00109214D01*
X00089804Y00109214D01*
X00089704Y00109114D01*
X00089704Y00108714D01*
X00089804Y00108614D01*
X00090004Y00108614D01*
X00090104Y00108714D01*
X00090304Y00109114D02*
X00090404Y00109214D01*
X00090604Y00109214D01*
X00090704Y00109114D01*
X00090704Y00109014D01*
X00090604Y00108914D01*
X00090504Y00108914D01*
X00090604Y00108914D01*
X00090704Y00108814D01*
X00090704Y00108714D01*
X00090604Y00108614D01*
X00090404Y00108614D01*
X00090304Y00108714D01*
X00091303Y00109214D02*
X00090903Y00109214D01*
X00090903Y00108914D01*
X00091103Y00109014D01*
X00091203Y00109014D01*
X00091303Y00108914D01*
X00091303Y00108714D01*
X00091203Y00108614D01*
X00091003Y00108614D01*
X00090903Y00108714D01*
X00082687Y00077945D02*
X00082587Y00078045D01*
X00082387Y00078045D01*
X00082287Y00077945D01*
X00082287Y00077545D01*
X00082387Y00077445D01*
X00082587Y00077445D01*
X00082687Y00077545D01*
X00082887Y00077945D02*
X00082987Y00078045D01*
X00083187Y00078045D01*
X00083287Y00077945D01*
X00083287Y00077845D01*
X00083187Y00077745D01*
X00083087Y00077745D01*
X00083187Y00077745D01*
X00083287Y00077645D01*
X00083287Y00077545D01*
X00083187Y00077445D01*
X00082987Y00077445D01*
X00082887Y00077545D01*
X00083787Y00077445D02*
X00083787Y00078045D01*
X00083487Y00077745D01*
X00083887Y00077745D01*
X00092909Y00109114D02*
X00092809Y00109214D01*
X00092609Y00109214D01*
X00092509Y00109114D01*
X00092509Y00108714D01*
X00092609Y00108614D01*
X00092809Y00108614D01*
X00092909Y00108714D01*
X00093109Y00109114D02*
X00093209Y00109214D01*
X00093409Y00109214D01*
X00093509Y00109114D01*
X00093509Y00109014D01*
X00093409Y00108914D01*
X00093309Y00108914D01*
X00093409Y00108914D01*
X00093509Y00108814D01*
X00093509Y00108714D01*
X00093409Y00108614D01*
X00093209Y00108614D01*
X00093109Y00108714D01*
X00094108Y00108614D02*
X00093709Y00108614D01*
X00094108Y00109014D01*
X00094108Y00109114D01*
X00094008Y00109214D01*
X00093809Y00109214D01*
X00093709Y00109114D01*
X00054519Y00077925D02*
X00054420Y00078025D01*
X00054220Y00078025D01*
X00054120Y00077925D01*
X00054120Y00077525D01*
X00054220Y00077425D01*
X00054420Y00077425D01*
X00054519Y00077525D01*
X00055119Y00077425D02*
X00054719Y00077425D01*
X00055119Y00077825D01*
X00055119Y00077925D01*
X00055019Y00078025D01*
X00054819Y00078025D01*
X00054719Y00077925D01*
X00055719Y00078025D02*
X00055319Y00078025D01*
X00055319Y00077725D01*
X00055519Y00077825D01*
X00055619Y00077825D01*
X00055719Y00077725D01*
X00055719Y00077525D01*
X00055619Y00077425D01*
X00055419Y00077425D01*
X00055319Y00077525D01*
X00077145Y00103839D02*
X00077145Y00103739D01*
X00077345Y00103539D01*
X00077545Y00103739D01*
X00077545Y00103839D01*
X00077345Y00103539D02*
X00077345Y00103239D01*
X00078144Y00103239D02*
X00077745Y00103239D01*
X00078144Y00103639D01*
X00078144Y00103739D01*
X00078045Y00103839D01*
X00077845Y00103839D01*
X00077745Y00103739D01*
X00074954Y00095200D02*
X00074954Y00095100D01*
X00075154Y00094900D01*
X00075354Y00095100D01*
X00075354Y00095200D01*
X00075154Y00094900D02*
X00075154Y00094600D01*
X00075554Y00094600D02*
X00075754Y00094600D01*
X00075654Y00094600D01*
X00075654Y00095200D01*
X00075554Y00095100D01*
X00074043Y00106601D02*
X00074043Y00106001D01*
X00074443Y00106001D01*
X00074643Y00106001D02*
X00074843Y00106001D01*
X00074743Y00106001D01*
X00074743Y00106601D01*
X00074643Y00106501D01*
X00062165Y00117490D02*
X00062765Y00117490D01*
X00062765Y00117790D01*
X00062665Y00117890D01*
X00062265Y00117890D01*
X00062165Y00117790D01*
X00062165Y00117490D01*
X00062165Y00118489D02*
X00062165Y00118089D01*
X00062465Y00118089D01*
X00062365Y00118289D01*
X00062365Y00118389D01*
X00062465Y00118489D01*
X00062665Y00118489D01*
X00062765Y00118389D01*
X00062765Y00118189D01*
X00062665Y00118089D01*
X00059931Y00117529D02*
X00060531Y00117529D01*
X00060531Y00117829D01*
X00060431Y00117929D01*
X00060031Y00117929D01*
X00059931Y00117829D01*
X00059931Y00117529D01*
X00060531Y00118429D02*
X00059931Y00118429D01*
X00060231Y00118129D01*
X00060231Y00118529D01*
X00057943Y00117480D02*
X00058543Y00117480D01*
X00058543Y00117780D01*
X00058443Y00117880D01*
X00058043Y00117880D01*
X00057943Y00117780D01*
X00057943Y00117480D01*
X00058043Y00118080D02*
X00057943Y00118180D01*
X00057943Y00118380D01*
X00058043Y00118480D01*
X00058143Y00118480D01*
X00058243Y00118380D01*
X00058243Y00118280D01*
X00058243Y00118380D01*
X00058343Y00118480D01*
X00058443Y00118480D01*
X00058543Y00118380D01*
X00058543Y00118180D01*
X00058443Y00118080D01*
X00055935Y00117480D02*
X00056535Y00117480D01*
X00056535Y00117780D01*
X00056435Y00117880D01*
X00056035Y00117880D01*
X00055935Y00117780D01*
X00055935Y00117480D01*
X00056535Y00118480D02*
X00056535Y00118080D01*
X00056135Y00118480D01*
X00056035Y00118480D01*
X00055935Y00118380D01*
X00055935Y00118180D01*
X00056035Y00118080D01*
X00078946Y00117626D02*
X00079546Y00117626D01*
X00079546Y00117926D01*
X00079446Y00118026D01*
X00079046Y00118026D01*
X00078946Y00117926D01*
X00078946Y00117626D01*
X00079546Y00118226D02*
X00079546Y00118426D01*
X00079546Y00118326D01*
X00078946Y00118326D01*
X00079046Y00118226D01*
X00091199Y00098680D02*
X00091199Y00098580D01*
X00091399Y00098380D01*
X00091599Y00098580D01*
X00091599Y00098680D01*
X00091399Y00098380D02*
X00091399Y00098081D01*
X00091799Y00098580D02*
X00091898Y00098680D01*
X00092098Y00098680D01*
X00092198Y00098580D01*
X00092198Y00098480D01*
X00092098Y00098380D01*
X00091998Y00098380D01*
X00092098Y00098380D01*
X00092198Y00098281D01*
X00092198Y00098181D01*
X00092098Y00098081D01*
X00091898Y00098081D01*
X00091799Y00098181D01*
D74*
X00050934Y00077729D02*
G03*
X00050934Y00077729I-00001377D01*
G01*
X00053734Y00077729D02*
G03*
X00053734Y00077729I-00001377D01*
G01*
X00090134Y00077729D02*
G03*
X00090134Y00077729I-00001377D01*
G01*
X00087134Y00077729D02*
G03*
X00087134Y00077729I-00001377D01*
G01*
X00094734Y00105729D02*
G03*
X00094734Y00105729I-00001377D01*
G01*
X00091934Y00105729D02*
G03*
X00091934Y00105729I-00001377D01*
G01*
X00049892Y00076953D02*
X00050292Y00076953D01*
X00050092Y00076753D02*
X00050092Y00077153D01*
X00052692Y00076953D02*
X00053092Y00076953D01*
X00052892Y00076753D02*
X00052892Y00077153D01*
X00088021Y00078504D02*
X00088421Y00078504D01*
X00088221Y00078304D02*
X00088221Y00078704D01*
X00085021Y00078504D02*
X00085421Y00078504D01*
X00085221Y00078304D02*
X00085221Y00078704D01*
X00073956Y00084429D02*
X00073956Y00085429D01*
X00068956Y00084429D02*
X00073956Y00084429D01*
X00068956Y00085429D02*
X00073956Y00085429D01*
X00068956Y00084429D02*
X00068956Y00085429D01*
X00093356Y00089429D02*
X00094356Y00089429D01*
X00093356Y00089429D02*
X00093356Y00094429D01*
X00094356Y00089429D02*
X00094356Y00094429D01*
X00093356Y00094429D02*
X00094356Y00094429D01*
X00093692Y00104953D02*
X00094092Y00104953D01*
X00093892Y00104753D02*
X00093892Y00105153D01*
X00090892Y00104953D02*
X00091292Y00104953D01*
X00091092Y00104753D02*
X00091092Y00105153D01*
X00078744Y00118663D02*
X00079768Y00118663D01*
X00079256Y00118922D02*
X00079768Y00118922D01*
X00079768Y00117343D02*
X00079768Y00118922D01*
X00078744Y00117343D02*
X00079768Y00117343D01*
X00078744Y00117343D02*
X00078744Y00118924D01*
X00079256Y00118922D01*
X00077356Y00117029D02*
X00077356Y00120029D01*
X00076356Y00120029D02*
X00077356Y00120029D01*
X00076356Y00117029D02*
X00076356Y00120029D01*
X00076356Y00117029D02*
X00077356Y00117029D01*
X00061944Y00118663D02*
X00062968Y00118663D01*
X00062456Y00118922D02*
X00062968Y00118922D01*
X00062968Y00117343D02*
X00062968Y00118922D01*
X00061944Y00117343D02*
X00062968Y00117343D01*
X00061944Y00117343D02*
X00061944Y00118924D01*
X00062456Y00118922D01*
X00059744Y00118663D02*
X00060768Y00118663D01*
X00060256Y00118922D02*
X00060768Y00118922D01*
X00060768Y00117343D02*
X00060768Y00118922D01*
X00059744Y00117343D02*
X00060768Y00117343D01*
X00059744Y00117343D02*
X00059744Y00118924D01*
X00060256Y00118922D01*
X00057744Y00118663D02*
X00058768Y00118663D01*
X00058256Y00118922D02*
X00058768Y00118922D01*
X00058768Y00117343D02*
X00058768Y00118922D01*
X00057744Y00117343D02*
X00058768Y00117343D01*
X00057744Y00117343D02*
X00057744Y00118924D01*
X00058256Y00118922D01*
X00055744Y00118663D02*
X00056768Y00118663D01*
X00056256Y00118922D02*
X00056768Y00118922D01*
X00056768Y00117343D02*
X00056768Y00118922D01*
X00055744Y00117343D02*
X00056768Y00117343D01*
X00055744Y00117343D02*
X00055744Y00118924D01*
X00056256Y00118922D01*
D75*
X00076383Y00111015D02*
X00076383Y00114472D01*
X00072303Y00111015D02*
X00072303Y00114472D01*
X00072303Y00111015D02*
X00076383Y00111015D01*
X00072303Y00114472D02*
X00076383Y00114472D01*
G04 next file*
G04 Layer_Color=65535*
G04 skipping 71
G01*
G75*
G36*
X00004588Y00124442D02*
X00004540Y00124442D01*
X00004540Y00124742D01*
X00004540Y00124742D01*
X00004537Y00124739D01*
X00004533Y00124736D01*
X00004528Y00124732D01*
X00004521Y00124727D01*
X00004514Y00124722D01*
X00004505Y00124715D01*
X00004495Y00124709D01*
X00004495Y00124709D01*
X00004494Y00124709D01*
X00004490Y00124707D01*
X00004485Y00124704D01*
X00004479Y00124700D01*
X00004471Y00124696D01*
X00004463Y00124693D01*
X00004454Y00124688D01*
X00004446Y00124685D01*
X00004446Y00124731D01*
X00004447Y00124731D01*
X00004448Y00124732D01*
X00004450Y00124733D01*
X00004452Y00124735D01*
X00004456Y00124736D01*
X00004460Y00124738D01*
X00004469Y00124743D01*
X00004480Y00124750D01*
X00004492Y00124757D01*
X00004503Y00124766D01*
X00004514Y00124776D01*
X00004515Y00124776D01*
X00004516Y00124777D01*
X00004519Y00124780D01*
X00004524Y00124786D01*
X00004531Y00124792D01*
X00004538Y00124800D01*
X00004545Y00124809D01*
X00004551Y00124818D01*
X00004557Y00124828D01*
X00004588Y00124828D01*
X00004588Y00124442D01*
D02*
G37*
G36*
X00004199Y00124825D02*
X00004210Y00124825D01*
X00004221Y00124824D01*
X00004232Y00124822D01*
X00004242Y00124820D01*
X00004242Y00124820D01*
X00004244Y00124819D01*
X00004245Y00124819D01*
X00004247Y00124818D01*
X00004254Y00124817D01*
X00004261Y00124814D01*
X00004270Y00124810D01*
X00004279Y00124805D01*
X00004289Y00124800D01*
X00004298Y00124793D01*
X00004299Y00124793D01*
X00004299Y00124791D01*
X00004303Y00124788D01*
X00004309Y00124782D01*
X00004315Y00124774D01*
X00004323Y00124765D01*
X00004330Y00124754D01*
X00004337Y00124741D01*
X00004344Y00124726D01*
X00004344Y00124726D01*
X00004344Y00124725D01*
X00004345Y00124722D01*
X00004346Y00124719D01*
X00004347Y00124716D01*
X00004348Y00124711D01*
X00004350Y00124706D01*
X00004351Y00124700D01*
X00004352Y00124694D01*
X00004354Y00124687D01*
X00004357Y00124671D01*
X00004358Y00124655D01*
X00004359Y00124636D01*
X00004359Y00124635D01*
X00004359Y00124634D01*
X00004359Y00124632D01*
X00004359Y00124628D01*
X00004358Y00124625D01*
X00004358Y00124620D01*
X00004358Y00124609D01*
X00004357Y00124598D01*
X00004354Y00124584D01*
X00004352Y00124571D01*
X00004348Y00124558D01*
X00004348Y00124557D01*
X00004348Y00124556D01*
X00004347Y00124554D01*
X00004347Y00124552D01*
X00004344Y00124546D01*
X00004341Y00124538D01*
X00004338Y00124529D01*
X00004333Y00124520D01*
X00004328Y00124511D01*
X00004322Y00124502D01*
X00004321Y00124501D01*
X00004319Y00124498D01*
X00004316Y00124494D01*
X00004311Y00124489D01*
X00004307Y00124484D01*
X00004300Y00124478D01*
X00004294Y00124472D01*
X00004287Y00124467D01*
X00004286Y00124466D01*
X00004283Y00124465D01*
X00004279Y00124463D01*
X00004274Y00124460D01*
X00004268Y00124457D01*
X00004260Y00124454D01*
X00004251Y00124451D01*
X00004241Y00124448D01*
X00004240Y00124448D01*
X00004237Y00124447D01*
X00004231Y00124446D01*
X00004224Y00124445D01*
X00004215Y00124444D01*
X00004204Y00124443D01*
X00004193Y00124442D01*
X00004180Y00124442D01*
X00004042Y00124442D01*
X00004042Y00124826D01*
X00004189Y00124826D01*
X00004199Y00124825D01*
D02*
G37*
G36*
X00003976Y00124781D02*
X00003767Y00124781D01*
X00003767Y00124661D01*
X00003948Y00124661D01*
X00003948Y00124616D01*
X00003767Y00124616D01*
X00003767Y00124442D01*
X00003717Y00124442D01*
X00003717Y00124826D01*
X00003976Y00124826D01*
X00003976Y00124781D01*
D02*
G37*
G36*
X00090984Y00124781D02*
X00090775Y00124781D01*
X00090775Y00124661D01*
X00090955Y00124661D01*
X00090955Y00124616D01*
X00090775Y00124616D01*
X00090775Y00124442D01*
X00090724Y00124442D01*
X00090724Y00124826D01*
X00090984Y00124826D01*
X00090984Y00124781D01*
D02*
G37*
G36*
X00091549Y00124827D02*
X00091557Y00124826D01*
X00091566Y00124824D01*
X00091576Y00124822D01*
X00091585Y00124818D01*
X00091595Y00124814D01*
X00091596Y00124814D01*
X00091597Y00124813D01*
X00091600Y00124811D01*
X00091605Y00124808D01*
X00091611Y00124804D01*
X00091617Y00124799D01*
X00091624Y00124793D01*
X00091631Y00124785D01*
X00091636Y00124777D01*
X00091637Y00124776D01*
X00091639Y00124773D01*
X00091641Y00124768D01*
X00091643Y00124762D01*
X00091646Y00124755D01*
X00091648Y00124746D01*
X00091650Y00124738D01*
X00091650Y00124728D01*
X00091650Y00124726D01*
X00091650Y00124724D01*
X00091650Y00124719D01*
X00091649Y00124713D01*
X00091647Y00124706D01*
X00091645Y00124698D01*
X00091642Y00124690D01*
X00091637Y00124683D01*
X00091636Y00124681D01*
X00091635Y00124679D01*
X00091631Y00124676D01*
X00091627Y00124671D01*
X00091621Y00124666D01*
X00091615Y00124660D01*
X00091607Y00124655D01*
X00091597Y00124650D01*
X00091598Y00124650D01*
X00091599Y00124649D01*
X00091601Y00124649D01*
X00091603Y00124648D01*
X00091609Y00124646D01*
X00091617Y00124643D01*
X00091625Y00124639D01*
X00091633Y00124633D01*
X00091642Y00124626D01*
X00091650Y00124617D01*
X00091650Y00124616D01*
X00091653Y00124612D01*
X00091656Y00124607D01*
X00091660Y00124600D01*
X00091663Y00124591D01*
X00091666Y00124581D01*
X00091669Y00124568D01*
X00091669Y00124555D01*
X00091669Y00124554D01*
X00091669Y00124553D01*
X00091669Y00124550D01*
X00091669Y00124547D01*
X00091668Y00124542D01*
X00091667Y00124537D01*
X00091666Y00124532D01*
X00091664Y00124526D01*
X00091660Y00124512D01*
X00091657Y00124505D01*
X00091653Y00124498D01*
X00091649Y00124491D01*
X00091645Y00124484D01*
X00091639Y00124477D01*
X00091632Y00124470D01*
X00091632Y00124469D01*
X00091631Y00124468D01*
X00091629Y00124467D01*
X00091626Y00124464D01*
X00091622Y00124461D01*
X00091618Y00124459D01*
X00091612Y00124456D01*
X00091607Y00124453D01*
X00091601Y00124449D01*
X00091594Y00124446D01*
X00091586Y00124443D01*
X00091578Y00124440D01*
X00091569Y00124438D01*
X00091560Y00124437D01*
X00091550Y00124436D01*
X00091540Y00124435D01*
X00091535Y00124435D01*
X00091532Y00124436D01*
X00091527Y00124436D01*
X00091522Y00124437D01*
X00091516Y00124437D01*
X00091511Y00124439D01*
X00091497Y00124442D01*
X00091483Y00124448D01*
X00091476Y00124451D01*
X00091470Y00124455D01*
X00091463Y00124460D01*
X00091456Y00124465D01*
X00091456Y00124466D01*
X00091455Y00124466D01*
X00091453Y00124468D01*
X00091451Y00124470D01*
X00091449Y00124474D01*
X00091446Y00124477D01*
X00091442Y00124481D01*
X00091439Y00124486D01*
X00091432Y00124498D01*
X00091426Y00124511D01*
X00091421Y00124526D01*
X00091419Y00124535D01*
X00091418Y00124543D01*
X00091466Y00124550D01*
X00091466Y00124549D01*
X00091466Y00124548D01*
X00091466Y00124546D01*
X00091467Y00124543D01*
X00091469Y00124536D01*
X00091472Y00124528D01*
X00091476Y00124518D01*
X00091480Y00124508D01*
X00091486Y00124499D01*
X00091492Y00124492D01*
X00091494Y00124491D01*
X00091496Y00124489D01*
X00091500Y00124487D01*
X00091506Y00124483D01*
X00091512Y00124480D01*
X00091521Y00124477D01*
X00091530Y00124475D01*
X00091540Y00124474D01*
X00091543Y00124474D01*
X00091546Y00124475D01*
X00091552Y00124475D01*
X00091559Y00124477D01*
X00091569Y00124480D01*
X00091578Y00124484D01*
X00091587Y00124490D01*
X00091596Y00124497D01*
X00091597Y00124498D01*
X00091600Y00124501D01*
X00091603Y00124506D01*
X00091608Y00124513D01*
X00091612Y00124521D01*
X00091615Y00124531D01*
X00091618Y00124542D01*
X00091619Y00124554D01*
X00091619Y00124555D01*
X00091619Y00124556D01*
X00091619Y00124557D01*
X00091618Y00124560D01*
X00091618Y00124566D01*
X00091616Y00124573D01*
X00091614Y00124581D01*
X00091610Y00124591D01*
X00091604Y00124599D01*
X00091597Y00124608D01*
X00091596Y00124609D01*
X00091594Y00124611D01*
X00091589Y00124614D01*
X00091583Y00124618D01*
X00091575Y00124622D01*
X00091566Y00124625D01*
X00091556Y00124628D01*
X00091544Y00124629D01*
X00091539Y00124629D01*
X00091535Y00124628D01*
X00091530Y00124628D01*
X00091524Y00124627D01*
X00091518Y00124626D01*
X00091511Y00124624D01*
X00091516Y00124666D01*
X00091519Y00124666D01*
X00091521Y00124665D01*
X00091529Y00124665D01*
X00091534Y00124666D01*
X00091542Y00124667D01*
X00091550Y00124668D01*
X00091559Y00124671D01*
X00091568Y00124675D01*
X00091577Y00124680D01*
X00091578Y00124681D01*
X00091581Y00124683D01*
X00091585Y00124687D01*
X00091590Y00124693D01*
X00091594Y00124699D01*
X00091598Y00124707D01*
X00091601Y00124717D01*
X00091602Y00124729D01*
X00091602Y00124729D01*
X00091602Y00124730D01*
X00091602Y00124733D01*
X00091601Y00124738D01*
X00091600Y00124744D01*
X00091598Y00124750D01*
X00091594Y00124757D01*
X00091590Y00124765D01*
X00091584Y00124771D01*
X00091584Y00124772D01*
X00091581Y00124774D01*
X00091577Y00124777D01*
X00091572Y00124780D01*
X00091566Y00124784D01*
X00091558Y00124786D01*
X00091549Y00124788D01*
X00091539Y00124789D01*
X00091535Y00124789D01*
X00091529Y00124788D01*
X00091523Y00124787D01*
X00091516Y00124785D01*
X00091508Y00124781D01*
X00091501Y00124777D01*
X00091493Y00124771D01*
X00091492Y00124771D01*
X00091490Y00124769D01*
X00091487Y00124764D01*
X00091484Y00124759D01*
X00091480Y00124752D01*
X00091476Y00124743D01*
X00091473Y00124732D01*
X00091470Y00124720D01*
X00091423Y00124728D01*
X00091423Y00124729D01*
X00091423Y00124731D01*
X00091424Y00124733D01*
X00091425Y00124736D01*
X00091426Y00124740D01*
X00091427Y00124745D01*
X00091431Y00124755D01*
X00091436Y00124767D01*
X00091443Y00124779D01*
X00091451Y00124791D01*
X00091461Y00124801D01*
X00091462Y00124802D01*
X00091463Y00124802D01*
X00091464Y00124804D01*
X00091467Y00124805D01*
X00091470Y00124807D01*
X00091474Y00124810D01*
X00091483Y00124815D01*
X00091494Y00124819D01*
X00091507Y00124824D01*
X00091522Y00124826D01*
X00091530Y00124828D01*
X00091543Y00124828D01*
X00091549Y00124827D01*
D02*
G37*
G36*
X00091207Y00124825D02*
X00091218Y00124825D01*
X00091229Y00124824D01*
X00091240Y00124822D01*
X00091250Y00124820D01*
X00091250Y00124820D01*
X00091251Y00124819D01*
X00091253Y00124819D01*
X00091255Y00124818D01*
X00091261Y00124817D01*
X00091269Y00124814D01*
X00091278Y00124810D01*
X00091287Y00124805D01*
X00091297Y00124800D01*
X00091306Y00124793D01*
X00091306Y00124793D01*
X00091307Y00124791D01*
X00091311Y00124788D01*
X00091316Y00124782D01*
X00091323Y00124774D01*
X00091330Y00124765D01*
X00091338Y00124754D01*
X00091345Y00124741D01*
X00091352Y00124726D01*
X00091352Y00124726D01*
X00091352Y00124725D01*
X00091353Y00124722D01*
X00091354Y00124719D01*
X00091355Y00124716D01*
X00091356Y00124711D01*
X00091358Y00124706D01*
X00091359Y00124700D01*
X00091360Y00124694D01*
X00091362Y00124687D01*
X00091364Y00124671D01*
X00091366Y00124655D01*
X00091367Y00124636D01*
X00091367Y00124635D01*
X00091367Y00124634D01*
X00091367Y00124632D01*
X00091367Y00124628D01*
X00091366Y00124625D01*
X00091366Y00124620D01*
X00091366Y00124609D01*
X00091364Y00124598D01*
X00091362Y00124584D01*
X00091360Y00124571D01*
X00091356Y00124558D01*
X00091356Y00124557D01*
X00091356Y00124556D01*
X00091355Y00124554D01*
X00091354Y00124552D01*
X00091352Y00124546D01*
X00091349Y00124538D01*
X00091346Y00124529D01*
X00091341Y00124520D01*
X00091336Y00124511D01*
X00091330Y00124502D01*
X00091329Y00124501D01*
X00091327Y00124498D01*
X00091324Y00124494D01*
X00091319Y00124489D01*
X00091315Y00124484D01*
X00091308Y00124478D01*
X00091302Y00124472D01*
X00091295Y00124467D01*
X00091294Y00124466D01*
X00091291Y00124465D01*
X00091287Y00124463D01*
X00091282Y00124460D01*
X00091275Y00124457D01*
X00091268Y00124454D01*
X00091259Y00124451D01*
X00091249Y00124448D01*
X00091248Y00124448D01*
X00091244Y00124447D01*
X00091239Y00124446D01*
X00091232Y00124445D01*
X00091223Y00124444D01*
X00091212Y00124443D01*
X00091201Y00124442D01*
X00091188Y00124442D01*
X00091050Y00124442D01*
X00091050Y00124826D01*
X00091197Y00124826D01*
X00091207Y00124825D01*
D02*
G37*
%LPC*%
G36*
X00004173Y00124781D02*
X00004093Y00124781D01*
X00004093Y00124487D01*
X00004180Y00124487D01*
X00004187Y00124487D01*
X00004196Y00124488D01*
X00004205Y00124488D01*
X00004215Y00124490D01*
X00004224Y00124491D01*
X00004233Y00124494D01*
X00004234Y00124494D01*
X00004237Y00124495D01*
X00004241Y00124497D01*
X00004245Y00124499D01*
X00004251Y00124502D01*
X00004257Y00124505D01*
X00004262Y00124509D01*
X00004268Y00124514D01*
X00004268Y00124514D01*
X00004270Y00124517D01*
X00004274Y00124521D01*
X00004278Y00124526D01*
X00004282Y00124533D01*
X00004287Y00124542D01*
X00004292Y00124552D01*
X00004296Y00124562D01*
X00004296Y00124563D01*
X00004296Y00124563D01*
X00004297Y00124565D01*
X00004297Y00124567D01*
X00004298Y00124570D01*
X00004299Y00124574D01*
X00004301Y00124583D01*
X00004303Y00124594D01*
X00004304Y00124607D01*
X00004306Y00124621D01*
X00004306Y00124636D01*
X00004306Y00124637D01*
X00004306Y00124639D01*
X00004306Y00124642D01*
X00004306Y00124646D01*
X00004306Y00124652D01*
X00004305Y00124657D01*
X00004304Y00124664D01*
X00004304Y00124670D01*
X00004302Y00124685D01*
X00004298Y00124701D01*
X00004293Y00124715D01*
X00004290Y00124722D01*
X00004286Y00124729D01*
X00004286Y00124729D01*
X00004285Y00124730D01*
X00004285Y00124732D01*
X00004283Y00124734D01*
X00004279Y00124740D01*
X00004273Y00124746D01*
X00004266Y00124754D01*
X00004258Y00124761D01*
X00004248Y00124767D01*
X00004238Y00124773D01*
X00004237Y00124773D01*
X00004234Y00124774D01*
X00004230Y00124775D01*
X00004223Y00124777D01*
X00004213Y00124779D01*
X00004202Y00124780D01*
X00004189Y00124780D01*
X00004173Y00124781D01*
D02*
G37*
G36*
X00091181Y00124781D02*
X00091101Y00124781D01*
X00091101Y00124487D01*
X00091188Y00124487D01*
X00091195Y00124487D01*
X00091204Y00124488D01*
X00091213Y00124488D01*
X00091223Y00124490D01*
X00091232Y00124491D01*
X00091241Y00124494D01*
X00091242Y00124494D01*
X00091244Y00124495D01*
X00091249Y00124497D01*
X00091253Y00124499D01*
X00091259Y00124502D01*
X00091265Y00124505D01*
X00091270Y00124509D01*
X00091275Y00124514D01*
X00091276Y00124514D01*
X00091278Y00124517D01*
X00091282Y00124521D01*
X00091286Y00124526D01*
X00091290Y00124533D01*
X00091295Y00124542D01*
X00091299Y00124552D01*
X00091304Y00124562D01*
X00091304Y00124563D01*
X00091304Y00124563D01*
X00091305Y00124565D01*
X00091305Y00124567D01*
X00091306Y00124570D01*
X00091307Y00124574D01*
X00091309Y00124583D01*
X00091311Y00124594D01*
X00091312Y00124607D01*
X00091313Y00124621D01*
X00091314Y00124636D01*
X00091314Y00124637D01*
X00091314Y00124639D01*
X00091314Y00124642D01*
X00091314Y00124646D01*
X00091313Y00124652D01*
X00091313Y00124657D01*
X00091312Y00124664D01*
X00091312Y00124670D01*
X00091309Y00124685D01*
X00091306Y00124701D01*
X00091301Y00124715D01*
X00091298Y00124722D01*
X00091294Y00124729D01*
X00091294Y00124729D01*
X00091293Y00124730D01*
X00091292Y00124732D01*
X00091291Y00124734D01*
X00091287Y00124740D01*
X00091281Y00124746D01*
X00091274Y00124754D01*
X00091266Y00124761D01*
X00091256Y00124767D01*
X00091246Y00124773D01*
X00091245Y00124773D01*
X00091242Y00124774D01*
X00091237Y00124775D01*
X00091230Y00124777D01*
X00091221Y00124779D01*
X00091210Y00124780D01*
X00091196Y00124780D01*
X00091181Y00124781D01*
D02*
G37*
%LPD*%
D76*
X00091254Y00123622D02*
G03*
X00091254Y00123622I-00000310D01*
G01*
X00004247Y00123622D02*
G03*
X00004247Y00123622I-00000310D01*
G01*
D77*
X00093549Y00124117D02*
X00093903Y00124117D01*
X00093549Y00124117D02*
X00094256Y00124824D01*
X00093408Y00124258D02*
X00094115Y00124965D01*
X00093408Y00124258D02*
X00093408Y00124612D01*
X00001473Y00124258D02*
X00001473Y00124612D01*
X00000766Y00124965D02*
X00001473Y00124258D01*
X00000625Y00124824D02*
X00001332Y00124117D01*
X00000978Y00124117D02*
X00001332Y00124117D01*
D78*
X00011719Y00124529D02*
X00014215Y00124529D01*
X00011687Y00124513D02*
X00014215Y00124513D01*
X00011655Y00124497D02*
X00014215Y00124497D01*
X00011623Y00124481D02*
X00014215Y00124481D01*
X00011607Y00124465D02*
X00014199Y00124465D01*
X00011591Y00124449D02*
X00014199Y00124449D01*
X00011575Y00124433D02*
X00012151Y00124433D01*
X00012439Y00124433D02*
X00013175Y00124433D01*
X00013879Y00124433D02*
X00013911Y00124433D01*
X00013959Y00124433D02*
X00013975Y00124433D01*
X00013991Y00124433D02*
X00014023Y00124433D01*
X00014071Y00124433D02*
X00014183Y00124433D01*
X00011575Y00124417D02*
X00011719Y00124417D01*
X00014071Y00124417D02*
X00014183Y00124417D01*
X00011559Y00124401D02*
X00011703Y00124401D01*
X00014055Y00124401D02*
X00014183Y00124401D01*
X00011559Y00124385D02*
X00011671Y00124385D01*
X00014055Y00124385D02*
X00014167Y00124385D01*
X00011543Y00124369D02*
X00011671Y00124369D01*
X00011815Y00124369D02*
X00011831Y00124369D01*
X00011847Y00124369D02*
X00011879Y00124369D01*
X00013047Y00124369D02*
X00013063Y00124369D01*
X00013895Y00124369D02*
X00013911Y00124369D01*
X00014055Y00124369D02*
X00014167Y00124369D01*
X00011543Y00124353D02*
X00011655Y00124353D01*
X00011799Y00124353D02*
X00012599Y00124353D01*
X00013031Y00124353D02*
X00013927Y00124353D01*
X00014039Y00124353D02*
X00014151Y00124353D01*
X00011527Y00124337D02*
X00011655Y00124337D01*
X00011767Y00124337D02*
X00012615Y00124337D01*
X00012983Y00124337D02*
X00013943Y00124337D01*
X00014039Y00124337D02*
X00014151Y00124337D01*
X00011527Y00124321D02*
X00011639Y00124321D01*
X00011751Y00124321D02*
X00012615Y00124321D01*
X00012983Y00124321D02*
X00013943Y00124321D01*
X00014039Y00124321D02*
X00014151Y00124321D01*
X00011511Y00124305D02*
X00011639Y00124305D01*
X00011735Y00124305D02*
X00012615Y00124305D01*
X00012951Y00124305D02*
X00013943Y00124305D01*
X00014023Y00124305D02*
X00014135Y00124305D01*
X00011511Y00124289D02*
X00011639Y00124289D01*
X00011735Y00124289D02*
X00012599Y00124289D01*
X00012919Y00124289D02*
X00013927Y00124289D01*
X00014023Y00124289D02*
X00014135Y00124289D01*
X00011511Y00124273D02*
X00011623Y00124273D01*
X00011719Y00124273D02*
X00012599Y00124273D01*
X00012903Y00124273D02*
X00013927Y00124273D01*
X00014023Y00124273D02*
X00014135Y00124273D01*
X00011511Y00124257D02*
X00011623Y00124257D01*
X00011719Y00124257D02*
X00012599Y00124257D01*
X00012871Y00124257D02*
X00013927Y00124257D01*
X00014007Y00124257D02*
X00014135Y00124257D01*
X00011495Y00124241D02*
X00011623Y00124241D01*
X00011703Y00124241D02*
X00012583Y00124241D01*
X00012839Y00124241D02*
X00013911Y00124241D01*
X00014007Y00124241D02*
X00014119Y00124241D01*
X00011495Y00124225D02*
X00011607Y00124225D01*
X00011703Y00124225D02*
X00012583Y00124225D01*
X00012823Y00124225D02*
X00013911Y00124225D01*
X00014007Y00124225D02*
X00014119Y00124225D01*
X00011495Y00124209D02*
X00011607Y00124209D01*
X00011703Y00124209D02*
X00012583Y00124209D01*
X00012791Y00124209D02*
X00013895Y00124209D01*
X00013991Y00124209D02*
X00014119Y00124209D01*
X00011479Y00124193D02*
X00011607Y00124193D01*
X00011687Y00124193D02*
X00012567Y00124193D01*
X00012775Y00124193D02*
X00013895Y00124193D01*
X00013991Y00124193D02*
X00014103Y00124193D01*
X00011479Y00124177D02*
X00011591Y00124177D01*
X00011687Y00124177D02*
X00012567Y00124177D01*
X00012743Y00124177D02*
X00013895Y00124177D01*
X00013975Y00124177D02*
X00014103Y00124177D01*
X00011479Y00124161D02*
X00011591Y00124161D01*
X00011671Y00124161D02*
X00012551Y00124161D01*
X00012727Y00124161D02*
X00013879Y00124161D01*
X00013975Y00124161D02*
X00014087Y00124161D01*
X00011463Y00124145D02*
X00011591Y00124145D01*
X00011671Y00124145D02*
X00012551Y00124145D01*
X00012695Y00124145D02*
X00013879Y00124145D01*
X00013975Y00124145D02*
X00014087Y00124145D01*
X00011463Y00124129D02*
X00011575Y00124129D01*
X00011671Y00124129D02*
X00012551Y00124129D01*
X00012663Y00124129D02*
X00013879Y00124129D01*
X00013959Y00124129D02*
X00014087Y00124129D01*
X00011463Y00124113D02*
X00011575Y00124113D01*
X00011655Y00124113D02*
X00012535Y00124113D01*
X00012647Y00124113D02*
X00013863Y00124113D01*
X00013959Y00124113D02*
X00014087Y00124113D01*
X00011447Y00124097D02*
X00011575Y00124097D01*
X00011655Y00124097D02*
X00012535Y00124097D01*
X00012599Y00124097D02*
X00013863Y00124097D01*
X00013959Y00124097D02*
X00014071Y00124097D01*
X00011447Y00124081D02*
X00011559Y00124081D01*
X00011639Y00124081D02*
X00012519Y00124081D01*
X00012583Y00124081D02*
X00013847Y00124081D01*
X00013943Y00124081D02*
X00014071Y00124081D01*
X00011447Y00124065D02*
X00011559Y00124065D01*
X00011639Y00124065D02*
X00012519Y00124065D01*
X00012551Y00124065D02*
X00013847Y00124065D01*
X00013943Y00124065D02*
X00014055Y00124065D01*
X00011431Y00124049D02*
X00011559Y00124049D01*
X00011639Y00124049D02*
X00012519Y00124049D01*
X00012535Y00124049D02*
X00013847Y00124049D01*
X00013943Y00124049D02*
X00014055Y00124049D01*
X00011431Y00124033D02*
X00011543Y00124033D01*
X00011639Y00124033D02*
X00013831Y00124033D01*
X00013927Y00124033D02*
X00014055Y00124033D01*
X00011431Y00124017D02*
X00011543Y00124017D01*
X00011639Y00124017D02*
X00012487Y00124017D01*
X00012535Y00124017D02*
X00013815Y00124017D01*
X00013927Y00124017D02*
X00014039Y00124017D01*
X00011415Y00124001D02*
X00011543Y00124001D01*
X00011943Y00124001D02*
X00012311Y00124001D01*
X00013927Y00124001D02*
X00014039Y00124001D01*
X00011415Y00123985D02*
X00011527Y00123985D01*
X00011943Y00123985D02*
X00012311Y00123985D01*
X00012503Y00123985D02*
X00012519Y00123985D01*
X00013911Y00123985D02*
X00014039Y00123985D01*
X00011415Y00123969D02*
X00011527Y00123969D01*
X00011927Y00123969D02*
X00012295Y00123969D01*
X00012471Y00123969D02*
X00012791Y00123969D01*
X00013191Y00123969D02*
X00013271Y00123969D01*
X00013479Y00123969D02*
X00013799Y00123969D01*
X00013911Y00123969D02*
X00014039Y00123969D01*
X00011399Y00123953D02*
X00011527Y00123953D01*
X00011927Y00123953D02*
X00012295Y00123953D01*
X00012455Y00123953D02*
X00012791Y00123953D01*
X00013127Y00123953D02*
X00013351Y00123953D01*
X00013463Y00123953D02*
X00013799Y00123953D01*
X00013911Y00123953D02*
X00014023Y00123953D01*
X00011399Y00123937D02*
X00011511Y00123937D01*
X00011927Y00123937D02*
X00012295Y00123937D01*
X00012439Y00123937D02*
X00012791Y00123937D01*
X00013063Y00123937D02*
X00013383Y00123937D01*
X00013447Y00123937D02*
X00013799Y00123937D01*
X00013895Y00123937D02*
X00014023Y00123937D01*
X00011383Y00123921D02*
X00011511Y00123921D01*
X00011911Y00123921D02*
X00012279Y00123921D01*
X00012439Y00123921D02*
X00012791Y00123921D01*
X00013031Y00123921D02*
X00013415Y00123921D01*
X00013447Y00123921D02*
X00013799Y00123921D01*
X00013895Y00123921D02*
X00014007Y00123921D01*
X00011383Y00123905D02*
X00011495Y00123905D01*
X00011911Y00123905D02*
X00012279Y00123905D01*
X00012439Y00123905D02*
X00012775Y00123905D01*
X00012999Y00123905D02*
X00013799Y00123905D01*
X00013895Y00123905D02*
X00014007Y00123905D01*
X00011383Y00123889D02*
X00011495Y00123889D01*
X00011911Y00123889D02*
X00012263Y00123889D01*
X00012423Y00123889D02*
X00012775Y00123889D01*
X00012983Y00123889D02*
X00013783Y00123889D01*
X00013879Y00123889D02*
X00014007Y00123889D01*
X00011383Y00123873D02*
X00011495Y00123873D01*
X00011895Y00123873D02*
X00012263Y00123873D01*
X00012423Y00123873D02*
X00012775Y00123873D01*
X00012967Y00123873D02*
X00013783Y00123873D01*
X00013879Y00123873D02*
X00013991Y00123873D01*
X00011367Y00123857D02*
X00011495Y00123857D01*
X00011895Y00123857D02*
X00012263Y00123857D01*
X00012407Y00123857D02*
X00012775Y00123857D01*
X00012935Y00123857D02*
X00013767Y00123857D01*
X00013879Y00123857D02*
X00013991Y00123857D01*
X00011367Y00123841D02*
X00011479Y00123841D01*
X00011895Y00123841D02*
X00012247Y00123841D01*
X00012407Y00123841D02*
X00012759Y00123841D01*
X00012919Y00123841D02*
X00013767Y00123841D01*
X00013863Y00123841D02*
X00013975Y00123841D01*
X00011351Y00123825D02*
X00011479Y00123825D01*
X00011879Y00123825D02*
X00012247Y00123825D01*
X00012407Y00123825D02*
X00012759Y00123825D01*
X00012903Y00123825D02*
X00013271Y00123825D01*
X00013351Y00123825D02*
X00013767Y00123825D01*
X00013863Y00123825D02*
X00013975Y00123825D01*
X00011351Y00123809D02*
X00011479Y00123809D01*
X00011879Y00123809D02*
X00012247Y00123809D01*
X00012391Y00123809D02*
X00012743Y00123809D01*
X00012903Y00123809D02*
X00013255Y00123809D01*
X00013367Y00123809D02*
X00013751Y00123809D01*
X00013847Y00123809D02*
X00013975Y00123809D01*
X00011351Y00123793D02*
X00011463Y00123793D01*
X00011879Y00123793D02*
X00012231Y00123793D01*
X00012391Y00123793D02*
X00012743Y00123793D01*
X00012887Y00123793D02*
X00013239Y00123793D01*
X00013367Y00123793D02*
X00013751Y00123793D01*
X00013847Y00123793D02*
X00013959Y00123793D01*
X00011351Y00123777D02*
X00011479Y00123777D01*
X00011863Y00123777D02*
X00012231Y00123777D01*
X00012391Y00123777D02*
X00012743Y00123777D01*
X00012871Y00123777D02*
X00013239Y00123777D01*
X00013367Y00123777D02*
X00013751Y00123777D01*
X00013847Y00123777D02*
X00013959Y00123777D01*
X00011335Y00123761D02*
X00011463Y00123761D01*
X00011863Y00123761D02*
X00012215Y00123761D01*
X00012375Y00123761D02*
X00012727Y00123761D01*
X00012855Y00123761D02*
X00013239Y00123761D01*
X00013383Y00123761D02*
X00013735Y00123761D01*
X00013831Y00123761D02*
X00013943Y00123761D01*
X00011335Y00123745D02*
X00011447Y00123745D01*
X00011863Y00123745D02*
X00012215Y00123745D01*
X00012375Y00123745D02*
X00012727Y00123745D01*
X00012855Y00123745D02*
X00013239Y00123745D01*
X00013383Y00123745D02*
X00013735Y00123745D01*
X00013831Y00123745D02*
X00013943Y00123745D01*
X00011319Y00123729D02*
X00011447Y00123729D01*
X00011847Y00123729D02*
X00012215Y00123729D01*
X00012375Y00123729D02*
X00012727Y00123729D01*
X00012839Y00123729D02*
X00013223Y00123729D01*
X00013383Y00123729D02*
X00013735Y00123729D01*
X00013831Y00123729D02*
X00013943Y00123729D01*
X00011319Y00123713D02*
X00011447Y00123713D01*
X00011847Y00123713D02*
X00012199Y00123713D01*
X00012359Y00123713D02*
X00012711Y00123713D01*
X00012839Y00123713D02*
X00013223Y00123713D01*
X00013383Y00123713D02*
X00013719Y00123713D01*
X00013815Y00123713D02*
X00013943Y00123713D01*
X00011319Y00123697D02*
X00011431Y00123697D01*
X00011831Y00123697D02*
X00012199Y00123697D01*
X00012359Y00123697D02*
X00012711Y00123697D01*
X00012823Y00123697D02*
X00013207Y00123697D01*
X00013367Y00123697D02*
X00013719Y00123697D01*
X00013815Y00123697D02*
X00013927Y00123697D01*
X00011303Y00123681D02*
X00011431Y00123681D01*
X00011831Y00123681D02*
X00012199Y00123681D01*
X00012359Y00123681D02*
X00012711Y00123681D01*
X00012823Y00123681D02*
X00013207Y00123681D01*
X00013367Y00123681D02*
X00013703Y00123681D01*
X00013815Y00123681D02*
X00013927Y00123681D01*
X00011303Y00123665D02*
X00011431Y00123665D01*
X00011831Y00123665D02*
X00012183Y00123665D01*
X00012343Y00123665D02*
X00012695Y00123665D01*
X00012823Y00123665D02*
X00013191Y00123665D01*
X00013367Y00123665D02*
X00013703Y00123665D01*
X00013799Y00123665D02*
X00013927Y00123665D01*
X00011303Y00123649D02*
X00011415Y00123649D01*
X00011815Y00123649D02*
X00012183Y00123649D01*
X00012343Y00123649D02*
X00012695Y00123649D01*
X00012807Y00123649D02*
X00013191Y00123649D01*
X00013351Y00123649D02*
X00013703Y00123649D01*
X00013799Y00123649D02*
X00013911Y00123649D01*
X00011287Y00123633D02*
X00011415Y00123633D01*
X00011815Y00123633D02*
X00012167Y00123633D01*
X00012343Y00123633D02*
X00012679Y00123633D01*
X00012807Y00123633D02*
X00013191Y00123633D01*
X00013351Y00123633D02*
X00013703Y00123633D01*
X00013799Y00123633D02*
X00013911Y00123633D01*
X00011287Y00123617D02*
X00011415Y00123617D01*
X00011815Y00123617D02*
X00012167Y00123617D01*
X00012327Y00123617D02*
X00012679Y00123617D01*
X00012807Y00123617D02*
X00013191Y00123617D01*
X00013351Y00123617D02*
X00013687Y00123617D01*
X00013783Y00123617D02*
X00013911Y00123617D01*
X00011287Y00123601D02*
X00011399Y00123601D01*
X00011799Y00123601D02*
X00012167Y00123601D01*
X00012327Y00123601D02*
X00012679Y00123601D01*
X00012791Y00123601D02*
X00013175Y00123601D01*
X00013335Y00123601D02*
X00013687Y00123601D01*
X00013783Y00123601D02*
X00013895Y00123601D01*
X00011271Y00123585D02*
X00011399Y00123585D01*
X00011799Y00123585D02*
X00012151Y00123585D01*
X00012311Y00123585D02*
X00012663Y00123585D01*
X00012791Y00123585D02*
X00013175Y00123585D01*
X00013335Y00123585D02*
X00013671Y00123585D01*
X00013783Y00123585D02*
X00013895Y00123585D01*
X00011271Y00123569D02*
X00011399Y00123569D01*
X00011799Y00123569D02*
X00012151Y00123569D01*
X00012311Y00123569D02*
X00012663Y00123569D01*
X00012791Y00123569D02*
X00013159Y00123569D01*
X00013319Y00123569D02*
X00013671Y00123569D01*
X00013767Y00123569D02*
X00013895Y00123569D01*
X00011255Y00123553D02*
X00011383Y00123553D01*
X00011783Y00123553D02*
X00012151Y00123553D01*
X00012311Y00123553D02*
X00012647Y00123553D01*
X00012791Y00123553D02*
X00013159Y00123553D01*
X00013319Y00123553D02*
X00013671Y00123553D01*
X00013767Y00123553D02*
X00013879Y00123553D01*
X00011255Y00123537D02*
X00011383Y00123537D01*
X00011783Y00123537D02*
X00012135Y00123537D01*
X00012295Y00123537D02*
X00012647Y00123537D01*
X00012791Y00123537D02*
X00013159Y00123537D01*
X00013319Y00123537D02*
X00013655Y00123537D01*
X00013751Y00123537D02*
X00013879Y00123537D01*
X00011255Y00123521D02*
X00011367Y00123521D01*
X00011767Y00123521D02*
X00012135Y00123521D01*
X00012295Y00123521D02*
X00012647Y00123521D01*
X00012791Y00123521D02*
X00013159Y00123521D01*
X00013303Y00123521D02*
X00013655Y00123521D01*
X00013751Y00123521D02*
X00013879Y00123521D01*
X00011255Y00123505D02*
X00011367Y00123505D01*
X00011767Y00123505D02*
X00012135Y00123505D01*
X00012279Y00123505D02*
X00012631Y00123505D01*
X00012791Y00123505D02*
X00013143Y00123505D01*
X00013303Y00123505D02*
X00013639Y00123505D01*
X00013751Y00123505D02*
X00013863Y00123505D01*
X00011239Y00123489D02*
X00011367Y00123489D01*
X00011767Y00123489D02*
X00012119Y00123489D01*
X00012279Y00123489D02*
X00012631Y00123489D01*
X00012791Y00123489D02*
X00013143Y00123489D01*
X00013303Y00123489D02*
X00013639Y00123489D01*
X00013735Y00123489D02*
X00013863Y00123489D01*
X00011239Y00123473D02*
X00011351Y00123473D01*
X00011751Y00123473D02*
X00012119Y00123473D01*
X00012279Y00123473D02*
X00012631Y00123473D01*
X00012807Y00123473D02*
X00013159Y00123473D01*
X00013287Y00123473D02*
X00013639Y00123473D01*
X00013735Y00123473D02*
X00013847Y00123473D01*
X00011223Y00123457D02*
X00011351Y00123457D01*
X00011751Y00123457D02*
X00012119Y00123457D01*
X00012263Y00123457D02*
X00012615Y00123457D01*
X00012807Y00123457D02*
X00013159Y00123457D01*
X00013271Y00123457D02*
X00013623Y00123457D01*
X00013735Y00123457D02*
X00013847Y00123457D01*
X00011223Y00123441D02*
X00011351Y00123441D01*
X00011751Y00123441D02*
X00012103Y00123441D01*
X00012263Y00123441D02*
X00012615Y00123441D01*
X00012807Y00123441D02*
X00013191Y00123441D01*
X00013255Y00123441D02*
X00013623Y00123441D01*
X00013719Y00123441D02*
X00013847Y00123441D01*
X00011223Y00123425D02*
X00011335Y00123425D01*
X00011735Y00123425D02*
X00012103Y00123425D01*
X00012263Y00123425D02*
X00012615Y00123425D01*
X00012823Y00123425D02*
X00013623Y00123425D01*
X00013719Y00123425D02*
X00013831Y00123425D01*
X00011223Y00123409D02*
X00011335Y00123409D01*
X00011735Y00123409D02*
X00012103Y00123409D01*
X00012247Y00123409D02*
X00012599Y00123409D01*
X00012823Y00123409D02*
X00013607Y00123409D01*
X00013719Y00123409D02*
X00013831Y00123409D01*
X00011207Y00123393D02*
X00011335Y00123393D01*
X00011735Y00123393D02*
X00012087Y00123393D01*
X00012247Y00123393D02*
X00012599Y00123393D01*
X00012839Y00123393D02*
X00013607Y00123393D01*
X00013703Y00123393D02*
X00013831Y00123393D01*
X00011207Y00123377D02*
X00011319Y00123377D01*
X00011719Y00123377D02*
X00012087Y00123377D01*
X00012247Y00123377D02*
X00012599Y00123377D01*
X00012839Y00123377D02*
X00013607Y00123377D01*
X00013703Y00123377D02*
X00013815Y00123377D01*
X00011207Y00123361D02*
X00011319Y00123361D01*
X00011719Y00123361D02*
X00012071Y00123361D01*
X00012231Y00123361D02*
X00012583Y00123361D01*
X00012855Y00123361D02*
X00013591Y00123361D01*
X00013703Y00123361D02*
X00013815Y00123361D01*
X00011191Y00123345D02*
X00011303Y00123345D01*
X00011703Y00123345D02*
X00012071Y00123345D01*
X00012231Y00123345D02*
X00012567Y00123345D01*
X00012871Y00123345D02*
X00013575Y00123345D01*
X00013687Y00123345D02*
X00013799Y00123345D01*
X00011191Y00123329D02*
X00011303Y00123329D01*
X00011703Y00123329D02*
X00012055Y00123329D01*
X00012215Y00123329D02*
X00012551Y00123329D01*
X00012887Y00123329D02*
X00013575Y00123329D01*
X00013687Y00123329D02*
X00013799Y00123329D01*
X00011175Y00123313D02*
X00011303Y00123313D01*
X00011703Y00123313D02*
X00012039Y00123313D01*
X00012215Y00123313D02*
X00012551Y00123313D01*
X00012903Y00123313D02*
X00013543Y00123313D01*
X00013687Y00123313D02*
X00013799Y00123313D01*
X00011175Y00123297D02*
X00011287Y00123297D01*
X00011687Y00123297D02*
X00012023Y00123297D01*
X00012215Y00123297D02*
X00012519Y00123297D01*
X00012919Y00123297D02*
X00013527Y00123297D01*
X00013671Y00123297D02*
X00013799Y00123297D01*
X00011175Y00123281D02*
X00011287Y00123281D01*
X00011687Y00123281D02*
X00011991Y00123281D01*
X00012199Y00123281D02*
X00012487Y00123281D01*
X00012951Y00123281D02*
X00013191Y00123281D01*
X00013207Y00123281D02*
X00013495Y00123281D01*
X00013671Y00123281D02*
X00013783Y00123281D01*
X00011159Y00123265D02*
X00011287Y00123265D01*
X00011703Y00123265D02*
X00011911Y00123265D01*
X00012215Y00123265D02*
X00012439Y00123265D01*
X00012999Y00123265D02*
X00013127Y00123265D01*
X00013223Y00123265D02*
X00013431Y00123265D01*
X00013671Y00123265D02*
X00013783Y00123265D01*
X00011159Y00123249D02*
X00011287Y00123249D01*
X00013655Y00123249D02*
X00013767Y00123249D01*
X00011159Y00123233D02*
X00011271Y00123233D01*
X00013655Y00123233D02*
X00013767Y00123233D01*
X00011143Y00123217D02*
X00011271Y00123217D01*
X00011335Y00123217D02*
X00013511Y00123217D01*
X00013655Y00123217D02*
X00013767Y00123217D01*
X00011143Y00123201D02*
X00011255Y00123201D01*
X00011335Y00123201D02*
X00013527Y00123201D01*
X00013639Y00123201D02*
X00013767Y00123201D01*
X00011143Y00123185D02*
X00011255Y00123185D01*
X00011319Y00123185D02*
X00013527Y00123185D01*
X00013639Y00123185D02*
X00013751Y00123185D01*
X00011127Y00123169D02*
X00011239Y00123169D01*
X00011319Y00123169D02*
X00013527Y00123169D01*
X00013623Y00123169D02*
X00013751Y00123169D01*
X00011127Y00123153D02*
X00011239Y00123153D01*
X00011303Y00123153D02*
X00013511Y00123153D01*
X00013623Y00123153D02*
X00013735Y00123153D01*
X00011127Y00123137D02*
X00011239Y00123137D01*
X00011303Y00123137D02*
X00013511Y00123137D01*
X00013623Y00123137D02*
X00013735Y00123137D01*
X00011111Y00123121D02*
X00011223Y00123121D01*
X00011303Y00123121D02*
X00013511Y00123121D01*
X00013623Y00123121D02*
X00013735Y00123121D01*
X00011111Y00123105D02*
X00011223Y00123105D01*
X00011287Y00123105D02*
X00013495Y00123105D01*
X00013607Y00123105D02*
X00013719Y00123105D01*
X00011111Y00123089D02*
X00011223Y00123089D01*
X00011287Y00123089D02*
X00013495Y00123089D01*
X00013607Y00123089D02*
X00013719Y00123089D01*
X00011095Y00123073D02*
X00011207Y00123073D01*
X00011287Y00123073D02*
X00013479Y00123073D01*
X00013591Y00123073D02*
X00013703Y00123073D01*
X00011095Y00123057D02*
X00011207Y00123057D01*
X00011271Y00123057D02*
X00013479Y00123057D01*
X00013591Y00123057D02*
X00013703Y00123057D01*
X00011079Y00123041D02*
X00011207Y00123041D01*
X00011271Y00123041D02*
X00013479Y00123041D01*
X00013591Y00123041D02*
X00013703Y00123041D01*
X00011079Y00123025D02*
X00011191Y00123025D01*
X00011255Y00123025D02*
X00013463Y00123025D01*
X00013575Y00123025D02*
X00013703Y00123025D01*
X00011079Y00123009D02*
X00011191Y00123009D01*
X00011255Y00123009D02*
X00013463Y00123009D01*
X00013575Y00123009D02*
X00013687Y00123009D01*
X00011063Y00122993D02*
X00011191Y00122993D01*
X00011255Y00122993D02*
X00013447Y00122993D01*
X00013575Y00122993D02*
X00013687Y00122993D01*
X00011063Y00122977D02*
X00011175Y00122977D01*
X00011239Y00122977D02*
X00013447Y00122977D01*
X00013559Y00122977D02*
X00013687Y00122977D01*
X00011063Y00122961D02*
X00011175Y00122961D01*
X00011239Y00122961D02*
X00013431Y00122961D01*
X00013559Y00122961D02*
X00013671Y00122961D01*
X00011063Y00122945D02*
X00011175Y00122945D01*
X00011239Y00122945D02*
X00013431Y00122945D01*
X00013559Y00122945D02*
X00013671Y00122945D01*
X00011047Y00122929D02*
X00011159Y00122929D01*
X00011223Y00122929D02*
X00013415Y00122929D01*
X00013543Y00122929D02*
X00013671Y00122929D01*
X00011047Y00122913D02*
X00011159Y00122913D01*
X00011223Y00122913D02*
X00013399Y00122913D01*
X00013543Y00122913D02*
X00013655Y00122913D01*
X00011031Y00122897D02*
X00011159Y00122897D01*
X00011223Y00122897D02*
X00013367Y00122897D01*
X00013527Y00122897D02*
X00013655Y00122897D01*
X00011031Y00122881D02*
X00011143Y00122881D01*
X00011223Y00122881D02*
X00013319Y00122881D01*
X00013527Y00122881D02*
X00013639Y00122881D01*
X00011031Y00122865D02*
X00011143Y00122865D01*
X00011223Y00122865D02*
X00013239Y00122865D01*
X00013527Y00122865D02*
X00013639Y00122865D01*
X00011015Y00122849D02*
X00011143Y00122849D01*
X00013511Y00122849D02*
X00013639Y00122849D01*
X00011015Y00122833D02*
X00011127Y00122833D01*
X00013495Y00122833D02*
X00013623Y00122833D01*
X00011015Y00122817D02*
X00011127Y00122817D01*
X00013479Y00122817D02*
X00013623Y00122817D01*
X00010999Y00122801D02*
X00011127Y00122801D01*
X00013431Y00122801D02*
X00013607Y00122801D01*
X00010999Y00122785D02*
X00013591Y00122785D01*
X00010999Y00122769D02*
X00013575Y00122769D01*
X00010983Y00122753D02*
X00013559Y00122753D01*
X00010983Y00122737D02*
X00013543Y00122737D01*
X00010983Y00122721D02*
X00013527Y00122721D01*
X00010983Y00122705D02*
X00013495Y00122705D01*
X00010983Y00122689D02*
X00013463Y00122689D01*
X00081247Y00122712D02*
X00083727Y00122712D01*
X00081247Y00122728D02*
X00083759Y00122728D01*
X00081247Y00122744D02*
X00083791Y00122744D01*
X00081247Y00122760D02*
X00083807Y00122760D01*
X00081247Y00122776D02*
X00083823Y00122776D01*
X00081263Y00122792D02*
X00083839Y00122792D01*
X00081263Y00122808D02*
X00083855Y00122808D01*
X00083695Y00122824D02*
X00083871Y00122824D01*
X00081263Y00122824D02*
X00081391Y00122824D01*
X00083743Y00122840D02*
X00083887Y00122840D01*
X00081279Y00122840D02*
X00081391Y00122840D01*
X00083759Y00122856D02*
X00083887Y00122856D01*
X00081279Y00122856D02*
X00081391Y00122856D01*
X00083775Y00122872D02*
X00083903Y00122872D01*
X00081279Y00122872D02*
X00081407Y00122872D01*
X00083791Y00122888D02*
X00083903Y00122888D01*
X00081487Y00122888D02*
X00083503Y00122888D01*
X00081295Y00122888D02*
X00081407Y00122888D01*
X00083791Y00122904D02*
X00083903Y00122904D01*
X00081487Y00122904D02*
X00083583Y00122904D01*
X00081295Y00122904D02*
X00081407Y00122904D01*
X00083791Y00122920D02*
X00083919Y00122920D01*
X00081487Y00122920D02*
X00083631Y00122920D01*
X00081295Y00122920D02*
X00081423Y00122920D01*
X00083807Y00122936D02*
X00083919Y00122936D01*
X00081487Y00122936D02*
X00083663Y00122936D01*
X00081311Y00122936D02*
X00081423Y00122936D01*
X00083807Y00122952D02*
X00083935Y00122952D01*
X00081487Y00122952D02*
X00083679Y00122952D01*
X00081311Y00122952D02*
X00081423Y00122952D01*
X00083823Y00122968D02*
X00083935Y00122968D01*
X00081503Y00122968D02*
X00083695Y00122968D01*
X00081327Y00122968D02*
X00081439Y00122968D01*
X00083823Y00122984D02*
X00083935Y00122984D01*
X00081503Y00122984D02*
X00083695Y00122984D01*
X00081327Y00122984D02*
X00081439Y00122984D01*
X00083823Y00123000D02*
X00083951Y00123000D01*
X00081503Y00123000D02*
X00083711Y00123000D01*
X00081327Y00123000D02*
X00081439Y00123000D01*
X00083839Y00123016D02*
X00083951Y00123016D01*
X00081519Y00123016D02*
X00083711Y00123016D01*
X00081327Y00123016D02*
X00081455Y00123016D01*
X00083839Y00123032D02*
X00083951Y00123032D01*
X00081519Y00123032D02*
X00083727Y00123032D01*
X00081343Y00123032D02*
X00081455Y00123032D01*
X00083839Y00123048D02*
X00083967Y00123048D01*
X00081519Y00123048D02*
X00083727Y00123048D01*
X00081343Y00123048D02*
X00081455Y00123048D01*
X00083855Y00123064D02*
X00083967Y00123064D01*
X00081535Y00123064D02*
X00083743Y00123064D01*
X00081343Y00123064D02*
X00081471Y00123064D01*
X00083855Y00123080D02*
X00083967Y00123080D01*
X00081535Y00123080D02*
X00083743Y00123080D01*
X00081359Y00123080D02*
X00081471Y00123080D01*
X00083855Y00123096D02*
X00083967Y00123096D01*
X00081551Y00123096D02*
X00083743Y00123096D01*
X00081359Y00123096D02*
X00081471Y00123096D01*
X00083871Y00123112D02*
X00083983Y00123112D01*
X00081551Y00123112D02*
X00083759Y00123112D01*
X00081375Y00123112D02*
X00081487Y00123112D01*
X00083871Y00123128D02*
X00083983Y00123128D01*
X00081551Y00123128D02*
X00083759Y00123128D01*
X00081375Y00123128D02*
X00081487Y00123128D01*
X00083887Y00123144D02*
X00083999Y00123144D01*
X00081567Y00123144D02*
X00083775Y00123144D01*
X00081375Y00123144D02*
X00081487Y00123144D01*
X00083887Y00123160D02*
X00083999Y00123160D01*
X00081567Y00123160D02*
X00083775Y00123160D01*
X00081391Y00123160D02*
X00081503Y00123160D01*
X00083887Y00123176D02*
X00083999Y00123176D01*
X00081567Y00123176D02*
X00083775Y00123176D01*
X00081391Y00123176D02*
X00081503Y00123176D01*
X00083887Y00123192D02*
X00084015Y00123192D01*
X00081583Y00123192D02*
X00083791Y00123192D01*
X00081391Y00123192D02*
X00081503Y00123192D01*
X00083903Y00123208D02*
X00084015Y00123208D01*
X00081583Y00123208D02*
X00083791Y00123208D01*
X00081407Y00123208D02*
X00081519Y00123208D01*
X00083903Y00123224D02*
X00084031Y00123224D01*
X00081599Y00123224D02*
X00083791Y00123224D01*
X00081407Y00123224D02*
X00081519Y00123224D01*
X00083919Y00123240D02*
X00084031Y00123240D01*
X00081599Y00123240D02*
X00083775Y00123240D01*
X00081407Y00123240D02*
X00081535Y00123240D01*
X00083919Y00123256D02*
X00084031Y00123256D01*
X00081423Y00123256D02*
X00081535Y00123256D01*
X00083919Y00123272D02*
X00084031Y00123272D01*
X00081423Y00123272D02*
X00081551Y00123272D01*
X00083935Y00123288D02*
X00084047Y00123288D01*
X00083487Y00123288D02*
X00083695Y00123288D01*
X00083263Y00123288D02*
X00083391Y00123288D01*
X00082479Y00123288D02*
X00082703Y00123288D01*
X00081967Y00123288D02*
X00082175Y00123288D01*
X00081423Y00123288D02*
X00081551Y00123288D01*
X00083935Y00123304D02*
X00084047Y00123304D01*
X00083471Y00123304D02*
X00083759Y00123304D01*
X00083215Y00123304D02*
X00083455Y00123304D01*
X00082463Y00123304D02*
X00082751Y00123304D01*
X00081951Y00123304D02*
X00082255Y00123304D01*
X00081439Y00123304D02*
X00081551Y00123304D01*
X00083935Y00123320D02*
X00084063Y00123320D01*
X00083183Y00123320D02*
X00083791Y00123320D01*
X00082479Y00123320D02*
X00082783Y00123320D01*
X00081951Y00123320D02*
X00082287Y00123320D01*
X00081439Y00123320D02*
X00081551Y00123320D01*
X00083951Y00123336D02*
X00084063Y00123336D01*
X00083167Y00123336D02*
X00083807Y00123336D01*
X00082479Y00123336D02*
X00082815Y00123336D01*
X00081967Y00123336D02*
X00082303Y00123336D01*
X00081439Y00123336D02*
X00081567Y00123336D01*
X00083951Y00123352D02*
X00084063Y00123352D01*
X00083151Y00123352D02*
X00083839Y00123352D01*
X00082479Y00123352D02*
X00082815Y00123352D01*
X00081967Y00123352D02*
X00082319Y00123352D01*
X00081455Y00123352D02*
X00081567Y00123352D01*
X00083951Y00123368D02*
X00084063Y00123368D01*
X00083135Y00123368D02*
X00083839Y00123368D01*
X00082495Y00123368D02*
X00082831Y00123368D01*
X00081967Y00123368D02*
X00082335Y00123368D01*
X00081455Y00123368D02*
X00081567Y00123368D01*
X00083967Y00123384D02*
X00084079Y00123384D01*
X00083119Y00123384D02*
X00083855Y00123384D01*
X00082495Y00123384D02*
X00082847Y00123384D01*
X00081983Y00123384D02*
X00082335Y00123384D01*
X00081471Y00123384D02*
X00081583Y00123384D01*
X00083967Y00123400D02*
X00084079Y00123400D01*
X00083103Y00123400D02*
X00083871Y00123400D01*
X00082511Y00123400D02*
X00082863Y00123400D01*
X00081983Y00123400D02*
X00082351Y00123400D01*
X00081471Y00123400D02*
X00081583Y00123400D01*
X00083967Y00123416D02*
X00084095Y00123416D01*
X00083103Y00123416D02*
X00083871Y00123416D01*
X00082511Y00123416D02*
X00082863Y00123416D01*
X00081999Y00123416D02*
X00082351Y00123416D01*
X00081471Y00123416D02*
X00081599Y00123416D01*
X00083983Y00123432D02*
X00084095Y00123432D01*
X00083087Y00123432D02*
X00083871Y00123432D01*
X00082511Y00123432D02*
X00082863Y00123432D01*
X00081999Y00123432D02*
X00082367Y00123432D01*
X00081487Y00123432D02*
X00081599Y00123432D01*
X00083983Y00123448D02*
X00084095Y00123448D01*
X00083087Y00123448D02*
X00083887Y00123448D01*
X00082527Y00123448D02*
X00082879Y00123448D01*
X00081999Y00123448D02*
X00082367Y00123448D01*
X00081487Y00123448D02*
X00081599Y00123448D01*
X00083983Y00123464D02*
X00084111Y00123464D01*
X00083519Y00123464D02*
X00083887Y00123464D01*
X00083071Y00123464D02*
X00083455Y00123464D01*
X00082527Y00123464D02*
X00082879Y00123464D01*
X00082015Y00123464D02*
X00082367Y00123464D01*
X00081487Y00123464D02*
X00081615Y00123464D01*
X00083999Y00123480D02*
X00084111Y00123480D01*
X00083535Y00123480D02*
X00083887Y00123480D01*
X00083071Y00123480D02*
X00083423Y00123480D01*
X00082527Y00123480D02*
X00082879Y00123480D01*
X00082015Y00123480D02*
X00082383Y00123480D01*
X00081487Y00123480D02*
X00081615Y00123480D01*
X00083999Y00123496D02*
X00084111Y00123496D01*
X00083551Y00123496D02*
X00083903Y00123496D01*
X00083071Y00123496D02*
X00083423Y00123496D01*
X00082543Y00123496D02*
X00082895Y00123496D01*
X00082015Y00123496D02*
X00082383Y00123496D01*
X00081503Y00123496D02*
X00081615Y00123496D01*
X00083999Y00123512D02*
X00084127Y00123512D01*
X00083567Y00123512D02*
X00083903Y00123512D01*
X00083055Y00123512D02*
X00083407Y00123512D01*
X00082543Y00123512D02*
X00082895Y00123512D01*
X00082031Y00123512D02*
X00082383Y00123512D01*
X00081503Y00123512D02*
X00081631Y00123512D01*
X00084015Y00123528D02*
X00084127Y00123528D01*
X00083567Y00123528D02*
X00083903Y00123528D01*
X00083055Y00123528D02*
X00083407Y00123528D01*
X00082543Y00123528D02*
X00082895Y00123528D01*
X00082031Y00123528D02*
X00082399Y00123528D01*
X00081519Y00123528D02*
X00081631Y00123528D01*
X00084015Y00123544D02*
X00084143Y00123544D01*
X00083567Y00123544D02*
X00083919Y00123544D01*
X00083055Y00123544D02*
X00083423Y00123544D01*
X00082559Y00123544D02*
X00082911Y00123544D01*
X00082031Y00123544D02*
X00082399Y00123544D01*
X00081519Y00123544D02*
X00081631Y00123544D01*
X00084015Y00123560D02*
X00084143Y00123560D01*
X00083583Y00123560D02*
X00083919Y00123560D01*
X00083055Y00123560D02*
X00083423Y00123560D01*
X00082559Y00123560D02*
X00082911Y00123560D01*
X00082047Y00123560D02*
X00082399Y00123560D01*
X00081519Y00123560D02*
X00081647Y00123560D01*
X00084031Y00123576D02*
X00084143Y00123576D01*
X00083583Y00123576D02*
X00083935Y00123576D01*
X00083055Y00123576D02*
X00083423Y00123576D01*
X00082575Y00123576D02*
X00082911Y00123576D01*
X00082047Y00123576D02*
X00082415Y00123576D01*
X00081519Y00123576D02*
X00081647Y00123576D01*
X00084031Y00123592D02*
X00084159Y00123592D01*
X00083583Y00123592D02*
X00083935Y00123592D01*
X00083055Y00123592D02*
X00083423Y00123592D01*
X00082575Y00123592D02*
X00082927Y00123592D01*
X00082063Y00123592D02*
X00082415Y00123592D01*
X00081535Y00123592D02*
X00081663Y00123592D01*
X00084047Y00123608D02*
X00084159Y00123608D01*
X00083599Y00123608D02*
X00083935Y00123608D01*
X00083055Y00123608D02*
X00083439Y00123608D01*
X00082575Y00123608D02*
X00082927Y00123608D01*
X00082063Y00123608D02*
X00082415Y00123608D01*
X00081535Y00123608D02*
X00081663Y00123608D01*
X00084047Y00123624D02*
X00084159Y00123624D01*
X00083599Y00123624D02*
X00083951Y00123624D01*
X00083055Y00123624D02*
X00083439Y00123624D01*
X00082591Y00123624D02*
X00082943Y00123624D01*
X00082063Y00123624D02*
X00082431Y00123624D01*
X00081551Y00123624D02*
X00081663Y00123624D01*
X00084047Y00123640D02*
X00084175Y00123640D01*
X00083615Y00123640D02*
X00083951Y00123640D01*
X00083071Y00123640D02*
X00083455Y00123640D01*
X00082591Y00123640D02*
X00082943Y00123640D01*
X00082079Y00123640D02*
X00082431Y00123640D01*
X00081551Y00123640D02*
X00081679Y00123640D01*
X00084063Y00123656D02*
X00084175Y00123656D01*
X00083615Y00123656D02*
X00083967Y00123656D01*
X00083071Y00123656D02*
X00083455Y00123656D01*
X00082607Y00123656D02*
X00082943Y00123656D01*
X00082079Y00123656D02*
X00082431Y00123656D01*
X00081551Y00123656D02*
X00081679Y00123656D01*
X00084063Y00123672D02*
X00084175Y00123672D01*
X00083615Y00123672D02*
X00083967Y00123672D01*
X00083071Y00123672D02*
X00083455Y00123672D01*
X00082607Y00123672D02*
X00082959Y00123672D01*
X00082079Y00123672D02*
X00082447Y00123672D01*
X00081567Y00123672D02*
X00081679Y00123672D01*
X00084063Y00123688D02*
X00084191Y00123688D01*
X00083631Y00123688D02*
X00083967Y00123688D01*
X00083087Y00123688D02*
X00083455Y00123688D01*
X00082607Y00123688D02*
X00082959Y00123688D01*
X00082095Y00123688D02*
X00082447Y00123688D01*
X00081567Y00123688D02*
X00081695Y00123688D01*
X00084079Y00123704D02*
X00084191Y00123704D01*
X00083631Y00123704D02*
X00083967Y00123704D01*
X00083087Y00123704D02*
X00083471Y00123704D01*
X00082623Y00123704D02*
X00082975Y00123704D01*
X00082095Y00123704D02*
X00082463Y00123704D01*
X00081567Y00123704D02*
X00081695Y00123704D01*
X00084079Y00123720D02*
X00084191Y00123720D01*
X00083631Y00123720D02*
X00083983Y00123720D01*
X00083087Y00123720D02*
X00083471Y00123720D01*
X00082623Y00123720D02*
X00082975Y00123720D01*
X00082095Y00123720D02*
X00082463Y00123720D01*
X00081583Y00123720D02*
X00081695Y00123720D01*
X00084079Y00123736D02*
X00084207Y00123736D01*
X00083647Y00123736D02*
X00083983Y00123736D01*
X00083103Y00123736D02*
X00083487Y00123736D01*
X00082623Y00123736D02*
X00082975Y00123736D01*
X00082111Y00123736D02*
X00082463Y00123736D01*
X00081583Y00123736D02*
X00081711Y00123736D01*
X00084095Y00123752D02*
X00084207Y00123752D01*
X00083647Y00123752D02*
X00083999Y00123752D01*
X00083103Y00123752D02*
X00083487Y00123752D01*
X00082639Y00123752D02*
X00082991Y00123752D01*
X00082111Y00123752D02*
X00082479Y00123752D01*
X00081583Y00123752D02*
X00081711Y00123752D01*
X00084095Y00123768D02*
X00084207Y00123768D01*
X00083647Y00123768D02*
X00083999Y00123768D01*
X00083119Y00123768D02*
X00083503Y00123768D01*
X00082639Y00123768D02*
X00082991Y00123768D01*
X00082127Y00123768D02*
X00082479Y00123768D01*
X00081599Y00123768D02*
X00081711Y00123768D01*
X00084095Y00123784D02*
X00084207Y00123784D01*
X00083647Y00123784D02*
X00083999Y00123784D01*
X00083119Y00123784D02*
X00083503Y00123784D01*
X00082639Y00123784D02*
X00082991Y00123784D01*
X00082127Y00123784D02*
X00082479Y00123784D01*
X00081599Y00123784D02*
X00081727Y00123784D01*
X00084111Y00123800D02*
X00084223Y00123800D01*
X00083631Y00123800D02*
X00084015Y00123800D01*
X00083135Y00123800D02*
X00083503Y00123800D01*
X00082655Y00123800D02*
X00083007Y00123800D01*
X00082127Y00123800D02*
X00082495Y00123800D01*
X00081615Y00123800D02*
X00081743Y00123800D01*
X00084111Y00123816D02*
X00084223Y00123816D01*
X00083631Y00123816D02*
X00084015Y00123816D01*
X00083151Y00123816D02*
X00083503Y00123816D01*
X00082655Y00123816D02*
X00083007Y00123816D01*
X00082143Y00123816D02*
X00082495Y00123816D01*
X00081615Y00123816D02*
X00081727Y00123816D01*
X00084111Y00123832D02*
X00084239Y00123832D01*
X00083631Y00123832D02*
X00084015Y00123832D01*
X00083167Y00123832D02*
X00083519Y00123832D01*
X00082655Y00123832D02*
X00083007Y00123832D01*
X00082143Y00123832D02*
X00082511Y00123832D01*
X00081615Y00123832D02*
X00081743Y00123832D01*
X00084127Y00123848D02*
X00084239Y00123848D01*
X00083615Y00123848D02*
X00084031Y00123848D01*
X00083167Y00123848D02*
X00083535Y00123848D01*
X00082671Y00123848D02*
X00083023Y00123848D01*
X00082143Y00123848D02*
X00082511Y00123848D01*
X00081615Y00123848D02*
X00081743Y00123848D01*
X00084127Y00123864D02*
X00084239Y00123864D01*
X00083183Y00123864D02*
X00084031Y00123864D01*
X00082671Y00123864D02*
X00083023Y00123864D01*
X00082159Y00123864D02*
X00082511Y00123864D01*
X00081631Y00123864D02*
X00081743Y00123864D01*
X00084143Y00123880D02*
X00084255Y00123880D01*
X00083199Y00123880D02*
X00084031Y00123880D01*
X00082671Y00123880D02*
X00083039Y00123880D01*
X00082159Y00123880D02*
X00082527Y00123880D01*
X00081631Y00123880D02*
X00081759Y00123880D01*
X00084143Y00123896D02*
X00084255Y00123896D01*
X00083231Y00123896D02*
X00084047Y00123896D01*
X00082687Y00123896D02*
X00083039Y00123896D01*
X00082159Y00123896D02*
X00082527Y00123896D01*
X00081647Y00123896D02*
X00081759Y00123896D01*
X00084143Y00123912D02*
X00084271Y00123912D01*
X00083247Y00123912D02*
X00084047Y00123912D01*
X00082687Y00123912D02*
X00083039Y00123912D01*
X00082175Y00123912D02*
X00082527Y00123912D01*
X00081647Y00123912D02*
X00081759Y00123912D01*
X00084159Y00123928D02*
X00084271Y00123928D01*
X00083263Y00123928D02*
X00084063Y00123928D01*
X00082703Y00123928D02*
X00083039Y00123928D01*
X00082175Y00123928D02*
X00082543Y00123928D01*
X00081647Y00123928D02*
X00081759Y00123928D01*
X00084159Y00123944D02*
X00084271Y00123944D01*
X00083711Y00123944D02*
X00084063Y00123944D01*
X00083295Y00123944D02*
X00083679Y00123944D01*
X00082703Y00123944D02*
X00083055Y00123944D01*
X00082175Y00123944D02*
X00082543Y00123944D01*
X00081647Y00123944D02*
X00081775Y00123944D01*
X00084159Y00123960D02*
X00084287Y00123960D01*
X00083711Y00123960D02*
X00084063Y00123960D01*
X00083327Y00123960D02*
X00083647Y00123960D01*
X00082703Y00123960D02*
X00083055Y00123960D01*
X00082191Y00123960D02*
X00082559Y00123960D01*
X00081663Y00123960D02*
X00081775Y00123960D01*
X00084175Y00123976D02*
X00084287Y00123976D01*
X00083727Y00123976D02*
X00084063Y00123976D01*
X00083391Y00123976D02*
X00083615Y00123976D01*
X00082719Y00123976D02*
X00083055Y00123976D01*
X00082191Y00123976D02*
X00082559Y00123976D01*
X00081663Y00123976D02*
X00081791Y00123976D01*
X00084175Y00123992D02*
X00084303Y00123992D01*
X00083743Y00123992D02*
X00084063Y00123992D01*
X00083455Y00123992D02*
X00083535Y00123992D01*
X00082735Y00123992D02*
X00083055Y00123992D01*
X00082191Y00123992D02*
X00082559Y00123992D01*
X00081679Y00123992D02*
X00081791Y00123992D01*
X00084175Y00124008D02*
X00084303Y00124008D01*
X00082767Y00124008D02*
X00082783Y00124008D01*
X00082207Y00124008D02*
X00082575Y00124008D01*
X00081679Y00124008D02*
X00081791Y00124008D01*
X00084191Y00124024D02*
X00084303Y00124024D01*
X00082207Y00124024D02*
X00082575Y00124024D01*
X00081679Y00124024D02*
X00081807Y00124024D01*
X00084191Y00124040D02*
X00084303Y00124040D01*
X00082799Y00124040D02*
X00084079Y00124040D01*
X00081903Y00124040D02*
X00082751Y00124040D01*
X00081695Y00124040D02*
X00081807Y00124040D01*
X00084191Y00124056D02*
X00084319Y00124056D01*
X00081903Y00124056D02*
X00084095Y00124056D01*
X00081695Y00124056D02*
X00081807Y00124056D01*
X00084207Y00124072D02*
X00084319Y00124072D01*
X00082799Y00124072D02*
X00084111Y00124072D01*
X00081903Y00124072D02*
X00082783Y00124072D01*
X00081695Y00124072D02*
X00081823Y00124072D01*
X00084207Y00124088D02*
X00084319Y00124088D01*
X00082815Y00124088D02*
X00084111Y00124088D01*
X00081903Y00124088D02*
X00082783Y00124088D01*
X00081711Y00124088D02*
X00081823Y00124088D01*
X00084207Y00124104D02*
X00084335Y00124104D01*
X00082847Y00124104D02*
X00084111Y00124104D01*
X00081903Y00124104D02*
X00082783Y00124104D01*
X00081711Y00124104D02*
X00081823Y00124104D01*
X00084223Y00124120D02*
X00084335Y00124120D01*
X00082863Y00124120D02*
X00084127Y00124120D01*
X00081919Y00124120D02*
X00082799Y00124120D01*
X00081711Y00124120D02*
X00081839Y00124120D01*
X00084223Y00124136D02*
X00084351Y00124136D01*
X00082911Y00124136D02*
X00084127Y00124136D01*
X00081919Y00124136D02*
X00082799Y00124136D01*
X00081727Y00124136D02*
X00081839Y00124136D01*
X00084223Y00124152D02*
X00084351Y00124152D01*
X00082927Y00124152D02*
X00084143Y00124152D01*
X00081935Y00124152D02*
X00082815Y00124152D01*
X00081727Y00124152D02*
X00081839Y00124152D01*
X00084239Y00124168D02*
X00084351Y00124168D01*
X00082959Y00124168D02*
X00084143Y00124168D01*
X00081935Y00124168D02*
X00082815Y00124168D01*
X00081727Y00124168D02*
X00081855Y00124168D01*
X00084239Y00124184D02*
X00084351Y00124184D01*
X00082991Y00124184D02*
X00084143Y00124184D01*
X00081935Y00124184D02*
X00082815Y00124184D01*
X00081743Y00124184D02*
X00081855Y00124184D01*
X00084239Y00124200D02*
X00084367Y00124200D01*
X00083007Y00124200D02*
X00084159Y00124200D01*
X00081951Y00124200D02*
X00082831Y00124200D01*
X00081743Y00124200D02*
X00081855Y00124200D01*
X00084255Y00124216D02*
X00084367Y00124216D01*
X00083039Y00124216D02*
X00084159Y00124216D01*
X00081951Y00124216D02*
X00082831Y00124216D01*
X00081743Y00124216D02*
X00081871Y00124216D01*
X00084255Y00124232D02*
X00084383Y00124232D01*
X00083055Y00124232D02*
X00084159Y00124232D01*
X00081967Y00124232D02*
X00082847Y00124232D01*
X00081759Y00124232D02*
X00081871Y00124232D01*
X00084271Y00124248D02*
X00084383Y00124248D01*
X00083087Y00124248D02*
X00084175Y00124248D01*
X00081967Y00124248D02*
X00082847Y00124248D01*
X00081759Y00124248D02*
X00081871Y00124248D01*
X00084271Y00124264D02*
X00084383Y00124264D01*
X00083103Y00124264D02*
X00084175Y00124264D01*
X00081967Y00124264D02*
X00082847Y00124264D01*
X00081759Y00124264D02*
X00081887Y00124264D01*
X00084271Y00124280D02*
X00084399Y00124280D01*
X00083135Y00124280D02*
X00084191Y00124280D01*
X00081983Y00124280D02*
X00082863Y00124280D01*
X00081775Y00124280D02*
X00081887Y00124280D01*
X00084287Y00124296D02*
X00084399Y00124296D01*
X00083167Y00124296D02*
X00084191Y00124296D01*
X00081983Y00124296D02*
X00082863Y00124296D01*
X00081775Y00124296D02*
X00081887Y00124296D01*
X00084287Y00124312D02*
X00084399Y00124312D01*
X00083183Y00124312D02*
X00084191Y00124312D01*
X00081999Y00124312D02*
X00082863Y00124312D01*
X00081775Y00124312D02*
X00081903Y00124312D01*
X00084287Y00124328D02*
X00084399Y00124328D01*
X00083215Y00124328D02*
X00084207Y00124328D01*
X00081999Y00124328D02*
X00082879Y00124328D01*
X00081775Y00124328D02*
X00081903Y00124328D01*
X00084303Y00124344D02*
X00084415Y00124344D01*
X00083247Y00124344D02*
X00084207Y00124344D01*
X00082015Y00124344D02*
X00082879Y00124344D01*
X00081791Y00124344D02*
X00081903Y00124344D01*
X00084303Y00124360D02*
X00084415Y00124360D01*
X00083247Y00124360D02*
X00084207Y00124360D01*
X00082031Y00124360D02*
X00082879Y00124360D01*
X00081791Y00124360D02*
X00081919Y00124360D01*
X00084303Y00124376D02*
X00084415Y00124376D01*
X00083295Y00124376D02*
X00084191Y00124376D01*
X00082063Y00124376D02*
X00082863Y00124376D01*
X00081807Y00124376D02*
X00081919Y00124376D01*
X00084319Y00124392D02*
X00084431Y00124392D01*
X00084159Y00124392D02*
X00084175Y00124392D01*
X00083311Y00124392D02*
X00083327Y00124392D01*
X00082111Y00124392D02*
X00082143Y00124392D01*
X00082079Y00124392D02*
X00082095Y00124392D01*
X00081807Y00124392D02*
X00081935Y00124392D01*
X00084319Y00124408D02*
X00084431Y00124408D01*
X00081823Y00124408D02*
X00081935Y00124408D01*
X00084319Y00124424D02*
X00084447Y00124424D01*
X00081823Y00124424D02*
X00081967Y00124424D01*
X00084335Y00124440D02*
X00084447Y00124440D01*
X00081839Y00124440D02*
X00081983Y00124440D01*
X00084335Y00124456D02*
X00084447Y00124456D01*
X00084255Y00124456D02*
X00084287Y00124456D01*
X00084223Y00124456D02*
X00084239Y00124456D01*
X00084143Y00124456D02*
X00084175Y00124456D01*
X00082703Y00124456D02*
X00083439Y00124456D01*
X00081839Y00124456D02*
X00082415Y00124456D01*
X00081855Y00124472D02*
X00084463Y00124472D01*
X00081871Y00124488D02*
X00084463Y00124488D01*
X00081887Y00124504D02*
X00084479Y00124504D01*
X00081919Y00124520D02*
X00084479Y00124520D01*
X00081951Y00124536D02*
X00084479Y00124536D01*
X00081983Y00124552D02*
X00084479Y00124552D01*
G04 next file*
G04 Layer_Color=65535*
G04 skipping 71
G01*
G75*
G36*
X00090293Y00001148D02*
X00090341Y00001148D01*
X00090341Y00000847D01*
X00090341Y00000848D01*
X00090344Y00000850D01*
X00090348Y00000853D01*
X00090353Y00000857D01*
X00090359Y00000863D01*
X00090367Y00000868D01*
X00090376Y00000874D01*
X00090386Y00000880D01*
X00090386Y00000880D01*
X00090387Y00000881D01*
X00090390Y00000883D01*
X00090396Y00000886D01*
X00090402Y00000889D01*
X00090410Y00000894D01*
X00090418Y00000897D01*
X00090427Y00000901D01*
X00090435Y00000905D01*
X00090435Y00000858D01*
X00090434Y00000858D01*
X00090433Y00000858D01*
X00090431Y00000857D01*
X00090428Y00000855D01*
X00090425Y00000853D01*
X00090421Y00000851D01*
X00090412Y00000846D01*
X00090401Y00000840D01*
X00090389Y00000832D01*
X00090378Y00000823D01*
X00090366Y00000814D01*
X00090366Y00000813D01*
X00090365Y00000813D01*
X00090362Y00000809D01*
X00090357Y00000804D01*
X00090350Y00000798D01*
X00090343Y00000789D01*
X00090336Y00000781D01*
X00090330Y00000771D01*
X00090324Y00000762D01*
X00090293Y00000762D01*
X00090293Y00001148D01*
D02*
G37*
G36*
X00090682Y00000764D02*
X00090671Y00000765D01*
X00090660Y00000766D01*
X00090648Y00000768D01*
X00090639Y00000770D01*
X00090638Y00000770D01*
X00090637Y00000770D01*
X00090636Y00000770D01*
X00090634Y00000771D01*
X00090627Y00000773D01*
X00090620Y00000776D01*
X00090611Y00000779D01*
X00090602Y00000784D01*
X00090592Y00000790D01*
X00090583Y00000797D01*
X00090582Y00000797D01*
X00090582Y00000798D01*
X00090578Y00000802D01*
X00090572Y00000808D01*
X00090566Y00000815D01*
X00090558Y00000825D01*
X00090551Y00000836D01*
X00090544Y00000848D01*
X00090537Y00000863D01*
X00090537Y00000864D01*
X00090537Y00000865D01*
X00090536Y00000867D01*
X00090535Y00000870D01*
X00090534Y00000874D01*
X00090533Y00000878D01*
X00090531Y00000884D01*
X00090530Y00000889D01*
X00090528Y00000896D01*
X00090527Y00000903D01*
X00090524Y00000918D01*
X00090523Y00000935D01*
X00090522Y00000954D01*
X00090522Y00000954D01*
X00090522Y00000956D01*
X00090522Y00000958D01*
X00090522Y00000961D01*
X00090523Y00000965D01*
X00090523Y00000970D01*
X00090523Y00000980D01*
X00090524Y00000992D01*
X00090527Y00001005D01*
X00090529Y00001019D01*
X00090533Y00001032D01*
X00090533Y00001032D01*
X00090533Y00001033D01*
X00090534Y00001035D01*
X00090534Y00001037D01*
X00090537Y00001043D01*
X00090540Y00001051D01*
X00090543Y00001060D01*
X00090548Y00001070D01*
X00090553Y00001079D01*
X00090559Y00001088D01*
X00090560Y00001089D01*
X00090562Y00001091D01*
X00090565Y00001095D01*
X00090569Y00001101D01*
X00090574Y00001106D01*
X00090581Y00001112D01*
X00090587Y00001118D01*
X00090594Y00001123D01*
X00090595Y00001123D01*
X00090598Y00001125D01*
X00090602Y00001127D01*
X00090607Y00001130D01*
X00090613Y00001133D01*
X00090621Y00001136D01*
X00090630Y00001139D01*
X00090640Y00001142D01*
X00090641Y00001142D01*
X00090644Y00001143D01*
X00090650Y00001143D01*
X00090657Y00001145D01*
X00090666Y00001146D01*
X00090677Y00001147D01*
X00090688Y00001147D01*
X00090701Y00001148D01*
X00090839Y00001148D01*
X00090839Y00000764D01*
X00090692Y00000764D01*
X00090682Y00000764D01*
D02*
G37*
G36*
X00090905Y00000809D02*
X00091113Y00000809D01*
X00091113Y00000929D01*
X00090933Y00000929D01*
X00090933Y00000974D01*
X00091113Y00000974D01*
X00091113Y00001148D01*
X00091164Y00001148D01*
X00091164Y00000764D01*
X00090905Y00000764D01*
X00090905Y00000809D01*
D02*
G37*
G36*
X00003897Y00000809D02*
X00004106Y00000809D01*
X00004106Y00000929D01*
X00003925Y00000929D01*
X00003925Y00000974D01*
X00004106Y00000974D01*
X00004106Y00001148D01*
X00004156Y00001148D01*
X00004156Y00000764D01*
X00003897Y00000764D01*
X00003897Y00000809D01*
D02*
G37*
G36*
X00003332Y00000762D02*
X00003324Y00000764D01*
X00003315Y00000765D01*
X00003305Y00000768D01*
X00003295Y00000771D01*
X00003285Y00000776D01*
X00003285Y00000776D01*
X00003284Y00000777D01*
X00003281Y00000778D01*
X00003276Y00000781D01*
X00003270Y00000785D01*
X00003264Y00000791D01*
X00003257Y00000797D01*
X00003250Y00000805D01*
X00003245Y00000813D01*
X00003244Y00000814D01*
X00003242Y00000817D01*
X00003240Y00000822D01*
X00003237Y00000827D01*
X00003235Y00000835D01*
X00003233Y00000843D01*
X00003231Y00000852D01*
X00003230Y00000862D01*
X00003230Y00000863D01*
X00003230Y00000866D01*
X00003231Y00000871D01*
X00003232Y00000877D01*
X00003234Y00000884D01*
X00003236Y00000891D01*
X00003239Y00000899D01*
X00003244Y00000907D01*
X00003245Y00000908D01*
X00003246Y00000910D01*
X00003250Y00000914D01*
X00003254Y00000919D01*
X00003260Y00000924D01*
X00003266Y00000929D01*
X00003274Y00000935D01*
X00003284Y00000940D01*
X00003283Y00000940D01*
X00003282Y00000940D01*
X00003280Y00000940D01*
X00003278Y00000942D01*
X00003272Y00000943D01*
X00003264Y00000947D01*
X00003256Y00000951D01*
X00003247Y00000957D01*
X00003239Y00000964D01*
X00003231Y00000972D01*
X00003230Y00000974D01*
X00003228Y00000977D01*
X00003225Y00000982D01*
X00003221Y00000989D01*
X00003218Y00000998D01*
X00003215Y00001009D01*
X00003212Y00001021D01*
X00003212Y00001035D01*
X00003212Y00001035D01*
X00003212Y00001037D01*
X00003212Y00001039D01*
X00003212Y00001043D01*
X00003213Y00001047D01*
X00003213Y00001052D01*
X00003215Y00001058D01*
X00003216Y00001064D01*
X00003220Y00001077D01*
X00003223Y00001085D01*
X00003227Y00001092D01*
X00003232Y00001099D01*
X00003236Y00001106D01*
X00003242Y00001113D01*
X00003249Y00001120D01*
X00003249Y00001121D01*
X00003250Y00001122D01*
X00003252Y00001123D01*
X00003255Y00001125D01*
X00003258Y00001128D01*
X00003263Y00001131D01*
X00003268Y00001134D01*
X00003274Y00001137D01*
X00003280Y00001140D01*
X00003287Y00001143D01*
X00003295Y00001146D01*
X00003303Y00001149D01*
X00003312Y00001152D01*
X00003321Y00001153D01*
X00003331Y00001154D01*
X00003341Y00001154D01*
X00003346Y00001154D01*
X00003349Y00001154D01*
X00003354Y00001153D01*
X00003359Y00001153D01*
X00003364Y00001152D01*
X00003370Y00001151D01*
X00003384Y00001147D01*
X00003398Y00001142D01*
X00003405Y00001139D01*
X00003411Y00001135D01*
X00003418Y00001130D01*
X00003425Y00001125D01*
X00003425Y00001124D01*
X00003426Y00001123D01*
X00003428Y00001122D01*
X00003430Y00001119D01*
X00003432Y00001116D01*
X00003435Y00001112D01*
X00003439Y00001108D01*
X00003442Y00001104D01*
X00003449Y00001092D01*
X00003455Y00001078D01*
X00003460Y00001063D01*
X00003461Y00001055D01*
X00003463Y00001046D01*
X00003415Y00001040D01*
X00003415Y00001040D01*
X00003415Y00001042D01*
X00003415Y00001044D01*
X00003414Y00001046D01*
X00003412Y00001053D01*
X00003409Y00001062D01*
X00003405Y00001071D01*
X00003401Y00001081D01*
X00003395Y00001090D01*
X00003388Y00001098D01*
X00003387Y00001098D01*
X00003385Y00001101D01*
X00003381Y00001103D01*
X00003375Y00001106D01*
X00003368Y00001109D01*
X00003360Y00001112D01*
X00003351Y00001115D01*
X00003341Y00001115D01*
X00003337Y00001115D01*
X00003335Y00001115D01*
X00003329Y00001114D01*
X00003322Y00001112D01*
X00003312Y00001109D01*
X00003303Y00001106D01*
X00003294Y00001100D01*
X00003285Y00001092D01*
X00003284Y00001091D01*
X00003281Y00001088D01*
X00003278Y00001084D01*
X00003273Y00001077D01*
X00003269Y00001068D01*
X00003266Y00001059D01*
X00003263Y00001047D01*
X00003262Y00001035D01*
X00003262Y00001035D01*
X00003262Y00001034D01*
X00003262Y00001032D01*
X00003263Y00001030D01*
X00003263Y00001024D01*
X00003265Y00001016D01*
X00003267Y00001008D01*
X00003271Y00000999D01*
X00003277Y00000990D01*
X00003284Y00000982D01*
X00003285Y00000981D01*
X00003287Y00000978D01*
X00003292Y00000975D01*
X00003298Y00000971D01*
X00003306Y00000967D01*
X00003315Y00000964D01*
X00003325Y00000962D01*
X00003337Y00000961D01*
X00003342Y00000961D01*
X00003346Y00000961D01*
X00003351Y00000962D01*
X00003357Y00000963D01*
X00003363Y00000964D01*
X00003370Y00000965D01*
X00003365Y00000924D01*
X00003362Y00000924D01*
X00003360Y00000925D01*
X00003352Y00000925D01*
X00003347Y00000924D01*
X00003339Y00000923D01*
X00003331Y00000921D01*
X00003322Y00000918D01*
X00003313Y00000915D01*
X00003304Y00000909D01*
X00003302Y00000909D01*
X00003300Y00000906D01*
X00003296Y00000902D01*
X00003291Y00000897D01*
X00003287Y00000891D01*
X00003283Y00000882D01*
X00003280Y00000872D01*
X00003279Y00000861D01*
X00003279Y00000860D01*
X00003279Y00000860D01*
X00003279Y00000857D01*
X00003280Y00000852D01*
X00003281Y00000846D01*
X00003283Y00000839D01*
X00003287Y00000832D01*
X00003291Y00000825D01*
X00003297Y00000818D01*
X00003297Y00000817D01*
X00003300Y00000815D01*
X00003304Y00000812D01*
X00003309Y00000809D01*
X00003315Y00000806D01*
X00003323Y00000803D01*
X00003332Y00000801D01*
X00003342Y00000801D01*
X00003346Y00000801D01*
X00003352Y00000802D01*
X00003357Y00000803D01*
X00003365Y00000805D01*
X00003373Y00000808D01*
X00003380Y00000812D01*
X00003388Y00000818D01*
X00003388Y00000819D01*
X00003391Y00000821D01*
X00003394Y00000825D01*
X00003397Y00000831D01*
X00003401Y00000838D01*
X00003405Y00000847D01*
X00003408Y00000857D01*
X00003411Y00000870D01*
X00003458Y00000861D01*
X00003458Y00000861D01*
X00003457Y00000859D01*
X00003457Y00000857D01*
X00003456Y00000854D01*
X00003455Y00000850D01*
X00003454Y00000845D01*
X00003450Y00000834D01*
X00003445Y00000823D01*
X00003438Y00000810D01*
X00003430Y00000799D01*
X00003419Y00000788D01*
X00003419Y00000788D01*
X00003418Y00000787D01*
X00003416Y00000786D01*
X00003414Y00000784D01*
X00003411Y00000782D01*
X00003407Y00000780D01*
X00003398Y00000775D01*
X00003387Y00000770D01*
X00003374Y00000766D01*
X00003359Y00000763D01*
X00003351Y00000762D01*
X00003337Y00000762D01*
X00003332Y00000762D01*
D02*
G37*
G36*
X00003674Y00000764D02*
X00003663Y00000765D01*
X00003652Y00000766D01*
X00003640Y00000768D01*
X00003631Y00000770D01*
X00003631Y00000770D01*
X00003629Y00000770D01*
X00003628Y00000770D01*
X00003626Y00000771D01*
X00003619Y00000773D01*
X00003612Y00000776D01*
X00003603Y00000779D01*
X00003594Y00000784D01*
X00003584Y00000790D01*
X00003575Y00000797D01*
X00003574Y00000797D01*
X00003574Y00000798D01*
X00003570Y00000802D01*
X00003565Y00000808D01*
X00003558Y00000815D01*
X00003550Y00000825D01*
X00003543Y00000836D01*
X00003536Y00000848D01*
X00003529Y00000863D01*
X00003529Y00000864D01*
X00003529Y00000865D01*
X00003528Y00000867D01*
X00003527Y00000870D01*
X00003526Y00000874D01*
X00003525Y00000878D01*
X00003523Y00000884D01*
X00003522Y00000889D01*
X00003521Y00000896D01*
X00003519Y00000903D01*
X00003517Y00000918D01*
X00003515Y00000935D01*
X00003514Y00000954D01*
X00003514Y00000954D01*
X00003514Y00000956D01*
X00003514Y00000958D01*
X00003514Y00000961D01*
X00003515Y00000965D01*
X00003515Y00000970D01*
X00003515Y00000980D01*
X00003517Y00000992D01*
X00003519Y00001005D01*
X00003521Y00001019D01*
X00003525Y00001032D01*
X00003525Y00001032D01*
X00003525Y00001033D01*
X00003526Y00001035D01*
X00003526Y00001037D01*
X00003529Y00001043D01*
X00003532Y00001051D01*
X00003535Y00001060D01*
X00003540Y00001070D01*
X00003545Y00001079D01*
X00003551Y00001088D01*
X00003552Y00001089D01*
X00003554Y00001091D01*
X00003557Y00001095D01*
X00003562Y00001101D01*
X00003566Y00001106D01*
X00003573Y00001112D01*
X00003579Y00001118D01*
X00003586Y00001123D01*
X00003587Y00001123D01*
X00003590Y00001125D01*
X00003594Y00001127D01*
X00003599Y00001130D01*
X00003605Y00001133D01*
X00003613Y00001136D01*
X00003622Y00001139D01*
X00003632Y00001142D01*
X00003633Y00001142D01*
X00003636Y00001143D01*
X00003642Y00001143D01*
X00003649Y00001145D01*
X00003658Y00001146D01*
X00003669Y00001147D01*
X00003680Y00001147D01*
X00003693Y00001148D01*
X00003831Y00001148D01*
X00003831Y00000764D01*
X00003684Y00000764D01*
X00003674Y00000764D01*
D02*
G37*
%LPC*%
G36*
X00090708Y00000809D02*
X00090788Y00000809D01*
X00090788Y00001103D01*
X00090700Y00001103D01*
X00090694Y00001102D01*
X00090685Y00001102D01*
X00090676Y00001101D01*
X00090666Y00001100D01*
X00090657Y00001098D01*
X00090648Y00001096D01*
X00090647Y00001095D01*
X00090644Y00001095D01*
X00090640Y00001093D01*
X00090636Y00001091D01*
X00090630Y00001088D01*
X00090624Y00001085D01*
X00090619Y00001081D01*
X00090613Y00001076D01*
X00090613Y00001075D01*
X00090610Y00001073D01*
X00090607Y00001068D01*
X00090603Y00001063D01*
X00090599Y00001056D01*
X00090594Y00001048D01*
X00090589Y00001038D01*
X00090585Y00001027D01*
X00090585Y00001027D01*
X00090585Y00001026D01*
X00090584Y00001025D01*
X00090583Y00001022D01*
X00090583Y00001019D01*
X00090582Y00001016D01*
X00090580Y00001007D01*
X00090578Y00000996D01*
X00090576Y00000983D01*
X00090575Y00000969D01*
X00090575Y00000953D01*
X00090575Y00000953D01*
X00090575Y00000950D01*
X00090575Y00000947D01*
X00090575Y00000943D01*
X00090575Y00000938D01*
X00090576Y00000932D01*
X00090576Y00000926D01*
X00090577Y00000919D01*
X00090579Y00000904D01*
X00090583Y00000889D01*
X00090588Y00000874D01*
X00090591Y00000867D01*
X00090595Y00000861D01*
X00090595Y00000860D01*
X00090596Y00000860D01*
X00090596Y00000858D01*
X00090598Y00000856D01*
X00090602Y00000850D01*
X00090608Y00000843D01*
X00090615Y00000836D01*
X00090623Y00000829D01*
X00090633Y00000822D01*
X00090643Y00000817D01*
X00090644Y00000816D01*
X00090647Y00000816D01*
X00090651Y00000815D01*
X00090658Y00000813D01*
X00090668Y00000811D01*
X00090679Y00000810D01*
X00090692Y00000809D01*
X00090708Y00000809D01*
D02*
G37*
G36*
X00003700Y00000809D02*
X00003780Y00000809D01*
X00003780Y00001103D01*
X00003693Y00001103D01*
X00003686Y00001102D01*
X00003677Y00001102D01*
X00003668Y00001101D01*
X00003658Y00001100D01*
X00003649Y00001098D01*
X00003640Y00001096D01*
X00003639Y00001095D01*
X00003636Y00001095D01*
X00003632Y00001093D01*
X00003628Y00001091D01*
X00003622Y00001088D01*
X00003616Y00001085D01*
X00003611Y00001081D01*
X00003605Y00001076D01*
X00003605Y00001075D01*
X00003603Y00001073D01*
X00003599Y00001068D01*
X00003595Y00001063D01*
X00003591Y00001056D01*
X00003586Y00001048D01*
X00003581Y00001038D01*
X00003577Y00001027D01*
X00003577Y00001027D01*
X00003577Y00001026D01*
X00003576Y00001025D01*
X00003576Y00001022D01*
X00003575Y00001019D01*
X00003574Y00001016D01*
X00003572Y00001007D01*
X00003570Y00000996D01*
X00003569Y00000983D01*
X00003567Y00000969D01*
X00003567Y00000953D01*
X00003567Y00000953D01*
X00003567Y00000950D01*
X00003567Y00000947D01*
X00003567Y00000943D01*
X00003567Y00000938D01*
X00003568Y00000932D01*
X00003569Y00000926D01*
X00003569Y00000919D01*
X00003572Y00000904D01*
X00003575Y00000889D01*
X00003580Y00000874D01*
X00003583Y00000867D01*
X00003587Y00000861D01*
X00003587Y00000860D01*
X00003588Y00000860D01*
X00003588Y00000858D01*
X00003590Y00000856D01*
X00003594Y00000850D01*
X00003600Y00000843D01*
X00003607Y00000836D01*
X00003615Y00000829D01*
X00003625Y00000822D01*
X00003635Y00000817D01*
X00003636Y00000816D01*
X00003639Y00000816D01*
X00003643Y00000815D01*
X00003650Y00000813D01*
X00003660Y00000811D01*
X00003671Y00000810D01*
X00003684Y00000809D01*
X00003700Y00000809D01*
D02*
G37*
%LPD*%
D79*
X00003627Y00001968D02*
G03*
X00003627Y00001968I00000310D01*
G01*
X00090634Y00001968D02*
G03*
X00090634Y00001968I00000310D01*
G01*
D80*
X00001332Y00001473D02*
X00000978Y00001473D01*
X00001332Y00001473D02*
X00000625Y00000766D01*
X00001473Y00001332D02*
X00000766Y00000625D01*
X00001473Y00001332D02*
X00001473Y00000978D01*
X00093408Y00001332D02*
X00093408Y00000978D01*
X00094115Y00000625D02*
X00093408Y00001332D01*
X00094256Y00000766D02*
X00093549Y00001473D01*
X00093903Y00001473D02*
X00093549Y00001473D01*
D81*
X00083162Y00001061D02*
X00080666Y00001061D01*
X00083194Y00001077D02*
X00080666Y00001077D01*
X00083226Y00001093D02*
X00080666Y00001093D01*
X00083258Y00001109D02*
X00080666Y00001109D01*
X00083274Y00001125D02*
X00080682Y00001125D01*
X00083290Y00001141D02*
X00080682Y00001141D01*
X00083306Y00001157D02*
X00082730Y00001157D01*
X00082442Y00001157D02*
X00081706Y00001157D01*
X00081002Y00001157D02*
X00080970Y00001157D01*
X00080922Y00001157D02*
X00080906Y00001157D01*
X00080890Y00001157D02*
X00080858Y00001157D01*
X00080810Y00001157D02*
X00080698Y00001157D01*
X00083306Y00001173D02*
X00083162Y00001173D01*
X00080810Y00001173D02*
X00080698Y00001173D01*
X00083322Y00001189D02*
X00083178Y00001189D01*
X00080826Y00001189D02*
X00080698Y00001189D01*
X00083322Y00001205D02*
X00083210Y00001205D01*
X00080826Y00001205D02*
X00080714Y00001205D01*
X00083338Y00001221D02*
X00083210Y00001221D01*
X00083066Y00001221D02*
X00083050Y00001221D01*
X00083034Y00001221D02*
X00083002Y00001221D01*
X00081834Y00001221D02*
X00081818Y00001221D01*
X00080986Y00001221D02*
X00080970Y00001221D01*
X00080826Y00001221D02*
X00080714Y00001221D01*
X00083338Y00001237D02*
X00083226Y00001237D01*
X00083082Y00001237D02*
X00082282Y00001237D01*
X00081850Y00001237D02*
X00080954Y00001237D01*
X00080842Y00001237D02*
X00080730Y00001237D01*
X00083354Y00001253D02*
X00083226Y00001253D01*
X00083114Y00001253D02*
X00082266Y00001253D01*
X00081898Y00001253D02*
X00080938Y00001253D01*
X00080842Y00001253D02*
X00080730Y00001253D01*
X00083354Y00001269D02*
X00083242Y00001269D01*
X00083130Y00001269D02*
X00082266Y00001269D01*
X00081898Y00001269D02*
X00080938Y00001269D01*
X00080842Y00001269D02*
X00080730Y00001269D01*
X00083370Y00001285D02*
X00083242Y00001285D01*
X00083146Y00001285D02*
X00082266Y00001285D01*
X00081930Y00001285D02*
X00080938Y00001285D01*
X00080858Y00001285D02*
X00080746Y00001285D01*
X00083370Y00001301D02*
X00083242Y00001301D01*
X00083146Y00001301D02*
X00082282Y00001301D01*
X00081962Y00001301D02*
X00080954Y00001301D01*
X00080858Y00001301D02*
X00080746Y00001301D01*
X00083370Y00001317D02*
X00083258Y00001317D01*
X00083162Y00001317D02*
X00082282Y00001317D01*
X00081978Y00001317D02*
X00080954Y00001317D01*
X00080858Y00001317D02*
X00080746Y00001317D01*
X00083370Y00001333D02*
X00083258Y00001333D01*
X00083162Y00001333D02*
X00082282Y00001333D01*
X00082010Y00001333D02*
X00080954Y00001333D01*
X00080874Y00001333D02*
X00080746Y00001333D01*
X00083386Y00001349D02*
X00083258Y00001349D01*
X00083178Y00001349D02*
X00082298Y00001349D01*
X00082042Y00001349D02*
X00080970Y00001349D01*
X00080874Y00001349D02*
X00080762Y00001349D01*
X00083386Y00001365D02*
X00083274Y00001365D01*
X00083178Y00001365D02*
X00082298Y00001365D01*
X00082058Y00001365D02*
X00080970Y00001365D01*
X00080874Y00001365D02*
X00080762Y00001365D01*
X00083386Y00001381D02*
X00083274Y00001381D01*
X00083178Y00001381D02*
X00082298Y00001381D01*
X00082090Y00001381D02*
X00080986Y00001381D01*
X00080890Y00001381D02*
X00080762Y00001381D01*
X00083402Y00001397D02*
X00083274Y00001397D01*
X00083194Y00001397D02*
X00082314Y00001397D01*
X00082106Y00001397D02*
X00080986Y00001397D01*
X00080890Y00001397D02*
X00080778Y00001397D01*
X00083402Y00001413D02*
X00083290Y00001413D01*
X00083194Y00001413D02*
X00082314Y00001413D01*
X00082138Y00001413D02*
X00080986Y00001413D01*
X00080906Y00001413D02*
X00080778Y00001413D01*
X00083402Y00001429D02*
X00083290Y00001429D01*
X00083210Y00001429D02*
X00082330Y00001429D01*
X00082154Y00001429D02*
X00081002Y00001429D01*
X00080906Y00001429D02*
X00080794Y00001429D01*
X00083418Y00001445D02*
X00083290Y00001445D01*
X00083210Y00001445D02*
X00082330Y00001445D01*
X00082186Y00001445D02*
X00081002Y00001445D01*
X00080906Y00001445D02*
X00080794Y00001445D01*
X00083418Y00001461D02*
X00083306Y00001461D01*
X00083210Y00001461D02*
X00082330Y00001461D01*
X00082218Y00001461D02*
X00081002Y00001461D01*
X00080922Y00001461D02*
X00080794Y00001461D01*
X00083418Y00001477D02*
X00083306Y00001477D01*
X00083226Y00001477D02*
X00082346Y00001477D01*
X00082234Y00001477D02*
X00081018Y00001477D01*
X00080922Y00001477D02*
X00080794Y00001477D01*
X00083434Y00001493D02*
X00083306Y00001493D01*
X00083226Y00001493D02*
X00082346Y00001493D01*
X00082282Y00001493D02*
X00081018Y00001493D01*
X00080922Y00001493D02*
X00080810Y00001493D01*
X00083434Y00001509D02*
X00083322Y00001509D01*
X00083242Y00001509D02*
X00082362Y00001509D01*
X00082298Y00001509D02*
X00081034Y00001509D01*
X00080938Y00001509D02*
X00080810Y00001509D01*
X00083434Y00001525D02*
X00083322Y00001525D01*
X00083242Y00001525D02*
X00082362Y00001525D01*
X00082330Y00001525D02*
X00081034Y00001525D01*
X00080938Y00001525D02*
X00080826Y00001525D01*
X00083450Y00001541D02*
X00083322Y00001541D01*
X00083242Y00001541D02*
X00082362Y00001541D01*
X00082346Y00001541D02*
X00081034Y00001541D01*
X00080938Y00001541D02*
X00080826Y00001541D01*
X00083450Y00001557D02*
X00083338Y00001557D01*
X00083242Y00001557D02*
X00081050Y00001557D01*
X00080954Y00001557D02*
X00080826Y00001557D01*
X00083450Y00001573D02*
X00083338Y00001573D01*
X00083242Y00001573D02*
X00082394Y00001573D01*
X00082346Y00001573D02*
X00081066Y00001573D01*
X00080954Y00001573D02*
X00080842Y00001573D01*
X00083466Y00001589D02*
X00083338Y00001589D01*
X00082938Y00001589D02*
X00082570Y00001589D01*
X00080954Y00001589D02*
X00080842Y00001589D01*
X00083466Y00001605D02*
X00083354Y00001605D01*
X00082938Y00001605D02*
X00082570Y00001605D01*
X00082378Y00001605D02*
X00082362Y00001605D01*
X00080970Y00001605D02*
X00080842Y00001605D01*
X00083466Y00001621D02*
X00083354Y00001621D01*
X00082954Y00001621D02*
X00082586Y00001621D01*
X00082410Y00001621D02*
X00082090Y00001621D01*
X00081690Y00001621D02*
X00081610Y00001621D01*
X00081402Y00001621D02*
X00081082Y00001621D01*
X00080970Y00001621D02*
X00080842Y00001621D01*
X00083482Y00001637D02*
X00083354Y00001637D01*
X00082954Y00001637D02*
X00082586Y00001637D01*
X00082426Y00001637D02*
X00082090Y00001637D01*
X00081754Y00001637D02*
X00081530Y00001637D01*
X00081418Y00001637D02*
X00081082Y00001637D01*
X00080970Y00001637D02*
X00080858Y00001637D01*
X00083482Y00001653D02*
X00083370Y00001653D01*
X00082954Y00001653D02*
X00082586Y00001653D01*
X00082442Y00001653D02*
X00082090Y00001653D01*
X00081818Y00001653D02*
X00081498Y00001653D01*
X00081434Y00001653D02*
X00081082Y00001653D01*
X00080986Y00001653D02*
X00080858Y00001653D01*
X00083498Y00001669D02*
X00083370Y00001669D01*
X00082970Y00001669D02*
X00082602Y00001669D01*
X00082442Y00001669D02*
X00082090Y00001669D01*
X00081850Y00001669D02*
X00081466Y00001669D01*
X00081434Y00001669D02*
X00081082Y00001669D01*
X00080986Y00001669D02*
X00080874Y00001669D01*
X00083498Y00001685D02*
X00083386Y00001685D01*
X00082970Y00001685D02*
X00082602Y00001685D01*
X00082442Y00001685D02*
X00082106Y00001685D01*
X00081882Y00001685D02*
X00081082Y00001685D01*
X00080986Y00001685D02*
X00080874Y00001685D01*
X00083498Y00001701D02*
X00083386Y00001701D01*
X00082970Y00001701D02*
X00082618Y00001701D01*
X00082458Y00001701D02*
X00082106Y00001701D01*
X00081898Y00001701D02*
X00081098Y00001701D01*
X00081002Y00001701D02*
X00080874Y00001701D01*
X00083498Y00001717D02*
X00083386Y00001717D01*
X00082986Y00001717D02*
X00082618Y00001717D01*
X00082458Y00001717D02*
X00082106Y00001717D01*
X00081914Y00001717D02*
X00081098Y00001717D01*
X00081002Y00001717D02*
X00080890Y00001717D01*
X00083514Y00001733D02*
X00083386Y00001733D01*
X00082986Y00001733D02*
X00082618Y00001733D01*
X00082474Y00001733D02*
X00082106Y00001733D01*
X00081946Y00001733D02*
X00081114Y00001733D01*
X00081002Y00001733D02*
X00080890Y00001733D01*
X00083514Y00001749D02*
X00083402Y00001749D01*
X00082986Y00001749D02*
X00082634Y00001749D01*
X00082474Y00001749D02*
X00082122Y00001749D01*
X00081962Y00001749D02*
X00081114Y00001749D01*
X00081018Y00001749D02*
X00080906Y00001749D01*
X00083530Y00001765D02*
X00083402Y00001765D01*
X00083002Y00001765D02*
X00082634Y00001765D01*
X00082474Y00001765D02*
X00082122Y00001765D01*
X00081978Y00001765D02*
X00081610Y00001765D01*
X00081530Y00001765D02*
X00081114Y00001765D01*
X00081018Y00001765D02*
X00080906Y00001765D01*
X00083530Y00001781D02*
X00083402Y00001781D01*
X00083002Y00001781D02*
X00082634Y00001781D01*
X00082490Y00001781D02*
X00082138Y00001781D01*
X00081978Y00001781D02*
X00081626Y00001781D01*
X00081514Y00001781D02*
X00081130Y00001781D01*
X00081034Y00001781D02*
X00080906Y00001781D01*
X00083530Y00001797D02*
X00083418Y00001797D01*
X00083002Y00001797D02*
X00082650Y00001797D01*
X00082490Y00001797D02*
X00082138Y00001797D01*
X00081994Y00001797D02*
X00081642Y00001797D01*
X00081514Y00001797D02*
X00081130Y00001797D01*
X00081034Y00001797D02*
X00080922Y00001797D01*
X00083530Y00001813D02*
X00083402Y00001813D01*
X00083018Y00001813D02*
X00082650Y00001813D01*
X00082490Y00001813D02*
X00082138Y00001813D01*
X00082010Y00001813D02*
X00081642Y00001813D01*
X00081514Y00001813D02*
X00081130Y00001813D01*
X00081034Y00001813D02*
X00080922Y00001813D01*
X00083546Y00001829D02*
X00083418Y00001829D01*
X00083018Y00001829D02*
X00082666Y00001829D01*
X00082506Y00001829D02*
X00082154Y00001829D01*
X00082026Y00001829D02*
X00081642Y00001829D01*
X00081498Y00001829D02*
X00081146Y00001829D01*
X00081050Y00001829D02*
X00080938Y00001829D01*
X00083546Y00001845D02*
X00083434Y00001845D01*
X00083018Y00001845D02*
X00082666Y00001845D01*
X00082506Y00001845D02*
X00082154Y00001845D01*
X00082026Y00001845D02*
X00081642Y00001845D01*
X00081498Y00001845D02*
X00081146Y00001845D01*
X00081050Y00001845D02*
X00080938Y00001845D01*
X00083562Y00001861D02*
X00083434Y00001861D01*
X00083034Y00001861D02*
X00082666Y00001861D01*
X00082506Y00001861D02*
X00082154Y00001861D01*
X00082042Y00001861D02*
X00081658Y00001861D01*
X00081498Y00001861D02*
X00081146Y00001861D01*
X00081050Y00001861D02*
X00080938Y00001861D01*
X00083562Y00001877D02*
X00083434Y00001877D01*
X00083034Y00001877D02*
X00082682Y00001877D01*
X00082522Y00001877D02*
X00082170Y00001877D01*
X00082042Y00001877D02*
X00081658Y00001877D01*
X00081498Y00001877D02*
X00081162Y00001877D01*
X00081066Y00001877D02*
X00080938Y00001877D01*
X00083562Y00001893D02*
X00083450Y00001893D01*
X00083050Y00001893D02*
X00082682Y00001893D01*
X00082522Y00001893D02*
X00082170Y00001893D01*
X00082058Y00001893D02*
X00081674Y00001893D01*
X00081514Y00001893D02*
X00081162Y00001893D01*
X00081066Y00001893D02*
X00080954Y00001893D01*
X00083578Y00001909D02*
X00083450Y00001909D01*
X00083050Y00001909D02*
X00082682Y00001909D01*
X00082522Y00001909D02*
X00082170Y00001909D01*
X00082058Y00001909D02*
X00081674Y00001909D01*
X00081514Y00001909D02*
X00081178Y00001909D01*
X00081066Y00001909D02*
X00080954Y00001909D01*
X00083578Y00001925D02*
X00083450Y00001925D01*
X00083050Y00001925D02*
X00082698Y00001925D01*
X00082538Y00001925D02*
X00082186Y00001925D01*
X00082058Y00001925D02*
X00081690Y00001925D01*
X00081514Y00001925D02*
X00081178Y00001925D01*
X00081082Y00001925D02*
X00080954Y00001925D01*
X00083578Y00001941D02*
X00083466Y00001941D01*
X00083066Y00001941D02*
X00082698Y00001941D01*
X00082538Y00001941D02*
X00082186Y00001941D01*
X00082074Y00001941D02*
X00081690Y00001941D01*
X00081530Y00001941D02*
X00081178Y00001941D01*
X00081082Y00001941D02*
X00080970Y00001941D01*
X00083594Y00001957D02*
X00083466Y00001957D01*
X00083066Y00001957D02*
X00082714Y00001957D01*
X00082538Y00001957D02*
X00082202Y00001957D01*
X00082074Y00001957D02*
X00081690Y00001957D01*
X00081530Y00001957D02*
X00081178Y00001957D01*
X00081082Y00001957D02*
X00080970Y00001957D01*
X00083594Y00001973D02*
X00083466Y00001973D01*
X00083066Y00001973D02*
X00082714Y00001973D01*
X00082554Y00001973D02*
X00082202Y00001973D01*
X00082074Y00001973D02*
X00081690Y00001973D01*
X00081530Y00001973D02*
X00081194Y00001973D01*
X00081098Y00001973D02*
X00080970Y00001973D01*
X00083594Y00001989D02*
X00083482Y00001989D01*
X00083082Y00001989D02*
X00082714Y00001989D01*
X00082554Y00001989D02*
X00082202Y00001989D01*
X00082090Y00001989D02*
X00081706Y00001989D01*
X00081546Y00001989D02*
X00081194Y00001989D01*
X00081098Y00001989D02*
X00080986Y00001989D01*
X00083610Y00002005D02*
X00083482Y00002005D01*
X00083082Y00002005D02*
X00082730Y00002005D01*
X00082570Y00002005D02*
X00082218Y00002005D01*
X00082090Y00002005D02*
X00081706Y00002005D01*
X00081546Y00002005D02*
X00081210Y00002005D01*
X00081098Y00002005D02*
X00080986Y00002005D01*
X00083610Y00002021D02*
X00083482Y00002021D01*
X00083082Y00002021D02*
X00082730Y00002021D01*
X00082570Y00002021D02*
X00082218Y00002021D01*
X00082090Y00002021D02*
X00081722Y00002021D01*
X00081562Y00002021D02*
X00081210Y00002021D01*
X00081114Y00002021D02*
X00080986Y00002021D01*
X00083626Y00002037D02*
X00083498Y00002037D01*
X00083098Y00002037D02*
X00082730Y00002037D01*
X00082570Y00002037D02*
X00082234Y00002037D01*
X00082090Y00002037D02*
X00081722Y00002037D01*
X00081562Y00002037D02*
X00081210Y00002037D01*
X00081114Y00002037D02*
X00081002Y00002037D01*
X00083626Y00002053D02*
X00083498Y00002053D01*
X00083098Y00002053D02*
X00082746Y00002053D01*
X00082586Y00002053D02*
X00082234Y00002053D01*
X00082090Y00002053D02*
X00081722Y00002053D01*
X00081562Y00002053D02*
X00081226Y00002053D01*
X00081130Y00002053D02*
X00081002Y00002053D01*
X00083626Y00002069D02*
X00083514Y00002069D01*
X00083114Y00002069D02*
X00082746Y00002069D01*
X00082586Y00002069D02*
X00082234Y00002069D01*
X00082090Y00002069D02*
X00081722Y00002069D01*
X00081578Y00002069D02*
X00081226Y00002069D01*
X00081130Y00002069D02*
X00081002Y00002069D01*
X00083626Y00002085D02*
X00083514Y00002085D01*
X00083114Y00002085D02*
X00082746Y00002085D01*
X00082602Y00002085D02*
X00082250Y00002085D01*
X00082090Y00002085D02*
X00081738Y00002085D01*
X00081578Y00002085D02*
X00081242Y00002085D01*
X00081130Y00002085D02*
X00081018Y00002085D01*
X00083642Y00002101D02*
X00083514Y00002101D01*
X00083114Y00002101D02*
X00082762Y00002101D01*
X00082602Y00002101D02*
X00082250Y00002101D01*
X00082090Y00002101D02*
X00081738Y00002101D01*
X00081578Y00002101D02*
X00081242Y00002101D01*
X00081146Y00002101D02*
X00081018Y00002101D01*
X00083642Y00002117D02*
X00083530Y00002117D01*
X00083130Y00002117D02*
X00082762Y00002117D01*
X00082602Y00002117D02*
X00082250Y00002117D01*
X00082074Y00002117D02*
X00081722Y00002117D01*
X00081594Y00002117D02*
X00081242Y00002117D01*
X00081146Y00002117D02*
X00081034Y00002117D01*
X00083658Y00002133D02*
X00083530Y00002133D01*
X00083130Y00002133D02*
X00082762Y00002133D01*
X00082618Y00002133D02*
X00082266Y00002133D01*
X00082074Y00002133D02*
X00081722Y00002133D01*
X00081610Y00002133D02*
X00081258Y00002133D01*
X00081146Y00002133D02*
X00081034Y00002133D01*
X00083658Y00002149D02*
X00083530Y00002149D01*
X00083130Y00002149D02*
X00082778Y00002149D01*
X00082618Y00002149D02*
X00082266Y00002149D01*
X00082074Y00002149D02*
X00081690Y00002149D01*
X00081626Y00002149D02*
X00081258Y00002149D01*
X00081162Y00002149D02*
X00081034Y00002149D01*
X00083658Y00002165D02*
X00083546Y00002165D01*
X00083146Y00002165D02*
X00082778Y00002165D01*
X00082618Y00002165D02*
X00082266Y00002165D01*
X00082058Y00002165D02*
X00081258Y00002165D01*
X00081162Y00002165D02*
X00081050Y00002165D01*
X00083658Y00002181D02*
X00083546Y00002181D01*
X00083146Y00002181D02*
X00082778Y00002181D01*
X00082634Y00002181D02*
X00082282Y00002181D01*
X00082058Y00002181D02*
X00081274Y00002181D01*
X00081162Y00002181D02*
X00081050Y00002181D01*
X00083674Y00002197D02*
X00083546Y00002197D01*
X00083146Y00002197D02*
X00082794Y00002197D01*
X00082634Y00002197D02*
X00082282Y00002197D01*
X00082042Y00002197D02*
X00081274Y00002197D01*
X00081178Y00002197D02*
X00081050Y00002197D01*
X00083674Y00002213D02*
X00083562Y00002213D01*
X00083162Y00002213D02*
X00082794Y00002213D01*
X00082634Y00002213D02*
X00082282Y00002213D01*
X00082042Y00002213D02*
X00081274Y00002213D01*
X00081178Y00002213D02*
X00081066Y00002213D01*
X00083674Y00002229D02*
X00083562Y00002229D01*
X00083162Y00002229D02*
X00082810Y00002229D01*
X00082650Y00002229D02*
X00082298Y00002229D01*
X00082026Y00002229D02*
X00081290Y00002229D01*
X00081178Y00002229D02*
X00081066Y00002229D01*
X00083690Y00002245D02*
X00083578Y00002245D01*
X00083178Y00002245D02*
X00082810Y00002245D01*
X00082650Y00002245D02*
X00082314Y00002245D01*
X00082010Y00002245D02*
X00081306Y00002245D01*
X00081194Y00002245D02*
X00081082Y00002245D01*
X00083690Y00002261D02*
X00083578Y00002261D01*
X00083178Y00002261D02*
X00082826Y00002261D01*
X00082666Y00002261D02*
X00082330Y00002261D01*
X00081994Y00002261D02*
X00081306Y00002261D01*
X00081194Y00002261D02*
X00081082Y00002261D01*
X00083706Y00002277D02*
X00083578Y00002277D01*
X00083178Y00002277D02*
X00082842Y00002277D01*
X00082666Y00002277D02*
X00082330Y00002277D01*
X00081978Y00002277D02*
X00081338Y00002277D01*
X00081194Y00002277D02*
X00081082Y00002277D01*
X00083706Y00002293D02*
X00083594Y00002293D01*
X00083194Y00002293D02*
X00082858Y00002293D01*
X00082666Y00002293D02*
X00082362Y00002293D01*
X00081962Y00002293D02*
X00081354Y00002293D01*
X00081210Y00002293D02*
X00081082Y00002293D01*
X00083706Y00002309D02*
X00083594Y00002309D01*
X00083194Y00002309D02*
X00082890Y00002309D01*
X00082682Y00002309D02*
X00082394Y00002309D01*
X00081930Y00002309D02*
X00081690Y00002309D01*
X00081674Y00002309D02*
X00081386Y00002309D01*
X00081210Y00002309D02*
X00081098Y00002309D01*
X00083722Y00002325D02*
X00083594Y00002325D01*
X00083178Y00002325D02*
X00082970Y00002325D01*
X00082666Y00002325D02*
X00082442Y00002325D01*
X00081882Y00002325D02*
X00081754Y00002325D01*
X00081658Y00002325D02*
X00081450Y00002325D01*
X00081210Y00002325D02*
X00081098Y00002325D01*
X00083722Y00002341D02*
X00083594Y00002341D01*
X00081226Y00002341D02*
X00081114Y00002341D01*
X00083722Y00002357D02*
X00083610Y00002357D01*
X00081226Y00002357D02*
X00081114Y00002357D01*
X00083738Y00002373D02*
X00083610Y00002373D01*
X00083546Y00002373D02*
X00081370Y00002373D01*
X00081226Y00002373D02*
X00081114Y00002373D01*
X00083738Y00002389D02*
X00083626Y00002389D01*
X00083546Y00002389D02*
X00081354Y00002389D01*
X00081242Y00002389D02*
X00081114Y00002389D01*
X00083738Y00002405D02*
X00083626Y00002405D01*
X00083562Y00002405D02*
X00081354Y00002405D01*
X00081242Y00002405D02*
X00081130Y00002405D01*
X00083754Y00002421D02*
X00083642Y00002421D01*
X00083562Y00002421D02*
X00081354Y00002421D01*
X00081258Y00002421D02*
X00081130Y00002421D01*
X00083754Y00002437D02*
X00083642Y00002437D01*
X00083578Y00002437D02*
X00081370Y00002437D01*
X00081258Y00002437D02*
X00081146Y00002437D01*
X00083754Y00002453D02*
X00083642Y00002453D01*
X00083578Y00002453D02*
X00081370Y00002453D01*
X00081258Y00002453D02*
X00081146Y00002453D01*
X00083770Y00002469D02*
X00083658Y00002469D01*
X00083578Y00002469D02*
X00081370Y00002469D01*
X00081258Y00002469D02*
X00081146Y00002469D01*
X00083770Y00002485D02*
X00083658Y00002485D01*
X00083594Y00002485D02*
X00081386Y00002485D01*
X00081274Y00002485D02*
X00081162Y00002485D01*
X00083770Y00002501D02*
X00083658Y00002501D01*
X00083594Y00002501D02*
X00081386Y00002501D01*
X00081274Y00002501D02*
X00081162Y00002501D01*
X00083786Y00002517D02*
X00083674Y00002517D01*
X00083594Y00002517D02*
X00081402Y00002517D01*
X00081290Y00002517D02*
X00081178Y00002517D01*
X00083786Y00002533D02*
X00083674Y00002533D01*
X00083610Y00002533D02*
X00081402Y00002533D01*
X00081290Y00002533D02*
X00081178Y00002533D01*
X00083802Y00002549D02*
X00083674Y00002549D01*
X00083610Y00002549D02*
X00081402Y00002549D01*
X00081290Y00002549D02*
X00081178Y00002549D01*
X00083802Y00002565D02*
X00083690Y00002565D01*
X00083626Y00002565D02*
X00081418Y00002565D01*
X00081306Y00002565D02*
X00081178Y00002565D01*
X00083802Y00002581D02*
X00083690Y00002581D01*
X00083626Y00002581D02*
X00081418Y00002581D01*
X00081306Y00002581D02*
X00081194Y00002581D01*
X00083818Y00002597D02*
X00083690Y00002597D01*
X00083626Y00002597D02*
X00081434Y00002597D01*
X00081306Y00002597D02*
X00081194Y00002597D01*
X00083818Y00002613D02*
X00083706Y00002613D01*
X00083642Y00002613D02*
X00081434Y00002613D01*
X00081322Y00002613D02*
X00081194Y00002613D01*
X00083818Y00002629D02*
X00083706Y00002629D01*
X00083642Y00002629D02*
X00081450Y00002629D01*
X00081322Y00002629D02*
X00081210Y00002629D01*
X00083818Y00002645D02*
X00083706Y00002645D01*
X00083642Y00002645D02*
X00081450Y00002645D01*
X00081322Y00002645D02*
X00081210Y00002645D01*
X00083834Y00002661D02*
X00083722Y00002661D01*
X00083658Y00002661D02*
X00081466Y00002661D01*
X00081338Y00002661D02*
X00081210Y00002661D01*
X00083834Y00002677D02*
X00083722Y00002677D01*
X00083658Y00002677D02*
X00081482Y00002677D01*
X00081338Y00002677D02*
X00081226Y00002677D01*
X00083850Y00002693D02*
X00083722Y00002693D01*
X00083658Y00002693D02*
X00081514Y00002693D01*
X00081354Y00002693D02*
X00081226Y00002693D01*
X00083850Y00002709D02*
X00083738Y00002709D01*
X00083658Y00002709D02*
X00081562Y00002709D01*
X00081354Y00002709D02*
X00081242Y00002709D01*
X00083850Y00002725D02*
X00083738Y00002725D01*
X00083658Y00002725D02*
X00081642Y00002725D01*
X00081354Y00002725D02*
X00081242Y00002725D01*
X00083866Y00002741D02*
X00083738Y00002741D01*
X00081370Y00002741D02*
X00081242Y00002741D01*
X00083866Y00002757D02*
X00083754Y00002757D01*
X00081386Y00002757D02*
X00081258Y00002757D01*
X00083866Y00002773D02*
X00083754Y00002773D01*
X00081402Y00002773D02*
X00081258Y00002773D01*
X00083882Y00002789D02*
X00083754Y00002789D01*
X00081450Y00002789D02*
X00081274Y00002789D01*
X00083882Y00002805D02*
X00081290Y00002805D01*
X00083882Y00002821D02*
X00081306Y00002821D01*
X00083898Y00002837D02*
X00081322Y00002837D01*
X00083898Y00002853D02*
X00081338Y00002853D01*
X00083898Y00002869D02*
X00081354Y00002869D01*
X00083898Y00002885D02*
X00081386Y00002885D01*
X00083898Y00002901D02*
X00081418Y00002901D01*
X00013634Y00002877D02*
X00011154Y00002877D01*
X00013634Y00002861D02*
X00011122Y00002861D01*
X00013634Y00002845D02*
X00011090Y00002845D01*
X00013634Y00002829D02*
X00011074Y00002829D01*
X00013634Y00002813D02*
X00011058Y00002813D01*
X00013618Y00002797D02*
X00011042Y00002797D01*
X00013618Y00002781D02*
X00011026Y00002781D01*
X00011186Y00002765D02*
X00011010Y00002765D01*
X00013618Y00002765D02*
X00013490Y00002765D01*
X00011138Y00002749D02*
X00010994Y00002749D01*
X00013602Y00002749D02*
X00013490Y00002749D01*
X00011122Y00002733D02*
X00010994Y00002733D01*
X00013602Y00002733D02*
X00013490Y00002733D01*
X00011106Y00002717D02*
X00010978Y00002717D01*
X00013602Y00002717D02*
X00013474Y00002717D01*
X00011090Y00002701D02*
X00010978Y00002701D01*
X00013394Y00002701D02*
X00011378Y00002701D01*
X00013586Y00002701D02*
X00013474Y00002701D01*
X00011090Y00002685D02*
X00010978Y00002685D01*
X00013394Y00002685D02*
X00011298Y00002685D01*
X00013586Y00002685D02*
X00013474Y00002685D01*
X00011090Y00002669D02*
X00010962Y00002669D01*
X00013394Y00002669D02*
X00011250Y00002669D01*
X00013586Y00002669D02*
X00013458Y00002669D01*
X00011074Y00002653D02*
X00010962Y00002653D01*
X00013394Y00002653D02*
X00011218Y00002653D01*
X00013570Y00002653D02*
X00013458Y00002653D01*
X00011074Y00002637D02*
X00010946Y00002637D01*
X00013394Y00002637D02*
X00011202Y00002637D01*
X00013570Y00002637D02*
X00013458Y00002637D01*
X00011058Y00002621D02*
X00010946Y00002621D01*
X00013378Y00002621D02*
X00011186Y00002621D01*
X00013554Y00002621D02*
X00013442Y00002621D01*
X00011058Y00002605D02*
X00010946Y00002605D01*
X00013378Y00002605D02*
X00011186Y00002605D01*
X00013554Y00002605D02*
X00013442Y00002605D01*
X00011058Y00002589D02*
X00010930Y00002589D01*
X00013378Y00002589D02*
X00011170Y00002589D01*
X00013554Y00002589D02*
X00013442Y00002589D01*
X00011042Y00002573D02*
X00010930Y00002573D01*
X00013362Y00002573D02*
X00011170Y00002573D01*
X00013554Y00002573D02*
X00013426Y00002573D01*
X00011042Y00002557D02*
X00010930Y00002557D01*
X00013362Y00002557D02*
X00011154Y00002557D01*
X00013538Y00002557D02*
X00013426Y00002557D01*
X00011042Y00002541D02*
X00010914Y00002541D01*
X00013362Y00002541D02*
X00011154Y00002541D01*
X00013538Y00002541D02*
X00013426Y00002541D01*
X00011026Y00002525D02*
X00010914Y00002525D01*
X00013346Y00002525D02*
X00011138Y00002525D01*
X00013538Y00002525D02*
X00013410Y00002525D01*
X00011026Y00002509D02*
X00010914Y00002509D01*
X00013346Y00002509D02*
X00011138Y00002509D01*
X00013522Y00002509D02*
X00013410Y00002509D01*
X00011026Y00002493D02*
X00010914Y00002493D01*
X00013330Y00002493D02*
X00011138Y00002493D01*
X00013522Y00002493D02*
X00013410Y00002493D01*
X00011010Y00002477D02*
X00010898Y00002477D01*
X00013330Y00002477D02*
X00011122Y00002477D01*
X00013506Y00002477D02*
X00013394Y00002477D01*
X00011010Y00002461D02*
X00010898Y00002461D01*
X00013330Y00002461D02*
X00011122Y00002461D01*
X00013506Y00002461D02*
X00013394Y00002461D01*
X00010994Y00002445D02*
X00010882Y00002445D01*
X00013314Y00002445D02*
X00011106Y00002445D01*
X00013506Y00002445D02*
X00013394Y00002445D01*
X00010994Y00002429D02*
X00010882Y00002429D01*
X00013314Y00002429D02*
X00011106Y00002429D01*
X00013490Y00002429D02*
X00013378Y00002429D01*
X00010994Y00002413D02*
X00010882Y00002413D01*
X00013314Y00002413D02*
X00011106Y00002413D01*
X00013490Y00002413D02*
X00013378Y00002413D01*
X00010994Y00002397D02*
X00010866Y00002397D01*
X00013298Y00002397D02*
X00011090Y00002397D01*
X00013490Y00002397D02*
X00013378Y00002397D01*
X00010978Y00002381D02*
X00010866Y00002381D01*
X00013298Y00002381D02*
X00011090Y00002381D01*
X00013474Y00002381D02*
X00013362Y00002381D01*
X00010978Y00002365D02*
X00010850Y00002365D01*
X00013282Y00002365D02*
X00011090Y00002365D01*
X00013474Y00002365D02*
X00013362Y00002365D01*
X00010962Y00002349D02*
X00010850Y00002349D01*
X00013282Y00002349D02*
X00011106Y00002349D01*
X00013474Y00002349D02*
X00013346Y00002349D01*
X00010962Y00002333D02*
X00010850Y00002333D01*
X00013458Y00002333D02*
X00013346Y00002333D01*
X00010962Y00002317D02*
X00010850Y00002317D01*
X00013458Y00002317D02*
X00013330Y00002317D01*
X00010946Y00002301D02*
X00010834Y00002301D01*
X00011394Y00002301D02*
X00011186Y00002301D01*
X00011618Y00002301D02*
X00011490Y00002301D01*
X00012402Y00002301D02*
X00012178Y00002301D01*
X00012914Y00002301D02*
X00012706Y00002301D01*
X00013458Y00002301D02*
X00013330Y00002301D01*
X00010946Y00002285D02*
X00010834Y00002285D01*
X00011410Y00002285D02*
X00011122Y00002285D01*
X00011666Y00002285D02*
X00011426Y00002285D01*
X00012418Y00002285D02*
X00012130Y00002285D01*
X00012930Y00002285D02*
X00012626Y00002285D01*
X00013442Y00002285D02*
X00013330Y00002285D01*
X00010946Y00002269D02*
X00010818Y00002269D01*
X00011698Y00002269D02*
X00011090Y00002269D01*
X00012402Y00002269D02*
X00012098Y00002269D01*
X00012930Y00002269D02*
X00012594Y00002269D01*
X00013442Y00002269D02*
X00013330Y00002269D01*
X00010930Y00002253D02*
X00010818Y00002253D01*
X00011714Y00002253D02*
X00011074Y00002253D01*
X00012402Y00002253D02*
X00012066Y00002253D01*
X00012914Y00002253D02*
X00012578Y00002253D01*
X00013442Y00002253D02*
X00013314Y00002253D01*
X00010930Y00002237D02*
X00010818Y00002237D01*
X00011730Y00002237D02*
X00011042Y00002237D01*
X00012402Y00002237D02*
X00012066Y00002237D01*
X00012914Y00002237D02*
X00012562Y00002237D01*
X00013426Y00002237D02*
X00013314Y00002237D01*
X00010930Y00002221D02*
X00010818Y00002221D01*
X00011746Y00002221D02*
X00011042Y00002221D01*
X00012386Y00002221D02*
X00012050Y00002221D01*
X00012914Y00002221D02*
X00012546Y00002221D01*
X00013426Y00002221D02*
X00013314Y00002221D01*
X00010914Y00002205D02*
X00010802Y00002205D01*
X00011762Y00002205D02*
X00011026Y00002205D01*
X00012386Y00002205D02*
X00012034Y00002205D01*
X00012898Y00002205D02*
X00012546Y00002205D01*
X00013410Y00002205D02*
X00013298Y00002205D01*
X00010914Y00002189D02*
X00010802Y00002189D01*
X00011778Y00002189D02*
X00011010Y00002189D01*
X00012370Y00002189D02*
X00012018Y00002189D01*
X00012898Y00002189D02*
X00012530Y00002189D01*
X00013410Y00002189D02*
X00013298Y00002189D01*
X00010914Y00002173D02*
X00010786Y00002173D01*
X00011778Y00002173D02*
X00011010Y00002173D01*
X00012370Y00002173D02*
X00012018Y00002173D01*
X00012882Y00002173D02*
X00012530Y00002173D01*
X00013410Y00002173D02*
X00013282Y00002173D01*
X00010898Y00002157D02*
X00010786Y00002157D01*
X00011794Y00002157D02*
X00011010Y00002157D01*
X00012370Y00002157D02*
X00012018Y00002157D01*
X00012882Y00002157D02*
X00012514Y00002157D01*
X00013394Y00002157D02*
X00013282Y00002157D01*
X00010898Y00002141D02*
X00010786Y00002141D01*
X00011794Y00002141D02*
X00010994Y00002141D01*
X00012354Y00002141D02*
X00012002Y00002141D01*
X00012882Y00002141D02*
X00012514Y00002141D01*
X00013394Y00002141D02*
X00013282Y00002141D01*
X00010898Y00002125D02*
X00010770Y00002125D01*
X00011362Y00002125D02*
X00010994Y00002125D01*
X00011810Y00002125D02*
X00011426Y00002125D01*
X00012354Y00002125D02*
X00012002Y00002125D01*
X00012866Y00002125D02*
X00012514Y00002125D01*
X00013394Y00002125D02*
X00013266Y00002125D01*
X00010882Y00002109D02*
X00010770Y00002109D01*
X00011346Y00002109D02*
X00010994Y00002109D01*
X00011810Y00002109D02*
X00011458Y00002109D01*
X00012354Y00002109D02*
X00012002Y00002109D01*
X00012866Y00002109D02*
X00012498Y00002109D01*
X00013394Y00002109D02*
X00013266Y00002109D01*
X00010882Y00002093D02*
X00010770Y00002093D01*
X00011330Y00002093D02*
X00010978Y00002093D01*
X00011810Y00002093D02*
X00011458Y00002093D01*
X00012338Y00002093D02*
X00011986Y00002093D01*
X00012866Y00002093D02*
X00012498Y00002093D01*
X00013378Y00002093D02*
X00013266Y00002093D01*
X00010882Y00002077D02*
X00010754Y00002077D01*
X00011314Y00002077D02*
X00010978Y00002077D01*
X00011826Y00002077D02*
X00011474Y00002077D01*
X00012338Y00002077D02*
X00011986Y00002077D01*
X00012850Y00002077D02*
X00012498Y00002077D01*
X00013378Y00002077D02*
X00013250Y00002077D01*
X00010866Y00002061D02*
X00010754Y00002061D01*
X00011314Y00002061D02*
X00010978Y00002061D01*
X00011826Y00002061D02*
X00011474Y00002061D01*
X00012338Y00002061D02*
X00011986Y00002061D01*
X00012850Y00002061D02*
X00012482Y00002061D01*
X00013362Y00002061D02*
X00013250Y00002061D01*
X00010866Y00002045D02*
X00010738Y00002045D01*
X00011314Y00002045D02*
X00010962Y00002045D01*
X00011826Y00002045D02*
X00011458Y00002045D01*
X00012322Y00002045D02*
X00011970Y00002045D01*
X00012850Y00002045D02*
X00012482Y00002045D01*
X00013362Y00002045D02*
X00013250Y00002045D01*
X00010866Y00002029D02*
X00010738Y00002029D01*
X00011298Y00002029D02*
X00010962Y00002029D01*
X00011826Y00002029D02*
X00011458Y00002029D01*
X00012322Y00002029D02*
X00011970Y00002029D01*
X00012834Y00002029D02*
X00012482Y00002029D01*
X00013362Y00002029D02*
X00013234Y00002029D01*
X00010850Y00002013D02*
X00010738Y00002013D01*
X00011298Y00002013D02*
X00010946Y00002013D01*
X00011826Y00002013D02*
X00011458Y00002013D01*
X00012306Y00002013D02*
X00011970Y00002013D01*
X00012834Y00002013D02*
X00012466Y00002013D01*
X00013362Y00002013D02*
X00013234Y00002013D01*
X00010850Y00001997D02*
X00010722Y00001997D01*
X00011298Y00001997D02*
X00010946Y00001997D01*
X00011826Y00001997D02*
X00011458Y00001997D01*
X00012306Y00001997D02*
X00011954Y00001997D01*
X00012818Y00001997D02*
X00012466Y00001997D01*
X00013346Y00001997D02*
X00013218Y00001997D01*
X00010834Y00001981D02*
X00010722Y00001981D01*
X00011282Y00001981D02*
X00010946Y00001981D01*
X00011826Y00001981D02*
X00011442Y00001981D01*
X00012306Y00001981D02*
X00011954Y00001981D01*
X00012818Y00001981D02*
X00012466Y00001981D01*
X00013346Y00001981D02*
X00013218Y00001981D01*
X00010834Y00001965D02*
X00010722Y00001965D01*
X00011282Y00001965D02*
X00010930Y00001965D01*
X00011826Y00001965D02*
X00011442Y00001965D01*
X00012290Y00001965D02*
X00011938Y00001965D01*
X00012818Y00001965D02*
X00012450Y00001965D01*
X00013330Y00001965D02*
X00013218Y00001965D01*
X00010834Y00001949D02*
X00010706Y00001949D01*
X00011266Y00001949D02*
X00010930Y00001949D01*
X00011810Y00001949D02*
X00011426Y00001949D01*
X00012290Y00001949D02*
X00011938Y00001949D01*
X00012802Y00001949D02*
X00012450Y00001949D01*
X00013330Y00001949D02*
X00013202Y00001949D01*
X00010818Y00001933D02*
X00010706Y00001933D01*
X00011266Y00001933D02*
X00010914Y00001933D01*
X00011810Y00001933D02*
X00011426Y00001933D01*
X00012274Y00001933D02*
X00011938Y00001933D01*
X00012802Y00001933D02*
X00012450Y00001933D01*
X00013330Y00001933D02*
X00013202Y00001933D01*
X00010818Y00001917D02*
X00010706Y00001917D01*
X00011266Y00001917D02*
X00010914Y00001917D01*
X00011810Y00001917D02*
X00011426Y00001917D01*
X00012274Y00001917D02*
X00011922Y00001917D01*
X00012802Y00001917D02*
X00012434Y00001917D01*
X00013314Y00001917D02*
X00013202Y00001917D01*
X00010818Y00001901D02*
X00010690Y00001901D01*
X00011250Y00001901D02*
X00010914Y00001901D01*
X00011794Y00001901D02*
X00011426Y00001901D01*
X00012274Y00001901D02*
X00011922Y00001901D01*
X00012786Y00001901D02*
X00012434Y00001901D01*
X00013314Y00001901D02*
X00013186Y00001901D01*
X00010802Y00001885D02*
X00010690Y00001885D01*
X00011250Y00001885D02*
X00010914Y00001885D01*
X00011794Y00001885D02*
X00011410Y00001885D01*
X00012258Y00001885D02*
X00011906Y00001885D01*
X00012786Y00001885D02*
X00012418Y00001885D01*
X00013314Y00001885D02*
X00013186Y00001885D01*
X00010802Y00001869D02*
X00010690Y00001869D01*
X00011250Y00001869D02*
X00010898Y00001869D01*
X00011794Y00001869D02*
X00011410Y00001869D01*
X00012258Y00001869D02*
X00011906Y00001869D01*
X00012786Y00001869D02*
X00012418Y00001869D01*
X00013298Y00001869D02*
X00013186Y00001869D01*
X00010802Y00001853D02*
X00010674Y00001853D01*
X00011234Y00001853D02*
X00010898Y00001853D01*
X00011778Y00001853D02*
X00011394Y00001853D01*
X00012258Y00001853D02*
X00011906Y00001853D01*
X00012770Y00001853D02*
X00012418Y00001853D01*
X00013298Y00001853D02*
X00013170Y00001853D01*
X00010786Y00001837D02*
X00010674Y00001837D01*
X00011234Y00001837D02*
X00010882Y00001837D01*
X00011778Y00001837D02*
X00011394Y00001837D01*
X00012242Y00001837D02*
X00011890Y00001837D01*
X00012770Y00001837D02*
X00012402Y00001837D01*
X00013298Y00001837D02*
X00013170Y00001837D01*
X00010786Y00001821D02*
X00010674Y00001821D01*
X00011234Y00001821D02*
X00010882Y00001821D01*
X00011762Y00001821D02*
X00011378Y00001821D01*
X00012242Y00001821D02*
X00011890Y00001821D01*
X00012754Y00001821D02*
X00012402Y00001821D01*
X00013282Y00001821D02*
X00013170Y00001821D01*
X00010786Y00001805D02*
X00010674Y00001805D01*
X00011234Y00001805D02*
X00010882Y00001805D01*
X00011762Y00001805D02*
X00011378Y00001805D01*
X00012242Y00001805D02*
X00011890Y00001805D01*
X00012754Y00001805D02*
X00012402Y00001805D01*
X00013282Y00001805D02*
X00013154Y00001805D01*
X00010770Y00001789D02*
X00010658Y00001789D01*
X00011250Y00001789D02*
X00010866Y00001789D01*
X00011746Y00001789D02*
X00011378Y00001789D01*
X00012226Y00001789D02*
X00011874Y00001789D01*
X00012754Y00001789D02*
X00012386Y00001789D01*
X00013266Y00001789D02*
X00013138Y00001789D01*
X00010770Y00001773D02*
X00010658Y00001773D01*
X00011250Y00001773D02*
X00010866Y00001773D01*
X00011730Y00001773D02*
X00011378Y00001773D01*
X00012226Y00001773D02*
X00011874Y00001773D01*
X00012738Y00001773D02*
X00012386Y00001773D01*
X00013266Y00001773D02*
X00013154Y00001773D01*
X00010770Y00001757D02*
X00010642Y00001757D01*
X00011250Y00001757D02*
X00010866Y00001757D01*
X00011714Y00001757D02*
X00011362Y00001757D01*
X00012226Y00001757D02*
X00011874Y00001757D01*
X00012738Y00001757D02*
X00012370Y00001757D01*
X00013266Y00001757D02*
X00013138Y00001757D01*
X00010754Y00001741D02*
X00010642Y00001741D01*
X00011266Y00001741D02*
X00010850Y00001741D01*
X00011714Y00001741D02*
X00011346Y00001741D01*
X00012210Y00001741D02*
X00011858Y00001741D01*
X00012738Y00001741D02*
X00012370Y00001741D01*
X00013266Y00001741D02*
X00013138Y00001741D01*
X00010754Y00001725D02*
X00010642Y00001725D01*
X00011698Y00001725D02*
X00010850Y00001725D01*
X00012210Y00001725D02*
X00011858Y00001725D01*
X00012722Y00001725D02*
X00012370Y00001725D01*
X00013250Y00001725D02*
X00013138Y00001725D01*
X00010738Y00001709D02*
X00010626Y00001709D01*
X00011682Y00001709D02*
X00010850Y00001709D01*
X00012210Y00001709D02*
X00011842Y00001709D01*
X00012722Y00001709D02*
X00012354Y00001709D01*
X00013250Y00001709D02*
X00013122Y00001709D01*
X00010738Y00001693D02*
X00010626Y00001693D01*
X00011650Y00001693D02*
X00010834Y00001693D01*
X00012194Y00001693D02*
X00011842Y00001693D01*
X00012722Y00001693D02*
X00012354Y00001693D01*
X00013234Y00001693D02*
X00013122Y00001693D01*
X00010738Y00001677D02*
X00010610Y00001677D01*
X00011634Y00001677D02*
X00010834Y00001677D01*
X00012194Y00001677D02*
X00011842Y00001677D01*
X00012706Y00001677D02*
X00012354Y00001677D01*
X00013234Y00001677D02*
X00013122Y00001677D01*
X00010722Y00001661D02*
X00010610Y00001661D01*
X00011618Y00001661D02*
X00010818Y00001661D01*
X00012178Y00001661D02*
X00011842Y00001661D01*
X00012706Y00001661D02*
X00012338Y00001661D01*
X00013234Y00001661D02*
X00013122Y00001661D01*
X00010722Y00001645D02*
X00010610Y00001645D01*
X00011170Y00001645D02*
X00010818Y00001645D01*
X00011586Y00001645D02*
X00011202Y00001645D01*
X00012178Y00001645D02*
X00011826Y00001645D01*
X00012706Y00001645D02*
X00012338Y00001645D01*
X00013234Y00001645D02*
X00013106Y00001645D01*
X00010722Y00001629D02*
X00010594Y00001629D01*
X00011170Y00001629D02*
X00010818Y00001629D01*
X00011554Y00001629D02*
X00011234Y00001629D01*
X00012178Y00001629D02*
X00011826Y00001629D01*
X00012690Y00001629D02*
X00012322Y00001629D01*
X00013218Y00001629D02*
X00013106Y00001629D01*
X00010706Y00001613D02*
X00010594Y00001613D01*
X00011154Y00001613D02*
X00010818Y00001613D01*
X00011490Y00001613D02*
X00011266Y00001613D01*
X00012162Y00001613D02*
X00011826Y00001613D01*
X00012690Y00001613D02*
X00012322Y00001613D01*
X00013218Y00001613D02*
X00013090Y00001613D01*
X00010706Y00001597D02*
X00010578Y00001597D01*
X00011138Y00001597D02*
X00010818Y00001597D01*
X00011426Y00001597D02*
X00011346Y00001597D01*
X00012146Y00001597D02*
X00011826Y00001597D01*
X00012690Y00001597D02*
X00012322Y00001597D01*
X00013202Y00001597D02*
X00013090Y00001597D01*
X00010706Y00001581D02*
X00010578Y00001581D01*
X00012114Y00001581D02*
X00012098Y00001581D01*
X00012674Y00001581D02*
X00012306Y00001581D01*
X00013202Y00001581D02*
X00013090Y00001581D01*
X00010690Y00001565D02*
X00010578Y00001565D01*
X00012674Y00001565D02*
X00012306Y00001565D01*
X00013202Y00001565D02*
X00013074Y00001565D01*
X00010690Y00001549D02*
X00010578Y00001549D01*
X00012082Y00001549D02*
X00010802Y00001549D01*
X00012978Y00001549D02*
X00012130Y00001549D01*
X00013186Y00001549D02*
X00013074Y00001549D01*
X00010690Y00001533D02*
X00010562Y00001533D01*
X00012978Y00001533D02*
X00010786Y00001533D01*
X00013186Y00001533D02*
X00013074Y00001533D01*
X00010674Y00001517D02*
X00010562Y00001517D01*
X00012082Y00001517D02*
X00010770Y00001517D01*
X00012978Y00001517D02*
X00012098Y00001517D01*
X00013186Y00001517D02*
X00013058Y00001517D01*
X00010674Y00001501D02*
X00010562Y00001501D01*
X00012066Y00001501D02*
X00010770Y00001501D01*
X00012978Y00001501D02*
X00012098Y00001501D01*
X00013170Y00001501D02*
X00013058Y00001501D01*
X00010674Y00001485D02*
X00010546Y00001485D01*
X00012034Y00001485D02*
X00010770Y00001485D01*
X00012978Y00001485D02*
X00012098Y00001485D01*
X00013170Y00001485D02*
X00013058Y00001485D01*
X00010658Y00001469D02*
X00010546Y00001469D01*
X00012018Y00001469D02*
X00010754Y00001469D01*
X00012962Y00001469D02*
X00012082Y00001469D01*
X00013170Y00001469D02*
X00013042Y00001469D01*
X00010658Y00001453D02*
X00010530Y00001453D01*
X00011970Y00001453D02*
X00010754Y00001453D01*
X00012962Y00001453D02*
X00012082Y00001453D01*
X00013154Y00001453D02*
X00013042Y00001453D01*
X00010658Y00001437D02*
X00010530Y00001437D01*
X00011954Y00001437D02*
X00010738Y00001437D01*
X00012946Y00001437D02*
X00012066Y00001437D01*
X00013154Y00001437D02*
X00013042Y00001437D01*
X00010642Y00001421D02*
X00010530Y00001421D01*
X00011922Y00001421D02*
X00010738Y00001421D01*
X00012946Y00001421D02*
X00012066Y00001421D01*
X00013154Y00001421D02*
X00013026Y00001421D01*
X00010642Y00001405D02*
X00010530Y00001405D01*
X00011890Y00001405D02*
X00010738Y00001405D01*
X00012946Y00001405D02*
X00012066Y00001405D01*
X00013138Y00001405D02*
X00013026Y00001405D01*
X00010642Y00001389D02*
X00010514Y00001389D01*
X00011874Y00001389D02*
X00010722Y00001389D01*
X00012930Y00001389D02*
X00012050Y00001389D01*
X00013138Y00001389D02*
X00013026Y00001389D01*
X00010626Y00001373D02*
X00010514Y00001373D01*
X00011842Y00001373D02*
X00010722Y00001373D01*
X00012930Y00001373D02*
X00012050Y00001373D01*
X00013138Y00001373D02*
X00013010Y00001373D01*
X00010626Y00001357D02*
X00010498Y00001357D01*
X00011826Y00001357D02*
X00010722Y00001357D01*
X00012914Y00001357D02*
X00012034Y00001357D01*
X00013122Y00001357D02*
X00013010Y00001357D01*
X00010610Y00001341D02*
X00010498Y00001341D01*
X00011794Y00001341D02*
X00010706Y00001341D01*
X00012914Y00001341D02*
X00012034Y00001341D01*
X00013122Y00001341D02*
X00013010Y00001341D01*
X00010610Y00001325D02*
X00010498Y00001325D01*
X00011778Y00001325D02*
X00010706Y00001325D01*
X00012914Y00001325D02*
X00012034Y00001325D01*
X00013122Y00001325D02*
X00012994Y00001325D01*
X00010610Y00001309D02*
X00010482Y00001309D01*
X00011746Y00001309D02*
X00010690Y00001309D01*
X00012898Y00001309D02*
X00012018Y00001309D01*
X00013106Y00001309D02*
X00012994Y00001309D01*
X00010594Y00001293D02*
X00010482Y00001293D01*
X00011714Y00001293D02*
X00010690Y00001293D01*
X00012898Y00001293D02*
X00012018Y00001293D01*
X00013106Y00001293D02*
X00012994Y00001293D01*
X00010594Y00001277D02*
X00010482Y00001277D01*
X00011698Y00001277D02*
X00010690Y00001277D01*
X00012882Y00001277D02*
X00012018Y00001277D01*
X00013106Y00001277D02*
X00012978Y00001277D01*
X00010594Y00001261D02*
X00010482Y00001261D01*
X00011666Y00001261D02*
X00010674Y00001261D01*
X00012882Y00001261D02*
X00012002Y00001261D01*
X00013106Y00001261D02*
X00012978Y00001261D01*
X00010578Y00001245D02*
X00010466Y00001245D01*
X00011634Y00001245D02*
X00010674Y00001245D01*
X00012866Y00001245D02*
X00012002Y00001245D01*
X00013090Y00001245D02*
X00012978Y00001245D01*
X00010578Y00001229D02*
X00010466Y00001229D01*
X00011634Y00001229D02*
X00010674Y00001229D01*
X00012850Y00001229D02*
X00012002Y00001229D01*
X00013090Y00001229D02*
X00012962Y00001229D01*
X00010578Y00001213D02*
X00010466Y00001213D01*
X00011586Y00001213D02*
X00010690Y00001213D01*
X00012818Y00001213D02*
X00012018Y00001213D01*
X00013074Y00001213D02*
X00012962Y00001213D01*
X00010562Y00001197D02*
X00010450Y00001197D01*
X00010722Y00001197D02*
X00010706Y00001197D01*
X00011570Y00001197D02*
X00011554Y00001197D01*
X00012770Y00001197D02*
X00012738Y00001197D01*
X00012802Y00001197D02*
X00012786Y00001197D01*
X00013074Y00001197D02*
X00012946Y00001197D01*
X00010562Y00001181D02*
X00010450Y00001181D01*
X00013058Y00001181D02*
X00012946Y00001181D01*
X00010562Y00001165D02*
X00010434Y00001165D01*
X00013058Y00001165D02*
X00012914Y00001165D01*
X00010546Y00001149D02*
X00010434Y00001149D01*
X00013042Y00001149D02*
X00012898Y00001149D01*
X00010546Y00001133D02*
X00010434Y00001133D01*
X00010626Y00001133D02*
X00010594Y00001133D01*
X00010658Y00001133D02*
X00010642Y00001133D01*
X00010738Y00001133D02*
X00010706Y00001133D01*
X00012178Y00001133D02*
X00011442Y00001133D01*
X00013042Y00001133D02*
X00012466Y00001133D01*
X00013026Y00001117D02*
X00010418Y00001117D01*
X00013010Y00001101D02*
X00010418Y00001101D01*
X00012994Y00001085D02*
X00010402Y00001085D01*
X00012962Y00001069D02*
X00010402Y00001069D01*
X00012930Y00001053D02*
X00010402Y00001053D01*
X00012898Y00001037D02*
X00010402Y00001037D01*
M02*